G04 Layer_Physical_Order=1*
G04 Layer_Color=255*
%FSAX24Y24*%
%MOIN*%
G70*
G01*
G75*
%ADD10R,0.0118X0.0110*%
%ADD11R,0.0366X0.0091*%
%ADD12R,0.0315X0.0354*%
%ADD13R,0.0236X0.0197*%
%ADD14R,0.0591X0.0551*%
%ADD15C,0.0060*%
%ADD16C,0.0100*%
%ADD17C,0.0600*%
%ADD18R,0.0394X0.0394*%
%ADD19C,0.0394*%
%ADD20C,0.0217*%
%ADD21C,0.0236*%
D10*
X025403Y024117D02*
D03*
X025202D02*
D03*
X025403Y024467D02*
D03*
X025202D02*
D03*
X030537Y029246D02*
D03*
X030336D02*
D03*
X030537Y029596D02*
D03*
X030336D02*
D03*
X033926D02*
D03*
X034127D02*
D03*
X033926Y029236D02*
D03*
X034127D02*
D03*
X025403Y029243D02*
D03*
X025202D02*
D03*
X025403Y029593D02*
D03*
X025202D02*
D03*
X028792D02*
D03*
X028993D02*
D03*
X028792Y029233D02*
D03*
X028993D02*
D03*
X028792Y028883D02*
D03*
X028993D02*
D03*
X030537Y021950D02*
D03*
X030336D02*
D03*
X030537Y021600D02*
D03*
X030336D02*
D03*
X033926Y021600D02*
D03*
X034127D02*
D03*
X033926Y021950D02*
D03*
X034127D02*
D03*
X025403Y021947D02*
D03*
X025202D02*
D03*
X025403Y021597D02*
D03*
X025202D02*
D03*
X028792Y021597D02*
D03*
X028993D02*
D03*
X028792Y021947D02*
D03*
X028993D02*
D03*
X030537Y022310D02*
D03*
X030336D02*
D03*
X030537Y022660D02*
D03*
X030336D02*
D03*
X033926Y022660D02*
D03*
X034127D02*
D03*
X033926Y022310D02*
D03*
X034127D02*
D03*
X025403Y022307D02*
D03*
X025202D02*
D03*
X025403Y022657D02*
D03*
X025202D02*
D03*
X028792Y022657D02*
D03*
X028993D02*
D03*
X028792Y022307D02*
D03*
X028993D02*
D03*
X030537Y023760D02*
D03*
X030336D02*
D03*
X030537Y023410D02*
D03*
X030336D02*
D03*
X033926Y023410D02*
D03*
X034127D02*
D03*
X033926Y023760D02*
D03*
X034127D02*
D03*
X025403Y023757D02*
D03*
X025202D02*
D03*
X025403Y023407D02*
D03*
X025202D02*
D03*
X028792Y023407D02*
D03*
X028993D02*
D03*
X028792Y023757D02*
D03*
X028993D02*
D03*
X030537Y024120D02*
D03*
X030336D02*
D03*
X030537Y024470D02*
D03*
X030336D02*
D03*
X033926Y024470D02*
D03*
X034127D02*
D03*
X033926Y024110D02*
D03*
X034127D02*
D03*
X028792Y024467D02*
D03*
X028993D02*
D03*
X028792Y024107D02*
D03*
X028993D02*
D03*
X030537Y027076D02*
D03*
X030336D02*
D03*
X030537Y026726D02*
D03*
X030336D02*
D03*
X033926D02*
D03*
X034127D02*
D03*
X033926Y027076D02*
D03*
X034127D02*
D03*
X025403Y027073D02*
D03*
X025202D02*
D03*
X025403Y026723D02*
D03*
X025202D02*
D03*
X028792D02*
D03*
X028993D02*
D03*
X028792Y027073D02*
D03*
X028993D02*
D03*
X030537Y027436D02*
D03*
X030336D02*
D03*
X030537Y027786D02*
D03*
X030336D02*
D03*
X033926Y027786D02*
D03*
X034127D02*
D03*
X033926Y027436D02*
D03*
X034127D02*
D03*
X025403Y027433D02*
D03*
X025202D02*
D03*
X025403Y027783D02*
D03*
X025202D02*
D03*
X028792D02*
D03*
X028993D02*
D03*
X028792Y027433D02*
D03*
X028993D02*
D03*
X030537Y028886D02*
D03*
X030336D02*
D03*
X030537Y028536D02*
D03*
X030336D02*
D03*
X033926Y028536D02*
D03*
X034127D02*
D03*
X033926Y028886D02*
D03*
X034127D02*
D03*
X025403Y028883D02*
D03*
X025202D02*
D03*
X025403Y028533D02*
D03*
X025202D02*
D03*
X028792D02*
D03*
X028993D02*
D03*
D11*
X031340Y024622D02*
D03*
X033179D02*
D03*
X031340Y024464D02*
D03*
X033179D02*
D03*
X031340Y024307D02*
D03*
X033179D02*
D03*
X031340Y024149D02*
D03*
X033179D02*
D03*
X031340Y023992D02*
D03*
X033179D02*
D03*
X031340Y023834D02*
D03*
X033179D02*
D03*
X031340Y023677D02*
D03*
X033179D02*
D03*
X031340Y023519D02*
D03*
X033179D02*
D03*
X031340Y023362D02*
D03*
X033179D02*
D03*
X031340Y023204D02*
D03*
X033179D02*
D03*
X031340Y023047D02*
D03*
X033179D02*
D03*
X031340Y022889D02*
D03*
X033179D02*
D03*
X031340Y022732D02*
D03*
X033179D02*
D03*
X031340Y022574D02*
D03*
X033179D02*
D03*
X031340Y022417D02*
D03*
X033179D02*
D03*
X031340Y022259D02*
D03*
X033179D02*
D03*
X031340Y022102D02*
D03*
X033179D02*
D03*
X031340Y021944D02*
D03*
X033179D02*
D03*
X031340Y021787D02*
D03*
X033179D02*
D03*
X031340Y021630D02*
D03*
X033179D02*
D03*
X026206Y029752D02*
D03*
X028045D02*
D03*
X026206Y029594D02*
D03*
X028045D02*
D03*
X026206Y029437D02*
D03*
X028045D02*
D03*
X026206Y029279D02*
D03*
X028045D02*
D03*
X026206Y029122D02*
D03*
X028045D02*
D03*
X026206Y028964D02*
D03*
X028045D02*
D03*
X026206Y028807D02*
D03*
X028045D02*
D03*
X026206Y028649D02*
D03*
X028045D02*
D03*
X026206Y028492D02*
D03*
X028045D02*
D03*
X026206Y028334D02*
D03*
X028045D02*
D03*
X026206Y028177D02*
D03*
X028045D02*
D03*
X026206Y028019D02*
D03*
X028045D02*
D03*
X026206Y027862D02*
D03*
X028045D02*
D03*
X026206Y027704D02*
D03*
X028045D02*
D03*
X026206Y027547D02*
D03*
X028045D02*
D03*
X026206Y027389D02*
D03*
X028045D02*
D03*
X026206Y027232D02*
D03*
X028045D02*
D03*
X026206Y027074D02*
D03*
X028045D02*
D03*
X026206Y026917D02*
D03*
X028045D02*
D03*
X026206Y026759D02*
D03*
X028045D02*
D03*
X031340Y029756D02*
D03*
X033179D02*
D03*
X031340Y029598D02*
D03*
X033179D02*
D03*
X031340Y029441D02*
D03*
X033179D02*
D03*
X031340Y029283D02*
D03*
X033179D02*
D03*
X031340Y029126D02*
D03*
X033179D02*
D03*
X031340Y028968D02*
D03*
X033179D02*
D03*
X031340Y028811D02*
D03*
X033179D02*
D03*
X031340Y028653D02*
D03*
X033179D02*
D03*
X031340Y028496D02*
D03*
X033179D02*
D03*
X031340Y028338D02*
D03*
X033179D02*
D03*
X031340Y028181D02*
D03*
X033179D02*
D03*
X031340Y028023D02*
D03*
X033179D02*
D03*
X031340Y027866D02*
D03*
X033179D02*
D03*
X031340Y027708D02*
D03*
X033179D02*
D03*
X031340Y027551D02*
D03*
X033179D02*
D03*
X031340Y027393D02*
D03*
X033179D02*
D03*
X031340Y027236D02*
D03*
X033179D02*
D03*
X031340Y027078D02*
D03*
X033179D02*
D03*
X031340Y026921D02*
D03*
X033179D02*
D03*
X031340Y026763D02*
D03*
X033179D02*
D03*
X026206Y024626D02*
D03*
X028045D02*
D03*
X026206Y024468D02*
D03*
X028045D02*
D03*
X026206Y024311D02*
D03*
X028045D02*
D03*
X026206Y024153D02*
D03*
X028045D02*
D03*
X026206Y023996D02*
D03*
X028045D02*
D03*
X026206Y023838D02*
D03*
X028045D02*
D03*
X026206Y023681D02*
D03*
X028045D02*
D03*
X026206Y023523D02*
D03*
X028045D02*
D03*
X026206Y023366D02*
D03*
X028045D02*
D03*
X026206Y023208D02*
D03*
X028045D02*
D03*
X026206Y023051D02*
D03*
X028045D02*
D03*
X026206Y022893D02*
D03*
X028045D02*
D03*
X026206Y022736D02*
D03*
X028045D02*
D03*
X026206Y022578D02*
D03*
X028045D02*
D03*
X026206Y022421D02*
D03*
X028045D02*
D03*
X026206Y022263D02*
D03*
X028045D02*
D03*
X026206Y022106D02*
D03*
X028045D02*
D03*
X026206Y021948D02*
D03*
X028045D02*
D03*
X026206Y021791D02*
D03*
X028045D02*
D03*
X026206Y021633D02*
D03*
X028045D02*
D03*
D12*
X025458Y031203D02*
D03*
X024907D02*
D03*
X025498Y020053D02*
D03*
X024947D02*
D03*
X033947Y020033D02*
D03*
X034498D02*
D03*
X033927Y031213D02*
D03*
X034478D02*
D03*
D13*
X025986Y031203D02*
D03*
X026379D02*
D03*
X033399Y031203D02*
D03*
X033006D02*
D03*
X026036Y020053D02*
D03*
X026429D02*
D03*
X033399Y020033D02*
D03*
X033006D02*
D03*
D14*
X022983Y025299D02*
D03*
Y026086D02*
D03*
X036393D02*
D03*
Y025299D02*
D03*
D15*
X032331Y021783D02*
X033179D01*
X031340Y023208D02*
X032167D01*
X031324D02*
X031340D01*
Y021783D02*
X032172D01*
X034127Y028876D02*
X034136D01*
X034316Y028696D01*
X034127Y028526D02*
X034146D01*
X030172Y028723D02*
X030336Y028886D01*
X030166Y028716D02*
X030172Y028723D01*
X028534Y029571D02*
X028555Y029593D01*
X028242Y029279D02*
X028534Y029571D01*
X025403Y029593D02*
X025713D01*
X025379D02*
X025403D01*
X034347Y026927D02*
X034356Y026936D01*
X025718Y029238D02*
X025833Y029122D01*
X025713Y029243D02*
X025718Y029238D01*
X025403Y029243D02*
X025713D01*
X030316Y024463D02*
X030336D01*
X034131Y024107D02*
X034297Y024273D01*
X034127Y024103D02*
X034131Y024107D01*
X030326Y024113D02*
X030336D01*
X033663Y029236D02*
X033926D01*
X033646D02*
X033663D01*
X034127Y023743D02*
X034136D01*
X034316Y023563D01*
X034127Y023393D02*
X034146D01*
X028997Y023407D02*
X029193Y023603D01*
X030316Y022653D02*
X030336D01*
X034131Y022307D02*
X034297Y022473D01*
X034127Y022303D02*
X034131Y022307D01*
X030326Y022303D02*
X030336D01*
X030537Y029596D02*
X030846D01*
X030513D02*
X030537D01*
X034347Y021793D02*
X034356Y021802D01*
X034127Y021943D02*
X034215D01*
X034127Y021593D02*
X034146D01*
X030851Y029241D02*
X030967Y029126D01*
X030846Y029246D02*
X030851Y029241D01*
X030537Y029246D02*
X030846D01*
X025743Y028523D02*
Y028540D01*
X025713Y028533D02*
X025733D01*
X025403D02*
X025713D01*
X025379D02*
X025403D01*
X025713Y028883D02*
X025893D01*
X025403D02*
X025713D01*
X030876Y028526D02*
Y028544D01*
X030846Y028536D02*
X030866D01*
X030537D02*
X030846D01*
X030513D02*
X030537D01*
X030846Y028886D02*
X031020D01*
X030537D02*
X030846D01*
X028523Y027423D02*
X028782D01*
X028513D02*
X028523D01*
X028388Y027547D02*
X028513Y027423D01*
X025739Y027776D02*
X025743Y027773D01*
X025733Y027783D02*
X025739Y027776D01*
X025403Y027783D02*
X025733D01*
X025379D02*
X025403D01*
X025708Y027448D02*
X025807Y027547D01*
X025693Y027433D02*
X025708Y027448D01*
X025403Y027433D02*
X025693D01*
X025379D02*
X025403D01*
X033674Y027426D02*
X033916D01*
X033646D02*
X033674D01*
X033522Y027551D02*
X033646Y027426D01*
X030873Y027780D02*
X030876Y027776D01*
X030866Y027786D02*
X030873Y027780D01*
X030537Y027786D02*
X030866D01*
X030513D02*
X030537D01*
X030773Y027436D02*
X030826D01*
X030537D02*
X030773D01*
X030513D02*
X030537D01*
X028533Y027083D02*
X028543D01*
X025743Y026733D02*
Y026774D01*
X025713Y026723D02*
X025733D01*
X025403D02*
X025713D01*
X025379D02*
X025403D01*
X025723Y027103D02*
Y027133D01*
X025743Y027103D02*
Y027135D01*
Y027083D02*
Y027103D01*
X025738Y027078D02*
X025743Y027083D01*
X025733Y027073D02*
X025738Y027078D01*
X025713Y027073D02*
X025733D01*
X025403D02*
X025713D01*
X025379D02*
X025403D01*
X030876Y026736D02*
Y026778D01*
X030846Y026726D02*
X030866D01*
X030537D02*
X030846D01*
X030513D02*
X030537D01*
X030876Y027103D02*
Y027139D01*
Y027086D02*
Y027103D01*
X030843D02*
Y027103D01*
X030823Y027076D02*
X030866D01*
X030537D02*
X030823D01*
X030513D02*
X030537D01*
X028533Y024107D02*
X028792D01*
X028513D02*
X028533D01*
X025718Y024112D02*
X025833Y023996D01*
X025713Y024117D02*
X025718Y024112D01*
X025403Y024117D02*
X025713D01*
X025403D02*
X025403D01*
X033663Y024103D02*
X033926D01*
X033646D02*
X033663D01*
X033689Y024463D02*
X033926D01*
X030537Y024463D02*
X030846D01*
X030513D02*
X030537D01*
X030851Y024108D02*
X030967Y023992D01*
X030846Y024113D02*
X030851Y024108D01*
X030537Y024113D02*
X030846D01*
X030536D02*
X030537D01*
X028523Y023757D02*
X028792D01*
X025743Y023397D02*
Y023414D01*
X025713Y023407D02*
X025733D01*
X025403D02*
X025713D01*
X025379D02*
X025403D01*
X025713Y023757D02*
X025886D01*
X025403D02*
X025713D01*
X033656Y023753D02*
X033926D01*
X033656Y023403D02*
X033926D01*
X030876Y023393D02*
Y023410D01*
X030846Y023403D02*
X030866D01*
X030537D02*
X030846D01*
X030513D02*
X030537D01*
X030846Y023753D02*
X031020D01*
X030537D02*
X030846D01*
X028543Y022297D02*
X028782D01*
X028513D02*
X028543D01*
X028510Y022300D02*
X028513Y022297D01*
X028388Y022421D02*
X028510Y022300D01*
X025739Y022650D02*
X025743Y022647D01*
X025733Y022657D02*
X025739Y022650D01*
X025403Y022657D02*
X025733D01*
X025379D02*
X025403D01*
Y022307D02*
X025693D01*
X025379D02*
X025403D01*
X033674Y022293D02*
X033916D01*
X033646D02*
X033674D01*
X033522Y022417D02*
X033646Y022293D01*
X033656Y022653D02*
X033926D01*
X030873Y022646D02*
X030876Y022643D01*
X030866Y022653D02*
X030873Y022646D01*
X030537Y022653D02*
X030866D01*
X030513D02*
X030537D01*
X030834Y022311D02*
X030941Y022417D01*
X030826Y022303D02*
X030834Y022311D01*
X030813Y022303D02*
X030826D01*
X030537D02*
X030813D01*
X030513D02*
X030537D01*
X028543Y021983D02*
Y021987D01*
Y021957D02*
Y021983D01*
X028555Y021975D02*
X028583Y021947D01*
X028547Y021983D02*
X028555Y021975D01*
X028533Y021983D02*
Y021985D01*
X025743Y021607D02*
Y021648D01*
X025713Y021597D02*
X025733D01*
X025403D02*
X025713D01*
X025379D02*
X025403D01*
X025743Y021973D02*
Y021997D01*
Y021957D02*
Y021973D01*
X025693Y021947D02*
X025733D01*
X025403D02*
X025693D01*
X025379D02*
X025403D01*
X033716Y021943D02*
X033926D01*
X033656Y021593D02*
X033926D01*
X030866Y021603D02*
Y021628D01*
Y021593D02*
Y021603D01*
X030846Y021593D02*
X030866D01*
X030537D02*
X030846D01*
X030513D02*
X030537D01*
X030823Y021943D02*
X030866D01*
X030537D02*
X030823D01*
X030513D02*
X030537D01*
X030823Y027103D02*
X030843D01*
Y027103D02*
X030846Y027106D01*
X028993Y023407D02*
X028997D01*
X029039Y023757D02*
X029193Y023603D01*
X028993Y023757D02*
X029039D01*
X028993Y028533D02*
X029003D01*
X029193Y028723D01*
X029033Y028883D02*
X029193Y028723D01*
X028993Y028883D02*
X029033D01*
X028993Y029573D02*
X029163Y029403D01*
X028993Y029233D02*
X029163Y029403D01*
X028033Y028323D02*
X028045Y028334D01*
Y028492D01*
Y028177D02*
Y028334D01*
Y028019D02*
Y028177D01*
X026206Y028334D02*
Y028492D01*
Y028177D02*
Y028334D01*
Y028019D02*
Y028177D01*
Y029752D02*
X027044D01*
X026206Y029594D02*
Y029752D01*
X028045Y029594D02*
Y029752D01*
X027044D02*
X027133Y029663D01*
X027213Y029743D01*
X028036D02*
X028045Y029752D01*
X027213Y029743D02*
X028036D01*
X027133Y028433D02*
X027243Y028323D01*
X028033D01*
X027269Y026917D02*
X028045D01*
Y026759D02*
Y026917D01*
X027133Y027053D02*
X027269Y026917D01*
X027008D02*
X027133Y027043D01*
X026206Y026917D02*
X027008D01*
X027133Y027043D02*
Y027053D01*
X026206Y026759D02*
Y026917D01*
X032162Y029753D02*
X032252Y029663D01*
X032083Y029753D02*
X032162D01*
X032080Y029756D02*
X032083Y029753D01*
X031340Y029756D02*
X032080D01*
X032252Y029663D02*
X032342Y029753D01*
X032413D01*
X032416Y029756D01*
X033179D01*
Y029598D02*
Y029756D01*
X031340Y029598D02*
Y029756D01*
X032129Y026774D02*
X032251Y026896D01*
X032252Y028442D02*
X032351Y028343D01*
X033174D01*
X031340Y026763D02*
X032129D01*
X033179Y028338D02*
Y028496D01*
X031340Y028338D02*
X032147D01*
X033179Y028181D02*
Y028338D01*
Y028023D02*
Y028181D01*
X031340Y028338D02*
Y028496D01*
Y028181D02*
Y028338D01*
Y028023D02*
Y028181D01*
Y026763D02*
Y026921D01*
X032384Y026763D02*
X033179D01*
Y026921D01*
X032262Y026886D02*
X032368Y026779D01*
X033179Y024464D02*
Y024622D01*
X032149Y024464D02*
X032252Y024362D01*
X031340Y024464D02*
X032149D01*
X031340D02*
Y024622D01*
Y023208D02*
Y023362D01*
Y023204D02*
Y023208D01*
Y023047D02*
Y023204D01*
Y022889D02*
Y023047D01*
X033179Y023204D02*
Y023362D01*
Y023047D02*
Y023204D01*
Y022889D02*
Y023047D01*
Y021630D02*
Y021783D01*
X031340Y021630D02*
Y021783D01*
X032336Y023208D02*
X033163D01*
X032252Y023123D02*
X032336Y023208D01*
X032167D02*
X032252Y023123D01*
Y024362D02*
X032358Y024468D01*
X033163D01*
X027221Y021791D02*
X028045D01*
X027133Y021703D02*
X027221Y021791D01*
X027046D02*
X027133Y021703D01*
X026206Y021791D02*
X027046D01*
X027017Y024468D02*
X027123Y024362D01*
X027133D01*
X027240Y024468D02*
X028045D01*
X027133Y024362D02*
X027240Y024468D01*
X026206Y023208D02*
X027049D01*
X027133Y023123D01*
X027218Y023208D01*
X026206Y022893D02*
Y023051D01*
X027218Y023208D02*
X028045D01*
Y023366D01*
Y022893D02*
Y023051D01*
Y023208D01*
X026206D02*
Y023366D01*
Y023051D02*
Y023208D01*
Y024468D02*
X027017D01*
X026206D02*
Y024626D01*
X028045Y024468D02*
Y024626D01*
Y021633D02*
Y021791D01*
X026206Y021633D02*
Y021791D01*
X030866Y021628D02*
X031047Y021809D01*
Y022035D01*
X031112Y022100D01*
X031338D01*
X031340Y022102D01*
X030166Y021773D02*
X030336Y021943D01*
X030166Y026906D02*
X030336Y027076D01*
X030166Y026906D02*
X030336Y026736D01*
X033646Y021603D02*
X033656Y021593D01*
X033646Y021603D02*
Y021674D01*
Y022643D02*
X033656Y022653D01*
X033179Y023992D02*
X033536D01*
X033646Y024103D01*
X034347Y021793D02*
Y021811D01*
X034356Y021802D01*
X034316Y021763D02*
X034347Y021793D01*
X034146Y021593D02*
X034316Y021763D01*
X034297D02*
X034316D01*
Y023563D02*
X034336Y023583D01*
X034146Y023393D02*
X034316Y023563D01*
X034297D02*
X034316D01*
X034127Y024443D02*
X034297Y024273D01*
X030166Y021773D02*
X030336Y021603D01*
X030146Y022483D02*
X030166D01*
X030146D02*
X030316Y022653D01*
X030146Y022483D02*
X030326Y022303D01*
X030146Y024293D02*
X030326Y024113D01*
X030146Y024293D02*
X030316Y024463D01*
X030166Y023583D02*
X030336Y023413D01*
X030166Y023583D02*
X030336Y023753D01*
X030866Y023403D02*
X030876Y023393D01*
X030846Y024417D02*
Y024463D01*
X030876Y022643D02*
X030906D01*
X030866Y023403D02*
X031047Y023583D01*
X031020Y023753D02*
X031064Y023797D01*
X031076D01*
X031112Y023832D01*
X031338D01*
X031340Y023834D01*
X030906Y022643D02*
X030975Y022574D01*
X031340D01*
X030941Y022417D02*
X031340D01*
X031102Y022259D02*
X031340D01*
X030856Y022014D02*
X031102Y022259D01*
X033676Y021983D02*
X033716Y021943D01*
X033179Y022574D02*
X033408D01*
X033476Y022643D01*
X033646D01*
X033666Y021953D02*
Y021981D01*
Y021953D02*
X033676D01*
Y021983D01*
X033179Y022417D02*
X033522D01*
X034215Y021943D02*
X034347Y021811D01*
X034127Y022643D02*
X034297Y022473D01*
X033703Y022349D02*
Y022369D01*
X033473Y021776D02*
X033646Y021603D01*
X033179Y022259D02*
X033417D01*
X033716Y021960D01*
X033179Y022102D02*
X033405D01*
X033473Y022035D01*
Y021776D02*
Y022035D01*
X033716Y021943D02*
Y021960D01*
X033646Y022293D02*
X033674Y022321D01*
X033703Y022349D01*
X033179Y023677D02*
X033405D01*
X033646Y023743D02*
X033652Y023749D01*
X033653D01*
X033405Y023677D02*
X033646Y023436D01*
Y023393D02*
Y023436D01*
X033179Y024149D02*
X033405D01*
X033646Y024103D02*
X033660Y024089D01*
X033663D01*
X033405Y024149D02*
X033646Y024390D01*
Y024463D01*
X033179Y023834D02*
X033555D01*
X033646Y023743D01*
X031047Y023583D02*
Y023610D01*
X031114Y023677D01*
X031340D01*
X030846Y024417D02*
X031114Y024149D01*
X031340D01*
X030967Y023992D02*
X031340D01*
X028513Y024394D02*
Y024467D01*
X028271Y024153D02*
X028513Y024394D01*
X028527Y024093D02*
X028533D01*
X028513Y024107D02*
X028527Y024093D01*
X028045Y024153D02*
X028271D01*
X028513Y023397D02*
Y023440D01*
X028271Y023681D02*
X028513Y023440D01*
X028519Y023753D02*
X028523D01*
X028513Y023747D02*
X028519Y023753D01*
X028045Y023681D02*
X028271D01*
X028547Y021983D02*
X028563D01*
X028045Y022106D02*
X028271D01*
X028543Y021987D02*
Y022004D01*
X028045Y022263D02*
X028284D01*
X028271Y022106D02*
X028338Y022039D01*
X028284Y022263D02*
X028543Y022004D01*
X028338Y021852D02*
Y022039D01*
Y021852D02*
X028513Y021678D01*
X028533Y022323D02*
X028543Y022333D01*
Y021987D02*
X028547Y021983D01*
X028533Y021957D02*
X028543D01*
X028513Y022297D02*
X028533Y022317D01*
Y022323D01*
X025713Y024420D02*
Y024467D01*
Y024420D02*
X025980Y024153D01*
X026204Y023836D02*
X026206Y023838D01*
X025978Y023836D02*
X026204D01*
X025942Y023801D02*
X025978Y023836D01*
X025930Y023801D02*
X025942D01*
X025886Y023757D02*
X025930Y023801D01*
X025733Y023407D02*
Y023433D01*
X025980Y023681D01*
X026206D01*
X025743Y021997D02*
Y022038D01*
Y021607D02*
X025913Y021777D01*
Y022039D01*
X025965Y022261D02*
X026007D01*
X025697Y021977D02*
X025723D01*
X025913Y022039D02*
X025980Y022106D01*
X025693Y022307D02*
X025807Y022421D01*
X025693Y021973D02*
X025697Y021977D01*
X025743Y022038D02*
X025965Y022261D01*
X025807Y022421D02*
X026206D01*
X025841Y022578D02*
X026206D01*
X025773Y022647D02*
X025841Y022578D01*
X025980Y022106D02*
X026206D01*
X025723Y021977D02*
X025743Y021997D01*
X025733Y021947D02*
X025743Y021957D01*
X026007Y022261D02*
X026009Y022263D01*
X026206D01*
X025403Y024467D02*
X025713D01*
X025379D02*
X025403D01*
X025743Y022647D02*
X025773D01*
X025723Y021977D02*
X025743Y021957D01*
X025733Y023407D02*
X025743Y023397D01*
X025833Y023996D02*
X026206D01*
X025032Y023587D02*
X025202Y023757D01*
X025032Y023587D02*
X025202Y023417D01*
X025013Y024297D02*
X025032D01*
X025183Y024467D02*
X025202D01*
X025013Y024297D02*
X025183Y024467D01*
X025193Y024117D02*
X025202D01*
X025013Y024297D02*
X025193Y024117D01*
X025013Y022487D02*
X025193Y022307D01*
X025202D01*
X025013Y022487D02*
X025183Y022657D01*
X025202D01*
X025013Y022487D02*
X025032D01*
Y021777D02*
X025202Y021607D01*
X025032Y021777D02*
X025202Y021947D01*
X028993Y024447D02*
X029163Y024277D01*
X028993Y024107D02*
X029163Y024277D01*
X028993Y022647D02*
X029163Y022477D01*
X028993Y022307D02*
X029163Y022477D01*
X028993Y021597D02*
X029013D01*
X028993Y021947D02*
X029082D01*
X029013Y021597D02*
X029213Y021797D01*
X029082Y021947D02*
X029213Y021815D01*
Y021797D02*
Y021815D01*
X028555Y024467D02*
X028792D01*
X028402Y023996D02*
X028513Y024107D01*
X028045Y023996D02*
X028402D01*
X028045Y023838D02*
X028421D01*
X028513Y023747D01*
X028523Y023407D02*
X028792D01*
X028523Y022657D02*
X028792D01*
X028513Y022647D02*
X028523Y022657D01*
X028343Y022647D02*
X028513D01*
X028274Y022578D02*
X028343Y022647D01*
X028045Y022578D02*
X028274D01*
X028045Y022421D02*
X028388D01*
X028583Y021947D02*
X028792D01*
X028523Y021597D02*
X028792D01*
X028513Y021607D02*
X028523Y021597D01*
X028513Y021607D02*
Y021678D01*
X025980Y024153D02*
X026206D01*
X026009Y029279D02*
X026206D01*
X025713Y029576D02*
X026009Y029279D01*
X028513Y026733D02*
Y026804D01*
X030967Y029126D02*
X031340D01*
X031114Y029283D02*
X031340D01*
X030846Y029550D02*
X031114Y029283D01*
Y028811D02*
X031340D01*
X031047Y028744D02*
X031114Y028811D01*
X031047Y028717D02*
Y028744D01*
X033555Y028968D02*
X033646Y028876D01*
X033179Y028968D02*
X033555D01*
X033646Y029524D02*
Y029596D01*
X025713Y029576D02*
Y029593D01*
X033405Y029283D02*
X033646Y029524D01*
X033660Y029223D02*
X033663D01*
X033646Y029236D02*
X033660Y029223D01*
X033179Y029283D02*
X033405D01*
X033646Y028526D02*
Y028569D01*
X033405Y028811D02*
X033646Y028569D01*
X033652Y028883D02*
X033653D01*
X033646Y028876D02*
X033652Y028883D01*
X033179Y028811D02*
X033405D01*
X033674Y027455D02*
X033703Y027483D01*
X033646Y027426D02*
X033674Y027455D01*
X033716Y027076D02*
Y027094D01*
X033473Y026910D02*
Y027168D01*
X033405Y027236D02*
X033473Y027168D01*
X033179Y027236D02*
X033405D01*
X033417Y027393D02*
X033716Y027094D01*
X033179Y027393D02*
X033417D01*
X033473Y026910D02*
X033646Y026736D01*
X033703Y027483D02*
Y027503D01*
X034127Y027436D02*
X034297Y027606D01*
X034127Y027776D02*
X034297Y027606D01*
X034215Y027076D02*
X034347Y026945D01*
X034127Y027076D02*
X034215D01*
X033179Y027551D02*
X033522D01*
X033676Y027086D02*
Y027116D01*
X033666Y027086D02*
X033676D01*
X033666D02*
Y027115D01*
X033476Y027776D02*
X033646D01*
X033408Y027708D02*
X033476Y027776D01*
X033179Y027708D02*
X033408D01*
X033676Y027116D02*
X033716Y027076D01*
X030876Y026736D02*
X031047Y026907D01*
Y027169D01*
X031114Y027236D01*
X030856Y027148D02*
X031102Y027393D01*
X030826Y027436D02*
X030941Y027551D01*
X031102Y027393D02*
X031340D01*
X030856Y027106D02*
Y027148D01*
X030846Y027106D02*
X030856D01*
X030941Y027551D02*
X031340D01*
X030975Y027708D02*
X031340D01*
X030906Y027776D02*
X030975Y027708D01*
X031338Y028966D02*
X031340Y028968D01*
X031112Y028966D02*
X031338D01*
X031076Y028931D02*
X031112Y028966D01*
X031064Y028931D02*
X031076D01*
X031020Y028886D02*
X031064Y028931D01*
X030866Y028536D02*
X031047Y028717D01*
X030866Y027076D02*
X030876Y027086D01*
Y027776D02*
X030906D01*
X031114Y027236D02*
X031340D01*
X030846Y029550D02*
Y029596D01*
X030856Y027106D02*
X030876Y027086D01*
X030866Y028536D02*
X030876Y028526D01*
X030536Y029246D02*
X030537D01*
X030166Y028716D02*
X030336Y028546D01*
X030316Y029596D02*
X030336D01*
X030146Y029426D02*
X030316Y029596D01*
X030326Y029246D02*
X030336D01*
X030146Y029426D02*
X030326Y029246D01*
X030146Y027616D02*
X030326Y027436D01*
X030336D01*
X030146Y027616D02*
X030316Y027786D01*
X030336D01*
X030146Y027616D02*
X030166D01*
X034127Y029576D02*
X034297Y029406D01*
X034127Y029236D02*
X034297Y029406D01*
Y028696D02*
X034316D01*
X034146Y028526D02*
X034316Y028696D01*
X034336Y028716D01*
X034127Y026726D02*
X034146D01*
X034297Y026896D02*
X034316D01*
X034146Y026726D02*
X034316Y026896D01*
X034347Y026927D01*
Y026945D02*
X034356Y026936D01*
X034347Y026927D02*
Y026945D01*
X033689Y029596D02*
X033926D01*
X033536Y029126D02*
X033646Y029236D01*
X033179Y029126D02*
X033536D01*
X033656Y028886D02*
X033926D01*
X033656Y028536D02*
X033926D01*
X033656Y027786D02*
X033926D01*
X033646Y027776D02*
X033656Y027786D01*
X033646Y026736D02*
Y026808D01*
X033716Y027076D02*
X033926D01*
X033656Y026726D02*
X033926D01*
X033646Y026736D02*
X033656Y026726D01*
X028513Y026733D02*
X028523Y026723D01*
X028792D01*
X028583Y027073D02*
X028792D01*
X028543Y027113D02*
X028583Y027073D01*
X028254Y027389D02*
X028533Y027111D01*
X028045Y027389D02*
X028254D01*
X028324Y026992D02*
Y027149D01*
X028242Y027232D02*
X028324Y027149D01*
X028045Y027232D02*
X028242D01*
X028324Y026992D02*
X028513Y026804D01*
X028543Y027083D02*
Y027113D01*
X028533Y027083D02*
Y027111D01*
X028513Y027423D02*
X028523Y027433D01*
X028045Y027547D02*
X028388D01*
X028045Y027704D02*
X028274D01*
X028343Y027773D01*
X028513D01*
X028523Y027783D01*
X028792D01*
X028513Y028523D02*
Y028536D01*
X028523Y028533D02*
X028792D01*
X028421Y028964D02*
X028513Y028873D01*
X028523Y028883D02*
X028792D01*
X028513Y029233D02*
X028792D01*
X028242Y028807D02*
X028513Y028536D01*
X028045Y028807D02*
X028242D01*
X028045Y028964D02*
X028421D01*
X028045Y029279D02*
X028242D01*
X028045Y029122D02*
X028402D01*
X028513Y029233D01*
X028555Y029593D02*
X028792D01*
X029213Y026923D02*
Y026941D01*
X029082Y027073D02*
X029213Y026941D01*
X029013Y026723D02*
X029213Y026923D01*
X028993Y027073D02*
X029082D01*
X028993Y026723D02*
X029013D01*
X028993Y027433D02*
X029163Y027603D01*
X028993Y027773D02*
X029163Y027603D01*
X025032Y026903D02*
X025202Y027073D01*
X025032Y026903D02*
X025202Y026733D01*
X025013Y027613D02*
X025032D01*
X025183Y027783D02*
X025202D01*
X025013Y027613D02*
X025183Y027783D01*
X025193Y027433D02*
X025202D01*
X025013Y027613D02*
X025193Y027433D01*
X025013Y029423D02*
X025193Y029243D01*
X025202D01*
X025013Y029423D02*
X025183Y029593D01*
X025202D01*
X025013Y029423D02*
X025032D01*
X026009Y028807D02*
X026206D01*
X025743Y028540D02*
X026009Y028807D01*
X025032Y028713D02*
X025202Y028543D01*
X025032Y028713D02*
X025202Y028883D01*
X025403Y029243D02*
X025403D01*
X025833Y029122D02*
X026206D01*
X025893Y028883D02*
X025974Y028964D01*
X026206D01*
X025733Y028533D02*
X025743Y028523D01*
X025723Y027103D02*
X025743Y027083D01*
X025807Y027547D02*
X026206D01*
X026009Y027232D02*
X026206D01*
X025723Y027133D02*
X025979Y027389D01*
X026206D01*
X025713Y027103D02*
X025723D01*
X025743Y027773D02*
X025773D01*
X025841Y027704D01*
X026206D01*
X025933Y027155D02*
X026009Y027232D01*
X025933Y026923D02*
Y027155D01*
X025743Y026733D02*
X025933Y026923D01*
X026379Y031203D02*
X026381Y031204D01*
X033917Y031203D02*
X033927Y031213D01*
X026206Y028334D02*
X027035D01*
X032995Y020043D02*
X033006Y020033D01*
X032251Y028442D02*
X032252Y028442D01*
X032147Y028338D02*
X032251Y028442D01*
X032252Y021703D02*
X032331Y021783D01*
X032172D02*
X032252Y021703D01*
X027133Y021623D02*
Y021703D01*
X036383Y028223D02*
X036393Y028213D01*
X027133Y028432D02*
X027133Y028433D01*
X027035Y028334D02*
X027133Y028432D01*
D16*
X032252Y023933D02*
Y024362D01*
Y023123D02*
Y023933D01*
X027133Y027453D02*
Y028432D01*
X023003Y026086D02*
Y028343D01*
Y026073D02*
Y026086D01*
X032252Y029113D02*
Y029663D01*
Y028442D02*
Y029113D01*
X027133Y023903D02*
Y024362D01*
Y023123D02*
Y023903D01*
X026381Y031204D02*
X027133D01*
X025458Y031203D02*
X025986D01*
Y030959D02*
Y031203D01*
Y030959D02*
X026193Y030753D01*
X027133Y029083D02*
Y029663D01*
X032252Y031204D02*
X033004D01*
X033399Y031203D02*
X033917D01*
X033399Y030939D02*
Y031203D01*
X033203Y030743D02*
X033399Y030939D01*
X032251Y026896D02*
Y027523D01*
X024907Y030687D02*
Y031203D01*
X034478Y030707D02*
Y031213D01*
X032252Y020043D02*
X032995D01*
X033399Y020033D02*
X033947D01*
X034498D02*
Y020468D01*
X033399Y020033D02*
Y020416D01*
X033223Y020593D02*
X033399Y020416D01*
X032252Y022173D02*
Y023123D01*
X027133Y021703D02*
Y022273D01*
Y023123D01*
X026439Y020043D02*
X027133D01*
X025498Y020053D02*
X026036D01*
X024947D02*
Y020528D01*
X026036Y020053D02*
Y020526D01*
X026173Y020663D01*
X032251Y027523D02*
Y028442D01*
X026193Y030753D02*
X026623D01*
X027133Y030242D01*
Y029663D02*
Y030242D01*
X032853Y030743D02*
X033203D01*
X032252Y030142D02*
X032853Y030743D01*
X032252Y029663D02*
Y030142D01*
Y021563D02*
X033223Y020593D01*
X032252Y021563D02*
Y021703D01*
Y022173D01*
X026173Y020663D02*
X027133Y021623D01*
X022983Y023043D02*
Y025299D01*
X036393Y026086D02*
Y028213D01*
Y023153D02*
Y025299D01*
X027133Y028433D02*
Y029083D01*
Y027053D02*
Y027453D01*
D17*
X023196Y020771D02*
D03*
X036189D02*
D03*
Y030496D02*
D03*
X023196D02*
D03*
D18*
X027133Y031204D02*
D03*
X032252D02*
D03*
Y020043D02*
D03*
X027133D02*
D03*
D19*
X027633Y031204D02*
D03*
X028133D02*
D03*
X028633D02*
D03*
X031752D02*
D03*
X031252D02*
D03*
X030752D02*
D03*
X031752Y020043D02*
D03*
X031252D02*
D03*
X030752D02*
D03*
X027633D02*
D03*
X028133D02*
D03*
X028633D02*
D03*
D20*
X030773Y027440D02*
D03*
X030823Y027103D02*
D03*
X029213Y024273D02*
D03*
X030813Y022333D02*
D03*
X029463Y023343D02*
D03*
X029213Y023583D02*
D03*
Y022463D02*
D03*
X029203Y027583D02*
D03*
X029193Y028723D02*
D03*
X029483Y029643D02*
D03*
X029203Y029403D02*
D03*
X034103Y025223D02*
D03*
X034573Y025603D02*
D03*
X026793Y025093D02*
D03*
X025583Y025483D02*
D03*
X024783Y024463D02*
D03*
X029923Y025583D02*
D03*
X026333Y025593D02*
D03*
X026893Y025823D02*
D03*
X030383D02*
D03*
X026473Y026053D02*
D03*
X026153Y026293D02*
D03*
X030846Y021603D02*
D03*
X034488Y024521D02*
D03*
X034346Y023923D02*
D03*
X034488Y026695D02*
D03*
X030113Y021813D02*
D03*
X030103Y023623D02*
D03*
X030113Y028783D02*
D03*
X030123Y026943D02*
D03*
X034556Y021593D02*
D03*
X034336Y023583D02*
D03*
X034556Y023393D02*
D03*
X034336Y024273D02*
D03*
X029916Y021583D02*
D03*
X029906Y022653D02*
D03*
X030116Y022123D02*
D03*
X030146Y022483D02*
D03*
Y024293D02*
D03*
X030116Y023933D02*
D03*
X030846Y024463D02*
D03*
X033646Y023393D02*
D03*
X030846D02*
D03*
X029906Y024463D02*
D03*
X029916Y023393D02*
D03*
X030870Y022643D02*
D03*
X030823Y021969D02*
D03*
X033646Y021603D02*
D03*
X033716Y021943D02*
D03*
X034546Y022663D02*
D03*
X034347Y021811D02*
D03*
X034336Y022473D02*
D03*
X034346Y022123D02*
D03*
X033646Y022643D02*
D03*
X033674Y022321D02*
D03*
X033653Y023749D02*
D03*
X033646Y024463D02*
D03*
X033663Y024089D02*
D03*
X030846Y024103D02*
D03*
Y023743D02*
D03*
X028533Y024093D02*
D03*
X028523Y023753D02*
D03*
X028543Y022333D02*
D03*
X028563Y021983D02*
D03*
X028523Y021597D02*
D03*
X028513Y022647D02*
D03*
X025693Y022307D02*
D03*
X025693Y021973D02*
D03*
X025713Y021607D02*
D03*
X025736Y022647D02*
D03*
X024993Y023587D02*
D03*
X024783Y023397D02*
D03*
X025713D02*
D03*
X028513D02*
D03*
X025713Y024107D02*
D03*
X024983Y023937D02*
D03*
X025713Y023747D02*
D03*
X025013Y024297D02*
D03*
Y022487D02*
D03*
X024773Y022657D02*
D03*
X024993Y021777D02*
D03*
X024783Y021587D02*
D03*
X029453Y024503D02*
D03*
X029213Y023927D02*
D03*
X029443Y022703D02*
D03*
X029423Y021597D02*
D03*
X029213Y022127D02*
D03*
X029213Y021815D02*
D03*
X028513Y024467D02*
D03*
X025713D02*
D03*
X024983Y022127D02*
D03*
Y027253D02*
D03*
X028513Y026733D02*
D03*
X030846Y028876D02*
D03*
Y029236D02*
D03*
X033663Y029223D02*
D03*
X033646Y029596D02*
D03*
X025713Y029593D02*
D03*
X028513D02*
D03*
X033653Y028883D02*
D03*
X033674Y027455D02*
D03*
X033646Y027776D02*
D03*
X034346Y027256D02*
D03*
X034336Y027606D02*
D03*
X034347Y026945D02*
D03*
X034546Y027796D02*
D03*
X033716Y027076D02*
D03*
X033646Y026736D02*
D03*
X030846D02*
D03*
X030870Y027776D02*
D03*
X029916Y028526D02*
D03*
X029906Y029596D02*
D03*
X030846Y028526D02*
D03*
X033646D02*
D03*
X030846Y029596D02*
D03*
X030116Y029066D02*
D03*
X030146Y029426D02*
D03*
Y027616D02*
D03*
X030116Y027256D02*
D03*
X029906Y027786D02*
D03*
X029916Y026716D02*
D03*
X034336Y029406D02*
D03*
X034546Y029596D02*
D03*
X034556Y028526D02*
D03*
X034346Y029056D02*
D03*
X034336Y028716D02*
D03*
X028513Y027773D02*
D03*
X028523Y027433D02*
D03*
X028543Y027113D02*
D03*
X029213Y026941D02*
D03*
X029213Y027253D02*
D03*
X029423Y026723D02*
D03*
X029443Y027823D02*
D03*
X029213Y029053D02*
D03*
X029423Y028523D02*
D03*
X024783Y026713D02*
D03*
X024993Y026903D02*
D03*
X024773Y027783D02*
D03*
X025013Y027613D02*
D03*
Y029423D02*
D03*
X025713Y028873D02*
D03*
X024983Y029063D02*
D03*
X025736Y027773D02*
D03*
X028513Y029233D02*
D03*
Y028873D02*
D03*
X025713Y029233D02*
D03*
X028513Y028523D02*
D03*
X025713D02*
D03*
Y026733D02*
D03*
Y027103D02*
D03*
Y027443D02*
D03*
X024773Y029593D02*
D03*
X024783Y028523D02*
D03*
X024993Y028713D02*
D03*
D21*
X030403Y030513D02*
D03*
X026193Y030753D02*
D03*
X027133Y029083D02*
D03*
Y027453D02*
D03*
X033203Y030743D02*
D03*
X032243Y029113D02*
D03*
X032251Y027523D02*
D03*
X024907Y030687D02*
D03*
X034478Y030707D02*
D03*
X034498Y020468D02*
D03*
X033223Y020593D02*
D03*
X032252Y022173D02*
D03*
X032243Y023933D02*
D03*
X027133Y022273D02*
D03*
X027123Y023903D02*
D03*
X024947Y020528D02*
D03*
X026173Y020663D02*
D03*
X023003Y028343D02*
D03*
X022983Y023043D02*
D03*
X036383Y028223D02*
D03*
X036393Y023153D02*
D03*
X030353Y020593D02*
D03*
X029073D02*
D03*
X029063Y030513D02*
D03*
M02*
