G04 Layer_Color=16711935*
%FSAX24Y24*%
%MOIN*%
G70*
G01*
G75*
%ADD27R,0.0138X0.0130*%
%ADD29R,0.0354X0.0394*%
%ADD30R,0.0276X0.0236*%
%ADD32C,0.0639*%
%ADD33R,0.0433X0.0433*%
%ADD34C,0.0433*%
%ADD35C,0.0236*%
%ADD36C,0.0256*%
%ADD37R,0.0700X0.0330*%
%ADD38R,0.0236X0.0276*%
D27*
X033926Y024110D02*
D03*
X034127D02*
D03*
X033926Y024470D02*
D03*
X034127D02*
D03*
X033926Y023760D02*
D03*
X034127D02*
D03*
X033926Y023410D02*
D03*
X034127D02*
D03*
X033926Y022310D02*
D03*
X034127D02*
D03*
X033926Y022660D02*
D03*
X034127D02*
D03*
X033926Y021950D02*
D03*
X034127D02*
D03*
X033926Y021600D02*
D03*
X034127D02*
D03*
X030537Y022660D02*
D03*
X030336D02*
D03*
X030537Y022310D02*
D03*
X030336D02*
D03*
X030537Y021600D02*
D03*
X030336D02*
D03*
X030537Y021950D02*
D03*
X030336D02*
D03*
X030537Y024470D02*
D03*
X030336D02*
D03*
X030537Y024120D02*
D03*
X030336D02*
D03*
X030537Y023410D02*
D03*
X030336D02*
D03*
X030537Y023760D02*
D03*
X030336D02*
D03*
X028792Y022307D02*
D03*
X028993D02*
D03*
X028792Y022657D02*
D03*
X028993D02*
D03*
X028792Y021947D02*
D03*
X028993D02*
D03*
X028792Y021597D02*
D03*
X028993D02*
D03*
X028792Y024107D02*
D03*
X028993D02*
D03*
X028792Y024467D02*
D03*
X028993D02*
D03*
X028792Y023757D02*
D03*
X028993D02*
D03*
X028792Y023407D02*
D03*
X028993D02*
D03*
X025403Y022657D02*
D03*
X025202D02*
D03*
X025403Y022307D02*
D03*
X025202D02*
D03*
X025403Y021597D02*
D03*
X025202D02*
D03*
X025403Y021947D02*
D03*
X025202D02*
D03*
X025403Y024117D02*
D03*
X025202D02*
D03*
X025403Y024467D02*
D03*
X025202D02*
D03*
X025403Y023407D02*
D03*
X025202D02*
D03*
X025403Y023757D02*
D03*
X025202D02*
D03*
X033926Y027436D02*
D03*
X034127D02*
D03*
X033926Y027786D02*
D03*
X034127D02*
D03*
X033926Y027076D02*
D03*
X034127D02*
D03*
X033926Y026726D02*
D03*
X034127D02*
D03*
X033926Y029236D02*
D03*
X034127D02*
D03*
X033926Y029596D02*
D03*
X034127D02*
D03*
X033926Y028886D02*
D03*
X034127D02*
D03*
X033926Y028536D02*
D03*
X034127D02*
D03*
X030537Y027786D02*
D03*
X030336D02*
D03*
X030537Y027436D02*
D03*
X030336D02*
D03*
X030537Y026726D02*
D03*
X030336D02*
D03*
X030537Y027076D02*
D03*
X030336D02*
D03*
X025403Y027073D02*
D03*
X025202D02*
D03*
X025403Y026723D02*
D03*
X025202D02*
D03*
X028792Y026723D02*
D03*
X028993D02*
D03*
X028792Y027073D02*
D03*
X028993D02*
D03*
X025403Y027433D02*
D03*
X025202D02*
D03*
X025403Y027783D02*
D03*
X025202D02*
D03*
X028792Y027783D02*
D03*
X028993D02*
D03*
X028792Y027433D02*
D03*
X028993D02*
D03*
X030537Y028886D02*
D03*
X030336D02*
D03*
X030537Y028536D02*
D03*
X030336D02*
D03*
X025403Y028883D02*
D03*
X025202D02*
D03*
X025403Y028533D02*
D03*
X025202D02*
D03*
X030537Y029246D02*
D03*
X030336D02*
D03*
X030537Y029596D02*
D03*
X030336D02*
D03*
X025403Y029243D02*
D03*
X025202D02*
D03*
X025403Y029593D02*
D03*
X025202D02*
D03*
X028792Y028533D02*
D03*
X028993D02*
D03*
X028792Y028883D02*
D03*
X028993D02*
D03*
X028792Y029593D02*
D03*
X028993D02*
D03*
Y029233D02*
D03*
X028792D02*
D03*
D29*
X027618Y030453D02*
D03*
X027067D02*
D03*
X031777Y030463D02*
D03*
X032328D02*
D03*
X027628Y020823D02*
D03*
X027077D02*
D03*
X031767Y020823D02*
D03*
X032318D02*
D03*
X029968Y020393D02*
D03*
X029417D02*
D03*
X029417Y030863D02*
D03*
X029968D02*
D03*
D30*
X033623Y024940D02*
D03*
X033230D02*
D03*
X033230Y023040D02*
D03*
X033623D02*
D03*
X034413Y023040D02*
D03*
X034020D02*
D03*
X033930Y021230D02*
D03*
X034323D02*
D03*
X030533Y023040D02*
D03*
X030140D02*
D03*
X030940Y023040D02*
D03*
X031333D02*
D03*
X030940Y024940D02*
D03*
X031333D02*
D03*
X028886Y023037D02*
D03*
X029279D02*
D03*
X028796Y021227D02*
D03*
X029189D02*
D03*
X028489Y024937D02*
D03*
X028096D02*
D03*
X028489Y023037D02*
D03*
X028096D02*
D03*
X025399Y023037D02*
D03*
X025006D02*
D03*
X025399Y021227D02*
D03*
X025006D02*
D03*
X025806Y024937D02*
D03*
X026199D02*
D03*
X025806Y023037D02*
D03*
X026199D02*
D03*
X034413Y028166D02*
D03*
X034020D02*
D03*
X033930Y026356D02*
D03*
X034323D02*
D03*
X030533Y028166D02*
D03*
X030140D02*
D03*
X030533Y026356D02*
D03*
X030140D02*
D03*
X033230Y030066D02*
D03*
X033623D02*
D03*
X033230Y028166D02*
D03*
X033623D02*
D03*
X030533Y021230D02*
D03*
X030140D02*
D03*
X030940Y030066D02*
D03*
X031333D02*
D03*
X030940Y028166D02*
D03*
X031333D02*
D03*
X028489Y030063D02*
D03*
X028096D02*
D03*
X025806D02*
D03*
X026199D02*
D03*
X025806Y028163D02*
D03*
X026199D02*
D03*
X028489D02*
D03*
X028096D02*
D03*
X028886D02*
D03*
X029279D02*
D03*
X025399Y028163D02*
D03*
X025006D02*
D03*
X028796Y026353D02*
D03*
X029189D02*
D03*
X025399Y026353D02*
D03*
X025006D02*
D03*
D32*
X023196Y020771D02*
D03*
X036189D02*
D03*
Y030496D02*
D03*
X023196D02*
D03*
D33*
X027133Y031204D02*
D03*
X032252D02*
D03*
Y020043D02*
D03*
X027133D02*
D03*
D34*
X027633Y031204D02*
D03*
X028133D02*
D03*
X028633D02*
D03*
X031752D02*
D03*
X031252D02*
D03*
X030752D02*
D03*
X031752Y020043D02*
D03*
X031252D02*
D03*
X030752D02*
D03*
X027633D02*
D03*
X028133D02*
D03*
X028633D02*
D03*
D35*
X030773Y027440D02*
D03*
X030823Y027103D02*
D03*
X029213Y024273D02*
D03*
X030813Y022333D02*
D03*
X029463Y023343D02*
D03*
X029213Y023583D02*
D03*
Y022463D02*
D03*
X029203Y027583D02*
D03*
X029193Y028723D02*
D03*
X029483Y029643D02*
D03*
X029203Y029403D02*
D03*
X034103Y025223D02*
D03*
X034573Y025603D02*
D03*
X026793Y025093D02*
D03*
X025583Y025483D02*
D03*
X024783Y024463D02*
D03*
X029923Y025583D02*
D03*
X026333Y025593D02*
D03*
X026893Y025823D02*
D03*
X030383D02*
D03*
X026473Y026053D02*
D03*
X026153Y026293D02*
D03*
X030846Y021603D02*
D03*
X034488Y024521D02*
D03*
X034346Y023923D02*
D03*
X034488Y026695D02*
D03*
X030113Y021813D02*
D03*
X030103Y023623D02*
D03*
X030113Y028783D02*
D03*
X030123Y026943D02*
D03*
X034556Y021593D02*
D03*
X034336Y023583D02*
D03*
X034556Y023393D02*
D03*
X034336Y024273D02*
D03*
X029916Y021583D02*
D03*
X029906Y022653D02*
D03*
X030116Y022123D02*
D03*
X030146Y022483D02*
D03*
Y024293D02*
D03*
X030116Y023933D02*
D03*
X030846Y024463D02*
D03*
X033646Y023393D02*
D03*
X030846D02*
D03*
X029906Y024463D02*
D03*
X029916Y023393D02*
D03*
X030870Y022643D02*
D03*
X030823Y021969D02*
D03*
X033646Y021603D02*
D03*
X033716Y021943D02*
D03*
X034546Y022663D02*
D03*
X034347Y021811D02*
D03*
X034336Y022473D02*
D03*
X034346Y022123D02*
D03*
X033646Y022643D02*
D03*
X033674Y022321D02*
D03*
X033653Y023749D02*
D03*
X033646Y024463D02*
D03*
X033663Y024089D02*
D03*
X030846Y024103D02*
D03*
Y023743D02*
D03*
X028533Y024093D02*
D03*
X028523Y023753D02*
D03*
X028543Y022333D02*
D03*
X028563Y021983D02*
D03*
X028523Y021597D02*
D03*
X028513Y022647D02*
D03*
X025693Y022307D02*
D03*
X025693Y021973D02*
D03*
X025713Y021607D02*
D03*
X025736Y022647D02*
D03*
X024993Y023587D02*
D03*
X024783Y023397D02*
D03*
X025713D02*
D03*
X028513D02*
D03*
X025713Y024107D02*
D03*
X024983Y023937D02*
D03*
X025713Y023747D02*
D03*
X025013Y024297D02*
D03*
Y022487D02*
D03*
X024773Y022657D02*
D03*
X024993Y021777D02*
D03*
X024783Y021587D02*
D03*
X029453Y024503D02*
D03*
X029213Y023927D02*
D03*
X029443Y022703D02*
D03*
X029423Y021597D02*
D03*
X029213Y022127D02*
D03*
X029213Y021815D02*
D03*
X028513Y024467D02*
D03*
X025713D02*
D03*
X024983Y022127D02*
D03*
Y027253D02*
D03*
X028513Y026733D02*
D03*
X030846Y028876D02*
D03*
Y029236D02*
D03*
X033663Y029223D02*
D03*
X033646Y029596D02*
D03*
X025713Y029593D02*
D03*
X028513D02*
D03*
X033653Y028883D02*
D03*
X033674Y027455D02*
D03*
X033646Y027776D02*
D03*
X034346Y027256D02*
D03*
X034336Y027606D02*
D03*
X034347Y026945D02*
D03*
X034546Y027796D02*
D03*
X033716Y027076D02*
D03*
X033646Y026736D02*
D03*
X030846D02*
D03*
X030870Y027776D02*
D03*
X029916Y028526D02*
D03*
X029906Y029596D02*
D03*
X030846Y028526D02*
D03*
X033646D02*
D03*
X030846Y029596D02*
D03*
X030116Y029066D02*
D03*
X030146Y029426D02*
D03*
Y027616D02*
D03*
X030116Y027256D02*
D03*
X029906Y027786D02*
D03*
X029916Y026716D02*
D03*
X034336Y029406D02*
D03*
X034546Y029596D02*
D03*
X034556Y028526D02*
D03*
X034346Y029056D02*
D03*
X034336Y028716D02*
D03*
X028513Y027773D02*
D03*
X028523Y027433D02*
D03*
X028543Y027113D02*
D03*
X029213Y026941D02*
D03*
X029213Y027253D02*
D03*
X029423Y026723D02*
D03*
X029443Y027823D02*
D03*
X029213Y029053D02*
D03*
X029423Y028523D02*
D03*
X024783Y026713D02*
D03*
X024993Y026903D02*
D03*
X024773Y027783D02*
D03*
X025013Y027613D02*
D03*
Y029423D02*
D03*
X025713Y028873D02*
D03*
X024983Y029063D02*
D03*
X025736Y027773D02*
D03*
X028513Y029233D02*
D03*
Y028873D02*
D03*
X025713Y029233D02*
D03*
X028513Y028523D02*
D03*
X025713D02*
D03*
Y026733D02*
D03*
Y027103D02*
D03*
Y027443D02*
D03*
X024773Y029593D02*
D03*
X024783Y028523D02*
D03*
X024993Y028713D02*
D03*
D36*
X030403Y030513D02*
D03*
X026193Y030753D02*
D03*
X027133Y029083D02*
D03*
Y027453D02*
D03*
X033203Y030743D02*
D03*
X032243Y029113D02*
D03*
X032251Y027523D02*
D03*
X024907Y030687D02*
D03*
X034478Y030707D02*
D03*
X034498Y020468D02*
D03*
X033223Y020593D02*
D03*
X032252Y022173D02*
D03*
X032243Y023933D02*
D03*
X027133Y022273D02*
D03*
X027123Y023903D02*
D03*
X024947Y020528D02*
D03*
X026173Y020663D02*
D03*
X023003Y028343D02*
D03*
X022983Y023043D02*
D03*
X036383Y028223D02*
D03*
X036393Y023153D02*
D03*
X030353Y020593D02*
D03*
X029073D02*
D03*
X029063Y030513D02*
D03*
D37*
X022668Y027443D02*
D03*
X024118D02*
D03*
X022668Y026943D02*
D03*
X024118D02*
D03*
X022668Y026443D02*
D03*
X024118D02*
D03*
X022668Y025943D02*
D03*
X024118D02*
D03*
X022668Y025443D02*
D03*
X024118D02*
D03*
X022668Y024943D02*
D03*
X024118D02*
D03*
X022668Y024443D02*
D03*
X024118D02*
D03*
X022668Y023943D02*
D03*
X024118D02*
D03*
X036717D02*
D03*
X035267D02*
D03*
X036717Y024443D02*
D03*
X035267D02*
D03*
X036717Y024943D02*
D03*
X035267D02*
D03*
X036717Y025443D02*
D03*
X035267D02*
D03*
X036717Y025943D02*
D03*
X035267D02*
D03*
X036717Y026443D02*
D03*
X035267D02*
D03*
X036717Y026943D02*
D03*
X035267D02*
D03*
X036717Y027443D02*
D03*
X035267D02*
D03*
D38*
X032686Y024224D02*
D03*
Y024617D02*
D03*
X032686Y023817D02*
D03*
Y023424D02*
D03*
X032686Y022584D02*
D03*
Y022977D02*
D03*
X032696Y022197D02*
D03*
Y021804D02*
D03*
X031786Y022584D02*
D03*
Y022977D02*
D03*
X031776Y024224D02*
D03*
Y024617D02*
D03*
X031786Y023817D02*
D03*
Y023424D02*
D03*
X027553Y022580D02*
D03*
Y022973D02*
D03*
X027563Y022193D02*
D03*
Y021800D02*
D03*
X027553Y024220D02*
D03*
Y024613D02*
D03*
X027553Y023813D02*
D03*
Y023420D02*
D03*
X026653Y022580D02*
D03*
Y022973D02*
D03*
X026653Y022193D02*
D03*
Y021800D02*
D03*
X026643Y024220D02*
D03*
Y024613D02*
D03*
X026653Y023813D02*
D03*
Y023420D02*
D03*
X032686Y027710D02*
D03*
Y028103D02*
D03*
X032696Y027323D02*
D03*
Y026930D02*
D03*
X031786Y027710D02*
D03*
Y028103D02*
D03*
X031786Y027323D02*
D03*
Y026930D02*
D03*
X032686Y029350D02*
D03*
Y029743D02*
D03*
X032686Y028943D02*
D03*
Y028550D02*
D03*
X031786Y022197D02*
D03*
Y021804D02*
D03*
X031776Y029350D02*
D03*
Y029743D02*
D03*
X031786Y028943D02*
D03*
Y028550D02*
D03*
X027553Y029346D02*
D03*
Y029739D02*
D03*
X026643Y029346D02*
D03*
Y029739D02*
D03*
X026653Y028939D02*
D03*
Y028546D02*
D03*
X027553Y028939D02*
D03*
Y028546D02*
D03*
X027553Y027706D02*
D03*
Y028099D02*
D03*
X026653Y027706D02*
D03*
Y028099D02*
D03*
X027563Y027319D02*
D03*
Y026926D02*
D03*
X026653Y027319D02*
D03*
Y026926D02*
D03*
M02*
