G04 Layer_Color=128*
%FSAX24Y24*%
%MOIN*%
G70*
G01*
G75*
%ADD10R,0.0118X0.0110*%
%ADD12R,0.0315X0.0354*%
%ADD13R,0.0236X0.0197*%
%ADD22R,0.0660X0.0290*%
%ADD23R,0.0197X0.0236*%
D10*
X033926Y024110D02*
D03*
X034127D02*
D03*
X033926Y024470D02*
D03*
X034127D02*
D03*
X033926Y023760D02*
D03*
X034127D02*
D03*
X033926Y023410D02*
D03*
X034127D02*
D03*
X033926Y022310D02*
D03*
X034127D02*
D03*
X033926Y022660D02*
D03*
X034127D02*
D03*
X033926Y021950D02*
D03*
X034127D02*
D03*
X033926Y021600D02*
D03*
X034127D02*
D03*
X030537Y022660D02*
D03*
X030336D02*
D03*
X030537Y022310D02*
D03*
X030336D02*
D03*
X030537Y021600D02*
D03*
X030336D02*
D03*
X030537Y021950D02*
D03*
X030336D02*
D03*
X030537Y024470D02*
D03*
X030336D02*
D03*
X030537Y024120D02*
D03*
X030336D02*
D03*
X030537Y023410D02*
D03*
X030336D02*
D03*
X030537Y023760D02*
D03*
X030336D02*
D03*
X028792Y022307D02*
D03*
X028993D02*
D03*
X028792Y022657D02*
D03*
X028993D02*
D03*
X028792Y021947D02*
D03*
X028993D02*
D03*
X028792Y021597D02*
D03*
X028993D02*
D03*
X028792Y024107D02*
D03*
X028993D02*
D03*
X028792Y024467D02*
D03*
X028993D02*
D03*
X028792Y023757D02*
D03*
X028993D02*
D03*
X028792Y023407D02*
D03*
X028993D02*
D03*
X025403Y022657D02*
D03*
X025202D02*
D03*
X025403Y022307D02*
D03*
X025202D02*
D03*
X025403Y021597D02*
D03*
X025202D02*
D03*
X025403Y021947D02*
D03*
X025202D02*
D03*
X025403Y024117D02*
D03*
X025202D02*
D03*
X025403Y024467D02*
D03*
X025202D02*
D03*
X025403Y023407D02*
D03*
X025202D02*
D03*
X025403Y023757D02*
D03*
X025202D02*
D03*
X033926Y027436D02*
D03*
X034127D02*
D03*
X033926Y027786D02*
D03*
X034127D02*
D03*
X033926Y027076D02*
D03*
X034127D02*
D03*
X033926Y026726D02*
D03*
X034127D02*
D03*
X033926Y029236D02*
D03*
X034127D02*
D03*
X033926Y029596D02*
D03*
X034127D02*
D03*
X033926Y028886D02*
D03*
X034127D02*
D03*
X033926Y028536D02*
D03*
X034127D02*
D03*
X030537Y027786D02*
D03*
X030336D02*
D03*
X030537Y027436D02*
D03*
X030336D02*
D03*
X030537Y026726D02*
D03*
X030336D02*
D03*
X030537Y027076D02*
D03*
X030336D02*
D03*
X025403Y027073D02*
D03*
X025202D02*
D03*
X025403Y026723D02*
D03*
X025202D02*
D03*
X028792Y026723D02*
D03*
X028993D02*
D03*
X028792Y027073D02*
D03*
X028993D02*
D03*
X025403Y027433D02*
D03*
X025202D02*
D03*
X025403Y027783D02*
D03*
X025202D02*
D03*
X028792Y027783D02*
D03*
X028993D02*
D03*
X028792Y027433D02*
D03*
X028993D02*
D03*
X030537Y028886D02*
D03*
X030336D02*
D03*
X030537Y028536D02*
D03*
X030336D02*
D03*
X025403Y028883D02*
D03*
X025202D02*
D03*
X025403Y028533D02*
D03*
X025202D02*
D03*
X030537Y029246D02*
D03*
X030336D02*
D03*
X030537Y029596D02*
D03*
X030336D02*
D03*
X025403Y029243D02*
D03*
X025202D02*
D03*
X025403Y029593D02*
D03*
X025202D02*
D03*
X028792Y028533D02*
D03*
X028993D02*
D03*
X028792Y028883D02*
D03*
X028993D02*
D03*
X028792Y029593D02*
D03*
X028993D02*
D03*
Y029233D02*
D03*
X028792D02*
D03*
D12*
X027618Y030453D02*
D03*
X027067D02*
D03*
X031777Y030463D02*
D03*
X032328D02*
D03*
X027628Y020823D02*
D03*
X027077D02*
D03*
X031767Y020823D02*
D03*
X032318D02*
D03*
X029968Y020393D02*
D03*
X029417D02*
D03*
X029417Y030863D02*
D03*
X029968D02*
D03*
D13*
X033623Y024940D02*
D03*
X033230D02*
D03*
X033230Y023040D02*
D03*
X033623D02*
D03*
X034413Y023040D02*
D03*
X034020D02*
D03*
X033930Y021230D02*
D03*
X034323D02*
D03*
X030533Y023040D02*
D03*
X030140D02*
D03*
X030940Y023040D02*
D03*
X031333D02*
D03*
X030940Y024940D02*
D03*
X031333D02*
D03*
X028886Y023037D02*
D03*
X029279D02*
D03*
X028796Y021227D02*
D03*
X029189D02*
D03*
X028489Y024937D02*
D03*
X028096D02*
D03*
X028489Y023037D02*
D03*
X028096D02*
D03*
X025399Y023037D02*
D03*
X025006D02*
D03*
X025399Y021227D02*
D03*
X025006D02*
D03*
X025806Y024937D02*
D03*
X026199D02*
D03*
X025806Y023037D02*
D03*
X026199D02*
D03*
X034413Y028166D02*
D03*
X034020D02*
D03*
X033930Y026356D02*
D03*
X034323D02*
D03*
X030533Y028166D02*
D03*
X030140D02*
D03*
X030533Y026356D02*
D03*
X030140D02*
D03*
X033230Y030066D02*
D03*
X033623D02*
D03*
X033230Y028166D02*
D03*
X033623D02*
D03*
X030533Y021230D02*
D03*
X030140D02*
D03*
X030940Y030066D02*
D03*
X031333D02*
D03*
X030940Y028166D02*
D03*
X031333D02*
D03*
X028489Y030063D02*
D03*
X028096D02*
D03*
X025806D02*
D03*
X026199D02*
D03*
X025806Y028163D02*
D03*
X026199D02*
D03*
X028489D02*
D03*
X028096D02*
D03*
X028886D02*
D03*
X029279D02*
D03*
X025399Y028163D02*
D03*
X025006D02*
D03*
X028796Y026353D02*
D03*
X029189D02*
D03*
X025399Y026353D02*
D03*
X025006D02*
D03*
D22*
X022668Y027443D02*
D03*
X024118D02*
D03*
X022668Y026943D02*
D03*
X024118D02*
D03*
X022668Y026443D02*
D03*
X024118D02*
D03*
X022668Y025943D02*
D03*
X024118D02*
D03*
X022668Y025443D02*
D03*
X024118D02*
D03*
X022668Y024943D02*
D03*
X024118D02*
D03*
X022668Y024443D02*
D03*
X024118D02*
D03*
X022668Y023943D02*
D03*
X024118D02*
D03*
X036717D02*
D03*
X035267D02*
D03*
X036717Y024443D02*
D03*
X035267D02*
D03*
X036717Y024943D02*
D03*
X035267D02*
D03*
X036717Y025443D02*
D03*
X035267D02*
D03*
X036717Y025943D02*
D03*
X035267D02*
D03*
X036717Y026443D02*
D03*
X035267D02*
D03*
X036717Y026943D02*
D03*
X035267D02*
D03*
X036717Y027443D02*
D03*
X035267D02*
D03*
D23*
X032686Y024224D02*
D03*
Y024617D02*
D03*
X032686Y023817D02*
D03*
Y023424D02*
D03*
X032686Y022584D02*
D03*
Y022977D02*
D03*
X032696Y022197D02*
D03*
Y021804D02*
D03*
X031786Y022584D02*
D03*
Y022977D02*
D03*
X031776Y024224D02*
D03*
Y024617D02*
D03*
X031786Y023817D02*
D03*
Y023424D02*
D03*
X027553Y022580D02*
D03*
Y022973D02*
D03*
X027563Y022193D02*
D03*
Y021800D02*
D03*
X027553Y024220D02*
D03*
Y024613D02*
D03*
X027553Y023813D02*
D03*
Y023420D02*
D03*
X026653Y022580D02*
D03*
Y022973D02*
D03*
X026653Y022193D02*
D03*
Y021800D02*
D03*
X026643Y024220D02*
D03*
Y024613D02*
D03*
X026653Y023813D02*
D03*
Y023420D02*
D03*
X032686Y027710D02*
D03*
Y028103D02*
D03*
X032696Y027323D02*
D03*
Y026930D02*
D03*
X031786Y027710D02*
D03*
Y028103D02*
D03*
X031786Y027323D02*
D03*
Y026930D02*
D03*
X032686Y029350D02*
D03*
Y029743D02*
D03*
X032686Y028943D02*
D03*
Y028550D02*
D03*
X031786Y022197D02*
D03*
Y021804D02*
D03*
X031776Y029350D02*
D03*
Y029743D02*
D03*
X031786Y028943D02*
D03*
Y028550D02*
D03*
X027553Y029346D02*
D03*
Y029739D02*
D03*
X026643Y029346D02*
D03*
Y029739D02*
D03*
X026653Y028939D02*
D03*
Y028546D02*
D03*
X027553Y028939D02*
D03*
Y028546D02*
D03*
X027553Y027706D02*
D03*
Y028099D02*
D03*
X026653Y027706D02*
D03*
Y028099D02*
D03*
X027563Y027319D02*
D03*
Y026926D02*
D03*
X026653Y027319D02*
D03*
Y026926D02*
D03*
M02*
