G04 Layer_Physical_Order=4*
G04 Layer_Color=16711680*
%FSAX24Y24*%
%MOIN*%
G70*
G01*
G75*
%ADD10R,0.0118X0.0110*%
%ADD12R,0.0315X0.0354*%
%ADD13R,0.0236X0.0197*%
%ADD15C,0.0060*%
%ADD16C,0.0100*%
%ADD17C,0.0600*%
%ADD18R,0.0394X0.0394*%
%ADD19C,0.0394*%
%ADD20C,0.0217*%
%ADD21C,0.0236*%
%ADD22R,0.0660X0.0290*%
%ADD23R,0.0197X0.0236*%
G36*
X037268Y019693D02*
X022117D01*
Y031575D01*
X037268D01*
Y019693D01*
D02*
G37*
%LPC*%
G36*
X027123Y024084D02*
X027053Y024070D01*
X026994Y024031D01*
X026955Y023972D01*
X026941Y023903D01*
X026955Y023833D01*
X026994Y023774D01*
X027053Y023735D01*
X027123Y023721D01*
X027192Y023735D01*
X027251Y023774D01*
X027290Y023833D01*
X027304Y023903D01*
X027290Y023972D01*
X027251Y024031D01*
X027192Y024070D01*
X027123Y024084D01*
D02*
G37*
G36*
X032243Y024114D02*
X032173Y024100D01*
X032114Y024061D01*
X032075Y024002D01*
X032061Y023933D01*
X032075Y023863D01*
X032114Y023804D01*
X032173Y023765D01*
X032243Y023751D01*
X032312Y023765D01*
X032371Y023804D01*
X032410Y023863D01*
X032424Y023933D01*
X032410Y024002D01*
X032371Y024061D01*
X032312Y024100D01*
X032243Y024114D01*
D02*
G37*
G36*
X036667Y023893D02*
X036287D01*
Y023698D01*
X036667D01*
Y023893D01*
D02*
G37*
G36*
X037147D02*
X036767D01*
Y023698D01*
X037147D01*
Y023893D01*
D02*
G37*
G36*
X023098Y024393D02*
X022668D01*
X022238D01*
Y024227D01*
X022238Y024198D01*
X022238Y024158D01*
Y023993D01*
X022668D01*
X023098D01*
Y024158D01*
X023098Y024188D01*
X023098Y024227D01*
Y024393D01*
D02*
G37*
G36*
Y024893D02*
X022668D01*
X022238D01*
Y024727D01*
X022238Y024698D01*
X022238Y024658D01*
Y024493D01*
X022668D01*
X023098D01*
Y024658D01*
X023098Y024688D01*
X023098Y024727D01*
Y024893D01*
D02*
G37*
G36*
X037147D02*
X036287D01*
Y024727D01*
X036287Y024698D01*
X036287Y024658D01*
Y024493D01*
X037147D01*
Y024658D01*
X037147Y024688D01*
X037147Y024727D01*
Y024893D01*
D02*
G37*
G36*
Y024393D02*
X036287D01*
Y024227D01*
X036287Y024198D01*
X036287Y024158D01*
Y023993D01*
X037147D01*
Y024158D01*
X037147Y024188D01*
X037147Y024227D01*
Y024393D01*
D02*
G37*
G36*
X028314Y025135D02*
X028146D01*
Y024937D01*
Y024738D01*
X028314D01*
Y024778D01*
X028421D01*
Y024608D01*
X028391Y024588D01*
X028354Y024532D01*
X028341Y024467D01*
X028354Y024401D01*
X028387Y024351D01*
X028381Y024328D01*
X028371Y024311D01*
X027711D01*
Y024395D01*
X027751D01*
Y024563D01*
X027553D01*
X027354D01*
Y024395D01*
X027394D01*
Y024042D01*
X027711D01*
Y024128D01*
X028328D01*
X028361Y024093D01*
X028374Y024027D01*
X028411Y023971D01*
X028446Y023948D01*
X028448Y023941D01*
X028448Y023919D01*
X028439Y023905D01*
X027711D01*
Y023991D01*
X027394D01*
Y023638D01*
X027354D01*
Y023470D01*
X027751D01*
Y023638D01*
X027711D01*
Y023722D01*
X028357D01*
X028364Y023687D01*
X028401Y023631D01*
X028453Y023596D01*
X028454Y023582D01*
X028449Y023555D01*
X028447Y023555D01*
X028391Y023518D01*
X028354Y023462D01*
X028341Y023397D01*
X028354Y023331D01*
X028391Y023275D01*
X028421Y023255D01*
Y023195D01*
X028314D01*
Y023235D01*
X028146D01*
Y023037D01*
Y022838D01*
X028314D01*
Y022878D01*
X028663D01*
X028677Y022873D01*
X028700Y022862D01*
Y022800D01*
X028673Y022772D01*
X028634Y022768D01*
X028578Y022805D01*
X028513Y022818D01*
X028447Y022805D01*
X028391Y022768D01*
X028354Y022712D01*
X028342Y022652D01*
X028307Y022632D01*
X028294Y022645D01*
X028264Y022664D01*
X028229Y022671D01*
X027711D01*
Y022755D01*
X027751D01*
Y022923D01*
X027553D01*
X027354D01*
Y022755D01*
X027394D01*
Y022407D01*
X027394Y022402D01*
X027394D01*
X027404Y022371D01*
X027404Y022371D01*
Y022018D01*
X027364D01*
Y021850D01*
X027761D01*
Y022018D01*
X027721D01*
Y022102D01*
X028266D01*
X028392Y021975D01*
X028404Y021917D01*
X028441Y021861D01*
X028497Y021824D01*
X028563Y021811D01*
X028628Y021824D01*
X028654Y021841D01*
X028673Y021831D01*
Y021831D01*
X029028D01*
X029042Y021815D01*
X029054Y021751D01*
X029055Y021744D01*
X029035Y021712D01*
X028673D01*
X028673Y021712D01*
X028638Y021722D01*
X028588Y021755D01*
X028523Y021768D01*
X028457Y021755D01*
X028401Y021718D01*
X028364Y021662D01*
X028351Y021597D01*
X028364Y021531D01*
X028401Y021475D01*
X028457Y021438D01*
X028523Y021425D01*
X028588Y021438D01*
X028638Y021471D01*
X028661Y021478D01*
X028694Y021460D01*
X028700Y021453D01*
Y021385D01*
X028618D01*
Y021068D01*
X028971D01*
Y021028D01*
X029139D01*
Y021227D01*
X029189D01*
Y021277D01*
X029407D01*
Y021388D01*
X029423Y021425D01*
X029445Y021429D01*
X029488Y021438D01*
X029544Y021475D01*
X029581Y021531D01*
X029594Y021597D01*
X029581Y021662D01*
X029544Y021718D01*
X029488Y021755D01*
X029423Y021768D01*
X029408Y021765D01*
X029381Y021793D01*
X029385Y021815D01*
X029372Y021880D01*
X029335Y021936D01*
X029312Y021951D01*
Y021991D01*
X029334Y022005D01*
X029371Y022061D01*
X029384Y022127D01*
X029371Y022192D01*
X029334Y022248D01*
X029299Y022271D01*
Y022318D01*
X029334Y022341D01*
X029371Y022397D01*
X029384Y022463D01*
X029376Y022504D01*
X029408Y022538D01*
X029443Y022531D01*
X029508Y022544D01*
X029564Y022581D01*
X029601Y022637D01*
X029614Y022703D01*
X029601Y022768D01*
X029564Y022824D01*
X029508Y022861D01*
X029497Y022863D01*
Y022987D01*
X029279D01*
Y023087D01*
X029497D01*
Y023178D01*
X029528Y023184D01*
X029584Y023221D01*
X029621Y023277D01*
X029634Y023343D01*
X029621Y023408D01*
X029584Y023464D01*
X029528Y023501D01*
X029463Y023514D01*
X029405Y023503D01*
X029382Y023522D01*
X029374Y023533D01*
X029384Y023583D01*
X029371Y023648D01*
X029334Y023704D01*
X029291Y023733D01*
X029290Y023735D01*
Y023774D01*
X029291Y023776D01*
X029334Y023805D01*
X029371Y023861D01*
X029384Y023927D01*
X029371Y023992D01*
X029334Y024048D01*
X029289Y024078D01*
X029288Y024083D01*
Y024116D01*
X029289Y024121D01*
X029334Y024151D01*
X029371Y024207D01*
X029384Y024273D01*
X029377Y024307D01*
X029411Y024339D01*
X029453Y024331D01*
X029518Y024344D01*
X029574Y024381D01*
X029611Y024437D01*
X029624Y024503D01*
X029611Y024568D01*
X029574Y024624D01*
X029518Y024661D01*
X029453Y024674D01*
X029387Y024661D01*
X029331Y024624D01*
X029306Y024587D01*
X029031D01*
X029006Y024582D01*
X028673D01*
Y024582D01*
X028635Y024586D01*
X028634Y024588D01*
X028604Y024608D01*
Y024778D01*
X028667D01*
Y025095D01*
X028314D01*
Y025135D01*
D02*
G37*
G36*
X023098Y023893D02*
X022718D01*
Y023698D01*
X023098D01*
Y023893D01*
D02*
G37*
G36*
X028046Y022987D02*
X027878D01*
Y022838D01*
X028046D01*
Y022987D01*
D02*
G37*
G36*
X022983Y023224D02*
X022913Y023210D01*
X022854Y023171D01*
X022815Y023112D01*
X022801Y023043D01*
X022815Y022973D01*
X022854Y022914D01*
X022913Y022875D01*
X022983Y022861D01*
X023052Y022875D01*
X023111Y022914D01*
X023150Y022973D01*
X023164Y023043D01*
X023150Y023112D01*
X023111Y023171D01*
X023052Y023210D01*
X022983Y023224D01*
D02*
G37*
G36*
X027133Y022454D02*
X027064Y022440D01*
X027005Y022401D01*
X026966Y022342D01*
X026952Y022273D01*
X026966Y022203D01*
X027005Y022144D01*
X027064Y022105D01*
X027133Y022091D01*
X027203Y022105D01*
X027262Y022144D01*
X027301Y022203D01*
X027315Y022273D01*
X027301Y022342D01*
X027262Y022401D01*
X027203Y022440D01*
X027133Y022454D01*
D02*
G37*
G36*
X026851Y023370D02*
X026454D01*
Y023242D01*
X026417Y023235D01*
Y023235D01*
X026249D01*
Y023037D01*
Y022838D01*
X026417D01*
Y022838D01*
X026454Y022831D01*
Y022755D01*
X026494D01*
Y022671D01*
X026026D01*
X025991Y022664D01*
X025961Y022645D01*
X025944Y022628D01*
X025908Y022647D01*
X025895Y022712D01*
X025857Y022768D01*
X025802Y022805D01*
X025736Y022818D01*
X025670Y022805D01*
X025615Y022768D01*
X025595Y022738D01*
X025522D01*
Y022772D01*
X025495D01*
Y022878D01*
X025577D01*
Y023195D01*
X025224D01*
Y023235D01*
X025056D01*
Y023037D01*
X025006D01*
Y022987D01*
X024788D01*
Y022865D01*
X024774Y022833D01*
X024754Y022824D01*
X024707Y022815D01*
X024651Y022778D01*
X024614Y022722D01*
X024601Y022657D01*
X024614Y022591D01*
X024651Y022535D01*
X024707Y022498D01*
X024773Y022485D01*
X024803Y022491D01*
X024841Y022487D01*
X024846Y022462D01*
X024854Y022421D01*
X024891Y022365D01*
X024943Y022330D01*
X024945Y022316D01*
X024939Y022289D01*
X024917Y022285D01*
X024861Y022248D01*
X024824Y022192D01*
X024811Y022127D01*
X024824Y022061D01*
X024861Y022005D01*
X024914Y021970D01*
X024915Y021968D01*
X024917Y021953D01*
X024916Y021928D01*
X024871Y021898D01*
X024834Y021842D01*
X024824Y021790D01*
X024788Y021757D01*
X024783Y021758D01*
X024717Y021745D01*
X024661Y021708D01*
X024624Y021652D01*
X024611Y021587D01*
X024624Y021521D01*
X024661Y021465D01*
X024717Y021428D01*
X024783Y021415D01*
X024788Y021411D01*
Y021277D01*
X025006D01*
Y021227D01*
X025056D01*
Y021028D01*
X025224D01*
Y021068D01*
X025577D01*
Y021385D01*
X025495D01*
Y021481D01*
X025522D01*
Y021515D01*
X025571D01*
X025591Y021485D01*
X025647Y021448D01*
X025713Y021435D01*
X025778Y021448D01*
X025834Y021485D01*
X025871Y021541D01*
X025884Y021607D01*
X025871Y021672D01*
X025834Y021728D01*
X025778Y021765D01*
X025746Y021771D01*
Y021812D01*
X025758Y021814D01*
X025814Y021851D01*
X025851Y021907D01*
X025858Y021942D01*
X026017Y022102D01*
X026494D01*
Y022018D01*
X026454D01*
Y021850D01*
X026851D01*
Y022018D01*
X026811D01*
Y022371D01*
X026811D01*
X026811Y022402D01*
X026811D01*
Y022755D01*
X026851D01*
Y022923D01*
X026653D01*
Y023023D01*
X026851D01*
Y023191D01*
X026851D01*
X026851Y023202D01*
X026851D01*
Y023370D01*
D02*
G37*
G36*
X036393Y023334D02*
X036323Y023320D01*
X036264Y023281D01*
X036225Y023222D01*
X036211Y023153D01*
X036225Y023083D01*
X036264Y023024D01*
X036323Y022985D01*
X036393Y022971D01*
X036462Y022985D01*
X036521Y023024D01*
X036560Y023083D01*
X036574Y023153D01*
X036560Y023222D01*
X036521Y023281D01*
X036462Y023320D01*
X036393Y023334D01*
D02*
G37*
G36*
X028046Y023235D02*
X027878D01*
Y023087D01*
X028046D01*
Y023235D01*
D02*
G37*
G36*
X022618Y023893D02*
X022238D01*
Y023698D01*
X022618D01*
Y023893D01*
D02*
G37*
G36*
X027751Y023370D02*
X027354D01*
Y023202D01*
X027354D01*
X027354Y023191D01*
X027354D01*
Y023023D01*
X027553D01*
X027751D01*
Y023191D01*
X027751D01*
X027751Y023202D01*
X027751D01*
Y023370D01*
D02*
G37*
G36*
X032885Y023374D02*
X032488D01*
Y023206D01*
X032488D01*
X032488Y023195D01*
X032488D01*
Y023027D01*
X032686D01*
X032885D01*
Y023195D01*
X032885D01*
X032885Y023206D01*
X032885D01*
Y023374D01*
D02*
G37*
G36*
X028046Y025135D02*
X027878D01*
Y024987D01*
X028046D01*
Y025135D01*
D02*
G37*
G36*
X033180Y025139D02*
X033011D01*
Y024990D01*
X033180D01*
Y025139D01*
D02*
G37*
G36*
Y024890D02*
X033011D01*
Y024742D01*
X033180D01*
Y024890D01*
D02*
G37*
G36*
X031283Y025139D02*
X031115D01*
Y025099D01*
X030761D01*
Y024782D01*
X030761Y024782D01*
X030761D01*
X030772Y024743D01*
X030762Y024728D01*
X030755Y024693D01*
Y024604D01*
X030725Y024584D01*
X030705Y024554D01*
X030656Y024554D01*
Y024586D01*
X030338D01*
X030323Y024596D01*
X030288Y024603D01*
X030000D01*
X029972Y024621D01*
X029906Y024634D01*
X029841Y024621D01*
X029785Y024584D01*
X029748Y024528D01*
X029735Y024463D01*
X029748Y024397D01*
X029785Y024341D01*
X029841Y024304D01*
X029906Y024291D01*
X029937Y024297D01*
X029974Y024293D01*
X029980Y024269D01*
X029988Y024227D01*
X030025Y024171D01*
X030077Y024137D01*
X030078Y024122D01*
X030073Y024096D01*
X030051Y024091D01*
X029995Y024054D01*
X029958Y023998D01*
X029945Y023933D01*
X029958Y023867D01*
X029995Y023811D01*
X030003Y023806D01*
Y023759D01*
X029981Y023744D01*
X029944Y023688D01*
X029931Y023623D01*
X029936Y023597D01*
X029910Y023563D01*
X029851Y023551D01*
X029795Y023514D01*
X029758Y023458D01*
X029745Y023393D01*
X029758Y023327D01*
X029795Y023271D01*
X029851Y023234D01*
X029916Y023221D01*
X029921Y023217D01*
Y023090D01*
X030140D01*
Y022990D01*
X029921D01*
Y022861D01*
X029911Y022835D01*
X029891Y022821D01*
X029841Y022811D01*
X029785Y022774D01*
X029748Y022718D01*
X029735Y022653D01*
X029748Y022587D01*
X029785Y022531D01*
X029841Y022494D01*
X029906Y022481D01*
X029937Y022487D01*
X029974Y022483D01*
X029980Y022459D01*
X029988Y022417D01*
X030025Y022361D01*
X030077Y022327D01*
X030078Y022312D01*
X030073Y022286D01*
X030051Y022281D01*
X029995Y022244D01*
X029958Y022188D01*
X029945Y022123D01*
X029958Y022057D01*
X029995Y022001D01*
X030014Y021989D01*
Y021949D01*
X029991Y021934D01*
X029954Y021878D01*
X029941Y021813D01*
X029946Y021788D01*
X029916Y021754D01*
X029851Y021741D01*
X029795Y021704D01*
X029758Y021648D01*
X029745Y021583D01*
X029758Y021517D01*
X029795Y021461D01*
X029851Y021424D01*
X029916Y021411D01*
X029921Y021407D01*
Y021280D01*
X030140D01*
Y021230D01*
X030190D01*
Y021032D01*
X030358D01*
Y021072D01*
X030711D01*
Y021389D01*
X030629D01*
Y021485D01*
X030656D01*
Y021511D01*
X030705D01*
X030725Y021481D01*
X030781Y021444D01*
X030846Y021431D01*
X030912Y021444D01*
X030968Y021481D01*
X031005Y021537D01*
X031018Y021603D01*
X031005Y021668D01*
X030968Y021724D01*
X030912Y021761D01*
X030878Y021768D01*
Y021808D01*
X030888Y021810D01*
X030944Y021847D01*
X030981Y021903D01*
X030994Y021969D01*
X030987Y022004D01*
X031081Y022098D01*
X031628D01*
Y022022D01*
X031588D01*
Y021854D01*
X031985D01*
Y022022D01*
X031945D01*
Y022375D01*
X031945D01*
X031945Y022406D01*
X031945D01*
Y022759D01*
X031985D01*
Y022927D01*
X031786D01*
Y023027D01*
X031985D01*
Y023195D01*
X031985D01*
X031985Y023206D01*
X031985D01*
Y023374D01*
X031588D01*
Y023246D01*
X031551Y023239D01*
Y023239D01*
X031383D01*
Y023040D01*
Y022842D01*
X031551D01*
Y022842D01*
X031588Y022835D01*
Y022759D01*
X031628D01*
Y022668D01*
X031160D01*
X031124Y022661D01*
X031095Y022641D01*
X031078Y022624D01*
X031041Y022643D01*
X031028Y022708D01*
X030991Y022764D01*
X030936Y022801D01*
X030870Y022814D01*
X030804Y022801D01*
X030749Y022764D01*
X030729Y022734D01*
X030656D01*
Y022776D01*
X030629D01*
Y022882D01*
X030711D01*
Y023199D01*
X030358D01*
Y023239D01*
X030346D01*
X030336Y023278D01*
X030358Y023295D01*
X030656D01*
Y023301D01*
X030705D01*
X030725Y023271D01*
X030761Y023247D01*
X030762Y023236D01*
X030761Y023199D01*
X030761Y023199D01*
X030761Y023199D01*
Y022882D01*
X031115D01*
Y022842D01*
X031283D01*
Y023040D01*
Y023239D01*
X031115D01*
Y023199D01*
X031025D01*
X031024Y023205D01*
X031004Y023234D01*
X030968Y023271D01*
Y023272D01*
X031005Y023327D01*
X031018Y023393D01*
X031005Y023458D01*
X030968Y023514D01*
X030920Y023546D01*
X030917Y023562D01*
Y023574D01*
X030920Y023589D01*
X030968Y023621D01*
X031005Y023677D01*
X031013Y023718D01*
X031628D01*
Y023642D01*
X031588D01*
Y023474D01*
X031985D01*
Y023642D01*
X031945D01*
Y023995D01*
X031628D01*
Y023901D01*
X030943D01*
X030931Y023911D01*
X030933Y023958D01*
X030968Y023981D01*
X031005Y024037D01*
X031018Y024103D01*
X031054Y024124D01*
X031618D01*
Y024046D01*
X031935D01*
Y024399D01*
X031975D01*
Y024567D01*
X031776D01*
X031578D01*
Y024399D01*
X031618D01*
Y024308D01*
X030988D01*
X030974Y024330D01*
X030971Y024346D01*
X031005Y024397D01*
X031018Y024463D01*
X031005Y024528D01*
X030968Y024584D01*
X030938Y024604D01*
Y024655D01*
X030997Y024714D01*
X031017Y024744D01*
X031024Y024779D01*
Y024782D01*
X031115D01*
Y024742D01*
X031283D01*
Y024940D01*
Y025139D01*
D02*
G37*
G36*
X031551D02*
X031383D01*
Y024990D01*
X031551D01*
Y025139D01*
D02*
G37*
G36*
X034103Y025394D02*
X034037Y025381D01*
X033981Y025344D01*
X033944Y025288D01*
X033931Y025223D01*
X033944Y025157D01*
X033981Y025101D01*
X034037Y025064D01*
X034103Y025051D01*
X034168Y025064D01*
X034224Y025101D01*
X034261Y025157D01*
X034274Y025223D01*
X034261Y025288D01*
X034224Y025344D01*
X034168Y025381D01*
X034103Y025394D01*
D02*
G37*
G36*
X029923Y025754D02*
X029857Y025741D01*
X029801Y025704D01*
X029764Y025648D01*
X029751Y025583D01*
X029764Y025517D01*
X029801Y025461D01*
X029857Y025424D01*
X029923Y025411D01*
X029988Y025424D01*
X030044Y025461D01*
X030081Y025517D01*
X030094Y025583D01*
X030081Y025648D01*
X030044Y025704D01*
X029988Y025741D01*
X029923Y025754D01*
D02*
G37*
G36*
X023098Y025393D02*
X022668D01*
X022238D01*
Y025227D01*
X022238Y025198D01*
X022238Y025158D01*
Y024993D01*
X022668D01*
X023098D01*
Y025158D01*
X023098Y025188D01*
X023098Y025227D01*
Y025393D01*
D02*
G37*
G36*
X037147D02*
X036287D01*
Y025227D01*
X036287Y025198D01*
X036287Y025158D01*
Y024993D01*
X037147D01*
Y025158D01*
X037147Y025188D01*
X037147Y025227D01*
Y025393D01*
D02*
G37*
G36*
X028046Y024887D02*
X027878D01*
Y024738D01*
X028046D01*
Y024887D01*
D02*
G37*
G36*
X026693Y024832D02*
Y024663D01*
X026841D01*
Y024832D01*
X026693D01*
D02*
G37*
G36*
X027751D02*
X027603D01*
Y024663D01*
X027751D01*
Y024832D01*
D02*
G37*
G36*
X026417Y024887D02*
X026249D01*
Y024738D01*
X026417D01*
X026444Y024710D01*
Y024663D01*
X026593D01*
Y024832D01*
X026444D01*
X026417Y024860D01*
Y024887D01*
D02*
G37*
G36*
X027503Y024832D02*
X027354D01*
Y024663D01*
X027503D01*
Y024832D01*
D02*
G37*
G36*
X035657Y025648D02*
X034877D01*
Y025286D01*
X034856Y025282D01*
X034826Y025262D01*
X034642Y025078D01*
X034622Y025048D01*
X034615Y025013D01*
Y024686D01*
X034576Y024665D01*
X034554Y024679D01*
X034488Y024692D01*
X034423Y024679D01*
X034367Y024642D01*
X034330Y024586D01*
X034329Y024583D01*
X034246D01*
Y024586D01*
X034018D01*
Y024638D01*
X034011Y024673D01*
X033991Y024703D01*
X033801Y024892D01*
Y025099D01*
X033448D01*
Y025139D01*
X033280D01*
Y024940D01*
Y024742D01*
X033448D01*
Y024782D01*
X033652D01*
X033809Y024625D01*
X033807Y024586D01*
X033768Y024584D01*
X033712Y024621D01*
X033646Y024634D01*
X033581Y024621D01*
X033525Y024584D01*
X033488Y024528D01*
X033475Y024463D01*
X033488Y024397D01*
X033521Y024347D01*
X033515Y024325D01*
X033505Y024308D01*
X032845D01*
Y024399D01*
X032885D01*
Y024567D01*
X032686D01*
X032488D01*
Y024399D01*
X032528D01*
Y024046D01*
X032845D01*
Y024124D01*
X033458D01*
X033491Y024089D01*
X033504Y024023D01*
X033541Y023967D01*
X033576Y023944D01*
X033578Y023937D01*
X033578Y023919D01*
X033569Y023901D01*
X032845D01*
Y023995D01*
X032528D01*
Y023642D01*
X032488D01*
Y023474D01*
X032885D01*
Y023642D01*
X032845D01*
Y023718D01*
X033487D01*
X033494Y023683D01*
X033531Y023627D01*
X033584Y023592D01*
X033585Y023581D01*
X033581Y023551D01*
X033581Y023551D01*
X033525Y023514D01*
X033488Y023458D01*
X033481Y023421D01*
X033258Y023199D01*
X033051D01*
Y022882D01*
X033405D01*
Y022842D01*
X033585D01*
X033589Y022803D01*
X033581Y022801D01*
X033525Y022764D01*
X033488Y022708D01*
X033476Y022648D01*
X033441Y022628D01*
X033428Y022641D01*
X033398Y022661D01*
X033363Y022668D01*
X032845D01*
Y022759D01*
X032885D01*
Y022927D01*
X032686D01*
X032488D01*
Y022759D01*
X032528D01*
Y022411D01*
X032528Y022406D01*
X032528D01*
X032538Y022375D01*
X032538Y022375D01*
Y022022D01*
X032498D01*
Y021854D01*
X032895D01*
Y022022D01*
X032855D01*
Y022098D01*
X033432D01*
X033552Y021977D01*
X033545Y021943D01*
X033558Y021877D01*
X033595Y021821D01*
X033615Y021808D01*
X033607Y021766D01*
X033581Y021761D01*
X033525Y021724D01*
X033488Y021668D01*
X033475Y021603D01*
X033488Y021537D01*
X033525Y021481D01*
X033581Y021444D01*
X033646Y021431D01*
X033712Y021444D01*
X033768Y021481D01*
X033769Y021483D01*
X033795Y021485D01*
X033831Y021460D01*
X033834Y021457D01*
Y021389D01*
X033751D01*
Y021072D01*
X034105D01*
Y021032D01*
X034273D01*
Y021230D01*
X034323D01*
Y021280D01*
X034541D01*
Y021409D01*
X034556Y021421D01*
X034622Y021434D01*
X034678Y021471D01*
X034715Y021527D01*
X034728Y021593D01*
X034715Y021658D01*
X034701Y021680D01*
X034722Y021719D01*
X034921D01*
X034956Y021726D01*
X034986Y021746D01*
X035332Y022092D01*
X035352Y022122D01*
X035359Y022157D01*
Y023738D01*
X035657D01*
Y024148D01*
X035022D01*
X035007Y024184D01*
X035061Y024238D01*
X035657D01*
Y024648D01*
X035153D01*
X035138Y024684D01*
X035192Y024738D01*
X035657D01*
Y025148D01*
X035153D01*
X035138Y025184D01*
X035192Y025238D01*
X035657D01*
Y025648D01*
D02*
G37*
G36*
X031826Y024835D02*
Y024667D01*
X031975D01*
Y024835D01*
X031826D01*
D02*
G37*
G36*
X032885D02*
X032736D01*
Y024667D01*
X032885D01*
Y024835D01*
D02*
G37*
G36*
X031551Y024890D02*
X031383D01*
Y024742D01*
X031551D01*
X031578Y024714D01*
Y024667D01*
X031726D01*
Y024835D01*
X031578D01*
X031551Y024864D01*
Y024890D01*
D02*
G37*
G36*
X032636Y024835D02*
X032488D01*
Y024667D01*
X032636D01*
Y024835D01*
D02*
G37*
G36*
X032252Y022354D02*
X032182Y022340D01*
X032123Y022301D01*
X032084Y022242D01*
X032070Y022173D01*
X032084Y022103D01*
X032123Y022044D01*
X032182Y022005D01*
X032252Y021991D01*
X032321Y022005D01*
X032380Y022044D01*
X032419Y022103D01*
X032433Y022173D01*
X032419Y022242D01*
X032380Y022301D01*
X032321Y022340D01*
X032252Y022354D01*
D02*
G37*
G36*
X026173Y020844D02*
X026103Y020830D01*
X026044Y020791D01*
X026005Y020732D01*
X025991Y020663D01*
X026005Y020593D01*
X026044Y020534D01*
X026103Y020495D01*
X026173Y020481D01*
X026242Y020495D01*
X026301Y020534D01*
X026340Y020593D01*
X026354Y020663D01*
X026340Y020732D01*
X026301Y020791D01*
X026242Y020830D01*
X026173Y020844D01*
D02*
G37*
G36*
X034448Y020681D02*
X034413Y020674D01*
X034341Y020625D01*
X034293Y020553D01*
X034286Y020518D01*
X034448D01*
Y020681D01*
D02*
G37*
G36*
X025159Y020478D02*
X024997D01*
Y020316D01*
X025032Y020323D01*
X025104Y020371D01*
X025152Y020443D01*
X025159Y020478D01*
D02*
G37*
G36*
X033223Y020774D02*
X033153Y020760D01*
X033094Y020721D01*
X033055Y020662D01*
X033041Y020593D01*
X033055Y020523D01*
X033094Y020464D01*
X033153Y020425D01*
X033223Y020411D01*
X033292Y020425D01*
X033351Y020464D01*
X033390Y020523D01*
X033404Y020593D01*
X033390Y020662D01*
X033351Y020721D01*
X033292Y020760D01*
X033223Y020774D01*
D02*
G37*
G36*
X034548Y020681D02*
Y020518D01*
X034711D01*
X034704Y020553D01*
X034655Y020625D01*
X034583Y020674D01*
X034548Y020681D01*
D02*
G37*
G36*
X031717Y020773D02*
X031509D01*
Y020545D01*
X031717D01*
Y020773D01*
D02*
G37*
G36*
X032024D02*
X031817D01*
Y020545D01*
X032024D01*
Y020773D01*
D02*
G37*
G36*
X027578D02*
X027371D01*
Y020545D01*
X027578D01*
Y020773D01*
D02*
G37*
G36*
X027886D02*
X027678D01*
Y020545D01*
X027886D01*
Y020773D01*
D02*
G37*
G36*
X024897Y020478D02*
X024734D01*
X024741Y020443D01*
X024790Y020371D01*
X024862Y020323D01*
X024897Y020316D01*
Y020478D01*
D02*
G37*
G36*
X023196Y021534D02*
X023048Y021519D01*
X022905Y021476D01*
X022773Y021405D01*
X022657Y021311D01*
X022562Y021195D01*
X022492Y021063D01*
X022449Y020920D01*
X022434Y020771D01*
X022449Y020623D01*
X022492Y020480D01*
X022562Y020348D01*
X022657Y020232D01*
X022773Y020137D01*
X022905Y020067D01*
X023048Y020024D01*
X023196Y020009D01*
X023345Y020024D01*
X023488Y020067D01*
X023620Y020137D01*
X023736Y020232D01*
X023830Y020348D01*
X023901Y020480D01*
X023944Y020623D01*
X023959Y020771D01*
X023944Y020920D01*
X023901Y021063D01*
X023830Y021195D01*
X023736Y021311D01*
X023620Y021405D01*
X023488Y021476D01*
X023345Y021519D01*
X023196Y021534D01*
D02*
G37*
G36*
X036189D02*
X036040Y021519D01*
X035897Y021476D01*
X035765Y021405D01*
X035649Y021311D01*
X035555Y021195D01*
X035484Y021063D01*
X035441Y020920D01*
X035426Y020771D01*
X035441Y020623D01*
X035484Y020480D01*
X035555Y020348D01*
X035649Y020232D01*
X035765Y020137D01*
X035897Y020067D01*
X036040Y020024D01*
X036189Y020009D01*
X036337Y020024D01*
X036480Y020067D01*
X036612Y020137D01*
X036728Y020232D01*
X036823Y020348D01*
X036893Y020480D01*
X036936Y020623D01*
X036951Y020771D01*
X036936Y020920D01*
X036893Y021063D01*
X036823Y021195D01*
X036728Y021311D01*
X036612Y021405D01*
X036480Y021476D01*
X036337Y021519D01*
X036189Y021534D01*
D02*
G37*
G36*
X027294Y021060D02*
X026859D01*
Y020585D01*
X027021D01*
Y020300D01*
X026877D01*
Y019786D01*
X027390D01*
Y019813D01*
X027430Y019825D01*
X027484Y019784D01*
X027556Y019754D01*
X027583Y019750D01*
Y020043D01*
Y020336D01*
X027556Y020332D01*
X027484Y020302D01*
X027430Y020261D01*
X027390Y020273D01*
Y020300D01*
X027246D01*
Y020585D01*
X027294D01*
Y021060D01*
D02*
G37*
G36*
X027683Y020336D02*
Y020043D01*
Y019750D01*
X027711Y019754D01*
X027783Y019784D01*
X027845Y019831D01*
X027884Y019882D01*
X027921Y019887D01*
X027932Y019884D01*
X027950Y019860D01*
X028004Y019819D01*
X028066Y019793D01*
X028133Y019784D01*
X028201Y019793D01*
X028263Y019819D01*
X028317Y019860D01*
X028358Y019913D01*
X028364Y019928D01*
X028403D01*
X028409Y019913D01*
X028450Y019860D01*
X028504Y019819D01*
X028566Y019793D01*
X028633Y019784D01*
X028701Y019793D01*
X028763Y019819D01*
X028817Y019860D01*
X028858Y019913D01*
X028884Y019976D01*
X028893Y020043D01*
X028884Y020110D01*
X028858Y020172D01*
X028817Y020226D01*
X028763Y020267D01*
X028701Y020293D01*
X028633Y020302D01*
X028566Y020293D01*
X028504Y020267D01*
X028450Y020226D01*
X028409Y020172D01*
X028403Y020158D01*
X028364D01*
X028358Y020172D01*
X028317Y020226D01*
X028263Y020267D01*
X028201Y020293D01*
X028133Y020302D01*
X028066Y020293D01*
X028004Y020267D01*
X027950Y020226D01*
X027932Y020202D01*
X027921Y020199D01*
X027884Y020204D01*
X027845Y020255D01*
X027783Y020302D01*
X027711Y020332D01*
X027683Y020336D01*
D02*
G37*
G36*
X029073Y020774D02*
X029003Y020760D01*
X028944Y020721D01*
X028905Y020662D01*
X028891Y020593D01*
X028905Y020523D01*
X028944Y020464D01*
X029003Y020425D01*
X029073Y020411D01*
X029133Y020423D01*
X029199Y020357D01*
Y020155D01*
X029634D01*
Y020630D01*
X029247D01*
X029240Y020662D01*
X029201Y020721D01*
X029142Y020760D01*
X029073Y020774D01*
D02*
G37*
G36*
X034711Y020418D02*
X034548D01*
Y020256D01*
X034583Y020263D01*
X034655Y020311D01*
X034704Y020383D01*
X034711Y020418D01*
D02*
G37*
G36*
X032536Y021060D02*
X032101D01*
Y020585D01*
X032139D01*
Y020300D01*
X031995D01*
Y020273D01*
X031955Y020261D01*
X031901Y020302D01*
X031829Y020332D01*
X031802Y020336D01*
Y020043D01*
Y019750D01*
X031829Y019754D01*
X031901Y019784D01*
X031955Y019825D01*
X031995Y019813D01*
Y019786D01*
X032508D01*
Y020300D01*
X032364D01*
Y020585D01*
X032536D01*
Y021060D01*
D02*
G37*
G36*
X031702Y020336D02*
X031674Y020332D01*
X031602Y020302D01*
X031540Y020255D01*
X031501Y020204D01*
X031464Y020199D01*
X031453Y020202D01*
X031435Y020226D01*
X031381Y020267D01*
X031319Y020293D01*
X031252Y020302D01*
X031185Y020293D01*
X031122Y020267D01*
X031068Y020226D01*
X031027Y020172D01*
X031021Y020158D01*
X030982D01*
X030976Y020172D01*
X030935Y020226D01*
X030881Y020267D01*
X030819Y020293D01*
X030752Y020302D01*
X030685Y020293D01*
X030622Y020267D01*
X030568Y020226D01*
X030527Y020172D01*
X030501Y020110D01*
X030493Y020043D01*
X030501Y019976D01*
X030527Y019913D01*
X030568Y019860D01*
X030622Y019819D01*
X030685Y019793D01*
X030752Y019784D01*
X030819Y019793D01*
X030881Y019819D01*
X030935Y019860D01*
X030976Y019913D01*
X030982Y019928D01*
X031021D01*
X031027Y019913D01*
X031068Y019860D01*
X031122Y019819D01*
X031185Y019793D01*
X031252Y019784D01*
X031319Y019793D01*
X031381Y019819D01*
X031435Y019860D01*
X031453Y019884D01*
X031464Y019887D01*
X031501Y019882D01*
X031540Y019831D01*
X031602Y019784D01*
X031674Y019754D01*
X031702Y019750D01*
Y020043D01*
Y020336D01*
D02*
G37*
G36*
X034448Y020418D02*
X034286D01*
X034293Y020383D01*
X034341Y020311D01*
X034413Y020263D01*
X034448Y020256D01*
Y020418D01*
D02*
G37*
G36*
X026851Y021750D02*
X026703D01*
Y021582D01*
X026851D01*
Y021750D01*
D02*
G37*
G36*
X027513D02*
X027364D01*
Y021582D01*
X027513D01*
Y021750D01*
D02*
G37*
G36*
X034541Y021180D02*
X034373D01*
Y021032D01*
X034541D01*
Y021180D01*
D02*
G37*
G36*
X026603Y021750D02*
X026454D01*
Y021582D01*
X026603D01*
Y021750D01*
D02*
G37*
G36*
X027761D02*
X027613D01*
Y021582D01*
X027761D01*
Y021750D01*
D02*
G37*
G36*
X032646Y021754D02*
X032498D01*
Y021586D01*
X032646D01*
Y021754D01*
D02*
G37*
G36*
X032895D02*
X032746D01*
Y021586D01*
X032895D01*
Y021754D01*
D02*
G37*
G36*
X031736D02*
X031588D01*
Y021586D01*
X031736D01*
Y021754D01*
D02*
G37*
G36*
X031985D02*
X031836D01*
Y021586D01*
X031985D01*
Y021754D01*
D02*
G37*
G36*
X030090Y021180D02*
X029921D01*
Y021032D01*
X030090D01*
Y021180D01*
D02*
G37*
G36*
X030353Y020774D02*
X030283Y020760D01*
X030224Y020721D01*
X030213Y020705D01*
X030168D01*
X030168Y020705D01*
X030125Y020696D01*
X030089Y020672D01*
X030089Y020672D01*
X030047Y020630D01*
X029751D01*
Y020155D01*
X030186D01*
Y020433D01*
X030220Y020465D01*
X030224Y020464D01*
X030283Y020425D01*
X030353Y020411D01*
X030422Y020425D01*
X030481Y020464D01*
X030520Y020523D01*
X030534Y020593D01*
X030520Y020662D01*
X030481Y020721D01*
X030422Y020760D01*
X030353Y020774D01*
D02*
G37*
G36*
X031717Y021100D02*
X031509D01*
Y020873D01*
X031717D01*
Y021100D01*
D02*
G37*
G36*
X024897Y020741D02*
X024862Y020734D01*
X024790Y020685D01*
X024741Y020613D01*
X024734Y020578D01*
X024897D01*
Y020741D01*
D02*
G37*
G36*
X024997D02*
Y020578D01*
X025159D01*
X025152Y020613D01*
X025104Y020685D01*
X025032Y020734D01*
X024997Y020741D01*
D02*
G37*
G36*
X027578Y021100D02*
X027371D01*
Y020873D01*
X027578D01*
Y021100D01*
D02*
G37*
G36*
X024956Y021177D02*
X024788D01*
Y021028D01*
X024956D01*
Y021177D01*
D02*
G37*
G36*
X029407D02*
X029239D01*
Y021028D01*
X029407D01*
Y021177D01*
D02*
G37*
G36*
X027886Y021100D02*
X027678D01*
Y020873D01*
X027886D01*
Y021100D01*
D02*
G37*
G36*
X032024Y021100D02*
X031817D01*
Y020873D01*
X032024D01*
Y021100D01*
D02*
G37*
G36*
X031283Y030265D02*
X031115D01*
Y030225D01*
X030761D01*
Y029908D01*
X030761Y029908D01*
X030761D01*
X030766Y029869D01*
X030762Y029861D01*
X030755Y029826D01*
Y029738D01*
X030725Y029718D01*
X030705Y029688D01*
X030656Y029688D01*
Y029712D01*
X030350D01*
X030323Y029729D01*
X030288Y029736D01*
X030000D01*
X029972Y029755D01*
X029906Y029768D01*
X029841Y029755D01*
X029785Y029718D01*
X029748Y029662D01*
X029735Y029596D01*
X029748Y029531D01*
X029785Y029475D01*
X029841Y029438D01*
X029906Y029425D01*
X029937Y029431D01*
X029974Y029427D01*
X029980Y029402D01*
X029988Y029361D01*
X030025Y029305D01*
X030077Y029270D01*
X030078Y029256D01*
X030073Y029229D01*
X030051Y029225D01*
X029995Y029188D01*
X029958Y029132D01*
X029945Y029066D01*
X029958Y029001D01*
X029991Y028951D01*
X029995Y028929D01*
Y028906D01*
X029991Y028904D01*
X029954Y028848D01*
X029941Y028783D01*
X029951Y028731D01*
X029924Y028697D01*
X029916Y028698D01*
X029851Y028685D01*
X029795Y028648D01*
X029758Y028592D01*
X029745Y028526D01*
X029758Y028461D01*
X029795Y028405D01*
X029851Y028368D01*
X029916Y028355D01*
X029921Y028351D01*
Y028216D01*
X030090D01*
Y028376D01*
X030075Y028404D01*
X030077Y028406D01*
X030298D01*
X030333Y028413D01*
X030345Y028421D01*
X030656D01*
Y028435D01*
X030705D01*
X030725Y028405D01*
X030781Y028368D01*
X030777Y028358D01*
X030761Y028325D01*
X030761Y028325D01*
Y028008D01*
X031115D01*
Y027968D01*
X031283D01*
Y028166D01*
Y028365D01*
X031115D01*
Y028325D01*
X031027D01*
X031024Y028338D01*
X031004Y028368D01*
X030968Y028404D01*
Y028406D01*
X031005Y028461D01*
X031018Y028526D01*
X031005Y028592D01*
X030968Y028648D01*
X030920Y028680D01*
X030917Y028695D01*
Y028707D01*
X030920Y028723D01*
X030968Y028755D01*
X031005Y028811D01*
X031013Y028852D01*
X031628D01*
Y028768D01*
X031588D01*
Y028600D01*
X031985D01*
Y028768D01*
X031945D01*
Y029121D01*
X031628D01*
Y029035D01*
X030943D01*
X030931Y029045D01*
X030933Y029092D01*
X030968Y029115D01*
X031005Y029171D01*
X031018Y029236D01*
X031054Y029258D01*
X031618D01*
Y029172D01*
X031935D01*
Y029525D01*
X031975D01*
Y029693D01*
X031776D01*
X031578D01*
Y029525D01*
X031618D01*
Y029441D01*
X030988D01*
X030974Y029464D01*
X030971Y029480D01*
X031005Y029531D01*
X031018Y029596D01*
X031005Y029662D01*
X030968Y029718D01*
X030938Y029738D01*
Y029788D01*
X030997Y029848D01*
X031017Y029877D01*
X031023Y029908D01*
X031115D01*
Y029868D01*
X031283D01*
Y030066D01*
Y030265D01*
D02*
G37*
G36*
X027876Y030403D02*
X027668D01*
Y030175D01*
X027876Y030175D01*
X027878Y030137D01*
Y030113D01*
X028046D01*
Y030261D01*
X027878Y030261D01*
X027876Y030299D01*
Y030403D01*
D02*
G37*
G36*
X026149Y030261D02*
X025981D01*
Y030221D01*
X025628D01*
Y029937D01*
X025621Y029903D01*
Y029734D01*
X025591Y029714D01*
X025571Y029684D01*
X025522Y029684D01*
Y029708D01*
X025216D01*
X025189Y029726D01*
X025154Y029733D01*
X024866D01*
X024838Y029751D01*
X024773Y029764D01*
X024707Y029751D01*
X024651Y029714D01*
X024614Y029658D01*
X024601Y029593D01*
X024608Y029558D01*
X023298Y028247D01*
X023278Y028218D01*
X023271Y028183D01*
Y027203D01*
X023278Y027167D01*
X023298Y027138D01*
X023558Y026878D01*
X023587Y026858D01*
X023623Y026851D01*
X023728D01*
Y026738D01*
X024508D01*
Y027148D01*
X023728D01*
Y027034D01*
X023661D01*
X023454Y027241D01*
Y028145D01*
X024738Y029428D01*
X024773Y029421D01*
X024803Y029427D01*
X024841Y029423D01*
X024846Y029398D01*
X024854Y029357D01*
X024891Y029301D01*
X024943Y029266D01*
X024945Y029252D01*
X024939Y029225D01*
X024917Y029221D01*
X024861Y029184D01*
X024824Y029128D01*
X024811Y029063D01*
X024818Y029028D01*
X024058Y028267D01*
X024038Y028238D01*
X024031Y028203D01*
Y027648D01*
X023728D01*
Y027238D01*
X024508D01*
Y027648D01*
X024214D01*
Y028165D01*
X024574Y028524D01*
X024614Y028508D01*
X024624Y028457D01*
X024661Y028401D01*
X024717Y028364D01*
X024783Y028351D01*
X024788Y028347D01*
Y028213D01*
X024956D01*
Y028372D01*
X024941Y028400D01*
X024943Y028402D01*
X025164D01*
X025199Y028409D01*
X025211Y028417D01*
X025522D01*
Y028431D01*
X025571D01*
X025591Y028401D01*
X025647Y028364D01*
X025643Y028354D01*
X025628Y028321D01*
X025628Y028321D01*
Y028004D01*
X025981D01*
Y027964D01*
X026149D01*
Y028163D01*
Y028361D01*
X025981D01*
Y028321D01*
X025893D01*
X025890Y028334D01*
X025871Y028364D01*
X025834Y028401D01*
Y028402D01*
X025871Y028457D01*
X025884Y028523D01*
X025871Y028588D01*
X025834Y028644D01*
X025786Y028676D01*
X025783Y028692D01*
Y028704D01*
X025786Y028719D01*
X025834Y028751D01*
X025871Y028807D01*
X025879Y028848D01*
X026494D01*
Y028764D01*
X026454D01*
Y028596D01*
X026851D01*
Y028764D01*
X026811D01*
Y029117D01*
X026494D01*
Y029031D01*
X025809D01*
X025797Y029041D01*
X025800Y029088D01*
X025834Y029111D01*
X025871Y029167D01*
X025884Y029233D01*
X025920Y029254D01*
X026484D01*
Y029168D01*
X026801D01*
Y029521D01*
X026841D01*
Y029689D01*
X026643D01*
X026444D01*
Y029521D01*
X026484D01*
Y029437D01*
X025854D01*
X025840Y029460D01*
X025837Y029476D01*
X025871Y029527D01*
X025884Y029593D01*
X025871Y029658D01*
X025834Y029714D01*
X025804Y029734D01*
Y029865D01*
X025844Y029904D01*
X025981D01*
Y029864D01*
X026149D01*
Y030063D01*
Y030261D01*
D02*
G37*
G36*
X028046Y030013D02*
X027878D01*
Y029864D01*
X028046D01*
Y030013D01*
D02*
G37*
G36*
X026417Y030261D02*
X026249D01*
Y030113D01*
X026417D01*
Y030261D01*
D02*
G37*
G36*
X027568Y030403D02*
X027361D01*
Y030175D01*
X027568D01*
Y030403D01*
D02*
G37*
G36*
X032034Y030413D02*
X031827D01*
Y030185D01*
X032034D01*
Y030413D01*
D02*
G37*
G36*
X031727D02*
X031519D01*
Y030265D01*
X031383D01*
Y030116D01*
X031551D01*
Y030185D01*
X031727D01*
Y030413D01*
D02*
G37*
G36*
X033841Y030265D02*
X033673D01*
Y030116D01*
X033841D01*
Y030265D01*
D02*
G37*
G36*
X032885Y029961D02*
X032736D01*
Y029793D01*
X032885D01*
Y029961D01*
D02*
G37*
G36*
X026417Y030013D02*
X026249D01*
Y029864D01*
X026417D01*
X026444Y029836D01*
Y029789D01*
X026593D01*
Y029957D01*
X026444D01*
X026417Y029986D01*
Y030013D01*
D02*
G37*
G36*
X027503Y029957D02*
X027354D01*
Y029789D01*
X027503D01*
Y029957D01*
D02*
G37*
G36*
X023196Y031258D02*
X023048Y031244D01*
X022905Y031200D01*
X022773Y031130D01*
X022657Y031035D01*
X022562Y030919D01*
X022492Y030788D01*
X022449Y030645D01*
X022434Y030496D01*
X022449Y030347D01*
X022492Y030204D01*
X022562Y030072D01*
X022657Y029957D01*
X022773Y029862D01*
X022905Y029791D01*
X023048Y029748D01*
X023196Y029733D01*
X023345Y029748D01*
X023488Y029791D01*
X023620Y029862D01*
X023736Y029957D01*
X023830Y030072D01*
X023901Y030204D01*
X023944Y030347D01*
X023959Y030496D01*
X023944Y030645D01*
X023901Y030788D01*
X023830Y030919D01*
X023736Y031035D01*
X023620Y031130D01*
X023488Y031200D01*
X023345Y031244D01*
X023196Y031258D01*
D02*
G37*
G36*
X036189D02*
X036040Y031244D01*
X035897Y031200D01*
X035765Y031130D01*
X035649Y031035D01*
X035555Y030919D01*
X035484Y030788D01*
X035441Y030645D01*
X035426Y030496D01*
X035441Y030347D01*
X035484Y030204D01*
X035555Y030072D01*
X035649Y029957D01*
X035765Y029862D01*
X035897Y029791D01*
X036040Y029748D01*
X036189Y029733D01*
X036337Y029748D01*
X036480Y029791D01*
X036612Y029862D01*
X036728Y029957D01*
X036823Y030072D01*
X036893Y030204D01*
X036936Y030347D01*
X036951Y030496D01*
X036936Y030645D01*
X036893Y030788D01*
X036823Y030919D01*
X036728Y031035D01*
X036612Y031130D01*
X036480Y031200D01*
X036337Y031244D01*
X036189Y031258D01*
D02*
G37*
G36*
X026693Y029957D02*
Y029789D01*
X026841D01*
Y029957D01*
X026693D01*
D02*
G37*
G36*
X032636Y029961D02*
X032488D01*
Y029793D01*
X032636D01*
Y029961D01*
D02*
G37*
G36*
X031826D02*
Y029793D01*
X031975D01*
Y029961D01*
X031826D01*
D02*
G37*
G36*
X027751Y029957D02*
X027603D01*
Y029789D01*
X027751D01*
Y029957D01*
D02*
G37*
G36*
X031551Y030016D02*
X031383D01*
Y029868D01*
X031551D01*
X031578Y029840D01*
Y029793D01*
X031726D01*
Y029961D01*
X031578D01*
X031551Y029990D01*
Y030016D01*
D02*
G37*
G36*
X031802Y031497D02*
Y031204D01*
Y030912D01*
X031829Y030915D01*
X031901Y030945D01*
X031955Y030987D01*
X031995Y030974D01*
Y030947D01*
X032139D01*
Y030700D01*
X032111D01*
Y030225D01*
X032546D01*
Y030700D01*
X032364D01*
Y030947D01*
X032508D01*
Y031461D01*
X031995D01*
Y031434D01*
X031955Y031422D01*
X031901Y031464D01*
X031829Y031494D01*
X031802Y031497D01*
D02*
G37*
G36*
X024857Y030899D02*
X024822Y030892D01*
X024750Y030844D01*
X024701Y030772D01*
X024694Y030737D01*
X024857D01*
Y030899D01*
D02*
G37*
G36*
X024957D02*
Y030737D01*
X025119D01*
X025112Y030772D01*
X025064Y030844D01*
X024992Y030892D01*
X024957Y030899D01*
D02*
G37*
G36*
X026193Y030934D02*
X026123Y030920D01*
X026064Y030881D01*
X026025Y030822D01*
X026011Y030753D01*
X026025Y030683D01*
X026064Y030624D01*
X026123Y030585D01*
X026193Y030571D01*
X026262Y030585D01*
X026321Y030624D01*
X026360Y030683D01*
X026374Y030753D01*
X026360Y030822D01*
X026321Y030881D01*
X026262Y030920D01*
X026193Y030934D01*
D02*
G37*
G36*
X029634Y031100D02*
X029199D01*
Y030804D01*
X029085Y030690D01*
X029063Y030694D01*
X028993Y030680D01*
X028934Y030641D01*
X028895Y030582D01*
X028881Y030513D01*
X028895Y030443D01*
X028934Y030384D01*
X028993Y030345D01*
X029063Y030331D01*
X029132Y030345D01*
X029191Y030384D01*
X029230Y030443D01*
X029244Y030513D01*
X029241Y030528D01*
X029338Y030625D01*
X029634D01*
Y031100D01*
D02*
G37*
G36*
X034428Y030919D02*
X034393Y030912D01*
X034321Y030864D01*
X034273Y030792D01*
X034266Y030757D01*
X034428D01*
Y030919D01*
D02*
G37*
G36*
X031702Y031497D02*
X031674Y031494D01*
X031602Y031464D01*
X031540Y031416D01*
X031501Y031366D01*
X031464Y031361D01*
X031453Y031363D01*
X031435Y031388D01*
X031381Y031429D01*
X031319Y031455D01*
X031252Y031463D01*
X031185Y031455D01*
X031122Y031429D01*
X031068Y031388D01*
X031027Y031334D01*
X031021Y031319D01*
X030982D01*
X030976Y031334D01*
X030935Y031388D01*
X030881Y031429D01*
X030819Y031455D01*
X030752Y031463D01*
X030685Y031455D01*
X030622Y031429D01*
X030568Y031388D01*
X030527Y031334D01*
X030501Y031271D01*
X030493Y031204D01*
X030501Y031137D01*
X030527Y031075D01*
X030568Y031021D01*
X030622Y030980D01*
X030685Y030954D01*
X030752Y030945D01*
X030819Y030954D01*
X030881Y030980D01*
X030935Y031021D01*
X030976Y031075D01*
X030982Y031089D01*
X031021D01*
X031027Y031075D01*
X031068Y031021D01*
X031122Y030980D01*
X031185Y030954D01*
X031252Y030945D01*
X031319Y030954D01*
X031381Y030980D01*
X031435Y031021D01*
X031453Y031045D01*
X031464Y031048D01*
X031501Y031043D01*
X031540Y030993D01*
X031602Y030945D01*
X031674Y030915D01*
X031702Y030912D01*
Y031204D01*
Y031497D01*
D02*
G37*
G36*
X027583D02*
X027556Y031494D01*
X027484Y031464D01*
X027430Y031422D01*
X027390Y031434D01*
Y031461D01*
X026877D01*
Y030947D01*
X027021D01*
Y030690D01*
X026849D01*
Y030215D01*
X027284D01*
Y030690D01*
X027246D01*
Y030947D01*
X027390D01*
Y030974D01*
X027430Y030987D01*
X027484Y030945D01*
X027556Y030915D01*
X027583Y030912D01*
Y031204D01*
Y031497D01*
D02*
G37*
G36*
X034528Y030919D02*
Y030757D01*
X034691D01*
X034684Y030792D01*
X034635Y030864D01*
X034563Y030912D01*
X034528Y030919D01*
D02*
G37*
G36*
X027683Y031497D02*
Y031204D01*
Y030912D01*
X027711Y030915D01*
X027783Y030945D01*
X027845Y030993D01*
X027884Y031043D01*
X027921Y031048D01*
X027932Y031045D01*
X027950Y031021D01*
X028004Y030980D01*
X028066Y030954D01*
X028133Y030945D01*
X028201Y030954D01*
X028263Y030980D01*
X028317Y031021D01*
X028358Y031075D01*
X028364Y031089D01*
X028403D01*
X028409Y031075D01*
X028450Y031021D01*
X028504Y030980D01*
X028566Y030954D01*
X028633Y030945D01*
X028701Y030954D01*
X028763Y030980D01*
X028817Y031021D01*
X028858Y031075D01*
X028884Y031137D01*
X028893Y031204D01*
X028884Y031271D01*
X028858Y031334D01*
X028817Y031388D01*
X028763Y031429D01*
X028701Y031455D01*
X028633Y031463D01*
X028566Y031455D01*
X028504Y031429D01*
X028450Y031388D01*
X028409Y031334D01*
X028403Y031319D01*
X028364D01*
X028358Y031334D01*
X028317Y031388D01*
X028263Y031429D01*
X028201Y031455D01*
X028133Y031463D01*
X028066Y031455D01*
X028004Y031429D01*
X027950Y031388D01*
X027932Y031363D01*
X027921Y031361D01*
X027884Y031366D01*
X027845Y031416D01*
X027783Y031464D01*
X027711Y031494D01*
X027683Y031497D01*
D02*
G37*
G36*
X033203Y030924D02*
X033133Y030910D01*
X033074Y030871D01*
X033035Y030812D01*
X033021Y030743D01*
X033035Y030673D01*
X033074Y030614D01*
X033133Y030575D01*
X033203Y030561D01*
X033272Y030575D01*
X033331Y030614D01*
X033370Y030673D01*
X033384Y030743D01*
X033370Y030812D01*
X033331Y030871D01*
X033272Y030910D01*
X033203Y030924D01*
D02*
G37*
G36*
X025119Y030637D02*
X024957D01*
Y030474D01*
X024992Y030481D01*
X025064Y030530D01*
X025112Y030602D01*
X025119Y030637D01*
D02*
G37*
G36*
X034428Y030657D02*
X034266D01*
X034273Y030622D01*
X034321Y030550D01*
X034393Y030501D01*
X034428Y030494D01*
Y030657D01*
D02*
G37*
G36*
X030186Y031100D02*
X029751D01*
Y030625D01*
X030071D01*
X030230Y030466D01*
X030235Y030443D01*
X030274Y030384D01*
X030333Y030345D01*
X030403Y030331D01*
X030472Y030345D01*
X030531Y030384D01*
X030570Y030443D01*
X030584Y030513D01*
X030570Y030582D01*
X030531Y030641D01*
X030472Y030680D01*
X030403Y030694D01*
X030333Y030680D01*
X030186Y030828D01*
Y031100D01*
D02*
G37*
G36*
X024857Y030637D02*
X024694D01*
X024701Y030602D01*
X024750Y030530D01*
X024822Y030481D01*
X024857Y030474D01*
Y030637D01*
D02*
G37*
G36*
X034691Y030657D02*
X034528D01*
Y030494D01*
X034563Y030501D01*
X034635Y030550D01*
X034684Y030622D01*
X034691Y030657D01*
D02*
G37*
G36*
X031727Y030740D02*
X031519D01*
Y030513D01*
X031727D01*
Y030740D01*
D02*
G37*
G36*
X032034D02*
X031827D01*
Y030513D01*
X032034D01*
Y030740D01*
D02*
G37*
G36*
X027568Y030730D02*
X027361D01*
Y030503D01*
X027568D01*
Y030730D01*
D02*
G37*
G36*
X027876D02*
X027668D01*
Y030503D01*
X027876D01*
Y030730D01*
D02*
G37*
G36*
X026851Y026876D02*
X026703D01*
Y026708D01*
X026851D01*
Y026876D01*
D02*
G37*
G36*
X027513D02*
X027364D01*
Y026708D01*
X027513D01*
Y026876D01*
D02*
G37*
G36*
X037147Y026893D02*
X036287D01*
Y026727D01*
X036287Y026698D01*
X036287Y026658D01*
Y026493D01*
X037147D01*
Y026658D01*
X037147Y026688D01*
X037147Y026727D01*
Y026893D01*
D02*
G37*
G36*
X026603Y026876D02*
X026454D01*
Y026708D01*
X026603D01*
Y026876D01*
D02*
G37*
G36*
X027761D02*
X027613D01*
Y026708D01*
X027761D01*
Y026876D01*
D02*
G37*
G36*
X032646Y026880D02*
X032498D01*
Y026711D01*
X032646D01*
Y026880D01*
D02*
G37*
G36*
X032895D02*
X032746D01*
Y026711D01*
X032895D01*
Y026880D01*
D02*
G37*
G36*
X031736D02*
X031588D01*
Y026711D01*
X031736D01*
Y026880D01*
D02*
G37*
G36*
X031985D02*
X031836D01*
Y026711D01*
X031985D01*
Y026880D01*
D02*
G37*
G36*
X023098Y026893D02*
X022668D01*
X022238D01*
Y026727D01*
X022238Y026698D01*
X022238Y026658D01*
Y026493D01*
X022668D01*
X023098D01*
Y026658D01*
X023098Y026688D01*
X023098Y026727D01*
Y026893D01*
D02*
G37*
G36*
X037147Y025893D02*
X036287D01*
Y025727D01*
X036287Y025698D01*
X036287Y025658D01*
Y025493D01*
X037147D01*
Y025658D01*
X037147Y025688D01*
X037147Y025727D01*
Y025893D01*
D02*
G37*
G36*
X030383Y025994D02*
X030317Y025981D01*
X030261Y025944D01*
X030224Y025888D01*
X030211Y025823D01*
X030224Y025757D01*
X030261Y025701D01*
X030317Y025664D01*
X030383Y025651D01*
X030448Y025664D01*
X030504Y025701D01*
X030541Y025757D01*
X030554Y025823D01*
X030541Y025888D01*
X030504Y025944D01*
X030448Y025981D01*
X030383Y025994D01*
D02*
G37*
G36*
X034573Y025774D02*
X034507Y025761D01*
X034451Y025724D01*
X034414Y025668D01*
X034401Y025603D01*
X034414Y025537D01*
X034451Y025481D01*
X034507Y025444D01*
X034573Y025431D01*
X034638Y025444D01*
X034694Y025481D01*
X034731Y025537D01*
X034744Y025603D01*
X034731Y025668D01*
X034694Y025724D01*
X034638Y025761D01*
X034573Y025774D01*
D02*
G37*
G36*
X023098Y025893D02*
X022668D01*
X022238D01*
Y025727D01*
X022238Y025698D01*
X022238Y025658D01*
Y025493D01*
X022668D01*
X023098D01*
Y025658D01*
X023098Y025688D01*
X023098Y025727D01*
Y025893D01*
D02*
G37*
G36*
Y026393D02*
X022668D01*
X022238D01*
Y026227D01*
X022238Y026198D01*
X022238Y026158D01*
Y025993D01*
X022668D01*
X023098D01*
Y026158D01*
X023098Y026188D01*
X023098Y026227D01*
Y026393D01*
D02*
G37*
G36*
X030090Y026306D02*
X029921D01*
Y026158D01*
X030090D01*
Y026306D01*
D02*
G37*
G36*
X034541Y026306D02*
X034373D01*
Y026158D01*
X034541D01*
Y026306D01*
D02*
G37*
G36*
X037147Y026393D02*
X036287D01*
Y026227D01*
X036287Y026198D01*
X036287Y026158D01*
Y025993D01*
X037147D01*
Y026158D01*
X037147Y026188D01*
X037147Y026227D01*
Y026393D01*
D02*
G37*
G36*
X029407Y026303D02*
X029239D01*
Y026154D01*
X029407D01*
Y026303D01*
D02*
G37*
G36*
X023098Y027393D02*
X022668D01*
X022238D01*
Y027227D01*
X022238Y027198D01*
X022238Y027158D01*
Y026993D01*
X022668D01*
X023098D01*
Y027158D01*
X023098Y027188D01*
X023098Y027227D01*
Y027393D01*
D02*
G37*
G36*
X032885Y028500D02*
X032488D01*
Y028331D01*
X032488D01*
X032488Y028321D01*
X032488D01*
Y028153D01*
X032686D01*
X032885D01*
Y028321D01*
X032885D01*
X032885Y028331D01*
X032885D01*
Y028500D01*
D02*
G37*
G36*
X023003Y028524D02*
X022933Y028510D01*
X022874Y028471D01*
X022835Y028412D01*
X022821Y028343D01*
X022835Y028273D01*
X022874Y028214D01*
X022933Y028175D01*
X023003Y028161D01*
X023072Y028175D01*
X023131Y028214D01*
X023170Y028273D01*
X023184Y028343D01*
X023170Y028412D01*
X023131Y028471D01*
X023072Y028510D01*
X023003Y028524D01*
D02*
G37*
G36*
X036383Y028404D02*
X036313Y028390D01*
X036254Y028351D01*
X036215Y028292D01*
X036201Y028223D01*
X036215Y028153D01*
X036254Y028094D01*
X036313Y028055D01*
X036383Y028041D01*
X036452Y028055D01*
X036511Y028094D01*
X036550Y028153D01*
X036564Y028223D01*
X036550Y028292D01*
X036511Y028351D01*
X036452Y028390D01*
X036383Y028404D01*
D02*
G37*
G36*
X027751Y028496D02*
X027354D01*
Y028328D01*
X027354D01*
X027354Y028317D01*
X027354D01*
Y028149D01*
X027553D01*
X027751D01*
Y028317D01*
X027751D01*
X027751Y028328D01*
X027751D01*
Y028496D01*
D02*
G37*
G36*
X028046Y028361D02*
X027878D01*
Y028213D01*
X028046D01*
Y028361D01*
D02*
G37*
G36*
X028146Y030261D02*
Y030063D01*
Y029864D01*
X028314D01*
Y029904D01*
X028421D01*
Y029734D01*
X028391Y029714D01*
X028354Y029658D01*
X028341Y029593D01*
X028354Y029527D01*
X028387Y029477D01*
X028381Y029454D01*
X028371Y029437D01*
X027711D01*
Y029521D01*
X027751D01*
Y029689D01*
X027553D01*
X027354D01*
Y029521D01*
X027394D01*
Y029168D01*
X027711D01*
Y029254D01*
X028323D01*
X028341Y029233D01*
X028354Y029167D01*
X028391Y029111D01*
X028422Y029091D01*
X028426Y029041D01*
X028415Y029031D01*
X027711D01*
Y029117D01*
X027394D01*
Y028764D01*
X027354D01*
Y028596D01*
X027751D01*
Y028764D01*
X027711D01*
Y028848D01*
X028346D01*
X028354Y028807D01*
X028391Y028751D01*
X028439Y028719D01*
X028442Y028704D01*
Y028692D01*
X028439Y028676D01*
X028391Y028644D01*
X028354Y028588D01*
X028341Y028523D01*
X028354Y028457D01*
X028391Y028401D01*
X028421Y028381D01*
Y028321D01*
X028314D01*
Y028361D01*
X028146D01*
Y028163D01*
Y027964D01*
X028314D01*
Y028004D01*
X028663D01*
X028677Y027999D01*
X028700Y027988D01*
Y027926D01*
X028673Y027898D01*
X028634Y027894D01*
X028578Y027931D01*
X028513Y027944D01*
X028447Y027931D01*
X028391Y027894D01*
X028354Y027838D01*
X028342Y027778D01*
X028307Y027758D01*
X028294Y027771D01*
X028264Y027790D01*
X028229Y027797D01*
X027711D01*
Y027881D01*
X027751D01*
Y028049D01*
X027553D01*
X027354D01*
Y027881D01*
X027394D01*
Y027533D01*
X027394Y027528D01*
X027394D01*
X027404Y027497D01*
X027404Y027497D01*
Y027144D01*
X027364D01*
Y026976D01*
X027761D01*
Y027144D01*
X027721D01*
Y027228D01*
X028266D01*
X028373Y027121D01*
X028371Y027113D01*
X028384Y027047D01*
X028421Y026991D01*
X028477Y026954D01*
X028543Y026941D01*
X028608Y026954D01*
X028634Y026971D01*
X028673Y026957D01*
Y026957D01*
X029028D01*
X029042Y026941D01*
X029054Y026877D01*
X029055Y026870D01*
X029035Y026838D01*
X028673D01*
X028673Y026838D01*
Y026838D01*
X028637Y026849D01*
X028634Y026854D01*
X028578Y026891D01*
X028513Y026904D01*
X028447Y026891D01*
X028391Y026854D01*
X028354Y026798D01*
X028341Y026733D01*
X028354Y026667D01*
X028391Y026611D01*
X028447Y026574D01*
X028513Y026561D01*
X028578Y026574D01*
X028634Y026611D01*
X028673Y026607D01*
X028700Y026579D01*
Y026511D01*
X028618D01*
Y026194D01*
X028971D01*
Y026154D01*
X029139D01*
Y026353D01*
X029189D01*
Y026403D01*
X029407D01*
Y026514D01*
X029423Y026551D01*
X029445Y026555D01*
X029488Y026564D01*
X029544Y026601D01*
X029581Y026657D01*
X029594Y026723D01*
X029581Y026788D01*
X029544Y026844D01*
X029488Y026881D01*
X029423Y026894D01*
X029408Y026891D01*
X029381Y026919D01*
X029385Y026941D01*
X029372Y027006D01*
X029335Y027062D01*
X029312Y027077D01*
Y027117D01*
X029334Y027131D01*
X029371Y027187D01*
X029384Y027253D01*
X029371Y027318D01*
X029334Y027374D01*
X029299Y027397D01*
X029298Y027444D01*
X029324Y027461D01*
X029361Y027517D01*
X029374Y027583D01*
X029365Y027628D01*
X029397Y027660D01*
X029443Y027651D01*
X029508Y027664D01*
X029564Y027701D01*
X029601Y027757D01*
X029614Y027823D01*
X029601Y027888D01*
X029564Y027944D01*
X029508Y027981D01*
X029497Y027983D01*
Y028113D01*
X029279D01*
Y028213D01*
X029497D01*
Y028361D01*
X029525Y028389D01*
X029544Y028401D01*
X029581Y028457D01*
X029594Y028523D01*
X029581Y028588D01*
X029544Y028644D01*
X029488Y028681D01*
X029423Y028694D01*
X029398Y028689D01*
X029364Y028723D01*
X029351Y028788D01*
X029314Y028844D01*
X029291Y028859D01*
X029291Y028860D01*
X029294Y028905D01*
X029334Y028931D01*
X029371Y028987D01*
X029384Y029053D01*
X029371Y029118D01*
X029334Y029174D01*
X029281Y029209D01*
X029280Y029211D01*
X029278Y029226D01*
X029279Y029251D01*
X029324Y029281D01*
X029361Y029337D01*
X029374Y029403D01*
X029361Y029468D01*
X029394Y029488D01*
X029406Y029492D01*
X029417Y029484D01*
X029483Y029471D01*
X029548Y029484D01*
X029604Y029521D01*
X029641Y029577D01*
X029654Y029643D01*
X029641Y029708D01*
X029604Y029764D01*
X029548Y029801D01*
X029483Y029814D01*
X029417Y029801D01*
X029361Y029764D01*
X029327Y029713D01*
X029031D01*
X029006Y029708D01*
X028673D01*
Y029708D01*
X028635Y029712D01*
X028634Y029714D01*
X028604Y029734D01*
Y029904D01*
X028667D01*
Y030221D01*
X028314D01*
Y030261D01*
X028146D01*
D02*
G37*
G36*
X033573Y030265D02*
X033405D01*
Y030225D01*
X033051D01*
Y029908D01*
X033258D01*
X033494Y029672D01*
X033488Y029662D01*
X033475Y029596D01*
X033488Y029531D01*
X033521Y029481D01*
X033515Y029458D01*
X033505Y029441D01*
X032845D01*
Y029525D01*
X032885D01*
Y029693D01*
X032686D01*
X032488D01*
Y029525D01*
X032528D01*
Y029172D01*
X032845D01*
Y029258D01*
X033458D01*
X033491Y029223D01*
X033504Y029157D01*
X033541Y029101D01*
X033576Y029078D01*
X033578Y029071D01*
X033578Y029053D01*
X033569Y029035D01*
X032845D01*
Y029121D01*
X032528D01*
Y028768D01*
X032488D01*
Y028600D01*
X032885D01*
Y028768D01*
X032845D01*
Y028852D01*
X033487D01*
X033494Y028817D01*
X033531Y028761D01*
X033584Y028726D01*
X033585Y028715D01*
X033581Y028685D01*
X033581Y028685D01*
X033525Y028648D01*
X033488Y028592D01*
X033475Y028526D01*
X033476Y028521D01*
X033280Y028325D01*
X033051D01*
Y028008D01*
X033405D01*
Y027968D01*
X033561D01*
X033571Y027929D01*
X033525Y027898D01*
X033488Y027842D01*
X033476Y027782D01*
X033441Y027762D01*
X033428Y027774D01*
X033398Y027794D01*
X033363Y027801D01*
X032845D01*
Y027885D01*
X032885D01*
Y028053D01*
X032686D01*
X032488D01*
Y027885D01*
X032528D01*
Y027537D01*
X032528Y027531D01*
X032528D01*
X032538Y027501D01*
X032538Y027501D01*
Y027148D01*
X032498D01*
Y026980D01*
X032895D01*
Y027148D01*
X032855D01*
Y027232D01*
X033432D01*
X033552Y027111D01*
X033545Y027076D01*
X033558Y027011D01*
X033595Y026955D01*
X033615Y026942D01*
X033607Y026900D01*
X033581Y026895D01*
X033525Y026858D01*
X033488Y026802D01*
X033475Y026736D01*
X033488Y026671D01*
X033525Y026615D01*
X033581Y026578D01*
X033646Y026565D01*
X033712Y026578D01*
X033768Y026615D01*
X033807Y026611D01*
X033834Y026583D01*
Y026515D01*
X033751D01*
Y026198D01*
X034105D01*
Y026158D01*
X034273D01*
Y026356D01*
X034323D01*
Y026406D01*
X034541D01*
Y026534D01*
X034554Y026536D01*
X034610Y026574D01*
X034613Y026579D01*
X034660Y026584D01*
X034682Y026564D01*
Y026091D01*
X034689Y026056D01*
X034709Y026026D01*
X034858Y025878D01*
X034877Y025865D01*
Y025738D01*
X035657D01*
Y026148D01*
X034877D01*
X034866Y026182D01*
Y026203D01*
X034877Y026238D01*
X035657D01*
Y026648D01*
X035061D01*
X035007Y026701D01*
X035022Y026738D01*
X035657D01*
Y027148D01*
X035192D01*
X035138Y027201D01*
X035153Y027238D01*
X035657D01*
Y027648D01*
X035359D01*
Y028718D01*
X035352Y028753D01*
X035332Y028783D01*
X034679Y029436D01*
X034668Y029475D01*
X034705Y029531D01*
X034718Y029596D01*
X034705Y029662D01*
X034668Y029718D01*
X034612Y029755D01*
X034546Y029768D01*
X034481Y029755D01*
X034425Y029718D01*
X034424Y029716D01*
X034165D01*
X034140Y029712D01*
X033807D01*
Y029712D01*
X033769Y029716D01*
X033768Y029718D01*
X033712Y029755D01*
X033661Y029765D01*
X033594Y029832D01*
X033609Y029868D01*
X033841D01*
Y030016D01*
X033623D01*
Y030066D01*
X033573D01*
Y030265D01*
D02*
G37*
G36*
X027133Y029264D02*
X027064Y029250D01*
X027005Y029211D01*
X026966Y029152D01*
X026952Y029083D01*
X026966Y029013D01*
X027005Y028954D01*
X027064Y028915D01*
X027133Y028901D01*
X027203Y028915D01*
X027262Y028954D01*
X027301Y029013D01*
X027315Y029083D01*
X027301Y029152D01*
X027262Y029211D01*
X027203Y029250D01*
X027133Y029264D01*
D02*
G37*
G36*
X032243Y029294D02*
X032173Y029280D01*
X032114Y029241D01*
X032075Y029182D01*
X032061Y029113D01*
X032075Y029043D01*
X032114Y028984D01*
X032173Y028945D01*
X032243Y028931D01*
X032312Y028945D01*
X032371Y028984D01*
X032410Y029043D01*
X032424Y029113D01*
X032410Y029182D01*
X032371Y029241D01*
X032312Y029280D01*
X032243Y029294D01*
D02*
G37*
G36*
X028046Y028113D02*
X027878D01*
Y027964D01*
X028046D01*
Y028113D01*
D02*
G37*
G36*
X032251Y027704D02*
X032182Y027690D01*
X032123Y027651D01*
X032083Y027592D01*
X032070Y027523D01*
X032083Y027453D01*
X032123Y027394D01*
X032182Y027355D01*
X032251Y027341D01*
X032321Y027355D01*
X032380Y027394D01*
X032419Y027453D01*
X032433Y027523D01*
X032419Y027592D01*
X032380Y027651D01*
X032321Y027690D01*
X032251Y027704D01*
D02*
G37*
G36*
X022618Y027688D02*
X022238D01*
Y027493D01*
X022618D01*
Y027688D01*
D02*
G37*
G36*
X037147Y027393D02*
X036287D01*
Y027227D01*
X036287Y027198D01*
X036287Y027158D01*
Y026993D01*
X037147D01*
Y027158D01*
X037147Y027188D01*
X037147Y027227D01*
Y027393D01*
D02*
G37*
G36*
X027133Y027634D02*
X027064Y027620D01*
X027005Y027581D01*
X026966Y027522D01*
X026952Y027453D01*
X026966Y027383D01*
X027005Y027324D01*
X027064Y027285D01*
X027133Y027271D01*
X027203Y027285D01*
X027262Y027324D01*
X027301Y027383D01*
X027315Y027453D01*
X027301Y027522D01*
X027262Y027581D01*
X027203Y027620D01*
X027133Y027634D01*
D02*
G37*
G36*
X036667Y027688D02*
X036287D01*
Y027493D01*
X036667D01*
Y027688D01*
D02*
G37*
G36*
X026851Y028496D02*
X026454D01*
Y028368D01*
X026417Y028361D01*
Y028361D01*
X026249D01*
Y028163D01*
Y027964D01*
X026417D01*
Y027964D01*
X026454Y027957D01*
Y027881D01*
X026494D01*
Y027797D01*
X026026D01*
X025991Y027790D01*
X025961Y027771D01*
X025944Y027754D01*
X025908Y027773D01*
X025895Y027838D01*
X025857Y027894D01*
X025802Y027931D01*
X025736Y027944D01*
X025670Y027931D01*
X025615Y027894D01*
X025595Y027864D01*
X025522D01*
Y027898D01*
X025495D01*
Y028004D01*
X025577D01*
Y028321D01*
X025224D01*
Y028361D01*
X025056D01*
Y028163D01*
X025006D01*
Y028113D01*
X024788D01*
Y027991D01*
X024774Y027959D01*
X024754Y027950D01*
X024707Y027941D01*
X024651Y027904D01*
X024614Y027848D01*
X024601Y027783D01*
X024614Y027717D01*
X024651Y027661D01*
X024707Y027624D01*
X024773Y027611D01*
X024803Y027617D01*
X024841Y027613D01*
X024846Y027588D01*
X024854Y027547D01*
X024891Y027491D01*
X024943Y027456D01*
X024945Y027442D01*
X024939Y027415D01*
X024917Y027411D01*
X024861Y027374D01*
X024824Y027318D01*
X024811Y027253D01*
X024824Y027187D01*
X024861Y027131D01*
X024914Y027096D01*
X024915Y027094D01*
X024917Y027079D01*
X024916Y027054D01*
X024871Y027024D01*
X024834Y026968D01*
X024824Y026916D01*
X024788Y026883D01*
X024783Y026884D01*
X024717Y026871D01*
X024661Y026834D01*
X024624Y026778D01*
X024611Y026713D01*
X024624Y026647D01*
X024661Y026591D01*
X024717Y026554D01*
X024783Y026541D01*
X024788Y026537D01*
Y026403D01*
X025006D01*
Y026303D01*
X024788D01*
Y026279D01*
X024751Y026264D01*
X024508Y026507D01*
Y026648D01*
X023728D01*
Y026238D01*
X024508D01*
X024508Y026238D01*
Y026238D01*
X024538Y026217D01*
X024685Y026071D01*
X024670Y026034D01*
X024508D01*
Y026148D01*
X023728D01*
Y025738D01*
X024436D01*
X024451Y025701D01*
X024398Y025648D01*
X023728D01*
Y025238D01*
X024436D01*
X024451Y025201D01*
X024398Y025148D01*
X023728D01*
Y024738D01*
X024384D01*
X024399Y024701D01*
X024369Y024672D01*
X024353Y024648D01*
X023728D01*
Y024238D01*
X024412D01*
X024428Y024198D01*
X024378Y024148D01*
X023728D01*
Y023738D01*
X024508D01*
Y024019D01*
X024623Y024133D01*
X024643Y024163D01*
X024650Y024198D01*
Y024301D01*
X024689Y024322D01*
X024717Y024304D01*
X024783Y024291D01*
X024804Y024295D01*
X024847Y024264D01*
X024854Y024231D01*
X024891Y024175D01*
X024943Y024140D01*
X024945Y024126D01*
X024939Y024099D01*
X024917Y024095D01*
X024861Y024058D01*
X024824Y024002D01*
X024811Y023937D01*
X024824Y023871D01*
X024861Y023815D01*
X024914Y023780D01*
X024915Y023778D01*
X024917Y023763D01*
X024916Y023738D01*
X024871Y023708D01*
X024834Y023652D01*
X024824Y023600D01*
X024788Y023567D01*
X024783Y023568D01*
X024717Y023555D01*
X024661Y023518D01*
X024624Y023462D01*
X024611Y023397D01*
X024624Y023331D01*
X024661Y023275D01*
X024717Y023238D01*
X024783Y023225D01*
X024788Y023221D01*
Y023087D01*
X024956D01*
Y023246D01*
X024941Y023274D01*
X024943Y023277D01*
X025164D01*
X025199Y023283D01*
X025211Y023291D01*
X025522D01*
Y023305D01*
X025571D01*
X025591Y023275D01*
X025647Y023238D01*
X025643Y023228D01*
X025628Y023195D01*
X025628Y023195D01*
Y022878D01*
X025981D01*
Y022838D01*
X026149D01*
Y023037D01*
Y023235D01*
X025981D01*
Y023195D01*
X025893D01*
X025890Y023208D01*
X025871Y023238D01*
X025834Y023275D01*
Y023276D01*
X025871Y023331D01*
X025884Y023397D01*
X025871Y023462D01*
X025834Y023518D01*
X025786Y023550D01*
X025783Y023566D01*
Y023578D01*
X025786Y023593D01*
X025834Y023625D01*
X025871Y023681D01*
X025879Y023722D01*
X026494D01*
Y023638D01*
X026454D01*
Y023470D01*
X026851D01*
Y023638D01*
X026811D01*
Y023991D01*
X026494D01*
Y023905D01*
X025809D01*
X025797Y023915D01*
X025800Y023962D01*
X025834Y023985D01*
X025871Y024041D01*
X025884Y024107D01*
X025920Y024128D01*
X026484D01*
Y024042D01*
X026801D01*
Y024395D01*
X026841D01*
Y024563D01*
X026643D01*
X026444D01*
Y024395D01*
X026484D01*
Y024311D01*
X025854D01*
X025840Y024334D01*
X025837Y024350D01*
X025871Y024401D01*
X025884Y024467D01*
X025871Y024532D01*
X025834Y024588D01*
X025804Y024608D01*
Y024739D01*
X025844Y024778D01*
X025981D01*
Y024738D01*
X026149D01*
Y024937D01*
X026199D01*
Y024987D01*
X026417D01*
Y025121D01*
X026598D01*
X026621Y025093D01*
X026634Y025027D01*
X026671Y024971D01*
X026727Y024934D01*
X026793Y024921D01*
X026858Y024934D01*
X026914Y024971D01*
X026951Y025027D01*
X026964Y025093D01*
X026951Y025158D01*
X026914Y025214D01*
X026858Y025251D01*
X026803Y025262D01*
X026787Y025277D01*
X026758Y025297D01*
X026723Y025304D01*
X025690D01*
X025678Y025344D01*
X025704Y025361D01*
X025741Y025417D01*
X025754Y025483D01*
X025741Y025548D01*
X025726Y025571D01*
X025747Y025611D01*
X026146D01*
X026161Y025593D01*
X026174Y025527D01*
X026211Y025471D01*
X026267Y025434D01*
X026333Y025421D01*
X026398Y025434D01*
X026454Y025471D01*
X026491Y025527D01*
X026504Y025593D01*
X026491Y025658D01*
X026469Y025691D01*
X026490Y025731D01*
X026751D01*
X026771Y025701D01*
X026827Y025664D01*
X026893Y025651D01*
X026958Y025664D01*
X027014Y025701D01*
X027051Y025757D01*
X027064Y025823D01*
X027051Y025888D01*
X027014Y025944D01*
X026958Y025981D01*
X026893Y025994D01*
X026827Y025981D01*
X026771Y025944D01*
X026751Y025914D01*
X026630D01*
X026609Y025954D01*
X026631Y025987D01*
X026644Y026053D01*
X026631Y026118D01*
X026594Y026174D01*
X026538Y026211D01*
X026473Y026224D01*
X026407Y026211D01*
X026351Y026174D01*
X026314Y026118D01*
X026301Y026053D01*
X026286Y026034D01*
X026075D01*
X026060Y026071D01*
X026118Y026128D01*
X026153Y026121D01*
X026218Y026134D01*
X026274Y026171D01*
X026311Y026227D01*
X026324Y026293D01*
X026311Y026358D01*
X026274Y026414D01*
X026218Y026451D01*
X026153Y026464D01*
X026087Y026451D01*
X026031Y026414D01*
X025994Y026358D01*
X025981Y026293D01*
X025988Y026258D01*
X025895Y026164D01*
X025601D01*
X025577Y026194D01*
Y026511D01*
X025495D01*
Y026607D01*
X025522D01*
Y026641D01*
X025571D01*
X025591Y026611D01*
X025647Y026574D01*
X025713Y026561D01*
X025778Y026574D01*
X025834Y026611D01*
X025871Y026667D01*
X025884Y026733D01*
X025871Y026798D01*
X025834Y026854D01*
X025778Y026891D01*
X025746Y026897D01*
Y026938D01*
X025778Y026944D01*
X025834Y026981D01*
X025871Y027037D01*
X025882Y027092D01*
X026017Y027228D01*
X026494D01*
Y027144D01*
X026454D01*
Y026976D01*
X026851D01*
Y027144D01*
X026811D01*
Y027497D01*
X026811D01*
X026811Y027528D01*
X026811D01*
Y027881D01*
X026851D01*
Y028049D01*
X026653D01*
Y028149D01*
X026851D01*
Y028317D01*
X026851D01*
X026851Y028328D01*
X026851D01*
Y028496D01*
D02*
G37*
G36*
X031985Y028500D02*
X031588D01*
Y028372D01*
X031551Y028365D01*
Y028365D01*
X031383D01*
Y028166D01*
Y027968D01*
X031551D01*
Y027968D01*
X031588Y027961D01*
Y027885D01*
X031628D01*
Y027801D01*
X031160D01*
X031124Y027794D01*
X031095Y027774D01*
X031078Y027758D01*
X031041Y027776D01*
X031028Y027842D01*
X030991Y027898D01*
X030936Y027935D01*
X030870Y027948D01*
X030804Y027935D01*
X030749Y027898D01*
X030729Y027868D01*
X030656D01*
Y027902D01*
X030629D01*
Y028008D01*
X030711D01*
Y028325D01*
X030358D01*
Y028365D01*
X030190D01*
Y028166D01*
X030140D01*
Y028116D01*
X029921D01*
Y027995D01*
X029908Y027963D01*
X029888Y027954D01*
X029841Y027945D01*
X029785Y027908D01*
X029748Y027852D01*
X029735Y027786D01*
X029748Y027721D01*
X029785Y027665D01*
X029841Y027628D01*
X029906Y027615D01*
X029937Y027621D01*
X029974Y027617D01*
X029980Y027592D01*
X029988Y027551D01*
X030025Y027495D01*
X030077Y027460D01*
X030078Y027446D01*
X030073Y027419D01*
X030051Y027415D01*
X029995Y027378D01*
X029958Y027322D01*
X029945Y027256D01*
X029958Y027191D01*
X029995Y027135D01*
X030016Y027121D01*
Y027074D01*
X030001Y027064D01*
X029964Y027008D01*
X029951Y026943D01*
X029957Y026913D01*
X029929Y026886D01*
X029916Y026888D01*
X029851Y026875D01*
X029795Y026838D01*
X029758Y026782D01*
X029745Y026716D01*
X029758Y026651D01*
X029795Y026595D01*
X029851Y026558D01*
X029916Y026545D01*
X029921Y026541D01*
Y026406D01*
X030140D01*
Y026356D01*
X030190D01*
Y026158D01*
X030358D01*
Y026198D01*
X030711D01*
Y026515D01*
X030629D01*
Y026611D01*
X030656D01*
Y026645D01*
X030705D01*
X030725Y026615D01*
X030781Y026578D01*
X030846Y026565D01*
X030912Y026578D01*
X030968Y026615D01*
X031005Y026671D01*
X031018Y026736D01*
X031005Y026802D01*
X030968Y026858D01*
X030912Y026895D01*
X030878Y026902D01*
Y026942D01*
X030888Y026944D01*
X030944Y026981D01*
X030981Y027037D01*
X030994Y027103D01*
X030992Y027112D01*
X031111Y027232D01*
X031628D01*
Y027148D01*
X031588D01*
Y026980D01*
X031985D01*
Y027148D01*
X031945D01*
Y027501D01*
X031945D01*
X031945Y027531D01*
X031945D01*
Y027885D01*
X031985D01*
Y028053D01*
X031786D01*
Y028153D01*
X031985D01*
Y028321D01*
X031985D01*
X031985Y028331D01*
X031985D01*
Y028500D01*
D02*
G37*
G36*
X037147Y027688D02*
X036767D01*
Y027493D01*
X037147D01*
Y027688D01*
D02*
G37*
G36*
X023098D02*
X022718D01*
Y027493D01*
X023098D01*
Y027688D01*
D02*
G37*
%LPD*%
D10*
X033926Y024110D02*
D03*
X034127D02*
D03*
X033926Y024470D02*
D03*
X034127D02*
D03*
X033926Y023760D02*
D03*
X034127D02*
D03*
X033926Y023410D02*
D03*
X034127D02*
D03*
X033926Y022310D02*
D03*
X034127D02*
D03*
X033926Y022660D02*
D03*
X034127D02*
D03*
X033926Y021950D02*
D03*
X034127D02*
D03*
X033926Y021600D02*
D03*
X034127D02*
D03*
X030537Y022660D02*
D03*
X030336D02*
D03*
X030537Y022310D02*
D03*
X030336D02*
D03*
X030537Y021600D02*
D03*
X030336D02*
D03*
X030537Y021950D02*
D03*
X030336D02*
D03*
X030537Y024470D02*
D03*
X030336D02*
D03*
X030537Y024120D02*
D03*
X030336D02*
D03*
X030537Y023410D02*
D03*
X030336D02*
D03*
X030537Y023760D02*
D03*
X030336D02*
D03*
X028792Y022307D02*
D03*
X028993D02*
D03*
X028792Y022657D02*
D03*
X028993D02*
D03*
X028792Y021947D02*
D03*
X028993D02*
D03*
X028792Y021597D02*
D03*
X028993D02*
D03*
X028792Y024107D02*
D03*
X028993D02*
D03*
X028792Y024467D02*
D03*
X028993D02*
D03*
X028792Y023757D02*
D03*
X028993D02*
D03*
X028792Y023407D02*
D03*
X028993D02*
D03*
X025403Y022657D02*
D03*
X025202D02*
D03*
X025403Y022307D02*
D03*
X025202D02*
D03*
X025403Y021597D02*
D03*
X025202D02*
D03*
X025403Y021947D02*
D03*
X025202D02*
D03*
X025403Y024117D02*
D03*
X025202D02*
D03*
X025403Y024467D02*
D03*
X025202D02*
D03*
X025403Y023407D02*
D03*
X025202D02*
D03*
X025403Y023757D02*
D03*
X025202D02*
D03*
X033926Y027436D02*
D03*
X034127D02*
D03*
X033926Y027786D02*
D03*
X034127D02*
D03*
X033926Y027076D02*
D03*
X034127D02*
D03*
X033926Y026726D02*
D03*
X034127D02*
D03*
X033926Y029236D02*
D03*
X034127D02*
D03*
X033926Y029596D02*
D03*
X034127D02*
D03*
X033926Y028886D02*
D03*
X034127D02*
D03*
X033926Y028536D02*
D03*
X034127D02*
D03*
X030537Y027786D02*
D03*
X030336D02*
D03*
X030537Y027436D02*
D03*
X030336D02*
D03*
X030537Y026726D02*
D03*
X030336D02*
D03*
X030537Y027076D02*
D03*
X030336D02*
D03*
X025403Y027073D02*
D03*
X025202D02*
D03*
X025403Y026723D02*
D03*
X025202D02*
D03*
X028792Y026723D02*
D03*
X028993D02*
D03*
X028792Y027073D02*
D03*
X028993D02*
D03*
X025403Y027433D02*
D03*
X025202D02*
D03*
X025403Y027783D02*
D03*
X025202D02*
D03*
X028792Y027783D02*
D03*
X028993D02*
D03*
X028792Y027433D02*
D03*
X028993D02*
D03*
X030537Y028886D02*
D03*
X030336D02*
D03*
X030537Y028536D02*
D03*
X030336D02*
D03*
X025403Y028883D02*
D03*
X025202D02*
D03*
X025403Y028533D02*
D03*
X025202D02*
D03*
X030537Y029246D02*
D03*
X030336D02*
D03*
X030537Y029596D02*
D03*
X030336D02*
D03*
X025403Y029243D02*
D03*
X025202D02*
D03*
X025403Y029593D02*
D03*
X025202D02*
D03*
X028792Y028533D02*
D03*
X028993D02*
D03*
X028792Y028883D02*
D03*
X028993D02*
D03*
X028792Y029593D02*
D03*
X028993D02*
D03*
Y029233D02*
D03*
X028792D02*
D03*
D12*
X027618Y030453D02*
D03*
X027067D02*
D03*
X031777Y030463D02*
D03*
X032328D02*
D03*
X027628Y020823D02*
D03*
X027077D02*
D03*
X031767Y020823D02*
D03*
X032318D02*
D03*
X029968Y020393D02*
D03*
X029417D02*
D03*
X029417Y030863D02*
D03*
X029968D02*
D03*
D13*
X033623Y024940D02*
D03*
X033230D02*
D03*
X033230Y023040D02*
D03*
X033623D02*
D03*
X034413Y023040D02*
D03*
X034020D02*
D03*
X033930Y021230D02*
D03*
X034323D02*
D03*
X030533Y023040D02*
D03*
X030140D02*
D03*
X030940Y023040D02*
D03*
X031333D02*
D03*
X030940Y024940D02*
D03*
X031333D02*
D03*
X028886Y023037D02*
D03*
X029279D02*
D03*
X028796Y021227D02*
D03*
X029189D02*
D03*
X028489Y024937D02*
D03*
X028096D02*
D03*
X028489Y023037D02*
D03*
X028096D02*
D03*
X025399Y023037D02*
D03*
X025006D02*
D03*
X025399Y021227D02*
D03*
X025006D02*
D03*
X025806Y024937D02*
D03*
X026199D02*
D03*
X025806Y023037D02*
D03*
X026199D02*
D03*
X034413Y028166D02*
D03*
X034020D02*
D03*
X033930Y026356D02*
D03*
X034323D02*
D03*
X030533Y028166D02*
D03*
X030140D02*
D03*
X030533Y026356D02*
D03*
X030140D02*
D03*
X033230Y030066D02*
D03*
X033623D02*
D03*
X033230Y028166D02*
D03*
X033623D02*
D03*
X030533Y021230D02*
D03*
X030140D02*
D03*
X030940Y030066D02*
D03*
X031333D02*
D03*
X030940Y028166D02*
D03*
X031333D02*
D03*
X028489Y030063D02*
D03*
X028096D02*
D03*
X025806D02*
D03*
X026199D02*
D03*
X025806Y028163D02*
D03*
X026199D02*
D03*
X028489D02*
D03*
X028096D02*
D03*
X028886D02*
D03*
X029279D02*
D03*
X025399Y028163D02*
D03*
X025006D02*
D03*
X028796Y026353D02*
D03*
X029189D02*
D03*
X025399Y026353D02*
D03*
X025006D02*
D03*
D15*
X028998Y028878D02*
X029173Y029053D01*
X028993Y028873D02*
X028998Y028878D01*
Y023752D02*
X029173Y023927D01*
X028993Y023747D02*
X028998Y023752D01*
X029384Y027821D02*
X029413Y027793D01*
X029416Y023390D02*
X029423Y023397D01*
X029374Y023348D02*
X029416Y023390D01*
X029410Y022670D02*
X029413Y022667D01*
X029384Y022695D02*
X029410Y022670D01*
X028998Y029588D02*
X029031Y029621D01*
X028993Y029583D02*
X028998Y029588D01*
Y024462D02*
X029031Y024495D01*
X028993Y024457D02*
X028998Y024462D01*
X024776Y024470D02*
X024821Y024515D01*
X024773Y024467D02*
X024776Y024470D01*
X034132Y028881D02*
X034307Y029056D01*
X034127Y028876D02*
X034132Y028881D01*
X034131Y021947D02*
X034307Y022123D01*
X034127Y021943D02*
X034131Y021947D01*
X034488Y026726D02*
X034556D01*
X034127D02*
X034488D01*
X034132Y029591D02*
X034165Y029625D01*
X034127Y029586D02*
X034132Y029591D01*
X034488Y024491D02*
X034518D01*
X034165D02*
X034488D01*
X034127Y021593D02*
X034556D01*
X034131Y022657D02*
X034165Y022691D01*
X034127Y022653D02*
X034131Y022657D01*
X026363Y025563D02*
X026393Y025593D01*
X026333Y025533D02*
X026363Y025563D01*
X030332Y023757D02*
X030336Y023753D01*
X030156Y023933D02*
X030332Y023757D01*
Y021947D02*
X030336Y021943D01*
X030156Y022123D02*
X030332Y021947D01*
X025713Y029243D02*
X025743D01*
X025403D02*
X025713D01*
X030846Y029246D02*
X030876D01*
X030537D02*
X030846D01*
X028513Y028873D02*
X028792D01*
X028513Y028523D02*
X028792D01*
X025743Y028363D02*
Y028523D01*
X025403D02*
X025713D01*
X025389D02*
X025403D01*
Y028873D02*
X025713D01*
X025389D02*
X025403D01*
X033653Y028876D02*
X033926D01*
X033646D02*
X033653D01*
X033646Y028526D02*
X033926D01*
X030876Y028366D02*
Y028526D01*
X030537D02*
X030846D01*
X030523D02*
X030537D01*
Y028876D02*
X030846D01*
X030523D02*
X030537D01*
X028523Y027423D02*
X028792D01*
X028513D02*
X028523D01*
X028229Y027706D02*
X028513Y027423D01*
Y027773D02*
X028792D01*
X025384Y028148D02*
X025403Y028129D01*
X025369Y028163D02*
X025384Y028148D01*
X025403Y027773D02*
X025736D01*
X025393D02*
X025403D01*
X025713Y027433D02*
X025733D01*
X025403D02*
X025713D01*
X025379D02*
X025403D01*
X033674Y027426D02*
X033926D01*
X033646D02*
X033674D01*
X033363Y027710D02*
X033646Y027426D01*
Y027776D02*
X033926D01*
X030518Y028151D02*
X030537Y028133D01*
X030503Y028166D02*
X030518Y028151D01*
X030537Y027776D02*
X030870D01*
X030527D02*
X030537D01*
X030773Y027436D02*
X030866D01*
X030537D02*
X030773D01*
X030513D02*
X030537D01*
X028543Y027083D02*
X028792D01*
X028528Y027096D02*
X028543Y027083D01*
X028527Y027097D02*
X028528Y027096D01*
X028304Y027319D02*
X028527Y027097D01*
X028513Y026733D02*
X028792D01*
X025403D02*
X025713D01*
X025389D02*
X025403D01*
X033716Y027086D02*
X033926D01*
X033706D02*
X033716D01*
X033646Y026736D02*
X033926D01*
X030537D02*
X030846D01*
X030523D02*
X030537D01*
X030843Y027103D02*
Y027103D01*
X025713Y024117D02*
X025743D01*
X025403D02*
X025713D01*
X032686Y024216D02*
X033533D01*
X030537Y024463D02*
X030846Y024463D01*
X030513Y024463D02*
X030537D01*
X030980Y024216D02*
X031776D01*
X030846Y024113D02*
X030876D01*
X030537D02*
X030846D01*
X028523Y023747D02*
X028792D01*
X028513D02*
X028523D01*
X028513Y023397D02*
X028792D01*
X025743Y023237D02*
Y023397D01*
X025403D02*
X025713D01*
X025389D02*
X025403D01*
Y023747D02*
X025713D01*
X025389D02*
X025403D01*
X033653Y023743D02*
X033926D01*
X033646D02*
X033653D01*
X032686Y023809D02*
X033580D01*
X033646Y023393D02*
X033926D01*
X030876Y023233D02*
Y023393D01*
X030537D02*
X030846D01*
X030523D02*
X030537D01*
X030943Y023809D02*
X031786D01*
X030537Y023743D02*
X030846D01*
X030523D02*
X030537D01*
X028543Y022297D02*
X028792D01*
X028513D02*
X028543D01*
X028510Y022300D02*
X028513Y022297D01*
X028229Y022580D02*
X028510Y022300D01*
X028513Y022647D02*
X028792D01*
X025384Y023022D02*
X025403Y023003D01*
X025369Y023037D02*
X025384Y023022D01*
X025403Y022647D02*
X025736D01*
X025393D02*
X025403D01*
Y022307D02*
X025693D01*
X025379D02*
X025403D01*
X033674Y022293D02*
X033926D01*
X033646D02*
X033674D01*
X032686Y022576D02*
X033363D01*
X033646Y022293D01*
Y022643D02*
X033926D01*
X030514Y023022D02*
X030537Y022999D01*
X030503Y023033D02*
X030514Y023022D01*
X030537Y022643D02*
X030870D01*
X030527D02*
X030537D01*
X031160Y022576D02*
X031786D01*
X030813Y022303D02*
X030866D01*
X030537D02*
X030813D01*
X030513D02*
X030537D01*
X028563Y021957D02*
X028792D01*
X028543D02*
X028563D01*
X028543Y021983D02*
Y021987D01*
Y021957D02*
Y021983D01*
X028528Y021970D02*
X028541Y021958D01*
X028523Y021607D02*
X028792D01*
X028513D02*
X028523D01*
X025403D02*
X025713D01*
X025389D02*
X025403D01*
X033716Y021953D02*
X033926D01*
X033706D02*
X033716D01*
X032696Y022189D02*
X033470D01*
X033646Y021603D02*
X033926D01*
Y021230D02*
Y021593D01*
Y021226D02*
Y021230D01*
X030537Y021603D02*
X030846D01*
X030523D02*
X030537D01*
X031043Y022189D02*
X031786D01*
X029968Y030863D02*
X029993D01*
X034184Y023760D02*
X034346Y023923D01*
X034127Y023760D02*
X034184D01*
X025403Y027073D02*
X025683D01*
X030563Y027103D02*
X030823D01*
X030843D01*
Y027103D02*
X030846Y027106D01*
X033533Y024216D02*
X033660Y024089D01*
X033682Y024110D02*
X033926D01*
X028541Y021958D02*
X028543Y021957D01*
X028399Y024220D02*
X028527Y024093D01*
X028541Y024107D02*
X028792D01*
X030876Y022293D02*
X031160Y022576D01*
X030537Y021950D02*
X030804D01*
X025403Y021947D02*
X025667D01*
X033230Y023040D02*
X033582Y023393D01*
X033646D01*
X033926Y022660D02*
Y022729D01*
X034165Y022691D02*
X034518D01*
X034022Y022826D02*
X034286D01*
X034413Y022953D01*
X033926Y022729D02*
X034022Y022826D01*
X034413Y022953D02*
Y023040D01*
X033230Y028166D02*
X033251D01*
X033611Y028526D01*
X033646D01*
X033926Y027786D02*
Y027855D01*
X034022Y027952D01*
X034213D01*
X034413Y028152D01*
Y028166D01*
X029427Y023393D02*
X029443D01*
X029423Y023397D02*
X029427Y023393D01*
X033926Y024470D02*
Y024638D01*
X033623Y024940D02*
X033926Y024638D01*
X033912Y029223D02*
X033926Y029236D01*
X033663Y029223D02*
X033912D01*
X033646Y029596D02*
Y029650D01*
X033230Y030066D02*
X033646Y029650D01*
X029384Y029621D02*
X029413Y029593D01*
X029463Y029643D01*
X029031Y029621D02*
X029384D01*
X029463Y029643D02*
X029483D01*
X028513Y029233D02*
X028792D01*
X026723Y025213D02*
X026793Y025143D01*
X025224Y025213D02*
X026723D01*
X024558Y024547D02*
X025224Y025213D01*
X026793Y025093D02*
Y025143D01*
X025123Y025483D02*
X025583D01*
X024573Y024933D02*
X025123Y025483D01*
X026223Y025703D02*
X026333Y025593D01*
X025083Y025703D02*
X026223D01*
X024323Y024943D02*
X025083Y025703D01*
X024558Y024198D02*
Y024547D01*
X024303Y023943D02*
X024558Y024198D01*
X024777Y024463D02*
X024783D01*
X024773Y024467D02*
X024777Y024463D01*
X024573Y024745D02*
Y024933D01*
X024434Y024607D02*
X024573Y024745D01*
X024434Y024564D02*
Y024607D01*
X024313Y024443D02*
X024434Y024564D01*
X024118Y023943D02*
X024303D01*
X024118Y024443D02*
X024313D01*
X024703Y025823D02*
X026893D01*
X024323Y025443D02*
X024703Y025823D01*
X024118Y025443D02*
X024323D01*
X024118Y024943D02*
X024323D01*
X026333Y025593D02*
X026393D01*
X026333Y025533D02*
Y025593D01*
X026363Y025943D02*
X026473Y026053D01*
X024118Y025943D02*
X026363D01*
X025933Y026073D02*
X026153Y026293D01*
X024813Y026073D02*
X025933D01*
X024443Y026443D02*
X024813Y026073D01*
X024118Y026443D02*
X024443D01*
X030533Y021230D02*
X030537Y021234D01*
Y021600D01*
X030823Y021969D02*
X031043Y022189D01*
X024118Y027443D02*
X024123Y027447D01*
Y028203D01*
X024983Y029063D01*
X023623Y026943D02*
X024118D01*
X023363Y027203D02*
X023623Y026943D01*
X023363Y027203D02*
Y028183D01*
X024773Y029593D01*
X034365Y022444D02*
X034654D01*
X034834Y022624D01*
Y023744D01*
X034827Y023752D02*
Y024133D01*
Y023752D02*
X034834Y023744D01*
X034827Y024133D02*
X035136Y024443D01*
X034382Y024318D02*
X034398Y024302D01*
X034336Y024273D02*
X034382Y024318D01*
X035022Y025198D02*
X035267Y025443D01*
X034488Y024521D02*
X034518Y024491D01*
X034707Y025013D02*
X034891Y025198D01*
X034707Y024430D02*
Y025013D01*
X034579Y024302D02*
X034707Y024430D01*
X034398Y024302D02*
X034579D01*
X034891Y024698D02*
X035022D01*
X034707Y023917D02*
Y024183D01*
X034827Y024303D02*
Y024633D01*
X034707Y024183D02*
X034827Y024303D01*
X034488Y024521D02*
X034488D01*
X034827Y024633D02*
X034891Y024698D01*
X034382Y024318D02*
Y024318D01*
X034891Y025198D02*
X035022D01*
Y024698D02*
X035267Y024943D01*
X034373Y023583D02*
X034707Y023917D01*
X034336Y023583D02*
X034373D01*
X035136Y024443D02*
X035267D01*
X034336Y022473D02*
X034365Y022444D01*
X034347Y021811D02*
X034921D01*
X035267Y022157D01*
Y023943D01*
Y027443D02*
Y028718D01*
X034607Y029378D02*
X035267Y028718D01*
X034365Y029378D02*
X034607D01*
X034336Y029406D02*
X034365Y029378D01*
X034336Y027606D02*
X034707Y027236D01*
Y027188D02*
Y027236D01*
X034827Y027252D02*
Y027633D01*
Y027252D02*
X034891Y027188D01*
X034365Y028745D02*
X034660D01*
X034830Y028575D01*
Y027637D02*
Y028575D01*
X035022Y027188D02*
X035267Y026943D01*
X034707Y027188D02*
X034827Y027068D01*
X034891Y027188D02*
X035022D01*
X034827Y026752D02*
Y027068D01*
Y027633D02*
X034830Y027637D01*
X034336Y028716D02*
X034365Y028745D01*
X035136Y026443D02*
X035267D01*
X034827Y026752D02*
X035136Y026443D01*
X034707Y026702D02*
X034774Y026635D01*
Y026091D02*
Y026635D01*
Y026091D02*
X034923Y025943D01*
X034488Y026695D02*
X034525D01*
X034556Y026726D01*
X034707Y026702D02*
Y026885D01*
X034647Y026945D02*
X034707Y026885D01*
X034466Y026945D02*
X034647D01*
X034923Y025943D02*
X035267D01*
X030940Y023040D02*
Y023169D01*
Y023033D02*
Y023040D01*
X030537Y022660D02*
Y022999D01*
Y022653D02*
Y022660D01*
X033926Y022653D02*
Y022660D01*
X034127Y023403D02*
X034185Y023344D01*
X034508D01*
X034127Y024103D02*
X034307Y023923D01*
X034508Y023344D02*
X034556Y023393D01*
X029945Y021554D02*
X030298D01*
X030156Y022123D02*
X030336Y022303D01*
X029906Y022653D02*
X029955Y022701D01*
X030288D01*
X029955Y024511D02*
X030288D01*
X029906Y024463D02*
X029955Y024511D01*
X030156Y023933D02*
X030336Y024113D01*
X029916Y023393D02*
X029945Y023364D01*
X030298D01*
X030336Y023403D01*
X033926Y021226D02*
X033930Y021223D01*
X033646Y024463D02*
X033919D01*
X030876Y024113D02*
X030980Y024216D01*
X030846Y024463D02*
X030846Y024463D01*
X030876Y023233D02*
X030940Y023169D01*
X030866Y022303D02*
X030876Y022293D01*
X030856Y022313D02*
X030866Y022303D01*
X030846Y023743D02*
X030876D01*
X030846Y023393D02*
X030876D01*
X030870Y022643D02*
X030876Y022643D01*
X033706Y021953D02*
X033716Y021943D01*
X033470Y022189D02*
X033706Y021953D01*
X033676D02*
X033706D01*
X034518Y022691D02*
X034546Y022663D01*
X034127Y022303D02*
X034307Y022123D01*
X033703Y022349D02*
Y022369D01*
X033646Y022293D02*
X033674Y022321D01*
X033703Y022349D01*
X033646Y023743D02*
X033652Y023749D01*
X033653D01*
X033660Y024089D02*
X033663D01*
X033580Y023809D02*
X033646Y023743D01*
X030846Y024463D02*
Y024693D01*
X030933Y024779D01*
Y024919D01*
X028527Y024093D02*
X028533D01*
X028519Y023753D02*
X028523D01*
X028513Y023747D02*
X028519Y023753D01*
X028533Y022323D02*
X028543Y022333D01*
X028547Y021983D02*
X028563D01*
X028543Y021987D02*
X028547Y021983D01*
X028513Y021607D02*
X028523Y021597D01*
X028304Y022193D02*
X028528Y021970D01*
X028513Y022297D02*
X028533Y022317D01*
Y022323D01*
X027563Y022193D02*
X028304D01*
X025693Y022307D02*
X025733D01*
X025697Y021977D02*
X025723D01*
X025693Y021973D02*
X025697Y021977D01*
X025736Y022647D02*
X025743Y022647D01*
X025713Y023397D02*
X025743D01*
X025713Y023747D02*
X025743D01*
X025713Y021607D02*
X025743D01*
Y022297D02*
X026026Y022580D01*
X025723Y022317D02*
X025733Y022307D01*
X025743Y022297D01*
X025723Y021977D02*
X025743Y021957D01*
X025979Y022193D01*
X025713Y024467D02*
Y024777D01*
X025809Y023813D02*
X026653D01*
X025743Y023237D02*
X025806Y023173D01*
Y023037D02*
Y023173D01*
X025979Y022193D02*
X026653D01*
X026026Y022580D02*
X026653D01*
X027553D02*
X028229D01*
X028446Y023813D02*
X028513Y023747D01*
X027553Y023813D02*
X028446D01*
X027553Y024220D02*
X028399D01*
X028513Y023060D02*
Y023397D01*
X025713Y024777D02*
X025806Y024870D01*
Y024937D01*
X025713Y024467D02*
X025713Y024467D01*
X025379Y024467D02*
X025403D01*
X025713Y024467D01*
X025403Y022657D02*
Y023003D01*
Y021250D02*
Y021597D01*
X028513Y024467D02*
X028785D01*
X028792Y021230D02*
Y021597D01*
Y021230D02*
X028796Y021227D01*
X025164Y023368D02*
X025202Y023407D01*
X024811Y023368D02*
X025164D01*
X024783Y023397D02*
X024811Y023368D01*
X025022Y023937D02*
X025202Y024117D01*
X025022Y023937D02*
X025202Y023757D01*
X024821Y024515D02*
X025154D01*
X024821Y022705D02*
X025154D01*
X024773Y022657D02*
X024821Y022705D01*
X025022Y022127D02*
X025202Y021947D01*
X025022Y022127D02*
X025202Y022307D01*
X024783Y021587D02*
X024811Y021558D01*
X025164D01*
X025202Y021597D01*
X029384Y024495D02*
X029413Y024467D01*
X028993Y024107D02*
X029173Y023927D01*
X029031Y024495D02*
X029384D01*
X029051Y023348D02*
X029374D01*
X028993Y023407D02*
X029051Y023348D01*
X028993Y022307D02*
X029173Y022127D01*
X028993Y022657D02*
X029031Y022695D01*
X028993Y021947D02*
X029173Y022127D01*
X029031Y022695D02*
X029384D01*
X028993Y021597D02*
X029423D01*
X028886Y022960D02*
Y023037D01*
X028792Y022866D02*
X028886Y022960D01*
X028792Y022657D02*
Y022866D01*
X028513Y024467D02*
Y024913D01*
X025743Y024117D02*
X025846Y024220D01*
X026643D01*
X025846Y029346D02*
X026643D01*
X025743Y029243D02*
X025846Y029346D01*
X030933Y029913D02*
Y030053D01*
X030846Y029826D02*
X030933Y029913D01*
X030846Y029596D02*
Y029826D01*
X033580Y028943D02*
X033646Y028876D01*
X032686Y028943D02*
X033580D01*
X028513Y029593D02*
Y030039D01*
X033533Y029350D02*
X033660Y029223D01*
X033663D01*
X033652Y028883D02*
X033653D01*
X033646Y028876D02*
X033652Y028883D01*
X033674Y027455D02*
X033703Y027483D01*
X033646Y027426D02*
X033674Y027455D01*
X032696Y027323D02*
X033470D01*
X033703Y027483D02*
Y027503D01*
X034165Y027825D02*
X034518D01*
X034127Y027076D02*
X034307Y027256D01*
X034127Y027436D02*
X034307Y027256D01*
X034518Y027825D02*
X034546Y027796D01*
X033676Y027086D02*
X033706D01*
X033470Y027323D02*
X033706Y027086D01*
X033716Y027076D01*
X031073Y027323D02*
X031786D01*
X030856Y027106D02*
X031073Y027323D01*
X030846Y027106D02*
X030856D01*
X030870Y027776D02*
X030876Y027776D01*
X030846Y028526D02*
X030876D01*
X030846Y028876D02*
X030876D01*
X030846Y026736D02*
X030876D01*
Y027426D02*
X031160Y027710D01*
X030856Y027446D02*
X030866Y027436D01*
X030876Y027426D01*
X030980Y029350D02*
X031776D01*
X030943Y028943D02*
X031786D01*
X030876Y028366D02*
X030940Y028303D01*
Y028166D02*
Y028303D01*
X031160Y027710D02*
X031786D01*
X032686D02*
X033363D01*
X032686Y029350D02*
X033533D01*
X030846Y029596D02*
X030846Y029596D01*
X030513Y029596D02*
X030537D01*
X030846Y029596D01*
X030876Y029246D02*
X030980Y029350D01*
X030537Y027786D02*
Y028133D01*
Y026380D02*
Y026726D01*
X033646Y029596D02*
X033919D01*
X033926Y026360D02*
Y026726D01*
Y026360D02*
X033930Y026356D01*
X030298Y028498D02*
X030336Y028536D01*
X029945Y028498D02*
X030298D01*
X029916Y028526D02*
X029945Y028498D01*
X030156Y029066D02*
X030336Y029246D01*
X030156Y029066D02*
X030336Y028886D01*
X029906Y029596D02*
X029955Y029645D01*
X030288D01*
X029955Y027835D02*
X030288D01*
X029906Y027786D02*
X029955Y027835D01*
X030156Y027256D02*
X030336Y027076D01*
X030156Y027256D02*
X030336Y027436D01*
X029916Y026716D02*
X029945Y026688D01*
X030298D01*
X030336Y026726D01*
X034518Y029625D02*
X034546Y029596D01*
X034508Y028478D02*
X034556Y028526D01*
X034127Y029236D02*
X034307Y029056D01*
X034165Y029625D02*
X034518D01*
X034185Y028478D02*
X034508D01*
X034127Y028536D02*
X034185Y028478D01*
X034127Y027786D02*
X034165Y027825D01*
X028792Y027783D02*
Y027992D01*
X028886Y028086D01*
Y028163D01*
X027563Y027319D02*
X028304D01*
X028543Y027083D02*
Y027113D01*
X028513Y027423D02*
X028523Y027433D01*
X028993Y026723D02*
X029423D01*
X029031Y027821D02*
X029384D01*
X028993Y027073D02*
X029173Y027253D01*
X028993Y027783D02*
X029031Y027821D01*
X028993Y027433D02*
X029173Y027253D01*
X028993Y028533D02*
X029051Y028474D01*
X029374D01*
X028993Y029233D02*
X029173Y029053D01*
X029374Y028474D02*
X029423Y028523D01*
X025164Y026684D02*
X025202Y026723D01*
X024811Y026684D02*
X025164D01*
X024783Y026713D02*
X024811Y026684D01*
X025022Y027253D02*
X025202Y027433D01*
X025022Y027253D02*
X025202Y027073D01*
X024773Y027783D02*
X024821Y027831D01*
X025154D01*
X024821Y029641D02*
X025154D01*
X024773Y029593D02*
X024821Y029641D01*
X025022Y029063D02*
X025202Y028883D01*
X025022Y029063D02*
X025202Y029243D01*
X024783Y028523D02*
X024811Y028494D01*
X025164D01*
X025202Y028533D01*
X028792Y026356D02*
X028796Y026353D01*
X028792Y026356D02*
Y026723D01*
X028513Y029593D02*
X028785D01*
X025403Y026376D02*
Y026723D01*
Y027783D02*
Y028129D01*
Y029593D02*
X025713Y029593D01*
X025379Y029593D02*
X025403D01*
X025713Y029593D02*
X025713Y029593D01*
X025806Y029996D02*
Y030063D01*
X025713Y029903D02*
X025806Y029996D01*
X028513Y028186D02*
Y028523D01*
X027553Y029346D02*
X028399D01*
X028513Y029233D01*
X027553Y028939D02*
X028446D01*
X028513Y028873D01*
X027553Y027706D02*
X028229D01*
X026026D02*
X026653D01*
X025979Y027319D02*
X026653D01*
X025806Y028163D02*
Y028299D01*
X025743Y028363D02*
X025806Y028299D01*
X025809Y028939D02*
X026653D01*
X025713Y029593D02*
Y029903D01*
X025743Y027083D02*
X025979Y027319D01*
X025723Y027103D02*
X025743Y027083D01*
X025733Y027433D02*
X025743Y027423D01*
X025723Y027443D02*
X025733Y027433D01*
X025743Y027423D02*
X026026Y027706D01*
X025713Y026733D02*
X025743D01*
X025713Y028873D02*
X025743D01*
X025713Y028523D02*
X025743D01*
X025736Y027773D02*
X025743Y027773D01*
X025713Y027103D02*
X025723D01*
X027067Y030453D02*
X027133Y030519D01*
X032252Y030539D02*
X032328Y030463D01*
X032252Y020756D02*
X032318Y020823D01*
X027077Y020823D02*
X027133Y020766D01*
X029323Y020393D02*
X029417D01*
X029063Y030513D02*
X029067D01*
D16*
X029993Y030863D02*
X030373Y030483D01*
X029098Y020618D02*
X029323Y020393D01*
X029073Y020643D02*
X029098Y020618D01*
X033273Y027910D02*
X033373D01*
X033623Y028160D01*
Y028166D01*
Y022976D02*
Y023040D01*
X033363Y022716D02*
X033623Y022976D01*
X030168Y020593D02*
X030353D01*
X029968Y020393D02*
X030168Y020593D01*
X033623Y023040D02*
X034020D01*
X033623Y028166D02*
X034020D01*
X027133Y030519D02*
Y031204D01*
X032252Y030539D02*
Y031204D01*
Y020043D02*
Y020756D01*
X027133Y020043D02*
Y020766D01*
X029067Y030513D02*
X029417Y030863D01*
D17*
X023196Y020771D02*
D03*
X036189D02*
D03*
Y030496D02*
D03*
X023196D02*
D03*
D18*
X027133Y031204D02*
D03*
X032252D02*
D03*
Y020043D02*
D03*
X027133D02*
D03*
D19*
X027633Y031204D02*
D03*
X028133D02*
D03*
X028633D02*
D03*
X031752D02*
D03*
X031252D02*
D03*
X030752D02*
D03*
X031752Y020043D02*
D03*
X031252D02*
D03*
X030752D02*
D03*
X027633D02*
D03*
X028133D02*
D03*
X028633D02*
D03*
D20*
X030773Y027440D02*
D03*
X030823Y027103D02*
D03*
X029213Y024273D02*
D03*
X030813Y022333D02*
D03*
X029463Y023343D02*
D03*
X029213Y023583D02*
D03*
Y022463D02*
D03*
X029203Y027583D02*
D03*
X029193Y028723D02*
D03*
X029483Y029643D02*
D03*
X029203Y029403D02*
D03*
X034103Y025223D02*
D03*
X034573Y025603D02*
D03*
X026793Y025093D02*
D03*
X025583Y025483D02*
D03*
X024783Y024463D02*
D03*
X029923Y025583D02*
D03*
X026333Y025593D02*
D03*
X026893Y025823D02*
D03*
X030383D02*
D03*
X026473Y026053D02*
D03*
X026153Y026293D02*
D03*
X030846Y021603D02*
D03*
X034488Y024521D02*
D03*
X034346Y023923D02*
D03*
X034488Y026695D02*
D03*
X030113Y021813D02*
D03*
X030103Y023623D02*
D03*
X030113Y028783D02*
D03*
X030123Y026943D02*
D03*
X034556Y021593D02*
D03*
X034336Y023583D02*
D03*
X034556Y023393D02*
D03*
X034336Y024273D02*
D03*
X029916Y021583D02*
D03*
X029906Y022653D02*
D03*
X030116Y022123D02*
D03*
X030146Y022483D02*
D03*
Y024293D02*
D03*
X030116Y023933D02*
D03*
X030846Y024463D02*
D03*
X033646Y023393D02*
D03*
X030846D02*
D03*
X029906Y024463D02*
D03*
X029916Y023393D02*
D03*
X030870Y022643D02*
D03*
X030823Y021969D02*
D03*
X033646Y021603D02*
D03*
X033716Y021943D02*
D03*
X034546Y022663D02*
D03*
X034347Y021811D02*
D03*
X034336Y022473D02*
D03*
X034346Y022123D02*
D03*
X033646Y022643D02*
D03*
X033674Y022321D02*
D03*
X033653Y023749D02*
D03*
X033646Y024463D02*
D03*
X033663Y024089D02*
D03*
X030846Y024103D02*
D03*
Y023743D02*
D03*
X028533Y024093D02*
D03*
X028523Y023753D02*
D03*
X028543Y022333D02*
D03*
X028563Y021983D02*
D03*
X028523Y021597D02*
D03*
X028513Y022647D02*
D03*
X025693Y022307D02*
D03*
X025693Y021973D02*
D03*
X025713Y021607D02*
D03*
X025736Y022647D02*
D03*
X024993Y023587D02*
D03*
X024783Y023397D02*
D03*
X025713D02*
D03*
X028513D02*
D03*
X025713Y024107D02*
D03*
X024983Y023937D02*
D03*
X025713Y023747D02*
D03*
X025013Y024297D02*
D03*
Y022487D02*
D03*
X024773Y022657D02*
D03*
X024993Y021777D02*
D03*
X024783Y021587D02*
D03*
X029453Y024503D02*
D03*
X029213Y023927D02*
D03*
X029443Y022703D02*
D03*
X029423Y021597D02*
D03*
X029213Y022127D02*
D03*
X029213Y021815D02*
D03*
X028513Y024467D02*
D03*
X025713D02*
D03*
X024983Y022127D02*
D03*
Y027253D02*
D03*
X028513Y026733D02*
D03*
X030846Y028876D02*
D03*
Y029236D02*
D03*
X033663Y029223D02*
D03*
X033646Y029596D02*
D03*
X025713Y029593D02*
D03*
X028513D02*
D03*
X033653Y028883D02*
D03*
X033674Y027455D02*
D03*
X033646Y027776D02*
D03*
X034346Y027256D02*
D03*
X034336Y027606D02*
D03*
X034347Y026945D02*
D03*
X034546Y027796D02*
D03*
X033716Y027076D02*
D03*
X033646Y026736D02*
D03*
X030846D02*
D03*
X030870Y027776D02*
D03*
X029916Y028526D02*
D03*
X029906Y029596D02*
D03*
X030846Y028526D02*
D03*
X033646D02*
D03*
X030846Y029596D02*
D03*
X030116Y029066D02*
D03*
X030146Y029426D02*
D03*
Y027616D02*
D03*
X030116Y027256D02*
D03*
X029906Y027786D02*
D03*
X029916Y026716D02*
D03*
X034336Y029406D02*
D03*
X034546Y029596D02*
D03*
X034556Y028526D02*
D03*
X034346Y029056D02*
D03*
X034336Y028716D02*
D03*
X028513Y027773D02*
D03*
X028523Y027433D02*
D03*
X028543Y027113D02*
D03*
X029213Y026941D02*
D03*
X029213Y027253D02*
D03*
X029423Y026723D02*
D03*
X029443Y027823D02*
D03*
X029213Y029053D02*
D03*
X029423Y028523D02*
D03*
X024783Y026713D02*
D03*
X024993Y026903D02*
D03*
X024773Y027783D02*
D03*
X025013Y027613D02*
D03*
Y029423D02*
D03*
X025713Y028873D02*
D03*
X024983Y029063D02*
D03*
X025736Y027773D02*
D03*
X028513Y029233D02*
D03*
Y028873D02*
D03*
X025713Y029233D02*
D03*
X028513Y028523D02*
D03*
X025713D02*
D03*
Y026733D02*
D03*
Y027103D02*
D03*
Y027443D02*
D03*
X024773Y029593D02*
D03*
X024783Y028523D02*
D03*
X024993Y028713D02*
D03*
D21*
X030403Y030513D02*
D03*
X026193Y030753D02*
D03*
X027133Y029083D02*
D03*
Y027453D02*
D03*
X033203Y030743D02*
D03*
X032243Y029113D02*
D03*
X032251Y027523D02*
D03*
X024907Y030687D02*
D03*
X034478Y030707D02*
D03*
X034498Y020468D02*
D03*
X033223Y020593D02*
D03*
X032252Y022173D02*
D03*
X032243Y023933D02*
D03*
X027133Y022273D02*
D03*
X027123Y023903D02*
D03*
X024947Y020528D02*
D03*
X026173Y020663D02*
D03*
X023003Y028343D02*
D03*
X022983Y023043D02*
D03*
X036383Y028223D02*
D03*
X036393Y023153D02*
D03*
X030353Y020593D02*
D03*
X029073D02*
D03*
X029063Y030513D02*
D03*
D22*
X022668Y027443D02*
D03*
X024118D02*
D03*
X022668Y026943D02*
D03*
X024118D02*
D03*
X022668Y026443D02*
D03*
X024118D02*
D03*
X022668Y025943D02*
D03*
X024118D02*
D03*
X022668Y025443D02*
D03*
X024118D02*
D03*
X022668Y024943D02*
D03*
X024118D02*
D03*
X022668Y024443D02*
D03*
X024118D02*
D03*
X022668Y023943D02*
D03*
X024118D02*
D03*
X036717D02*
D03*
X035267D02*
D03*
X036717Y024443D02*
D03*
X035267D02*
D03*
X036717Y024943D02*
D03*
X035267D02*
D03*
X036717Y025443D02*
D03*
X035267D02*
D03*
X036717Y025943D02*
D03*
X035267D02*
D03*
X036717Y026443D02*
D03*
X035267D02*
D03*
X036717Y026943D02*
D03*
X035267D02*
D03*
X036717Y027443D02*
D03*
X035267D02*
D03*
D23*
X032686Y024224D02*
D03*
Y024617D02*
D03*
X032686Y023817D02*
D03*
Y023424D02*
D03*
X032686Y022584D02*
D03*
Y022977D02*
D03*
X032696Y022197D02*
D03*
Y021804D02*
D03*
X031786Y022584D02*
D03*
Y022977D02*
D03*
X031776Y024224D02*
D03*
Y024617D02*
D03*
X031786Y023817D02*
D03*
Y023424D02*
D03*
X027553Y022580D02*
D03*
Y022973D02*
D03*
X027563Y022193D02*
D03*
Y021800D02*
D03*
X027553Y024220D02*
D03*
Y024613D02*
D03*
X027553Y023813D02*
D03*
Y023420D02*
D03*
X026653Y022580D02*
D03*
Y022973D02*
D03*
X026653Y022193D02*
D03*
Y021800D02*
D03*
X026643Y024220D02*
D03*
Y024613D02*
D03*
X026653Y023813D02*
D03*
Y023420D02*
D03*
X032686Y027710D02*
D03*
Y028103D02*
D03*
X032696Y027323D02*
D03*
Y026930D02*
D03*
X031786Y027710D02*
D03*
Y028103D02*
D03*
X031786Y027323D02*
D03*
Y026930D02*
D03*
X032686Y029350D02*
D03*
Y029743D02*
D03*
X032686Y028943D02*
D03*
Y028550D02*
D03*
X031786Y022197D02*
D03*
Y021804D02*
D03*
X031776Y029350D02*
D03*
Y029743D02*
D03*
X031786Y028943D02*
D03*
Y028550D02*
D03*
X027553Y029346D02*
D03*
Y029739D02*
D03*
X026643Y029346D02*
D03*
Y029739D02*
D03*
X026653Y028939D02*
D03*
Y028546D02*
D03*
X027553Y028939D02*
D03*
Y028546D02*
D03*
X027553Y027706D02*
D03*
Y028099D02*
D03*
X026653Y027706D02*
D03*
Y028099D02*
D03*
X027563Y027319D02*
D03*
Y026926D02*
D03*
X026653Y027319D02*
D03*
Y026926D02*
D03*
M02*
