G04 Layer_Physical_Order=2*
G04 Layer_Color=16440176*
%FSAX24Y24*%
%MOIN*%
G70*
G01*
G75*
%ADD15C,0.0060*%
%ADD20C,0.0217*%
%ADD21C,0.0236*%
G36*
X033561Y029742D02*
X033525Y029718D01*
X033488Y029662D01*
X033475Y029596D01*
X033488Y029531D01*
X033525Y029475D01*
X033581Y029438D01*
X033583Y029437D01*
X033591Y029406D01*
X033589Y029376D01*
X033541Y029344D01*
X033504Y029288D01*
X033491Y029223D01*
X033504Y029157D01*
X033541Y029101D01*
X033557Y029091D01*
X033556Y029020D01*
X033531Y029004D01*
X033494Y028948D01*
X033481Y028883D01*
X033494Y028817D01*
X033531Y028761D01*
X033564Y028739D01*
X033566Y028732D01*
X033563Y028673D01*
X033525Y028648D01*
X033488Y028592D01*
X033475Y028526D01*
X033488Y028461D01*
X033525Y028405D01*
X033543Y028393D01*
X033525Y028334D01*
X030968D01*
X030950Y028393D01*
X030968Y028405D01*
X031005Y028461D01*
X031018Y028526D01*
X031005Y028592D01*
X030968Y028648D01*
X030938Y028668D01*
Y028735D01*
X030968Y028755D01*
X031005Y028811D01*
X031018Y028876D01*
X031005Y028942D01*
X030968Y028998D01*
X030929Y029024D01*
X030927Y029031D01*
Y029082D01*
X030929Y029089D01*
X030968Y029115D01*
X031005Y029171D01*
X031018Y029236D01*
X031005Y029302D01*
X030968Y029358D01*
X030929Y029384D01*
X030927Y029391D01*
Y029442D01*
X030929Y029449D01*
X030968Y029475D01*
X031005Y029531D01*
X031018Y029596D01*
X031005Y029662D01*
X030968Y029718D01*
X030932Y029742D01*
X030950Y029801D01*
X033543D01*
X033561Y029742D01*
D02*
G37*
G36*
X033489Y027844D02*
X033488Y027842D01*
X033475Y027776D01*
X033488Y027711D01*
X033525Y027655D01*
X033545Y027642D01*
X033553Y027576D01*
X033551Y027572D01*
X033516Y027520D01*
X033503Y027455D01*
X033516Y027389D01*
X033553Y027333D01*
X033609Y027296D01*
X033636Y027291D01*
X033643Y027264D01*
X033642Y027229D01*
X033595Y027198D01*
X033558Y027142D01*
X033545Y027076D01*
X033558Y027011D01*
X033595Y026955D01*
X033581Y026895D01*
X033525Y026858D01*
X033488Y026802D01*
X033475Y026736D01*
X033488Y026671D01*
X033493Y026663D01*
X033461Y026604D01*
X031031D01*
X031000Y026663D01*
X031005Y026671D01*
X031018Y026736D01*
X031005Y026802D01*
X030968Y026858D01*
X030914Y026894D01*
X030911Y026909D01*
X030907Y026956D01*
X030944Y026981D01*
X030981Y027037D01*
X030994Y027103D01*
X030981Y027168D01*
X030944Y027224D01*
X030901Y027252D01*
X030892Y027304D01*
X030894Y027319D01*
X030931Y027374D01*
X030944Y027440D01*
X030931Y027506D01*
X030901Y027551D01*
X030910Y027594D01*
X030920Y027615D01*
X030936Y027618D01*
X030991Y027655D01*
X031028Y027711D01*
X031041Y027776D01*
X031028Y027842D01*
X031027Y027844D01*
X031059Y027903D01*
X033458D01*
X033489Y027844D01*
D02*
G37*
G36*
X028363Y027852D02*
X028354Y027838D01*
X028341Y027773D01*
X028354Y027707D01*
X028391Y027651D01*
X028416Y027635D01*
X028417Y027564D01*
X028401Y027554D01*
X028364Y027498D01*
X028351Y027433D01*
X028364Y027367D01*
X028401Y027311D01*
X028416Y027301D01*
X028421Y027234D01*
X028384Y027178D01*
X028371Y027113D01*
X028384Y027047D01*
X028421Y026991D01*
X028473Y026956D01*
X028475Y026941D01*
X028469Y026895D01*
X028447Y026891D01*
X028391Y026854D01*
X028354Y026798D01*
X028341Y026733D01*
X028354Y026667D01*
X028356Y026663D01*
X028325Y026604D01*
X025900D01*
X025869Y026663D01*
X025871Y026667D01*
X025884Y026733D01*
X025871Y026798D01*
X025834Y026854D01*
X025786Y026885D01*
X025782Y026918D01*
X025786Y026950D01*
X025834Y026981D01*
X025871Y027037D01*
X025884Y027103D01*
X025871Y027168D01*
X025834Y027224D01*
X025814Y027237D01*
Y027308D01*
X025834Y027321D01*
X025871Y027377D01*
X025884Y027443D01*
X025871Y027508D01*
X025834Y027564D01*
X025833Y027565D01*
X025833Y027635D01*
X025857Y027651D01*
X025895Y027707D01*
X025908Y027773D01*
X025895Y027838D01*
X025886Y027852D01*
X025917Y027911D01*
X028331D01*
X028363Y027852D01*
D02*
G37*
G36*
X029383Y029778D02*
X029361Y029764D01*
X029324Y029708D01*
X029311Y029643D01*
X029320Y029597D01*
X029270Y029560D01*
X029268Y029561D01*
X029203Y029574D01*
X029168Y029567D01*
X028787Y029947D01*
X028758Y029967D01*
X028723Y029974D01*
X025473D01*
X025437Y029967D01*
X025408Y029947D01*
X025047Y029587D01*
X025013Y029594D01*
X025000Y029592D01*
X024944Y029593D01*
X024936Y029634D01*
X024931Y029658D01*
X024894Y029714D01*
X024838Y029751D01*
X024773Y029764D01*
X024707Y029751D01*
X024651Y029714D01*
X024614Y029658D01*
X024601Y029593D01*
X024614Y029527D01*
X024651Y029471D01*
X024707Y029434D01*
X024773Y029421D01*
X024785Y029423D01*
X024841Y029423D01*
X024849Y029381D01*
X024854Y029357D01*
X024891Y029301D01*
X024920Y029282D01*
X024918Y029248D01*
X024911Y029217D01*
X024861Y029184D01*
X024824Y029128D01*
X024811Y029063D01*
X024824Y028997D01*
X024861Y028941D01*
X024893Y028920D01*
X024898Y028854D01*
X024897Y028851D01*
X024871Y028834D01*
X024834Y028778D01*
X024827Y028745D01*
X024783Y028694D01*
X024717Y028681D01*
X024661Y028644D01*
X024624Y028588D01*
X024611Y028523D01*
X024624Y028457D01*
X024661Y028401D01*
X024717Y028364D01*
X024783Y028351D01*
X024848Y028364D01*
X024904Y028401D01*
X024941Y028457D01*
X024948Y028490D01*
X024978Y028524D01*
X025044Y028531D01*
X025358Y028218D01*
X025387Y028198D01*
X025423Y028191D01*
X028773D01*
X028808Y028198D01*
X028837Y028218D01*
X029174Y028555D01*
X029193Y028551D01*
X029197Y028552D01*
X029251Y028523D01*
X029254Y028508D01*
X029264Y028457D01*
X029301Y028401D01*
X029357Y028364D01*
X029383Y028359D01*
Y027982D01*
X029377Y027981D01*
X029321Y027944D01*
X029284Y027888D01*
X029271Y027823D01*
X029275Y027800D01*
X029225Y027750D01*
X029203Y027754D01*
X029184Y027750D01*
X028867Y028067D01*
X028838Y028087D01*
X028803Y028094D01*
X025403D01*
X025367Y028087D01*
X025338Y028067D01*
X025047Y027777D01*
X025013Y027784D01*
X025000Y027782D01*
X024944Y027783D01*
X024936Y027824D01*
X024931Y027848D01*
X024894Y027904D01*
X024838Y027941D01*
X024773Y027954D01*
X024707Y027941D01*
X024651Y027904D01*
X024614Y027848D01*
X024601Y027783D01*
X024614Y027717D01*
X024651Y027661D01*
X024707Y027624D01*
X024773Y027611D01*
X024785Y027613D01*
X024841Y027613D01*
X024849Y027571D01*
X024854Y027547D01*
X024891Y027491D01*
X024920Y027472D01*
X024918Y027438D01*
X024911Y027407D01*
X024861Y027374D01*
X024824Y027318D01*
X024811Y027253D01*
X024824Y027187D01*
X024861Y027131D01*
X024893Y027110D01*
X024898Y027044D01*
X024897Y027041D01*
X024871Y027024D01*
X024834Y026968D01*
X024827Y026935D01*
X024783Y026884D01*
X024717Y026871D01*
X024661Y026834D01*
X024624Y026778D01*
X024611Y026713D01*
X024624Y026647D01*
X024661Y026591D01*
X024717Y026554D01*
X024783Y026541D01*
X024848Y026554D01*
X024904Y026591D01*
X024941Y026647D01*
X024948Y026680D01*
X024978Y026714D01*
X025044Y026721D01*
X025318Y026448D01*
X025347Y026428D01*
X025383Y026421D01*
X025965D01*
X025996Y026362D01*
X025994Y026358D01*
X025981Y026293D01*
X025994Y026227D01*
X026031Y026171D01*
X026087Y026134D01*
X026153Y026121D01*
X026218Y026134D01*
X026254Y026158D01*
X026269Y026156D01*
X026277Y026149D01*
X026309Y026092D01*
X026301Y026053D01*
X026303Y026042D01*
X026255Y025983D01*
X022123D01*
Y031573D01*
X022125Y031575D01*
X029383D01*
Y029778D01*
D02*
G37*
G36*
X028418Y029732D02*
X028391Y029714D01*
X028354Y029658D01*
X028341Y029593D01*
X028354Y029527D01*
X028391Y029471D01*
X028430Y029445D01*
X028432Y029438D01*
Y029387D01*
X028430Y029380D01*
X028391Y029354D01*
X028354Y029298D01*
X028341Y029233D01*
X028354Y029167D01*
X028391Y029111D01*
X028430Y029085D01*
X028432Y029078D01*
Y029027D01*
X028430Y029020D01*
X028391Y028994D01*
X028354Y028938D01*
X028341Y028873D01*
X028354Y028807D01*
X028391Y028751D01*
X028421Y028731D01*
Y028664D01*
X028391Y028644D01*
X028354Y028588D01*
X028341Y028523D01*
X028354Y028457D01*
X028370Y028433D01*
X028338Y028374D01*
X025887D01*
X025855Y028433D01*
X025871Y028457D01*
X025884Y028523D01*
X025871Y028588D01*
X025834Y028644D01*
X025804Y028664D01*
Y028731D01*
X025834Y028751D01*
X025871Y028807D01*
X025884Y028873D01*
X025871Y028938D01*
X025834Y028994D01*
X025795Y029020D01*
X025793Y029027D01*
Y029078D01*
X025795Y029085D01*
X025834Y029111D01*
X025871Y029167D01*
X025884Y029233D01*
X025871Y029298D01*
X025834Y029354D01*
X025795Y029380D01*
X025793Y029387D01*
Y029438D01*
X025795Y029445D01*
X025834Y029471D01*
X025871Y029527D01*
X025884Y029593D01*
X025871Y029658D01*
X025834Y029714D01*
X025807Y029732D01*
X025825Y029791D01*
X028400D01*
X028418Y029732D01*
D02*
G37*
G36*
X037268Y025983D02*
X030441D01*
X030383Y025994D01*
X030324Y025983D01*
X030013D01*
Y026578D01*
X030038Y026595D01*
X030075Y026651D01*
X030088Y026716D01*
X030086Y026728D01*
X030116Y026758D01*
X030139Y026764D01*
X030455Y026448D01*
X030485Y026428D01*
X030520Y026421D01*
X033915D01*
X033950Y026428D01*
X033980Y026448D01*
X034264Y026732D01*
X034318Y026703D01*
X034317Y026695D01*
X034330Y026629D01*
X034367Y026574D01*
X034423Y026536D01*
X034488Y026523D01*
X034554Y026536D01*
X034610Y026574D01*
X034647Y026629D01*
X034660Y026695D01*
X034647Y026761D01*
X034610Y026816D01*
X034554Y026853D01*
X034513Y026862D01*
X034506Y026879D01*
X034519Y026945D01*
X034506Y027010D01*
X034469Y027065D01*
X034461Y027079D01*
Y027130D01*
X034468Y027135D01*
X034505Y027191D01*
X034518Y027256D01*
X034505Y027322D01*
X034468Y027378D01*
X034435Y027399D01*
X034431Y027465D01*
X034431Y027468D01*
X034458Y027485D01*
X034495Y027541D01*
X034501Y027574D01*
X034542Y027620D01*
X034564Y027628D01*
X034612Y027638D01*
X034668Y027675D01*
X034705Y027731D01*
X034718Y027796D01*
X034705Y027862D01*
X034668Y027918D01*
X034612Y027955D01*
X034546Y027968D01*
X034481Y027955D01*
X034425Y027918D01*
X034388Y027862D01*
X034381Y027829D01*
X034351Y027795D01*
X034285Y027788D01*
X034013Y028060D01*
X033983Y028080D01*
X033948Y028086D01*
X030535D01*
X030500Y028080D01*
X030470Y028060D01*
X030190Y027779D01*
X030146Y027788D01*
X030134Y027786D01*
X030078Y027786D01*
X030070Y027828D01*
X030065Y027852D01*
X030028Y027908D01*
X030013Y027918D01*
Y028388D01*
X030038Y028405D01*
X030075Y028461D01*
X030088Y028526D01*
X030084Y028545D01*
X030139Y028574D01*
X030535Y028178D01*
X030565Y028158D01*
X030600Y028151D01*
X033862D01*
X033898Y028158D01*
X033927Y028178D01*
X034302Y028552D01*
X034336Y028545D01*
X034391Y028496D01*
X034398Y028461D01*
X034435Y028405D01*
X034491Y028368D01*
X034556Y028355D01*
X034622Y028368D01*
X034678Y028405D01*
X034715Y028461D01*
X034728Y028526D01*
X034715Y028592D01*
X034678Y028648D01*
X034622Y028685D01*
X034556Y028698D01*
X034502Y028747D01*
X034495Y028782D01*
X034458Y028838D01*
X034442Y028848D01*
X034443Y028919D01*
X034468Y028935D01*
X034505Y028991D01*
X034518Y029056D01*
X034505Y029122D01*
X034468Y029178D01*
X034435Y029199D01*
X034431Y029265D01*
X034431Y029268D01*
X034458Y029285D01*
X034495Y029341D01*
X034501Y029374D01*
X034542Y029420D01*
X034564Y029428D01*
X034612Y029438D01*
X034668Y029475D01*
X034705Y029531D01*
X034718Y029596D01*
X034705Y029662D01*
X034668Y029718D01*
X034612Y029755D01*
X034546Y029768D01*
X034481Y029755D01*
X034425Y029718D01*
X034388Y029662D01*
X034381Y029629D01*
X034351Y029595D01*
X034285Y029588D01*
X033915Y029957D01*
X033885Y029977D01*
X033850Y029984D01*
X030612D01*
X030577Y029977D01*
X030548Y029957D01*
X030181Y029591D01*
X030146Y029598D01*
X030134Y029596D01*
X030078Y029596D01*
X030070Y029638D01*
X030065Y029662D01*
X030028Y029718D01*
X030013Y029728D01*
Y031573D01*
X030015Y031575D01*
X037268D01*
Y025983D01*
D02*
G37*
G36*
X033561Y024608D02*
X033525Y024584D01*
X033488Y024528D01*
X033475Y024463D01*
X033488Y024397D01*
X033525Y024341D01*
X033581Y024304D01*
X033583Y024304D01*
X033591Y024272D01*
X033589Y024242D01*
X033541Y024210D01*
X033504Y024154D01*
X033491Y024089D01*
X033504Y024023D01*
X033541Y023967D01*
X033557Y023957D01*
X033556Y023886D01*
X033531Y023870D01*
X033494Y023814D01*
X033481Y023749D01*
X033494Y023683D01*
X033531Y023627D01*
X033564Y023605D01*
X033566Y023599D01*
X033563Y023539D01*
X033525Y023514D01*
X033488Y023458D01*
X033475Y023393D01*
X033488Y023327D01*
X033525Y023271D01*
X033543Y023259D01*
X033525Y023200D01*
X030968D01*
X030950Y023259D01*
X030968Y023271D01*
X031005Y023327D01*
X031018Y023393D01*
X031005Y023458D01*
X030968Y023514D01*
X030938Y023534D01*
Y023602D01*
X030968Y023621D01*
X031005Y023677D01*
X031018Y023743D01*
X031005Y023808D01*
X030968Y023864D01*
X030929Y023890D01*
X030927Y023897D01*
Y023948D01*
X030929Y023955D01*
X030968Y023981D01*
X031005Y024037D01*
X031018Y024103D01*
X031005Y024168D01*
X030968Y024224D01*
X030929Y024250D01*
X030927Y024257D01*
Y024308D01*
X030929Y024315D01*
X030968Y024341D01*
X031005Y024397D01*
X031018Y024463D01*
X031005Y024528D01*
X030968Y024584D01*
X030932Y024608D01*
X030950Y024667D01*
X033543D01*
X033561Y024608D01*
D02*
G37*
G36*
X033489Y022710D02*
X033488Y022708D01*
X033475Y022643D01*
X033488Y022577D01*
X033525Y022521D01*
X033545Y022508D01*
X033553Y022442D01*
X033551Y022438D01*
X033516Y022386D01*
X033503Y022321D01*
X033516Y022255D01*
X033553Y022199D01*
X033609Y022162D01*
X033636Y022157D01*
X033643Y022131D01*
X033642Y022095D01*
X033595Y022064D01*
X033558Y022008D01*
X033545Y021943D01*
X033558Y021877D01*
X033595Y021821D01*
X033581Y021761D01*
X033525Y021724D01*
X033488Y021668D01*
X033475Y021603D01*
X033488Y021537D01*
X033493Y021529D01*
X033461Y021470D01*
X031031D01*
X031000Y021529D01*
X031005Y021537D01*
X031018Y021603D01*
X031005Y021668D01*
X030968Y021724D01*
X030914Y021760D01*
X030911Y021775D01*
X030907Y021822D01*
X030944Y021847D01*
X030981Y021903D01*
X030994Y021969D01*
X030981Y022034D01*
X030944Y022090D01*
X030897Y022121D01*
X030896Y022125D01*
X030893Y022160D01*
X030896Y022186D01*
X030934Y022211D01*
X030971Y022267D01*
X030984Y022333D01*
X030971Y022398D01*
X030951Y022429D01*
X030941Y022465D01*
X030965Y022504D01*
X030991Y022521D01*
X031028Y022577D01*
X031041Y022643D01*
X031028Y022708D01*
X031027Y022710D01*
X031059Y022769D01*
X033458D01*
X033489Y022710D01*
D02*
G37*
G36*
X028363Y022726D02*
X028354Y022712D01*
X028341Y022647D01*
X028354Y022581D01*
X028391Y022525D01*
X028406Y022515D01*
X028421Y022454D01*
X028384Y022398D01*
X028371Y022333D01*
X028384Y022267D01*
X028421Y022211D01*
X028458Y022186D01*
X028465Y022129D01*
X028462Y022118D01*
X028441Y022104D01*
X028404Y022048D01*
X028391Y021983D01*
X028404Y021917D01*
X028441Y021861D01*
X028497Y021824D01*
X028499Y021824D01*
Y021763D01*
X028457Y021755D01*
X028401Y021718D01*
X028364Y021662D01*
X028351Y021597D01*
X028364Y021531D01*
X028365Y021529D01*
X028334Y021470D01*
X025895D01*
X025863Y021529D01*
X025871Y021541D01*
X025884Y021607D01*
X025871Y021672D01*
X025834Y021728D01*
X025781Y021763D01*
X025777Y021784D01*
X025776Y021826D01*
X025814Y021851D01*
X025851Y021907D01*
X025864Y021973D01*
X025851Y022038D01*
X025814Y022094D01*
X025799Y022104D01*
Y022175D01*
X025814Y022185D01*
X025851Y022241D01*
X025864Y022307D01*
X025851Y022372D01*
X025814Y022428D01*
X025811Y022430D01*
X025808Y022448D01*
X025816Y022497D01*
X025857Y022525D01*
X025895Y022581D01*
X025908Y022647D01*
X025895Y022712D01*
X025886Y022726D01*
X025917Y022785D01*
X028331D01*
X028363Y022726D01*
D02*
G37*
G36*
X037268Y019693D02*
X030013D01*
Y021444D01*
X030038Y021461D01*
X030075Y021517D01*
X030088Y021583D01*
X030138Y021608D01*
X030158Y021611D01*
X030455Y021314D01*
X030485Y021294D01*
X030520Y021287D01*
X033915D01*
X033950Y021294D01*
X033980Y021314D01*
X034312Y021646D01*
X034334Y021642D01*
X034376Y021607D01*
X034386Y021587D01*
X034398Y021527D01*
X034435Y021471D01*
X034491Y021434D01*
X034556Y021421D01*
X034622Y021434D01*
X034678Y021471D01*
X034715Y021527D01*
X034728Y021593D01*
X034715Y021658D01*
X034678Y021714D01*
X034622Y021751D01*
X034569Y021762D01*
X034527Y021796D01*
X034518Y021817D01*
X034506Y021877D01*
X034469Y021931D01*
X034461Y021945D01*
Y021997D01*
X034468Y022001D01*
X034505Y022057D01*
X034518Y022123D01*
X034505Y022188D01*
X034468Y022244D01*
X034435Y022265D01*
X034431Y022331D01*
X034431Y022334D01*
X034458Y022351D01*
X034495Y022407D01*
X034501Y022440D01*
X034542Y022486D01*
X034564Y022494D01*
X034612Y022504D01*
X034668Y022541D01*
X034705Y022597D01*
X034718Y022663D01*
X034705Y022728D01*
X034668Y022784D01*
X034612Y022821D01*
X034546Y022834D01*
X034481Y022821D01*
X034425Y022784D01*
X034388Y022728D01*
X034381Y022695D01*
X034351Y022661D01*
X034285Y022654D01*
X034013Y022926D01*
X033983Y022946D01*
X033948Y022953D01*
X030535D01*
X030500Y022946D01*
X030470Y022926D01*
X030190Y022646D01*
X030146Y022654D01*
X030134Y022652D01*
X030078Y022653D01*
X030070Y022695D01*
X030065Y022718D01*
X030028Y022774D01*
X030013Y022784D01*
Y023254D01*
X030038Y023271D01*
X030075Y023327D01*
X030088Y023393D01*
X030084Y023412D01*
X030139Y023441D01*
X030535Y023044D01*
X030565Y023024D01*
X030600Y023017D01*
X033862D01*
X033898Y023024D01*
X033927Y023044D01*
X034302Y023418D01*
X034336Y023411D01*
X034391Y023362D01*
X034398Y023327D01*
X034435Y023271D01*
X034491Y023234D01*
X034556Y023221D01*
X034622Y023234D01*
X034678Y023271D01*
X034715Y023327D01*
X034728Y023393D01*
X034715Y023458D01*
X034678Y023514D01*
X034622Y023551D01*
X034556Y023564D01*
X034502Y023614D01*
X034495Y023648D01*
X034458Y023704D01*
X034442Y023714D01*
X034443Y023785D01*
X034468Y023801D01*
X034505Y023857D01*
X034518Y023923D01*
X034505Y023988D01*
X034468Y024044D01*
X034435Y024065D01*
X034431Y024131D01*
X034431Y024134D01*
X034458Y024151D01*
X034495Y024207D01*
X034508Y024273D01*
X034495Y024338D01*
X034546Y024360D01*
X034554Y024362D01*
X034610Y024399D01*
X034647Y024455D01*
X034660Y024521D01*
X034647Y024586D01*
X034610Y024642D01*
X034554Y024679D01*
X034488Y024692D01*
X034423Y024679D01*
X034367Y024642D01*
X034330Y024586D01*
X034317Y024521D01*
X034321Y024502D01*
X034266Y024473D01*
X033915Y024824D01*
X033885Y024843D01*
X033850Y024850D01*
X030612D01*
X030577Y024843D01*
X030548Y024824D01*
X030181Y024457D01*
X030146Y024464D01*
X030134Y024462D01*
X030078Y024463D01*
X030070Y024505D01*
X030065Y024528D01*
X030028Y024584D01*
X030013Y024594D01*
Y025131D01*
X033961D01*
X033981Y025101D01*
X034037Y025064D01*
X034103Y025051D01*
X034168Y025064D01*
X034224Y025101D01*
X034261Y025157D01*
X034274Y025223D01*
X034272Y025233D01*
X034320Y025293D01*
X037268D01*
Y019693D01*
D02*
G37*
G36*
X025937Y025278D02*
X025973Y025271D01*
X026650D01*
X026667Y025224D01*
X026670Y025212D01*
X026634Y025158D01*
X026621Y025093D01*
X026634Y025027D01*
X026671Y024971D01*
X026727Y024934D01*
X026793Y024921D01*
X026858Y024934D01*
X026914Y024971D01*
X026947Y025021D01*
X026957Y025028D01*
X027061Y025131D01*
X029373D01*
Y024651D01*
X029331Y024624D01*
X029294Y024568D01*
X029281Y024503D01*
X029283Y024490D01*
X029233Y024440D01*
X029213Y024444D01*
X029173Y024436D01*
X028787Y024821D01*
X028758Y024841D01*
X028723Y024848D01*
X025473D01*
X025437Y024841D01*
X025408Y024821D01*
X025047Y024461D01*
X025013Y024468D01*
X025011Y024468D01*
X024944Y024515D01*
X024941Y024528D01*
X024904Y024584D01*
X024848Y024621D01*
X024783Y024634D01*
X024717Y024621D01*
X024661Y024584D01*
X024624Y024528D01*
X024611Y024463D01*
X024624Y024397D01*
X024661Y024341D01*
X024717Y024304D01*
X024783Y024291D01*
X024784Y024291D01*
X024851Y024244D01*
X024854Y024231D01*
X024891Y024175D01*
X024920Y024156D01*
X024918Y024122D01*
X024911Y024091D01*
X024861Y024058D01*
X024824Y024002D01*
X024811Y023937D01*
X024824Y023871D01*
X024861Y023815D01*
X024893Y023794D01*
X024898Y023728D01*
X024897Y023725D01*
X024871Y023708D01*
X024834Y023652D01*
X024827Y023619D01*
X024783Y023568D01*
X024717Y023555D01*
X024661Y023518D01*
X024624Y023462D01*
X024611Y023397D01*
X024624Y023331D01*
X024661Y023275D01*
X024717Y023238D01*
X024783Y023225D01*
X024848Y023238D01*
X024904Y023275D01*
X024941Y023331D01*
X024948Y023364D01*
X024978Y023398D01*
X025046Y023403D01*
X025358Y023092D01*
X025387Y023072D01*
X025423Y023065D01*
X028773D01*
X028808Y023072D01*
X028837Y023092D01*
X029166Y023420D01*
X029213Y023411D01*
X029246Y023418D01*
X029297Y023371D01*
X029291Y023343D01*
X029304Y023277D01*
X029341Y023221D01*
X029373Y023200D01*
Y022858D01*
X029321Y022824D01*
X029284Y022768D01*
X029271Y022703D01*
X029275Y022682D01*
X029225Y022632D01*
X029213Y022634D01*
X029181Y022628D01*
X028867Y022941D01*
X028838Y022961D01*
X028803Y022968D01*
X025403D01*
X025367Y022961D01*
X025338Y022941D01*
X025047Y022651D01*
X025013Y022658D01*
X025000Y022656D01*
X024944Y022657D01*
X024936Y022698D01*
X024931Y022722D01*
X024894Y022778D01*
X024838Y022815D01*
X024773Y022828D01*
X024707Y022815D01*
X024651Y022778D01*
X024614Y022722D01*
X024601Y022657D01*
X024614Y022591D01*
X024651Y022535D01*
X024707Y022498D01*
X024773Y022485D01*
X024785Y022487D01*
X024841Y022487D01*
X024849Y022445D01*
X024854Y022421D01*
X024891Y022365D01*
X024920Y022346D01*
X024918Y022312D01*
X024911Y022281D01*
X024861Y022248D01*
X024824Y022192D01*
X024811Y022127D01*
X024824Y022061D01*
X024861Y022005D01*
X024893Y021984D01*
X024898Y021918D01*
X024897Y021915D01*
X024871Y021898D01*
X024834Y021842D01*
X024827Y021809D01*
X024783Y021758D01*
X024717Y021745D01*
X024661Y021708D01*
X024624Y021652D01*
X024611Y021587D01*
X024624Y021521D01*
X024661Y021465D01*
X024717Y021428D01*
X024783Y021415D01*
X024848Y021428D01*
X024904Y021465D01*
X024941Y021521D01*
X024948Y021554D01*
X024978Y021588D01*
X025044Y021595D01*
X025326Y021313D01*
X025356Y021293D01*
X025391Y021287D01*
X028777D01*
X028812Y021293D01*
X028842Y021313D01*
X029178Y021650D01*
X029201Y021646D01*
X029243Y021611D01*
X029252Y021591D01*
X029264Y021531D01*
X029301Y021475D01*
X029357Y021438D01*
X029373Y021435D01*
Y019733D01*
Y019693D01*
X022117D01*
Y025287D01*
X022123Y025293D01*
X025915D01*
X025937Y025278D01*
D02*
G37*
G36*
X028418Y024606D02*
X028391Y024588D01*
X028354Y024532D01*
X028341Y024467D01*
X028354Y024401D01*
X028391Y024345D01*
X028447Y024308D01*
X028452Y024307D01*
X028460Y024279D01*
X028459Y024245D01*
X028411Y024214D01*
X028374Y024158D01*
X028361Y024093D01*
X028374Y024027D01*
X028411Y023971D01*
X028427Y023961D01*
X028426Y023890D01*
X028401Y023874D01*
X028364Y023818D01*
X028351Y023753D01*
X028364Y023687D01*
X028401Y023631D01*
X028432Y023611D01*
X028435Y023600D01*
X028430Y023544D01*
X028391Y023518D01*
X028354Y023462D01*
X028341Y023397D01*
X028354Y023331D01*
X028370Y023307D01*
X028338Y023248D01*
X025887D01*
X025855Y023307D01*
X025871Y023331D01*
X025884Y023397D01*
X025871Y023462D01*
X025834Y023518D01*
X025804Y023538D01*
Y023605D01*
X025834Y023625D01*
X025871Y023681D01*
X025884Y023747D01*
X025871Y023812D01*
X025834Y023868D01*
X025795Y023894D01*
X025793Y023901D01*
Y023952D01*
X025795Y023959D01*
X025834Y023985D01*
X025871Y024041D01*
X025884Y024107D01*
X025871Y024172D01*
X025834Y024228D01*
X025795Y024254D01*
X025793Y024261D01*
Y024312D01*
X025795Y024319D01*
X025834Y024345D01*
X025871Y024401D01*
X025884Y024467D01*
X025871Y024532D01*
X025834Y024588D01*
X025807Y024606D01*
X025825Y024665D01*
X028400D01*
X028418Y024606D01*
D02*
G37*
%LPC*%
G36*
X032455Y029063D02*
X032293D01*
Y028900D01*
X032328Y028907D01*
X032400Y028955D01*
X032448Y029027D01*
X032455Y029063D01*
D02*
G37*
G36*
X032193D02*
X032030D01*
X032037Y029027D01*
X032085Y028955D01*
X032157Y028907D01*
X032193Y028900D01*
Y029063D01*
D02*
G37*
G36*
Y029325D02*
X032157Y029318D01*
X032085Y029270D01*
X032037Y029198D01*
X032030Y029163D01*
X032193D01*
Y029325D01*
D02*
G37*
G36*
X032293D02*
Y029163D01*
X032455D01*
X032448Y029198D01*
X032400Y029270D01*
X032328Y029318D01*
X032293Y029325D01*
D02*
G37*
G36*
X032201Y027473D02*
X032039D01*
X032046Y027437D01*
X032094Y027365D01*
X032166Y027317D01*
X032201Y027310D01*
Y027473D01*
D02*
G37*
G36*
X032464D02*
X032301D01*
Y027310D01*
X032336Y027317D01*
X032408Y027365D01*
X032457Y027437D01*
X032464Y027473D01*
D02*
G37*
G36*
X032201Y027735D02*
X032166Y027728D01*
X032094Y027680D01*
X032046Y027608D01*
X032039Y027573D01*
X032201D01*
Y027735D01*
D02*
G37*
G36*
X032301D02*
Y027573D01*
X032464D01*
X032457Y027608D01*
X032408Y027680D01*
X032336Y027728D01*
X032301Y027735D01*
D02*
G37*
G36*
X027083Y027403D02*
X026921D01*
X026928Y027367D01*
X026976Y027295D01*
X027048Y027247D01*
X027083Y027240D01*
Y027403D01*
D02*
G37*
G36*
X027346D02*
X027183D01*
Y027240D01*
X027219Y027247D01*
X027291Y027295D01*
X027339Y027367D01*
X027346Y027403D01*
D02*
G37*
G36*
X027183Y027665D02*
Y027503D01*
X027346D01*
X027339Y027538D01*
X027291Y027610D01*
X027219Y027658D01*
X027183Y027665D01*
D02*
G37*
G36*
X027083D02*
X027048Y027658D01*
X026976Y027610D01*
X026928Y027538D01*
X026921Y027503D01*
X027083D01*
Y027665D01*
D02*
G37*
G36*
X028633Y031463D02*
X028566Y031455D01*
X028504Y031429D01*
X028450Y031388D01*
X028417Y031345D01*
X028386Y031339D01*
X028381D01*
X028350Y031345D01*
X028317Y031388D01*
X028263Y031429D01*
X028201Y031455D01*
X028133Y031463D01*
X028066Y031455D01*
X028004Y031429D01*
X027950Y031388D01*
X027917Y031345D01*
X027886Y031339D01*
X027881D01*
X027850Y031345D01*
X027817Y031388D01*
X027763Y031429D01*
X027701Y031455D01*
X027633Y031463D01*
X027566Y031455D01*
X027504Y031429D01*
X027450Y031388D01*
X027449Y031386D01*
X027390Y031406D01*
Y031461D01*
X026877D01*
Y030947D01*
X027390D01*
Y031002D01*
X027449Y031022D01*
X027450Y031021D01*
X027504Y030980D01*
X027566Y030954D01*
X027633Y030945D01*
X027701Y030954D01*
X027763Y030980D01*
X027817Y031021D01*
X027850Y031064D01*
X027881Y031070D01*
X027886D01*
X027917Y031064D01*
X027950Y031021D01*
X028004Y030980D01*
X028066Y030954D01*
X028133Y030945D01*
X028201Y030954D01*
X028263Y030980D01*
X028317Y031021D01*
X028350Y031064D01*
X028381Y031070D01*
X028386D01*
X028417Y031064D01*
X028450Y031021D01*
X028504Y030980D01*
X028566Y030954D01*
X028633Y030945D01*
X028701Y030954D01*
X028763Y030980D01*
X028817Y031021D01*
X028858Y031075D01*
X028884Y031137D01*
X028893Y031204D01*
X028884Y031271D01*
X028858Y031334D01*
X028817Y031388D01*
X028763Y031429D01*
X028701Y031455D01*
X028633Y031463D01*
D02*
G37*
G36*
X026143Y030965D02*
X026107Y030958D01*
X026035Y030910D01*
X025987Y030838D01*
X025980Y030803D01*
X026143D01*
Y030965D01*
D02*
G37*
G36*
X026243D02*
Y030803D01*
X026405D01*
X026398Y030838D01*
X026350Y030910D01*
X026278Y030958D01*
X026243Y030965D01*
D02*
G37*
G36*
X026405Y030703D02*
X026243D01*
Y030540D01*
X026278Y030547D01*
X026350Y030595D01*
X026398Y030667D01*
X026405Y030703D01*
D02*
G37*
G36*
X029013Y030725D02*
X028977Y030718D01*
X028905Y030670D01*
X028857Y030598D01*
X028850Y030563D01*
X029013D01*
Y030725D01*
D02*
G37*
G36*
X022953Y028555D02*
X022917Y028548D01*
X022845Y028500D01*
X022797Y028428D01*
X022790Y028393D01*
X022953D01*
Y028555D01*
D02*
G37*
G36*
X023053D02*
Y028393D01*
X023215D01*
X023208Y028428D01*
X023160Y028500D01*
X023088Y028548D01*
X023053Y028555D01*
D02*
G37*
G36*
X024907Y030869D02*
X024837Y030855D01*
X024779Y030815D01*
X024739Y030756D01*
X024725Y030687D01*
X024739Y030617D01*
X024779Y030559D01*
X024837Y030519D01*
X024907Y030505D01*
X024976Y030519D01*
X025035Y030559D01*
X025075Y030617D01*
X025089Y030687D01*
X025075Y030756D01*
X025035Y030815D01*
X024976Y030855D01*
X024907Y030869D01*
D02*
G37*
G36*
X023196Y031258D02*
X023048Y031244D01*
X022905Y031200D01*
X022773Y031130D01*
X022657Y031035D01*
X022562Y030919D01*
X022492Y030788D01*
X022449Y030645D01*
X022434Y030496D01*
X022449Y030347D01*
X022492Y030204D01*
X022562Y030072D01*
X022657Y029957D01*
X022773Y029862D01*
X022905Y029791D01*
X023048Y029748D01*
X023196Y029733D01*
X023345Y029748D01*
X023488Y029791D01*
X023620Y029862D01*
X023736Y029957D01*
X023830Y030072D01*
X023901Y030204D01*
X023944Y030347D01*
X023959Y030496D01*
X023944Y030645D01*
X023901Y030788D01*
X023830Y030919D01*
X023736Y031035D01*
X023620Y031130D01*
X023488Y031200D01*
X023345Y031244D01*
X023196Y031258D01*
D02*
G37*
G36*
X026143Y030703D02*
X025980D01*
X025987Y030667D01*
X026035Y030595D01*
X026107Y030547D01*
X026143Y030540D01*
Y030703D01*
D02*
G37*
G36*
X029275Y030463D02*
X029113D01*
Y030300D01*
X029148Y030307D01*
X029220Y030355D01*
X029268Y030427D01*
X029275Y030463D01*
D02*
G37*
G36*
X029013D02*
X028850D01*
X028857Y030427D01*
X028905Y030355D01*
X028977Y030307D01*
X029013Y030300D01*
Y030463D01*
D02*
G37*
G36*
X023215Y028293D02*
X023053D01*
Y028130D01*
X023088Y028137D01*
X023160Y028185D01*
X023208Y028257D01*
X023215Y028293D01*
D02*
G37*
G36*
X022953D02*
X022790D01*
X022797Y028257D01*
X022845Y028185D01*
X022917Y028137D01*
X022953Y028130D01*
Y028293D01*
D02*
G37*
G36*
X029113Y030725D02*
Y030563D01*
X029275D01*
X029268Y030598D01*
X029220Y030670D01*
X029148Y030718D01*
X029113Y030725D01*
D02*
G37*
G36*
X027083Y029295D02*
X027048Y029288D01*
X026976Y029240D01*
X026928Y029168D01*
X026921Y029133D01*
X027083D01*
Y029295D01*
D02*
G37*
G36*
X027183D02*
Y029133D01*
X027346D01*
X027339Y029168D01*
X027291Y029240D01*
X027219Y029288D01*
X027183Y029295D01*
D02*
G37*
G36*
X027346Y029033D02*
X027183D01*
Y028870D01*
X027219Y028877D01*
X027291Y028925D01*
X027339Y028997D01*
X027346Y029033D01*
D02*
G37*
G36*
X027083D02*
X026921D01*
X026928Y028997D01*
X026976Y028925D01*
X027048Y028877D01*
X027083Y028870D01*
Y029033D01*
D02*
G37*
G36*
X031752Y031463D02*
X031685Y031455D01*
X031622Y031429D01*
X031568Y031388D01*
X031535Y031345D01*
X031504Y031339D01*
X031499D01*
X031468Y031345D01*
X031435Y031388D01*
X031381Y031429D01*
X031319Y031455D01*
X031252Y031463D01*
X031185Y031455D01*
X031122Y031429D01*
X031068Y031388D01*
X031035Y031345D01*
X031004Y031339D01*
X030999D01*
X030968Y031345D01*
X030935Y031388D01*
X030881Y031429D01*
X030819Y031455D01*
X030752Y031463D01*
X030685Y031455D01*
X030622Y031429D01*
X030568Y031388D01*
X030527Y031334D01*
X030501Y031271D01*
X030493Y031204D01*
X030501Y031137D01*
X030527Y031075D01*
X030568Y031021D01*
X030622Y030980D01*
X030685Y030954D01*
X030752Y030945D01*
X030819Y030954D01*
X030881Y030980D01*
X030935Y031021D01*
X030968Y031064D01*
X030999Y031070D01*
X031004D01*
X031035Y031064D01*
X031068Y031021D01*
X031122Y030980D01*
X031185Y030954D01*
X031252Y030945D01*
X031319Y030954D01*
X031381Y030980D01*
X031435Y031021D01*
X031468Y031064D01*
X031499Y031070D01*
X031504D01*
X031535Y031064D01*
X031568Y031021D01*
X031622Y030980D01*
X031685Y030954D01*
X031752Y030945D01*
X031819Y030954D01*
X031881Y030980D01*
X031935Y031021D01*
X031936Y031022D01*
X031995Y031002D01*
Y030947D01*
X032508D01*
Y031461D01*
X031995D01*
Y031406D01*
X031936Y031386D01*
X031935Y031388D01*
X031881Y031429D01*
X031819Y031455D01*
X031752Y031463D01*
D02*
G37*
G36*
X030615Y030463D02*
X030453D01*
Y030300D01*
X030488Y030307D01*
X030560Y030355D01*
X030608Y030427D01*
X030615Y030463D01*
D02*
G37*
G36*
X034478Y030889D02*
X034409Y030875D01*
X034350Y030835D01*
X034310Y030776D01*
X034297Y030707D01*
X034310Y030637D01*
X034350Y030579D01*
X034409Y030539D01*
X034478Y030525D01*
X034548Y030539D01*
X034607Y030579D01*
X034646Y030637D01*
X034660Y030707D01*
X034646Y030776D01*
X034607Y030835D01*
X034548Y030875D01*
X034478Y030889D01*
D02*
G37*
G36*
X033415Y030693D02*
X033253D01*
Y030530D01*
X033288Y030537D01*
X033360Y030585D01*
X033408Y030657D01*
X033415Y030693D01*
D02*
G37*
G36*
X033153D02*
X032990D01*
X032997Y030657D01*
X033045Y030585D01*
X033117Y030537D01*
X033153Y030530D01*
Y030693D01*
D02*
G37*
G36*
X030353Y030463D02*
X030190D01*
X030197Y030427D01*
X030245Y030355D01*
X030317Y030307D01*
X030353Y030300D01*
Y030463D01*
D02*
G37*
G36*
X036189Y031189D02*
X036053Y031176D01*
X035923Y031136D01*
X035803Y031072D01*
X035698Y030986D01*
X035612Y030881D01*
X035548Y030761D01*
X035509Y030631D01*
X035495Y030496D01*
X035509Y030361D01*
X035548Y030230D01*
X035612Y030111D01*
X035698Y030006D01*
X035803Y029919D01*
X035923Y029855D01*
X036053Y029816D01*
X036189Y029802D01*
X036324Y029816D01*
X036454Y029855D01*
X036574Y029919D01*
X036679Y030006D01*
X036765Y030111D01*
X036829Y030230D01*
X036869Y030361D01*
X036882Y030496D01*
X036869Y030631D01*
X036829Y030761D01*
X036765Y030881D01*
X036679Y030986D01*
X036574Y031072D01*
X036454Y031136D01*
X036324Y031176D01*
X036189Y031189D01*
D02*
G37*
G36*
X030353Y030725D02*
X030317Y030718D01*
X030245Y030670D01*
X030197Y030598D01*
X030190Y030563D01*
X030353D01*
Y030725D01*
D02*
G37*
G36*
X030453D02*
Y030563D01*
X030615D01*
X030608Y030598D01*
X030560Y030670D01*
X030488Y030718D01*
X030453Y030725D01*
D02*
G37*
G36*
X033153Y030955D02*
X033117Y030948D01*
X033045Y030900D01*
X032997Y030828D01*
X032990Y030793D01*
X033153D01*
Y030955D01*
D02*
G37*
G36*
X033253D02*
Y030793D01*
X033415D01*
X033408Y030828D01*
X033360Y030900D01*
X033288Y030948D01*
X033253Y030955D01*
D02*
G37*
G36*
X036333Y028435D02*
X036297Y028428D01*
X036225Y028380D01*
X036177Y028308D01*
X036170Y028273D01*
X036333D01*
Y028435D01*
D02*
G37*
G36*
X036433D02*
Y028273D01*
X036595D01*
X036588Y028308D01*
X036540Y028380D01*
X036468Y028428D01*
X036433Y028435D01*
D02*
G37*
G36*
X036595Y028173D02*
X036433D01*
Y028010D01*
X036468Y028017D01*
X036540Y028065D01*
X036588Y028137D01*
X036595Y028173D01*
D02*
G37*
G36*
X036333D02*
X036170D01*
X036177Y028137D01*
X036225Y028065D01*
X036297Y028017D01*
X036333Y028010D01*
Y028173D01*
D02*
G37*
G36*
X032455Y023883D02*
X032293D01*
Y023720D01*
X032328Y023727D01*
X032400Y023775D01*
X032448Y023847D01*
X032455Y023883D01*
D02*
G37*
G36*
X032193D02*
X032030D01*
X032037Y023847D01*
X032085Y023775D01*
X032157Y023727D01*
X032193Y023720D01*
Y023883D01*
D02*
G37*
G36*
Y024145D02*
X032157Y024138D01*
X032085Y024090D01*
X032037Y024018D01*
X032030Y023983D01*
X032193D01*
Y024145D01*
D02*
G37*
G36*
X032293D02*
Y023983D01*
X032455D01*
X032448Y024018D01*
X032400Y024090D01*
X032328Y024138D01*
X032293Y024145D01*
D02*
G37*
G36*
X032302Y022385D02*
Y022223D01*
X032464D01*
X032457Y022258D01*
X032409Y022330D01*
X032337Y022378D01*
X032302Y022385D01*
D02*
G37*
G36*
X032202D02*
X032166Y022378D01*
X032094Y022330D01*
X032046Y022258D01*
X032039Y022223D01*
X032202D01*
Y022385D01*
D02*
G37*
G36*
Y022123D02*
X032039D01*
X032046Y022087D01*
X032094Y022015D01*
X032166Y021967D01*
X032202Y021960D01*
Y022123D01*
D02*
G37*
G36*
X032464D02*
X032302D01*
Y021960D01*
X032337Y021967D01*
X032409Y022015D01*
X032457Y022087D01*
X032464Y022123D01*
D02*
G37*
G36*
X027083Y022485D02*
X027048Y022478D01*
X026976Y022430D01*
X026928Y022358D01*
X026921Y022323D01*
X027083D01*
Y022485D01*
D02*
G37*
G36*
X027183D02*
Y022323D01*
X027346D01*
X027339Y022358D01*
X027291Y022430D01*
X027219Y022478D01*
X027183Y022485D01*
D02*
G37*
G36*
X027346Y022223D02*
X027183D01*
Y022060D01*
X027219Y022067D01*
X027291Y022115D01*
X027339Y022187D01*
X027346Y022223D01*
D02*
G37*
G36*
X027083D02*
X026921D01*
X026928Y022187D01*
X026976Y022115D01*
X027048Y022067D01*
X027083Y022060D01*
Y022223D01*
D02*
G37*
G36*
X036343Y023103D02*
X036180D01*
X036187Y023067D01*
X036235Y022995D01*
X036307Y022947D01*
X036343Y022940D01*
Y023103D01*
D02*
G37*
G36*
X036443Y023365D02*
Y023203D01*
X036605D01*
X036598Y023238D01*
X036550Y023310D01*
X036478Y023358D01*
X036443Y023365D01*
D02*
G37*
G36*
X036605Y023103D02*
X036443D01*
Y022940D01*
X036478Y022947D01*
X036550Y022995D01*
X036598Y023067D01*
X036605Y023103D01*
D02*
G37*
G36*
X036343Y023365D02*
X036307Y023358D01*
X036235Y023310D01*
X036187Y023238D01*
X036180Y023203D01*
X036343D01*
Y023365D01*
D02*
G37*
G36*
X030303Y020543D02*
X030140D01*
X030147Y020507D01*
X030195Y020435D01*
X030267Y020387D01*
X030303Y020380D01*
Y020543D01*
D02*
G37*
G36*
X033173D02*
X033010D01*
X033017Y020507D01*
X033065Y020435D01*
X033137Y020387D01*
X033173Y020380D01*
Y020543D01*
D02*
G37*
G36*
X030565D02*
X030403D01*
Y020380D01*
X030438Y020387D01*
X030510Y020435D01*
X030558Y020507D01*
X030565Y020543D01*
D02*
G37*
G36*
X036189Y021534D02*
X036040Y021519D01*
X035897Y021476D01*
X035765Y021405D01*
X035649Y021311D01*
X035555Y021195D01*
X035484Y021063D01*
X035441Y020920D01*
X035426Y020771D01*
X035441Y020623D01*
X035484Y020480D01*
X035555Y020348D01*
X035649Y020232D01*
X035765Y020137D01*
X035897Y020067D01*
X036040Y020024D01*
X036189Y020009D01*
X036337Y020024D01*
X036480Y020067D01*
X036612Y020137D01*
X036728Y020232D01*
X036823Y020348D01*
X036893Y020480D01*
X036936Y020623D01*
X036951Y020771D01*
X036936Y020920D01*
X036893Y021063D01*
X036823Y021195D01*
X036728Y021311D01*
X036612Y021405D01*
X036480Y021476D01*
X036337Y021519D01*
X036189Y021534D01*
D02*
G37*
G36*
X034498Y020650D02*
X034429Y020636D01*
X034370Y020597D01*
X034330Y020538D01*
X034317Y020468D01*
X034330Y020399D01*
X034370Y020340D01*
X034429Y020300D01*
X034498Y020287D01*
X034568Y020300D01*
X034627Y020340D01*
X034666Y020399D01*
X034680Y020468D01*
X034666Y020538D01*
X034627Y020597D01*
X034568Y020636D01*
X034498Y020650D01*
D02*
G37*
G36*
X031752Y020302D02*
X031685Y020293D01*
X031622Y020267D01*
X031568Y020226D01*
X031535Y020183D01*
X031504Y020177D01*
X031499D01*
X031468Y020183D01*
X031435Y020226D01*
X031381Y020267D01*
X031319Y020293D01*
X031252Y020302D01*
X031185Y020293D01*
X031122Y020267D01*
X031068Y020226D01*
X031035Y020183D01*
X031004Y020177D01*
X030999D01*
X030968Y020183D01*
X030935Y020226D01*
X030881Y020267D01*
X030819Y020293D01*
X030752Y020302D01*
X030685Y020293D01*
X030622Y020267D01*
X030568Y020226D01*
X030527Y020172D01*
X030501Y020110D01*
X030493Y020043D01*
X030501Y019976D01*
X030527Y019913D01*
X030568Y019860D01*
X030622Y019819D01*
X030685Y019793D01*
X030752Y019784D01*
X030819Y019793D01*
X030881Y019819D01*
X030935Y019860D01*
X030968Y019903D01*
X030999Y019908D01*
X031004D01*
X031035Y019903D01*
X031068Y019860D01*
X031122Y019819D01*
X031185Y019793D01*
X031252Y019784D01*
X031319Y019793D01*
X031381Y019819D01*
X031435Y019860D01*
X031468Y019903D01*
X031499Y019908D01*
X031504D01*
X031535Y019903D01*
X031568Y019860D01*
X031622Y019819D01*
X031685Y019793D01*
X031752Y019784D01*
X031819Y019793D01*
X031881Y019819D01*
X031935Y019860D01*
X031936Y019861D01*
X031995Y019841D01*
Y019786D01*
X032508D01*
Y020300D01*
X031995D01*
Y020245D01*
X031936Y020225D01*
X031935Y020226D01*
X031881Y020267D01*
X031819Y020293D01*
X031752Y020302D01*
D02*
G37*
G36*
X033435Y020543D02*
X033273D01*
Y020380D01*
X033308Y020387D01*
X033380Y020435D01*
X033428Y020507D01*
X033435Y020543D01*
D02*
G37*
G36*
X033273Y020805D02*
Y020643D01*
X033435D01*
X033428Y020678D01*
X033380Y020750D01*
X033308Y020798D01*
X033273Y020805D01*
D02*
G37*
G36*
X033173D02*
X033137Y020798D01*
X033065Y020750D01*
X033017Y020678D01*
X033010Y020643D01*
X033173D01*
Y020805D01*
D02*
G37*
G36*
X030403D02*
Y020643D01*
X030565D01*
X030558Y020678D01*
X030510Y020750D01*
X030438Y020798D01*
X030403Y020805D01*
D02*
G37*
G36*
X030303D02*
X030267Y020798D01*
X030195Y020750D01*
X030147Y020678D01*
X030140Y020643D01*
X030303D01*
Y020805D01*
D02*
G37*
G36*
X023195Y022993D02*
X023033D01*
Y022830D01*
X023068Y022837D01*
X023140Y022885D01*
X023188Y022957D01*
X023195Y022993D01*
D02*
G37*
G36*
X022933D02*
X022770D01*
X022777Y022957D01*
X022825Y022885D01*
X022897Y022837D01*
X022933Y022830D01*
Y022993D01*
D02*
G37*
G36*
Y023255D02*
X022897Y023248D01*
X022825Y023200D01*
X022777Y023128D01*
X022770Y023093D01*
X022933D01*
Y023255D01*
D02*
G37*
G36*
X023033D02*
Y023093D01*
X023195D01*
X023188Y023128D01*
X023140Y023200D01*
X023068Y023248D01*
X023033Y023255D01*
D02*
G37*
G36*
X029285Y020543D02*
X029123D01*
Y020380D01*
X029158Y020387D01*
X029230Y020435D01*
X029278Y020507D01*
X029285Y020543D01*
D02*
G37*
G36*
X029023D02*
X028860D01*
X028867Y020507D01*
X028915Y020435D01*
X028987Y020387D01*
X029023Y020380D01*
Y020543D01*
D02*
G37*
G36*
X024947Y020710D02*
X024877Y020696D01*
X024819Y020657D01*
X024779Y020598D01*
X024765Y020528D01*
X024779Y020459D01*
X024819Y020400D01*
X024877Y020360D01*
X024947Y020347D01*
X025016Y020360D01*
X025075Y020400D01*
X025115Y020459D01*
X025129Y020528D01*
X025115Y020598D01*
X025075Y020657D01*
X025016Y020696D01*
X024947Y020710D01*
D02*
G37*
G36*
X023196Y021534D02*
X023048Y021519D01*
X022905Y021476D01*
X022773Y021405D01*
X022657Y021311D01*
X022562Y021195D01*
X022492Y021063D01*
X022449Y020920D01*
X022434Y020771D01*
X022449Y020623D01*
X022492Y020480D01*
X022562Y020348D01*
X022657Y020232D01*
X022773Y020137D01*
X022905Y020067D01*
X023048Y020024D01*
X023196Y020009D01*
X023345Y020024D01*
X023488Y020067D01*
X023620Y020137D01*
X023736Y020232D01*
X023830Y020348D01*
X023901Y020480D01*
X023944Y020623D01*
X023959Y020771D01*
X023944Y020920D01*
X023901Y021063D01*
X023830Y021195D01*
X023736Y021311D01*
X023620Y021405D01*
X023488Y021476D01*
X023345Y021519D01*
X023196Y021534D01*
D02*
G37*
G36*
X028633Y020302D02*
X028566Y020293D01*
X028504Y020267D01*
X028450Y020226D01*
X028417Y020183D01*
X028386Y020177D01*
X028381D01*
X028350Y020183D01*
X028317Y020226D01*
X028263Y020267D01*
X028201Y020293D01*
X028133Y020302D01*
X028066Y020293D01*
X028004Y020267D01*
X027950Y020226D01*
X027917Y020183D01*
X027886Y020177D01*
X027881D01*
X027850Y020183D01*
X027817Y020226D01*
X027763Y020267D01*
X027701Y020293D01*
X027633Y020302D01*
X027566Y020293D01*
X027504Y020267D01*
X027450Y020226D01*
X027449Y020225D01*
X027390Y020245D01*
Y020300D01*
X026877D01*
Y019786D01*
X027390D01*
Y019841D01*
X027449Y019861D01*
X027450Y019860D01*
X027504Y019819D01*
X027566Y019793D01*
X027633Y019784D01*
X027701Y019793D01*
X027763Y019819D01*
X027817Y019860D01*
X027850Y019903D01*
X027881Y019908D01*
X027886D01*
X027917Y019903D01*
X027950Y019860D01*
X028004Y019819D01*
X028066Y019793D01*
X028133Y019784D01*
X028201Y019793D01*
X028263Y019819D01*
X028317Y019860D01*
X028350Y019903D01*
X028381Y019908D01*
X028386D01*
X028417Y019903D01*
X028450Y019860D01*
X028504Y019819D01*
X028566Y019793D01*
X028633Y019784D01*
X028701Y019793D01*
X028763Y019819D01*
X028817Y019860D01*
X028858Y019913D01*
X028884Y019976D01*
X028893Y020043D01*
X028884Y020110D01*
X028858Y020172D01*
X028817Y020226D01*
X028763Y020267D01*
X028701Y020293D01*
X028633Y020302D01*
D02*
G37*
G36*
X026123Y020875D02*
X026087Y020868D01*
X026015Y020820D01*
X025967Y020748D01*
X025960Y020713D01*
X026123D01*
Y020875D01*
D02*
G37*
G36*
X026223D02*
Y020713D01*
X026385D01*
X026378Y020748D01*
X026330Y020820D01*
X026258Y020868D01*
X026223Y020875D01*
D02*
G37*
G36*
X026385Y020613D02*
X026223D01*
Y020450D01*
X026258Y020457D01*
X026330Y020505D01*
X026378Y020577D01*
X026385Y020613D01*
D02*
G37*
G36*
X026123D02*
X025960D01*
X025967Y020577D01*
X026015Y020505D01*
X026087Y020457D01*
X026123Y020450D01*
Y020613D01*
D02*
G37*
G36*
X029023Y020805D02*
X028987Y020798D01*
X028915Y020750D01*
X028867Y020678D01*
X028860Y020643D01*
X029023D01*
Y020805D01*
D02*
G37*
G36*
X029123D02*
Y020643D01*
X029285D01*
X029278Y020678D01*
X029230Y020750D01*
X029158Y020798D01*
X029123Y020805D01*
D02*
G37*
G36*
X027073Y023853D02*
X026910D01*
X026917Y023817D01*
X026965Y023745D01*
X027037Y023697D01*
X027073Y023690D01*
Y023853D01*
D02*
G37*
G36*
X027335D02*
X027173D01*
Y023690D01*
X027208Y023697D01*
X027280Y023745D01*
X027328Y023817D01*
X027335Y023853D01*
D02*
G37*
G36*
X027173Y024115D02*
Y023953D01*
X027335D01*
X027328Y023988D01*
X027280Y024060D01*
X027208Y024108D01*
X027173Y024115D01*
D02*
G37*
G36*
X027073D02*
X027037Y024108D01*
X026965Y024060D01*
X026917Y023988D01*
X026910Y023953D01*
X027073D01*
Y024115D01*
D02*
G37*
%LPD*%
D15*
X026383Y025543D02*
X026403Y025563D01*
X026353Y025513D02*
X026383Y025543D01*
X030086Y028756D02*
X030600Y028243D01*
X030000Y028843D02*
X030086Y028756D01*
X029203Y028713D02*
X029333Y028843D01*
X028773Y028283D02*
X029203Y028713D01*
X030151Y027611D02*
X030535Y027995D01*
X029993Y027453D02*
X030151Y027611D01*
X029213Y027593D02*
X029353Y027453D01*
X028803Y028003D02*
X029213Y027593D01*
X030106Y026926D02*
X030520Y026513D01*
X029970Y027063D02*
X030106Y026926D01*
X029210Y024270D02*
X029383Y024097D01*
X028723Y024757D02*
X029210Y024270D01*
X030094Y023614D02*
X030600Y023109D01*
X030000Y023709D02*
X030094Y023614D01*
X029206Y023590D02*
X029333Y023717D01*
X028773Y023157D02*
X029206Y023590D01*
X030151Y022478D02*
X030535Y022861D01*
X029993Y022319D02*
X030151Y022478D01*
X029215Y022465D02*
X029353Y022327D01*
X028803Y022877D02*
X029215Y022465D01*
X030099Y021799D02*
X030520Y021379D01*
X029970Y021929D02*
X030099Y021799D01*
X029950Y024097D02*
X030146Y024293D01*
X029383Y024097D02*
X029950D01*
X028723Y029883D02*
X029203Y029403D01*
X029383Y029223D01*
X027023Y025223D02*
X034103D01*
X026893Y025093D02*
X027023Y025223D01*
X030583Y025363D02*
X030823Y025603D01*
X025973Y025363D02*
X030583D01*
X030823Y025603D02*
X034573D01*
X026793Y025093D02*
X026893D01*
X025473Y024757D02*
X028723D01*
X030146Y024293D02*
X030612Y024759D01*
X033850D01*
X025853Y025483D02*
X025973Y025363D01*
X025583Y025483D02*
X025853D01*
X026403Y025563D02*
X029913D01*
X029923Y025573D02*
Y025583D01*
X029913Y025563D02*
X029923Y025573D01*
X026893Y025823D02*
X030383D01*
X026333Y025533D02*
Y025593D01*
Y025533D02*
X026353Y025513D01*
X026163Y026293D02*
X028803D01*
X029233Y026723D01*
X029423D01*
X030520Y021379D02*
X033915D01*
X033850Y024759D02*
X034336Y024273D01*
X030600Y023109D02*
X033862D01*
X034336Y023583D01*
X033948Y022861D02*
X034336Y022473D01*
X033915Y021379D02*
X034347Y021811D01*
X028777Y021378D02*
X029213Y021815D01*
X024993Y021777D02*
X025391Y021378D01*
X028777D01*
X025403Y022877D02*
X028803D01*
X025013Y024297D02*
X025473Y024757D01*
X024993Y023587D02*
X025423Y023157D01*
X028773D01*
X029333Y023717D02*
X030000D01*
X025013Y022487D02*
X025403Y022877D01*
X029353Y022327D02*
X029993D01*
X029335Y021937D02*
X029970D01*
X029213Y021815D02*
X029335Y021937D01*
X029213Y026941D02*
X029335Y027063D01*
X028785Y026513D02*
X029213Y026941D01*
X024993Y026903D02*
X025383Y026513D01*
X028785D01*
X029335Y027063D02*
X029970D01*
X030520Y026513D02*
X033915D01*
X034347Y026945D01*
X033948Y027995D02*
X034336Y027606D01*
X030535Y027995D02*
X033948D01*
X029353Y027453D02*
X029993D01*
X025403Y028003D02*
X028803D01*
X025013Y027613D02*
X025403Y028003D01*
X033862Y028243D02*
X034336Y028716D01*
X030600Y028243D02*
X033862D01*
X029333Y028843D02*
X030000D01*
X030146Y029426D02*
X030612Y029893D01*
X029942Y029223D02*
X030146Y029426D01*
X033850Y029893D02*
X034336Y029406D01*
X030612Y029893D02*
X033850D01*
X029383Y029223D02*
X029942D01*
X025473Y029883D02*
X028723D01*
X025013Y029423D02*
X025473Y029883D01*
X024993Y028713D02*
X025423Y028283D01*
X028773D01*
X030535Y022861D02*
X033948D01*
D20*
X029213Y024273D02*
D03*
Y023583D02*
D03*
Y022463D02*
D03*
X029203Y027583D02*
D03*
X029193Y028723D02*
D03*
X029203Y029403D02*
D03*
X034103Y025223D02*
D03*
X034573Y025603D02*
D03*
X026793Y025093D02*
D03*
X025583Y025483D02*
D03*
X029923Y025583D02*
D03*
X026333Y025593D02*
D03*
X026893Y025823D02*
D03*
X030383D02*
D03*
X026153Y026293D02*
D03*
X030113Y021813D02*
D03*
X030103Y023623D02*
D03*
X030113Y028783D02*
D03*
X030123Y026943D02*
D03*
X034336Y023583D02*
D03*
Y024273D02*
D03*
X030146Y022483D02*
D03*
Y024293D02*
D03*
X034347Y021811D02*
D03*
X034336Y022473D02*
D03*
X024993Y023587D02*
D03*
X025013Y024297D02*
D03*
Y022487D02*
D03*
X024993Y021777D02*
D03*
X029213Y021815D02*
D03*
X034336Y027606D02*
D03*
X034347Y026945D02*
D03*
X030146Y029426D02*
D03*
Y027616D02*
D03*
X034336Y029406D02*
D03*
Y028716D02*
D03*
X029213Y026941D02*
D03*
X029423Y026723D02*
D03*
X024993Y026903D02*
D03*
X025013Y027613D02*
D03*
Y029423D02*
D03*
X024993Y028713D02*
D03*
D21*
X030403Y030513D02*
D03*
X026193Y030753D02*
D03*
X027133Y029083D02*
D03*
Y027453D02*
D03*
X033203Y030743D02*
D03*
X032243Y029113D02*
D03*
X032251Y027523D02*
D03*
X033223Y020593D02*
D03*
X032252Y022173D02*
D03*
X032243Y023933D02*
D03*
X027133Y022273D02*
D03*
X027123Y023903D02*
D03*
X026173Y020663D02*
D03*
X023003Y028343D02*
D03*
X022983Y023043D02*
D03*
X036383Y028223D02*
D03*
X036393Y023153D02*
D03*
X030353Y020593D02*
D03*
X029073D02*
D03*
X029063Y030513D02*
D03*
M02*
