G04 Layer_Color=128*
%FSAX24Y24*%
%MOIN*%
G70*
G01*
G75*
%ADD39C,0.0020*%
D39*
X022567Y020771D02*
X023826D01*
X023196Y020141D02*
Y021401D01*
X035559Y020771D02*
X036818D01*
X036189Y020141D02*
Y021401D01*
X035559Y030496D02*
X036818D01*
X036189Y029866D02*
Y031126D01*
X022567Y030496D02*
X023826D01*
X023196Y029866D02*
Y031126D01*
X027015Y031204D02*
X027252D01*
X027133Y031086D02*
Y031322D01*
X027515Y031204D02*
X027752D01*
X027633Y031086D02*
Y031322D01*
X028015Y031204D02*
X028252D01*
X028133Y031086D02*
Y031322D01*
X028515Y031204D02*
X028752D01*
X028633Y031086D02*
Y031322D01*
X032133Y031204D02*
X032370D01*
X032252Y031086D02*
Y031322D01*
X031633Y031204D02*
X031870D01*
X031752Y031086D02*
Y031322D01*
X031133Y031204D02*
X031370D01*
X031252Y031086D02*
Y031322D01*
X030633Y031204D02*
X030870D01*
X030752Y031086D02*
Y031322D01*
X032133Y020043D02*
X032370D01*
X032252Y019925D02*
Y020161D01*
X031633Y020043D02*
X031870D01*
X031752Y019925D02*
Y020161D01*
X031133Y020043D02*
X031370D01*
X031252Y019925D02*
Y020161D01*
X030633Y020043D02*
X030870D01*
X030752Y019925D02*
Y020161D01*
X027015Y020043D02*
X027252D01*
X027133Y019925D02*
Y020161D01*
X027515Y020043D02*
X027752D01*
X027633Y019925D02*
Y020161D01*
X028015Y020043D02*
X028252D01*
X028133Y019925D02*
Y020161D01*
X028515Y020043D02*
X028752D01*
X028633Y019925D02*
Y020161D01*
X030713Y027440D02*
X030832D01*
X030773Y027381D02*
Y027499D01*
X030343Y030513D02*
X030462D01*
X030403Y030453D02*
Y030572D01*
X030763Y027103D02*
X030882D01*
X030823Y027043D02*
Y027162D01*
X029153Y024273D02*
X029272D01*
X029213Y024213D02*
Y024332D01*
X030753Y022333D02*
X030872D01*
X030813Y022273D02*
Y022392D01*
X029403Y023343D02*
X029522D01*
X029463Y023283D02*
Y023402D01*
X029153Y023583D02*
X029272D01*
X029213Y023523D02*
Y023642D01*
X029153Y022463D02*
X029272D01*
X029213Y022403D02*
Y022522D01*
X029143Y027583D02*
X029262D01*
X029203Y027523D02*
Y027642D01*
X029133Y028723D02*
X029252D01*
X029193Y028663D02*
Y028782D01*
X029423Y029643D02*
X029542D01*
X029483Y029583D02*
Y029702D01*
X029143Y029403D02*
X029262D01*
X029203Y029343D02*
Y029462D01*
X034043Y025223D02*
X034162D01*
X034103Y025163D02*
Y025282D01*
X034513Y025603D02*
X034632D01*
X034573Y025543D02*
Y025662D01*
X026733Y025093D02*
X026852D01*
X026793Y025033D02*
Y025152D01*
X025523Y025483D02*
X025642D01*
X025583Y025423D02*
Y025542D01*
X024723Y024463D02*
X024842D01*
X024783Y024403D02*
Y024522D01*
X029863Y025583D02*
X029982D01*
X029923Y025523D02*
Y025642D01*
X026273Y025593D02*
X026392D01*
X026333Y025533D02*
Y025652D01*
X026833Y025823D02*
X026952D01*
X026893Y025763D02*
Y025882D01*
X030323Y025823D02*
X030442D01*
X030383Y025763D02*
Y025882D01*
X026413Y026053D02*
X026532D01*
X026473Y025993D02*
Y026112D01*
X026093Y026293D02*
X026212D01*
X026153Y026233D02*
Y026352D01*
X030787Y021603D02*
X030905D01*
X030846Y021544D02*
Y021662D01*
X034429Y024521D02*
X034548D01*
X034488Y024461D02*
Y024580D01*
X034287Y023923D02*
X034405D01*
X034346Y023864D02*
Y023982D01*
X034429Y026695D02*
X034548D01*
X034488Y026636D02*
Y026754D01*
X030053Y021813D02*
X030172D01*
X030113Y021753D02*
Y021872D01*
X030043Y023623D02*
X030162D01*
X030103Y023563D02*
Y023682D01*
X030053Y028783D02*
X030172D01*
X030113Y028723D02*
Y028842D01*
X030063Y026943D02*
X030182D01*
X030123Y026883D02*
Y027002D01*
X034497Y021593D02*
X034615D01*
X034556Y021534D02*
Y021652D01*
X034277Y023583D02*
X034395D01*
X034336Y023524D02*
Y023642D01*
X034497Y023393D02*
X034615D01*
X034556Y023334D02*
Y023452D01*
X034277Y024273D02*
X034395D01*
X034336Y024214D02*
Y024332D01*
X029857Y021583D02*
X029975D01*
X029916Y021524D02*
Y021642D01*
X029847Y022653D02*
X029965D01*
X029906Y022594D02*
Y022712D01*
X030057Y022123D02*
X030175D01*
X030116Y022064D02*
Y022182D01*
X030087Y022483D02*
X030205D01*
X030146Y022424D02*
Y022542D01*
X030087Y024293D02*
X030205D01*
X030146Y024234D02*
Y024352D01*
X030057Y023933D02*
X030175D01*
X030116Y023874D02*
Y023992D01*
X030787Y024463D02*
X030905D01*
X030846Y024404D02*
Y024522D01*
X033587Y023393D02*
X033705D01*
X033646Y023334D02*
Y023452D01*
X030787Y023393D02*
X030905D01*
X030846Y023334D02*
Y023452D01*
X029847Y024463D02*
X029965D01*
X029906Y024404D02*
Y024522D01*
X029857Y023393D02*
X029975D01*
X029916Y023334D02*
Y023452D01*
X030811Y022643D02*
X030929D01*
X030870Y022584D02*
Y022702D01*
X030763Y021969D02*
X030882D01*
X030823Y021910D02*
Y022028D01*
X033587Y021603D02*
X033705D01*
X033646Y021544D02*
Y021662D01*
X033657Y021943D02*
X033775D01*
X033716Y021884D02*
Y022002D01*
X034487Y022663D02*
X034605D01*
X034546Y022604D02*
Y022722D01*
X034288Y021811D02*
X034406D01*
X034347Y021752D02*
Y021870D01*
X034277Y022473D02*
X034395D01*
X034336Y022414D02*
Y022532D01*
X034287Y022123D02*
X034405D01*
X034346Y022064D02*
Y022182D01*
X033587Y022643D02*
X033705D01*
X033646Y022584D02*
Y022702D01*
X033615Y022321D02*
X033733D01*
X033674Y022262D02*
Y022380D01*
X033593Y023749D02*
X033712D01*
X033653Y023690D02*
Y023808D01*
X033587Y024463D02*
X033705D01*
X033646Y024404D02*
Y024522D01*
X033603Y024089D02*
X033722D01*
X033663Y024030D02*
Y024148D01*
X030787Y024103D02*
X030905D01*
X030846Y024044D02*
Y024162D01*
X030787Y023743D02*
X030905D01*
X030846Y023684D02*
Y023802D01*
X028473Y024093D02*
X028592D01*
X028533Y024033D02*
Y024152D01*
X028463Y023753D02*
X028582D01*
X028523Y023693D02*
Y023812D01*
X028483Y022333D02*
X028602D01*
X028543Y022273D02*
Y022392D01*
X028503Y021983D02*
X028622D01*
X028563Y021923D02*
Y022042D01*
X028463Y021597D02*
X028582D01*
X028523Y021537D02*
Y021656D01*
X028453Y022647D02*
X028572D01*
X028513Y022587D02*
Y022706D01*
X025633Y022307D02*
X025752D01*
X025693Y022247D02*
Y022366D01*
X025633Y021973D02*
X025752D01*
X025693Y021913D02*
Y022032D01*
X025653Y021607D02*
X025772D01*
X025713Y021547D02*
Y021666D01*
X025677Y022647D02*
X025795D01*
X025736Y022587D02*
Y022706D01*
X024933Y023587D02*
X025052D01*
X024993Y023527D02*
Y023646D01*
X024723Y023397D02*
X024842D01*
X024783Y023337D02*
Y023456D01*
X025653Y023397D02*
X025772D01*
X025713Y023337D02*
Y023456D01*
X028453Y023397D02*
X028572D01*
X028513Y023337D02*
Y023456D01*
X025653Y024107D02*
X025772D01*
X025713Y024047D02*
Y024166D01*
X024923Y023937D02*
X025042D01*
X024983Y023877D02*
Y023996D01*
X025653Y023747D02*
X025772D01*
X025713Y023687D02*
Y023806D01*
X024953Y024297D02*
X025072D01*
X025013Y024237D02*
Y024356D01*
X024953Y022487D02*
X025072D01*
X025013Y022427D02*
Y022546D01*
X024713Y022657D02*
X024832D01*
X024773Y022597D02*
Y022716D01*
X024933Y021777D02*
X025052D01*
X024993Y021717D02*
Y021836D01*
X024723Y021587D02*
X024842D01*
X024783Y021527D02*
Y021646D01*
X029393Y024503D02*
X029512D01*
X029453Y024443D02*
Y024562D01*
X029153Y023927D02*
X029272D01*
X029213Y023867D02*
Y023986D01*
X029383Y022703D02*
X029502D01*
X029443Y022643D02*
Y022762D01*
X029363Y021597D02*
X029482D01*
X029423Y021537D02*
Y021656D01*
X029153Y022127D02*
X029272D01*
X029213Y022067D02*
Y022186D01*
X029154Y021815D02*
X029272D01*
X029213Y021756D02*
Y021874D01*
X028453Y024467D02*
X028572D01*
X028513Y024407D02*
Y024526D01*
X025653Y024467D02*
X025772D01*
X025713Y024407D02*
Y024526D01*
X024923Y022127D02*
X025042D01*
X024983Y022067D02*
Y022186D01*
X024923Y027253D02*
X025042D01*
X024983Y027193D02*
Y027312D01*
X028453Y026733D02*
X028572D01*
X028513Y026673D02*
Y026792D01*
X030787Y028876D02*
X030905D01*
X030846Y028817D02*
Y028936D01*
X030787Y029236D02*
X030905D01*
X030846Y029177D02*
Y029296D01*
X033603Y029223D02*
X033722D01*
X033663Y029163D02*
Y029282D01*
X033587Y029596D02*
X033705D01*
X033646Y029537D02*
Y029656D01*
X025653Y029593D02*
X025772D01*
X025713Y029533D02*
Y029652D01*
X028453Y029593D02*
X028572D01*
X028513Y029533D02*
Y029652D01*
X033593Y028883D02*
X033712D01*
X033653Y028823D02*
Y028942D01*
X033615Y027455D02*
X033733D01*
X033674Y027395D02*
Y027514D01*
X033587Y027776D02*
X033705D01*
X033646Y027717D02*
Y027836D01*
X034287Y027256D02*
X034405D01*
X034346Y027197D02*
Y027316D01*
X034277Y027606D02*
X034395D01*
X034336Y027547D02*
Y027666D01*
X034288Y026945D02*
X034406D01*
X034347Y026886D02*
Y027004D01*
X034487Y027796D02*
X034605D01*
X034546Y027737D02*
Y027856D01*
X033657Y027076D02*
X033775D01*
X033716Y027017D02*
Y027136D01*
X033587Y026736D02*
X033705D01*
X033646Y026677D02*
Y026796D01*
X030787Y026736D02*
X030905D01*
X030846Y026677D02*
Y026796D01*
X030811Y027776D02*
X030929D01*
X030870Y027717D02*
Y027836D01*
X029857Y028526D02*
X029975D01*
X029916Y028467D02*
Y028586D01*
X029847Y029596D02*
X029965D01*
X029906Y029537D02*
Y029656D01*
X030787Y028526D02*
X030905D01*
X030846Y028467D02*
Y028586D01*
X033587Y028526D02*
X033705D01*
X033646Y028467D02*
Y028586D01*
X030787Y029596D02*
X030905D01*
X030846Y029537D02*
Y029656D01*
X030057Y029066D02*
X030175D01*
X030116Y029007D02*
Y029126D01*
X030087Y029426D02*
X030205D01*
X030146Y029367D02*
Y029486D01*
X030087Y027616D02*
X030205D01*
X030146Y027557D02*
Y027676D01*
X030057Y027256D02*
X030175D01*
X030116Y027197D02*
Y027316D01*
X029847Y027786D02*
X029965D01*
X029906Y027727D02*
Y027846D01*
X029857Y026716D02*
X029975D01*
X029916Y026657D02*
Y026776D01*
X034277Y029406D02*
X034395D01*
X034336Y029347D02*
Y029466D01*
X034487Y029596D02*
X034605D01*
X034546Y029537D02*
Y029656D01*
X034497Y028526D02*
X034615D01*
X034556Y028467D02*
Y028586D01*
X034287Y029056D02*
X034405D01*
X034346Y028997D02*
Y029116D01*
X034277Y028716D02*
X034395D01*
X034336Y028657D02*
Y028776D01*
X028453Y027773D02*
X028572D01*
X028513Y027713D02*
Y027832D01*
X028463Y027433D02*
X028582D01*
X028523Y027373D02*
Y027492D01*
X028483Y027113D02*
X028602D01*
X028543Y027053D02*
Y027172D01*
X029154Y026941D02*
X029272D01*
X029213Y026882D02*
Y027000D01*
X029153Y027253D02*
X029272D01*
X029213Y027193D02*
Y027312D01*
X029363Y026723D02*
X029482D01*
X029423Y026663D02*
Y026782D01*
X029383Y027823D02*
X029502D01*
X029443Y027763D02*
Y027882D01*
X029153Y029053D02*
X029272D01*
X029213Y028993D02*
Y029112D01*
X029363Y028523D02*
X029482D01*
X029423Y028463D02*
Y028582D01*
X024723Y026713D02*
X024842D01*
X024783Y026653D02*
Y026772D01*
X024933Y026903D02*
X025052D01*
X024993Y026843D02*
Y026962D01*
X024713Y027783D02*
X024832D01*
X024773Y027723D02*
Y027842D01*
X024953Y027613D02*
X025072D01*
X025013Y027553D02*
Y027672D01*
X024953Y029423D02*
X025072D01*
X025013Y029363D02*
Y029482D01*
X025653Y028873D02*
X025772D01*
X025713Y028813D02*
Y028932D01*
X024923Y029063D02*
X025042D01*
X024983Y029003D02*
Y029122D01*
X025677Y027773D02*
X025795D01*
X025736Y027713D02*
Y027832D01*
X028453Y029233D02*
X028572D01*
X028513Y029173D02*
Y029292D01*
X028453Y028873D02*
X028572D01*
X028513Y028813D02*
Y028932D01*
X025653Y029233D02*
X025772D01*
X025713Y029173D02*
Y029292D01*
X028453Y028523D02*
X028572D01*
X028513Y028463D02*
Y028582D01*
X025653Y028523D02*
X025772D01*
X025713Y028463D02*
Y028582D01*
X025653Y026733D02*
X025772D01*
X025713Y026673D02*
Y026792D01*
X025653Y027103D02*
X025772D01*
X025713Y027043D02*
Y027162D01*
X025653Y027443D02*
X025772D01*
X025713Y027383D02*
Y027502D01*
X024713Y029593D02*
X024832D01*
X024773Y029533D02*
Y029652D01*
X024723Y028523D02*
X024842D01*
X024783Y028463D02*
Y028582D01*
X024933Y028713D02*
X025052D01*
X024993Y028653D02*
Y028772D01*
X026133Y030753D02*
X026252D01*
X026193Y030693D02*
Y030812D01*
X027074Y029083D02*
X027193D01*
X027133Y029023D02*
Y029142D01*
X027074Y027453D02*
X027193D01*
X027133Y027393D02*
Y027512D01*
X033143Y030743D02*
X033262D01*
X033203Y030683D02*
Y030802D01*
X032183Y029113D02*
X032302D01*
X032243Y029053D02*
Y029172D01*
X032192Y027523D02*
X032310D01*
X032251Y027463D02*
Y027582D01*
X024848Y030687D02*
X024966D01*
X024907Y030628D02*
Y030746D01*
X034419Y030707D02*
X034537D01*
X034478Y030648D02*
Y030766D01*
X034439Y020468D02*
X034557D01*
X034498Y020409D02*
Y020527D01*
X033163Y020593D02*
X033282D01*
X033223Y020533D02*
Y020652D01*
X032193Y022173D02*
X032311D01*
X032252Y022113D02*
Y022232D01*
X032183Y023933D02*
X032302D01*
X032243Y023873D02*
Y023992D01*
X027074Y022273D02*
X027193D01*
X027133Y022213D02*
Y022332D01*
X027063Y023903D02*
X027182D01*
X027123Y023843D02*
Y023962D01*
X024888Y020528D02*
X025006D01*
X024947Y020469D02*
Y020587D01*
X026113Y020663D02*
X026232D01*
X026173Y020603D02*
Y020722D01*
X022943Y028343D02*
X023062D01*
X023003Y028283D02*
Y028402D01*
X022923Y023043D02*
X023042D01*
X022983Y022983D02*
Y023102D01*
X036323Y028223D02*
X036442D01*
X036383Y028163D02*
Y028282D01*
X036333Y023153D02*
X036452D01*
X036393Y023093D02*
Y023212D01*
X030293Y020593D02*
X030412D01*
X030353Y020533D02*
Y020652D01*
X029013Y020593D02*
X029132D01*
X029073Y020533D02*
Y020652D01*
X029003Y030513D02*
X029122D01*
X029063Y030453D02*
Y030572D01*
M02*
