M48
;Layer_Color=9474304
;FILE_FORMAT=2:4
INCH,LZ
;TYPE=PLATED
T1F00S00C0.0118
T2F00S00C0.0236
T3F00S00C0.1260
;TYPE=NON_PLATED
T4F00S00C0.1260
%
T01
X00353Y-005037
X004806Y-005162
X004864Y-004037
X004655Y-003819
X004654Y-003507
X004644Y-003157
X004854Y-002967
X004864Y-002237
X004644Y-002047
X004654Y-001707
X004644Y-001357
X004796Y-001109
X003954Y-001167
X00397Y-001541
X00396Y-001881
X003954Y-002237
Y-002987
X003982Y-003309
X004024Y-003687
X003954Y-004027
X002559Y-003457
X00255Y-001697
X00441Y-000407
X00488Y-000027
X004796Y001065
X004655Y001315
X004654Y001626
X004644Y001976
X004854Y002166
X004864Y002896
X004644Y003086
X004654Y003426
X004644Y003776
X004854Y003966
X003954
X00397Y003593
X00396Y003253
X003954Y002896
Y002146
X003982Y001825
X004024Y001446
X003954Y001106
X002559Y001893
X00255Y003483
X00351Y005113
X004786Y005077
X00669Y002593
X0067Y-002477
X001154Y-002237
Y-001887
Y-001527
Y-001167
X000454Y-001337
X000424Y-001697
X00041Y-002007
X000224Y-002237
X-00023Y-002287
X-00048Y-002047
Y-001703
Y-001357
X-00024Y-001127
X000214Y-001167
X00023Y-000047
X00069Y000193
X000224Y001086
X00043Y001313
X000424Y001626
X000454Y001986
X000214Y002156
X-00025Y002193
X-00049Y001953
X-00048Y001623
X-000479Y001311
X-00027Y001093
X-00118Y001103
X-00115Y001483
X-00117Y001803
X-00118Y002143
Y002893
Y003243
Y003603
Y003963
X-00049Y003773
X-00048Y003423
X-0005Y003093
X-00027Y002893
X000224Y002896
X00042Y003153
X000424Y003436
X000454Y003796
X000214Y003966
X-00021Y004013
X-00063Y004883
X00071
X001154Y003966
Y003606
Y003246
Y002896
X001177Y002146
X00108Y00181
X00113Y001473
X001154Y001106
X001177Y-002987
X00112Y-003297
X00113Y-003661
X001154Y-004027
X00042Y-003817
X000424Y-003507
X000454Y-003147
X000214Y-002977
X-00025Y-002927
X-00048Y-003167
Y-003503
X-000479Y-003815
X-00027Y-004033
X000224Y-004047
X-00117Y-004033
X-00113Y-003647
X-00115Y-003297
X-00118Y-002983
Y-002233
X-00117Y-001877
X-00116Y-001537
X-00118Y-001163
X-00257Y-001727
X-0029Y-000537
X-0028Y000193
X-00322Y000423
X-00354Y000663
X-00336Y-000037
X-00411Y-000147
X-00398Y-001163
Y-001523
Y-001883
Y-002233
X-003956Y-002983
X-004Y-003323
X-004Y-003657
X-00398Y-004023
X-0047Y-003853
X-00471Y-003503
X-00468Y-003143
X-00492Y-002973
X-00491Y-002233
X-0047Y-002043
X-00471Y-001693
X-00468Y-001333
X-00491Y-001167
Y001083
X-0047Y001273
X-00471Y001623
X-00468Y001983
X-00492Y002153
X-00491Y002893
X-0047Y003083
X-00471Y003433
X-00468Y003793
X-00492Y003963
X-00398
Y003603
Y003243
Y002893
X-003956Y002143
X-00398Y001813
Y001473
Y001103
X-002559Y001823
Y003453
X-0035Y005123
X-004786Y005057
X-00669Y002713
X-00671Y-002587
X-00491Y-004043
X-004746Y-005102
X-00352Y-004967
X-002559Y-003357
X-00062Y-005037
X00066
T02
X001559Y-005587
X002059
X002559
Y005574
X002059
X001559
X001059
X-001059
X-001559
X-002059
X-002559
Y-005587
X-002059
X-001559
X-001059
X001059
T03
X-006496Y-004859
T04
X006496Y-004859
Y004866
X-006496
M30
