G04 Layer_Color=32896*
%FSAX24Y24*%
%MOIN*%
G70*
G01*
G75*
%ADD16C,0.0100*%
D16*
X022238Y023470D02*
Y027915D01*
Y023470D02*
X024548D01*
Y027915D01*
X022238D02*
X024548D01*
X037147Y023470D02*
Y027915D01*
X034837D02*
X037147D01*
X034837Y023470D02*
Y027915D01*
Y023470D02*
X037147D01*
X022288Y022518D02*
Y022618D01*
X022488Y022818D01*
X022688Y022618D01*
Y022518D01*
X022488Y022818D02*
Y023118D01*
X022888Y022518D02*
Y023118D01*
X023188D01*
X023288Y023018D01*
Y022918D01*
X023188Y022818D01*
X022888D01*
X023188D01*
X023288Y022718D01*
Y022618D01*
X023188Y022518D01*
X022888D01*
X023588Y023118D02*
X023788D01*
X023888Y023018D01*
Y022818D01*
X023788Y022718D01*
X023588D01*
X023488Y022818D01*
Y023018D01*
X023588Y023118D01*
X024188Y022618D02*
Y022718D01*
X024088D01*
X024288D01*
X024188D01*
Y023018D01*
X024288Y023118D01*
X037097Y028867D02*
X036697Y028268D01*
Y028867D02*
X037097Y028268D01*
X036497Y028867D02*
Y028268D01*
X036197D01*
X036097Y028367D01*
Y028467D01*
X036197Y028567D01*
X036497D01*
X036197D01*
X036097Y028667D01*
Y028767D01*
X036197Y028867D01*
X036497D01*
X035797Y028268D02*
X035597D01*
X035497Y028367D01*
Y028567D01*
X035597Y028667D01*
X035797D01*
X035897Y028567D01*
Y028367D01*
X035797Y028268D01*
X035197Y028767D02*
Y028667D01*
X035297D01*
X035097D01*
X035197D01*
Y028367D01*
X035097Y028268D01*
M02*
