G04 Layer_Color=2752767*
%FSAX24Y24*%
%MOIN*%
G70*
G01*
G75*
%ADD39C,0.0020*%
%ADD40C,0.0027*%
D39*
X023116Y020691D02*
Y020851D01*
X023276D01*
Y020691D01*
X023116D01*
X027133Y031124D02*
X027053Y031284D01*
X027213D01*
X027133Y031124D01*
X027633D02*
X027553Y031284D01*
X027713D01*
X027633Y031124D01*
X028133D02*
X028053Y031284D01*
X028213D01*
X028133Y031124D01*
X028633D02*
X028553Y031284D01*
X028713D01*
X028633Y031124D01*
X032252D02*
X032172Y031284D01*
X032332D01*
X032252Y031124D01*
X031752D02*
X031672Y031284D01*
X031832D01*
X031752Y031124D01*
X031252D02*
X031172Y031284D01*
X031332D01*
X031252Y031124D01*
X030752D02*
X030672Y031284D01*
X030832D01*
X030752Y031124D01*
X032252Y019963D02*
X032172Y020123D01*
X032332D01*
X032252Y019963D01*
X031752D02*
X031672Y020123D01*
X031832D01*
X031752Y019963D01*
X031252D02*
X031172Y020123D01*
X031332D01*
X031252Y019963D01*
X030752D02*
X030672Y020123D01*
X030832D01*
X030752Y019963D01*
X027133D02*
X027053Y020123D01*
X027213D01*
X027133Y019963D01*
X027633D02*
X027553Y020123D01*
X027713D01*
X027633Y019963D01*
X028133D02*
X028053Y020123D01*
X028213D01*
X028133Y019963D01*
X028633D02*
X028553Y020123D01*
X028713D01*
X028633Y019963D01*
X030773Y027360D02*
X030813Y027400D01*
X030853D01*
X030813Y027440D01*
X030853Y027480D01*
X030813D01*
X030773Y027520D01*
X030733Y027480D01*
X030693D01*
X030733Y027440D01*
X030693Y027400D01*
X030733D01*
X030773Y027360D01*
X030403Y030433D02*
X030443Y030473D01*
X030483D01*
X030443Y030513D01*
X030483Y030553D01*
X030443D01*
X030403Y030593D01*
X030363Y030553D01*
X030323D01*
X030363Y030513D01*
X030323Y030473D01*
X030363D01*
X030403Y030433D01*
X030823Y027023D02*
X030863Y027063D01*
X030903D01*
X030863Y027103D01*
X030903Y027143D01*
X030863D01*
X030823Y027183D01*
X030783Y027143D01*
X030743D01*
X030783Y027103D01*
X030743Y027063D01*
X030783D01*
X030823Y027023D01*
X029213Y024193D02*
X029253Y024233D01*
X029293D01*
X029253Y024273D01*
X029293Y024313D01*
X029253D01*
X029213Y024353D01*
X029173Y024313D01*
X029133D01*
X029173Y024273D01*
X029133Y024233D01*
X029173D01*
X029213Y024193D01*
X030813Y022253D02*
X030853Y022293D01*
X030893D01*
X030853Y022333D01*
X030893Y022373D01*
X030853D01*
X030813Y022413D01*
X030773Y022373D01*
X030733D01*
X030773Y022333D01*
X030733Y022293D01*
X030773D01*
X030813Y022253D01*
X029463Y023263D02*
X029503Y023303D01*
X029543D01*
X029503Y023343D01*
X029543Y023383D01*
X029503D01*
X029463Y023423D01*
X029423Y023383D01*
X029383D01*
X029423Y023343D01*
X029383Y023303D01*
X029423D01*
X029463Y023263D01*
X029213Y023503D02*
X029253Y023543D01*
X029293D01*
X029253Y023583D01*
X029293Y023623D01*
X029253D01*
X029213Y023663D01*
X029173Y023623D01*
X029133D01*
X029173Y023583D01*
X029133Y023543D01*
X029173D01*
X029213Y023503D01*
Y022383D02*
X029253Y022423D01*
X029293D01*
X029253Y022463D01*
X029293Y022503D01*
X029253D01*
X029213Y022543D01*
X029173Y022503D01*
X029133D01*
X029173Y022463D01*
X029133Y022423D01*
X029173D01*
X029213Y022383D01*
X029203Y027503D02*
X029243Y027543D01*
X029283D01*
X029243Y027583D01*
X029283Y027623D01*
X029243D01*
X029203Y027663D01*
X029163Y027623D01*
X029123D01*
X029163Y027583D01*
X029123Y027543D01*
X029163D01*
X029203Y027503D01*
X029193Y028643D02*
X029233Y028683D01*
X029273D01*
X029233Y028723D01*
X029273Y028763D01*
X029233D01*
X029193Y028803D01*
X029153Y028763D01*
X029113D01*
X029153Y028723D01*
X029113Y028683D01*
X029153D01*
X029193Y028643D01*
X029483Y029563D02*
X029523Y029603D01*
X029563D01*
X029523Y029643D01*
X029563Y029683D01*
X029523D01*
X029483Y029723D01*
X029443Y029683D01*
X029403D01*
X029443Y029643D01*
X029403Y029603D01*
X029443D01*
X029483Y029563D01*
X029203Y029323D02*
X029243Y029363D01*
X029283D01*
X029243Y029403D01*
X029283Y029443D01*
X029243D01*
X029203Y029483D01*
X029163Y029443D01*
X029123D01*
X029163Y029403D01*
X029123Y029363D01*
X029163D01*
X029203Y029323D01*
X034103Y025143D02*
X034143Y025183D01*
X034183D01*
X034143Y025223D01*
X034183Y025263D01*
X034143D01*
X034103Y025303D01*
X034063Y025263D01*
X034023D01*
X034063Y025223D01*
X034023Y025183D01*
X034063D01*
X034103Y025143D01*
X034573Y025523D02*
X034613Y025563D01*
X034653D01*
X034613Y025603D01*
X034653Y025643D01*
X034613D01*
X034573Y025683D01*
X034533Y025643D01*
X034493D01*
X034533Y025603D01*
X034493Y025563D01*
X034533D01*
X034573Y025523D01*
X026793Y025013D02*
X026833Y025053D01*
X026873D01*
X026833Y025093D01*
X026873Y025133D01*
X026833D01*
X026793Y025173D01*
X026753Y025133D01*
X026713D01*
X026753Y025093D01*
X026713Y025053D01*
X026753D01*
X026793Y025013D01*
X025583Y025403D02*
X025623Y025443D01*
X025663D01*
X025623Y025483D01*
X025663Y025523D01*
X025623D01*
X025583Y025563D01*
X025543Y025523D01*
X025503D01*
X025543Y025483D01*
X025503Y025443D01*
X025543D01*
X025583Y025403D01*
X024783Y024383D02*
X024823Y024423D01*
X024863D01*
X024823Y024463D01*
X024863Y024503D01*
X024823D01*
X024783Y024543D01*
X024743Y024503D01*
X024703D01*
X024743Y024463D01*
X024703Y024423D01*
X024743D01*
X024783Y024383D01*
X029923Y025503D02*
X029963Y025543D01*
X030003D01*
X029963Y025583D01*
X030003Y025623D01*
X029963D01*
X029923Y025663D01*
X029883Y025623D01*
X029843D01*
X029883Y025583D01*
X029843Y025543D01*
X029883D01*
X029923Y025503D01*
X026333Y025513D02*
X026373Y025553D01*
X026413D01*
X026373Y025593D01*
X026413Y025633D01*
X026373D01*
X026333Y025673D01*
X026293Y025633D01*
X026253D01*
X026293Y025593D01*
X026253Y025553D01*
X026293D01*
X026333Y025513D01*
X026893Y025743D02*
X026933Y025783D01*
X026973D01*
X026933Y025823D01*
X026973Y025863D01*
X026933D01*
X026893Y025903D01*
X026853Y025863D01*
X026813D01*
X026853Y025823D01*
X026813Y025783D01*
X026853D01*
X026893Y025743D01*
X030383D02*
X030423Y025783D01*
X030463D01*
X030423Y025823D01*
X030463Y025863D01*
X030423D01*
X030383Y025903D01*
X030343Y025863D01*
X030303D01*
X030343Y025823D01*
X030303Y025783D01*
X030343D01*
X030383Y025743D01*
X026473Y025973D02*
X026513Y026013D01*
X026553D01*
X026513Y026053D01*
X026553Y026093D01*
X026513D01*
X026473Y026133D01*
X026433Y026093D01*
X026393D01*
X026433Y026053D01*
X026393Y026013D01*
X026433D01*
X026473Y025973D01*
X026153Y026213D02*
X026193Y026253D01*
X026233D01*
X026193Y026293D01*
X026233Y026333D01*
X026193D01*
X026153Y026373D01*
X026113Y026333D01*
X026073D01*
X026113Y026293D01*
X026073Y026253D01*
X026113D01*
X026153Y026213D01*
X030846Y021523D02*
X030886Y021563D01*
X030926D01*
X030886Y021603D01*
X030926Y021643D01*
X030886D01*
X030846Y021683D01*
X030806Y021643D01*
X030766D01*
X030806Y021603D01*
X030766Y021563D01*
X030806D01*
X030846Y021523D01*
X034488Y024441D02*
X034528Y024481D01*
X034568D01*
X034528Y024521D01*
X034568Y024561D01*
X034528D01*
X034488Y024601D01*
X034448Y024561D01*
X034408D01*
X034448Y024521D01*
X034408Y024481D01*
X034448D01*
X034488Y024441D01*
X034346Y023843D02*
X034386Y023883D01*
X034426D01*
X034386Y023923D01*
X034426Y023963D01*
X034386D01*
X034346Y024003D01*
X034306Y023963D01*
X034266D01*
X034306Y023923D01*
X034266Y023883D01*
X034306D01*
X034346Y023843D01*
X034488Y026615D02*
X034528Y026655D01*
X034568D01*
X034528Y026695D01*
X034568Y026735D01*
X034528D01*
X034488Y026775D01*
X034448Y026735D01*
X034408D01*
X034448Y026695D01*
X034408Y026655D01*
X034448D01*
X034488Y026615D01*
X030113Y021733D02*
X030153Y021773D01*
X030193D01*
X030153Y021813D01*
X030193Y021853D01*
X030153D01*
X030113Y021893D01*
X030073Y021853D01*
X030033D01*
X030073Y021813D01*
X030033Y021773D01*
X030073D01*
X030113Y021733D01*
X030103Y023543D02*
X030143Y023583D01*
X030183D01*
X030143Y023623D01*
X030183Y023663D01*
X030143D01*
X030103Y023703D01*
X030063Y023663D01*
X030023D01*
X030063Y023623D01*
X030023Y023583D01*
X030063D01*
X030103Y023543D01*
X030113Y028703D02*
X030153Y028743D01*
X030193D01*
X030153Y028783D01*
X030193Y028823D01*
X030153D01*
X030113Y028863D01*
X030073Y028823D01*
X030033D01*
X030073Y028783D01*
X030033Y028743D01*
X030073D01*
X030113Y028703D01*
X030123Y026863D02*
X030163Y026903D01*
X030203D01*
X030163Y026943D01*
X030203Y026983D01*
X030163D01*
X030123Y027023D01*
X030083Y026983D01*
X030043D01*
X030083Y026943D01*
X030043Y026903D01*
X030083D01*
X030123Y026863D01*
X034556Y021513D02*
X034596Y021553D01*
X034636D01*
X034596Y021593D01*
X034636Y021633D01*
X034596D01*
X034556Y021673D01*
X034516Y021633D01*
X034476D01*
X034516Y021593D01*
X034476Y021553D01*
X034516D01*
X034556Y021513D01*
X034336Y023503D02*
X034376Y023543D01*
X034416D01*
X034376Y023583D01*
X034416Y023623D01*
X034376D01*
X034336Y023663D01*
X034296Y023623D01*
X034256D01*
X034296Y023583D01*
X034256Y023543D01*
X034296D01*
X034336Y023503D01*
X034556Y023313D02*
X034596Y023353D01*
X034636D01*
X034596Y023393D01*
X034636Y023433D01*
X034596D01*
X034556Y023473D01*
X034516Y023433D01*
X034476D01*
X034516Y023393D01*
X034476Y023353D01*
X034516D01*
X034556Y023313D01*
X034336Y024193D02*
X034376Y024233D01*
X034416D01*
X034376Y024273D01*
X034416Y024313D01*
X034376D01*
X034336Y024353D01*
X034296Y024313D01*
X034256D01*
X034296Y024273D01*
X034256Y024233D01*
X034296D01*
X034336Y024193D01*
X029916Y021503D02*
X029956Y021543D01*
X029996D01*
X029956Y021583D01*
X029996Y021623D01*
X029956D01*
X029916Y021663D01*
X029876Y021623D01*
X029836D01*
X029876Y021583D01*
X029836Y021543D01*
X029876D01*
X029916Y021503D01*
X029906Y022573D02*
X029946Y022613D01*
X029986D01*
X029946Y022653D01*
X029986Y022693D01*
X029946D01*
X029906Y022733D01*
X029866Y022693D01*
X029826D01*
X029866Y022653D01*
X029826Y022613D01*
X029866D01*
X029906Y022573D01*
X030116Y022043D02*
X030156Y022083D01*
X030196D01*
X030156Y022123D01*
X030196Y022163D01*
X030156D01*
X030116Y022203D01*
X030076Y022163D01*
X030036D01*
X030076Y022123D01*
X030036Y022083D01*
X030076D01*
X030116Y022043D01*
X030146Y022403D02*
X030186Y022443D01*
X030226D01*
X030186Y022483D01*
X030226Y022523D01*
X030186D01*
X030146Y022563D01*
X030106Y022523D01*
X030066D01*
X030106Y022483D01*
X030066Y022443D01*
X030106D01*
X030146Y022403D01*
Y024213D02*
X030186Y024253D01*
X030226D01*
X030186Y024293D01*
X030226Y024333D01*
X030186D01*
X030146Y024373D01*
X030106Y024333D01*
X030066D01*
X030106Y024293D01*
X030066Y024253D01*
X030106D01*
X030146Y024213D01*
X030116Y023853D02*
X030156Y023893D01*
X030196D01*
X030156Y023933D01*
X030196Y023973D01*
X030156D01*
X030116Y024013D01*
X030076Y023973D01*
X030036D01*
X030076Y023933D01*
X030036Y023893D01*
X030076D01*
X030116Y023853D01*
X030846Y024383D02*
X030886Y024423D01*
X030926D01*
X030886Y024463D01*
X030926Y024503D01*
X030886D01*
X030846Y024543D01*
X030806Y024503D01*
X030766D01*
X030806Y024463D01*
X030766Y024423D01*
X030806D01*
X030846Y024383D01*
X033646Y023313D02*
X033686Y023353D01*
X033726D01*
X033686Y023393D01*
X033726Y023433D01*
X033686D01*
X033646Y023473D01*
X033606Y023433D01*
X033566D01*
X033606Y023393D01*
X033566Y023353D01*
X033606D01*
X033646Y023313D01*
X030846D02*
X030886Y023353D01*
X030926D01*
X030886Y023393D01*
X030926Y023433D01*
X030886D01*
X030846Y023473D01*
X030806Y023433D01*
X030766D01*
X030806Y023393D01*
X030766Y023353D01*
X030806D01*
X030846Y023313D01*
X029906Y024383D02*
X029946Y024423D01*
X029986D01*
X029946Y024463D01*
X029986Y024503D01*
X029946D01*
X029906Y024543D01*
X029866Y024503D01*
X029826D01*
X029866Y024463D01*
X029826Y024423D01*
X029866D01*
X029906Y024383D01*
X029916Y023313D02*
X029956Y023353D01*
X029996D01*
X029956Y023393D01*
X029996Y023433D01*
X029956D01*
X029916Y023473D01*
X029876Y023433D01*
X029836D01*
X029876Y023393D01*
X029836Y023353D01*
X029876D01*
X029916Y023313D01*
X030870Y022563D02*
X030910Y022603D01*
X030950D01*
X030910Y022643D01*
X030950Y022683D01*
X030910D01*
X030870Y022723D01*
X030830Y022683D01*
X030790D01*
X030830Y022643D01*
X030790Y022603D01*
X030830D01*
X030870Y022563D01*
X030823Y021889D02*
X030863Y021929D01*
X030903D01*
X030863Y021969D01*
X030903Y022009D01*
X030863D01*
X030823Y022049D01*
X030783Y022009D01*
X030743D01*
X030783Y021969D01*
X030743Y021929D01*
X030783D01*
X030823Y021889D01*
X033646Y021523D02*
X033686Y021563D01*
X033726D01*
X033686Y021603D01*
X033726Y021643D01*
X033686D01*
X033646Y021683D01*
X033606Y021643D01*
X033566D01*
X033606Y021603D01*
X033566Y021563D01*
X033606D01*
X033646Y021523D01*
X033716Y021863D02*
X033756Y021903D01*
X033796D01*
X033756Y021943D01*
X033796Y021983D01*
X033756D01*
X033716Y022023D01*
X033676Y021983D01*
X033636D01*
X033676Y021943D01*
X033636Y021903D01*
X033676D01*
X033716Y021863D01*
X034546Y022583D02*
X034586Y022623D01*
X034626D01*
X034586Y022663D01*
X034626Y022703D01*
X034586D01*
X034546Y022743D01*
X034506Y022703D01*
X034466D01*
X034506Y022663D01*
X034466Y022623D01*
X034506D01*
X034546Y022583D01*
X034347Y021731D02*
X034387Y021771D01*
X034427D01*
X034387Y021811D01*
X034427Y021851D01*
X034387D01*
X034347Y021891D01*
X034307Y021851D01*
X034267D01*
X034307Y021811D01*
X034267Y021771D01*
X034307D01*
X034347Y021731D01*
X034336Y022393D02*
X034376Y022433D01*
X034416D01*
X034376Y022473D01*
X034416Y022513D01*
X034376D01*
X034336Y022553D01*
X034296Y022513D01*
X034256D01*
X034296Y022473D01*
X034256Y022433D01*
X034296D01*
X034336Y022393D01*
X034346Y022043D02*
X034386Y022083D01*
X034426D01*
X034386Y022123D01*
X034426Y022163D01*
X034386D01*
X034346Y022203D01*
X034306Y022163D01*
X034266D01*
X034306Y022123D01*
X034266Y022083D01*
X034306D01*
X034346Y022043D01*
X033646Y022563D02*
X033686Y022603D01*
X033726D01*
X033686Y022643D01*
X033726Y022683D01*
X033686D01*
X033646Y022723D01*
X033606Y022683D01*
X033566D01*
X033606Y022643D01*
X033566Y022603D01*
X033606D01*
X033646Y022563D01*
X033674Y022241D02*
X033714Y022281D01*
X033754D01*
X033714Y022321D01*
X033754Y022361D01*
X033714D01*
X033674Y022401D01*
X033634Y022361D01*
X033594D01*
X033634Y022321D01*
X033594Y022281D01*
X033634D01*
X033674Y022241D01*
X033653Y023669D02*
X033693Y023709D01*
X033733D01*
X033693Y023749D01*
X033733Y023789D01*
X033693D01*
X033653Y023829D01*
X033613Y023789D01*
X033573D01*
X033613Y023749D01*
X033573Y023709D01*
X033613D01*
X033653Y023669D01*
X033646Y024383D02*
X033686Y024423D01*
X033726D01*
X033686Y024463D01*
X033726Y024503D01*
X033686D01*
X033646Y024543D01*
X033606Y024503D01*
X033566D01*
X033606Y024463D01*
X033566Y024423D01*
X033606D01*
X033646Y024383D01*
X033663Y024009D02*
X033703Y024049D01*
X033743D01*
X033703Y024089D01*
X033743Y024129D01*
X033703D01*
X033663Y024169D01*
X033623Y024129D01*
X033583D01*
X033623Y024089D01*
X033583Y024049D01*
X033623D01*
X033663Y024009D01*
X030846Y024023D02*
X030886Y024063D01*
X030926D01*
X030886Y024103D01*
X030926Y024143D01*
X030886D01*
X030846Y024183D01*
X030806Y024143D01*
X030766D01*
X030806Y024103D01*
X030766Y024063D01*
X030806D01*
X030846Y024023D01*
Y023663D02*
X030886Y023703D01*
X030926D01*
X030886Y023743D01*
X030926Y023783D01*
X030886D01*
X030846Y023823D01*
X030806Y023783D01*
X030766D01*
X030806Y023743D01*
X030766Y023703D01*
X030806D01*
X030846Y023663D01*
X028533Y024013D02*
X028573Y024053D01*
X028613D01*
X028573Y024093D01*
X028613Y024133D01*
X028573D01*
X028533Y024173D01*
X028493Y024133D01*
X028453D01*
X028493Y024093D01*
X028453Y024053D01*
X028493D01*
X028533Y024013D01*
X028523Y023673D02*
X028563Y023713D01*
X028603D01*
X028563Y023753D01*
X028603Y023793D01*
X028563D01*
X028523Y023833D01*
X028483Y023793D01*
X028443D01*
X028483Y023753D01*
X028443Y023713D01*
X028483D01*
X028523Y023673D01*
X028543Y022253D02*
X028583Y022293D01*
X028623D01*
X028583Y022333D01*
X028623Y022373D01*
X028583D01*
X028543Y022413D01*
X028503Y022373D01*
X028463D01*
X028503Y022333D01*
X028463Y022293D01*
X028503D01*
X028543Y022253D01*
X028563Y021903D02*
X028603Y021943D01*
X028643D01*
X028603Y021983D01*
X028643Y022023D01*
X028603D01*
X028563Y022063D01*
X028523Y022023D01*
X028483D01*
X028523Y021983D01*
X028483Y021943D01*
X028523D01*
X028563Y021903D01*
X028523Y021517D02*
X028563Y021557D01*
X028603D01*
X028563Y021597D01*
X028603Y021637D01*
X028563D01*
X028523Y021677D01*
X028483Y021637D01*
X028443D01*
X028483Y021597D01*
X028443Y021557D01*
X028483D01*
X028523Y021517D01*
X028513Y022567D02*
X028553Y022607D01*
X028593D01*
X028553Y022647D01*
X028593Y022687D01*
X028553D01*
X028513Y022727D01*
X028473Y022687D01*
X028433D01*
X028473Y022647D01*
X028433Y022607D01*
X028473D01*
X028513Y022567D01*
X025693Y022227D02*
X025733Y022267D01*
X025773D01*
X025733Y022307D01*
X025773Y022347D01*
X025733D01*
X025693Y022387D01*
X025653Y022347D01*
X025613D01*
X025653Y022307D01*
X025613Y022267D01*
X025653D01*
X025693Y022227D01*
X025693Y021893D02*
X025733Y021933D01*
X025773D01*
X025733Y021973D01*
X025773Y022013D01*
X025733D01*
X025693Y022053D01*
X025653Y022013D01*
X025613D01*
X025653Y021973D01*
X025613Y021933D01*
X025653D01*
X025693Y021893D01*
X025713Y021527D02*
X025753Y021567D01*
X025793D01*
X025753Y021607D01*
X025793Y021647D01*
X025753D01*
X025713Y021687D01*
X025673Y021647D01*
X025633D01*
X025673Y021607D01*
X025633Y021567D01*
X025673D01*
X025713Y021527D01*
X025736Y022567D02*
X025776Y022607D01*
X025816D01*
X025776Y022647D01*
X025816Y022687D01*
X025776D01*
X025736Y022727D01*
X025696Y022687D01*
X025656D01*
X025696Y022647D01*
X025656Y022607D01*
X025696D01*
X025736Y022567D01*
X024993Y023507D02*
X025033Y023547D01*
X025073D01*
X025033Y023587D01*
X025073Y023627D01*
X025033D01*
X024993Y023667D01*
X024953Y023627D01*
X024913D01*
X024953Y023587D01*
X024913Y023547D01*
X024953D01*
X024993Y023507D01*
X024783Y023317D02*
X024823Y023357D01*
X024863D01*
X024823Y023397D01*
X024863Y023437D01*
X024823D01*
X024783Y023477D01*
X024743Y023437D01*
X024703D01*
X024743Y023397D01*
X024703Y023357D01*
X024743D01*
X024783Y023317D01*
X025713D02*
X025753Y023357D01*
X025793D01*
X025753Y023397D01*
X025793Y023437D01*
X025753D01*
X025713Y023477D01*
X025673Y023437D01*
X025633D01*
X025673Y023397D01*
X025633Y023357D01*
X025673D01*
X025713Y023317D01*
X028513D02*
X028553Y023357D01*
X028593D01*
X028553Y023397D01*
X028593Y023437D01*
X028553D01*
X028513Y023477D01*
X028473Y023437D01*
X028433D01*
X028473Y023397D01*
X028433Y023357D01*
X028473D01*
X028513Y023317D01*
X025713Y024027D02*
X025753Y024067D01*
X025793D01*
X025753Y024107D01*
X025793Y024147D01*
X025753D01*
X025713Y024187D01*
X025673Y024147D01*
X025633D01*
X025673Y024107D01*
X025633Y024067D01*
X025673D01*
X025713Y024027D01*
X024983Y023857D02*
X025023Y023897D01*
X025063D01*
X025023Y023937D01*
X025063Y023977D01*
X025023D01*
X024983Y024017D01*
X024943Y023977D01*
X024903D01*
X024943Y023937D01*
X024903Y023897D01*
X024943D01*
X024983Y023857D01*
X025713Y023667D02*
X025753Y023707D01*
X025793D01*
X025753Y023747D01*
X025793Y023787D01*
X025753D01*
X025713Y023827D01*
X025673Y023787D01*
X025633D01*
X025673Y023747D01*
X025633Y023707D01*
X025673D01*
X025713Y023667D01*
X025013Y024217D02*
X025053Y024257D01*
X025093D01*
X025053Y024297D01*
X025093Y024337D01*
X025053D01*
X025013Y024377D01*
X024973Y024337D01*
X024933D01*
X024973Y024297D01*
X024933Y024257D01*
X024973D01*
X025013Y024217D01*
Y022407D02*
X025053Y022447D01*
X025093D01*
X025053Y022487D01*
X025093Y022527D01*
X025053D01*
X025013Y022567D01*
X024973Y022527D01*
X024933D01*
X024973Y022487D01*
X024933Y022447D01*
X024973D01*
X025013Y022407D01*
X024773Y022577D02*
X024813Y022617D01*
X024853D01*
X024813Y022657D01*
X024853Y022697D01*
X024813D01*
X024773Y022737D01*
X024733Y022697D01*
X024693D01*
X024733Y022657D01*
X024693Y022617D01*
X024733D01*
X024773Y022577D01*
X024993Y021697D02*
X025033Y021737D01*
X025073D01*
X025033Y021777D01*
X025073Y021817D01*
X025033D01*
X024993Y021857D01*
X024953Y021817D01*
X024913D01*
X024953Y021777D01*
X024913Y021737D01*
X024953D01*
X024993Y021697D01*
X024783Y021507D02*
X024823Y021547D01*
X024863D01*
X024823Y021587D01*
X024863Y021627D01*
X024823D01*
X024783Y021667D01*
X024743Y021627D01*
X024703D01*
X024743Y021587D01*
X024703Y021547D01*
X024743D01*
X024783Y021507D01*
X029453Y024423D02*
X029493Y024463D01*
X029533D01*
X029493Y024503D01*
X029533Y024543D01*
X029493D01*
X029453Y024583D01*
X029413Y024543D01*
X029373D01*
X029413Y024503D01*
X029373Y024463D01*
X029413D01*
X029453Y024423D01*
X029213Y023847D02*
X029253Y023887D01*
X029293D01*
X029253Y023927D01*
X029293Y023967D01*
X029253D01*
X029213Y024007D01*
X029173Y023967D01*
X029133D01*
X029173Y023927D01*
X029133Y023887D01*
X029173D01*
X029213Y023847D01*
X029443Y022623D02*
X029483Y022663D01*
X029523D01*
X029483Y022703D01*
X029523Y022743D01*
X029483D01*
X029443Y022783D01*
X029403Y022743D01*
X029363D01*
X029403Y022703D01*
X029363Y022663D01*
X029403D01*
X029443Y022623D01*
X029423Y021517D02*
X029463Y021557D01*
X029503D01*
X029463Y021597D01*
X029503Y021637D01*
X029463D01*
X029423Y021677D01*
X029383Y021637D01*
X029343D01*
X029383Y021597D01*
X029343Y021557D01*
X029383D01*
X029423Y021517D01*
X029213Y022047D02*
X029253Y022087D01*
X029293D01*
X029253Y022127D01*
X029293Y022167D01*
X029253D01*
X029213Y022207D01*
X029173Y022167D01*
X029133D01*
X029173Y022127D01*
X029133Y022087D01*
X029173D01*
X029213Y022047D01*
X029213Y021735D02*
X029253Y021775D01*
X029293D01*
X029253Y021815D01*
X029293Y021855D01*
X029253D01*
X029213Y021895D01*
X029173Y021855D01*
X029133D01*
X029173Y021815D01*
X029133Y021775D01*
X029173D01*
X029213Y021735D01*
X028513Y024387D02*
X028553Y024427D01*
X028593D01*
X028553Y024467D01*
X028593Y024507D01*
X028553D01*
X028513Y024547D01*
X028473Y024507D01*
X028433D01*
X028473Y024467D01*
X028433Y024427D01*
X028473D01*
X028513Y024387D01*
X025713D02*
X025753Y024427D01*
X025793D01*
X025753Y024467D01*
X025793Y024507D01*
X025753D01*
X025713Y024547D01*
X025673Y024507D01*
X025633D01*
X025673Y024467D01*
X025633Y024427D01*
X025673D01*
X025713Y024387D01*
X024983Y022047D02*
X025023Y022087D01*
X025063D01*
X025023Y022127D01*
X025063Y022167D01*
X025023D01*
X024983Y022207D01*
X024943Y022167D01*
X024903D01*
X024943Y022127D01*
X024903Y022087D01*
X024943D01*
X024983Y022047D01*
Y027173D02*
X025023Y027213D01*
X025063D01*
X025023Y027253D01*
X025063Y027293D01*
X025023D01*
X024983Y027333D01*
X024943Y027293D01*
X024903D01*
X024943Y027253D01*
X024903Y027213D01*
X024943D01*
X024983Y027173D01*
X028513Y026653D02*
X028553Y026693D01*
X028593D01*
X028553Y026733D01*
X028593Y026773D01*
X028553D01*
X028513Y026813D01*
X028473Y026773D01*
X028433D01*
X028473Y026733D01*
X028433Y026693D01*
X028473D01*
X028513Y026653D01*
X030846Y028796D02*
X030886Y028836D01*
X030926D01*
X030886Y028876D01*
X030926Y028916D01*
X030886D01*
X030846Y028956D01*
X030806Y028916D01*
X030766D01*
X030806Y028876D01*
X030766Y028836D01*
X030806D01*
X030846Y028796D01*
Y029156D02*
X030886Y029196D01*
X030926D01*
X030886Y029236D01*
X030926Y029276D01*
X030886D01*
X030846Y029316D01*
X030806Y029276D01*
X030766D01*
X030806Y029236D01*
X030766Y029196D01*
X030806D01*
X030846Y029156D01*
X033663Y029143D02*
X033703Y029183D01*
X033743D01*
X033703Y029223D01*
X033743Y029263D01*
X033703D01*
X033663Y029303D01*
X033623Y029263D01*
X033583D01*
X033623Y029223D01*
X033583Y029183D01*
X033623D01*
X033663Y029143D01*
X033646Y029516D02*
X033686Y029556D01*
X033726D01*
X033686Y029596D01*
X033726Y029636D01*
X033686D01*
X033646Y029676D01*
X033606Y029636D01*
X033566D01*
X033606Y029596D01*
X033566Y029556D01*
X033606D01*
X033646Y029516D01*
X025713Y029513D02*
X025753Y029553D01*
X025793D01*
X025753Y029593D01*
X025793Y029633D01*
X025753D01*
X025713Y029673D01*
X025673Y029633D01*
X025633D01*
X025673Y029593D01*
X025633Y029553D01*
X025673D01*
X025713Y029513D01*
X028513D02*
X028553Y029553D01*
X028593D01*
X028553Y029593D01*
X028593Y029633D01*
X028553D01*
X028513Y029673D01*
X028473Y029633D01*
X028433D01*
X028473Y029593D01*
X028433Y029553D01*
X028473D01*
X028513Y029513D01*
X033653Y028803D02*
X033693Y028843D01*
X033733D01*
X033693Y028883D01*
X033733Y028923D01*
X033693D01*
X033653Y028963D01*
X033613Y028923D01*
X033573D01*
X033613Y028883D01*
X033573Y028843D01*
X033613D01*
X033653Y028803D01*
X033674Y027375D02*
X033714Y027415D01*
X033754D01*
X033714Y027455D01*
X033754Y027495D01*
X033714D01*
X033674Y027535D01*
X033634Y027495D01*
X033594D01*
X033634Y027455D01*
X033594Y027415D01*
X033634D01*
X033674Y027375D01*
X033646Y027696D02*
X033686Y027736D01*
X033726D01*
X033686Y027776D01*
X033726Y027816D01*
X033686D01*
X033646Y027856D01*
X033606Y027816D01*
X033566D01*
X033606Y027776D01*
X033566Y027736D01*
X033606D01*
X033646Y027696D01*
X034346Y027176D02*
X034386Y027216D01*
X034426D01*
X034386Y027256D01*
X034426Y027296D01*
X034386D01*
X034346Y027336D01*
X034306Y027296D01*
X034266D01*
X034306Y027256D01*
X034266Y027216D01*
X034306D01*
X034346Y027176D01*
X034336Y027526D02*
X034376Y027566D01*
X034416D01*
X034376Y027606D01*
X034416Y027646D01*
X034376D01*
X034336Y027686D01*
X034296Y027646D01*
X034256D01*
X034296Y027606D01*
X034256Y027566D01*
X034296D01*
X034336Y027526D01*
X034347Y026865D02*
X034387Y026905D01*
X034427D01*
X034387Y026945D01*
X034427Y026985D01*
X034387D01*
X034347Y027025D01*
X034307Y026985D01*
X034267D01*
X034307Y026945D01*
X034267Y026905D01*
X034307D01*
X034347Y026865D01*
X034546Y027716D02*
X034586Y027756D01*
X034626D01*
X034586Y027796D01*
X034626Y027836D01*
X034586D01*
X034546Y027876D01*
X034506Y027836D01*
X034466D01*
X034506Y027796D01*
X034466Y027756D01*
X034506D01*
X034546Y027716D01*
X033716Y026996D02*
X033756Y027036D01*
X033796D01*
X033756Y027076D01*
X033796Y027116D01*
X033756D01*
X033716Y027156D01*
X033676Y027116D01*
X033636D01*
X033676Y027076D01*
X033636Y027036D01*
X033676D01*
X033716Y026996D01*
X033646Y026656D02*
X033686Y026696D01*
X033726D01*
X033686Y026736D01*
X033726Y026776D01*
X033686D01*
X033646Y026816D01*
X033606Y026776D01*
X033566D01*
X033606Y026736D01*
X033566Y026696D01*
X033606D01*
X033646Y026656D01*
X030846D02*
X030886Y026696D01*
X030926D01*
X030886Y026736D01*
X030926Y026776D01*
X030886D01*
X030846Y026816D01*
X030806Y026776D01*
X030766D01*
X030806Y026736D01*
X030766Y026696D01*
X030806D01*
X030846Y026656D01*
X030870Y027696D02*
X030910Y027736D01*
X030950D01*
X030910Y027776D01*
X030950Y027816D01*
X030910D01*
X030870Y027856D01*
X030830Y027816D01*
X030790D01*
X030830Y027776D01*
X030790Y027736D01*
X030830D01*
X030870Y027696D01*
X029916Y028446D02*
X029956Y028486D01*
X029996D01*
X029956Y028526D01*
X029996Y028566D01*
X029956D01*
X029916Y028606D01*
X029876Y028566D01*
X029836D01*
X029876Y028526D01*
X029836Y028486D01*
X029876D01*
X029916Y028446D01*
X029906Y029516D02*
X029946Y029556D01*
X029986D01*
X029946Y029596D01*
X029986Y029636D01*
X029946D01*
X029906Y029676D01*
X029866Y029636D01*
X029826D01*
X029866Y029596D01*
X029826Y029556D01*
X029866D01*
X029906Y029516D01*
X030846Y028446D02*
X030886Y028486D01*
X030926D01*
X030886Y028526D01*
X030926Y028566D01*
X030886D01*
X030846Y028606D01*
X030806Y028566D01*
X030766D01*
X030806Y028526D01*
X030766Y028486D01*
X030806D01*
X030846Y028446D01*
X033646D02*
X033686Y028486D01*
X033726D01*
X033686Y028526D01*
X033726Y028566D01*
X033686D01*
X033646Y028606D01*
X033606Y028566D01*
X033566D01*
X033606Y028526D01*
X033566Y028486D01*
X033606D01*
X033646Y028446D01*
X030846Y029516D02*
X030886Y029556D01*
X030926D01*
X030886Y029596D01*
X030926Y029636D01*
X030886D01*
X030846Y029676D01*
X030806Y029636D01*
X030766D01*
X030806Y029596D01*
X030766Y029556D01*
X030806D01*
X030846Y029516D01*
X030116Y028986D02*
X030156Y029026D01*
X030196D01*
X030156Y029066D01*
X030196Y029106D01*
X030156D01*
X030116Y029146D01*
X030076Y029106D01*
X030036D01*
X030076Y029066D01*
X030036Y029026D01*
X030076D01*
X030116Y028986D01*
X030146Y029346D02*
X030186Y029386D01*
X030226D01*
X030186Y029426D01*
X030226Y029466D01*
X030186D01*
X030146Y029506D01*
X030106Y029466D01*
X030066D01*
X030106Y029426D01*
X030066Y029386D01*
X030106D01*
X030146Y029346D01*
Y027536D02*
X030186Y027576D01*
X030226D01*
X030186Y027616D01*
X030226Y027656D01*
X030186D01*
X030146Y027696D01*
X030106Y027656D01*
X030066D01*
X030106Y027616D01*
X030066Y027576D01*
X030106D01*
X030146Y027536D01*
X030116Y027176D02*
X030156Y027216D01*
X030196D01*
X030156Y027256D01*
X030196Y027296D01*
X030156D01*
X030116Y027336D01*
X030076Y027296D01*
X030036D01*
X030076Y027256D01*
X030036Y027216D01*
X030076D01*
X030116Y027176D01*
X029906Y027706D02*
X029946Y027746D01*
X029986D01*
X029946Y027786D01*
X029986Y027826D01*
X029946D01*
X029906Y027866D01*
X029866Y027826D01*
X029826D01*
X029866Y027786D01*
X029826Y027746D01*
X029866D01*
X029906Y027706D01*
X029916Y026636D02*
X029956Y026676D01*
X029996D01*
X029956Y026716D01*
X029996Y026756D01*
X029956D01*
X029916Y026796D01*
X029876Y026756D01*
X029836D01*
X029876Y026716D01*
X029836Y026676D01*
X029876D01*
X029916Y026636D01*
X034336Y029326D02*
X034376Y029366D01*
X034416D01*
X034376Y029406D01*
X034416Y029446D01*
X034376D01*
X034336Y029486D01*
X034296Y029446D01*
X034256D01*
X034296Y029406D01*
X034256Y029366D01*
X034296D01*
X034336Y029326D01*
X034546Y029516D02*
X034586Y029556D01*
X034626D01*
X034586Y029596D01*
X034626Y029636D01*
X034586D01*
X034546Y029676D01*
X034506Y029636D01*
X034466D01*
X034506Y029596D01*
X034466Y029556D01*
X034506D01*
X034546Y029516D01*
X034556Y028446D02*
X034596Y028486D01*
X034636D01*
X034596Y028526D01*
X034636Y028566D01*
X034596D01*
X034556Y028606D01*
X034516Y028566D01*
X034476D01*
X034516Y028526D01*
X034476Y028486D01*
X034516D01*
X034556Y028446D01*
X034346Y028976D02*
X034386Y029016D01*
X034426D01*
X034386Y029056D01*
X034426Y029096D01*
X034386D01*
X034346Y029136D01*
X034306Y029096D01*
X034266D01*
X034306Y029056D01*
X034266Y029016D01*
X034306D01*
X034346Y028976D01*
X034336Y028636D02*
X034376Y028676D01*
X034416D01*
X034376Y028716D01*
X034416Y028756D01*
X034376D01*
X034336Y028796D01*
X034296Y028756D01*
X034256D01*
X034296Y028716D01*
X034256Y028676D01*
X034296D01*
X034336Y028636D01*
X028513Y027693D02*
X028553Y027733D01*
X028593D01*
X028553Y027773D01*
X028593Y027813D01*
X028553D01*
X028513Y027853D01*
X028473Y027813D01*
X028433D01*
X028473Y027773D01*
X028433Y027733D01*
X028473D01*
X028513Y027693D01*
X028523Y027353D02*
X028563Y027393D01*
X028603D01*
X028563Y027433D01*
X028603Y027473D01*
X028563D01*
X028523Y027513D01*
X028483Y027473D01*
X028443D01*
X028483Y027433D01*
X028443Y027393D01*
X028483D01*
X028523Y027353D01*
X028543Y027033D02*
X028583Y027073D01*
X028623D01*
X028583Y027113D01*
X028623Y027153D01*
X028583D01*
X028543Y027193D01*
X028503Y027153D01*
X028463D01*
X028503Y027113D01*
X028463Y027073D01*
X028503D01*
X028543Y027033D01*
X029213Y026861D02*
X029253Y026901D01*
X029293D01*
X029253Y026941D01*
X029293Y026981D01*
X029253D01*
X029213Y027021D01*
X029173Y026981D01*
X029133D01*
X029173Y026941D01*
X029133Y026901D01*
X029173D01*
X029213Y026861D01*
X029213Y027173D02*
X029253Y027213D01*
X029293D01*
X029253Y027253D01*
X029293Y027293D01*
X029253D01*
X029213Y027333D01*
X029173Y027293D01*
X029133D01*
X029173Y027253D01*
X029133Y027213D01*
X029173D01*
X029213Y027173D01*
X029423Y026643D02*
X029463Y026683D01*
X029503D01*
X029463Y026723D01*
X029503Y026763D01*
X029463D01*
X029423Y026803D01*
X029383Y026763D01*
X029343D01*
X029383Y026723D01*
X029343Y026683D01*
X029383D01*
X029423Y026643D01*
X029443Y027743D02*
X029483Y027783D01*
X029523D01*
X029483Y027823D01*
X029523Y027863D01*
X029483D01*
X029443Y027903D01*
X029403Y027863D01*
X029363D01*
X029403Y027823D01*
X029363Y027783D01*
X029403D01*
X029443Y027743D01*
X029213Y028973D02*
X029253Y029013D01*
X029293D01*
X029253Y029053D01*
X029293Y029093D01*
X029253D01*
X029213Y029133D01*
X029173Y029093D01*
X029133D01*
X029173Y029053D01*
X029133Y029013D01*
X029173D01*
X029213Y028973D01*
X029423Y028443D02*
X029463Y028483D01*
X029503D01*
X029463Y028523D01*
X029503Y028563D01*
X029463D01*
X029423Y028603D01*
X029383Y028563D01*
X029343D01*
X029383Y028523D01*
X029343Y028483D01*
X029383D01*
X029423Y028443D01*
X024783Y026633D02*
X024823Y026673D01*
X024863D01*
X024823Y026713D01*
X024863Y026753D01*
X024823D01*
X024783Y026793D01*
X024743Y026753D01*
X024703D01*
X024743Y026713D01*
X024703Y026673D01*
X024743D01*
X024783Y026633D01*
X024993Y026823D02*
X025033Y026863D01*
X025073D01*
X025033Y026903D01*
X025073Y026943D01*
X025033D01*
X024993Y026983D01*
X024953Y026943D01*
X024913D01*
X024953Y026903D01*
X024913Y026863D01*
X024953D01*
X024993Y026823D01*
X024773Y027703D02*
X024813Y027743D01*
X024853D01*
X024813Y027783D01*
X024853Y027823D01*
X024813D01*
X024773Y027863D01*
X024733Y027823D01*
X024693D01*
X024733Y027783D01*
X024693Y027743D01*
X024733D01*
X024773Y027703D01*
X025013Y027533D02*
X025053Y027573D01*
X025093D01*
X025053Y027613D01*
X025093Y027653D01*
X025053D01*
X025013Y027693D01*
X024973Y027653D01*
X024933D01*
X024973Y027613D01*
X024933Y027573D01*
X024973D01*
X025013Y027533D01*
Y029343D02*
X025053Y029383D01*
X025093D01*
X025053Y029423D01*
X025093Y029463D01*
X025053D01*
X025013Y029503D01*
X024973Y029463D01*
X024933D01*
X024973Y029423D01*
X024933Y029383D01*
X024973D01*
X025013Y029343D01*
X025713Y028793D02*
X025753Y028833D01*
X025793D01*
X025753Y028873D01*
X025793Y028913D01*
X025753D01*
X025713Y028953D01*
X025673Y028913D01*
X025633D01*
X025673Y028873D01*
X025633Y028833D01*
X025673D01*
X025713Y028793D01*
X024983Y028983D02*
X025023Y029023D01*
X025063D01*
X025023Y029063D01*
X025063Y029103D01*
X025023D01*
X024983Y029143D01*
X024943Y029103D01*
X024903D01*
X024943Y029063D01*
X024903Y029023D01*
X024943D01*
X024983Y028983D01*
X025736Y027693D02*
X025776Y027733D01*
X025816D01*
X025776Y027773D01*
X025816Y027813D01*
X025776D01*
X025736Y027853D01*
X025696Y027813D01*
X025656D01*
X025696Y027773D01*
X025656Y027733D01*
X025696D01*
X025736Y027693D01*
X028513Y029153D02*
X028553Y029193D01*
X028593D01*
X028553Y029233D01*
X028593Y029273D01*
X028553D01*
X028513Y029313D01*
X028473Y029273D01*
X028433D01*
X028473Y029233D01*
X028433Y029193D01*
X028473D01*
X028513Y029153D01*
Y028793D02*
X028553Y028833D01*
X028593D01*
X028553Y028873D01*
X028593Y028913D01*
X028553D01*
X028513Y028953D01*
X028473Y028913D01*
X028433D01*
X028473Y028873D01*
X028433Y028833D01*
X028473D01*
X028513Y028793D01*
X025713Y029153D02*
X025753Y029193D01*
X025793D01*
X025753Y029233D01*
X025793Y029273D01*
X025753D01*
X025713Y029313D01*
X025673Y029273D01*
X025633D01*
X025673Y029233D01*
X025633Y029193D01*
X025673D01*
X025713Y029153D01*
X028513Y028443D02*
X028553Y028483D01*
X028593D01*
X028553Y028523D01*
X028593Y028563D01*
X028553D01*
X028513Y028603D01*
X028473Y028563D01*
X028433D01*
X028473Y028523D01*
X028433Y028483D01*
X028473D01*
X028513Y028443D01*
X025713D02*
X025753Y028483D01*
X025793D01*
X025753Y028523D01*
X025793Y028563D01*
X025753D01*
X025713Y028603D01*
X025673Y028563D01*
X025633D01*
X025673Y028523D01*
X025633Y028483D01*
X025673D01*
X025713Y028443D01*
Y026653D02*
X025753Y026693D01*
X025793D01*
X025753Y026733D01*
X025793Y026773D01*
X025753D01*
X025713Y026813D01*
X025673Y026773D01*
X025633D01*
X025673Y026733D01*
X025633Y026693D01*
X025673D01*
X025713Y026653D01*
Y027023D02*
X025753Y027063D01*
X025793D01*
X025753Y027103D01*
X025793Y027143D01*
X025753D01*
X025713Y027183D01*
X025673Y027143D01*
X025633D01*
X025673Y027103D01*
X025633Y027063D01*
X025673D01*
X025713Y027023D01*
Y027363D02*
X025753Y027403D01*
X025793D01*
X025753Y027443D01*
X025793Y027483D01*
X025753D01*
X025713Y027523D01*
X025673Y027483D01*
X025633D01*
X025673Y027443D01*
X025633Y027403D01*
X025673D01*
X025713Y027363D01*
X024773Y029513D02*
X024813Y029553D01*
X024853D01*
X024813Y029593D01*
X024853Y029633D01*
X024813D01*
X024773Y029673D01*
X024733Y029633D01*
X024693D01*
X024733Y029593D01*
X024693Y029553D01*
X024733D01*
X024773Y029513D01*
X024783Y028443D02*
X024823Y028483D01*
X024863D01*
X024823Y028523D01*
X024863Y028563D01*
X024823D01*
X024783Y028603D01*
X024743Y028563D01*
X024703D01*
X024743Y028523D01*
X024703Y028483D01*
X024743D01*
X024783Y028443D01*
X024993Y028633D02*
X025033Y028673D01*
X025073D01*
X025033Y028713D01*
X025073Y028753D01*
X025033D01*
X024993Y028793D01*
X024953Y028753D01*
X024913D01*
X024953Y028713D01*
X024913Y028673D01*
X024953D01*
X024993Y028633D01*
X026193Y030673D02*
X026233Y030713D01*
X026273D01*
X026233Y030753D01*
X026273Y030793D01*
X026233D01*
X026193Y030833D01*
X026153Y030793D01*
X026113D01*
X026153Y030753D01*
X026113Y030713D01*
X026153D01*
X026193Y030673D01*
X027133Y029003D02*
X027173Y029043D01*
X027213D01*
X027173Y029083D01*
X027213Y029123D01*
X027173D01*
X027133Y029163D01*
X027093Y029123D01*
X027053D01*
X027093Y029083D01*
X027053Y029043D01*
X027093D01*
X027133Y029003D01*
Y027373D02*
X027173Y027413D01*
X027213D01*
X027173Y027453D01*
X027213Y027493D01*
X027173D01*
X027133Y027533D01*
X027093Y027493D01*
X027053D01*
X027093Y027453D01*
X027053Y027413D01*
X027093D01*
X027133Y027373D01*
X033203Y030663D02*
X033243Y030703D01*
X033283D01*
X033243Y030743D01*
X033283Y030783D01*
X033243D01*
X033203Y030823D01*
X033163Y030783D01*
X033123D01*
X033163Y030743D01*
X033123Y030703D01*
X033163D01*
X033203Y030663D01*
X032243Y029033D02*
X032283Y029073D01*
X032323D01*
X032283Y029113D01*
X032323Y029153D01*
X032283D01*
X032243Y029193D01*
X032203Y029153D01*
X032163D01*
X032203Y029113D01*
X032163Y029073D01*
X032203D01*
X032243Y029033D01*
X032251Y027443D02*
X032291Y027483D01*
X032331D01*
X032291Y027523D01*
X032331Y027563D01*
X032291D01*
X032251Y027603D01*
X032211Y027563D01*
X032171D01*
X032211Y027523D01*
X032171Y027483D01*
X032211D01*
X032251Y027443D01*
X024907Y030607D02*
X024947Y030647D01*
X024987D01*
X024947Y030687D01*
X024987Y030727D01*
X024947D01*
X024907Y030767D01*
X024867Y030727D01*
X024827D01*
X024867Y030687D01*
X024827Y030647D01*
X024867D01*
X024907Y030607D01*
X034478Y030627D02*
X034518Y030667D01*
X034558D01*
X034518Y030707D01*
X034558Y030747D01*
X034518D01*
X034478Y030787D01*
X034438Y030747D01*
X034398D01*
X034438Y030707D01*
X034398Y030667D01*
X034438D01*
X034478Y030627D01*
X034498Y020388D02*
X034538Y020428D01*
X034578D01*
X034538Y020468D01*
X034578Y020508D01*
X034538D01*
X034498Y020548D01*
X034458Y020508D01*
X034418D01*
X034458Y020468D01*
X034418Y020428D01*
X034458D01*
X034498Y020388D01*
X033223Y020513D02*
X033263Y020553D01*
X033303D01*
X033263Y020593D01*
X033303Y020633D01*
X033263D01*
X033223Y020673D01*
X033183Y020633D01*
X033143D01*
X033183Y020593D01*
X033143Y020553D01*
X033183D01*
X033223Y020513D01*
X032252Y022093D02*
X032292Y022133D01*
X032332D01*
X032292Y022173D01*
X032332Y022213D01*
X032292D01*
X032252Y022253D01*
X032212Y022213D01*
X032172D01*
X032212Y022173D01*
X032172Y022133D01*
X032212D01*
X032252Y022093D01*
X032243Y023853D02*
X032283Y023893D01*
X032323D01*
X032283Y023933D01*
X032323Y023973D01*
X032283D01*
X032243Y024013D01*
X032203Y023973D01*
X032163D01*
X032203Y023933D01*
X032163Y023893D01*
X032203D01*
X032243Y023853D01*
X027133Y022193D02*
X027173Y022233D01*
X027213D01*
X027173Y022273D01*
X027213Y022313D01*
X027173D01*
X027133Y022353D01*
X027093Y022313D01*
X027053D01*
X027093Y022273D01*
X027053Y022233D01*
X027093D01*
X027133Y022193D01*
X027123Y023823D02*
X027163Y023863D01*
X027203D01*
X027163Y023903D01*
X027203Y023943D01*
X027163D01*
X027123Y023983D01*
X027083Y023943D01*
X027043D01*
X027083Y023903D01*
X027043Y023863D01*
X027083D01*
X027123Y023823D01*
X024947Y020448D02*
X024987Y020488D01*
X025027D01*
X024987Y020528D01*
X025027Y020568D01*
X024987D01*
X024947Y020608D01*
X024907Y020568D01*
X024867D01*
X024907Y020528D01*
X024867Y020488D01*
X024907D01*
X024947Y020448D01*
X026173Y020583D02*
X026213Y020623D01*
X026253D01*
X026213Y020663D01*
X026253Y020703D01*
X026213D01*
X026173Y020743D01*
X026133Y020703D01*
X026093D01*
X026133Y020663D01*
X026093Y020623D01*
X026133D01*
X026173Y020583D01*
X023003Y028263D02*
X023043Y028303D01*
X023083D01*
X023043Y028343D01*
X023083Y028383D01*
X023043D01*
X023003Y028423D01*
X022963Y028383D01*
X022923D01*
X022963Y028343D01*
X022923Y028303D01*
X022963D01*
X023003Y028263D01*
X022983Y022963D02*
X023023Y023003D01*
X023063D01*
X023023Y023043D01*
X023063Y023083D01*
X023023D01*
X022983Y023123D01*
X022943Y023083D01*
X022903D01*
X022943Y023043D01*
X022903Y023003D01*
X022943D01*
X022983Y022963D01*
X036383Y028143D02*
X036423Y028183D01*
X036463D01*
X036423Y028223D01*
X036463Y028263D01*
X036423D01*
X036383Y028303D01*
X036343Y028263D01*
X036303D01*
X036343Y028223D01*
X036303Y028183D01*
X036343D01*
X036383Y028143D01*
X036393Y023073D02*
X036433Y023113D01*
X036473D01*
X036433Y023153D01*
X036473Y023193D01*
X036433D01*
X036393Y023233D01*
X036353Y023193D01*
X036313D01*
X036353Y023153D01*
X036313Y023113D01*
X036353D01*
X036393Y023073D01*
X030353Y020513D02*
X030393Y020553D01*
X030433D01*
X030393Y020593D01*
X030433Y020633D01*
X030393D01*
X030353Y020673D01*
X030313Y020633D01*
X030273D01*
X030313Y020593D01*
X030273Y020553D01*
X030313D01*
X030353Y020513D01*
X029073D02*
X029113Y020553D01*
X029153D01*
X029113Y020593D01*
X029153Y020633D01*
X029113D01*
X029073Y020673D01*
X029033Y020633D01*
X028993D01*
X029033Y020593D01*
X028993Y020553D01*
X029033D01*
X029073Y020513D01*
X029063Y030433D02*
X029103Y030473D01*
X029143D01*
X029103Y030513D01*
X029143Y030553D01*
X029103D01*
X029063Y030593D01*
X029023Y030553D01*
X028983D01*
X029023Y030513D01*
X028983Y030473D01*
X029023D01*
X029063Y030433D01*
D40*
X036269Y020771D02*
G03*
X036269Y020771I-000080J000000D01*
G01*
Y030496D02*
G03*
X036269Y030496I-000080J000000D01*
G01*
X023276D02*
G03*
X023276Y030496I-000080J000000D01*
G01*
M02*
