%FSDAX24Y24*%
%MOIN*%
%SFA1B1*%

%IPPOS*%
%ADD39R,0.055200X0.063100*%
%ADD40R,0.063100X0.055200*%
%ADD41O,0.031600X0.098600*%
%ADD42R,0.033600X0.051300*%
%ADD43O,0.031600X0.094600*%
%ADD44R,0.051300X0.063100*%
%ADD45R,0.051300X0.033600*%
%ADD46R,0.086700X0.059200*%
%ADD47R,0.086700X0.086700*%
%ADD48O,0.094600X0.031600*%
%ADD49R,0.059200X0.114300*%
%ADD50R,0.029700X0.065100*%
%ADD51R,0.029700X0.065100*%
%ADD52R,0.067100X0.067100*%
%ADD53C,0.067100*%
%ADD54R,0.067100X0.067100*%
%ADD55C,0.106400*%
%ADD56R,0.035600X0.035600*%
%ADD57C,0.035600*%
%ADD58C,0.058000*%
%LNpcb_csn_v3_1-1*%
%LPD*%
G54D39*
X013096Y005750D03*
X013804D03*
X010054Y011250D03*
X009346D03*
X004346Y007950D03*
X005054D03*
X004346Y006600D03*
X005054D03*
X001496Y008100D03*
X002204D03*
X001446Y006800D03*
X002154D03*
X008504Y006650D03*
X007796D03*
X011654Y013650D03*
X010946D03*
X020446Y006100D03*
X021154D03*
X025004Y009850D03*
X024296D03*
Y008950D03*
X025004D03*
X021154Y005150D03*
X020446D03*
X005446Y011750D03*
X006154D03*
G54D40*
X019400Y017746D03*
Y018454D03*
X020450D03*
Y017746D03*
X022150Y011046D03*
Y011754D03*
X020200D03*
Y011046D03*
X021150Y011754D03*
Y011046D03*
X018000Y006554D03*
Y005846D03*
X013250Y008496D03*
Y009204D03*
X014250D03*
Y008496D03*
X008550Y004596D03*
Y005304D03*
X017000Y010746D03*
Y011454D03*
X015300Y004296D03*
Y005004D03*
X010000Y017254D03*
Y016546D03*
X011300Y007304D03*
Y006596D03*
X009600Y013746D03*
Y014454D03*
X012200Y007304D03*
Y006596D03*
X007150Y011454D03*
Y010746D03*
X008000Y011454D03*
Y010746D03*
X019000Y005896D03*
Y006604D03*
G54D41*
X025950Y016441D03*
X025450D03*
X024950D03*
X024450D03*
X023950D03*
X023450D03*
X022950D03*
X022450D03*
X021950D03*
X021450D03*
X020950D03*
X020450D03*
X019950D03*
X019450D03*
X025950Y012859D03*
X025450D03*
X024950D03*
X024450D03*
X023950D03*
X023450D03*
X022950D03*
X022450D03*
X021950D03*
X021450D03*
X020950D03*
X020450D03*
X019950D03*
X019450D03*
G54D42*
X014476Y011622D03*
X015224D03*
Y010678D03*
X014850D03*
X014476D03*
X024576Y005178D03*
X024950D03*
X025324D03*
Y006122D03*
X024576D03*
X018626Y008728D03*
X019000D03*
X019374D03*
Y009672D03*
X018626D03*
G54D43*
X013350Y004545D03*
X012850D03*
X012350D03*
X011850D03*
X011350D03*
X010850D03*
X010350D03*
X009850D03*
X013350Y002655D03*
X012850D03*
X012350D03*
X011850D03*
X011350D03*
X010850D03*
X010350D03*
X009850D03*
X015450Y006855D03*
X015950D03*
X016450D03*
X016950D03*
X015450Y008745D03*
X015950D03*
X016450D03*
X016950D03*
X008850Y008055D03*
X009350D03*
X009850D03*
X010350D03*
X008850Y009945D03*
X009350D03*
X009850D03*
X010350D03*
G54D44*
X006195Y013100D03*
X005605D03*
X004395D03*
X003805D03*
G54D45*
X008972Y017224D03*
Y016476D03*
X008028D03*
Y016850D03*
Y017224D03*
G54D46*
X004813Y015997D03*
Y016903D03*
G54D47*
X006387Y016450D03*
G54D48*
X023595Y006800D03*
Y007300D03*
Y007800D03*
Y008300D03*
X021705Y006800D03*
Y007300D03*
Y007800D03*
Y008300D03*
G54D49*
X022679Y004600D03*
X023821D03*
G54D50*
X014476Y013077D03*
G54D51*
X014850Y013077D03*
X015224D03*
Y013923D03*
X014850D03*
X014476D03*
G54D52*
X011500Y000900D03*
X028500Y002900D03*
X016600Y002800D03*
X028500Y019900D03*
X009500D03*
X020500Y000900D03*
X012050Y015800D03*
X001000Y019900D03*
X018500D03*
X004500Y000900D03*
G54D53*
X012500Y000900D03*
X013500D03*
X014500D03*
X015500D03*
X016500D03*
X017500D03*
X018500D03*
X029500Y002900D03*
X026600Y002800D03*
X025600D03*
X024600D03*
X023600D03*
X022600D03*
X021600D03*
X020600D03*
X019600D03*
X018600D03*
X017600D03*
X029500Y019900D03*
X010500D03*
X011500D03*
X012500D03*
X013500D03*
X014500D03*
X015500D03*
X016500D03*
X021500Y000900D03*
X022500D03*
X023500D03*
X024500D03*
X025500D03*
X026500D03*
X027500D03*
X028500Y003900D03*
X029500Y004900D03*
X028500D03*
X029500Y005900D03*
X028500D03*
X029500Y006900D03*
X028500D03*
X029500Y007900D03*
X028500D03*
X029500Y008900D03*
X028500D03*
X029500Y009900D03*
X028500D03*
X029500Y010900D03*
X028500D03*
X015050Y015800D03*
X014050D03*
X013050D03*
X002000Y019900D03*
X003000D03*
X004000D03*
X005000D03*
X006000D03*
X007000D03*
X008000D03*
X019500D03*
X020500D03*
X021500D03*
X022500D03*
X023500D03*
X024500D03*
X025500D03*
X005500Y000900D03*
X006500D03*
X007500D03*
X008500D03*
X009500D03*
X028500Y011900D03*
X029500Y012900D03*
X028500D03*
X029500Y013900D03*
X028500D03*
X029500Y014900D03*
X028500D03*
X029500Y015900D03*
X028500D03*
X029500Y016900D03*
X028500D03*
X029500Y017900D03*
X028500D03*
X029500Y018900D03*
X028500D03*
X016700Y015000D03*
Y014000D03*
X027000Y005500D03*
Y006500D03*
Y007500D03*
Y008500D03*
G54D54*
X029500Y003900D03*
Y011900D03*
X016700Y013000D03*
X027000Y004500D03*
G54D55*
X000816Y017334D03*
X002784D03*
Y015366D03*
X000816D03*
X001800Y016350D03*
G54D56*
X003764Y011950D03*
G54D57*
X002252Y011450D03*
X003276D03*
X001764Y011950D03*
X002764D03*
G54D58*
X022570Y009270D03*
X021370Y009780D03*
X019440Y014160D03*
X011010Y012280D03*
X012000Y011692D03*
X013970Y012570D03*
X005520Y015340D03*
X017700Y014750D03*
X020010Y009800D03*
X019520Y005300D03*
X014000Y010030D03*
X022620Y014420D03*
X023910Y015010D03*
X024580Y015260D03*
X004395Y013810D03*
X020320Y003700D03*
X027700Y012900D03*
X016440Y016350D03*
X000820Y007410D03*
X019800Y000620D03*
X021800Y004200D03*
X024400Y001600D03*
X007796Y007700D03*
X008870Y012880D03*
X015224Y012286D03*
X012850Y003600D03*
X013090Y011940D03*
X013980Y013220D03*
X022450Y013600D03*
X010990Y012970D03*
X011750Y008210D03*
X009350Y010690D03*
X019050Y012890D03*
X015740Y014050D03*
X023020Y010000D03*
X010750Y010770D03*
X023760Y008950D03*
X024320Y010550D03*
X008280Y015930D03*
X018090Y008660D03*
X016550Y009910D03*
X010630Y015990D03*
X008000Y017640D03*
X004700Y012160D03*
X021860Y017290D03*
X022000Y015710D03*
X029000Y017400D03*
X024450Y017760D03*
X025950Y017420D03*
X027460Y018250D03*
X025200Y013690D03*
X012070Y009170D03*
X014020Y011590D03*
X022100Y002110D03*
X022340Y005590D03*
M02*