%FSDAX24Y24*%
%MOIN*%
%SFA1B1*%

%IPPOS*%
%ADD23C,0.010000*%
%ADD35C,0.009800*%
%ADD36C,0.007900*%
%LNpcb_csn_v3_1-1*%
%LPD*%
G54D23*
X022510Y010080D02*
Y009580D01*
X022410Y009480*
X022210*
X022110Y009580*
Y010080*
X021910Y009480D02*
X021710D01*
X021810*
Y010080*
X021910Y009980*
X021410D02*
X021310Y010080D01*
X021110*
X021010Y009980*
Y009580*
X021110Y009480*
X021310*
X021410Y009580*
Y009980*
X019110Y008130D02*
Y007630D01*
X019010Y007530*
X018810*
X018710Y007630*
Y008130*
X018510Y007630D02*
X018410Y007530D01*
X018210*
X018110Y007630*
Y008030*
X018210Y008130*
X018410*
X018510Y008030*
Y007930*
X018410Y007830*
X018110*
X015770Y012750D02*
Y012250D01*
X015670Y012150*
X015470*
X015370Y012250*
Y012750*
X014870Y012150D02*
Y012750D01*
X015170Y012450*
X014770*
X005350Y008750D02*
X005950D01*
Y009050*
X005850Y009150*
X005650*
X005550Y009050*
Y008750*
Y008950D02*
X005350Y009150D01*
Y009750D02*
Y009350D01*
X005750Y009750*
X005850*
X005950Y009650*
Y009450*
X005850Y009350*
X005950Y009950D02*
Y010349D01*
X005850*
X005450Y009950*
X005350*
X012550Y009000D02*
Y009600D01*
X012250*
X012150Y009500*
Y009300*
X012250Y009200*
X012550*
X012350D02*
X012150Y009000D01*
X011550D02*
X011950D01*
X011550Y009400*
Y009500*
X011650Y009600*
X011850*
X011950Y009500*
X010951Y009600D02*
X011150Y009500D01*
X011350Y009300*
Y009100*
X011250Y009000*
X011050*
X010951Y009100*
Y009200*
X011050Y009300*
X011350*
X014700Y007500D02*
X015300D01*
Y007800*
X015200Y007900*
X015000*
X014900Y007800*
Y007500*
Y007700D02*
X014700Y007900D01*
Y008500D02*
Y008100D01*
X015100Y008500*
X015200*
X015300Y008400*
Y008200*
X015200Y008100*
X014700Y009099D02*
Y008700D01*
X015100Y009099*
X015200*
X015300Y009000*
Y008800*
X015200Y008700*
X019050Y009750D02*
Y010350D01*
X018750*
X018650Y010250*
Y010050*
X018750Y009950*
X019050*
X018850D02*
X018650Y009750D01*
X018450D02*
X018250D01*
X018350*
Y010350*
X018450Y010250*
X017950Y009850D02*
X017850Y009750D01*
X017650*
X017550Y009850*
Y010250*
X017650Y010350*
X017850*
X017950Y010250*
Y010150*
X017850Y010050*
X017550*
X008960Y005390D02*
Y005990D01*
X008660*
X008560Y005890*
Y005690*
X008660Y005590*
X008960*
X008760D02*
X008560Y005390D01*
X008360D02*
X008160D01*
X008260*
Y005990*
X008360Y005890*
X007860Y005990D02*
X007460D01*
Y005890*
X007860Y005490*
Y005390*
X008960Y007440D02*
Y008040D01*
X008660*
X008560Y007940*
Y007740*
X008660Y007640*
X008960*
X008760D02*
X008560Y007440D01*
X008360D02*
X008160D01*
X008260*
Y008040*
X008360Y007940*
X007460Y008040D02*
X007660Y007940D01*
X007860Y007740*
Y007540*
X007760Y007440*
X007560*
X007460Y007540*
Y007640*
X007560Y007740*
X007860*
X008200Y011100D02*
Y010500D01*
X008500*
X008600Y010600*
Y010800*
X008500Y010900*
X008200*
X008400D02*
X008600Y011100D01*
X008800D02*
X009000D01*
X008900*
Y010500*
X008800Y010600*
X009700Y010500D02*
X009300D01*
Y010800*
X009500Y010700*
X009600*
X009700Y010800*
Y011000*
X009600Y011100*
X009400*
X009300Y011000*
X008400Y012950D02*
Y012350D01*
X008700*
X008800Y012450*
Y012650*
X008700Y012750*
X008400*
X008600D02*
X008800Y012950D01*
X009000D02*
X009200D01*
X009100*
Y012350*
X009000Y012450*
X009800Y012950D02*
Y012350D01*
X009500Y012650*
X009900*
X007450Y010250D02*
X007350Y010150D01*
X007150*
X007050Y010250*
Y010650*
X007150Y010750*
X007350*
X007450Y010650*
X007650Y010750D02*
X007850D01*
X007750*
Y010150*
X007650Y010250*
X008150D02*
X008250Y010150D01*
X008450*
X008550Y010250*
Y010650*
X008450Y010750*
X008250*
X008150Y010650*
Y010250*
X019000Y009300D02*
X019100Y009400D01*
X019300*
X019400Y009300*
Y008900*
X019300Y008800*
X019100*
X019000Y008900*
X018400Y008800D02*
X018800D01*
X018400Y009200*
Y009300*
X018500Y009400*
X018700*
X018800Y009300*
X018200D02*
X018100Y009400D01*
X017900*
X017801Y009300*
Y009200*
X017900Y009100*
X018000*
X017900*
X017801Y009000*
Y008900*
X017900Y008800*
X018100*
X018200Y008900*
X014200Y013650D02*
X014300Y013750D01*
X014500*
X014600Y013650*
Y013250*
X014500Y013150*
X014300*
X014200Y013250*
X013600Y013150D02*
X014000D01*
X013600Y013550*
Y013650*
X013700Y013750*
X013900*
X014000Y013650*
X013001Y013150D02*
X013400D01*
X013001Y013550*
Y013650*
X013100Y013750*
X013300*
X013400Y013650*
X012310Y014640D02*
X012410Y014740D01*
X012610*
X012710Y014640*
Y014240*
X012610Y014140*
X012410*
X012310Y014240*
X011710Y014140D02*
X012110D01*
X011710Y014540*
Y014640*
X011810Y014740*
X012010*
X012110Y014640*
X011510Y014140D02*
X011310D01*
X011410*
Y014740*
X011510Y014640*
X016400Y007100D02*
X016300Y007000D01*
X016100*
X016000Y007100*
Y007500*
X016100Y007600*
X016300*
X016400Y007500*
X017000Y007600D02*
X016600D01*
X017000Y007200*
Y007100*
X016900Y007000*
X016700*
X016600Y007100*
X017200D02*
X017300Y007000D01*
X017500*
X017599Y007100*
Y007500*
X017500Y007600*
X017300*
X017200Y007500*
Y007100*
X017700Y012850D02*
X017800Y012950D01*
X018000*
X018100Y012850*
Y012450*
X018000Y012350*
X017800*
X017700Y012450*
X017500Y012350D02*
X017300D01*
X017400*
Y012950*
X017500Y012850*
X017000Y012450D02*
X016900Y012350D01*
X016700*
X016600Y012450*
Y012850*
X016700Y012950*
X016900*
X017000Y012850*
Y012750*
X016900Y012650*
X016600*
X007050Y004000D02*
X007150Y004100D01*
X007350*
X007450Y004000*
Y003600*
X007350Y003500*
X007150*
X007050Y003600*
X006850Y003500D02*
X006650D01*
X006750*
Y004100*
X006850Y004000*
X006350D02*
X006250Y004100D01*
X006050*
X005950Y004000*
Y003900*
X006050Y003800*
X005950Y003700*
Y003600*
X006050Y003500*
X006250*
X006350Y003600*
Y003700*
X006250Y003800*
X006350Y003900*
Y004000*
X006250Y003800D02*
X006050D01*
X006520Y007930D02*
X006620Y008030D01*
X006820*
X006920Y007930*
Y007530*
X006820Y007430*
X006620*
X006520Y007530*
X006320Y007430D02*
X006120D01*
X006220*
Y008030*
X006320Y007930*
X005820Y008030D02*
X005420D01*
Y007930*
X005820Y007530*
Y007430*
X007150Y010950D02*
X007250Y011050D01*
X007450*
X007550Y010950*
Y010550*
X007450Y010450*
X007250*
X007150Y010550*
X006950Y010450D02*
X006750D01*
X006850*
Y011050*
X006950Y010950*
X006050Y011050D02*
X006250Y010950D01*
X006450Y010750*
Y010550*
X006350Y010450*
X006150*
X006050Y010550*
Y010650*
X006150Y010750*
X006450*
X007450Y012850D02*
X007550Y012950D01*
X007750*
X007850Y012850*
Y012450*
X007750Y012350*
X007550*
X007450Y012450*
X007250Y012350D02*
X007050D01*
X007150*
Y012950*
X007250Y012850*
X006350Y012950D02*
X006750D01*
Y012650*
X006550Y012750*
X006450*
X006350Y012650*
Y012450*
X006450Y012350*
X006650*
X006750Y012450*
X025810Y007980D02*
Y007480D01*
X025710Y007380*
X025510*
X025410Y007480*
Y007980*
X025210Y007380D02*
X025010D01*
X025110*
Y007980*
X025210Y007880*
X024710Y007380D02*
X024510D01*
X024610*
Y007980*
X024710Y007880*
G54D35*
X015214Y011754D02*
D01*
X015213Y011757*
X015213Y011760*
X015212Y011764*
X015212Y011767*
X015211Y011770*
X015209Y011773*
X015208Y011777*
X015206Y011779*
X015204Y011782*
X015202Y011785*
X015200Y011788*
X015197Y011790*
X015195Y011792*
X015192Y011794*
X015189Y011796*
X015186Y011798*
X015183Y011799*
X015180Y011800*
X015176Y011801*
X015173Y011802*
X015170Y011802*
X015166Y011802*
X015163*
X015159Y011802*
X015156Y011802*
X015153Y011801*
X015149Y011800*
X015146Y011799*
X015143Y011798*
X015140Y011796*
X015137Y011794*
X015134Y011792*
X015132Y011790*
X015129Y011788*
X015127Y011785*
X015125Y011782*
X015123Y011779*
X015121Y011777*
X015120Y011773*
X015118Y011770*
X015117Y011767*
X015117Y011764*
X015116Y011760*
X015116Y011757*
X015116Y011754*
X015116Y011750*
X015116Y011747*
X015117Y011743*
X015117Y011740*
X015118Y011737*
X015120Y011734*
X015121Y011730*
X015123Y011728*
X015125Y011725*
X015127Y011722*
X015129Y011719*
X015132Y011717*
X015134Y011715*
X015137Y011713*
X015140Y011711*
X015143Y011709*
X015146Y011708*
X015149Y011707*
X015153Y011706*
X015156Y011705*
X015159Y011705*
X015163Y011705*
X015166*
X015170Y011705*
X015173Y011705*
X015176Y011706*
X015180Y011707*
X015183Y011708*
X015186Y011709*
X015189Y011711*
X015192Y011713*
X015195Y011715*
X015197Y011717*
X015200Y011719*
X015202Y011722*
X015204Y011725*
X015206Y011728*
X015208Y011730*
X015209Y011734*
X015211Y011737*
X015212Y011740*
X015212Y011743*
X015213Y011747*
X015213Y011750*
X015214Y011754*
X018824Y007135D02*
D01*
X018823Y007138*
X018823Y007141*
X018822Y007145*
X018822Y007148*
X018821Y007151*
X018819Y007154*
X018818Y007158*
X018816Y007160*
X018814Y007163*
X018812Y007166*
X018810Y007169*
X018807Y007171*
X018805Y007173*
X018802Y007175*
X018799Y007177*
X018796Y007179*
X018793Y007180*
X018790Y007181*
X018786Y007182*
X018783Y007183*
X018780Y007183*
X018776Y007183*
X018773*
X018769Y007183*
X018766Y007183*
X018763Y007182*
X018759Y007181*
X018756Y007180*
X018753Y007179*
X018750Y007177*
X018747Y007175*
X018744Y007173*
X018742Y007171*
X018739Y007169*
X018737Y007166*
X018735Y007163*
X018733Y007160*
X018731Y007158*
X018730Y007154*
X018728Y007151*
X018727Y007148*
X018727Y007145*
X018726Y007141*
X018726Y007138*
X018726Y007135*
X018726Y007131*
X018726Y007128*
X018727Y007124*
X018727Y007121*
X018728Y007118*
X018730Y007115*
X018731Y007111*
X018733Y007109*
X018735Y007106*
X018737Y007103*
X018739Y007100*
X018742Y007098*
X018744Y007096*
X018747Y007094*
X018750Y007092*
X018753Y007090*
X018756Y007089*
X018759Y007088*
X018763Y007087*
X018766Y007086*
X018769Y007086*
X018773Y007086*
X018776*
X018780Y007086*
X018783Y007086*
X018786Y007087*
X018790Y007088*
X018793Y007089*
X018796Y007090*
X018799Y007092*
X018802Y007094*
X018805Y007096*
X018807Y007098*
X018810Y007100*
X018812Y007103*
X018814Y007106*
X018816Y007109*
X018818Y007111*
X018819Y007115*
X018821Y007118*
X018822Y007121*
X018822Y007124*
X018823Y007128*
X018823Y007131*
X018824Y007135*
X022224Y009085D02*
D01*
X022223Y009088*
X022223Y009091*
X022222Y009095*
X022222Y009098*
X022221Y009101*
X022219Y009104*
X022218Y009108*
X022216Y009110*
X022214Y009113*
X022212Y009116*
X022210Y009119*
X022207Y009121*
X022205Y009123*
X022202Y009125*
X022199Y009127*
X022196Y009129*
X022193Y009130*
X022190Y009131*
X022186Y009132*
X022183Y009133*
X022180Y009133*
X022176Y009133*
X022173*
X022169Y009133*
X022166Y009133*
X022163Y009132*
X022159Y009131*
X022156Y009130*
X022153Y009129*
X022150Y009127*
X022147Y009125*
X022144Y009123*
X022142Y009121*
X022139Y009119*
X022137Y009116*
X022135Y009113*
X022133Y009110*
X022131Y009108*
X022130Y009104*
X022128Y009101*
X022127Y009098*
X022127Y009095*
X022126Y009091*
X022126Y009088*
X022126Y009085*
X022126Y009081*
X022126Y009078*
X022127Y009074*
X022127Y009071*
X022128Y009068*
X022130Y009065*
X022131Y009061*
X022133Y009059*
X022135Y009056*
X022137Y009053*
X022139Y009050*
X022142Y009048*
X022144Y009046*
X022147Y009044*
X022150Y009042*
X022153Y009040*
X022156Y009039*
X022159Y009038*
X022163Y009037*
X022166Y009036*
X022169Y009036*
X022173Y009036*
X022176*
X022180Y009036*
X022183Y009036*
X022186Y009037*
X022190Y009038*
X022193Y009039*
X022196Y009040*
X022199Y009042*
X022202Y009044*
X022205Y009046*
X022207Y009048*
X022210Y009050*
X022212Y009053*
X022214Y009056*
X022216Y009059*
X022218Y009061*
X022219Y009065*
X022221Y009068*
X022222Y009071*
X022222Y009074*
X022223Y009078*
X022223Y009081*
X022224Y009085*
X025524Y006985D02*
D01*
X025523Y006988*
X025523Y006991*
X025522Y006995*
X025522Y006998*
X025521Y007001*
X025519Y007004*
X025518Y007008*
X025516Y007010*
X025514Y007013*
X025512Y007016*
X025510Y007019*
X025507Y007021*
X025505Y007023*
X025502Y007025*
X025499Y007027*
X025496Y007029*
X025493Y007030*
X025490Y007031*
X025486Y007032*
X025483Y007033*
X025480Y007033*
X025476Y007033*
X025473*
X025469Y007033*
X025466Y007033*
X025463Y007032*
X025459Y007031*
X025456Y007030*
X025453Y007029*
X025450Y007027*
X025447Y007025*
X025444Y007023*
X025442Y007021*
X025439Y007019*
X025437Y007016*
X025435Y007013*
X025433Y007010*
X025431Y007008*
X025430Y007004*
X025428Y007001*
X025427Y006998*
X025427Y006995*
X025426Y006991*
X025426Y006988*
X025426Y006985*
X025426Y006981*
X025426Y006978*
X025427Y006974*
X025427Y006971*
X025428Y006968*
X025430Y006965*
X025431Y006961*
X025433Y006959*
X025435Y006956*
X025437Y006953*
X025439Y006950*
X025442Y006948*
X025444Y006946*
X025447Y006944*
X025450Y006942*
X025453Y006940*
X025456Y006939*
X025459Y006938*
X025463Y006937*
X025466Y006936*
X025469Y006936*
X025473Y006936*
X025476*
X025480Y006936*
X025483Y006936*
X025486Y006937*
X025490Y006938*
X025493Y006939*
X025496Y006940*
X025499Y006942*
X025502Y006944*
X025505Y006946*
X025507Y006948*
X025510Y006950*
X025512Y006953*
X025514Y006956*
X025516Y006959*
X025518Y006961*
X025519Y006965*
X025521Y006968*
X025522Y006971*
X025522Y006974*
X025523Y006978*
X025523Y006981*
X025524Y006985*
G54D36*
X013800Y007914D02*
Y008386D01*
X011464Y010700D02*
X011936D01*
X006414Y009350D02*
X006886D01*
X016900Y008864D02*
Y009336D01*
Y007914D02*
Y008386D01*
X012100Y012264D02*
Y012736D01*
X018064Y011300D02*
X018536D01*
X008100Y011614D02*
Y012086D01*
Y013314D02*
Y013786D01*
X012100Y013214D02*
Y013686D01*
X008350Y006514D02*
Y006986D01*
Y004464D02*
Y004936D01*
X013885Y009666D02*
X014515D01*
X013885Y011634D02*
X014515D01*
X013885Y009666D02*
Y011634D01*
X014515Y009666D02*
Y011634D01*
X018244Y005066D02*
Y007034D01*
X017456Y005066D02*
Y007034D01*
X018244*
X017456Y005066D02*
X018244D01*
X021644Y007016D02*
Y008984D01*
X020856Y007016D02*
Y008984D01*
X021644*
X020856Y007016D02*
X021644D01*
X024156Y004916D02*
X024944D01*
X024156Y006884D02*
X024944D01*
X024156Y004916D02*
Y006884D01*
X024944Y004916D02*
Y006884D01*
M02*