%FSDAX24Y24*%
%MOIN*%
%SFA1B1*%

%IPPOS*%
%ADD10R,0.047200X0.055100*%
%ADD11R,0.055100X0.047200*%
%ADD15R,0.043300X0.055100*%
%ADD23C,0.010000*%
%ADD24R,0.059100X0.059100*%
%ADD25C,0.059100*%
%ADD26R,0.059100X0.059100*%
%ADD27C,0.098400*%
%ADD28R,0.027600X0.027600*%
%ADD29C,0.027600*%
%ADD30C,0.050000*%
%ADD31R,0.055100X0.043300*%
%ADD32O,0.098400X0.027600*%
%ADD33O,0.074800X0.023600*%
%LNpcb_csn_v3_1-1*%
%LPD*%
G36*
X019723Y008389D02*
X019793Y008284D01*
X019779Y008250*
X019864Y008045*
Y007955*
X019779Y007750*
X019864Y007545*
Y007485*
X019614Y007318*
X019570Y007336*
X018735*
X018620Y007614*
X019424Y008418*
X019723Y008389*
G37*
G36*
X002764Y011638D02*
D01*
X002967Y011492*
X002964Y011450*
X003056Y011230*
X003276Y011138*
X003326Y011159*
X003496Y011230*
X003498Y011234*
X005585*
X005700Y010956*
X005517Y010773*
X005454Y010620*
Y008792*
X005176Y008677*
X002517Y011337*
X002564Y011450*
X002544Y011730*
X002764Y011638*
G37*
G36*
X026659Y008159D02*
X026681Y008150D01*
Y007850*
X026659Y007841*
X026518Y007500*
X026532Y007466*
X026365Y007216*
X025035*
X024920Y007494*
X025710Y008284*
X026608*
X026659Y008159*
G37*
G36*
X015657Y008947D02*
D01*
X015810Y008884*
X016159*
Y008674*
Y008576*
Y007724*
Y007446*
X015947Y007233*
X015884Y007080*
Y002250*
X015947Y002097*
X016167Y001877*
X016052Y001600*
X009916*
X007860Y003656*
X007975Y003934*
X008500*
X008653Y003997*
X008857Y004201*
X008888Y004274*
X009091*
Y005126*
X008921*
Y006324*
X009091*
Y007146*
X009368Y007261*
X012417Y004212*
X012544Y003906*
X012417Y003600*
X012544Y003294*
X012850Y003167*
X013156Y003294*
X013283Y003600*
X013156Y003906*
X013066Y003943*
Y004085*
X013003Y004238*
X009329Y007912*
X009444Y008189*
X010146*
X010299Y008253*
X010506Y008460*
X010784Y008345*
Y007760*
X010847Y007607*
X011097Y007357*
X011250Y007294*
X013914*
X014067Y007357*
X014307Y007597*
X014360Y007724*
X014541*
Y008576*
X014482Y008716*
X014863Y009097*
X014926Y009250*
Y009285*
X015204Y009400*
X015657Y008947*
G37*
G36*
X008650Y009774D02*
X009915D01*
X009999Y009571*
X009832Y009321*
X008376*
Y009329*
Y009617*
X008625Y009784*
X008650Y009774*
G37*
G36*
X020531Y010833D02*
Y010287D01*
X020282Y010120*
X020060Y010212*
Y009800*
Y009388*
X020271Y009475*
X020422Y009413*
X020497Y009168*
X020463Y009118*
X020385Y009040*
X020069*
X019891Y008966*
X019450*
X019297Y008903*
X018691Y008297*
X018442Y008464*
X018523Y008660*
X018396Y008966*
X018090Y009093*
X017890Y009010*
X017641Y009177*
Y009526*
X017635Y009539*
X017679Y009584*
X019667*
X019704Y009494*
X019960Y009388*
Y009800*
Y010212*
X019704Y010106*
X019667Y010016*
X017589*
X017436Y009953*
X017237Y009753*
X016957Y009973*
X016856Y010216*
X016600Y010322*
Y009910*
X016500*
Y010322*
X016507Y010325*
X016193Y010570*
X016125Y010589*
X016060Y010616*
Y010624*
X016120Y010684*
X016252Y010738*
X016724*
Y010588*
X017576*
X017846*
X017874Y010559*
X018726*
Y010771*
X018778Y010793*
X018933Y010948*
X018996Y011101*
Y011975*
X019274Y012090*
X020531Y010833*
G37*
G36*
X020060Y013724D02*
X023063Y010721D01*
X023049Y010651*
X022762Y010564*
X019833Y013493*
X019716Y013541*
Y013596*
X019966Y013763*
X020060Y013724*
G37*
G36*
X022624Y010090D02*
X022587Y010000D01*
X022605Y009958*
X022355Y009791*
X022213Y009933*
X022060Y009996*
X021713*
X021676Y010086*
X021370Y010213*
X021214Y010148*
X020964Y010315*
Y010922*
X020901Y011075*
X019482Y012494*
X019329Y012557*
X019356Y012584*
X019479Y012882*
X019774Y012940*
X022624Y010090*
G37*
G36*
X008574Y010810D02*
Y010500D01*
X008400Y010456*
X006250*
X006214Y010441*
X006047Y010691*
X006290Y010934*
X008275*
X008574Y010810*
G37*
G36*
X004507Y003417D02*
X004660Y003354D01*
X007550*
X009027Y001877*
X008912Y001600*
X000500*
Y006840*
X000749Y007006*
X000820Y006977*
X000910Y007014*
X004507Y003417*
G37*
G36*
X025525Y004860D02*
X025731D01*
X025834Y004902*
X026084Y004736*
Y004100*
X026147Y003947*
X026559Y003535*
X026500Y003241*
X026259Y003141*
X026250Y003119*
X025950*
X025941Y003141*
X025600Y003282*
X025476Y003230*
X025116Y003590*
Y004791*
X025219Y004860*
X025425*
Y005150*
X025525*
Y004860*
G37*
G36*
X024124Y004274D02*
Y003630D01*
X023947Y003453*
X023884Y003300*
X023758Y003216*
X023600Y003282*
X023566Y003268*
X023316Y003435*
Y004825*
X023369Y004860*
X023881*
X024124Y004274*
G37*
G36*
X027550Y001600D02*
X024952D01*
X024810Y001865*
X024923Y002034*
X027550*
Y001600*
G37*
G36*
X023906Y002445D02*
D01*
X023947Y002347*
X024197Y002097*
X024094Y001906*
X023974Y001616*
X023210*
X023095Y001894*
X023253Y002052*
X023316Y002205*
X023530Y002347*
X023600Y002318*
X023906Y002445*
G37*
G36*
X017684Y005044D02*
Y003507D01*
X017556Y003439*
X017389Y003386*
X017316Y003435*
Y003820*
X017253Y003973*
X017146Y004080*
Y005010*
X017181*
X017386Y005095*
X017389Y005103*
X017684Y005044*
G37*
G36*
X007609Y006393D02*
Y006324D01*
X008488*
Y005126*
X007609*
X007473Y004953*
X007320Y005016*
X007112*
Y005226*
X006371*
Y005890*
X006308Y006043*
X006254Y006097*
X006368Y006374*
X007112*
Y006379*
X007345Y006534*
X007609Y006393*
G37*
G36*
X005788Y007453D02*
Y007226D01*
Y006955*
X005511Y006840*
X001981Y010370*
Y010869*
X002258Y010984*
X005788Y007453*
G37*
G36*
X005938Y005800D02*
Y005226D01*
X005788*
Y004690*
X005511Y004575*
X001636Y008450*
Y009710*
X001914Y009825*
X005938Y005800*
G37*
G36*
X019570Y004888D02*
X019629Y004912D01*
X019879Y004746*
Y004465*
X019717Y004303*
X019654Y004150*
Y003475*
X019649Y003458*
X019409Y003297*
X018416Y004290*
Y004941*
X018519Y005010*
X018725*
Y005300*
X018825*
Y005010*
X019031*
X019103Y005040*
X019214Y004994*
X019470Y004888*
Y005300*
X019570*
Y004888*
G37*
G36*
X024104Y011300D02*
Y010893D01*
X024014Y010856*
X023978Y010771*
X023684Y010712*
X022490Y011906*
Y011994*
X023410*
X024104Y011300*
G37*
G36*
X027550Y015616D02*
X025870D01*
X025717Y015553*
X025304Y015140*
X025013Y015260*
X024976Y015350*
X025810Y016184*
X027550*
Y015616*
G37*
G36*
X016007Y016350D02*
D01*
X016044Y016260*
X016037Y016253*
X015974Y016100*
Y015575*
X015696Y015460*
X015480Y015676*
X015511Y015750*
X015100*
Y015339*
X015174Y015370*
X015524Y015020*
Y014393*
X015434Y014356*
X015407Y014292*
X015113Y014233*
X014813Y014533*
X014660Y014596*
X014545*
X014430Y014874*
X014926Y015370*
X015000Y015339*
Y015800*
Y016261*
X014709Y016141*
X014700Y016119*
X014400*
X014391Y016141*
X014067Y016275*
X014050Y016282*
Y016494*
X014141Y016585*
X015850*
X016007Y016350*
G37*
G36*
X004520Y014754D02*
X004405Y014476D01*
X003555*
X003402Y014413*
X001267Y012278*
X001204Y012125*
Y008360*
X001267Y008207*
X005410Y004064*
X005295Y003786*
X004750*
X001216Y007320*
X001253Y007410*
X001126Y007716*
X000820Y007843*
X000749Y007814*
X000500Y007980*
Y014537*
X000732Y014728*
X000766Y014721*
Y015366*
X000866*
Y014721*
X001066Y014761*
X001279Y014903*
X001421Y015115*
X001427Y015149*
X002173*
X002179Y015115*
X002321Y014903*
X002534Y014761*
X002734Y014721*
Y015366*
X002784*
Y015416*
X003429*
X003423Y015445*
X003688Y015586*
X004520Y014754*
G37*
G36*
X012784Y018230D02*
X012410Y017856D01*
X008343*
X008306Y017946*
X008000Y018073*
X007694Y017946*
X007567Y017640*
X007694Y017334*
X008000Y017207*
X008306Y017334*
X008343Y017424*
X009075*
X009190Y017146*
X008370Y016326*
X008280Y016363*
X007974Y016236*
X007847Y015930*
X007913Y015771*
X007746Y015521*
X005878*
X005826Y015646*
X005520Y015773*
X005214Y015646*
X005190Y015588*
X004895Y015529*
X003370Y017055*
X003389Y017084*
X003429Y017284*
X002784*
Y017334*
X002734*
Y017979*
X002534Y017939*
X002321Y017797*
X002179Y017585*
X002173Y017551*
X001427*
X001421Y017585*
X001279Y017797*
X001066Y017939*
X000866Y017979*
Y017334*
X000766*
Y017979*
X000732Y017972*
X000500Y018163*
Y018750*
X012784*
Y018230*
G37*
G36*
X024017Y018473D02*
X022454Y016910D01*
X022205Y017077*
X022293Y017290*
X022216Y017475*
Y018750*
X023902*
X024017Y018473*
G37*
G36*
X026697D02*
X026040Y017816D01*
X025950Y017853*
X025644Y017726*
X025517Y017420*
X025644Y017114*
X025950Y016987*
X026256Y017114*
X026383Y017420*
X026346Y017510*
X026853Y018017*
X027148Y017959*
X027154Y017944*
X027460Y017817*
X027550Y017600*
Y016616*
X025720*
X025567Y016553*
X024670Y015656*
X024580Y015693*
X024274Y015566*
X024177Y015332*
X023910Y015443*
X023604Y015316*
X023477Y015010*
X023528Y014886*
X023362Y014636*
X022963*
X022926Y014726*
X022620Y014853*
X022314Y014726*
X022187Y014420*
X022314Y014114*
X022245Y013948*
X022144Y013906*
X022017Y013600*
X022144Y013294*
X022450Y013167*
X022756Y013294*
X022883Y013600*
X022846Y013690*
X023110Y013954*
X024606*
X024773Y013704*
X024767Y013690*
X024894Y013384*
X025200Y013257*
X025290Y013294*
X026337Y012247*
X026490Y012184*
X027550*
Y009024*
X027301Y008857*
X027000Y008982*
X026659Y008841*
X026608Y008716*
X025620*
X025467Y008653*
X023754Y006940*
X023369*
X023256Y007015*
Y008140*
X023670Y008554*
X023760Y008517*
X024066Y008644*
X024193Y008950*
X024066Y009256*
X023976Y009293*
Y009989*
X024226Y010156*
X024320Y010117*
X024626Y010244*
X024753Y010550*
X024626Y010856*
X024536Y010893*
Y011390*
X024473Y011543*
X023653Y012363*
X023500Y012426*
X022580*
X017473Y017533*
X017320Y017596*
X013155*
X013040Y017874*
X013153Y017987*
X013216Y018140*
Y018750*
X021784*
Y017691*
X021554Y017596*
X021427Y017290*
X021554Y016984*
X021860Y016857*
X022073Y016945*
X022240Y016696*
X021847Y016303*
X021784Y016150*
Y016053*
X021694Y016016*
X021567Y015710*
X021694Y015404*
X022000Y015277*
X022306Y015404*
X022433Y015710*
X022306Y016016*
X022216Y016053*
Y016060*
X023797Y017640*
X024091Y017582*
X024144Y017454*
X024450Y017327*
X024756Y017454*
X024883Y017760*
X024846Y017850*
X025746Y018750*
X026582*
X026697Y018473*
G37*
G36*
X017484Y015902D02*
Y015289D01*
X017234Y015122*
X017110Y015174*
X017041Y015341*
X016700Y015482*
X016656Y015464*
X016406Y015630*
Y015895*
X016440Y015917*
X016746Y016044*
X016817Y016215*
X017111Y016274*
X017484Y015902*
G37*
G36*
X012830Y016886D02*
X012189Y016245D01*
X011605*
Y016206*
X010973*
X010936Y016296*
X010630Y016423*
X010324Y016296*
X010197Y015990*
X010288Y015771*
X010121Y015521*
X008814*
X008647Y015771*
X008713Y015930*
X008676Y016020*
X009820Y017164*
X012715*
X012830Y016886*
G37*
G36*
X015008Y013329D02*
Y012825D01*
X014758Y012658*
X014636Y012709*
Y012780*
X014573Y012933*
X014376Y013130*
X014413Y013220*
X014286Y013526*
X013980Y013653*
Y013681*
X014192Y013894*
X014443*
X015008Y013329*
G37*
G36*
X003873Y013944D02*
X003962Y013810D01*
X004067Y013558*
X003451Y012943*
X002768Y012260*
X002764Y012262*
X002544Y012170*
X002453Y011950*
X002459Y011865*
X002293Y011745*
X002252Y011762*
X002178Y011753*
X002059Y011910*
X002076Y011950*
X002028Y012065*
X001984Y012170*
X001949Y012348*
X003574Y013973*
X003873Y013944*
G37*
G36*
X005538Y013926D02*
D01*
Y013074*
X005688*
Y012773*
X005307Y012392*
X005013Y012451*
X005006Y012466*
X004700Y012593*
X004610Y012556*
X004223Y012943*
X004142Y012976*
X004135Y013015*
X004548Y013428*
X004555Y013443*
X004701Y013504*
X004828Y013810*
X004984Y014044*
X005538*
Y013926*
G37*
G36*
X027550Y013271D02*
X027394Y013206D01*
X027267Y012900*
X027281Y012866*
X027114Y012616*
X026580*
X025790Y013406*
X025905Y013684*
X027550*
Y013271*
G37*
G36*
X019164Y014619D02*
X019134Y014466D01*
X019007Y014160*
X019134Y013854*
X019141Y013851*
X019083Y013556*
X018450*
X017696Y014311*
X017700Y014317*
X018006Y014444*
X018133Y014750*
X018006Y015056*
X017916Y015093*
Y015475*
X018194Y015590*
X019164Y014619*
G37*
G36*
X027550Y014616D02*
X026208D01*
X026160Y014636*
X025805*
X025690Y014914*
X025960Y015184*
X027550*
Y014616*
G37*
G36*
X007359Y013125D02*
Y013124D01*
X007991*
Y012276*
X007359*
Y012066*
X007190*
X007166Y012061*
X006962Y012226*
X006145*
X006030Y012503*
X006058Y012531*
X006121Y012684*
Y013074*
X006862*
Y013139*
X007126Y013281*
X007359Y013125*
G37*
G36*
X010650Y014396D02*
X010173Y013920D01*
X009723Y013733*
X009060Y014396*
X009175Y014674*
X010535*
X010650Y014396*
G37*
%LNpcb_csn_v3_1-2*%
%LPC*%
G36*
X002834Y017979D02*
Y017384D01*
X003429*
X003389Y017585*
X003247Y017797*
X003035Y017939*
X002834Y017979*
G37*
G36*
X003429Y015316D02*
X002834D01*
Y014721*
X003035Y014761*
X003247Y014903*
X003389Y015115*
X003429Y015316*
G37*
G36*
X015100Y016261D02*
Y015850D01*
X015511*
X015391Y016141*
X015100Y016261*
G37*
%LNpcb_csn_v3_1-3*%
%LPD*%
G54D10*
X014154Y008150D03*
X013446D03*
X017254Y009100D03*
X016546D03*
X017254Y008150D03*
X016546D03*
X011746Y012500D03*
X012454D03*
X007746Y011850D03*
X008454D03*
X007746Y013550D03*
X008454D03*
X012454Y013450D03*
X011746D03*
X007996Y006750D03*
X008704D03*
X007996Y004700D03*
X008704D03*
G54D11*
X011700Y010346D03*
Y011054D03*
X006650Y008996D03*
Y009704D03*
X018300Y010946D03*
Y011654D03*
G54D15*
X006745Y004800D03*
X006155D03*
X006595Y011800D03*
X006005D03*
X006495Y013500D03*
X005905D03*
X006745Y006800D03*
X006155D03*
G54D23*
X017940Y012760D02*
X019050D01*
X017039Y017051D02*
X019930Y014160D01*
X023760Y010330*
X019440Y014160D02*
X019930D01*
X021097Y002453D02*
X021895Y001655D01*
X020851Y007125D02*
Y007193D01*
Y006221D02*
Y007125D01*
Y006182D02*
Y006221D01*
Y006182D02*
X020936Y006097D01*
Y006136*
X020851Y006221D02*
X020936Y006136D01*
X020726Y007250D02*
X020794D01*
X020726D02*
X020851Y007125D01*
X021097Y002402D02*
Y002453D01*
X016930Y003990D02*
Y005300D01*
X012000Y012020D02*
X012250D01*
X011270D02*
X012000D01*
Y011692D02*
Y012020D01*
X016810Y007670D02*
Y008150D01*
X014710Y009900D02*
X015160D01*
Y009750D02*
Y009900D01*
X014710Y009250D02*
Y009900D01*
X016602Y009976D02*
X017254Y009465D01*
X016060Y010400D02*
X016602Y009976D01*
X022090Y005840D02*
Y007250D01*
X025790Y019100D02*
X028500D01*
X008208Y011850D02*
Y013338D01*
X025475Y005650D02*
X026100D01*
X026750Y005000*
X027250*
X027500Y005250*
Y007000*
X027000Y007500D02*
X027500Y007000D01*
X026500D02*
X027000Y006500D01*
X024850Y007000D02*
X026500D01*
X024000Y006150D02*
X024850Y007000D01*
X023625Y006150D02*
X024000D01*
X022060Y009780D02*
X022570Y009270D01*
X021370Y009780D02*
X022060D01*
X014154Y007750D02*
Y008150D01*
X013914Y007510D02*
X014154Y007750D01*
X011250Y007510D02*
X013914D01*
X011000Y007760D02*
X011250Y007510D01*
X011000Y007760D02*
Y008917D01*
X011700Y009617*
Y010346*
X006155Y006800D02*
Y007393D01*
X002252Y011295D02*
X006155Y007393D01*
X002252Y011295D02*
Y011450D01*
X003276D02*
X005995D01*
X006005Y011800*
X023760Y008950D02*
Y010330D01*
X011010Y012280D02*
X011270Y012020D01*
X012454Y012224D02*
Y012500D01*
X012250Y012020D02*
X012454Y012224D01*
Y013450D02*
X013090D01*
X013970Y012570*
X013555Y015305D02*
X014050Y015800D01*
X005555Y015305D02*
X013555D01*
X005520Y015340D02*
X005555Y015305D01*
X017700Y014750D02*
Y015991D01*
X016890Y016801D02*
X017700Y015991D01*
X014051Y016801D02*
X016890D01*
X013050Y015800D02*
X014051Y016801D01*
X017589Y009800D02*
X020010D01*
X017254Y009465D02*
X017589Y009800D01*
X018775Y005300D02*
X019520D01*
X017254Y009100D02*
Y009465D01*
X013870Y009900D02*
X014000Y010030D01*
X013235Y009900D02*
X013870D01*
X014140Y014890D02*
X015050Y015800D01*
X005229Y014890D02*
X014140D01*
X002784Y017334D02*
X005229Y014890D01*
X029000Y014400D02*
X029500Y013900D01*
X026179Y014400D02*
X029000D01*
X026160Y014420D02*
X026179Y014400D01*
X022620Y014420D02*
X026160D01*
X023910Y015010D02*
X024250Y014670D01*
X025140*
X025870Y015400*
X029000*
X029500Y014900*
X024580Y015260D02*
X025720Y016400D01*
X029000*
X029500Y015900*
X003604Y012790D02*
X004395Y013581D01*
Y013810*
X008704Y004354D02*
Y004700D01*
X008500Y004150D02*
X008704Y004354D01*
X005630Y004150D02*
X008500D01*
X001420Y008360D02*
X005630Y004150D01*
X001420Y008360D02*
Y012125D01*
X003555Y014260*
X008194*
X008454Y014000*
Y013550D02*
Y014000D01*
X020320Y003700D02*
X020351Y003731D01*
Y005950*
X019501Y006800D02*
X020351Y005950D01*
X018775Y006800D02*
X019501D01*
X027700Y012900D02*
X028200Y013400D01*
X029375*
X029500Y012900*
X021400Y008750D02*
X022175D01*
X020748Y009402D02*
X021400Y008750D01*
X020748Y009402D02*
Y010922D01*
X019329Y012341D02*
X020748Y010922D01*
X016474Y012341D02*
X019329D01*
X016190Y012625D02*
X016474Y012341D01*
X016190Y012625D02*
Y016100D01*
X016440Y016350*
X000820Y007410D02*
X004660Y003570D01*
X007640*
X010810Y000400*
X019580*
X019800Y000620*
X021800Y004200D02*
Y004937D01*
X021575Y005162D02*
X021800Y004937D01*
X021575Y005162D02*
Y006607D01*
X021351Y006831D02*
X021575Y006607D01*
X021351Y006831D02*
Y007999D01*
X021100Y008250D02*
X021351Y007999D01*
X020325Y008250D02*
X021100D01*
X019450Y008750D02*
X020325D01*
X018120Y007420D02*
X019450Y008750D01*
X016440Y007420D02*
X018120D01*
X016100Y007080D02*
X016440Y007420D01*
X016100Y002250D02*
Y007080D01*
Y002250D02*
X016950Y001400D01*
X024200*
X024400Y001600*
X006206Y007700D02*
X007796D01*
X005670Y008236D02*
X006206Y007700D01*
X005670Y008236D02*
Y010620D01*
X006200Y011150*
X008550*
X008900Y011500*
Y012850*
X008870Y012880D02*
X008900Y012850D01*
X015224Y012286D02*
Y013419D01*
X014533Y014110D02*
X015224Y013419D01*
X011310Y014110D02*
X014533D01*
X010070Y012869D02*
X011310Y014110D01*
X010070Y011390D02*
Y012869D01*
X010050Y011370D02*
X010070Y011390D01*
X010050Y010125D02*
Y011370D01*
X009915Y009990D02*
X010050Y010125D01*
X008650Y009990D02*
X009915D01*
X008400Y010240D02*
X008650Y009990D01*
X006250Y010240D02*
X008400D01*
X005920Y009910D02*
X006250Y010240D01*
X005920Y008340D02*
Y009910D01*
Y008340D02*
X006104Y008156D01*
X008779*
X012850Y004085*
Y003600D02*
Y004085D01*
X013090Y011940D02*
X013470D01*
X013570Y012040*
X014250*
X014420Y012210*
Y012780*
X013980Y013220D02*
X014420Y012780D01*
X011200Y011054D02*
X011700D01*
X011026Y011228D02*
X011200Y011054D01*
X010500Y011228D02*
X011026D01*
X010300Y011028D02*
X010500Y011228D01*
X010300Y009250D02*
Y011028D01*
X010155Y009105D02*
X010300Y009250D01*
X007950Y009105D02*
X010155D01*
X025870Y013900D02*
X028500D01*
X025600Y014170D02*
X025870Y013900D01*
X023020Y014170D02*
X025600D01*
X022450Y013600D02*
X023020Y014170D01*
X011470Y013450D02*
X011746D01*
X010990Y012970D02*
X011470Y013450D01*
X014170Y008710D02*
X014710Y009250D01*
X012770Y008710D02*
X014170D01*
X012530Y008470D02*
X012770Y008710D01*
X012010Y008470D02*
X012530D01*
X011750Y008210D02*
X012010Y008470D01*
X001800Y016350D02*
X003230D01*
X004980Y014600*
X008550*
X009570Y013580*
Y012350D02*
Y013580D01*
X009400Y012180D02*
X009570Y012350D01*
X009400Y010740D02*
Y012180D01*
X009350Y010690D02*
X009400Y010740D01*
X018300Y010946D02*
X018625D01*
X018780Y011101*
Y012091*
X016250D02*
X018780D01*
X015940Y012401D02*
X016250Y012091D01*
X015940Y012401D02*
Y013100D01*
X014660Y014380D02*
X015940Y013100D01*
X010940Y014380D02*
X014660D01*
X009820Y013260D02*
X010940Y014380D01*
X009820Y011840D02*
Y013260D01*
X009800Y011820D02*
X009820Y011840D01*
X009800Y010500D02*
Y011820D01*
X009540Y010240D02*
X009800Y010500D01*
X009050Y010240D02*
X009540D01*
X008790Y010500D02*
X009050Y010240D01*
X008790Y010500D02*
Y010810D01*
X009150Y011170*
Y012320*
X009320Y012490*
Y013180*
X008950Y013550D02*
X009320Y013180D01*
X008454Y013550D02*
X008950D01*
X019050Y012760D02*
Y012890D01*
X016700Y014000D02*
X017940Y012760D01*
X015740Y014050D02*
Y015110D01*
X015050Y015800D02*
X015740Y015110D01*
X012540Y008150D02*
X013446D01*
X012150Y007760D02*
X012540Y008150D01*
X011500Y007760D02*
X012150D01*
X011250Y008010D02*
X011500Y007760D01*
X011250Y008010D02*
Y008595D01*
X011375Y008720*
X012375*
X013095Y009440*
X014284*
X014458Y009613*
Y011238*
X014620Y011400*
X015165*
X019680Y013340D02*
X023020Y010000D01*
X018360Y013340D02*
X019680D01*
X016700Y015000D02*
X018360Y013340D01*
X010750Y009010D02*
Y010770D01*
X010146Y008406D02*
X010750Y009010D01*
X006354Y008406D02*
X010146D01*
X006170Y008590D02*
X006354Y008406D01*
X006170Y008590D02*
Y009500D01*
X006374Y009704*
X006650*
X013301Y017051D02*
X017039D01*
X012050Y015800D02*
X013301Y017051D01*
X024320Y010550D02*
Y011390D01*
X023500Y012210D02*
X024320Y011390D01*
X022490Y012210D02*
X023500D01*
X017320Y017380D02*
X022490Y012210D01*
X009730Y017380D02*
X017320D01*
X008280Y015930D02*
X009730Y017380D01*
X016546Y008150D02*
X016810D01*
Y007670D02*
X017700D01*
Y008270*
X018090Y008660*
X016060Y010400D02*
X016550Y009910D01*
X015165Y010400D02*
X016060D01*
X010630Y015990D02*
X011860D01*
X012050Y015800*
X013125Y019900D02*
X013500D01*
X013000Y019775D02*
X013125Y019900D01*
X013000Y018140D02*
Y019775D01*
X012500Y017640D02*
X013000Y018140D01*
X008000Y017640D02*
X012500D01*
X005905Y012684D02*
Y013500D01*
X004931Y011710D02*
X005905Y012684D01*
X004004Y011710D02*
X004931D01*
X003764Y011950D02*
X004004Y011710D01*
X004070Y012790D02*
X004700Y012160D01*
X003604Y012790D02*
X004070D01*
X002764Y011950D02*
X003604Y012790D01*
X021860Y017290D02*
X022000Y017430D01*
Y020150*
X021750Y020400D02*
X022000Y020150D01*
X015000Y020400D02*
X021750D01*
X014500Y019900D02*
X015000Y020400D01*
X022000Y015710D02*
Y016150D01*
X025250Y019400*
X029750*
X030000Y019150*
Y017650D02*
Y019150D01*
X029750Y017400D02*
X030000Y017650D01*
X029000Y017400D02*
X029750D01*
X028500Y018900D02*
Y019100D01*
X024450Y017760D02*
X025790Y019100D01*
X025950Y017420D02*
X027235Y018705D01*
X027906*
X028211Y018400*
X029000*
X029500Y017900*
X027810D02*
X028500D01*
X027460Y018250D02*
X027810Y017900D01*
X029500Y016900D02*
X030000Y016400D01*
Y012650D02*
Y016400D01*
X029750Y012400D02*
X030000Y012650D01*
X026490Y012400D02*
X029750D01*
X025200Y013690D02*
X026490Y012400D01*
X012800Y009900D02*
X013235D01*
X012070Y009170D02*
X012800Y009900D01*
X008208Y011850D02*
X008454D01*
X008208Y013338D02*
X008420Y013550D01*
X008454*
X013235Y011400D02*
X013830D01*
X014020Y011590*
X001764Y010281D02*
Y011950D01*
Y010281D02*
X006155Y005890D01*
Y004800D02*
Y005890D01*
X023040Y008230D02*
X023760Y008950D01*
X023040Y005360D02*
Y008230D01*
Y005360D02*
X023250Y005150D01*
X023625*
X016925Y006800D02*
X017750D01*
X018070Y007120*
X019570*
X020610Y006080*
Y004540D02*
Y006080D01*
Y004540D02*
X020770Y004380D01*
Y002970D02*
Y004380D01*
X020600Y002800D02*
X020770Y002970D01*
X016925Y005300D02*
X016930D01*
Y003990D02*
X017100Y003820D01*
Y002450D02*
Y003820D01*
Y002450D02*
X017495Y002055D01*
X020750*
X021097Y002402*
X020936Y004594D02*
Y006097D01*
X020325Y007250D02*
X020726D01*
X023100Y005000D02*
X023250Y005150D01*
X023100Y002205D02*
Y005000D01*
X022550Y001655D02*
X023100Y002205D01*
X021895Y001655D02*
X022550D01*
X021097Y002453D02*
Y004433D01*
X020936Y004594D02*
X021097Y004433D01*
X020794Y007250D02*
X020851Y007193D01*
X021347Y003053D02*
X021600Y002800D01*
X021347Y003053D02*
Y004683D01*
X021186Y004844D02*
X021347Y004683D01*
X021186Y004844D02*
Y006306D01*
X021101Y006390D02*
X021186Y006306D01*
X021101Y006390D02*
Y007359D01*
X020710Y007750D02*
X021101Y007359D01*
X020325Y007750D02*
X020710D01*
X017600Y002800D02*
X018095Y002305D01*
X019900*
X020095Y002500*
Y003250*
X019870Y003475D02*
X020095Y003250D01*
X019870Y003475D02*
Y004150D01*
X020095Y004375*
Y005690*
X019486Y006300D02*
X020095Y005690D01*
X018775Y006300D02*
X019486D01*
X022100Y002110D02*
Y003370D01*
X022250Y003520*
Y004980*
X021840Y005390D02*
X022250Y004980D01*
X021840Y005390D02*
Y006701D01*
X021601Y006940D02*
X021840Y006701D01*
X021601Y006940D02*
Y007591D01*
X021760Y007750*
X022175*
X022090Y005840D02*
X022340Y005590D01*
X022090Y007250D02*
X022175D01*
X022600Y002800D02*
Y005200D01*
X022790Y005390*
Y008125*
X022665Y008250D02*
X022790Y008125D01*
X022175Y008250D02*
X022665D01*
X025475Y006150D02*
X026350D01*
X027000Y005500*
X025620Y008500D02*
X027000D01*
X023770Y006650D02*
X025620Y008500D01*
X023625Y006650D02*
X023770D01*
X023625Y005650D02*
X024000D01*
X024340Y005310*
Y003540D02*
Y005310D01*
X024100Y003300D02*
X024340Y003540D01*
X024100Y002500D02*
Y003300D01*
Y002500D02*
X024350Y002250D01*
X029750*
X030000Y002500*
Y004275*
X029875Y004400D02*
X030000Y004275D01*
X027680Y004400D02*
X029875D01*
X027580Y004500D02*
X027680Y004400D01*
X027000Y004500D02*
X027580D01*
X016925Y006300D02*
X017350D01*
X017900Y005750*
Y003500D02*
Y005750D01*
Y003500D02*
X018600Y002800D01*
X015160Y009900D02*
X015165D01*
X015160Y009750D02*
X015810Y009100D01*
X016546*
X018200Y004200D02*
X019600Y002800D01*
X018200Y004200D02*
Y005625D01*
X018375Y005800*
X018775*
X029000Y003400D02*
X029500Y002900D01*
X027000Y003400D02*
X029000D01*
X026300Y004100D02*
X027000Y003400D01*
X026300Y004100D02*
Y004850D01*
X026000Y005150D02*
X026300Y004850D01*
X025475Y005150D02*
X026000D01*
X012544Y010900D02*
X013235D01*
X012390Y011054D02*
X012544Y010900D01*
X011700Y011054D02*
X012390D01*
X016500Y005800D02*
X016925D01*
X016350Y005650D02*
X016500Y005800D01*
X016350Y004980D02*
Y005650D01*
Y004980D02*
X016600Y004730D01*
Y002800D02*
Y004730D01*
X025050Y006650D02*
X025475D01*
X024900Y006500D02*
X025050Y006650D01*
X024900Y003500D02*
Y006500D01*
Y003500D02*
X025600Y002800D01*
X012494Y010400D02*
X013235D01*
X012440Y010346D02*
X012494Y010400D01*
X011700Y010346D02*
X012440D01*
X012454Y012500D02*
Y013450D01*
X016546Y008150D02*
Y009100D01*
X000816Y017334D02*
X002784D01*
X000816Y015366D02*
X002784D01*
X011746Y012970D02*
Y013450D01*
Y012970D02*
D01*
Y012500D02*
Y012970D01*
X017254Y008150D02*
Y009100D01*
X007140Y013550D02*
X007746D01*
X007090Y013500D02*
X007140Y013550D01*
X006495Y013500D02*
X007090D01*
X007190Y011850D02*
X007746D01*
X007140Y011800D02*
X007190Y011850D01*
X006595Y011800D02*
X007140D01*
X007390Y006750D02*
X007996D01*
X007340Y006800D02*
X007390Y006750D01*
X006745Y006800D02*
X007340D01*
X007420Y004700D02*
X007996D01*
X007320Y004800D02*
X007420Y004700D01*
X006745Y004800D02*
X007320D01*
X016175Y010955D02*
X017150D01*
X016120Y010900D02*
X016175Y010955D01*
X015165Y010900D02*
X016120D01*
X017729Y010946D02*
X018300D01*
X017720Y010955D02*
X017729Y010946D01*
X017150Y010955D02*
X017720D01*
X008704Y004700D02*
Y006750D01*
X016225Y011545D02*
X017150D01*
X016080Y011400D02*
X016225Y011545D01*
X015165Y011400D02*
X016080D01*
X017779Y011654D02*
X018300D01*
X017670Y011545D02*
X017779Y011654D01*
X017150Y011545D02*
X017670D01*
X007349Y009105D02*
X007950D01*
X007240Y008996D02*
X007349Y009105D01*
X006650Y008996D02*
X007240D01*
X007299Y009695D02*
X007950D01*
X007290Y009704D02*
X007299Y009695D01*
X006650Y009704D02*
X007290D01*
X030400Y000000D02*
Y020750D01*
X000000D02*
X030400D01*
X000000Y000000D02*
X030400D01*
X000000D02*
Y020750D01*
G54D24*
X011500Y000900D03*
X028500Y002900D03*
X016600Y002800D03*
X028500Y019900D03*
X009500D03*
X020500Y000900D03*
X012050Y015800D03*
X001000Y019900D03*
X018500D03*
X004500Y000900D03*
G54D25*
X012500Y000900D03*
X013500D03*
X014500D03*
X015500D03*
X016500D03*
X017500D03*
X018500D03*
X029500Y002900D03*
X026600Y002800D03*
X025600D03*
X024600D03*
X023600D03*
X022600D03*
X021600D03*
X020600D03*
X019600D03*
X018600D03*
X017600D03*
X029500Y019900D03*
X010500D03*
X011500D03*
X012500D03*
X013500D03*
X014500D03*
X015500D03*
X016500D03*
X021500Y000900D03*
X022500D03*
X023500D03*
X024500D03*
X025500D03*
X026500D03*
X027500D03*
X028500Y003900D03*
X029500Y004900D03*
X028500D03*
X029500Y005900D03*
X028500D03*
X029500Y006900D03*
X028500D03*
X029500Y007900D03*
X028500D03*
X029500Y008900D03*
X028500D03*
X029500Y009900D03*
X028500D03*
X029500Y010900D03*
X028500D03*
X015050Y015800D03*
X014050D03*
X013050D03*
X002000Y019900D03*
X003000D03*
X004000D03*
X005000D03*
X006000D03*
X007000D03*
X008000D03*
X019500D03*
X020500D03*
X021500D03*
X022500D03*
X023500D03*
X024500D03*
X025500D03*
X005500Y000900D03*
X006500D03*
X007500D03*
X008500D03*
X009500D03*
X028500Y011900D03*
X029500Y012900D03*
X028500D03*
X029500Y013900D03*
X028500D03*
X029500Y014900D03*
X028500D03*
X029500Y015900D03*
X028500D03*
X029500Y016900D03*
X028500D03*
X029500Y017900D03*
X028500D03*
X029500Y018900D03*
X028500D03*
X016700Y015000D03*
Y014000D03*
X027000Y005500D03*
Y006500D03*
Y007500D03*
Y008500D03*
G54D26*
X029500Y003900D03*
Y011900D03*
X016700Y013000D03*
X027000Y004500D03*
G54D27*
X000816Y017334D03*
X002784D03*
Y015366D03*
X000816D03*
X001800Y016350D03*
G54D28*
X003764Y011950D03*
G54D29*
X002252Y011450D03*
X003276D03*
X001764Y011950D03*
X002764D03*
G54D30*
X022570Y009270D03*
X021370Y009780D03*
X019440Y014160D03*
X011010Y012280D03*
X012000Y011692D03*
X013970Y012570D03*
X005520Y015340D03*
X017700Y014750D03*
X020010Y009800D03*
X019520Y005300D03*
X014000Y010030D03*
X022620Y014420D03*
X023910Y015010D03*
X024580Y015260D03*
X004395Y013810D03*
X020320Y003700D03*
X027700Y012900D03*
X016440Y016350D03*
X000820Y007410D03*
X019800Y000620D03*
X021800Y004200D03*
X024400Y001600D03*
X007796Y007700D03*
X008870Y012880D03*
X015224Y012286D03*
X012850Y003600D03*
X013090Y011940D03*
X013980Y013220D03*
X022450Y013600D03*
X010990Y012970D03*
X011750Y008210D03*
X009350Y010690D03*
X019050Y012890D03*
X015740Y014050D03*
X023020Y010000D03*
X010750Y010770D03*
X023760Y008950D03*
X024320Y010550D03*
X008280Y015930D03*
X018090Y008660D03*
X016550Y009910D03*
X010630Y015990D03*
X008000Y017640D03*
X004700Y012160D03*
X021860Y017290D03*
X022000Y015710D03*
X029000Y017400D03*
X024450Y017760D03*
X025950Y017420D03*
X027460Y018250D03*
X025200Y013690D03*
X012070Y009170D03*
X014020Y011590D03*
X022100Y002110D03*
X022340Y005590D03*
G54D31*
X007950Y009695D03*
Y009105D03*
X017150Y011545D03*
Y010955D03*
G54D32*
X013235Y009900D03*
Y010400D03*
Y010900D03*
Y011400D03*
X015165Y009900D03*
Y010400D03*
Y010900D03*
Y011400D03*
G54D33*
X018775Y006800D03*
Y006300D03*
Y005800D03*
Y005300D03*
X016925Y006800D03*
Y006300D03*
Y005800D03*
Y005300D03*
X022175Y008750D03*
Y008250D03*
Y007750D03*
Y007250D03*
X020325Y008750D03*
Y008250D03*
Y007750D03*
Y007250D03*
X023625Y005150D03*
Y005650D03*
Y006150D03*
Y006650D03*
X025475Y005150D03*
Y005650D03*
Y006150D03*
Y006650D03*
M02*