%FSDAX24Y24*%
%MOIN*%
%SFA1B1*%

%IPPOS*%
%ADD23C,0.010000*%
%ADD34C,0.023600*%
%ADD35C,0.009800*%
%ADD36C,0.007900*%
%ADD37C,0.003900*%
%ADD38C,0.008000*%
%LNpcb_csn_v3_1-1*%
%LPD*%
G54D23*
X001150Y012450D02*
X004398D01*
X001150Y008926D02*
Y012450D01*
X001160Y008917D02*
X004369D01*
X004398Y008946D02*
Y012450D01*
X004616Y015466D02*
X006584D01*
X004616Y017434D02*
X006584D01*
X004616Y015466D02*
Y015663D01*
Y017237D02*
Y017434D01*
X006584Y015466D02*
Y015958D01*
Y016942D02*
Y017434D01*
X012840Y006440D02*
Y007040D01*
X013140*
X013240Y006940*
Y006740*
X013140Y006640*
X012840*
X013040D02*
X013240Y006440D01*
X013840D02*
X013440D01*
X013840Y006840*
Y006940*
X013740Y007040*
X013540*
X013440Y006940*
X014040Y006540D02*
X014140Y006440D01*
X014340*
X014439Y006540*
Y006940*
X014340Y007040*
X014140*
X014040Y006940*
Y006840*
X014140Y006740*
X014439*
X009090Y011940D02*
Y012540D01*
X009390*
X009490Y012440*
Y012240*
X009390Y012140*
X009090*
X009290D02*
X009490Y011940D01*
X010090Y012540D02*
X009890Y012440D01*
X009690Y012240*
Y012040*
X009790Y011940*
X009990*
X010090Y012040*
Y012140*
X009990Y012240*
X009690*
X015120Y010200D02*
Y009700D01*
X015220Y009600*
X015420*
X015520Y009700*
Y010200*
X015720Y010100D02*
X015820Y010200D01*
X016020*
X016120Y010100*
Y010000*
X016020Y009900*
X016120Y009800*
Y009700*
X016020Y009600*
X015820*
X015720Y009700*
Y009800*
X015820Y009900*
X015720Y010000*
Y010100*
X015820Y009900D02*
X016020D01*
X009520Y006000D02*
Y005500D01*
X009620Y005400*
X009820*
X009920Y005500*
Y006000*
X010120D02*
X010520D01*
Y005900*
X010120Y005500*
Y005400*
X007795Y018565D02*
Y018065D01*
X007895Y017965*
X008095*
X008195Y018065*
Y018565*
X008795D02*
X008595Y018465D01*
X008395Y018265*
Y018065*
X008495Y017965*
X008695*
X008795Y018065*
Y018165*
X008695Y018265*
X008395*
X007050Y009350D02*
Y008850D01*
X007150Y008750*
X007350*
X007450Y008850*
Y009350*
X008050D02*
X007650D01*
Y009050*
X007850Y009150*
X007950*
X008050Y009050*
Y008850*
X007950Y008750*
X007750*
X007650Y008850*
X001195Y013395D02*
Y012895D01*
X001295Y012795*
X001495*
X001595Y012895*
Y013395*
X001795Y012795D02*
X001995D01*
X001895*
Y013395*
X001795Y013295*
X013150Y012800D02*
X013050Y012900D01*
X012850*
X012750Y012800*
Y012700*
X012850Y012600*
X013050*
X013150Y012500*
Y012400*
X013050Y012300*
X012850*
X012750Y012400*
X013350Y012700D02*
Y012400D01*
X013450Y012300*
X013550Y012400*
X013650Y012300*
X013750Y012400*
Y012700*
X013950Y012300D02*
X014150D01*
X014050*
Y012700*
X013950*
X014549Y012800D02*
Y012700D01*
X014449*
X014649*
X014549*
Y012400*
X014649Y012300*
X015349Y012700D02*
X015049D01*
X014949Y012600*
Y012400*
X015049Y012300*
X015349*
X015549Y012900D02*
Y012300D01*
Y012600*
X015649Y012700*
X015849*
X015949Y012600*
Y012300*
X016149D02*
X016349D01*
X016249*
Y012900*
X016149Y012800*
X015005Y005655D02*
Y006255D01*
X015305*
X015405Y006155*
Y005955*
X015305Y005855*
X015005*
X015205D02*
X015405Y005655D01*
X016005D02*
X015605D01*
X016005Y006055*
Y006155*
X015905Y006255*
X015705*
X015605Y006155*
X016205D02*
X016305Y006255D01*
X016505*
X016604Y006155*
Y006055*
X016505Y005955*
X016604Y005855*
Y005755*
X016505Y005655*
X016305*
X016205Y005755*
Y005855*
X016305Y005955*
X016205Y006055*
Y006155*
X016305Y005955D02*
X016505D01*
X006600Y007400D02*
Y008000D01*
X006900*
X007000Y007900*
Y007700*
X006900Y007600*
X006600*
X006800D02*
X007000Y007400D01*
X007600D02*
X007200D01*
X007600Y007800*
Y007900*
X007500Y008000*
X007300*
X007200Y007900*
X008199Y008000D02*
X007800D01*
Y007700*
X008000Y007800*
X008100*
X008199Y007700*
Y007500*
X008100Y007400*
X007900*
X007800Y007500*
X004475Y017785D02*
Y018385D01*
X004775*
X004875Y018285*
Y018085*
X004775Y017985*
X004475*
X004675D02*
X004875Y017785D01*
X005475D02*
X005075D01*
X005475Y018185*
Y018285*
X005375Y018385*
X005175*
X005075Y018285*
X005675D02*
X005775Y018385D01*
X005975*
X006074Y018285*
Y018185*
X005975Y018085*
X005875*
X005975*
X006074Y017985*
Y017885*
X005975Y017785*
X005775*
X005675Y017885*
X006550Y004150D02*
Y004750D01*
X006850*
X006950Y004650*
Y004450*
X006850Y004350*
X006550*
X006750D02*
X006950Y004150D01*
X007550D02*
X007150D01*
X007550Y004550*
Y004650*
X007450Y004750*
X007250*
X007150Y004650*
X007750Y004150D02*
X007950D01*
X007850*
Y004750*
X007750Y004650*
X009305Y015105D02*
Y015705D01*
X009605*
X009705Y015605*
Y015405*
X009605Y015305*
X009305*
X009505D02*
X009705Y015105D01*
X010305D02*
X009905D01*
X010305Y015505*
Y015605*
X010205Y015705*
X010005*
X009905Y015605*
X010505D02*
X010605Y015705D01*
X010805*
X010904Y015605*
Y015205*
X010805Y015105*
X010605*
X010505Y015205*
Y015605*
X010690Y014340D02*
Y014940D01*
X010990*
X011090Y014840*
Y014640*
X010990Y014540*
X010690*
X010890D02*
X011090Y014340D01*
X011290D02*
X011490D01*
X011390*
Y014940*
X011290Y014840*
X011790D02*
X011890Y014940D01*
X012090*
X012190Y014840*
Y014740*
X012090Y014640*
X012190Y014540*
Y014440*
X012090Y014340*
X011890*
X011790Y014440*
Y014540*
X011890Y014640*
X011790Y014740*
Y014840*
X011890Y014640D02*
X012090D01*
X003650Y005400D02*
Y006000D01*
X003950*
X004050Y005900*
Y005700*
X003950Y005600*
X003650*
X003850D02*
X004050Y005400D01*
X004650Y006000D02*
X004250D01*
Y005700*
X004450Y005800*
X004550*
X004650Y005700*
Y005500*
X004550Y005400*
X004350*
X004250Y005500*
X004700Y008550D02*
Y009150D01*
X005000*
X005100Y009050*
Y008850*
X005000Y008750*
X004700*
X004900D02*
X005100Y008550D01*
X005600D02*
Y009150D01*
X005300Y008850*
X005700*
X005000Y010600D02*
Y011200D01*
X005300*
X005400Y011100*
Y010900*
X005300Y010800*
X005000*
X005200D02*
X005400Y010600D01*
X005600Y011100D02*
X005700Y011200D01*
X005900*
X006000Y011100*
Y011000*
X005900Y010900*
X005800*
X005900*
X006000Y010800*
Y010700*
X005900Y010600*
X005700*
X005600Y010700*
X001400Y005650D02*
Y006250D01*
X001700*
X001800Y006150*
Y005950*
X001700Y005850*
X001400*
X001600D02*
X001800Y005650D01*
X002400D02*
X002000D01*
X002400Y006050*
Y006150*
X002300Y006250*
X002100*
X002000Y006150*
X000250Y007600D02*
Y008200D01*
X000550*
X000650Y008100*
Y007900*
X000550Y007800*
X000250*
X000450D02*
X000650Y007600D01*
X000850D02*
X001050D01*
X000950*
Y008200*
X000850Y008100*
X016160Y003640D02*
Y004240D01*
X016460*
X016560Y004140*
Y003940*
X016460Y003840*
X016160*
X016760Y003640D02*
X016960D01*
X016860*
Y004240*
X016760Y004140*
X017260D02*
X017360Y004240D01*
X017560*
X017660Y004140*
Y004040*
X017560Y003940*
X017460*
X017560*
X017660Y003840*
Y003740*
X017560Y003640*
X017360*
X017260Y003740*
X028065Y020625D02*
Y021225D01*
X028365*
X028465Y021125*
Y020925*
X028365Y020825*
X028065*
X028665Y020625D02*
X028865D01*
X028765*
Y021225*
X028665Y021125*
X029565Y020625D02*
X029165D01*
X029565Y021025*
Y021125*
X029465Y021225*
X029265*
X029165Y021125*
X011610Y016640D02*
Y017240D01*
X011910*
X012010Y017140*
Y016940*
X011910Y016840*
X011610*
X012210Y016640D02*
X012410D01*
X012310*
Y017240*
X012210Y017140*
X012710Y016640D02*
X012910D01*
X012810*
Y017240*
X012710Y017140*
X028400Y001450D02*
Y002050D01*
X028700*
X028800Y001950*
Y001750*
X028700Y001650*
X028400*
X029000Y001450D02*
X029200D01*
X029100*
Y002050*
X029000Y001950*
X029500D02*
X029600Y002050D01*
X029800*
X029900Y001950*
Y001550*
X029800Y001450*
X029600*
X029500Y001550*
Y001950*
X028060Y020740D02*
Y021340D01*
X028360*
X028460Y021240*
Y021040*
X028360Y020940*
X028060*
X028660Y020840D02*
X028760Y020740D01*
X028960*
X029060Y020840*
Y021240*
X028960Y021340*
X028760*
X028660Y021240*
Y021140*
X028760Y021040*
X029060*
X000560Y020740D02*
Y021340D01*
X000860*
X000960Y021240*
Y021040*
X000860Y020940*
X000560*
X001160Y021240D02*
X001260Y021340D01*
X001460*
X001560Y021240*
Y021140*
X001460Y021040*
X001560Y020940*
Y020840*
X001460Y020740*
X001260*
X001160Y020840*
Y020940*
X001260Y021040*
X001160Y021140*
Y021240*
X001260Y021040D02*
X001460D01*
X009060Y020740D02*
Y021340D01*
X009360*
X009460Y021240*
Y021040*
X009360Y020940*
X009060*
X009660Y021340D02*
X010060D01*
Y021240*
X009660Y020840*
Y020740*
X018060D02*
Y021340D01*
X018360*
X018460Y021240*
Y021040*
X018360Y020940*
X018060*
X019060Y021340D02*
X018860Y021240D01*
X018660Y021040*
Y020840*
X018760Y020740*
X018960*
X019060Y020840*
Y020940*
X018960Y021040*
X018660*
X014500Y001750D02*
Y002350D01*
X014800*
X014900Y002250*
Y002050*
X014800Y001950*
X014500*
X015500Y002350D02*
X015100D01*
Y002050*
X015300Y002150*
X015400*
X015500Y002050*
Y001850*
X015400Y001750*
X015200*
X015100Y001850*
X004060Y001740D02*
Y002340D01*
X004360*
X004460Y002240*
Y002040*
X004360Y001940*
X004060*
X004960Y001740D02*
Y002340D01*
X004660Y002040*
X005060*
X020060Y001740D02*
Y002340D01*
X020360*
X020460Y002240*
Y002040*
X020360Y001940*
X020060*
X020660Y002240D02*
X020760Y002340D01*
X020960*
X021060Y002240*
Y002140*
X020960Y002040*
X020860*
X020960*
X021060Y001940*
Y001840*
X020960Y001740*
X020760*
X020660Y001840*
X028065Y012625D02*
Y013225D01*
X028365*
X028465Y013125*
Y012925*
X028365Y012825*
X028065*
X029065Y012625D02*
X028665D01*
X029065Y013025*
Y013125*
X028965Y013225*
X028765*
X028665Y013125*
X000385Y018165D02*
Y018765D01*
X000685*
X000785Y018665*
Y018465*
X000685Y018365*
X000385*
X000985Y018165D02*
X001185D01*
X001085*
Y018765*
X000985Y018665*
X019300Y011200D02*
X019400Y011100D01*
X019600*
X019700Y011200*
Y011600*
X019600Y011700*
X019400*
X019300Y011600*
X019100Y011200D02*
X019000Y011100D01*
X018800*
X018700Y011200*
Y011300*
X018800Y011400*
X018900*
X018800*
X018700Y011500*
Y011600*
X018800Y011700*
X019000*
X019100Y011600*
X018500Y011200D02*
X018400Y011100D01*
X018200*
X018101Y011200*
Y011300*
X018200Y011400*
X018101Y011500*
Y011600*
X018200Y011700*
X018400*
X018500Y011600*
Y011500*
X018400Y011400*
X018500Y011300*
Y011200*
X018400Y011400D02*
X018200D01*
X023250Y011600D02*
X023150Y011700D01*
X022950*
X022850Y011600*
Y011200*
X022950Y011100*
X023150*
X023250Y011200*
X023450Y011600D02*
X023550Y011700D01*
X023750*
X023850Y011600*
Y011500*
X023750Y011400*
X023650*
X023750*
X023850Y011300*
Y011200*
X023750Y011100*
X023550*
X023450Y011200*
X024050Y011700D02*
X024449D01*
Y011600*
X024050Y011200*
Y011100*
X022500Y017950D02*
X022600Y017850D01*
X022800*
X022900Y017950*
Y018350*
X022800Y018450*
X022600*
X022500Y018350*
X022300Y017950D02*
X022200Y017850D01*
X022000*
X021900Y017950*
Y018050*
X022000Y018150*
X022100*
X022000*
X021900Y018250*
Y018350*
X022000Y018450*
X022200*
X022300Y018350*
X021301Y017850D02*
X021500Y017950D01*
X021700Y018150*
Y018350*
X021600Y018450*
X021400*
X021301Y018350*
Y018250*
X021400Y018150*
X021700*
X021300Y010100D02*
X021400Y010000D01*
X021600*
X021700Y010100*
Y010500*
X021600Y010600*
X021400*
X021300Y010500*
X021100Y010100D02*
X021000Y010000D01*
X020800*
X020700Y010100*
Y010200*
X020800Y010300*
X020900*
X020800*
X020700Y010400*
Y010500*
X020800Y010600*
X021000*
X021100Y010500*
X020101Y010000D02*
X020500D01*
Y010300*
X020300Y010200*
X020200*
X020101Y010300*
Y010500*
X020200Y010600*
X020400*
X020500Y010500*
X017450Y018550D02*
X017350Y018650D01*
X017150*
X017050Y018550*
Y018150*
X017150Y018050*
X017350*
X017450Y018150*
X017650Y018550D02*
X017750Y018650D01*
X017950*
X018050Y018550*
Y018450*
X017950Y018350*
X017850*
X017950*
X018050Y018250*
Y018150*
X017950Y018050*
X017750*
X017650Y018150*
X018550Y018050D02*
Y018650D01*
X018250Y018350*
X018649*
X011850Y010300D02*
X011750Y010400D01*
X011550*
X011450Y010300*
Y009900*
X011550Y009800*
X011750*
X011850Y009900*
X012050Y010300D02*
X012150Y010400D01*
X012350*
X012450Y010300*
Y010200*
X012350Y010100*
X012250*
X012350*
X012450Y010000*
Y009900*
X012350Y009800*
X012150*
X012050Y009900*
X012650Y010300D02*
X012750Y010400D01*
X012950*
X013049Y010300*
Y010200*
X012950Y010100*
X012850*
X012950*
X013049Y010000*
Y009900*
X012950Y009800*
X012750*
X012650Y009900*
X013250Y007750D02*
X013150Y007850D01*
X012950*
X012850Y007750*
Y007350*
X012950Y007250*
X013150*
X013250Y007350*
X013450Y007750D02*
X013550Y007850D01*
X013750*
X013850Y007750*
Y007650*
X013750Y007550*
X013650*
X013750*
X013850Y007450*
Y007350*
X013750Y007250*
X013550*
X013450Y007350*
X014449Y007250D02*
X014050D01*
X014449Y007650*
Y007750*
X014350Y007850*
X014150*
X014050Y007750*
X018850Y007650D02*
X018750Y007750D01*
X018550*
X018450Y007650*
Y007250*
X018550Y007150*
X018750*
X018850Y007250*
X019050Y007650D02*
X019150Y007750D01*
X019350*
X019450Y007650*
Y007550*
X019350Y007450*
X019250*
X019350*
X019450Y007350*
Y007250*
X019350Y007150*
X019150*
X019050Y007250*
X019650Y007150D02*
X019850D01*
X019750*
Y007750*
X019650Y007650*
X017900Y005300D02*
X017800Y005400D01*
X017600*
X017500Y005300*
Y004900*
X017600Y004800*
X017800*
X017900Y004900*
X018100Y005300D02*
X018200Y005400D01*
X018400*
X018500Y005300*
Y005200*
X018400Y005100*
X018300*
X018400*
X018500Y005000*
Y004900*
X018400Y004800*
X018200*
X018100Y004900*
X018700Y005300D02*
X018800Y005400D01*
X019000*
X019099Y005300*
Y004900*
X019000Y004800*
X018800*
X018700Y004900*
Y005300*
X017105Y012605D02*
X017005Y012705D01*
X016805*
X016705Y012605*
Y012205*
X016805Y012105*
X017005*
X017105Y012205*
X017705Y012105D02*
X017305D01*
X017705Y012505*
Y012605*
X017605Y012705*
X017405*
X017305Y012605*
X017905Y012205D02*
X018005Y012105D01*
X018205*
X018304Y012205*
Y012605*
X018205Y012705*
X018005*
X017905Y012605*
Y012505*
X018005Y012405*
X018304*
X010110Y018410D02*
X010010Y018510D01*
X009810*
X009710Y018410*
Y018010*
X009810Y017910*
X010010*
X010110Y018010*
X010710Y017910D02*
X010310D01*
X010710Y018310*
Y018410*
X010610Y018510*
X010410*
X010310Y018410*
X010910D02*
X011010Y018510D01*
X011210*
X011309Y018410*
Y018310*
X011210Y018210*
X011309Y018110*
Y018010*
X011210Y017910*
X011010*
X010910Y018010*
Y018110*
X011010Y018210*
X010910Y018310*
Y018410*
X011010Y018210D02*
X011210D01*
X011410Y008460D02*
X011310Y008560D01*
X011110*
X011010Y008460*
Y008060*
X011110Y007960*
X011310*
X011410Y008060*
X012010Y007960D02*
X011610D01*
X012010Y008360*
Y008460*
X011910Y008560*
X011710*
X011610Y008460*
X012609Y008560D02*
X012210D01*
Y008260*
X012410Y008360*
X012510*
X012609Y008260*
Y008060*
X012510Y007960*
X012310*
X012210Y008060*
X007650Y012600D02*
X007550Y012700D01*
X007350*
X007250Y012600*
Y012200*
X007350Y012100*
X007550*
X007650Y012200*
X008250Y012100D02*
X007850D01*
X008250Y012500*
Y012600*
X008150Y012700*
X007950*
X007850Y012600*
X008750Y012100D02*
Y012700D01*
X008450Y012400*
X008849*
X005825Y014235D02*
X005725Y014335D01*
X005525*
X005425Y014235*
Y013835*
X005525Y013735*
X005725*
X005825Y013835*
X006425Y013735D02*
X006025D01*
X006425Y014135*
Y014235*
X006325Y014335*
X006125*
X006025Y014235*
X004025D02*
X003925Y014335D01*
X003725*
X003625Y014235*
Y013835*
X003725Y013735*
X003925*
X004025Y013835*
X004225Y013735D02*
X004425D01*
X004325*
Y014335*
X004225Y014235*
X016800Y016800D02*
Y017200D01*
X017000Y017400*
X017200Y017200*
Y016800*
Y017100*
X016800*
X017400Y017400D02*
Y016800D01*
X017700*
X017800Y016900*
Y017300*
X017700Y017400*
X017400*
X018399Y017300D02*
X018300Y017400D01*
X018100*
X018000Y017300*
Y016900*
X018100Y016800*
X018300*
X018399Y016900*
X018599Y016800D02*
X018799D01*
X018699*
Y017400*
X018599Y017300*
X025250Y007900D02*
X025350Y007800D01*
X025550*
X025650Y007900*
Y008300*
X025550Y008400*
X025350*
X025250Y008300*
X025050Y007900D02*
X024950Y007800D01*
X024750*
X024650Y007900*
Y008000*
X024750Y008100*
X024850*
X024750*
X024650Y008200*
Y008300*
X024750Y008400*
X024950*
X025050Y008300*
X024440Y011040D02*
X024340Y011140D01*
X024140*
X024040Y011040*
Y010640*
X024140Y010540*
X024340*
X024440Y010640*
X024940Y010540D02*
Y011140D01*
X024640Y010840*
X025040*
X020590Y007290D02*
X020490Y007390D01*
X020290*
X020190Y007290*
Y006890*
X020290Y006790*
X020490*
X020590Y006890*
X021190Y007390D02*
X020790D01*
Y007090*
X020990Y007190*
X021090*
X021190Y007090*
Y006890*
X021090Y006790*
X020890*
X020790Y006890*
X020400Y004600D02*
X020300Y004700D01*
X020100*
X020000Y004600*
Y004200*
X020100Y004100*
X020300*
X020400Y004200*
X021000Y004700D02*
X020800Y004600D01*
X020600Y004400*
Y004200*
X020700Y004100*
X020900*
X021000Y004200*
Y004300*
X020900Y004400*
X020600*
X023045Y005795D02*
X022945Y005895D01*
X022745*
X022645Y005795*
Y005395*
X022745Y005295*
X022945*
X023045Y005395*
X023245Y005895D02*
X023645D01*
Y005795*
X023245Y005395*
Y005295*
X016265Y015835D02*
Y016435D01*
X016565*
X016665Y016335*
Y016135*
X016565Y016035*
X016265*
X016865Y015835D02*
X017065D01*
X016965*
Y016435*
X016865Y016335*
X017765Y016435D02*
X017365D01*
Y016135*
X017565Y016235*
X017665*
X017765Y016135*
Y015935*
X017665Y015835*
X017465*
X017365Y015935*
X017100Y009950D02*
X017000Y010050D01*
X016800*
X016700Y009950*
Y009850*
X016800Y009750*
X017000*
X017100Y009650*
Y009550*
X017000Y009450*
X016800*
X016700Y009550*
X017300Y009850D02*
Y009550D01*
X017400Y009450*
X017500Y009550*
X017600Y009450*
X017700Y009550*
Y009850*
X017900Y009450D02*
X018100D01*
X018000*
Y009850*
X017900*
X018499Y009950D02*
Y009850D01*
X018399*
X018599*
X018499*
Y009550*
X018599Y009450*
X019299Y009850D02*
X018999D01*
X018899Y009750*
Y009550*
X018999Y009450*
X019299*
X019499Y010050D02*
Y009450D01*
Y009750*
X019599Y009850*
X019799*
X019899Y009750*
Y009450*
X020499D02*
X020099D01*
X020499Y009850*
Y009950*
X020399Y010050*
X020199*
X020099Y009950*
X024635Y007255D02*
X024535Y007355D01*
X024335*
X024235Y007255*
Y007155*
X024335Y007055*
X024535*
X024635Y006955*
Y006855*
X024535Y006755*
X024335*
X024235Y006855*
X024835Y007155D02*
Y006855D01*
X024935Y006755*
X025035Y006855*
X025135Y006755*
X025235Y006855*
Y007155*
X025435Y006755D02*
X025635D01*
X025535*
Y007155*
X025435*
X026034Y007255D02*
Y007155D01*
X025934*
X026134*
X026034*
Y006855*
X026134Y006755*
X026834Y007155D02*
X026534D01*
X026434Y007055*
Y006855*
X026534Y006755*
X026834*
X027034Y007355D02*
Y006755D01*
Y007055*
X027134Y007155*
X027334*
X027434Y007055*
Y006755*
X027634Y007255D02*
X027734Y007355D01*
X027934*
X028034Y007255*
Y007155*
X027934Y007055*
X027834*
X027934*
X028034Y006955*
Y006855*
X027934Y006755*
X027734*
X027634Y006855*
X021250Y009630D02*
Y009130D01*
X021350Y009030*
X021550*
X021650Y009130*
Y009630*
X022250Y009030D02*
X021850D01*
X022250Y009430*
Y009530*
X022150Y009630*
X021950*
X021850Y009530*
X026565Y009335D02*
Y009935D01*
X026865*
X026965Y009835*
Y009635*
X026865Y009535*
X026565*
X027165Y009335D02*
X027365D01*
X027265*
Y009935*
X027165Y009835*
X027965Y009335D02*
Y009935D01*
X027665Y009635*
X028065*
X014700Y015050D02*
X014600Y015150D01*
X014400*
X014300Y015050*
Y014950*
X014400Y014850*
X014600*
X014700Y014750*
Y014650*
X014600Y014550*
X014400*
X014300Y014650*
X014900Y014950D02*
Y014650D01*
X015000Y014550*
X015100Y014650*
X015200Y014550*
X015300Y014650*
Y014950*
X015500Y014550D02*
X015700D01*
X015600*
Y014950*
X015500*
X016099Y015050D02*
Y014950D01*
X015999*
X016199*
X016099*
Y014650*
X016199Y014550*
X016899Y014950D02*
X016599D01*
X016499Y014850*
Y014650*
X016599Y014550*
X016899*
X017099Y015150D02*
Y014550D01*
Y014850*
X017199Y014950*
X017399*
X017499Y014850*
Y014550*
X017999D02*
Y015150D01*
X017699Y014850*
X018099*
X012305Y008455D02*
X012205Y008555D01*
X012005*
X011905Y008455*
Y008055*
X012005Y007955*
X012205*
X012305Y008055*
X012905Y007955D02*
X012505D01*
X012905Y008355*
Y008455*
X012805Y008555*
X012605*
X012505Y008455*
X013504Y008555D02*
X013305Y008455D01*
X013105Y008255*
Y008055*
X013205Y007955*
X013405*
X013504Y008055*
Y008155*
X013405Y008255*
X013105*
X006700Y010200D02*
X006600Y010300D01*
X006400*
X006300Y010200*
Y009800*
X006400Y009700*
X006600*
X006700Y009800*
X007300Y009700D02*
X006900D01*
X007300Y010100*
Y010200*
X007200Y010300*
X007000*
X006900Y010200*
X007500Y010300D02*
X007899D01*
Y010200*
X007500Y009800*
Y009700*
G54D34*
X019649Y013863D02*
D01*
X019648Y013871*
X019647Y013879*
X019646Y013887*
X019644Y013895*
X019641Y013903*
X019638Y013910*
X019635Y013918*
X019631Y013925*
X019626Y013932*
X019621Y013938*
X019615Y013944*
X019609Y013950*
X019603Y013955*
X019596Y013960*
X019590Y013965*
X019582Y013969*
X019575Y013972*
X019567Y013975*
X019559Y013977*
X019551Y013979*
X019543Y013980*
X019535Y013980*
X019526*
X019518Y013980*
X019510Y013979*
X019502Y013977*
X019494Y013975*
X019486Y013972*
X019479Y013969*
X019472Y013965*
X019465Y013960*
X019458Y013955*
X019452Y013950*
X019446Y013944*
X019440Y013938*
X019435Y013932*
X019430Y013925*
X019426Y013918*
X019423Y013910*
X019420Y013903*
X019417Y013895*
X019415Y013887*
X019414Y013879*
X019413Y013871*
X019413Y013863*
X019413Y013854*
X019414Y013846*
X019415Y013838*
X019417Y013830*
X019420Y013822*
X019423Y013815*
X019426Y013807*
X019430Y013800*
X019435Y013793*
X019440Y013787*
X019446Y013781*
X019452Y013775*
X019458Y013770*
X019465Y013765*
X019472Y013760*
X019479Y013756*
X019486Y013753*
X019494Y013750*
X019502Y013748*
X019510Y013746*
X019518Y013745*
X019526Y013745*
X019535*
X019543Y013745*
X019551Y013746*
X019559Y013748*
X019567Y013750*
X019575Y013753*
X019582Y013756*
X019590Y013760*
X019596Y013765*
X019603Y013770*
X019609Y013775*
X019615Y013781*
X019621Y013787*
X019626Y013793*
X019631Y013800*
X019635Y013807*
X019638Y013815*
X019641Y013822*
X019644Y013830*
X019646Y013838*
X019647Y013846*
X019648Y013854*
X019649Y013863*
G54D35*
X019165Y012859D02*
D01*
X019164Y012862*
X019164Y012865*
X019163Y012869*
X019163Y012872*
X019162Y012875*
X019160Y012878*
X019159Y012882*
X019157Y012884*
X019155Y012887*
X019153Y012890*
X019151Y012893*
X019148Y012895*
X019146Y012897*
X019143Y012899*
X019140Y012901*
X019137Y012903*
X019134Y012904*
X019131Y012905*
X019127Y012906*
X019124Y012907*
X019121Y012907*
X019117Y012907*
X019114*
X019110Y012907*
X019107Y012907*
X019104Y012906*
X019100Y012905*
X019097Y012904*
X019094Y012903*
X019091Y012901*
X019088Y012899*
X019085Y012897*
X019083Y012895*
X019080Y012893*
X019078Y012890*
X019076Y012887*
X019074Y012884*
X019072Y012882*
X019071Y012878*
X019069Y012875*
X019068Y012872*
X019068Y012869*
X019067Y012865*
X019067Y012862*
X019067Y012859*
X019067Y012855*
X019067Y012852*
X019068Y012848*
X019068Y012845*
X019069Y012842*
X019071Y012839*
X019072Y012835*
X019074Y012833*
X019076Y012830*
X019078Y012827*
X019080Y012824*
X019083Y012822*
X019085Y012820*
X019088Y012818*
X019091Y012816*
X019094Y012814*
X019097Y012813*
X019100Y012812*
X019104Y012811*
X019107Y012810*
X019110Y012810*
X019114Y012810*
X019117*
X019121Y012810*
X019124Y012810*
X019127Y012811*
X019131Y012812*
X019134Y012813*
X019137Y012814*
X019140Y012816*
X019143Y012818*
X019146Y012820*
X019148Y012822*
X019151Y012824*
X019153Y012827*
X019155Y012830*
X019157Y012833*
X019159Y012835*
X019160Y012839*
X019162Y012842*
X019163Y012845*
X019163Y012848*
X019164Y012852*
X019164Y012855*
X019165Y012859*
X014181Y010678D02*
D01*
X014180Y010681*
X014180Y010684*
X014179Y010688*
X014179Y010691*
X014178Y010694*
X014176Y010697*
X014175Y010701*
X014173Y010703*
X014171Y010706*
X014169Y010709*
X014167Y010712*
X014164Y010714*
X014162Y010716*
X014159Y010718*
X014156Y010720*
X014153Y010722*
X014150Y010723*
X014147Y010724*
X014143Y010725*
X014140Y010726*
X014137Y010726*
X014133Y010726*
X014130*
X014126Y010726*
X014123Y010726*
X014120Y010725*
X014116Y010724*
X014113Y010723*
X014110Y010722*
X014107Y010720*
X014104Y010718*
X014101Y010716*
X014099Y010714*
X014096Y010712*
X014094Y010709*
X014092Y010706*
X014090Y010703*
X014088Y010701*
X014087Y010697*
X014085Y010694*
X014084Y010691*
X014084Y010688*
X014083Y010684*
X014083Y010681*
X014083Y010678*
X014083Y010674*
X014083Y010671*
X014084Y010667*
X014084Y010664*
X014085Y010661*
X014087Y010658*
X014088Y010654*
X014090Y010652*
X014092Y010649*
X014094Y010646*
X014096Y010643*
X014099Y010641*
X014101Y010639*
X014104Y010637*
X014107Y010635*
X014110Y010633*
X014113Y010632*
X014116Y010631*
X014120Y010630*
X014123Y010629*
X014126Y010629*
X014130Y010629*
X014133*
X014137Y010629*
X014140Y010629*
X014143Y010630*
X014147Y010631*
X014150Y010632*
X014153Y010633*
X014156Y010635*
X014159Y010637*
X014162Y010639*
X014164Y010641*
X014167Y010643*
X014169Y010646*
X014171Y010649*
X014173Y010652*
X014175Y010654*
X014176Y010658*
X014178Y010661*
X014179Y010664*
X014179Y010667*
X014180Y010671*
X014180Y010674*
X014181Y010678*
X009565Y002655D02*
D01*
X009564Y002658*
X009564Y002661*
X009563Y002665*
X009563Y002668*
X009562Y002671*
X009560Y002674*
X009559Y002678*
X009557Y002680*
X009555Y002683*
X009553Y002686*
X009551Y002689*
X009548Y002691*
X009546Y002693*
X009543Y002695*
X009540Y002697*
X009537Y002699*
X009534Y002700*
X009531Y002701*
X009527Y002702*
X009524Y002703*
X009521Y002703*
X009517Y002703*
X009514*
X009510Y002703*
X009507Y002703*
X009504Y002702*
X009500Y002701*
X009497Y002700*
X009494Y002699*
X009491Y002697*
X009488Y002695*
X009485Y002693*
X009483Y002691*
X009480Y002689*
X009478Y002686*
X009476Y002683*
X009474Y002680*
X009472Y002678*
X009471Y002674*
X009469Y002671*
X009468Y002668*
X009468Y002665*
X009467Y002661*
X009467Y002658*
X009467Y002655*
X009467Y002651*
X009467Y002648*
X009468Y002644*
X009468Y002641*
X009469Y002638*
X009471Y002635*
X009472Y002631*
X009474Y002629*
X009476Y002626*
X009478Y002623*
X009480Y002620*
X009483Y002618*
X009485Y002616*
X009488Y002614*
X009491Y002612*
X009494Y002610*
X009497Y002609*
X009500Y002608*
X009504Y002607*
X009507Y002606*
X009510Y002606*
X009514Y002606*
X009517*
X009521Y002606*
X009524Y002606*
X009527Y002607*
X009531Y002608*
X009534Y002609*
X009537Y002610*
X009540Y002612*
X009543Y002614*
X009546Y002616*
X009548Y002618*
X009551Y002620*
X009553Y002623*
X009555Y002626*
X009557Y002629*
X009559Y002631*
X009560Y002635*
X009562Y002638*
X009563Y002641*
X009563Y002644*
X009564Y002648*
X009564Y002651*
X009565Y002655*
X015165Y006855D02*
D01*
X015164Y006858*
X015164Y006861*
X015163Y006865*
X015163Y006868*
X015162Y006871*
X015160Y006874*
X015159Y006878*
X015157Y006880*
X015155Y006883*
X015153Y006886*
X015151Y006889*
X015148Y006891*
X015146Y006893*
X015143Y006895*
X015140Y006897*
X015137Y006899*
X015134Y006900*
X015131Y006901*
X015127Y006902*
X015124Y006903*
X015121Y006903*
X015117Y006903*
X015114*
X015110Y006903*
X015107Y006903*
X015104Y006902*
X015100Y006901*
X015097Y006900*
X015094Y006899*
X015091Y006897*
X015088Y006895*
X015085Y006893*
X015083Y006891*
X015080Y006889*
X015078Y006886*
X015076Y006883*
X015074Y006880*
X015072Y006878*
X015071Y006874*
X015069Y006871*
X015068Y006868*
X015068Y006865*
X015067Y006861*
X015067Y006858*
X015067Y006855*
X015067Y006851*
X015067Y006848*
X015068Y006844*
X015068Y006841*
X015069Y006838*
X015071Y006835*
X015072Y006831*
X015074Y006829*
X015076Y006826*
X015078Y006823*
X015080Y006820*
X015083Y006818*
X015085Y006816*
X015088Y006814*
X015091Y006812*
X015094Y006810*
X015097Y006809*
X015100Y006808*
X015104Y006807*
X015107Y006806*
X015110Y006806*
X015114Y006806*
X015117*
X015121Y006806*
X015124Y006806*
X015127Y006807*
X015131Y006808*
X015134Y006809*
X015137Y006810*
X015140Y006812*
X015143Y006814*
X015146Y006816*
X015148Y006818*
X015151Y006820*
X015153Y006823*
X015155Y006826*
X015157Y006829*
X015159Y006831*
X015160Y006835*
X015162Y006838*
X015163Y006841*
X015163Y006844*
X015164Y006848*
X015164Y006851*
X015165Y006855*
X008077Y017569D02*
D01*
X008076Y017572*
X008076Y017575*
X008075Y017579*
X008075Y017582*
X008074Y017585*
X008072Y017588*
X008071Y017592*
X008069Y017594*
X008067Y017597*
X008065Y017600*
X008063Y017603*
X008060Y017605*
X008058Y017607*
X008055Y017609*
X008052Y017611*
X008049Y017613*
X008046Y017614*
X008043Y017615*
X008039Y017616*
X008036Y017617*
X008033Y017617*
X008029Y017617*
X008026*
X008022Y017617*
X008019Y017617*
X008016Y017616*
X008012Y017615*
X008009Y017614*
X008006Y017613*
X008003Y017611*
X008000Y017609*
X007997Y017607*
X007995Y017605*
X007992Y017603*
X007990Y017600*
X007988Y017597*
X007986Y017594*
X007984Y017592*
X007983Y017588*
X007981Y017585*
X007980Y017582*
X007980Y017579*
X007979Y017575*
X007979Y017572*
X007979Y017569*
X007979Y017565*
X007979Y017562*
X007980Y017558*
X007980Y017555*
X007981Y017552*
X007983Y017549*
X007984Y017545*
X007986Y017543*
X007988Y017540*
X007990Y017537*
X007992Y017534*
X007995Y017532*
X007997Y017530*
X008000Y017528*
X008003Y017526*
X008006Y017524*
X008009Y017523*
X008012Y017522*
X008016Y017521*
X008019Y017520*
X008022Y017520*
X008026Y017520*
X008029*
X008033Y017520*
X008036Y017520*
X008039Y017521*
X008043Y017522*
X008046Y017523*
X008049Y017524*
X008052Y017526*
X008055Y017528*
X008058Y017530*
X008060Y017532*
X008063Y017534*
X008065Y017537*
X008067Y017540*
X008069Y017543*
X008071Y017545*
X008072Y017549*
X008074Y017552*
X008075Y017555*
X008075Y017558*
X008076Y017562*
X008076Y017565*
X008077Y017569*
X024281Y005178D02*
D01*
X024280Y005181*
X024280Y005184*
X024279Y005188*
X024279Y005191*
X024278Y005194*
X024276Y005197*
X024275Y005201*
X024273Y005203*
X024271Y005206*
X024269Y005209*
X024267Y005212*
X024264Y005214*
X024262Y005216*
X024259Y005218*
X024256Y005220*
X024253Y005222*
X024250Y005223*
X024247Y005224*
X024243Y005225*
X024240Y005226*
X024237Y005226*
X024233Y005226*
X024230*
X024226Y005226*
X024223Y005226*
X024220Y005225*
X024216Y005224*
X024213Y005223*
X024210Y005222*
X024207Y005220*
X024204Y005218*
X024201Y005216*
X024199Y005214*
X024196Y005212*
X024194Y005209*
X024192Y005206*
X024190Y005203*
X024188Y005201*
X024187Y005197*
X024185Y005194*
X024184Y005191*
X024184Y005188*
X024183Y005184*
X024183Y005181*
X024183Y005178*
X024183Y005174*
X024183Y005171*
X024184Y005167*
X024184Y005164*
X024185Y005161*
X024187Y005158*
X024188Y005154*
X024190Y005152*
X024192Y005149*
X024194Y005146*
X024196Y005143*
X024199Y005141*
X024201Y005139*
X024204Y005137*
X024207Y005135*
X024210Y005133*
X024213Y005132*
X024216Y005131*
X024220Y005130*
X024223Y005129*
X024226Y005129*
X024230Y005129*
X024233*
X024237Y005129*
X024240Y005129*
X024243Y005130*
X024247Y005131*
X024250Y005132*
X024253Y005133*
X024256Y005135*
X024259Y005137*
X024262Y005139*
X024264Y005141*
X024267Y005143*
X024269Y005146*
X024271Y005149*
X024273Y005152*
X024275Y005154*
X024276Y005158*
X024278Y005161*
X024279Y005164*
X024279Y005167*
X024280Y005171*
X024280Y005174*
X024281Y005178*
X021754Y008635D02*
D01*
X021753Y008638*
X021753Y008641*
X021752Y008645*
X021752Y008648*
X021751Y008651*
X021749Y008654*
X021748Y008658*
X021746Y008660*
X021744Y008663*
X021742Y008666*
X021740Y008669*
X021737Y008671*
X021735Y008673*
X021732Y008675*
X021729Y008677*
X021726Y008679*
X021723Y008680*
X021720Y008681*
X021716Y008682*
X021713Y008683*
X021710Y008683*
X021706Y008683*
X021703*
X021699Y008683*
X021696Y008683*
X021693Y008682*
X021689Y008681*
X021686Y008680*
X021683Y008679*
X021680Y008677*
X021677Y008675*
X021674Y008673*
X021672Y008671*
X021669Y008669*
X021667Y008666*
X021665Y008663*
X021663Y008660*
X021661Y008658*
X021660Y008654*
X021658Y008651*
X021657Y008648*
X021657Y008645*
X021656Y008641*
X021656Y008638*
X021656Y008635*
X021656Y008631*
X021656Y008628*
X021657Y008624*
X021657Y008621*
X021658Y008618*
X021660Y008615*
X021661Y008611*
X021663Y008609*
X021665Y008606*
X021667Y008603*
X021669Y008600*
X021672Y008598*
X021674Y008596*
X021677Y008594*
X021680Y008592*
X021683Y008590*
X021686Y008589*
X021689Y008588*
X021693Y008587*
X021696Y008586*
X021699Y008586*
X021703Y008586*
X021706*
X021710Y008586*
X021713Y008586*
X021716Y008587*
X021720Y008588*
X021723Y008589*
X021726Y008590*
X021729Y008592*
X021732Y008594*
X021735Y008596*
X021737Y008598*
X021740Y008600*
X021742Y008603*
X021744Y008606*
X021746Y008609*
X021748Y008611*
X021749Y008615*
X021751Y008618*
X021752Y008621*
X021752Y008624*
X021753Y008628*
X021753Y008631*
X021754Y008635*
X008565Y008055D02*
D01*
X008564Y008058*
X008564Y008061*
X008563Y008065*
X008563Y008068*
X008562Y008071*
X008560Y008074*
X008559Y008078*
X008557Y008080*
X008555Y008083*
X008553Y008086*
X008551Y008089*
X008548Y008091*
X008546Y008093*
X008543Y008095*
X008540Y008097*
X008537Y008099*
X008534Y008100*
X008531Y008101*
X008527Y008102*
X008524Y008103*
X008521Y008103*
X008517Y008103*
X008514*
X008510Y008103*
X008507Y008103*
X008504Y008102*
X008500Y008101*
X008497Y008100*
X008494Y008099*
X008491Y008097*
X008488Y008095*
X008485Y008093*
X008483Y008091*
X008480Y008089*
X008478Y008086*
X008476Y008083*
X008474Y008080*
X008472Y008078*
X008471Y008074*
X008469Y008071*
X008468Y008068*
X008468Y008065*
X008467Y008061*
X008467Y008058*
X008467Y008055*
X008467Y008051*
X008467Y008048*
X008468Y008044*
X008468Y008041*
X008469Y008038*
X008471Y008035*
X008472Y008031*
X008474Y008029*
X008476Y008026*
X008478Y008023*
X008480Y008020*
X008483Y008018*
X008485Y008016*
X008488Y008014*
X008491Y008012*
X008494Y008010*
X008497Y008009*
X008500Y008008*
X008504Y008007*
X008507Y008006*
X008510Y008006*
X008514Y008006*
X008517*
X008521Y008006*
X008524Y008006*
X008527Y008007*
X008531Y008008*
X008534Y008009*
X008537Y008010*
X008540Y008012*
X008543Y008014*
X008546Y008016*
X008548Y008018*
X008551Y008020*
X008553Y008023*
X008555Y008026*
X008557Y008029*
X008559Y008031*
X008560Y008035*
X008562Y008038*
X008563Y008041*
X008563Y008044*
X008564Y008048*
X008564Y008051*
X008565Y008055*
X018331Y008728D02*
D01*
X018330Y008731*
X018330Y008734*
X018329Y008738*
X018329Y008741*
X018328Y008744*
X018326Y008747*
X018325Y008751*
X018323Y008753*
X018321Y008756*
X018319Y008759*
X018317Y008762*
X018314Y008764*
X018312Y008766*
X018309Y008768*
X018306Y008770*
X018303Y008772*
X018300Y008773*
X018297Y008774*
X018293Y008775*
X018290Y008776*
X018287Y008776*
X018283Y008776*
X018280*
X018276Y008776*
X018273Y008776*
X018270Y008775*
X018266Y008774*
X018263Y008773*
X018260Y008772*
X018257Y008770*
X018254Y008768*
X018251Y008766*
X018249Y008764*
X018246Y008762*
X018244Y008759*
X018242Y008756*
X018240Y008753*
X018238Y008751*
X018237Y008747*
X018235Y008744*
X018234Y008741*
X018234Y008738*
X018233Y008734*
X018233Y008731*
X018233Y008728*
X018233Y008724*
X018233Y008721*
X018234Y008717*
X018234Y008714*
X018235Y008711*
X018237Y008708*
X018238Y008704*
X018240Y008702*
X018242Y008699*
X018244Y008696*
X018246Y008693*
X018249Y008691*
X018251Y008689*
X018254Y008687*
X018257Y008685*
X018260Y008683*
X018263Y008682*
X018266Y008681*
X018270Y008680*
X018273Y008679*
X018276Y008679*
X018280Y008679*
X018283*
X018287Y008679*
X018290Y008679*
X018293Y008680*
X018297Y008681*
X018300Y008682*
X018303Y008683*
X018306Y008685*
X018309Y008687*
X018312Y008689*
X018314Y008691*
X018317Y008693*
X018319Y008696*
X018321Y008699*
X018323Y008702*
X018325Y008704*
X018326Y008708*
X018328Y008711*
X018329Y008714*
X018329Y008717*
X018330Y008721*
X018330Y008724*
X018331Y008728*
G54D36*
X002509Y016350D02*
D01*
X002507Y016399*
X002502Y016448*
X002493Y016497*
X002481Y016545*
X002466Y016592*
X002447Y016638*
X002426Y016682*
X002401Y016725*
X002373Y016766*
X002343Y016805*
X002310Y016842*
X002274Y016876*
X002236Y016908*
X002196Y016937*
X002154Y016964*
X002110Y016987*
X002065Y017007*
X002019Y017024*
X001971Y017037*
X001923Y017048*
X001874Y017055*
X001824Y017058*
X001775*
X001725Y017055*
X001676Y017048*
X001628Y017037*
X001580Y017024*
X001534Y017007*
X001489Y016987*
X001445Y016964*
X001403Y016937*
X001363Y016908*
X001325Y016876*
X001289Y016842*
X001256Y016805*
X001226Y016766*
X001198Y016725*
X001173Y016682*
X001152Y016638*
X001133Y016592*
X001118Y016545*
X001106Y016497*
X001097Y016448*
X001092Y016399*
X001091Y016350*
X001092Y016300*
X001097Y016251*
X001106Y016202*
X001118Y016154*
X001133Y016107*
X001152Y016061*
X001173Y016017*
X001198Y015974*
X001226Y015933*
X001256Y015894*
X001289Y015857*
X001325Y015823*
X001363Y015791*
X001403Y015762*
X001445Y015735*
X001489Y015712*
X001534Y015692*
X001580Y015675*
X001628Y015662*
X001676Y015651*
X001725Y015644*
X001775Y015641*
X001824*
X001874Y015644*
X001923Y015651*
X001971Y015662*
X002019Y015675*
X002065Y015692*
X002110Y015712*
X002154Y015735*
X002196Y015762*
X002236Y015791*
X002274Y015823*
X002310Y015857*
X002343Y015894*
X002373Y015933*
X002401Y015974*
X002426Y016017*
X002447Y016061*
X002466Y016107*
X002481Y016154*
X002493Y016202*
X002502Y016251*
X002507Y016300*
X002509Y016350*
X013450Y005514D02*
Y005986D01*
X009700Y011014D02*
Y011486D01*
X019164Y018100D02*
X019636D01*
X020214D02*
X020686D01*
X026263Y013469D02*
Y015831D01*
X019137Y013469D02*
Y015831D01*
X026263*
X019137Y013469D02*
X026263D01*
X021914Y011400D02*
X022386D01*
X019964D02*
X020436D01*
X020914D02*
X021386D01*
X017764Y006200D02*
X018236D01*
X013014Y008850D02*
X013486D01*
X014014D02*
X014486D01*
X019000Y000400D02*
Y001400D01*
X011000Y000400D02*
X019000D01*
X011000D02*
Y001400D01*
X019000*
X014240Y011248D02*
X015460D01*
X014240Y011052D02*
X015460D01*
Y011248*
X014240Y011052D02*
Y011248D01*
X004700Y007714D02*
Y008186D01*
Y006364D02*
Y006836D01*
X001850Y007864D02*
Y008336D01*
X001800Y006564D02*
Y007036D01*
X008314Y004950D02*
X008786D01*
X008150Y006414D02*
Y006886D01*
X030000Y002400D02*
Y003400D01*
X028000Y002400D02*
X030000D01*
X028000D02*
Y003400D01*
X030000*
X016850Y003300D02*
X027100D01*
X016100D02*
X016850D01*
X016100Y002300D02*
Y003300D01*
Y002300D02*
X027100D01*
Y003300*
X030000Y019400D02*
Y020400D01*
X028000Y019400D02*
X030000D01*
X028000D02*
Y020400D01*
X030000*
X017000Y019400D02*
Y020400D01*
X009000Y019400D02*
X017000D01*
X009000D02*
Y020400D01*
X017000*
X028000Y000400D02*
Y001400D01*
X020000Y000400D02*
X028000D01*
X020000D02*
Y001400D01*
X028000*
Y011400D02*
X030000D01*
X028000Y003400D02*
X030000D01*
Y011400*
X028000Y003400D02*
Y011400D01*
X011550Y015300D02*
Y016300D01*
X015550*
X011550Y015300D02*
X015550D01*
Y016300*
X008500Y019400D02*
Y020400D01*
X000500Y019400D02*
X008500D01*
X000500D02*
Y020400D01*
X008500*
X026000Y019400D02*
Y020400D01*
X018000Y019400D02*
X026000D01*
X018000D02*
Y020400D01*
X026000*
X010000Y000400D02*
Y001400D01*
X004000Y000400D02*
Y001400D01*
X010000*
X004000Y000400D02*
X010000D01*
X028000Y019400D02*
X030000D01*
X028000Y011400D02*
X030000D01*
Y019400*
X028000Y011400D02*
Y019400D01*
X013569Y003246D02*
Y003954D01*
X009632Y003246D02*
Y003954D01*
X013569*
X009632Y003246D02*
X013569D01*
X016764Y011100D02*
X017236D01*
X015216Y007446D02*
X017184D01*
X015216Y008154D02*
X017184D01*
X015216Y007446D02*
Y008154D01*
X017184Y007446D02*
Y008154D01*
X015064Y004650D02*
X015536D01*
X001406Y017590D02*
X002194D01*
X003040Y015956D02*
Y016744D01*
X001406Y015110D02*
X002194D01*
X000560Y015956D02*
Y016744D01*
X009764Y016900D02*
X010236D01*
X008598Y016240D02*
Y017460D01*
X008402Y016240D02*
Y017460D01*
Y016240D02*
X008598D01*
X008402Y017460D02*
X008598D01*
X011064Y006950D02*
X011536D01*
X011300Y013414D02*
Y013886D01*
X009364Y014100D02*
X009836D01*
X020800Y005864D02*
Y006336D01*
X024340Y005552D02*
Y005748D01*
X025560Y005552D02*
Y005748D01*
X024340Y005552D02*
X025560D01*
X024340Y005748D02*
X025560D01*
X022296Y006566D02*
X023004D01*
X022296Y008534D02*
X023004D01*
Y006566D02*
Y008534D01*
X022296Y006566D02*
Y008534D01*
X024650Y009614D02*
Y010086D01*
X016200Y012500D02*
X017200D01*
X016200D02*
Y015500D01*
X017200*
Y012500D02*
Y015500D01*
X023093Y005092D02*
X023407D01*
X023093Y004108D02*
X023407D01*
X026500Y009000D02*
X027500D01*
Y004000D02*
Y009000D01*
X026500Y004000D02*
Y009000D01*
Y004000D02*
X027500D01*
X015441Y013146D02*
X015460D01*
X015441Y013854D02*
X015460D01*
X014240Y013146D02*
X014259D01*
X014240Y013854D02*
X014259D01*
X014240Y013146D02*
Y013854D01*
X015460Y013146D02*
Y013854D01*
X011964Y006950D02*
X012436D01*
X024650Y008714D02*
Y009186D01*
X020800Y004914D02*
Y005386D01*
X008616Y008646D02*
X010584D01*
X008616Y009354D02*
X010584D01*
X008616Y008646D02*
Y009354D01*
X010584Y008646D02*
Y009354D01*
X006914Y011100D02*
X007386D01*
X007764D02*
X008236D01*
X005800Y011514D02*
Y011986D01*
X018764Y006250D02*
X019236D01*
X018390Y009102D02*
Y009298D01*
X019610Y009102D02*
Y009298D01*
X018390Y009102D02*
X019610D01*
X018390Y009298D02*
X019610D01*
G54D37*
X014269Y012988D02*
D01*
X014268Y012989*
X014268Y012990*
X014268Y012992*
X014268Y012993*
X014267Y012994*
X014267Y012996*
X014266Y012997*
X014265Y012998*
X014265Y012999*
X014264Y013000*
X014263Y013001*
X014262Y013002*
X014261Y013003*
X014260Y013004*
X014259Y013005*
X014257Y013005*
X014256Y013006*
X014255Y013007*
X014253Y013007*
X014252Y013007*
X014251Y013007*
X014249Y013007*
X014248*
X014246Y013007*
X014245Y013007*
X014244Y013007*
X014242Y013007*
X014241Y013006*
X014240Y013005*
X014239Y013005*
X014237Y013004*
X014236Y013003*
X014235Y013002*
X014234Y013001*
X014233Y013000*
X014232Y012999*
X014232Y012998*
X014231Y012997*
X014230Y012996*
X014230Y012994*
X014229Y012993*
X014229Y012992*
X014229Y012990*
X014229Y012989*
X014229Y012988*
X014229Y012986*
X014229Y012985*
X014229Y012983*
X014229Y012982*
X014230Y012981*
X014230Y012979*
X014231Y012978*
X014232Y012977*
X014232Y012976*
X014233Y012975*
X014234Y012974*
X014235Y012973*
X014236Y012972*
X014237Y012971*
X014239Y012970*
X014240Y012970*
X014241Y012969*
X014242Y012968*
X014244Y012968*
X014245Y012968*
X014246Y012968*
X014248Y012968*
X014249*
X014251Y012968*
X014252Y012968*
X014253Y012968*
X014255Y012968*
X014256Y012969*
X014257Y012970*
X014259Y012970*
X014260Y012971*
X014261Y012972*
X014262Y012973*
X014263Y012974*
X014264Y012975*
X014265Y012976*
X014265Y012977*
X014266Y012978*
X014267Y012979*
X014267Y012981*
X014268Y012982*
X014268Y012983*
X014268Y012985*
X014268Y012986*
X014269Y012988*
G54D38*
X028700Y003233D02*
Y002900D01*
X028367Y003233*
X028283*
X028200Y003150*
Y002983*
X028283Y002900*
X029700D02*
Y003067D01*
Y002983*
X029200*
X029283Y002900*
X029700Y011500D02*
Y011667D01*
Y011583*
X029200*
X029283Y011500*
X029200Y012250D02*
Y011917D01*
X029450*
X029367Y012083*
Y012166*
X029450Y012250*
X029617*
X029700Y012166*
Y012000*
X029617Y011917*
X028700Y011500D02*
Y011667D01*
Y011583*
X028200*
X028283Y011500*
X028200Y012250D02*
X028283Y012083D01*
X028450Y011917*
X028617*
X028700Y012000*
Y012166*
X028617Y012250*
X028533*
X028450Y012166*
Y011917*
X028700Y011233D02*
Y010900D01*
X028367Y011233*
X028283*
X028200Y011150*
Y010983*
X028283Y010900*
X029700D02*
Y011067D01*
Y010983*
X029200*
X029283Y010900*
X029700Y019500D02*
Y019667D01*
Y019583*
X029200*
X029283Y019500*
X029200Y020250D02*
Y019917D01*
X029450*
X029367Y020083*
Y020166*
X029450Y020250*
X029617*
X029700Y020166*
Y020000*
X029617Y019917*
X028700Y019500D02*
Y019667D01*
Y019583*
X028200*
X028283Y019500*
X028200Y020250D02*
X028283Y020083D01*
X028450Y019917*
X028617*
X028700Y020000*
Y020166*
X028617Y020250*
X028533*
X028450Y020166*
Y019917*
M02*