%FSDAX24Y24*%
%MOIN*%
%SFA1B1*%

%IPPOS*%
%ADD10R,0.047200X0.055100*%
%ADD11R,0.055100X0.047200*%
%ADD12O,0.023600X0.090600*%
%ADD13R,0.025600X0.043300*%
%ADD14O,0.023600X0.086600*%
%ADD15R,0.043300X0.055100*%
%ADD16R,0.043300X0.025600*%
%ADD17R,0.078700X0.051200*%
%ADD18R,0.078700X0.078700*%
%ADD19O,0.086600X0.023600*%
%ADD20R,0.051200X0.106300*%
%ADD21R,0.021700X0.057100*%
%ADD22R,0.021700X0.057100*%
%ADD23C,0.010000*%
%ADD24R,0.059100X0.059100*%
%ADD25C,0.059100*%
%ADD26R,0.059100X0.059100*%
%ADD27C,0.098400*%
%ADD28R,0.027600X0.027600*%
%ADD29C,0.027600*%
%ADD30C,0.050000*%
%LNpcb_csn_v3_1-1*%
%LPD*%
G36*
X006454Y003580D02*
D01*
X006517Y003427*
X006807Y003137*
X006960Y003074*
X009491*
X009560Y002970*
Y002340*
X009624Y002186*
X009645Y002135*
X009850Y002050*
X009901Y002071*
X010055Y002135*
X010145*
X010350Y002050*
X010555Y002135*
X010645*
X010850Y002050*
X011055Y002135*
X011145*
X011350Y002050*
X011414Y002077*
X011517Y002008*
X011576Y001713*
X011500Y001600*
X000500*
Y006840*
X000749Y007006*
X000820Y006977*
X001059Y006817*
Y006850*
X001446*
Y006800*
X001496*
Y006374*
X002541*
Y006787*
X002781Y007027*
X003044Y007290*
X003107Y007443*
Y010431*
X003384Y010546*
X003859Y010072*
Y007950*
X003922Y007797*
X003959Y007781*
Y007524*
X004129*
Y007026*
X003959*
Y006650*
X004346*
Y006600*
X004396*
Y006174*
X005256*
X005441*
X005528Y006447*
X005653Y006572*
X005716Y006725*
Y010214*
X005653Y010367*
X004973Y011047*
X005088Y011324*
X006454*
Y003580*
G37*
G36*
X021114Y007834D02*
X021100Y007800D01*
X021185Y007595*
Y007505*
X021100Y007300*
X021114Y007266*
X020947Y007016*
X020860*
X020707Y006953*
X020575Y006821*
X019426*
Y006991*
X018574*
Y006941*
X018426*
X018253*
X018216Y006965*
Y007961*
X018494Y008076*
X018662Y007908*
X018815Y007845*
X020096*
X020249Y007908*
X020424Y008084*
X020947*
X021114Y007834*
G37*
G36*
X015297Y007463D02*
X015264Y007383D01*
X015245Y007375*
X015160Y007170*
Y006540*
X015224Y006386*
X015245Y006335*
X015338Y006297*
X015357Y006198*
X015167Y005966*
X014191*
Y006176*
X014021*
Y007415*
X014340Y007734*
X015185*
X015297Y007463*
G37*
G36*
X022847Y006647D02*
X023000Y006584D01*
X023102*
X023280Y006510*
X023378*
Y005806*
X023442Y005653*
X023536Y005559*
X023421Y005282*
X023415*
Y004076*
X023085*
Y004550*
X022679*
Y004650*
X023085*
Y005282*
X022915*
X022748Y005531*
X022752Y005540*
X021928*
X022034Y005284*
X022124Y005247*
Y004866*
X021541*
Y005576*
Y005674*
Y006510*
X022020*
X022225Y006595*
X022310Y006800*
X022582Y006912*
X022847Y006647*
G37*
G36*
X016847Y005693D02*
D01*
X016997Y005543*
X016857Y005403*
X016794Y005250*
Y004740*
X016444Y004390*
X016166Y004505*
Y005981*
X016444Y006096*
X016847Y005693*
G37*
G36*
X019050Y012457D02*
X019245Y012319D01*
X019450Y012234*
X019521Y012152*
X019504Y012110*
Y011201*
X019567Y011048*
X019722Y010893*
X019774Y010871*
Y010659*
X019984*
Y010222*
X020010Y010233*
X020060Y010212*
Y009800*
X019960*
Y010212*
X019704Y010106*
X019674Y010035*
X019652Y010039*
X019096*
X018904*
X018842*
Y012160*
X018816Y012223*
Y012301*
X019050Y012457*
G37*
G36*
X026558Y011212D02*
X025617Y010272D01*
X025554Y010119*
X025391Y010276*
X025221*
Y010541*
X025157Y010694*
X024653Y011199*
X024500Y011262*
Y011277*
X024712Y011489*
X026443*
X026558Y011212*
G37*
G36*
X008426Y010359D02*
D01*
X008538Y010313*
X008560Y010260*
Y009630*
X008624Y009476*
X008645Y009425*
X008850Y009340*
X008901Y009361*
X009055Y009425*
X009145*
X009350Y009340*
X009552Y009423*
X009817Y009282*
X009860Y009066*
X009697Y008903*
X009641Y008769*
X009364Y008654*
X009350Y008660*
X009145Y008575*
X009055*
X008901Y008639*
X008850Y008660*
X008645Y008575*
X008624Y008524*
X008560Y008370*
Y008073*
X008307Y007911*
X008102Y008006*
X007796Y008133*
X007616Y008059*
X007366Y008225*
Y010152*
X007574Y010359*
X008426*
G37*
G36*
X027550Y011200D02*
Y009024D01*
X027301Y008857*
X027000Y008982*
X026659Y008841*
X026518Y008500*
X026659Y008159*
X026681Y008150*
Y007850*
X026659Y007841*
X026518Y007500*
X026659Y007159*
X026681Y007150*
Y006850*
X026659Y006841*
X026518Y006500*
X026659Y006159*
X026681Y006150*
Y005850*
X026659Y005841*
X026518Y005500*
X026659Y005159*
X026555Y004945*
Y004932*
Y004055*
X027157*
X027271Y003778*
X026724Y003230*
X026600Y003282*
X026405Y003201*
X026316Y003260*
X026253Y003413*
X025653Y004013*
X025500Y004076*
X025112*
X025166Y004250*
Y004811*
X025274*
Y005178*
X025324*
Y005228*
X025602*
Y005544*
Y005756*
Y006362*
X025923Y006683*
X025986Y006836*
Y010029*
X027273Y011315*
X027550Y011200*
G37*
G36*
X021903Y009298D02*
Y008715D01*
X021819Y008590*
X021390*
X021212Y008516*
X020805*
X020690Y008794*
X021280Y009384*
X021370Y009347*
X021653Y009464*
X021903Y009298*
G37*
G36*
X018050Y005459D02*
X018426D01*
Y005509*
X018574*
X018836*
X018847Y005482*
X019128Y005201*
X019214Y004994*
X019470Y004888*
Y005300*
X019570*
Y004888*
X019810Y004987*
X020059Y004821*
Y004724*
Y004679*
X019847Y004466*
X018890*
X018737Y004403*
X017947Y003613*
X017884Y003460*
Y003435*
X017634Y003268*
X017600Y003282*
X017259Y003141*
X017045Y003245*
X017032*
X016303*
X016189Y003522*
X017163Y004497*
X017226Y004650*
Y005160*
X017540Y005474*
X017574Y005459*
X017950*
Y005846*
X018050*
Y005459*
G37*
G36*
X025650Y003404D02*
X025600Y003282D01*
X025555Y003263*
X025259Y003141*
X025250Y003119*
X024950*
X024941Y003141*
X024600Y003282*
X024259Y003141*
X024250Y003119*
X023950*
X023941Y003141*
X023600Y003282*
X023452Y003638*
X023455Y003644*
X025410*
X025650Y003404*
G37*
G36*
X019922Y003784D02*
X019887Y003700D01*
X019931Y003594*
X019884Y003480*
Y003435*
X019634Y003268*
X019600Y003282*
X019259Y003141*
X019250Y003119*
X018950*
X018941Y003141*
X018600Y003282*
X018491Y003545*
X018980Y004034*
X019755*
X019922Y003784*
G37*
G36*
X014874Y004246D02*
Y003909D01*
X015571*
X015686Y003632*
X014920Y002866*
X013640*
Y002970*
X013566Y003148*
Y003330*
X014597Y004361*
X014874Y004246*
G37*
G36*
X016155Y003097D02*
Y002449D01*
Y002355*
X016036Y002236*
X015295*
X015180Y002514*
X015878Y003211*
X016155Y003097*
G37*
G36*
X025947Y002347D02*
X026347Y001947D01*
X026474Y001894*
X026416Y001600*
X025098*
X024983Y001877*
X025476Y002370*
X025600Y002318*
X025906Y002445*
X025947Y002347*
G37*
G36*
X012709Y005324D02*
D01*
Y005271*
X012460Y005104*
X012350Y005150*
X012145Y005065*
X012055*
X011850Y005150*
X011645Y005065*
X011555*
X011350Y005150*
X011145Y005065*
X011055*
X010850Y005150*
X010645Y005065*
X010555*
X010350Y005150*
X010269Y005116*
X010102Y005366*
X010270Y005534*
X012709*
Y005324*
G37*
G36*
X009634Y007246D02*
D01*
X009697Y007093*
X010347Y006443*
X010500Y006379*
X010874*
Y006209*
Y006179*
X010662Y005966*
X010180*
X010027Y005903*
X009253Y005129*
X008976Y005244*
Y005691*
X008766*
Y005950*
X008721Y006060*
Y006224*
X008891*
Y007076*
X008889Y007079*
X009014Y007204*
X009350*
X009503Y007267*
X009515Y007295*
X009634Y007246*
G37*
G36*
X014874Y005391D02*
D01*
Y005196*
X014781Y005157*
X013917Y004294*
X013640Y004408*
Y004860*
X013555Y005065*
X013350Y005150*
X013524Y005324*
X014191*
Y005534*
X014874*
Y005391*
G37*
G36*
X012350Y003940D02*
D01*
X012454Y003689*
X012417Y003600*
X012454Y003511*
X012350Y003260*
X012145Y003175*
X012003Y003278*
X011838Y003443*
X011685Y003506*
X009974*
X009916Y003801*
X010003Y003837*
X010009Y003851*
X010286Y003966*
X010350Y003940*
X010555Y004025*
X010645*
X010850Y003940*
X011055Y004025*
X011145*
X011350Y003940*
X011555Y004025*
X011645*
X011850Y003940*
X012055Y004025*
X012145*
X012350Y003940*
G37*
G36*
X008288Y005996D02*
X008311Y005940D01*
X008144Y005691*
X008124*
Y004918*
Y004209*
X008121Y004206*
X007500*
X007366Y004340*
Y006224*
X007409*
X008288*
Y005996*
G37*
G36*
X012308Y009870D02*
Y009762D01*
X012070Y009603*
X012120Y009582*
Y009170*
X012070*
Y009120*
X011658*
X011764Y008864*
X011830Y008836*
X011750Y008643*
X011444Y008516*
X011317Y008210*
X011354Y008120*
X011147Y007913*
X011084Y007760*
Y007691*
X010874*
X010640Y007740*
Y008370*
X010555Y008575*
X010350Y008660*
X010267Y008861*
X010503Y009097*
X010566Y009250*
Y009452*
X010640Y009630*
Y009895*
X010350*
Y009995*
X010640*
Y010260*
X010727Y010347*
X010750Y010337*
X011056Y010464*
X011146Y010680*
X011440Y010738*
X012308Y009870*
G37*
G36*
X005550Y018096D02*
X005137Y017683D01*
X005074Y017530*
Y017309*
X004269*
Y016497*
Y016403*
Y016214*
X003416*
X003263Y016150*
X003001Y016412*
Y016723*
X003035Y016729*
X003247Y016871*
X003389Y017084*
X003429Y017284*
X002784*
Y017334*
X002734*
Y017979*
X002784Y017989*
X002733Y018085*
X003022Y018374*
X005435*
X005550Y018096*
G37*
G36*
X013709Y015459D02*
X013950Y015359D01*
X013982Y015201*
X013866Y014923*
X012487Y013543*
X012424Y013390*
Y012220*
X012174Y012053*
X012000Y012125*
X011694Y011998*
X011680Y011964*
X011591Y011946*
X011401Y012178*
X011443Y012280*
X011406Y012370*
X011807Y012771*
X011871Y012924*
Y013224*
X012041*
Y014076*
X011871*
Y015315*
X011911Y015355*
X012495*
Y015371*
X012709Y015459*
X013050Y015318*
X013391Y015459*
X013400Y015481*
X013700*
X013709Y015459*
G37*
G36*
X023734Y017980D02*
Y017219D01*
X023484Y017052*
X023450Y017066*
X023416Y017052*
X023166Y017219*
Y017260*
X023103Y017413*
X022617Y017899*
X022464Y017962*
Y018026*
X022676Y018238*
X023476*
X023734Y017980*
G37*
G36*
X010324Y015684D02*
D01*
X010630Y015557*
X010732Y015599*
X010981Y015433*
Y014963*
X010793Y014774*
X010774Y014728*
X010653Y014607*
X010500Y014671*
X010026*
Y014841*
X009659*
X009544Y015118*
X009959Y015533*
X010324Y015684*
G37*
G36*
X015527Y015747D02*
X015680Y015684D01*
X016418*
X016476Y015389*
X016359Y015341*
X016218Y015000*
X016232Y014966*
X016065Y014716*
X015474*
X015464Y014712*
X015252Y014924*
X015266Y014960*
Y015408*
X015391Y015459*
X015508Y015743*
X015527Y015747*
G37*
G36*
X016044Y016440D02*
X016007Y016350D01*
X015950Y016264*
X015651Y016235*
X015433Y016453*
X015280Y016516*
X012550*
X012397Y016453*
X012189Y016245*
X011605*
X011414Y016436*
Y017272*
X011351Y017425*
X010680Y018096*
X010795Y018374*
X014110*
X016044Y016440*
G37*
G36*
X020950Y015816D02*
X020984Y015831D01*
X021234Y015664*
Y015559*
X021297Y015406*
X021597Y015106*
X021750Y015042*
X022308*
X022366Y014748*
X022314Y014726*
X022187Y014420*
X022224Y014330*
X021797Y013903*
X021734Y013750*
Y013636*
X021484Y013469*
X021500Y013463*
Y012859*
X021400*
Y013463*
X021245Y013399*
X021155*
X020950Y013484*
X020745Y013399*
X020655*
X020450Y013484*
X020413Y013468*
X020136Y013583*
X020103Y013663*
X019903Y013863*
X019772Y013917*
X019873Y014160*
X019836Y014250*
X020103Y014517*
X020166Y014670*
Y015664*
X020416Y015831*
X020450Y015816*
X020655Y015901*
X020745*
X020950Y015816*
G37*
G36*
X018837Y018473D02*
X018767Y018403D01*
X018704Y018250*
Y015895*
X018426Y015780*
X018153Y016053*
X018000Y016116*
X017029*
X016873Y016350*
X016746Y016656*
X016440Y016783*
X016350Y016746*
X014353Y018743*
X014354Y018750*
X018722*
X018837Y018473*
G37*
G36*
X004863Y015591D02*
X004921D01*
X005088Y015342*
X005087Y015340*
X005214Y015034*
X005520Y014907*
X005610Y014944*
X005979Y014575*
Y013526*
X005655*
Y013100*
X005605*
Y013050*
X005238*
Y012827*
X004762*
Y013526*
X004730Y013573*
X004828Y013810*
X004701Y014116*
X004395Y014243*
X004089Y014116*
X004021Y014345*
X003958Y014498*
X003370Y015086*
X003389Y015115*
X003429Y015316*
X002834*
Y014721*
X003035Y014761*
X003064Y014780*
X003588Y014256*
Y013526*
X003438*
Y013150*
X003805*
Y013050*
X003438*
Y013040*
X002949Y012550*
X002885Y012397*
Y012343*
X002764Y012262*
X002544Y012170*
X002481Y012018*
X002449Y012004*
X002112*
X002041Y012034*
X002001Y012130*
X001984Y012170*
X001970Y012176*
X001963Y012179*
X001764Y012262*
X001724Y012245*
X001544Y012170*
X001453Y011950*
X001471Y011906*
X001448Y011850*
Y009289*
X001301Y009191*
X001036Y009333*
Y014301*
X001768Y015033*
X002179Y015115*
X002321Y014903*
X002534Y014761*
X002734Y014721*
Y015366*
X002784*
Y015416*
X003429*
X003389Y015616*
X003370Y015645*
X003505Y015781*
X004269*
Y015591*
X004763*
Y015997*
X004863*
Y015591*
G37*
G36*
X027154Y017944D02*
X027460Y017817D01*
X027550Y017757*
Y016886*
X026409Y015745*
X026159Y015912*
X026176Y015952*
X026240Y016107*
Y016776*
X026166Y016954*
Y017077*
X026256Y017114*
X026383Y017420*
X026256Y017726*
X025950Y017853*
X026040Y018034*
X027117*
X027154Y017944*
G37*
G36*
X010426Y017738D02*
Y017641D01*
X010361*
X009574*
Y017502*
X009339*
X008666*
Y017890*
X008603Y018043*
X008636Y018124*
X010040*
X010426Y017738*
G37*
G36*
X016784Y011841D02*
X016574D01*
Y011621*
X016541Y011607*
X016364Y011430*
X016086Y011545*
Y012555*
X016255*
X016784*
Y011841*
G37*
G36*
X007661Y016198D02*
X007688D01*
X007855Y015949*
X007847Y015930*
X007974Y015624*
X008280Y015497*
X008404Y015548*
X008654Y015382*
Y013223*
X008564Y013186*
X008437Y012880*
X008473Y012793*
X008358Y012516*
X008232Y012463*
X007847Y012078*
X007784Y011925*
X007699Y011841*
X007576*
X007200*
Y011454*
X007100*
Y011841*
X006886*
Y014910*
X006823Y015063*
X006006Y015880*
Y015906*
X006931*
Y016234*
X007190*
X007253Y016259*
X007661*
Y016198*
G37*
G36*
X017394Y014444D02*
D01*
X017624Y014349*
Y011841*
X017426*
X017216*
Y012700*
X017153Y012853*
X017145Y012861*
Y013445*
X017129*
X017041Y013659*
X017182Y014000*
X017084Y014236*
X017275Y014468*
X017394Y014444*
G37*
G36*
X023931Y011553D02*
X023811Y011262D01*
X023022*
X022986Y011316*
Y011930*
X022923Y012083*
X023011Y012172*
X023311Y012173*
X023931Y011553*
G37*
G36*
X002509Y018473D02*
X001939Y017903D01*
X001876Y017750*
Y017385*
X001833Y017170*
X001546Y017083*
X001441Y017188*
X001461Y017284*
X000816*
Y017334*
X000766*
Y017979*
X000732Y017972*
X000500Y018163*
Y018750*
X002394*
X002509Y018473*
G37*
G36*
X025734Y014487D02*
X025674Y014178D01*
X025410Y014036*
X025200Y014123*
X024894Y013996*
X024767Y013690*
X024786Y013644*
X024662Y013520*
X024511Y013458*
X024450Y013484*
X024416Y013469*
X024166Y013636*
Y013950*
X024733Y014517*
X024796Y014670*
Y014917*
X024886Y014954*
X024894Y014973*
X025188Y015032*
X025734Y014487*
G37*
G36*
X019450Y015816D02*
X019484Y015831D01*
X019734Y015664*
Y014760*
X019530Y014556*
X019440Y014593*
X019386Y014571*
X019136Y014737*
Y015676*
X019386Y015843*
X019450Y015816*
G37*
%LNpcb_csn_v3_1-2*%
%LPC*%
G36*
X000866Y017979D02*
Y017384D01*
X001461*
X001421Y017585*
X001279Y017797*
X001066Y017939*
X000866Y017979*
G37*
G36*
X002834D02*
Y017384D01*
X003429*
X003389Y017585*
X003247Y017797*
X003035Y017939*
X002834Y017979*
G37*
G36*
X001396Y006750D02*
X001059D01*
Y006374*
X001396*
Y006750*
G37*
G36*
X005555Y013526D02*
X005238D01*
Y013150*
X005555*
Y013526*
G37*
G36*
X012020Y009582D02*
X011764Y009476D01*
X011658Y009220*
X012020*
Y009582*
G37*
G36*
X004296Y006550D02*
X003959D01*
Y006174*
X004296*
Y006550*
G37*
G36*
X025602Y005128D02*
X025374D01*
Y004811*
X025602*
Y005128*
G37*
G36*
X022290Y006002D02*
X022034Y005896D01*
X021928Y005640*
X022290*
Y006002*
G37*
G36*
X022390D02*
Y005640D01*
X022752*
X022646Y005896*
X022390Y006002*
G37*
%LNpcb_csn_v3_1-3*%
%LPD*%
G54D10*
X013096Y005750D03*
X013804D03*
X010054Y011250D03*
X009346D03*
X004346Y007950D03*
X005054D03*
X004346Y006600D03*
X005054D03*
X001496Y008100D03*
X002204D03*
X001446Y006800D03*
X002154D03*
X008504Y006650D03*
X007796D03*
X011654Y013650D03*
X010946D03*
X020446Y006100D03*
X021154D03*
X025004Y009850D03*
X024296D03*
Y008950D03*
X025004D03*
X021154Y005150D03*
X020446D03*
X005446Y011750D03*
X006154D03*
G54D11*
X019400Y017746D03*
Y018454D03*
X020450D03*
Y017746D03*
X022150Y011046D03*
Y011754D03*
X020200D03*
Y011046D03*
X021150Y011754D03*
Y011046D03*
X018000Y006554D03*
Y005846D03*
X013250Y008496D03*
Y009204D03*
X014250D03*
Y008496D03*
X008550Y004596D03*
Y005304D03*
X017000Y010746D03*
Y011454D03*
X015300Y004296D03*
Y005004D03*
X010000Y017254D03*
Y016546D03*
X011300Y007304D03*
Y006596D03*
X009600Y013746D03*
Y014454D03*
X012200Y007304D03*
Y006596D03*
X007150Y011454D03*
Y010746D03*
X008000Y011454D03*
Y010746D03*
X019000Y005896D03*
Y006604D03*
G54D12*
X025950Y016441D03*
X025450D03*
X024950D03*
X024450D03*
X023950D03*
X023450D03*
X022950D03*
X022450D03*
X021950D03*
X021450D03*
X020950D03*
X020450D03*
X019950D03*
X019450D03*
X025950Y012859D03*
X025450D03*
X024950D03*
X024450D03*
X023950D03*
X023450D03*
X022950D03*
X022450D03*
X021950D03*
X021450D03*
X020950D03*
X020450D03*
X019950D03*
X019450D03*
G54D13*
X014476Y011622D03*
X015224D03*
Y010678D03*
X014850D03*
X014476D03*
X024576Y005178D03*
X024950D03*
X025324D03*
Y006122D03*
X024576D03*
X018626Y008728D03*
X019000D03*
X019374D03*
Y009672D03*
X018626D03*
G54D14*
X013350Y004545D03*
X012850D03*
X012350D03*
X011850D03*
X011350D03*
X010850D03*
X010350D03*
X009850D03*
X013350Y002655D03*
X012850D03*
X012350D03*
X011850D03*
X011350D03*
X010850D03*
X010350D03*
X009850D03*
X015450Y006855D03*
X015950D03*
X016450D03*
X016950D03*
X015450Y008745D03*
X015950D03*
X016450D03*
X016950D03*
X008850Y008055D03*
X009350D03*
X009850D03*
X010350D03*
X008850Y009945D03*
X009350D03*
X009850D03*
X010350D03*
G54D15*
X006195Y013100D03*
X005605D03*
X004395D03*
X003805D03*
G54D16*
X008972Y017224D03*
Y016476D03*
X008028D03*
Y016850D03*
Y017224D03*
G54D17*
X004813Y015997D03*
Y016903D03*
G54D18*
X006387Y016450D03*
G54D19*
X023595Y006800D03*
Y007300D03*
Y007800D03*
Y008300D03*
X021705Y006800D03*
Y007300D03*
Y007800D03*
Y008300D03*
G54D20*
X022679Y004600D03*
X023821D03*
G54D21*
X014476Y013077D03*
G54D22*
X014850Y013077D03*
X015224D03*
Y013923D03*
X014850D03*
X014476D03*
G54D23*
X015450Y005750D02*
X015950Y006250D01*
Y004496D02*
Y006250D01*
X013980Y013220D02*
X014476D01*
X019240Y012700D02*
X019450D01*
X024296Y008471D02*
Y008950D01*
Y007670D02*
Y008471D01*
X024125Y008300D02*
X024296Y008471D01*
X014020Y011590D02*
X014476D01*
X012000Y010984D02*
Y011692D01*
X010947Y012038D02*
X012000Y010984D01*
X012774Y010210*
X008500Y010746D02*
X008850Y010396D01*
Y011750*
X018000Y008570D02*
X018090Y008660D01*
X021154Y006800D02*
X021705D01*
X020860D02*
X021154D01*
Y006100D02*
Y006800D01*
X018000Y008570D02*
Y008750D01*
Y006554D02*
Y008570D01*
X024816Y015710D02*
X025950Y014576D01*
Y014980*
X022450Y015955D02*
X022625Y015780D01*
X022450Y015955D02*
Y016441D01*
Y015459D02*
Y015955D01*
X022250Y015259D02*
X022450Y015459D01*
X022250Y015259D02*
X022653D01*
X022500Y011046D02*
X022770Y011316D01*
X022500Y011046D02*
X024500D01*
X020200Y009800D02*
X020231D01*
X020010D02*
X020200D01*
Y011046*
Y009750D02*
Y009800D01*
X019374Y008924D02*
X020200Y009750D01*
X015224Y010770D02*
X015480D01*
X022340Y004600D02*
Y005590D01*
X022300Y004600D02*
X022340D01*
X024560Y003860D02*
X024950Y004250D01*
X024560Y003860D02*
X025500D01*
X017000Y005846D02*
X017606D01*
X017010Y005250D02*
X017606Y005846D01*
X008300Y016850D02*
X009330D01*
X008300D02*
X008450Y017000D01*
X009600Y013250D02*
X009880Y012970D01*
X009600Y013250D02*
Y013746D01*
Y012570D02*
Y013250D01*
X014000Y009204D02*
Y010030D01*
X013750Y009204D02*
X014000D01*
X013250D02*
X013750D01*
X013350Y002650D02*
X015010D01*
X002449Y011788D02*
X002875Y011361D01*
X004075Y010161*
X002875Y011361D02*
Y011527D01*
X004075Y007950D02*
Y010161D01*
X001496Y007749D02*
X001625Y007620D01*
X001496Y006800D02*
Y007749D01*
X014227Y013600D02*
X014476D01*
X010054Y011170D02*
X010350D01*
X010054Y010694D02*
Y011170D01*
X008000Y017224D02*
X008028D01*
X005880D02*
X008000D01*
Y017640*
X010946Y014009D02*
Y014621D01*
Y013650D02*
Y014009D01*
X010500Y014454D02*
X010946Y014009D01*
X008870Y016374D02*
Y016476D01*
Y012880D02*
Y016374D01*
X008972Y016476*
X008426Y015930D02*
X008870Y016374D01*
X008500Y007740D02*
X008850D01*
X007796Y007036D02*
X008500Y007740D01*
X007796Y007036D02*
Y007700D01*
X014476Y010224D02*
Y010678D01*
Y010224D02*
X014750Y009950D01*
X015708*
X016504Y010746*
X017000*
X013804Y005750D02*
Y007504D01*
X014250Y007950*
X017000*
X017270Y008220*
Y009465*
X017000Y009735D02*
X017270Y009465D01*
X017000Y009735D02*
Y010746D01*
X015750Y004296D02*
X015950Y004496D01*
X015300Y004296D02*
X015750D01*
X023000Y006800D02*
X023595D01*
X022640Y007160D02*
X023000Y006800D01*
X022640Y007160D02*
Y009200D01*
X022570Y009270D02*
X022640Y009200D01*
X019901Y008311D02*
X021370Y009780D01*
X019125Y008311D02*
X019901D01*
X019000Y008436D02*
X019125Y008311D01*
X019000Y008436D02*
Y008728D01*
X002252Y011450D02*
X002891Y010812D01*
Y007443D02*
Y010812D01*
X002628Y007180D02*
X002891Y007443D01*
X002154Y007180D02*
X002628D01*
X002154Y006800D02*
Y007180D01*
X019440Y014160D02*
X019950Y014670D01*
Y016441*
X012904Y008496D02*
X013250D01*
X012774Y008625D02*
Y010210D01*
X009138Y012038D02*
X010947D01*
X008850Y011750D02*
X009138Y012038D01*
X011654Y012924D02*
Y013650D01*
X011010Y012280D02*
X011654Y012924D01*
Y013650D02*
Y015404D01*
X012050Y015800*
X012774Y008625D02*
X012904Y008496D01*
X014476Y012064D02*
X014850Y012590D01*
Y013077*
X013970Y012570D02*
X014476Y012064D01*
Y011622D02*
Y012064D01*
X005520Y015340D02*
X006195Y014665D01*
Y013100D02*
Y014665D01*
X017840Y008910D02*
X018000Y008750D01*
X017840Y008910D02*
Y014610D01*
X017700Y014750D02*
X017840Y014610D01*
X003416Y015997D02*
X004813D01*
X002784Y015366D02*
X003416Y015997D01*
X009340Y012310D02*
X009600Y012570D01*
X008385Y012310D02*
X009340D01*
X008000Y011925D02*
X008385Y012310D01*
X008000Y011454D02*
Y011925D01*
X002875Y011527D02*
X003102Y011754D01*
Y012397*
X003805Y013100*
X001496Y007749D02*
Y008100D01*
X001625Y007620D02*
X002641D01*
Y009359*
X001915Y010085D02*
X002641Y009359D01*
X001915Y010085D02*
Y011590D01*
X002112Y011788*
X002449*
X004075Y007950D02*
X004346D01*
X013350Y002655D02*
Y003420D01*
X014934Y005004*
X015300*
X017606Y005846D02*
X018000D01*
X017010Y004650D02*
Y005250D01*
X015010Y002650D02*
X017010Y004650D01*
X013350Y002650D02*
Y002655D01*
X021150Y010719D02*
Y011046D01*
X020231Y009800D02*
X021150Y010719D01*
X019000Y005635D02*
Y005896D01*
Y005635D02*
X019335Y005300D01*
X019520*
X014000Y009204D02*
X014250D01*
X021950Y013750D02*
X022620Y014420D01*
X021950Y012859D02*
Y013750D01*
X022950Y012859D02*
Y014050D01*
X023910Y015010*
X023950Y012859D02*
Y014040D01*
X024580Y014670*
Y015260*
X004395Y013100D02*
Y013810D01*
X011850Y002655D02*
Y003125D01*
X011685Y003290D02*
X011850Y003125D01*
X006960Y003290D02*
X011685D01*
X006670Y003580D02*
X006960Y003290D01*
X006670Y003580D02*
Y014910D01*
X005790Y015790D02*
X006670Y014910D01*
X005790Y015790D02*
Y017134D01*
X005880Y017224*
X011850Y001930D02*
Y002655D01*
Y001930D02*
X012100Y001680D01*
X019530*
X020100Y002250*
Y003480*
X020320Y003700*
X012350Y002170D02*
Y002655D01*
Y002170D02*
X012500Y002020D01*
X017990*
X018100Y002130*
Y003460*
X018890Y004250*
X020820*
X021100Y003970*
Y002050D02*
Y003970D01*
X021000Y001950D02*
X021100Y002050D01*
X021000Y000650D02*
Y001950D01*
Y000650D02*
X021250Y000400D01*
X028000*
X030000Y002400*
Y012400*
X029500Y012900D02*
X030000Y012400D01*
X025324Y006122D02*
Y006390D01*
X025770Y006836*
Y010119*
X027700Y012049*
Y012900*
X014200Y018590D02*
X016440Y016350D01*
X002932Y018590D02*
X014200D01*
X002092Y017750D02*
X002932Y018590D01*
X002092Y017048D02*
Y017750D01*
Y017048D02*
X002492Y016648D01*
Y016063D02*
Y016648D01*
X000820Y014391D02*
X002492Y016063D01*
X000820Y007410D02*
Y014391D01*
X019800Y000620D02*
Y001570D01*
X020600Y002370*
Y002800*
X022900Y003500D02*
X023600Y002800D01*
X022500Y003500D02*
X022900D01*
X021800Y004200D02*
X022500Y003500D01*
X024400Y001600D02*
X025600Y002800D01*
X008870Y016476D02*
X008972D01*
X012850Y002655D02*
Y003600D01*
X015224Y011622D02*
Y012286D01*
X015540Y012546*
Y013580*
X015224D02*
X015540D01*
X015224D02*
Y013923D01*
X008550Y004596D02*
X009026D01*
X010180Y005750*
X013096*
X009346Y011250D02*
Y011625D01*
X009471Y011750*
X010734*
X012524Y009960*
Y008383D02*
Y009960D01*
Y008383D02*
X013096Y007812D01*
Y005750D02*
Y007812D01*
X014850Y010678D02*
Y011100D01*
X013704D02*
X014850D01*
X013554Y011250D02*
X013704Y011100D01*
X013554Y011250D02*
Y012119D01*
X013354Y012319D02*
X013554Y012119D01*
X013354Y012319D02*
Y013274D01*
X013750Y013670*
X014157*
X014227Y013600*
X014476D02*
Y013923D01*
X013250Y009204D02*
Y010086D01*
X013018Y010318D02*
X013250Y010086D01*
X013018Y010318D02*
Y011372D01*
X012640Y011750D02*
X013018Y011372D01*
X012640Y011750D02*
Y013390D01*
X015050Y015800*
X013622Y010678D02*
X014476D01*
X013300Y011000D02*
X013622Y010678D01*
X013300Y011000D02*
Y011730D01*
X013090Y011940D02*
X013300Y011730D01*
X014476Y013077D02*
Y013220D01*
X009850Y010490D02*
X010054Y010694D01*
X009850Y009945D02*
Y010490D01*
X022450Y012859D02*
Y013600D01*
X017000Y011454D02*
Y012700D01*
X016700Y013000D02*
X017000Y012700D01*
X019374Y008728D02*
Y008924D01*
X009880Y012970D02*
X010990D01*
X025950Y014980D02*
X027910Y016940D01*
Y018060*
X028250Y018400*
X029750*
X030000Y018150*
Y013650D02*
Y018150D01*
X029750Y013400D02*
X030000Y013650D01*
X029250Y013400D02*
X029750D01*
X029000Y013150D02*
X029250Y013400D01*
X029000Y003400D02*
Y013150D01*
X028500Y002900D02*
X029000Y003400D01*
X011300Y007760D02*
X011750Y008210D01*
X011300Y007304D02*
Y007760D01*
X016694Y011454D02*
X017000D01*
X015500Y010260D02*
X016694Y011454D01*
X015000Y010260D02*
X015500D01*
X014850Y010410D02*
X015000Y010260D01*
X014850Y010410D02*
Y010678D01*
X019450Y012700D02*
Y012859D01*
X019050Y012890D02*
X019240Y012700D01*
X015224Y013923D02*
Y014250D01*
X015474Y014500*
X017000*
X017250Y014750*
Y014950*
X017500Y015200*
X018000*
X018160Y015040*
Y009500D02*
Y015040D01*
Y009500D02*
X018410Y009250D01*
X019249*
X019374Y009375*
Y009672*
X015224Y010678D02*
Y010770D01*
X015480D02*
X015870Y011160D01*
Y013920*
X015740Y014050D02*
X015870Y013920D01*
X023125Y007800D02*
X023595D01*
X022960Y007965D02*
X023125Y007800D01*
X022960Y007965D02*
Y008820D01*
X023020Y008880*
Y010000*
X010054Y011170D02*
Y011250D01*
X010350Y011170D02*
X010750Y010770D01*
X012050Y015800D02*
X012550Y016300D01*
X015280*
X015680Y015900*
X018000*
X018600Y015300*
Y012186D02*
Y015300D01*
Y012186D02*
X018626Y012160D01*
Y009672D02*
Y012160D01*
X023760Y008950D02*
X024296D01*
X021705Y007300D02*
X022140D01*
X022340Y007500*
Y008494*
X022119Y008715D02*
X022340Y008494D01*
X022119Y008715D02*
Y010279D01*
X022390Y010550*
X024320*
X008280Y015930D02*
X008426D01*
X019950Y012859D02*
Y013510D01*
X019750Y013710D02*
X019950Y013510D01*
X018990Y013710D02*
X019750D01*
X018920Y013780D02*
X018990Y013710D01*
X018920Y013780D02*
Y018250D01*
X019124Y018454*
X019400*
X009346Y010694D02*
Y011250D01*
Y010694D02*
X009350Y010690D01*
Y009945D02*
Y010690D01*
X008850Y009945D02*
Y010396D01*
X008000Y010746D02*
X008500D01*
X007150Y004250D02*
Y010746D01*
Y004250D02*
X007410Y003990D01*
X009850*
Y004545*
X001446Y006800D02*
X001496D01*
X014250Y009204D02*
Y009540D01*
X016180*
X016550Y009910*
X015050Y014960D02*
Y015800D01*
X014850Y014760D02*
X015050Y014960D01*
X014850Y013923D02*
Y014760D01*
X017000Y011454D02*
X017480D01*
X017540Y011394*
Y007900D02*
Y011394D01*
X017250Y007610D02*
X017540Y007900D01*
X015750Y007610D02*
X017250D01*
X015450Y007310D02*
X015750Y007610D01*
X015450Y006855D02*
Y007310D01*
X004813Y016903D02*
X005290D01*
Y017530*
X005750Y017990*
X007222*
X007572Y018340*
X010130*
X011198Y017272*
Y014873D02*
Y017272D01*
X010946Y014621D02*
X011198Y014873D01*
X010000Y017254D02*
X010376D01*
X010630Y017000*
Y015990D02*
Y017000D01*
X004813Y015997D02*
X005287D01*
X005540Y016250*
Y017270*
X006000Y017730*
X007316*
X007676Y018090*
X008250*
X008450Y017890*
Y017000D02*
Y017890D01*
X008028Y016850D02*
X008300D01*
X018626Y008250D02*
Y008728D01*
Y008250D02*
X018815Y008061D01*
X020096*
X020334Y008300*
X021705*
X010350Y009250D02*
Y009945D01*
X009850Y008750D02*
X010350Y009250D01*
X009850Y008055D02*
Y008750D01*
X005605Y012750D02*
Y013100D01*
X005465Y012610D02*
X005605Y012750D01*
X003945Y012610D02*
X005465D01*
X003805Y012750D02*
X003945Y012610D01*
X003805Y012750D02*
Y013100D01*
X005110Y011750D02*
X005446D01*
X004700Y012160D02*
X005110Y011750D01*
X020950Y016441D02*
Y017000D01*
X021240Y017290*
X021860*
X023450Y012340D02*
Y012859D01*
Y012340D02*
X024084Y011706D01*
X026625*
X026768Y011849*
Y013518*
X028150Y014900*
X028500*
X025950Y012859D02*
Y014576D01*
X023105Y015710D02*
X024816D01*
X022653Y015259D02*
X023105Y015710D01*
X021450Y015559D02*
Y016441D01*
X023450Y015980D02*
Y016441D01*
X023250Y015780D02*
X023450Y015980D01*
X022625Y015780D02*
X023250D01*
X021450Y015559D02*
X021750Y015259D01*
X022250*
X021950Y015760D02*
Y016441D01*
Y015760D02*
X022000Y015710D01*
X029000Y014645D02*
Y017400D01*
X028750Y014395D02*
X029000Y014645D01*
X028150Y014395D02*
X028750D01*
X028005Y014250D02*
X028150Y014395D01*
X028005Y013395D02*
Y014250D01*
Y013395D02*
X028500Y012900D01*
X020450Y018454D02*
X023566D01*
X023950Y018070*
Y016441D02*
Y018070D01*
X024450Y016441D02*
Y017760D01*
X024950Y016441D02*
Y018980D01*
X025370Y019400*
X029000*
X029500Y018900*
X025950Y016441D02*
Y017420D01*
Y018250D02*
X027460D01*
X025450Y017750D02*
X025950Y018250D01*
X025450Y016441D02*
Y017750D01*
Y012386D02*
Y012859D01*
Y012386D02*
X025630Y012206D01*
X026125*
X026268Y012349*
Y014668*
X028500Y016900*
X024950Y013440D02*
X025200Y013690D01*
X024950Y012859D02*
Y013440D01*
X024450Y012340D02*
Y012859D01*
Y012340D02*
X024834Y011956D01*
X026250*
X026518Y012224*
Y013918*
X028500Y015900*
X012070Y009170D02*
X012125D01*
X012274Y009021*
Y008101D02*
Y009021D01*
Y008101D02*
X012750Y007625D01*
Y006846D02*
Y007625D01*
X012500Y006596D02*
X012750Y006846D01*
X012200Y006596D02*
X012500D01*
X024500Y011046D02*
X025004Y010541D01*
Y009850D02*
Y010541D01*
X014476Y011590D02*
Y011622D01*
X015950Y006250D02*
Y006855D01*
X013804Y005750D02*
X015450D01*
X023910Y002110D02*
X024600Y002800D01*
X022100Y002110D02*
X023910D01*
X022340Y004600D02*
X022679D01*
X022250Y004650D02*
X022300Y004600D01*
X020625Y004650D02*
X022250D01*
X020446Y004829D02*
X020625Y004650D01*
X020446Y004829D02*
Y005150D01*
X022679Y004000D02*
Y004600D01*
Y004000D02*
X022819Y003860D01*
X025500D02*
X026100Y003260D01*
Y002500D02*
Y003260D01*
Y002500D02*
X026500Y002100D01*
X028700*
X029500Y002900*
X019000Y006604D02*
X020664D01*
X020860Y006800*
X005054Y007950D02*
Y009672D01*
X003276Y011450D02*
X005054Y009672D01*
X021450Y012375D02*
Y012859D01*
Y012375D02*
X021625Y012200D01*
X022500*
X022770Y011930*
Y011316D02*
Y011930D01*
X022150Y011046D02*
X022500D01*
X020450Y017746D02*
X022464D01*
X022950Y017260*
Y016441D02*
Y017260D01*
X010350Y007454D02*
Y008055D01*
Y007454D02*
X010500Y007304D01*
X011300*
X009850Y007246D02*
Y008055D01*
Y007246D02*
X010500Y006596D01*
X011300*
X023595Y008300D02*
X024125D01*
X023821Y004600D02*
X024250D01*
X024576Y004926*
Y005178*
X009350Y007420D02*
Y008055D01*
X008924Y007420D02*
X009350D01*
X008504Y007000D02*
X008924Y007420D01*
X008504Y006650D02*
Y007000D01*
X008850Y007740D02*
Y008055D01*
X007796Y006650D02*
Y007036D01*
X009249Y013746D02*
X009600D01*
X009120Y013875D02*
X009249Y013746D01*
X009120Y013875D02*
Y015000D01*
X010000Y015880*
Y016546*
X017251Y006554D02*
X018000D01*
X016950Y006855D02*
X017251Y006554D01*
X016450Y006396D02*
Y006855D01*
Y006396D02*
X017000Y005846D01*
X009600Y014454D02*
X010500D01*
X003805Y013100D02*
Y014345D01*
X002784Y015366D02*
X003805Y014345D01*
X024950Y004250D02*
Y005178D01*
X022819Y003860D02*
X024560D01*
X005054Y006600D02*
X005375D01*
X005500Y006725*
Y010214*
X003764Y011950D02*
X005500Y010214D01*
X028000Y012400D02*
X028500Y012900D01*
X028000Y004200D02*
Y012400D01*
X026600Y002800D02*
X028000Y004200D01*
X019875Y011046D02*
X020200D01*
X019720Y011201D02*
X019875Y011046D01*
X019720Y011201D02*
Y012110D01*
X019950Y012340*
Y012859*
X002204Y008100D02*
Y008334D01*
X001665Y008874D02*
X002204Y008334D01*
X001665Y008874D02*
Y011850D01*
X001764Y011950*
X021705Y007800D02*
Y008300D01*
X023595Y007300D02*
Y007800D01*
Y005806D02*
Y006800D01*
Y005806D02*
X023821Y005580D01*
Y004600D02*
Y005580D01*
X019920Y017746D02*
X020450D01*
X019920D02*
D01*
X019400D02*
X019920D01*
X020450Y016441D02*
Y017746D01*
X019450Y016441D02*
X019950D01*
X020450*
X024296Y009390D02*
Y009850D01*
Y009390D02*
D01*
Y008950D02*
Y009390D01*
Y007670D02*
X024576Y007390D01*
Y006122D02*
Y007390D01*
X007570Y010746D02*
X008000D01*
X007570D02*
D01*
X007150D02*
X007570D01*
X009500Y017254D02*
X010000D01*
X009470Y017224D02*
X009500Y017254D01*
X008972Y017224D02*
X009470D01*
X014969Y008745D02*
X015450D01*
X014720Y008496D02*
X014969Y008745D01*
X014250Y008496D02*
X014720D01*
X013740D02*
X014250D01*
X013740D02*
D01*
X013250D02*
X013740D01*
X006195Y012441D02*
Y013100D01*
X006154Y012400D02*
X006195Y012441D01*
X006154Y011750D02*
Y012400D01*
X011300Y007304D02*
X012200D01*
X021154Y005150D02*
Y006100D01*
X018520Y006604D02*
X019000D01*
X018470Y006554D02*
X018520Y006604D01*
X018000Y006554D02*
X018470D01*
X002784Y015366D02*
Y017334D01*
X007570Y011454D02*
X008000D01*
X007570D02*
D01*
X007150D02*
X007570D01*
X004346Y006600D02*
Y007950D01*
X009634Y016546D02*
X010000D01*
X009330Y016850D02*
X009634Y016546D01*
X019400Y018454D02*
X020450D01*
X021640Y011046D02*
X022150D01*
X021640D02*
D01*
X021150D02*
X021640D01*
X020200D02*
X021150D01*
X025004Y008950D02*
Y009850D01*
Y007084D02*
Y008950D01*
X024950Y007030D02*
X025004Y007084D01*
X024950Y005178D02*
Y007030D01*
Y005178D02*
X025324D01*
X020446Y005620D02*
Y006100D01*
Y005620D02*
D01*
Y005150D02*
Y005620D01*
X019824Y006100D02*
X020446D01*
X019620Y005896D02*
X019824Y006100D01*
X019000Y005896D02*
X019620D01*
X018520D02*
X019000D01*
X018470Y005846D02*
X018520Y005896D01*
X018000Y005846D02*
X018470D01*
X011740Y006596D02*
X012200D01*
X011740D02*
D01*
X011300D02*
X011740D01*
X020450Y012430D02*
Y012859D01*
X020200Y012180D02*
X020450Y012430D01*
X020200Y011754D02*
Y012180D01*
X020950Y012400D02*
Y012859D01*
Y012400D02*
X021150Y012200D01*
Y011754D02*
Y012200D01*
X021640Y011754D02*
X022150D01*
X021640D02*
D01*
X021150D02*
X021640D01*
X008504Y005996D02*
Y006650D01*
Y005996D02*
X008550Y005950D01*
Y005304D02*
Y005950D01*
X007216Y016476D02*
X008028D01*
X007190Y016450D02*
X007216Y016476D01*
X006387Y016450D02*
X007190D01*
X001150Y008926D02*
X001160Y008917D01*
X004369D02*
X004398Y008946D01*
X030400Y000000D02*
Y020750D01*
X000000D02*
X030400D01*
X000000Y000000D02*
X030400D01*
X000000D02*
Y020750D01*
G54D24*
X011500Y000900D03*
X028500Y002900D03*
X016600Y002800D03*
X028500Y019900D03*
X009500D03*
X020500Y000900D03*
X012050Y015800D03*
X001000Y019900D03*
X018500D03*
X004500Y000900D03*
G54D25*
X012500Y000900D03*
X013500D03*
X014500D03*
X015500D03*
X016500D03*
X017500D03*
X018500D03*
X029500Y002900D03*
X026600Y002800D03*
X025600D03*
X024600D03*
X023600D03*
X022600D03*
X021600D03*
X020600D03*
X019600D03*
X018600D03*
X017600D03*
X029500Y019900D03*
X010500D03*
X011500D03*
X012500D03*
X013500D03*
X014500D03*
X015500D03*
X016500D03*
X021500Y000900D03*
X022500D03*
X023500D03*
X024500D03*
X025500D03*
X026500D03*
X027500D03*
X028500Y003900D03*
X029500Y004900D03*
X028500D03*
X029500Y005900D03*
X028500D03*
X029500Y006900D03*
X028500D03*
X029500Y007900D03*
X028500D03*
X029500Y008900D03*
X028500D03*
X029500Y009900D03*
X028500D03*
X029500Y010900D03*
X028500D03*
X015050Y015800D03*
X014050D03*
X013050D03*
X002000Y019900D03*
X003000D03*
X004000D03*
X005000D03*
X006000D03*
X007000D03*
X008000D03*
X019500D03*
X020500D03*
X021500D03*
X022500D03*
X023500D03*
X024500D03*
X025500D03*
X005500Y000900D03*
X006500D03*
X007500D03*
X008500D03*
X009500D03*
X028500Y011900D03*
X029500Y012900D03*
X028500D03*
X029500Y013900D03*
X028500D03*
X029500Y014900D03*
X028500D03*
X029500Y015900D03*
X028500D03*
X029500Y016900D03*
X028500D03*
X029500Y017900D03*
X028500D03*
X029500Y018900D03*
X028500D03*
X016700Y015000D03*
Y014000D03*
X027000Y005500D03*
Y006500D03*
Y007500D03*
Y008500D03*
G54D26*
X029500Y003900D03*
Y011900D03*
X016700Y013000D03*
X027000Y004500D03*
G54D27*
X000816Y017334D03*
X002784D03*
Y015366D03*
X000816D03*
X001800Y016350D03*
G54D28*
X003764Y011950D03*
G54D29*
X002252Y011450D03*
X003276D03*
X001764Y011950D03*
X002764D03*
G54D30*
X022570Y009270D03*
X021370Y009780D03*
X019440Y014160D03*
X011010Y012280D03*
X012000Y011692D03*
X013970Y012570D03*
X005520Y015340D03*
X017700Y014750D03*
X020010Y009800D03*
X019520Y005300D03*
X014000Y010030D03*
X022620Y014420D03*
X023910Y015010D03*
X024580Y015260D03*
X004395Y013810D03*
X020320Y003700D03*
X027700Y012900D03*
X016440Y016350D03*
X000820Y007410D03*
X019800Y000620D03*
X021800Y004200D03*
X024400Y001600D03*
X007796Y007700D03*
X008870Y012880D03*
X015224Y012286D03*
X012850Y003600D03*
X013090Y011940D03*
X013980Y013220D03*
X022450Y013600D03*
X010990Y012970D03*
X011750Y008210D03*
X009350Y010690D03*
X019050Y012890D03*
X015740Y014050D03*
X023020Y010000D03*
X010750Y010770D03*
X023760Y008950D03*
X024320Y010550D03*
X008280Y015930D03*
X018090Y008660D03*
X016550Y009910D03*
X010630Y015990D03*
X008000Y017640D03*
X004700Y012160D03*
X021860Y017290D03*
X022000Y015710D03*
X029000Y017400D03*
X024450Y017760D03*
X025950Y017420D03*
X027460Y018250D03*
X025200Y013690D03*
X012070Y009170D03*
X014020Y011590D03*
X022100Y002110D03*
X022340Y005590D03*
M02*