%FSDAX24Y24*%
%MOIN*%
%SFA1B1*%

%IPPOS*%
%ADD10R,0.047200X0.055100*%
%ADD11R,0.055100X0.047200*%
%ADD15R,0.043300X0.055100*%
%ADD31R,0.055100X0.043300*%
%ADD32O,0.098400X0.027600*%
%ADD33O,0.074800X0.023600*%
%LNpcb_csn_v3_1-1*%
%LPD*%
G54D10*
X014154Y008150D03*
X013446D03*
X017254Y009100D03*
X016546D03*
X017254Y008150D03*
X016546D03*
X011746Y012500D03*
X012454D03*
X007746Y011850D03*
X008454D03*
X007746Y013550D03*
X008454D03*
X012454Y013450D03*
X011746D03*
X007996Y006750D03*
X008704D03*
X007996Y004700D03*
X008704D03*
G54D11*
X011700Y010346D03*
Y011054D03*
X006650Y008996D03*
Y009704D03*
X018300Y010946D03*
Y011654D03*
G54D15*
X006745Y004800D03*
X006155D03*
X006595Y011800D03*
X006005D03*
X006495Y013500D03*
X005905D03*
X006745Y006800D03*
X006155D03*
G54D31*
X007950Y009695D03*
Y009105D03*
X017150Y011545D03*
Y010955D03*
G54D32*
X013235Y009900D03*
Y010400D03*
Y010900D03*
Y011400D03*
X015165Y009900D03*
Y010400D03*
Y010900D03*
Y011400D03*
G54D33*
X018775Y006800D03*
Y006300D03*
Y005800D03*
Y005300D03*
X016925Y006800D03*
Y006300D03*
Y005800D03*
Y005300D03*
X022175Y008750D03*
Y008250D03*
Y007750D03*
Y007250D03*
X020325Y008750D03*
Y008250D03*
Y007750D03*
Y007250D03*
X023625Y005150D03*
Y005650D03*
Y006150D03*
Y006650D03*
X025475Y005150D03*
Y005650D03*
Y006150D03*
Y006650D03*
M02*