M48
;Layer_Color=9474304
;FILE_FORMAT=2:4
INCH
;TYPE=PLATED
T1F00S00C0.0236
T2F00S00C0.0280
T3F00S00C0.0354
T4F00S00C0.0591
%
T01
X022752Y022200
X022264Y022700
X023264
X024264
X023776Y022200
T02
X033350Y014350
X040820Y014450
X042300Y014950
X042600Y012860
X044900Y012350
X040300Y011370
X048200Y023650
X047960Y029000
X049500Y028150
X046450Y028170
X044950Y028510
X045080Y026010
X044410Y025760
X043120Y025170
X042950Y024350
X042500Y026460
X042360Y028040
X039940Y024910
X039550Y023640
X038200Y025500
X036240Y024800
X035724Y023036
X034470Y023320
X034480Y023970
X034520Y022340
X033590Y022690
X032500Y022442
X031510Y023030
X031490Y023720
X031250Y021520
X032570Y019920
X032250Y018960
X034500Y020780
X037050Y020660
X038590Y019410
X040510Y020550
X041870Y020530
X043070Y020020
X043520Y020750
X044260Y019700
X044820Y021300
X045700Y024440
X042840Y016340
X040020Y016050
X036940Y027100
X031130Y026740
X028780Y026680
X028500Y028390
X026020Y026090
X024895Y024560
X025200Y022910
X029370Y023630
X029850Y021440
X028296Y018450
X021320Y018160
T03
X025000Y011650
X026000
X027000
X028000
X029000
X030000
X032000
X033000
X034000
X035000
X036000
X037000
X038000
X039000
X039100Y013550
X040100
X041100
X042100
X043100
X044100
X045100
X046100
X046000Y011650
X045000
X044000
X043000
X042000
X041000
X038100Y013550
X037100
X047100
X049000Y013650
X050000
Y014650
X049000
X047500Y015250
X047000Y011650
X048000
X049000Y015650
X050000
Y016650
X049000
Y017650
X050000
Y018650
X049000
Y019650
X050000
Y020650
X049000
Y021650
X050000
Y022650
X049000
Y023650
X050000
Y024650
X049000
Y025650
X050000
Y026650
X049000
Y027650
X050000
Y028650
X049000
Y029650
Y030650
X050000
Y029650
X047500Y019250
Y018250
Y017250
Y016250
X046000Y030650
X045000
X044000
X043000
X042000
X041000
X040000
X039000
X037000
X036000
X035000
X034000
X033000
X032000
X032550Y026550
X033550
X034550
X035550
X037200Y025750
Y024750
Y023750
X031000Y030650
X030000
X028500
X027500
X026500
X025500
X024500
X023500
X022500
X021500
T04
X021316Y026116
Y028084
X023284
Y026116
X022300Y027100
M30
