%FSLAX42Y42*%
%MOMM*%
G71*
G01*
G75*
%ADD10O,0.60X2.20*%
%ADD11R,0.65X1.10*%
%ADD12R,1.20X1.40*%
%ADD13R,1.40X1.20*%
%ADD14R,2.00X1.30*%
%ADD15R,2.00X2.00*%
%ADD16R,1.40X1.10*%
%ADD17R,1.10X0.65*%
%ADD18O,0.60X2.30*%
%ADD19C,0.25*%
%ADD20R,1.50X1.50*%
%ADD21C,1.50*%
%ADD22R,1.50X1.50*%
%ADD23C,2.50*%
%ADD24C,1.27*%
D10*
X6934Y1396D02*
D03*
X6807D02*
D03*
X6680D02*
D03*
X6553D02*
D03*
X6426D02*
D03*
X6299D02*
D03*
X6172D02*
D03*
X6045D02*
D03*
X6934Y916D02*
D03*
X6807D02*
D03*
X6680D02*
D03*
X6553D02*
D03*
X6426D02*
D03*
X6299D02*
D03*
X6172D02*
D03*
X6045D02*
D03*
X4458Y2249D02*
D03*
X4585D02*
D03*
X4712D02*
D03*
X4839D02*
D03*
X4458Y2729D02*
D03*
X4585D02*
D03*
X4712D02*
D03*
X4839D02*
D03*
D11*
X6014Y2800D02*
D03*
X6204D02*
D03*
Y2560D02*
D03*
X6109D02*
D03*
X6014D02*
D03*
D12*
X5358Y3467D02*
D03*
X5538D02*
D03*
X4535Y1892D02*
D03*
X4355D02*
D03*
X4357Y4381D02*
D03*
X4177D02*
D03*
X5663Y1968D02*
D03*
X5843D02*
D03*
X5030Y3010D02*
D03*
X4850D02*
D03*
X7848Y3924D02*
D03*
X8028D02*
D03*
X3720Y1854D02*
D03*
X3900D02*
D03*
X2653Y1511D02*
D03*
X2833D02*
D03*
X2564Y4153D02*
D03*
X2744D02*
D03*
D13*
X4102Y2831D02*
D03*
Y3011D02*
D03*
X3594Y4101D02*
D03*
Y4281D02*
D03*
X5283Y2135D02*
D03*
Y1955D02*
D03*
X5359Y2641D02*
D03*
Y2821D02*
D03*
D14*
X4321Y3644D02*
D03*
Y3874D02*
D03*
D15*
X4721Y3759D02*
D03*
D16*
X7303Y2132D02*
D03*
Y1982D02*
D03*
D17*
X5189Y3804D02*
D03*
Y3994D02*
D03*
X5429D02*
D03*
Y3899D02*
D03*
Y3804D02*
D03*
D18*
X8572Y3490D02*
D03*
X8446D02*
D03*
X8318D02*
D03*
X8192D02*
D03*
X8064D02*
D03*
X7938D02*
D03*
X7811D02*
D03*
X7683D02*
D03*
X7557D02*
D03*
X7429D02*
D03*
X7303D02*
D03*
X7175D02*
D03*
X7049D02*
D03*
X6921D02*
D03*
X8572Y2580D02*
D03*
X8446D02*
D03*
X8318D02*
D03*
X8192D02*
D03*
X8064D02*
D03*
X7938D02*
D03*
X7811D02*
D03*
X7683D02*
D03*
X7557D02*
D03*
X7429D02*
D03*
X7303D02*
D03*
X7175D02*
D03*
X7049D02*
D03*
X6921D02*
D03*
D20*
X2413Y5080D02*
D03*
X6858D02*
D03*
X5080Y254D02*
D03*
X2438Y2908D02*
D03*
X4572Y5080D02*
D03*
X5906Y4128D02*
D03*
X9398Y5080D02*
D03*
X3302Y254D02*
D03*
X9398Y762D02*
D03*
X7366Y254D02*
D03*
D21*
X2667Y5080D02*
D03*
X2921D02*
D03*
X3175D02*
D03*
X3429D02*
D03*
X3683D02*
D03*
X3937D02*
D03*
X4191D02*
D03*
X7112D02*
D03*
X7366D02*
D03*
X7620D02*
D03*
X7874D02*
D03*
X8128D02*
D03*
X8382D02*
D03*
X8636D02*
D03*
X9398Y3048D02*
D03*
X9652Y3302D02*
D03*
X9398D02*
D03*
X9652Y3556D02*
D03*
X9398D02*
D03*
X9652Y3810D02*
D03*
X9398D02*
D03*
X9652Y4064D02*
D03*
X9398D02*
D03*
X9652Y4318D02*
D03*
X9398D02*
D03*
X9652Y4572D02*
D03*
X9398D02*
D03*
X9652Y4826D02*
D03*
X9398D02*
D03*
X5334Y254D02*
D03*
X5588D02*
D03*
X5842D02*
D03*
X6096D02*
D03*
X6350D02*
D03*
X6604D02*
D03*
X6858D02*
D03*
X2692Y2908D02*
D03*
X2946D02*
D03*
X4826Y5080D02*
D03*
X5080D02*
D03*
X5334D02*
D03*
X5588D02*
D03*
X5842D02*
D03*
X6096D02*
D03*
X6350D02*
D03*
X6668Y4128D02*
D03*
X6414D02*
D03*
X6160D02*
D03*
X9398Y1016D02*
D03*
X9652Y1270D02*
D03*
X9398D02*
D03*
X9652Y1524D02*
D03*
X9398D02*
D03*
X9652Y1778D02*
D03*
X9398D02*
D03*
X9652Y2032D02*
D03*
X9398D02*
D03*
X9652Y2286D02*
D03*
X9398D02*
D03*
X9652Y2540D02*
D03*
X9398D02*
D03*
X9652Y2794D02*
D03*
X9398D02*
D03*
X9652Y5080D02*
D03*
X3556Y254D02*
D03*
X3810D02*
D03*
X4064D02*
D03*
X4318D02*
D03*
X4572D02*
D03*
X9652Y762D02*
D03*
X9144Y254D02*
D03*
X8890D02*
D03*
X8636D02*
D03*
X8382D02*
D03*
X8128D02*
D03*
X7874D02*
D03*
X7620D02*
D03*
D22*
X9652Y3048D02*
D03*
Y1016D02*
D03*
D23*
X2455Y2536D02*
D03*
X2955D02*
D03*
Y2036D02*
D03*
X2455D02*
D03*
X2705Y2286D02*
D03*
X2442Y3793D02*
D03*
X2942D02*
D03*
Y3293D02*
D03*
X2442D02*
D03*
X2692Y3543D02*
D03*
M02*
