M48
;Layer_Color=9474304
;FILE_FORMAT=4:2
METRIC,LZ
;TYPE=PLATED
T1F00S00C0.71
T2F00S00C0.90
T3F00S00C1.50
%
T01
X006198Y001156
X00668
X006871
X007557Y002245
X007709Y002893
X007811Y003099
X007541Y003305
X007683Y003698
X007262Y003678
X008192Y002987
X008318Y002891
X00809Y002784
X008344Y002159
X006101Y002177
X006109Y002367
X00648Y002766
X00556Y002118
X00555Y004247
X005029Y00267
X005009Y002332
X004254Y00251
X003942Y002888
X003559Y002786
X003688Y003353
X003866Y003368
X003648Y002172
T02
X003302Y000254
X003556
X00381
X004064
X004318
X004572
X00508
X005334
X005588
X005842
X006096
X00635
X006604
X006858
X007366
X00762
X007874
X008128
X008382
X008636
X00889
X009144
X009398Y000762
X009652
Y001016
Y00127
X009398
Y001016
Y001524
Y001778
Y002032
Y002286
Y00254
Y002794
X009652
Y00254
Y002286
Y002032
Y001778
Y001524
Y003048
Y003302
Y003556
Y00381
Y004064
Y004318
Y004572
Y004826
Y00508
X009398
Y004826
Y004572
Y004318
Y004064
Y00381
Y003556
Y003302
Y003048
X008636Y00508
X008382
X008128
X007874
X00762
X007366
X007112
X006858
X00635
X006096
X005842
X005588
X005906Y004128
X00616
X006414
X006668
X005334Y00508
X00508
X004826
X004572
X004191
X003937
X003683
X003429
X003175
X002921
X002667
X002413
X002438Y002908
X002692
X002946
T03
X002455Y002036
X002705Y002286
X002955Y002036
Y002536
X002455
X002442Y003293
X002692Y003543
X002942Y003293
Y003793
X002442
M30
