%FSLAX42Y42*%
%MOMM*%
G71*
G01*
G75*
G04 Layer_Physical_Order=2*
G04 Layer_Color=16711680*
%ADD10O,0.60X2.20*%
%ADD11R,0.65X1.10*%
%ADD12R,1.20X1.40*%
%ADD13R,1.40X1.20*%
%ADD14R,2.00X1.30*%
%ADD15R,2.00X2.00*%
%ADD16R,1.40X1.10*%
%ADD17R,1.10X0.65*%
%ADD18O,0.60X2.30*%
%ADD19C,0.25*%
%ADD20R,1.50X1.50*%
%ADD21C,1.50*%
%ADD22R,1.50X1.50*%
%ADD23C,2.50*%
%ADD24C,1.27*%
G36*
X2616Y2831D02*
X2634Y2824D01*
X2651Y2807D01*
X2651Y2807D01*
Y2807D01*
X2663Y2778D01*
X2757Y2684D01*
X2786Y2671D01*
Y2671D01*
X2786Y2671D01*
X2840Y2651D01*
Y2651D01*
X2809Y2577D01*
X2601D01*
X2570Y2651D01*
X2468Y2694D01*
Y2536D01*
X2442D01*
Y2694D01*
X2396Y2674D01*
X2332Y2717D01*
Y2808D01*
X2338D01*
Y2808D01*
X2539D01*
Y2821D01*
X2614Y2836D01*
X2616Y2831D01*
D02*
G37*
G36*
X9055Y4091D02*
Y3779D01*
X8930Y3655D01*
X8918Y3625D01*
Y3185D01*
X8542Y2809D01*
X8450D01*
X8407Y2872D01*
X8415Y2891D01*
X8387Y2959D01*
X8360Y2970D01*
Y3496D01*
X8984Y4120D01*
X9055Y4091D01*
D02*
G37*
G36*
X4710Y2783D02*
Y2572D01*
X4666Y2572D01*
D01*
X4656D01*
Y2572D01*
X4584D01*
Y2476D01*
Y2381D01*
X4656D01*
Y2381D01*
X4656D01*
X4656Y2381D01*
X4666D01*
Y2381D01*
X4836D01*
Y2381D01*
X4837D01*
X4836D01*
X4880Y2353D01*
X4901Y2314D01*
X4872Y2271D01*
X4551D01*
X4485Y2337D01*
Y2381D01*
X4485Y2381D01*
X4558D01*
Y2476D01*
Y2572D01*
X4485D01*
Y2568D01*
X4465Y2560D01*
X4411Y2614D01*
X4416Y2626D01*
Y2694D01*
X4356D01*
Y2719D01*
X4416D01*
Y2786D01*
X4399Y2829D01*
X4397Y2829D01*
Y2883D01*
X4385Y2912D01*
X4325Y2972D01*
X4356Y3046D01*
X4356D01*
X4356Y3046D01*
X4399Y3064D01*
X4399Y3065D01*
X4428D01*
X4710Y2783D01*
D02*
G37*
G36*
X3412Y2565D02*
Y2559D01*
X3412Y2559D01*
X3241D01*
Y2414D01*
X3136D01*
X3093Y2477D01*
X3113Y2523D01*
X2955D01*
Y2549D01*
X3113D01*
X3070Y2651D01*
Y2651D01*
Y2651D01*
Y2651D01*
X3074Y2671D01*
X3305D01*
X3412Y2565D01*
D02*
G37*
G36*
X5984Y2118D02*
X5672Y1806D01*
X5601Y1835D01*
Y2039D01*
X5628Y2050D01*
X5656Y2117D01*
X5656D01*
Y2117D01*
D01*
Y2117D01*
X5656Y2118D01*
X5654Y2123D01*
X5654Y2123D01*
X5628Y2186D01*
Y2186D01*
X5629Y2189D01*
X5955D01*
X5984Y2118D01*
D02*
G37*
G36*
X9055Y546D02*
D01*
X9004Y495D01*
X2261D01*
Y1917D01*
X2335Y1932D01*
X2340Y1921D01*
X2442Y1878D01*
Y2036D01*
Y2194D01*
X2340Y2151D01*
X2335Y2140D01*
X2261Y2155D01*
Y2276D01*
X2328Y2343D01*
X2357Y2331D01*
X2433D01*
X2536Y2289D01*
X2551Y2214D01*
X2512Y2175D01*
X2468Y2194D01*
Y2036D01*
Y1878D01*
X2570Y1921D01*
X2601Y1995D01*
X2809D01*
X2840Y1921D01*
X2942Y1878D01*
Y2036D01*
Y2194D01*
X2898Y2175D01*
X2844Y2229D01*
X2868Y2286D01*
X2849Y2331D01*
X2849Y2331D01*
X3241D01*
Y2267D01*
X3241D01*
Y2076D01*
X3412D01*
Y2076D01*
X3412D01*
X3412Y2076D01*
X3421D01*
Y2076D01*
X3592D01*
Y2076D01*
X3612Y2090D01*
X3648Y2075D01*
X3716Y2104D01*
X3727Y2130D01*
X5191D01*
X5307Y2015D01*
Y1924D01*
X5262Y1924D01*
D01*
X5253D01*
Y1924D01*
X5082D01*
Y1733D01*
X5129D01*
X5139Y1723D01*
X5139Y1723D01*
X5139Y1723D01*
X5172Y1690D01*
X5201Y1678D01*
X5872D01*
X5880Y1681D01*
X5943Y1639D01*
Y1003D01*
X5943Y1003D01*
X5943Y1003D01*
X5955Y974D01*
X6143Y786D01*
X6143Y786D01*
X6143D01*
X6143Y786D01*
X6143D01*
Y786D01*
D01*
D01*
D01*
D01*
X6143D01*
Y786D01*
D01*
X6172Y774D01*
X6530D01*
X6560Y786D01*
X6844Y1071D01*
X6869Y1060D01*
Y1060D01*
X6869D01*
X6869D01*
Y1060D01*
D01*
X6871Y1059D01*
X6939Y1088D01*
X6939Y1089D01*
X6939D01*
D01*
Y1089D01*
X6939D01*
D01*
X6966Y1154D01*
X6966D01*
D01*
D01*
X6966D01*
Y1154D01*
D01*
D01*
D01*
D01*
Y1154D01*
X6967Y1156D01*
X6965Y1160D01*
Y1160D01*
X6955Y1186D01*
X6939Y1224D01*
X6939Y1224D01*
X6937Y1224D01*
X6937Y1224D01*
X6872Y1251D01*
X6871Y1252D01*
X6871Y1252D01*
X6856Y1273D01*
X6974Y1391D01*
X6986Y1420D01*
X6986Y1420D01*
X6986Y1420D01*
Y2269D01*
X7022Y2306D01*
X7420D01*
X7460Y2245D01*
X7460Y2245D01*
X7460D01*
X7488Y2179D01*
D01*
X7488D01*
Y2179D01*
D01*
X7488Y2179D01*
X7488Y2177D01*
X7557Y2149D01*
X7558Y2150D01*
X7558D01*
X7583Y2160D01*
X7583D01*
Y2160D01*
X7827Y1916D01*
X7856Y1904D01*
X8372D01*
X8401Y1916D01*
X8856Y2372D01*
X9055D01*
Y546D01*
D02*
G37*
G36*
X4254Y2413D02*
D01*
X4254Y2413D01*
X4256Y2414D01*
X4256D01*
X4281Y2424D01*
X4281D01*
Y2424D01*
X4422Y2283D01*
X4393Y2213D01*
X4154D01*
X4138Y2220D01*
Y2241D01*
X4138D01*
Y2393D01*
X4201Y2435D01*
X4254Y2413D01*
D02*
G37*
G36*
X8277Y3408D02*
Y3116D01*
X8214Y3074D01*
X8193Y3083D01*
X8193D01*
X8192Y3083D01*
X8123Y3055D01*
X8123Y3053D01*
D01*
X8095Y2987D01*
X8112Y2947D01*
X8083Y2877D01*
X8022Y2852D01*
X7994Y2784D01*
X8002Y2764D01*
X7938Y2722D01*
X7794Y2866D01*
X7804Y2891D01*
X7804D01*
X7804Y2891D01*
X7805Y2893D01*
X7777Y2961D01*
X7791Y2994D01*
X7811Y3003D01*
X7811D01*
X7877Y3030D01*
D01*
Y3030D01*
X7877D01*
D01*
X7877Y3030D01*
X7879Y3031D01*
X7907Y3099D01*
X7906Y3100D01*
X7906D01*
X7906D01*
Y3100D01*
Y3100D01*
X7906D01*
X7896Y3126D01*
X8207Y3437D01*
X8277Y3408D01*
D02*
G37*
G36*
X3787Y3918D02*
X3831D01*
Y3766D01*
X3787D01*
Y3597D01*
X3485D01*
X3445Y3694D01*
Y3711D01*
X3499D01*
Y3882D01*
D01*
Y3882D01*
X3499Y3882D01*
Y3891D01*
D01*
X3499Y3935D01*
X3619D01*
X3649Y3947D01*
X3649Y3947D01*
X3649Y3947D01*
X3674Y3972D01*
X3787D01*
Y3918D01*
D02*
G37*
G36*
X3787Y4130D02*
Y4109D01*
X3787D01*
X3787Y4054D01*
X3656D01*
X3627Y4042D01*
X3602Y4017D01*
X3499D01*
Y4062D01*
X3369D01*
X3339Y4132D01*
X3372Y4165D01*
X3703D01*
X3787Y4130D01*
D02*
G37*
G36*
X5627Y4756D02*
X5635Y4749D01*
X5664Y4737D01*
X6229D01*
X6663Y4303D01*
X6648Y4228D01*
X6591Y4204D01*
X6579Y4175D01*
X6502D01*
X6490Y4204D01*
X6426Y4231D01*
Y4127D01*
Y4024D01*
X6490Y4051D01*
X6502Y4080D01*
X6579D01*
X6591Y4051D01*
X6655Y4024D01*
Y4128D01*
X6680D01*
Y4024D01*
X6677Y4023D01*
X6741Y3981D01*
Y1757D01*
X6224Y1241D01*
X6199Y1251D01*
Y1251D01*
X6199D01*
X6199D01*
Y1251D01*
D01*
X6198Y1252D01*
X6130Y1224D01*
X6129Y1222D01*
X6129D01*
D01*
Y1222D01*
X6129D01*
D01*
X6101Y1156D01*
X6130Y1088D01*
X6196Y1060D01*
Y1060D01*
X6198Y1059D01*
X6266Y1088D01*
D01*
D01*
D01*
Y1088D01*
X6294Y1156D01*
X6293Y1157D01*
X6293D01*
X6293D01*
Y1157D01*
Y1157D01*
X6293D01*
X6283Y1183D01*
X6811Y1711D01*
X6823Y1740D01*
X6823Y1740D01*
X6823Y1740D01*
Y4242D01*
X6811Y4271D01*
X6398Y4684D01*
X6427Y4755D01*
X6668Y4754D01*
X7221Y4202D01*
Y3757D01*
X7194Y3746D01*
X7166Y3678D01*
X7194Y3610D01*
X7262Y3582D01*
X7330Y3610D01*
X7358Y3678D01*
X7330Y3746D01*
X7303Y3757D01*
Y4219D01*
X7291Y4248D01*
X6856Y4683D01*
X6885Y4754D01*
X8910Y4750D01*
X8939Y4680D01*
X7999Y3739D01*
X7763D01*
X7752Y3766D01*
X7683Y3794D01*
X7615Y3766D01*
X7587Y3698D01*
X7615Y3630D01*
X7683Y3602D01*
X7752Y3630D01*
X7763Y3657D01*
X8016D01*
X8045Y3669D01*
X8045Y3669D01*
X8045Y3669D01*
X8984Y4608D01*
X9055Y4579D01*
Y4401D01*
X7837Y3184D01*
X7812Y3194D01*
Y3194D01*
X7812D01*
X7812D01*
Y3194D01*
D01*
X7811Y3195D01*
X7742Y3167D01*
X7742Y3165D01*
X7742D01*
D01*
Y3165D01*
X7742D01*
D01*
X7714Y3099D01*
X7732Y3057D01*
X7702Y2987D01*
X7646Y2963D01*
X7582Y3006D01*
Y3225D01*
X7609Y3236D01*
X7637Y3303D01*
X7637D01*
D01*
D01*
X7637D01*
Y3303D01*
D01*
Y3303D01*
X7637Y3305D01*
X7636Y3309D01*
Y3309D01*
X7634Y3314D01*
X7609Y3373D01*
Y3373D01*
D01*
D01*
D01*
X7541Y3401D01*
X7540Y3400D01*
Y3400D01*
X7473Y3373D01*
X7445Y3305D01*
X7473Y3236D01*
X7500Y3225D01*
Y2872D01*
X7512Y2843D01*
X7819Y2536D01*
X7819Y2536D01*
X7819D01*
X7819Y2536D01*
X7819D01*
Y2536D01*
D01*
D01*
D01*
D01*
X7819D01*
Y2536D01*
D01*
X7848Y2524D01*
X8551D01*
X8580Y2454D01*
X8371Y2244D01*
X8346Y2255D01*
Y2255D01*
X8346D01*
X8346D01*
Y2255D01*
D01*
X8344Y2255D01*
X8276Y2227D01*
X8275Y2225D01*
X8275D01*
D01*
Y2225D01*
X8275D01*
D01*
X8248Y2159D01*
X8258Y2134D01*
X8216Y2071D01*
X7988D01*
X7682Y2376D01*
X7653Y2388D01*
X7005D01*
X6976Y2376D01*
X6915Y2315D01*
X6903Y2286D01*
Y1437D01*
X6707Y1241D01*
X6682Y1251D01*
Y1251D01*
X6682D01*
X6682D01*
Y1251D01*
D01*
X6680Y1252D01*
X6612Y1224D01*
X6611Y1222D01*
X6611D01*
D01*
Y1222D01*
X6611D01*
D01*
X6584Y1156D01*
X6611Y1089D01*
X6611Y1089D01*
X6611D01*
X6612Y1088D01*
X6642Y1075D01*
X6657Y1000D01*
X6513Y857D01*
X6189D01*
X6025Y1020D01*
Y1718D01*
X6509Y2201D01*
X6509Y2201D01*
X6509Y2201D01*
X6521Y2230D01*
Y2687D01*
X6548Y2698D01*
X6575Y2764D01*
X6575D01*
D01*
D01*
X6575D01*
Y2764D01*
D01*
Y2764D01*
X6576Y2766D01*
X6574Y2771D01*
Y2771D01*
X6572Y2775D01*
X6548Y2834D01*
Y2834D01*
D01*
D01*
D01*
X6480Y2862D01*
X6478Y2862D01*
Y2862D01*
X6411Y2834D01*
X6383Y2766D01*
X6411Y2698D01*
X6438Y2687D01*
Y2247D01*
X6322Y2131D01*
X6252Y2160D01*
Y2540D01*
X6239Y2569D01*
X6110Y2699D01*
X6081Y2711D01*
X5108D01*
X5097Y2738D01*
X5029Y2766D01*
X4961Y2738D01*
X4933Y2670D01*
X4961Y2601D01*
X5029Y2573D01*
X5097Y2601D01*
X5108Y2628D01*
X6064D01*
X6138Y2554D01*
X6131Y2478D01*
X6109Y2464D01*
X6109Y2464D01*
Y2464D01*
X6041Y2435D01*
X6012Y2367D01*
X6024Y2340D01*
X5954Y2271D01*
X5145D01*
X5105Y2332D01*
X5105Y2332D01*
X5105D01*
X5078Y2398D01*
D01*
X5078D01*
Y2398D01*
D01*
D01*
X5078Y2398D01*
X5077Y2400D01*
X5076Y2400D01*
D01*
X5074Y2401D01*
X5009Y2428D01*
D01*
X5009D01*
D01*
X5007Y2427D01*
Y2427D01*
Y2427D01*
X5007D01*
D01*
D01*
X5007D01*
Y2427D01*
X4982Y2417D01*
X4903Y2495D01*
X4874Y2508D01*
X4836D01*
Y2572D01*
X4792D01*
Y2801D01*
X4780Y2830D01*
X4474Y3136D01*
X4445Y3148D01*
X4416D01*
Y3261D01*
X5334D01*
X5363Y3273D01*
X5363Y3273D01*
X5363Y3273D01*
X6124Y4034D01*
X6160Y4019D01*
X6236Y4051D01*
X6248Y4080D01*
X6325D01*
X6337Y4051D01*
X6401Y4024D01*
Y4127D01*
Y4231D01*
X6378Y4221D01*
X6323Y4276D01*
X6294Y4288D01*
X5629D01*
X5618Y4315D01*
X5563Y4338D01*
Y4247D01*
Y4156D01*
X5618Y4179D01*
X5629Y4206D01*
X5805D01*
Y4027D01*
X5901D01*
X5930Y3957D01*
X5317Y3343D01*
X4356D01*
X4334Y3334D01*
X4299Y3357D01*
X4270Y3427D01*
Y4168D01*
X4258Y4197D01*
X4262Y4206D01*
X5471D01*
X5482Y4179D01*
X5537Y4156D01*
Y4247D01*
Y4338D01*
X5482Y4315D01*
X5471Y4288D01*
X3396D01*
X3367Y4276D01*
X3326Y4235D01*
X3016Y3925D01*
X2955Y3951D01*
Y3806D01*
X3100D01*
X3075Y3867D01*
X3238Y4030D01*
X3308Y4001D01*
Y3891D01*
X3308Y3891D01*
X3308Y3882D01*
X3308D01*
Y3711D01*
X3362D01*
Y3589D01*
X3033Y3587D01*
X3018Y3662D01*
X3058Y3678D01*
X3100Y3781D01*
X2785D01*
X2803Y3736D01*
X2749Y3683D01*
X2692Y3706D01*
X2636Y3683D01*
X2582Y3736D01*
X2600Y3781D01*
X2442D01*
Y3793D01*
X2430D01*
Y3951D01*
X2327Y3908D01*
X2327D01*
X2327D01*
X2261Y3936D01*
Y4709D01*
X2315Y4762D01*
X5627Y4756D01*
D02*
G37*
G36*
X3480Y3396D02*
X3454Y3335D01*
X3088D01*
X3060Y3403D01*
X3060Y3403D01*
X3060Y3403D01*
X3058Y3408D01*
Y3408D01*
X3065Y3446D01*
X3416D01*
X3426Y3450D01*
X3480Y3396D01*
D02*
G37*
G36*
X2955Y3136D02*
X3058Y3178D01*
X3088Y3252D01*
X3228D01*
Y3080D01*
X3274D01*
X3284Y3070D01*
X3284Y3070D01*
X3284Y3070D01*
X3334Y3020D01*
X3305Y2950D01*
X3038D01*
X3023Y2985D01*
X2946Y3017D01*
X2946Y3017D01*
X2946D01*
X2946Y3017D01*
D01*
D01*
X2907Y3046D01*
Y3048D01*
X2895Y3077D01*
D01*
X2880Y3156D01*
X2930Y3136D01*
Y3293D01*
X2955D01*
Y3136D01*
D02*
G37*
%LPC*%
G36*
X3113Y2023D02*
X2968D01*
Y1878D01*
X3070Y1921D01*
X3113Y2023D01*
D02*
G37*
G36*
X2930Y3951D02*
X2827Y3908D01*
X2785Y3806D01*
X2930D01*
Y3951D01*
D02*
G37*
G36*
X2455D02*
Y3806D01*
X2600D01*
X2558Y3908D01*
X2455Y3951D01*
D02*
G37*
G36*
X2968Y2194D02*
Y2049D01*
X3113D01*
X3070Y2151D01*
X2968Y2194D01*
D02*
G37*
%LPD*%
D10*
X3975Y3186D02*
D03*
X4102D02*
D03*
X4229D02*
D03*
X4356D02*
D03*
X3975Y2706D02*
D03*
X4102D02*
D03*
X4229D02*
D03*
X4356D02*
D03*
D12*
X4052Y3670D02*
D03*
X3872D02*
D03*
X5348Y1829D02*
D03*
X5168D02*
D03*
X4751Y2476D02*
D03*
X4571D02*
D03*
X4052Y2337D02*
D03*
X3872D02*
D03*
X3326Y2172D02*
D03*
X3506D02*
D03*
X3326Y2464D02*
D03*
X3506D02*
D03*
X3494Y3175D02*
D03*
X3314D02*
D03*
X3872Y4013D02*
D03*
X4052D02*
D03*
D13*
X3404Y3976D02*
D03*
Y3796D02*
D03*
D19*
X3892Y2928D02*
X3975Y2845D01*
Y2855D01*
X4356Y3302D02*
X5334D01*
X4356Y3106D02*
X4445D01*
X4751Y2466D02*
X4874D01*
X3396Y4247D02*
X5550D01*
X3355Y4206D02*
X4191D01*
X3355D02*
X3396Y4247D01*
X3559Y2786D02*
Y2789D01*
X3632D01*
X3326Y2372D02*
Y2464D01*
X2870Y2789D02*
X3559D01*
X2849Y2372D02*
X3326D01*
X3792Y3249D02*
X3975D01*
X3648Y2172D02*
X5208D01*
X3506D02*
X3648D01*
X5644Y1720D02*
X6101Y2177D01*
X5644Y1720D02*
X5872D01*
X5451D02*
X5560Y1829D01*
X5451Y1720D02*
X5644D01*
X5201D02*
X5451D01*
X9222Y3126D02*
X9398Y3302D01*
X9222Y3094D02*
Y3126D01*
X8693Y2565D02*
X9222Y3094D01*
X7848Y2565D02*
X8693D01*
X7541Y2872D02*
X7848Y2565D01*
X7541Y2872D02*
Y3305D01*
X8959Y3625D02*
X9398Y4064D01*
X8959Y3168D02*
Y3625D01*
X8559Y2768D02*
X8959Y3168D01*
X8255Y2768D02*
X8559D01*
X8192Y2831D02*
X8255Y2768D01*
X8192Y2831D02*
Y2987D01*
X8090Y2718D02*
Y2784D01*
Y2718D02*
X8141Y2667D01*
X8545D01*
X9042Y3164D01*
Y3454D01*
X9398Y3810D01*
X7557Y2245D02*
X7856Y1946D01*
X8372D01*
X8839Y2413D01*
X9690D01*
X9816Y2539D01*
Y3392D01*
X9652Y3556D02*
X9816Y3392D01*
X5972Y2230D02*
X6109Y2367D01*
X4534Y2230D02*
X5972D01*
X4254Y2510D02*
X4534Y2230D01*
X4356Y3106D02*
Y3186D01*
X4445Y3106D02*
X4751Y2801D01*
Y2476D02*
Y2801D01*
X3787Y2337D02*
X3872D01*
X3632Y2789D02*
X3787Y2634D01*
X3866Y3368D02*
X4039D01*
X4102Y3305D01*
Y3186D02*
Y3305D01*
X2773Y2449D02*
X2849Y2372D01*
X2599Y2449D02*
X2773D01*
X2522Y2372D02*
X2599Y2449D01*
X2357Y2372D02*
X2522D01*
X2291Y2438D02*
X2357Y2372D01*
X2291Y2438D02*
Y2997D01*
X2316Y3023D01*
X2781D01*
X2807Y2997D01*
Y2852D02*
Y2997D01*
Y2852D02*
X2870Y2789D01*
X3787Y2337D02*
Y2634D01*
X5348Y1829D02*
Y2032D01*
X5208Y2172D02*
X5348Y2032D01*
X3404Y3548D02*
Y3796D01*
X2692Y3543D02*
X3404Y3548D01*
X4052Y2261D02*
Y2337D01*
X4019Y2228D02*
X4052Y2261D01*
X3774Y2228D02*
X4019D01*
X3665Y2337D02*
X3774Y2228D01*
X3665Y2337D02*
Y2494D01*
X3581Y2578D02*
X3665Y2494D01*
X3457Y2578D02*
X3581D01*
X3322Y2713D02*
X3457Y2578D01*
X2786Y2713D02*
X3322D01*
X2692Y2807D02*
X2786Y2713D01*
X2692Y2807D02*
Y2908D01*
X5029Y2670D02*
X6081D01*
X6210Y2540D01*
Y2057D02*
Y2540D01*
X5872Y1720D02*
X6210Y2057D01*
X6480Y2230D02*
Y2766D01*
X5984Y1735D02*
X6480Y2230D01*
X5984Y1003D02*
Y1735D01*
Y1003D02*
X6172Y815D01*
X6530D01*
X6871Y1156D01*
X6198D02*
X6782Y1740D01*
Y4242D01*
X6246Y4778D02*
X6782Y4242D01*
X5664Y4778D02*
X6246D01*
X5474Y4968D02*
X5664Y4778D01*
X5474Y4968D02*
Y5131D01*
X5542Y5199D01*
X5723D01*
X5842Y5080D01*
X5168Y1753D02*
Y1829D01*
Y1753D02*
X5201Y1720D01*
X8344Y2159D02*
X8700Y2515D01*
X8813D01*
X9279Y2981D01*
Y3094D01*
X9360Y3175D01*
X9444D01*
X9525Y3256D01*
Y3937D01*
X9652Y4064D01*
X6680Y1156D02*
X6944Y1420D01*
Y2286D01*
X7005Y2347D01*
X7653D01*
X7971Y2029D01*
X8362D01*
X8796Y2464D01*
X8839D01*
X9309Y2934D01*
X9474D01*
X9538Y2997D01*
Y3188D01*
X9652Y3302D01*
X7262Y3678D02*
Y4219D01*
X6558Y4923D02*
X7262Y4219D01*
X5745Y4923D02*
X6558D01*
X5588Y5080D02*
X5745Y4923D01*
X7709Y2893D02*
X7986Y2616D01*
X8649D01*
X9159Y3127D01*
Y3317D01*
X9398Y3556D01*
X5560Y1829D02*
Y2118D01*
X2942Y3793D02*
X3355Y4206D01*
X4191D02*
X4229Y4168D01*
Y3186D02*
Y4168D01*
X2866Y2988D02*
X2946Y2908D01*
X2866Y2988D02*
Y3048D01*
X2832Y3082D02*
X2866Y3048D01*
X2397Y3082D02*
X2832D01*
X2278Y3200D02*
X2397Y3082D01*
X2278Y3200D02*
Y3404D01*
X2331Y3456D01*
X2510D01*
X2586Y3380D01*
X2799D01*
X2905Y3487D01*
X3416D01*
X3485Y3556D01*
X4027D01*
X4052Y3581D01*
Y3670D01*
X3975Y3186D02*
Y3249D01*
X3688Y3353D02*
X3792Y3249D01*
X3314Y3099D02*
Y3175D01*
Y3099D02*
X3375Y3038D01*
X3676D01*
X3786Y2928D01*
X3892D01*
X3975Y2706D02*
Y2845D01*
X4229Y2706D02*
Y2931D01*
X4171Y2990D02*
X4229Y2931D01*
X3889Y2990D02*
X4171D01*
X3536Y3343D02*
X3889Y2990D01*
X3536Y3343D02*
Y3454D01*
X3586Y3505D01*
X4102D01*
X4153Y3556D01*
Y4122D01*
X3905D02*
X4153D01*
X3872Y4089D02*
X3905Y4122D01*
X3872Y4013D02*
Y4089D01*
X2946Y2908D02*
X3734D01*
X3838Y2804D01*
Y2642D02*
Y2804D01*
Y2642D02*
X3957Y2522D01*
X4039D01*
X4102Y2586D01*
Y2706D01*
X5550Y4247D02*
X6294D01*
X6414Y4128D01*
X3942Y2888D02*
X3975Y2855D01*
X8318Y2891D02*
Y3513D01*
X8997Y4191D01*
X9525D01*
X9652Y4318D01*
X7683Y3698D02*
X8016D01*
X9398Y5080D01*
X9652Y3810D02*
X9766Y3924D01*
Y4369D01*
X9690Y4445D02*
X9766Y4369D01*
X9157Y4445D02*
X9690D01*
X7811Y3099D02*
X9157Y4445D01*
X5334Y3302D02*
X6160Y4128D01*
X4356Y3186D02*
Y3302D01*
X4751Y2466D02*
Y2476D01*
X4874Y2466D02*
X5009Y2332D01*
X4356Y2540D02*
Y2706D01*
Y2540D02*
X4420Y2476D01*
X4571D01*
X3494Y3175D02*
Y3254D01*
X3454Y3293D02*
X3494Y3254D01*
X2942Y3293D02*
X3454D01*
X6414Y4128D02*
X6668D01*
X2455Y2036D02*
X2955D01*
X2455Y2536D02*
X2955D01*
X4229Y3010D02*
Y3186D01*
Y3010D02*
X4356Y2883D01*
Y2706D02*
Y2883D01*
X2442Y3293D02*
X2942D01*
X3326Y2172D02*
Y2372D01*
X3506Y2172D02*
Y2464D01*
X3656Y4013D02*
X3872D01*
X3619Y3976D02*
X3656Y4013D01*
X3404Y3976D02*
X3619D01*
X3872Y3670D02*
Y4013D01*
X4052Y3840D02*
Y4013D01*
Y3840D02*
X4052Y3840D01*
Y3670D02*
Y3840D01*
X9881Y25D02*
Y5296D01*
X2197D02*
X9881D01*
X2159Y25D02*
X9881D01*
X2159D02*
Y5258D01*
X2197Y5296D01*
D20*
X2413Y5080D02*
D03*
X6858D02*
D03*
X5080Y254D02*
D03*
X2438Y2908D02*
D03*
X4572Y5080D02*
D03*
X5906Y4128D02*
D03*
X9398Y5080D02*
D03*
X3302Y254D02*
D03*
X9398Y762D02*
D03*
X7366Y254D02*
D03*
D21*
X2667Y5080D02*
D03*
X2921D02*
D03*
X3175D02*
D03*
X3429D02*
D03*
X3683D02*
D03*
X3937D02*
D03*
X4191D02*
D03*
X7112D02*
D03*
X7366D02*
D03*
X7620D02*
D03*
X7874D02*
D03*
X8128D02*
D03*
X8382D02*
D03*
X8636D02*
D03*
X9398Y3048D02*
D03*
X9652Y3302D02*
D03*
X9398D02*
D03*
X9652Y3556D02*
D03*
X9398D02*
D03*
X9652Y3810D02*
D03*
X9398D02*
D03*
X9652Y4064D02*
D03*
X9398D02*
D03*
X9652Y4318D02*
D03*
X9398D02*
D03*
X9652Y4572D02*
D03*
X9398D02*
D03*
X9652Y4826D02*
D03*
X9398D02*
D03*
X5334Y254D02*
D03*
X5588D02*
D03*
X5842D02*
D03*
X6096D02*
D03*
X6350D02*
D03*
X6604D02*
D03*
X6858D02*
D03*
X2692Y2908D02*
D03*
X2946D02*
D03*
X4826Y5080D02*
D03*
X5080D02*
D03*
X5334D02*
D03*
X5588D02*
D03*
X5842D02*
D03*
X6096D02*
D03*
X6350D02*
D03*
X6668Y4128D02*
D03*
X6414D02*
D03*
X6160D02*
D03*
X9398Y1016D02*
D03*
X9652Y1270D02*
D03*
X9398D02*
D03*
X9652Y1524D02*
D03*
X9398D02*
D03*
X9652Y1778D02*
D03*
X9398D02*
D03*
X9652Y2032D02*
D03*
X9398D02*
D03*
X9652Y2286D02*
D03*
X9398D02*
D03*
X9652Y2540D02*
D03*
X9398D02*
D03*
X9652Y2794D02*
D03*
X9398D02*
D03*
X9652Y5080D02*
D03*
X3556Y254D02*
D03*
X3810D02*
D03*
X4064D02*
D03*
X4318D02*
D03*
X4572D02*
D03*
X9652Y762D02*
D03*
X9144Y254D02*
D03*
X8890D02*
D03*
X8636D02*
D03*
X8382D02*
D03*
X8128D02*
D03*
X7874D02*
D03*
X7620D02*
D03*
D22*
X9652Y3048D02*
D03*
Y1016D02*
D03*
D23*
X2455Y2536D02*
D03*
X2955D02*
D03*
Y2036D02*
D03*
X2455D02*
D03*
X2705Y2286D02*
D03*
X2442Y3793D02*
D03*
X2942D02*
D03*
Y3293D02*
D03*
X2442D02*
D03*
X2692Y3543D02*
D03*
D24*
X7541Y3305D02*
D03*
X8192Y2987D02*
D03*
X8090Y2784D02*
D03*
X7557Y2245D02*
D03*
X6109Y2367D02*
D03*
X4254Y2510D02*
D03*
X3559Y2786D02*
D03*
X3866Y3368D02*
D03*
X3648Y2172D02*
D03*
X5029Y2670D02*
D03*
X6480Y2766D02*
D03*
X6871Y1156D02*
D03*
X6198D02*
D03*
X6101Y2177D02*
D03*
X8344Y2159D02*
D03*
X6680Y1156D02*
D03*
X7262Y3678D02*
D03*
X7709Y2893D02*
D03*
X5560Y2118D02*
D03*
X3688Y3353D02*
D03*
X5550Y4247D02*
D03*
X3942Y2888D02*
D03*
X8318Y2891D02*
D03*
X7683Y3698D02*
D03*
X7811Y3099D02*
D03*
X5009Y2332D02*
D03*
M02*
