%FSLAX42Y42*%
%MOMM*%
G71*
G01*
G75*
G04 Layer_Color=16711935*
%ADD10O,0.60X2.20*%
%ADD11R,0.65X1.10*%
%ADD12R,1.20X1.40*%
%ADD13R,1.40X1.20*%
%ADD14R,2.00X1.30*%
%ADD15R,2.00X2.00*%
%ADD16R,1.40X1.10*%
%ADD17R,1.10X0.65*%
%ADD18O,0.60X2.30*%
%ADD19C,0.25*%
%ADD20R,1.50X1.50*%
%ADD21C,1.50*%
%ADD22R,1.50X1.50*%
%ADD23C,2.50*%
%ADD24C,1.27*%
%ADD25C,0.25*%
%ADD26C,0.60*%
%ADD27C,0.20*%
%ADD28O,0.80X2.40*%
%ADD29R,0.85X1.30*%
%ADD30R,1.40X1.60*%
%ADD31R,1.60X1.40*%
%ADD32R,2.20X1.50*%
%ADD33R,2.20X2.20*%
%ADD34R,1.60X1.30*%
%ADD35R,1.30X0.85*%
%ADD36O,0.80X2.50*%
%ADD37R,1.70X1.70*%
%ADD38C,1.70*%
%ADD39R,1.70X1.70*%
%ADD40C,2.70*%
%ADD41C,1.47*%
%ADD42C,0.03*%
%ADD43C,0.10*%
D43*
X6135Y1051D02*
G03*
X6135Y1051I-50J0D01*
G01*
X4538Y2379D02*
G03*
X4538Y2379I-50J0D01*
G01*
X6982Y2745D02*
G03*
X6982Y2745I-50J0D01*
G01*
X4056Y3056D02*
G03*
X4056Y3056I-50J0D01*
G01*
X6985Y961D02*
Y1351D01*
X5995Y961D02*
Y1351D01*
X6985D01*
X5995Y961D02*
X6985D01*
X6264Y2590D02*
Y2770D01*
X5954Y2590D02*
Y2770D01*
X6264D01*
X5954Y2590D02*
X6264D01*
X5341Y3397D02*
Y3537D01*
X5556Y3397D02*
Y3537D01*
X5341D02*
X5556D01*
X5341Y3397D02*
X5556D01*
X4552Y1822D02*
Y1962D01*
X4338Y1822D02*
Y1962D01*
Y1822D02*
X4552D01*
X4338Y1962D02*
X4552D01*
X4032Y2814D02*
X4172D01*
X4032Y3028D02*
X4172D01*
X4032Y2814D02*
Y3028D01*
X4172Y2814D02*
Y3028D01*
X3524Y4084D02*
X3664D01*
X3524Y4298D02*
X3664D01*
X3524Y4084D02*
Y4298D01*
X3664Y4084D02*
Y4298D01*
X4375Y4311D02*
Y4451D01*
X4160Y4311D02*
Y4451D01*
Y4311D02*
X4375D01*
X4160Y4451D02*
X4375D01*
X5213Y2152D02*
X5353D01*
X5213Y1937D02*
X5353D01*
Y2152D01*
X5213Y1937D02*
Y2152D01*
X4398Y2289D02*
X4898D01*
X4398Y2689D02*
X4898D01*
X4398Y2289D02*
Y2689D01*
X4898Y2289D02*
Y2689D01*
X7375Y1947D02*
Y2167D01*
X7230Y1947D02*
Y2167D01*
X7375D01*
X7230Y1947D02*
X7375D01*
X5219Y4054D02*
X5399D01*
X5219Y3744D02*
X5399D01*
X5219D02*
Y4054D01*
X5399Y3744D02*
Y4054D01*
X5646Y1899D02*
Y2039D01*
X5861Y1899D02*
Y2039D01*
X5646D02*
X5861D01*
X5646Y1899D02*
X5861D01*
X5289Y2623D02*
X5429D01*
X5289Y2838D02*
X5429D01*
X5289Y2623D02*
Y2838D01*
X5429Y2623D02*
Y2838D01*
X5048Y2940D02*
Y3080D01*
X4833Y2940D02*
Y3080D01*
Y2940D02*
X5048D01*
X4833Y3080D02*
X5048D01*
X7830Y3854D02*
Y3994D01*
X8045Y3854D02*
Y3994D01*
X7830D02*
X8045D01*
X7830Y3854D02*
X8045D01*
X3703Y1784D02*
Y1924D01*
X3917Y1784D02*
Y1924D01*
X3703D02*
X3917D01*
X3703Y1784D02*
X3917D01*
X8653Y2655D02*
Y3415D01*
X6842Y2655D02*
Y3415D01*
X8653D01*
X6842Y2655D02*
X8653D01*
X4070Y3600D02*
Y3740D01*
X3855Y3600D02*
Y3740D01*
X4070D01*
X3855Y3600D02*
X4070D01*
X5365Y1759D02*
Y1899D01*
X5150Y1759D02*
Y1899D01*
X5365D01*
X5150Y1759D02*
X5365D01*
X4768Y2407D02*
Y2547D01*
X4553Y2407D02*
Y2547D01*
X4768D01*
X4553Y2407D02*
X4768D01*
X4070Y2267D02*
Y2407D01*
X3855Y2267D02*
Y2407D01*
X4070D01*
X3855Y2267D02*
X4070D01*
X3309Y2102D02*
Y2242D01*
X3524Y2102D02*
Y2242D01*
X3309Y2102D02*
X3524D01*
X3309Y2242D02*
X3524D01*
X3309Y2394D02*
Y2534D01*
X3524Y2394D02*
Y2534D01*
X3309Y2394D02*
X3524D01*
X3309Y2534D02*
X3524D01*
X3511Y3105D02*
Y3245D01*
X3296Y3105D02*
Y3245D01*
X3511D01*
X3296Y3105D02*
X3511D01*
X3916Y3146D02*
X4416D01*
X3916Y2746D02*
X4416D01*
X3916D02*
Y3146D01*
X4416Y2746D02*
Y3146D01*
X3855Y3943D02*
Y4083D01*
X4070Y3943D02*
Y4083D01*
X3855Y3943D02*
X4070D01*
X3855Y4083D02*
X4070D01*
X3334Y3994D02*
X3474D01*
X3334Y3779D02*
X3474D01*
X3334D02*
Y3994D01*
X3474Y3779D02*
Y3994D01*
X2636Y1441D02*
Y1581D01*
X2851Y1441D02*
Y1581D01*
X2636D02*
X2851D01*
X2636Y1441D02*
X2851D01*
X2547Y4083D02*
Y4223D01*
X2762Y4083D02*
Y4223D01*
X2547D02*
X2762D01*
X2547Y4083D02*
X2762D01*
M02*
