%FSLAX42Y42*%
%MOMM*%
G71*
G01*
G75*
%ADD10O,0.60X2.20*%
%ADD11R,0.65X1.10*%
%ADD12R,1.20X1.40*%
%ADD13R,1.40X1.20*%
%ADD14R,2.00X1.30*%
%ADD15R,2.00X2.00*%
%ADD16R,1.40X1.10*%
%ADD17R,1.10X0.65*%
%ADD18O,0.60X2.30*%
%ADD19C,0.25*%
%ADD20R,1.50X1.50*%
%ADD21C,1.50*%
%ADD22R,1.50X1.50*%
%ADD23C,2.50*%
%ADD24C,1.27*%
%ADD25C,0.25*%
%ADD26C,0.60*%
%ADD27C,0.20*%
%ADD28O,0.80X2.40*%
%ADD29R,0.85X1.30*%
%ADD30R,1.40X1.60*%
%ADD31R,1.60X1.40*%
%ADD32R,2.20X1.50*%
%ADD33R,2.20X2.20*%
%ADD34R,1.60X1.30*%
%ADD35R,1.30X0.85*%
%ADD36O,0.80X2.50*%
%ADD37R,1.70X1.70*%
%ADD38C,1.70*%
%ADD39R,1.70X1.70*%
%ADD40C,2.70*%
%ADD41C,1.47*%
%ADD42C,0.03*%
%ADD43C,0.10*%
%ADD44C,0.03*%
%ADD45C,0.03*%
%ADD46C,0.00*%
D44*
X2368Y5080D02*
X2458D01*
X2413Y5035D02*
Y5125D01*
X2622Y5080D02*
X2712D01*
X2667Y5035D02*
Y5125D01*
X2876Y5080D02*
X2966D01*
X2921Y5035D02*
Y5125D01*
X3130Y5080D02*
X3220D01*
X3175Y5035D02*
Y5125D01*
X3384Y5080D02*
X3474D01*
X3429Y5035D02*
Y5125D01*
X3638Y5080D02*
X3728D01*
X3683Y5035D02*
Y5125D01*
X3892Y5080D02*
X3982D01*
X3937Y5035D02*
Y5125D01*
X4146Y5080D02*
X4236D01*
X4191Y5035D02*
Y5125D01*
X6813Y5080D02*
X6903D01*
X6858Y5035D02*
Y5125D01*
X7067Y5080D02*
X7157D01*
X7112Y5035D02*
Y5125D01*
X7321Y5080D02*
X7411D01*
X7366Y5035D02*
Y5125D01*
X7575Y5080D02*
X7665D01*
X7620Y5035D02*
Y5125D01*
X7829Y5080D02*
X7919D01*
X7874Y5035D02*
Y5125D01*
X8083Y5080D02*
X8173D01*
X8128Y5035D02*
Y5125D01*
X8337Y5080D02*
X8427D01*
X8382Y5035D02*
Y5125D01*
X8591Y5080D02*
X8681D01*
X8636Y5035D02*
Y5125D01*
X9607Y3048D02*
X9697D01*
X9652Y3003D02*
Y3093D01*
X9353Y3048D02*
X9443D01*
X9398Y3003D02*
Y3093D01*
X9607Y3302D02*
X9697D01*
X9652Y3257D02*
Y3347D01*
X9353Y3302D02*
X9443D01*
X9398Y3257D02*
Y3347D01*
X9607Y3556D02*
X9697D01*
X9652Y3511D02*
Y3601D01*
X9353Y3556D02*
X9443D01*
X9398Y3511D02*
Y3601D01*
X9607Y3810D02*
X9697D01*
X9652Y3765D02*
Y3855D01*
X9353Y3810D02*
X9443D01*
X9398Y3765D02*
Y3855D01*
X9607Y4064D02*
X9697D01*
X9652Y4019D02*
Y4109D01*
X9353Y4064D02*
X9443D01*
X9398Y4019D02*
Y4109D01*
X9607Y4318D02*
X9697D01*
X9652Y4273D02*
Y4363D01*
X9353Y4318D02*
X9443D01*
X9398Y4273D02*
Y4363D01*
X9607Y4572D02*
X9697D01*
X9652Y4527D02*
Y4617D01*
X9353Y4572D02*
X9443D01*
X9398Y4527D02*
Y4617D01*
X9607Y4826D02*
X9697D01*
X9652Y4781D02*
Y4871D01*
X9353Y4826D02*
X9443D01*
X9398Y4781D02*
Y4871D01*
X5035Y254D02*
X5125D01*
X5080Y209D02*
Y299D01*
X5289Y254D02*
X5379D01*
X5334Y209D02*
Y299D01*
X5543Y254D02*
X5633D01*
X5588Y209D02*
Y299D01*
X5797Y254D02*
X5887D01*
X5842Y209D02*
Y299D01*
X6051Y254D02*
X6141D01*
X6096Y209D02*
Y299D01*
X6305Y254D02*
X6395D01*
X6350Y209D02*
Y299D01*
X6559Y254D02*
X6649D01*
X6604Y209D02*
Y299D01*
X6813Y254D02*
X6903D01*
X6858Y209D02*
Y299D01*
X2393Y2908D02*
X2483D01*
X2438Y2863D02*
Y2953D01*
X2647Y2908D02*
X2737D01*
X2692Y2863D02*
Y2953D01*
X2901Y2908D02*
X2991D01*
X2946Y2863D02*
Y2953D01*
X4527Y5080D02*
X4617D01*
X4572Y5035D02*
Y5125D01*
X4781Y5080D02*
X4871D01*
X4826Y5035D02*
Y5125D01*
X5035Y5080D02*
X5125D01*
X5080Y5035D02*
Y5125D01*
X5289Y5080D02*
X5379D01*
X5334Y5035D02*
Y5125D01*
X5543Y5080D02*
X5633D01*
X5588Y5035D02*
Y5125D01*
X5797Y5080D02*
X5887D01*
X5842Y5035D02*
Y5125D01*
X6051Y5080D02*
X6141D01*
X6096Y5035D02*
Y5125D01*
X6305Y5080D02*
X6395D01*
X6350Y5035D02*
Y5125D01*
X6622Y4128D02*
X6712D01*
X6668Y4083D02*
Y4172D01*
X6369Y4128D02*
X6458D01*
X6414Y4083D02*
Y4172D01*
X6115Y4128D02*
X6204D01*
X6160Y4083D02*
Y4172D01*
X5860Y4128D02*
X5951D01*
X5906Y4083D02*
Y4172D01*
X2380Y2536D02*
X2530D01*
X2455Y2461D02*
Y2611D01*
X2880Y2536D02*
X3030D01*
X2955Y2461D02*
Y2611D01*
X2880Y2036D02*
X3030D01*
X2955Y1961D02*
Y2111D01*
X2380Y2036D02*
X2530D01*
X2455Y1961D02*
Y2111D01*
X2630Y2286D02*
X2780D01*
X2705Y2211D02*
Y2361D01*
X2367Y3793D02*
X2517D01*
X2442Y3718D02*
Y3868D01*
X2867Y3793D02*
X3017D01*
X2942Y3718D02*
Y3868D01*
X2867Y3293D02*
X3017D01*
X2942Y3218D02*
Y3368D01*
X2367Y3293D02*
X2517D01*
X2442Y3218D02*
Y3368D01*
X2617Y3543D02*
X2767D01*
X2692Y3468D02*
Y3618D01*
X9607Y1016D02*
X9697D01*
X9652Y971D02*
Y1061D01*
X9353Y1016D02*
X9443D01*
X9398Y971D02*
Y1061D01*
X9607Y1270D02*
X9697D01*
X9652Y1225D02*
Y1315D01*
X9353Y1270D02*
X9443D01*
X9398Y1225D02*
Y1315D01*
X9607Y1524D02*
X9697D01*
X9652Y1479D02*
Y1569D01*
X9353Y1524D02*
X9443D01*
X9398Y1479D02*
Y1569D01*
X9607Y1778D02*
X9697D01*
X9652Y1733D02*
Y1823D01*
X9353Y1778D02*
X9443D01*
X9398Y1733D02*
Y1823D01*
X9607Y2032D02*
X9697D01*
X9652Y1987D02*
Y2077D01*
X9353Y2032D02*
X9443D01*
X9398Y1987D02*
Y2077D01*
X9607Y2286D02*
X9697D01*
X9652Y2241D02*
Y2331D01*
X9353Y2286D02*
X9443D01*
X9398Y2241D02*
Y2331D01*
X9607Y2540D02*
X9697D01*
X9652Y2495D02*
Y2585D01*
X9353Y2540D02*
X9443D01*
X9398Y2495D02*
Y2585D01*
X9607Y2794D02*
X9697D01*
X9652Y2749D02*
Y2839D01*
X9353Y2794D02*
X9443D01*
X9398Y2749D02*
Y2839D01*
X9353Y5080D02*
X9443D01*
X9398Y5035D02*
Y5125D01*
X9607Y5080D02*
X9697D01*
X9652Y5035D02*
Y5125D01*
X3257Y254D02*
X3347D01*
X3302Y209D02*
Y299D01*
X3511Y254D02*
X3601D01*
X3556Y209D02*
Y299D01*
X3765Y254D02*
X3855D01*
X3810Y209D02*
Y299D01*
X4019Y254D02*
X4109D01*
X4064Y209D02*
Y299D01*
X4273Y254D02*
X4363D01*
X4318Y209D02*
Y299D01*
X4527Y254D02*
X4617D01*
X4572Y209D02*
Y299D01*
X9607Y762D02*
X9697D01*
X9652Y717D02*
Y807D01*
X9353Y762D02*
X9443D01*
X9398Y717D02*
Y807D01*
X9099Y254D02*
X9189D01*
X9144Y209D02*
Y299D01*
X8845Y254D02*
X8935D01*
X8890Y209D02*
Y299D01*
X8591Y254D02*
X8681D01*
X8636Y209D02*
Y299D01*
X8337Y254D02*
X8427D01*
X8382Y209D02*
Y299D01*
X8083Y254D02*
X8173D01*
X8128Y209D02*
Y299D01*
X7829Y254D02*
X7919D01*
X7874Y209D02*
Y299D01*
X7575Y254D02*
X7665D01*
X7620Y209D02*
Y299D01*
X7321Y254D02*
X7411D01*
X7366Y209D02*
Y299D01*
X7506Y3305D02*
X7577D01*
X7541Y3269D02*
Y3340D01*
X8156Y2987D02*
X8227D01*
X8192Y2951D02*
Y3023D01*
X8054Y2784D02*
X8125D01*
X8090Y2748D02*
Y2819D01*
X7521Y2245D02*
X7592D01*
X7557Y2210D02*
Y2281D01*
X6073Y2367D02*
X6144D01*
X6109Y2332D02*
Y2403D01*
X4219Y2510D02*
X4290D01*
X4254Y2474D02*
Y2545D01*
X3523Y2786D02*
X3594D01*
X3559Y2751D02*
Y2822D01*
X3830Y3368D02*
X3901D01*
X3866Y3332D02*
Y3404D01*
X3612Y2172D02*
X3683D01*
X3648Y2136D02*
Y2207D01*
X4994Y2670D02*
X5065D01*
X5029Y2634D02*
Y2705D01*
X6444Y2766D02*
X6515D01*
X6480Y2731D02*
Y2802D01*
X6835Y1156D02*
X6906D01*
X6871Y1120D02*
Y1191D01*
X6162Y1156D02*
X6233D01*
X6198Y1120D02*
Y1191D01*
X6066Y2177D02*
X6137D01*
X6101Y2141D02*
Y2212D01*
X8308Y2159D02*
X8379D01*
X8344Y2123D02*
Y2195D01*
X6645Y1156D02*
X6716D01*
X6680Y1120D02*
Y1191D01*
X7226Y3678D02*
X7297D01*
X7262Y3642D02*
Y3713D01*
X7673Y2893D02*
X7744D01*
X7709Y2858D02*
Y2929D01*
X5524Y2118D02*
X5596D01*
X5560Y2083D02*
Y2154D01*
X3653Y3353D02*
X3724D01*
X3688Y3317D02*
Y3388D01*
X5514Y4247D02*
X5585D01*
X5550Y4211D02*
Y4282D01*
X3907Y2888D02*
X3978D01*
X3942Y2852D02*
Y2924D01*
X8283Y2891D02*
X8354D01*
X8318Y2855D02*
Y2926D01*
X7648Y3698D02*
X7719D01*
X7683Y3663D02*
Y3734D01*
X7775Y3099D02*
X7846D01*
X7811Y3063D02*
Y3134D01*
X4973Y2332D02*
X5044D01*
X5009Y2296D02*
Y2367D01*
M02*
