%FSLAX42Y42*%
%MOMM*%
G71*
G01*
G75*
%ADD10R,1.20X1.40*%
%ADD11O,0.60X2.20*%
%ADD12R,1.40X1.20*%
%ADD13R,1.10X0.65*%
%ADD14R,1.40X1.10*%
%ADD15O,0.60X2.30*%
%ADD16R,2.00X1.30*%
%ADD17R,2.00X2.00*%
%ADD18R,0.65X1.10*%
%ADD19C,0.25*%
%ADD20R,1.50X1.50*%
%ADD21C,1.50*%
%ADD22C,2.50*%
%ADD23R,1.50X1.50*%
%ADD24C,1.27*%
%ADD25C,0.25*%
%ADD26C,0.60*%
%ADD27C,0.20*%
%ADD28C,0.20*%
D19*
X4855Y3217D02*
X5355D01*
X4855Y3717D02*
X5355D01*
X4855Y3217D02*
Y3267D01*
Y3667D02*
Y3717D01*
X5355Y3217D02*
Y3342D01*
Y3592D02*
Y3717D01*
X6552Y2069D02*
Y2221D01*
X6628D01*
X6653Y2196D01*
Y2145D01*
X6628Y2120D01*
X6552D01*
X6603D02*
X6653Y2069D01*
X6704D02*
X6755D01*
X6730D01*
Y2221D01*
X6704Y2196D01*
X6831D02*
X6857Y2221D01*
X6907D01*
X6933Y2196D01*
Y2094D01*
X6907Y2069D01*
X6857D01*
X6831Y2094D01*
Y2196D01*
X5987Y1981D02*
Y1854D01*
X6012Y1829D01*
X6063D01*
X6088Y1854D01*
Y1981D01*
X6215Y1829D02*
Y1981D01*
X6139Y1905D01*
X6241D01*
X5524Y1930D02*
X5499Y1956D01*
X5448D01*
X5423Y1930D01*
Y1829D01*
X5448Y1803D01*
X5499D01*
X5524Y1829D01*
X5575Y1803D02*
X5626D01*
X5601D01*
Y1956D01*
X5575Y1930D01*
X5702D02*
X5728Y1956D01*
X5778D01*
X5804Y1930D01*
Y1829D01*
X5778Y1803D01*
X5728D01*
X5702Y1829D01*
Y1930D01*
X2475Y1205D02*
Y1358D01*
X2551D01*
X2577Y1332D01*
Y1281D01*
X2551Y1256D01*
X2475D01*
X2526D02*
X2577Y1205D01*
X2628D02*
X2678D01*
X2653D01*
Y1358D01*
X2628Y1332D01*
X2856Y1205D02*
X2755D01*
X2856Y1307D01*
Y1332D01*
X2831Y1358D01*
X2780D01*
X2755Y1332D01*
X2399Y4317D02*
Y4469D01*
X2475D01*
X2501Y4444D01*
Y4393D01*
X2475Y4368D01*
X2399D01*
X2450D02*
X2501Y4317D01*
X2551D02*
X2602D01*
X2577D01*
Y4469D01*
X2551Y4444D01*
X2678Y4317D02*
X2729D01*
X2704D01*
Y4469D01*
X2678Y4444D01*
X7277Y1194D02*
Y1041D01*
X7353D01*
X7379Y1067D01*
Y1168D01*
X7353Y1194D01*
X7277D01*
X7531Y1041D02*
X7429D01*
X7531Y1143D01*
Y1168D01*
X7506Y1194D01*
X7455D01*
X7429Y1168D01*
X5867Y635D02*
X6020D01*
Y711D01*
X5994Y737D01*
X5893D01*
X5867Y711D01*
Y635D01*
X6020Y787D02*
Y838D01*
Y813D01*
X5867D01*
X5893Y787D01*
X4094Y3785D02*
Y3658D01*
X4120Y3632D01*
X4171D01*
X4196Y3658D01*
Y3785D01*
X4247Y3759D02*
X4272Y3785D01*
X4323D01*
X4348Y3759D01*
Y3734D01*
X4323Y3708D01*
X4298D01*
X4323D01*
X4348Y3683D01*
Y3658D01*
X4323Y3632D01*
X4272D01*
X4247Y3658D01*
X4785Y2995D02*
X4760Y3020D01*
X4709D01*
X4684Y2995D01*
Y2893D01*
X4709Y2868D01*
X4760D01*
X4785Y2893D01*
X4836Y3020D02*
X4938D01*
Y2995D01*
X4836Y2893D01*
Y2868D01*
X2281Y3790D02*
Y3942D01*
X2357D01*
X2382Y3917D01*
Y3866D01*
X2357Y3840D01*
X2281D01*
X2433Y3790D02*
X2484D01*
X2459D01*
Y3942D01*
X2433Y3917D01*
X2662Y3790D02*
X2560D01*
X2662Y3891D01*
Y3917D01*
X2636Y3942D01*
X2586D01*
X2560Y3917D01*
X5362Y2845D02*
Y2718D01*
X5387Y2692D01*
X5438D01*
X5463Y2718D01*
Y2845D01*
X5514Y2692D02*
X5565D01*
X5539D01*
Y2845D01*
X5514Y2819D01*
X5626Y3391D02*
X5474D01*
Y3467D01*
X5499Y3492D01*
X5550D01*
X5575Y3467D01*
Y3391D01*
Y3442D02*
X5626Y3492D01*
Y3645D02*
Y3543D01*
X5525Y3645D01*
X5499D01*
X5474Y3619D01*
Y3569D01*
X5499Y3543D01*
X4354Y4341D02*
Y4493D01*
X4430D01*
X4455Y4468D01*
Y4417D01*
X4430Y4392D01*
X4354D01*
X4404D02*
X4455Y4341D01*
X4506Y4468D02*
X4531Y4493D01*
X4582D01*
X4607Y4468D01*
Y4442D01*
X4582Y4417D01*
X4557D01*
X4582D01*
X4607Y4392D01*
Y4366D01*
X4582Y4341D01*
X4531D01*
X4506Y4366D01*
X3744Y4620D02*
Y4773D01*
X3820D01*
X3846Y4747D01*
Y4696D01*
X3820Y4671D01*
X3744D01*
X3795D02*
X3846Y4620D01*
X3896D02*
X3947D01*
X3922D01*
Y4773D01*
X3896Y4747D01*
X4547Y2362D02*
Y2210D01*
X4470D01*
X4445Y2235D01*
Y2286D01*
X4470Y2311D01*
X4547D01*
X4496D02*
X4445Y2362D01*
X4293Y2210D02*
X4343Y2235D01*
X4394Y2286D01*
Y2337D01*
X4369Y2362D01*
X4318D01*
X4293Y2337D01*
Y2311D01*
X4318Y2286D01*
X4394D01*
X6825Y4346D02*
Y4448D01*
X6876Y4498D01*
X6927Y4448D01*
Y4346D01*
Y4422D01*
X6825D01*
X6977Y4498D02*
Y4346D01*
X7054D01*
X7079Y4371D01*
Y4473D01*
X7054Y4498D01*
X6977D01*
X7231Y4473D02*
X7206Y4498D01*
X7155D01*
X7130Y4473D01*
Y4371D01*
X7155Y4346D01*
X7206D01*
X7231Y4371D01*
X7282Y4346D02*
X7333D01*
X7307D01*
Y4498D01*
X7282Y4473D01*
X5801Y2728D02*
X5776Y2753D01*
X5725D01*
X5700Y2728D01*
Y2626D01*
X5725Y2601D01*
X5776D01*
X5801Y2626D01*
X5852Y2728D02*
X5878Y2753D01*
X5928D01*
X5954Y2728D01*
Y2703D01*
X5928Y2677D01*
X5903D01*
X5928D01*
X5954Y2652D01*
Y2626D01*
X5928Y2601D01*
X5878D01*
X5852Y2626D01*
X3871Y3884D02*
X3846Y3909D01*
X3795D01*
X3769Y3884D01*
Y3782D01*
X3795Y3757D01*
X3846D01*
X3871Y3782D01*
X4023Y3909D02*
X3922D01*
Y3833D01*
X3972Y3858D01*
X3998D01*
X4023Y3833D01*
Y3782D01*
X3998Y3757D01*
X3947D01*
X3922Y3782D01*
X7010Y2870D02*
X6985Y2896D01*
X6934D01*
X6909Y2870D01*
Y2769D01*
X6934Y2743D01*
X6985D01*
X7010Y2769D01*
X7061Y2870D02*
X7087Y2896D01*
X7137D01*
X7163Y2870D01*
Y2845D01*
X7137Y2819D01*
X7163Y2794D01*
Y2769D01*
X7137Y2743D01*
X7087D01*
X7061Y2769D01*
Y2794D01*
X7087Y2819D01*
X7061Y2845D01*
Y2870D01*
X7087Y2819D02*
X7137D01*
X6563Y4608D02*
X6538Y4633D01*
X6487D01*
X6462Y4608D01*
Y4506D01*
X6487Y4481D01*
X6538D01*
X6563Y4506D01*
X6614D02*
X6640Y4481D01*
X6690D01*
X6716Y4506D01*
Y4608D01*
X6690Y4633D01*
X6640D01*
X6614Y4608D01*
Y4582D01*
X6640Y4557D01*
X6716D01*
X5210Y4341D02*
Y4493D01*
X5286D01*
X5311Y4468D01*
Y4417D01*
X5286Y4392D01*
X5210D01*
X5362Y4341D02*
X5413D01*
X5387D01*
Y4493D01*
X5362Y4468D01*
X5489Y4341D02*
X5540D01*
X5514D01*
Y4493D01*
X5489Y4468D01*
X7843Y2428D02*
X7818Y2454D01*
X7767D01*
X7742Y2428D01*
Y2403D01*
X7767Y2377D01*
X7818D01*
X7843Y2352D01*
Y2327D01*
X7818Y2301D01*
X7767D01*
X7742Y2327D01*
X7894Y2403D02*
Y2327D01*
X7920Y2301D01*
X7945Y2327D01*
X7970Y2301D01*
X7996Y2327D01*
Y2403D01*
X8047Y2301D02*
X8097D01*
X8072D01*
Y2403D01*
X8047D01*
X8199Y2428D02*
Y2403D01*
X8174D01*
X8224D01*
X8199D01*
Y2327D01*
X8224Y2301D01*
X8402Y2403D02*
X8326D01*
X8301Y2377D01*
Y2327D01*
X8326Y2301D01*
X8402D01*
X8453Y2454D02*
Y2301D01*
Y2377D01*
X8478Y2403D01*
X8529D01*
X8554Y2377D01*
Y2301D01*
X8605D02*
X8656D01*
X8631D01*
Y2454D01*
X8605Y2428D01*
X7254Y467D02*
Y620D01*
X7330D01*
X7356Y594D01*
Y544D01*
X7330Y518D01*
X7254D01*
X7508Y467D02*
X7407D01*
X7508Y569D01*
Y594D01*
X7483Y620D01*
X7432D01*
X7407Y594D01*
X4968Y467D02*
Y620D01*
X5044D01*
X5070Y594D01*
Y544D01*
X5044Y518D01*
X4968D01*
X5121Y594D02*
X5146Y620D01*
X5197D01*
X5222Y594D01*
Y569D01*
X5197Y544D01*
X5171D01*
X5197D01*
X5222Y518D01*
Y493D01*
X5197Y467D01*
X5146D01*
X5121Y493D01*
X7480Y4699D02*
Y4851D01*
X7556D01*
X7582Y4826D01*
Y4775D01*
X7556Y4750D01*
X7480D01*
X7709Y4699D02*
Y4851D01*
X7633Y4775D01*
X7734D01*
X5004Y4724D02*
Y4877D01*
X5080D01*
X5105Y4851D01*
Y4801D01*
X5080Y4775D01*
X5004D01*
X5156Y4851D02*
X5182Y4877D01*
X5232D01*
X5258Y4851D01*
Y4826D01*
X5232Y4801D01*
X5258Y4775D01*
Y4750D01*
X5232Y4724D01*
X5182D01*
X5156Y4750D01*
Y4775D01*
X5182Y4801D01*
X5156Y4826D01*
Y4851D01*
X5182Y4801D02*
X5232D01*
X3023Y4712D02*
Y4864D01*
X3099D01*
X3124Y4839D01*
Y4788D01*
X3099Y4762D01*
X3023D01*
X3175Y4864D02*
X3277D01*
Y4839D01*
X3175Y4737D01*
Y4712D01*
X3190Y467D02*
Y620D01*
X3266D01*
X3292Y594D01*
Y544D01*
X3266Y518D01*
X3190D01*
X3444Y620D02*
X3343D01*
Y544D01*
X3393Y569D01*
X3419D01*
X3444Y544D01*
Y493D01*
X3419Y467D01*
X3368D01*
X3343Y493D01*
X8928Y699D02*
Y851D01*
X9004D01*
X9030Y825D01*
Y775D01*
X9004Y749D01*
X8928D01*
X9080Y724D02*
X9106Y699D01*
X9157D01*
X9182Y724D01*
Y825D01*
X9157Y851D01*
X9106D01*
X9080Y825D01*
Y800D01*
X9106Y775D01*
X9182D01*
X8966Y1778D02*
Y1930D01*
X9042D01*
X9068Y1905D01*
Y1854D01*
X9042Y1829D01*
X8966D01*
X9119Y1778D02*
X9169D01*
X9144D01*
Y1930D01*
X9119Y1905D01*
X8966Y3835D02*
Y3988D01*
X9042D01*
X9068Y3962D01*
Y3912D01*
X9042Y3886D01*
X8966D01*
X9220Y3988D02*
X9169Y3962D01*
X9119Y3912D01*
Y3861D01*
X9144Y3835D01*
X9195D01*
X9220Y3861D01*
Y3886D01*
X9195Y3912D01*
X9119D01*
X8839Y5017D02*
Y5169D01*
X8915D01*
X8941Y5143D01*
Y5093D01*
X8915Y5067D01*
X8839D01*
X8992Y5017D02*
X9042D01*
X9017D01*
Y5169D01*
X8992Y5143D01*
X9119D02*
X9144Y5169D01*
X9195D01*
X9220Y5143D01*
Y5042D01*
X9195Y5017D01*
X9144D01*
X9119Y5042D01*
Y5143D01*
X7236Y2093D02*
X7211Y2118D01*
X7160D01*
X7135Y2093D01*
Y1991D01*
X7160Y1966D01*
X7211D01*
X7236Y1991D01*
X7287Y1966D02*
X7338D01*
X7313D01*
Y2118D01*
X7287Y2093D01*
X7414Y1966D02*
X7465D01*
X7440D01*
Y2118D01*
X7414Y2093D01*
X6805Y1433D02*
X6779Y1458D01*
X6728D01*
X6703Y1433D01*
Y1331D01*
X6728Y1306D01*
X6779D01*
X6805Y1331D01*
X6855Y1306D02*
X6906D01*
X6881D01*
Y1458D01*
X6855Y1433D01*
X7084Y1306D02*
X6982D01*
X7084Y1407D01*
Y1433D01*
X7059Y1458D01*
X7008D01*
X6982Y1433D01*
X2308Y2315D02*
Y2468D01*
X2384D01*
X2409Y2442D01*
Y2391D01*
X2384Y2366D01*
X2308D01*
X2460Y2315D02*
X2511D01*
X2485D01*
Y2468D01*
X2460Y2442D01*
X2587D02*
X2612Y2468D01*
X2663D01*
X2688Y2442D01*
Y2417D01*
X2663Y2391D01*
X2638D01*
X2663D01*
X2688Y2366D01*
Y2341D01*
X2663Y2315D01*
X2612D01*
X2587Y2341D01*
X4277Y2601D02*
Y2753D01*
X4354D01*
X4379Y2728D01*
Y2677D01*
X4354Y2652D01*
X4277D01*
X4328D02*
X4379Y2601D01*
X4430Y2728D02*
X4455Y2753D01*
X4506D01*
X4531Y2728D01*
Y2703D01*
X4506Y2677D01*
X4531Y2652D01*
Y2626D01*
X4506Y2601D01*
X4455D01*
X4430Y2626D01*
Y2652D01*
X4455Y2677D01*
X4430Y2703D01*
Y2728D01*
X4455Y2677D02*
X4506D01*
X2428Y2969D02*
X2403Y2995D01*
X2352D01*
X2327Y2969D01*
Y2944D01*
X2352Y2918D01*
X2403D01*
X2428Y2893D01*
Y2868D01*
X2403Y2842D01*
X2352D01*
X2327Y2868D01*
X2479Y2842D02*
X2530D01*
X2504D01*
Y2995D01*
X2479Y2969D01*
D25*
X5998Y1132D02*
G03*
X5998Y1132I-12J0D01*
G01*
X4106Y2935D02*
G03*
X4106Y2935I-12J0D01*
G01*
X5265Y2519D02*
G03*
X5265Y2519I-12J0D01*
G01*
X6836Y3215D02*
G03*
X6836Y3215I-12J0D01*
G01*
X7755Y1899D02*
G03*
X7755Y1899I-12J0D01*
G01*
D26*
X6959Y3470D02*
G03*
X6959Y3470I-30J0D01*
G01*
D27*
X2822Y3327D02*
G03*
X2822Y3327I-180J0D01*
G01*
X2847Y1854D02*
G03*
X2847Y1854I-180J0D01*
G01*
X6706Y1832D02*
Y1952D01*
X6011Y1282D02*
X6511D01*
X6011Y1462D02*
X6511D01*
X6011Y1282D02*
Y1462D01*
X6511Y1282D02*
Y1462D01*
X5664Y1578D02*
Y1698D01*
X2629Y969D02*
Y1089D01*
X2553Y4080D02*
Y4200D01*
X7408Y813D02*
X7528D01*
X6236Y651D02*
Y771D01*
X4119Y3085D02*
X4619D01*
X4119Y3265D02*
X4619D01*
X4119Y3085D02*
Y3265D01*
X4619Y3085D02*
Y3265D01*
X4839Y2632D02*
Y2752D01*
X2311Y2502D02*
X3073D01*
Y2756D01*
X2311D02*
X3073D01*
X2311Y2502D02*
Y2756D01*
X5397Y2182D02*
Y2492D01*
X5347Y2182D02*
Y2492D01*
Y2182D02*
X5397D01*
X5347Y2492D02*
X5397D01*
X5855Y2366D02*
Y2486D01*
X6617Y4245D02*
Y4365D01*
X6829Y3370D02*
X8639D01*
X6829Y3970D02*
X8639D01*
X6829Y3370D02*
Y3970D01*
X8639Y3370D02*
Y3970D01*
X4254Y2010D02*
Y2130D01*
X2542Y3642D02*
X2742D01*
X2957Y3227D02*
Y3427D01*
X2542Y3012D02*
X2742D01*
X2327Y3227D02*
Y3427D01*
X3899Y4385D02*
Y4505D01*
X4508Y4106D02*
Y4226D01*
X6210Y4001D02*
Y4254D01*
X5194Y4001D02*
X6210D01*
X5194Y4254D02*
X6210D01*
X5194Y4001D02*
Y4254D01*
X7770Y1994D02*
Y2044D01*
X8080Y1994D02*
Y2044D01*
X7770Y1994D02*
X8080D01*
X7770Y2044D02*
X8080D01*
X3924Y3521D02*
Y3641D01*
X7239Y381D02*
X9271D01*
X7239Y127D02*
Y381D01*
Y127D02*
X9271D01*
Y381D01*
X4953D02*
X6985D01*
X4953Y127D02*
Y381D01*
Y127D02*
X6985D01*
Y381D01*
X3175Y127D02*
X4699D01*
X3175Y381D02*
X4699D01*
X3175Y127D02*
Y381D01*
X4699Y127D02*
Y381D01*
X9271Y889D02*
X9779D01*
X9271Y635D02*
Y889D01*
Y635D02*
X9779D01*
Y889D01*
X9271D02*
Y2921D01*
X9779Y889D02*
Y2921D01*
X9271Y889D02*
X9779D01*
X9271Y2921D02*
X9779D01*
X9271D02*
Y4953D01*
X9779Y2921D02*
Y4953D01*
X9271Y2921D02*
X9779D01*
X9271Y4953D02*
X9779D01*
X9271Y5207D02*
X9779D01*
X9271Y4953D02*
Y5207D01*
Y4953D02*
X9779D01*
Y5207D01*
X2286D02*
X4318D01*
X2286Y4953D02*
Y5207D01*
Y4953D02*
X4318D01*
Y5207D01*
X4445D02*
X6477D01*
X4445Y4953D02*
Y5207D01*
Y4953D02*
X6477D01*
Y5207D01*
X6731D02*
X8763D01*
X6731Y4953D02*
Y5207D01*
Y4953D02*
X8763D01*
Y5207D01*
X2352Y1754D02*
Y1954D01*
X2567Y1539D02*
X2767D01*
X2982Y1754D02*
Y1954D01*
X2567Y2169D02*
X2767D01*
X6858Y1070D02*
Y1190D01*
X7290Y1731D02*
Y1851D01*
X4432Y2366D02*
Y2486D01*
D28*
X9449Y2946D02*
Y2989D01*
Y2968D01*
X9322D01*
X9343Y2946D01*
X9322Y3137D02*
X9343Y3095D01*
X9385Y3052D01*
X9428D01*
X9449Y3073D01*
Y3116D01*
X9428Y3137D01*
X9406D01*
X9385Y3116D01*
Y3052D01*
X9703Y2946D02*
Y2989D01*
Y2968D01*
X9576D01*
X9597Y2946D01*
X9576Y3137D02*
Y3052D01*
X9639D01*
X9618Y3095D01*
Y3116D01*
X9639Y3137D01*
X9682D01*
X9703Y3116D01*
Y3073D01*
X9682Y3052D01*
X9843Y1067D02*
X9800D01*
X9821D01*
Y940D01*
X9843Y961D01*
X9148Y1067D02*
X9233D01*
X9148Y982D01*
Y961D01*
X9169Y940D01*
X9212D01*
X9233Y961D01*
X9449Y4978D02*
Y5021D01*
Y5000D01*
X9322D01*
X9343Y4978D01*
X9322Y5169D02*
X9343Y5127D01*
X9385Y5084D01*
X9428D01*
X9449Y5105D01*
Y5148D01*
X9428Y5169D01*
X9406D01*
X9385Y5148D01*
Y5084D01*
X9703Y4978D02*
Y5021D01*
Y5000D01*
X9576D01*
X9597Y4978D01*
X9576Y5169D02*
Y5084D01*
X9639D01*
X9618Y5127D01*
Y5148D01*
X9639Y5169D01*
X9682D01*
X9703Y5148D01*
Y5105D01*
X9682Y5084D01*
X9161Y3099D02*
X9246D01*
X9161Y3014D01*
Y2993D01*
X9182Y2972D01*
X9224D01*
X9246Y2993D01*
M02*
