M48
;Layer_Color=9474304
;FILE_FORMAT=4:2
METRIC,LZ
;TYPE=PLATED
T1F00S00C0.71
T2F00S00C0.90
T3F00S00C1.50
%
T01
X006401Y000932
X006553Y001057
X008151Y000612
X00783Y002413
X007884Y002809
X007722Y003025
X008077Y003012
X008179Y003637
X008306Y003536
X008378Y003705
X008026Y003922
X007526Y003452
X004929Y003059
X0043Y003216
Y002644
X003886Y003005
X005032Y001864
T02
X003302Y000254
X003556
X00381
X004064
X004318
X004572
X00508
X005334
X005588
X005842
X006096
X00635
X006604
X006858
X007366
X00762
X007874
X008128
X008382
X008636
X00889
X009144
X009398Y000762
Y001016
X009652
Y00127
X009398
X009652Y000762
Y001524
X009398
Y001778
X009652
Y002032
X009398
Y002286
X009652
Y00254
X009398
Y002794
Y003048
X009652
Y003302
X009398
Y003556
X009652
Y00381
X009398
Y004064
X009652
Y004318
X009398
Y004572
X009652
Y004826
Y00508
X009398
Y004826
X009652Y002794
X008636Y00508
X008382
X008128
X007874
X00762
X007366
X007112
X006858
X00635
X006096
X005842
X005588
X005575Y004128
X005829
X006083
X005321
X005334Y00508
X00508
X004826
X004572
X004191
X003937
X003683
X003429
X003175
X002921
X002667
X002413
X002438Y002629
X002692
X002946
T03
X002417Y001604
Y002104
X002917
Y001604
X002667Y001854
X002892Y003077
X002642Y003327
X002392Y003077
Y003577
X002892
M30
