%FSLAX42Y42*%
%MOMM*%
G71*
G01*
G75*
G04 Layer_Color=8421504*
%ADD10R,1.20X1.40*%
%ADD11O,0.60X2.20*%
%ADD12R,1.40X1.20*%
%ADD13R,1.10X0.65*%
%ADD14R,1.40X1.10*%
%ADD15O,0.60X2.30*%
%ADD16R,2.00X1.30*%
%ADD17R,2.00X2.00*%
%ADD18R,0.65X1.10*%
%ADD19C,0.25*%
%ADD20R,1.50X1.50*%
%ADD21C,1.50*%
%ADD22C,2.50*%
%ADD23R,1.50X1.50*%
%ADD24C,1.27*%
%ADD25C,0.25*%
%ADD26C,0.60*%
%ADD27C,0.20*%
%ADD28C,0.20*%
D10*
X6616Y1892D02*
D03*
X6796D02*
D03*
X5754Y1638D02*
D03*
X5574D02*
D03*
X2539Y1029D02*
D03*
X2719D02*
D03*
X2463Y4140D02*
D03*
X2643D02*
D03*
X6326Y711D02*
D03*
X6146D02*
D03*
X4929Y2692D02*
D03*
X4749D02*
D03*
X5765Y2426D02*
D03*
X5945D02*
D03*
X6527Y4305D02*
D03*
X6707D02*
D03*
X4344Y2070D02*
D03*
X4164D02*
D03*
X3809Y4445D02*
D03*
X3989D02*
D03*
X4419Y4166D02*
D03*
X4599D02*
D03*
X4014Y3581D02*
D03*
X3834D02*
D03*
X6948Y1130D02*
D03*
X6768D02*
D03*
X7380Y1791D02*
D03*
X7200D02*
D03*
X4342Y2426D02*
D03*
X4522D02*
D03*
D11*
X6071Y1132D02*
D03*
X6198D02*
D03*
X6325D02*
D03*
X6452D02*
D03*
X6071Y1612D02*
D03*
X6198D02*
D03*
X6325D02*
D03*
X6452D02*
D03*
X4178Y2935D02*
D03*
X4305D02*
D03*
X4432D02*
D03*
X4559D02*
D03*
X4178Y3415D02*
D03*
X4305D02*
D03*
X4432D02*
D03*
X4559D02*
D03*
D12*
X7468Y723D02*
D03*
Y903D02*
D03*
D13*
X5492Y2432D02*
D03*
Y2242D02*
D03*
X5252D02*
D03*
Y2337D02*
D03*
Y2432D02*
D03*
D14*
X7341Y2818D02*
D03*
Y2668D02*
D03*
D15*
X6909Y3215D02*
D03*
X7036D02*
D03*
X7163D02*
D03*
X7290D02*
D03*
X7417D02*
D03*
X7544D02*
D03*
X7671D02*
D03*
X7798D02*
D03*
X7925D02*
D03*
X8052D02*
D03*
X8179D02*
D03*
X8306D02*
D03*
X8433D02*
D03*
X8560D02*
D03*
X6909Y4125D02*
D03*
X7036D02*
D03*
X7163D02*
D03*
X7290D02*
D03*
X7417D02*
D03*
X7544D02*
D03*
X7671D02*
D03*
X7798D02*
D03*
X7925D02*
D03*
X8052D02*
D03*
X8179D02*
D03*
X8306D02*
D03*
X8433D02*
D03*
X8560D02*
D03*
D16*
X4905Y3352D02*
D03*
Y3582D02*
D03*
D17*
X5305Y3467D02*
D03*
D18*
X7830Y1899D02*
D03*
X7925D02*
D03*
X8020D02*
D03*
Y2139D02*
D03*
X7830D02*
D03*
M02*
