%FSLAX42Y42*%
%MOMM*%
G71*
G01*
G75*
G04 Layer_Physical_Order=2*
G04 Layer_Color=16711680*
%ADD10R,1.20X1.40*%
%ADD11O,0.60X2.20*%
%ADD12R,1.40X1.20*%
%ADD13R,1.10X0.65*%
%ADD14R,1.40X1.10*%
%ADD15O,0.60X2.30*%
%ADD16R,2.00X1.30*%
%ADD17R,2.00X2.00*%
%ADD18R,0.65X1.10*%
%ADD19C,0.25*%
%ADD20R,1.50X1.50*%
%ADD21C,1.50*%
%ADD22C,2.50*%
%ADD23R,1.50X1.50*%
%ADD24C,1.27*%
G36*
X9169Y3777D02*
X9138Y3746D01*
X8457D01*
X8446Y3773D01*
X8378Y3801D01*
X8572Y4023D01*
X9169D01*
Y3777D01*
D02*
G37*
G36*
Y3442D02*
Y3386D01*
X8745Y2961D01*
X8670Y2976D01*
X8651Y3022D01*
X9099Y3471D01*
X9169Y3442D01*
D02*
G37*
G36*
Y470D02*
X8250D01*
X8219Y544D01*
X8230Y571D01*
X9169D01*
Y470D01*
D02*
G37*
G36*
Y4737D02*
Y4242D01*
X8509D01*
X8480Y4230D01*
X8185Y3936D01*
X8111Y3950D01*
X8094Y3990D01*
X8067Y4001D01*
X8056Y4030D01*
X7929Y4157D01*
X7899Y4169D01*
X6175D01*
X6160Y4204D01*
X6096Y4231D01*
Y4127D01*
Y4024D01*
X6160Y4051D01*
X6175Y4086D01*
X7882D01*
X7962Y4007D01*
X7958Y3990D01*
X7958Y3990D01*
X7958Y3990D01*
X7935Y3934D01*
X8026D01*
Y3922D01*
X8039D01*
Y3831D01*
X8026Y3826D01*
X8019Y3829D01*
X8036Y3769D01*
D01*
Y3582D01*
X8036Y3582D01*
X8036Y3582D01*
X8048Y3553D01*
X8094Y3507D01*
X8124Y3494D01*
X8227D01*
X8238Y3468D01*
X8306Y3439D01*
X8374Y3468D01*
X8401Y3534D01*
X8401D01*
Y3534D01*
D01*
Y3534D01*
X8402Y3536D01*
X8400Y3540D01*
X8400Y3540D01*
X8374Y3604D01*
X8378Y3608D01*
X8409Y3621D01*
X8409D01*
Y3621D01*
X8446Y3637D01*
X8457Y3663D01*
X9075D01*
X9104Y3593D01*
X8565Y3054D01*
X8156D01*
X8145Y3080D01*
X8079Y3108D01*
Y3108D01*
D01*
D01*
Y3108D01*
X8079D01*
X8077Y3109D01*
X8009Y3080D01*
X8008Y3079D01*
X8008D01*
X8008Y3079D01*
X8003Y3066D01*
X7944Y3054D01*
X7915Y3066D01*
X7801D01*
X7790Y3093D01*
X7723Y3121D01*
D01*
X7722Y3121D01*
X7654Y3093D01*
X7653Y3092D01*
D01*
X7646Y3076D01*
X7626Y3072D01*
X7567Y3120D01*
Y3373D01*
X7594Y3384D01*
X7622Y3450D01*
X7622D01*
D01*
D01*
X7622D01*
Y3450D01*
D01*
Y3450D01*
X7622Y3452D01*
X7620Y3457D01*
Y3457D01*
X7618Y3461D01*
X7594Y3520D01*
Y3520D01*
D01*
D01*
D01*
X7526Y3548D01*
X7524Y3547D01*
Y3547D01*
X7458Y3520D01*
X7430Y3452D01*
X7458Y3384D01*
X7485Y3373D01*
Y3048D01*
X7485Y3048D01*
X7485Y3048D01*
X7497Y3019D01*
X7626Y2889D01*
X7656Y2877D01*
X7748D01*
X7790Y2814D01*
X7788Y2809D01*
X7816Y2741D01*
X7884Y2713D01*
X7952Y2741D01*
X7963Y2768D01*
X8821D01*
X8851Y2780D01*
X9099Y3028D01*
X9169Y2999D01*
Y653D01*
X8230D01*
X8219Y680D01*
X8164Y703D01*
Y612D01*
X8151D01*
Y599D01*
X8060D01*
X8083Y544D01*
X8052Y470D01*
X2324D01*
X2311Y457D01*
X2261Y508D01*
Y1438D01*
X2324Y1480D01*
X2404Y1447D01*
Y1604D01*
Y1762D01*
X2324Y1728D01*
X2261Y1771D01*
Y1938D01*
X2324Y1980D01*
X2404Y1947D01*
Y2104D01*
Y2262D01*
X2324Y2228D01*
X2261Y2271D01*
Y2900D01*
X2324Y2943D01*
X2379Y2920D01*
Y3077D01*
Y3235D01*
X2324Y3212D01*
X2261Y3255D01*
Y3400D01*
X2324Y3443D01*
X2379Y3420D01*
Y3577D01*
Y3735D01*
X2324Y3712D01*
X2261Y3755D01*
Y4788D01*
X9119D01*
X9169Y4737D01*
D02*
G37*
%LPC*%
G36*
X6497Y932D02*
D01*
X6497Y932D01*
X6497Y932D01*
D02*
G37*
G36*
X5692Y4306D02*
X3579D01*
X3550Y4294D01*
X2965Y3710D01*
X2904Y3735D01*
Y3590D01*
X3049D01*
X3024Y3651D01*
X3596Y4223D01*
X3789D01*
X3818Y4153D01*
X3336Y3672D01*
X3324Y3642D01*
Y3173D01*
X3270D01*
Y3046D01*
X3270Y3046D01*
X3270Y3046D01*
X3270Y3002D01*
Y2994D01*
X3269Y2993D01*
X3107Y2993D01*
X3096Y2997D01*
D01*
Y3194D01*
X3084Y3223D01*
X2950Y3357D01*
X2921Y3369D01*
Y3427D01*
X3007Y3462D01*
X3049Y3565D01*
X2734D01*
X2752Y3521D01*
X2698Y3467D01*
X2642Y3490D01*
X2585Y3467D01*
X2531Y3521D01*
X2549Y3565D01*
X2404D01*
Y3420D01*
X2448Y3438D01*
X2502Y3384D01*
X2479Y3327D01*
X2502Y3271D01*
X2448Y3217D01*
X2404Y3235D01*
Y3077D01*
Y2920D01*
X2507Y2962D01*
X2537Y3036D01*
X2746D01*
X2776Y2962D01*
Y2962D01*
X2776D01*
X2776D01*
D01*
Y2962D01*
D01*
D01*
Y2962D01*
X2775Y2956D01*
X2718D01*
X2689Y2943D01*
X2549Y2804D01*
X2537Y2775D01*
Y2729D01*
X2338D01*
Y2528D01*
X2537D01*
Y2418D01*
X2537Y2418D01*
X2537Y2418D01*
X2549Y2389D01*
X2656Y2282D01*
X2685Y2270D01*
X2754D01*
X2793Y2213D01*
X2757Y2145D01*
X2563D01*
X2532Y2219D01*
X2430Y2262D01*
Y2104D01*
Y1947D01*
X2474Y1965D01*
X2528Y1911D01*
X2504Y1854D01*
X2528Y1797D01*
X2474Y1743D01*
X2430Y1762D01*
Y1604D01*
Y1447D01*
X2532Y1489D01*
X2563Y1563D01*
X2771D01*
X2802Y1489D01*
X2904Y1447D01*
Y1604D01*
Y1762D01*
X2860Y1743D01*
X2806Y1797D01*
X2830Y1854D01*
X2806Y1911D01*
X2860Y1965D01*
X2904Y1947D01*
Y2104D01*
X2917D01*
Y2117D01*
X3075D01*
X3037Y2207D01*
X3080Y2270D01*
X3482D01*
Y2216D01*
X3653D01*
Y2216D01*
X3653D01*
X3653Y2216D01*
X3662D01*
Y2216D01*
X3833D01*
Y2270D01*
X3988D01*
X4040Y2219D01*
X4069Y2207D01*
X4244D01*
Y2152D01*
X4288D01*
Y1953D01*
X4262Y1927D01*
X4250Y1897D01*
Y1683D01*
X4206D01*
Y1492D01*
D01*
Y1492D01*
X4184Y1470D01*
X3110D01*
X3049Y1530D01*
X3075Y1591D01*
X2930D01*
Y1447D01*
X2991Y1472D01*
X3063Y1399D01*
X3063Y1399D01*
X3063D01*
X3063Y1399D01*
X3063D01*
Y1399D01*
D01*
D01*
D01*
D01*
X3063D01*
Y1399D01*
D01*
X3093Y1387D01*
X4632D01*
X4661Y1399D01*
X4959Y1698D01*
X4971Y1727D01*
X4971Y1727D01*
X4971Y1727D01*
Y1728D01*
X5032Y1768D01*
X5032Y1768D01*
Y1768D01*
X5059Y1779D01*
X5935Y903D01*
X5964Y891D01*
X6322D01*
X6333Y864D01*
X6401Y836D01*
X6469Y864D01*
X6496Y931D01*
X6496D01*
Y931D01*
D01*
Y931D01*
X6497Y932D01*
X6497Y932D01*
X6497D01*
D01*
Y932D01*
X6538Y967D01*
X6552Y961D01*
X6552D01*
X6553Y960D01*
X6621Y989D01*
X6622Y990D01*
D01*
X6649Y1055D01*
X6649D01*
D01*
D01*
X6649D01*
Y1055D01*
D01*
D01*
D01*
D01*
Y1055D01*
X6649Y1057D01*
X6647Y1061D01*
Y1061D01*
X6637Y1086D01*
X6621Y1125D01*
X6621Y1125D01*
X6620Y1125D01*
X6620Y1125D01*
X6553Y1153D01*
X6500Y1280D01*
Y1318D01*
X6488Y1347D01*
X5394Y2442D01*
X5364Y2454D01*
X5281D01*
Y2508D01*
X5237D01*
Y2585D01*
X5225Y2614D01*
X4913Y2925D01*
X4929Y2963D01*
D01*
X4929D01*
X4929Y2963D01*
X4997Y2991D01*
X5024Y3058D01*
X5024D01*
D01*
D01*
X5024D01*
Y3058D01*
D01*
Y3058D01*
X5025Y3059D01*
X5023Y3064D01*
Y3064D01*
X5021Y3069D01*
X4997Y3127D01*
Y3127D01*
D01*
D01*
D01*
X4929Y3156D01*
X4927Y3155D01*
D01*
X4890Y3139D01*
X4861Y3139D01*
X4843Y3182D01*
X4801Y3199D01*
X4758Y3182D01*
X4758Y3182D01*
X4758Y3182D01*
X4758D01*
X4757Y3179D01*
X4716Y3182D01*
Y3182D01*
X4686Y3194D01*
Y3059D01*
X4661D01*
Y3194D01*
X4654Y3191D01*
D01*
X4651Y3190D01*
X4588Y3232D01*
Y3377D01*
X4590Y3378D01*
X4602Y3408D01*
Y3422D01*
X4646D01*
Y3613D01*
X4602D01*
Y3722D01*
X4615Y3735D01*
X4627Y3764D01*
X4627Y3764D01*
X4627Y3764D01*
Y3892D01*
X4671D01*
Y4083D01*
X4619D01*
X4615Y4093D01*
X4491Y4218D01*
Y4218D01*
D01*
Y4218D01*
X4492Y4223D01*
X5221D01*
Y4027D01*
X5363D01*
X5765Y3626D01*
X5765Y3626D01*
X5765D01*
X5765Y3626D01*
X5765D01*
Y3626D01*
D01*
D01*
D01*
D01*
X5765D01*
Y3626D01*
D01*
X5794Y3614D01*
X6571D01*
X7745Y2440D01*
X7734Y2413D01*
X7762Y2345D01*
X7830Y2317D01*
X7898Y2345D01*
X7925Y2411D01*
X7925D01*
D01*
D01*
X7925D01*
Y2411D01*
D01*
D01*
D01*
D01*
Y2411D01*
X7926Y2413D01*
X7924Y2418D01*
Y2418D01*
X7914Y2443D01*
X7899Y2479D01*
D01*
X7898Y2481D01*
D01*
Y2481D01*
D01*
D01*
D01*
D01*
X7898D01*
X7898Y2481D01*
X7830Y2509D01*
D01*
X7830D01*
D01*
X7828Y2509D01*
X7828D01*
D01*
Y2509D01*
Y2509D01*
Y2509D01*
X7828D01*
D01*
D01*
X7828D01*
Y2509D01*
X7803Y2498D01*
X6617Y3684D01*
X6588Y3696D01*
X5811D01*
X5550Y3957D01*
X5575Y4019D01*
X5652Y4051D01*
X5664Y4080D01*
X5740D01*
X5752Y4051D01*
X5817Y4024D01*
Y4127D01*
Y4231D01*
X5794Y4221D01*
X5721Y4294D01*
X5692Y4306D01*
D02*
G37*
G36*
X3075Y2092D02*
X2930D01*
Y1947D01*
X3032Y1989D01*
X3075Y2092D01*
D02*
G37*
G36*
X2930Y1762D02*
Y1617D01*
X3075D01*
X3032Y1719D01*
X2930Y1762D01*
D02*
G37*
G36*
X8138Y703D02*
X8083Y680D01*
X8060Y625D01*
X8138D01*
Y703D01*
D02*
G37*
G36*
X2879Y3735D02*
X2776Y3693D01*
X2734Y3590D01*
X2879D01*
Y3735D01*
D02*
G37*
G36*
X8014Y3909D02*
X7935D01*
X7958Y3854D01*
X8014Y3831D01*
Y3909D01*
D02*
G37*
G36*
X6071Y4231D02*
X6006Y4204D01*
X5994Y4175D01*
X5918D01*
X5906Y4204D01*
X5842Y4231D01*
Y4127D01*
Y4024D01*
X5906Y4051D01*
X5918Y4080D01*
X5994D01*
X6006Y4051D01*
X6071Y4024D01*
Y4127D01*
Y4231D01*
D02*
G37*
G36*
X2404Y3735D02*
Y3590D01*
X2549D01*
X2507Y3693D01*
X2404Y3735D01*
D02*
G37*
%LPD*%
G36*
X4822Y2384D02*
D01*
D01*
X4822D01*
Y2384D01*
D01*
X4822D01*
Y2384D01*
X4851Y2372D01*
X4930D01*
Y2318D01*
X4974D01*
Y2069D01*
X4901Y1996D01*
X4889Y1967D01*
Y1744D01*
X4785Y1641D01*
X4715Y1670D01*
Y2339D01*
X4733Y2383D01*
X4808Y2398D01*
X4822Y2384D01*
D02*
G37*
G36*
X4595Y2152D02*
D01*
X4632Y2115D01*
Y1683D01*
X4557D01*
Y1683D01*
D01*
X4513Y1683D01*
Y1880D01*
X4539Y1906D01*
X4551Y1935D01*
Y2152D01*
X4595Y2152D01*
D02*
G37*
G36*
X2870Y2552D02*
X2946Y2520D01*
X2982Y2535D01*
X3094Y2423D01*
X3065Y2353D01*
X2702D01*
X2619Y2435D01*
Y2482D01*
X2683Y2524D01*
X2692Y2520D01*
X2769Y2552D01*
X2781Y2581D01*
X2858D01*
X2870Y2552D01*
D02*
G37*
G36*
X4320Y4083D02*
X4320D01*
Y3892D01*
X4365D01*
Y3781D01*
X4351Y3768D01*
X4339Y3739D01*
Y3613D01*
X4295D01*
Y3422D01*
X4299D01*
X4336Y3385D01*
X4348Y3351D01*
X4300Y3312D01*
X4313Y3307D01*
Y3216D01*
Y3125D01*
X4300Y3119D01*
X4360Y3077D01*
Y2979D01*
X4377Y2937D01*
X4378Y2937D01*
Y2781D01*
X4327Y2729D01*
X4302Y2740D01*
Y2740D01*
X4302D01*
X4302D01*
Y2740D01*
D01*
X4300Y2740D01*
X4232Y2712D01*
X4231Y2711D01*
X4231D01*
D01*
Y2711D01*
X4231D01*
D01*
X4204Y2644D01*
X4204Y2644D01*
X4204D01*
X4140Y2618D01*
X4003Y2755D01*
Y3067D01*
X4047Y3067D01*
D01*
D01*
X4056D01*
Y3067D01*
X4129D01*
Y3162D01*
Y3258D01*
X4056D01*
D01*
D01*
X4056Y3258D01*
X4047D01*
Y3258D01*
X3876D01*
Y3097D01*
X3818Y3073D01*
X3790Y3005D01*
X3818Y2937D01*
X3886Y2909D01*
X3886Y2909D01*
X3886Y2909D01*
X3920Y2886D01*
Y2738D01*
X3920Y2738D01*
X3920Y2738D01*
X3932Y2709D01*
X4099Y2542D01*
X4070Y2472D01*
X3162D01*
X3040Y2593D01*
X3055Y2629D01*
X3023Y2706D01*
X2946Y2738D01*
X2921Y2799D01*
X2944Y2822D01*
X3062D01*
X3091Y2834D01*
X3123Y2866D01*
X3270D01*
Y2822D01*
X3461D01*
Y2948D01*
X3461Y2948D01*
D01*
X3461Y2993D01*
Y2993D01*
Y2997D01*
X3461Y3002D01*
X3461Y3046D01*
X3461Y3046D01*
X3461Y3046D01*
Y3173D01*
X3407D01*
Y3625D01*
X3929Y4147D01*
X4320D01*
Y4083D01*
D02*
G37*
G36*
X6418Y1301D02*
Y1151D01*
X6418Y1151D01*
X6418Y1151D01*
X6430Y1121D01*
X6468Y1083D01*
X6457Y1057D01*
X6457D01*
D01*
D01*
X6457Y1057D01*
X6457Y1057D01*
D01*
X6457Y1057D01*
X6467Y1001D01*
D01*
X6401Y1028D01*
X6333Y1000D01*
X6322Y973D01*
X5981D01*
X5117Y1838D01*
X5127Y1863D01*
X5127D01*
Y1863D01*
Y1863D01*
X5127D01*
D01*
Y1863D01*
D01*
D01*
X5128Y1864D01*
X5100Y1932D01*
X5100Y1932D01*
X5098Y1933D01*
Y1933D01*
X5032Y1961D01*
X5017Y1996D01*
X5045Y2023D01*
X5057Y2052D01*
Y2318D01*
X5101Y2318D01*
D01*
D01*
Y2318D01*
X5101D01*
X5110D01*
X5155Y2318D01*
X5155Y2318D01*
X5155Y2318D01*
X5281D01*
Y2339D01*
X5351Y2368D01*
X6418Y1301D01*
D02*
G37*
G36*
X4801Y2919D02*
X4802Y2920D01*
X5143Y2579D01*
X5114Y2508D01*
X5110D01*
Y2508D01*
X5101D01*
X5056Y2508D01*
X5056Y2508D01*
X5056Y2508D01*
X5028D01*
Y2413D01*
X5003D01*
Y2508D01*
X4930D01*
Y2508D01*
X4914D01*
X4861Y2562D01*
Y2567D01*
X4801D01*
Y2592D01*
X4861D01*
Y2659D01*
X4843Y2702D01*
X4842Y2702D01*
Y2723D01*
X4830Y2752D01*
X4715Y2867D01*
Y2886D01*
X4778Y2929D01*
X4801Y2919D01*
D02*
G37*
%LPC*%
G36*
X4288Y3307D02*
X4232Y3284D01*
X4231Y3282D01*
X4231D01*
X4231Y3282D01*
X4221Y3258D01*
X4154D01*
Y3162D01*
Y3067D01*
X4227D01*
Y3081D01*
X4290Y3124D01*
X4288Y3125D01*
Y3216D01*
Y3307D01*
D02*
G37*
%LPD*%
D10*
X4141Y3162D02*
D03*
X3961D02*
D03*
X4560Y3518D02*
D03*
X4380D02*
D03*
X5015Y2413D02*
D03*
X5195D02*
D03*
X4586Y3988D02*
D03*
X4406D02*
D03*
X3568Y2311D02*
D03*
X3748D02*
D03*
X4510Y2248D02*
D03*
X4330D02*
D03*
X4472Y1588D02*
D03*
X4292D02*
D03*
D11*
X4801Y2579D02*
D03*
X4674D02*
D03*
X4547D02*
D03*
X4420D02*
D03*
X4801Y3059D02*
D03*
X4674D02*
D03*
X4547D02*
D03*
X4420D02*
D03*
D12*
X3365Y2907D02*
D03*
Y3087D02*
D03*
D19*
X4159Y2541D02*
X4420D01*
X3961Y2738D02*
Y3080D01*
X3886Y3005D02*
X3961Y3080D01*
X4420Y3059D02*
Y3343D01*
Y2764D02*
Y3059D01*
X4292Y1521D02*
X4371D01*
X8179Y3637D02*
Y3688D01*
X8555Y4064D01*
X9398D01*
X7722Y3025D02*
X7915D01*
X8029Y2911D01*
X8753D01*
X9398Y3556D01*
X7526Y3048D02*
Y3452D01*
Y3048D02*
X7656Y2918D01*
X7920D01*
X7978Y2860D01*
X8778D01*
X9347Y3429D01*
X9525D01*
X9652Y3556D01*
X6588Y3655D02*
X7830Y2413D01*
X5794Y3655D02*
X6588D01*
X5321Y4128D02*
X5794Y3655D01*
X3961Y3080D02*
Y3162D01*
X5692Y4265D02*
X5829Y4128D01*
X3579Y4265D02*
X5692D01*
X2892Y3577D02*
X3579Y4265D01*
X5015Y2052D02*
Y2413D01*
X4930Y1967D02*
X5015Y2052D01*
X4930Y1727D02*
Y1967D01*
X4632Y1429D02*
X4930Y1727D01*
X3093Y1429D02*
X4632D01*
X2917Y1604D02*
X3093Y1429D01*
X4247Y3162D02*
X4300Y3216D01*
X4141Y3162D02*
X4247D01*
X4510Y2248D02*
X4547Y2431D01*
Y2579D01*
X3145Y2431D02*
X4547D01*
X2946Y2629D02*
X3145Y2431D01*
X4292Y1521D02*
Y1588D01*
X4371Y1479D02*
Y1521D01*
Y1479D02*
X4572D01*
Y1542D01*
X4674Y1643D01*
Y2579D01*
X4560Y3408D02*
Y3518D01*
X4547Y3394D02*
X4560Y3408D01*
X4547Y3059D02*
Y3394D01*
X4380Y3382D02*
Y3518D01*
Y3382D02*
X4420Y3343D01*
X4300Y2644D02*
X4420Y2764D01*
X4801Y2579D02*
Y2723D01*
X4674Y2850D02*
X4801Y2723D01*
X4674Y2850D02*
Y3059D01*
X4420Y2541D02*
Y2579D01*
X3961Y2738D02*
X4159Y2541D01*
X5964Y932D02*
X6401D01*
X5032Y1864D02*
X5964Y932D01*
X3365Y3087D02*
Y3642D01*
X3912Y4188D01*
X4461D01*
X4586Y4064D01*
Y3988D02*
Y4064D01*
X8151Y612D02*
X9502D01*
X9652Y762D01*
X8378Y3705D02*
X9155D01*
X9261Y3810D01*
X9398D01*
X9535Y4201D02*
X9652Y4318D01*
X8509Y4201D02*
X9535D01*
X8077Y3769D02*
X8509Y4201D01*
X8077Y3582D02*
Y3769D01*
Y3582D02*
X8124Y3536D01*
X8306D01*
X8026Y3922D02*
Y4001D01*
X7899Y4128D02*
X8026Y4001D01*
X6083Y4128D02*
X7899D01*
X6459Y1151D02*
X6553Y1057D01*
X6459Y1151D02*
Y1318D01*
X5364Y2413D02*
X6459Y1318D01*
X5195Y2413D02*
X5364D01*
X4801Y3059D02*
X4929D01*
X8077Y3012D02*
X8582D01*
X9240Y3670D01*
X9677D01*
X9766Y3759D01*
Y3950D01*
X9652Y4064D02*
X9766Y3950D01*
X7884Y2809D02*
X8821D01*
X9184Y3172D01*
X9697D01*
X9817Y3292D01*
Y4064D01*
X9703Y4178D02*
X9817Y4064D01*
X9601Y4178D02*
X9703D01*
X9538Y4115D02*
X9601Y4178D01*
X9538Y3924D02*
Y4115D01*
Y3924D02*
X9652Y3810D01*
X2692Y2629D02*
X2927Y2863D01*
X3062D01*
X3106Y2907D01*
X3365D01*
X2685Y2311D02*
X3568D01*
X2578Y2418D02*
X2685Y2311D01*
X2578Y2418D02*
Y2775D01*
X2718Y2914D01*
X2972D01*
X3055Y2997D01*
Y3194D01*
X2921Y3327D02*
X3055Y3194D01*
X2642Y3327D02*
X2921D01*
X4801Y2464D02*
Y2579D01*
Y2464D02*
X4851Y2413D01*
X5015D01*
X4801Y2979D02*
Y3059D01*
Y2979D02*
X5195Y2585D01*
Y2413D02*
Y2585D01*
X5829Y4128D02*
X6083D01*
X2417Y1604D02*
X2917D01*
X2417Y2104D02*
X2917D01*
X2392Y3077D02*
X2892D01*
X4586Y3764D02*
Y3988D01*
X4560Y3739D02*
X4586Y3764D01*
X4560Y3518D02*
Y3739D01*
X4406Y3764D02*
Y3988D01*
X4380Y3739D02*
X4406Y3764D01*
X4380Y3518D02*
Y3739D01*
X4330Y1935D02*
Y2248D01*
X4292Y1897D02*
X4330Y1935D01*
X4292Y1588D02*
Y1897D01*
X4069Y2248D02*
X4330D01*
X4006Y2311D02*
X4069Y2248D01*
X3748Y2311D02*
X4006D01*
X4510Y1935D02*
Y2248D01*
X4472Y1897D02*
X4510Y1935D01*
X4472Y1588D02*
Y1897D01*
X9881Y25D02*
Y5296D01*
X2197D02*
X9881D01*
X2159Y25D02*
X9881D01*
X2159D02*
Y5258D01*
X2197Y5296D01*
D20*
X2438Y2629D02*
D03*
X5321Y4128D02*
D03*
X7366Y254D02*
D03*
X5080D02*
D03*
X3302D02*
D03*
X9398Y762D02*
D03*
Y5080D02*
D03*
X2413D02*
D03*
X4572D02*
D03*
X6858D02*
D03*
D21*
X2692Y2629D02*
D03*
X2946D02*
D03*
X5575Y4128D02*
D03*
X5829D02*
D03*
X6083D02*
D03*
X9144Y254D02*
D03*
X8890D02*
D03*
X8636D02*
D03*
X8382D02*
D03*
X8128D02*
D03*
X7874D02*
D03*
X7620D02*
D03*
X6858D02*
D03*
X6604D02*
D03*
X6350D02*
D03*
X6096D02*
D03*
X5842D02*
D03*
X5588D02*
D03*
X5334D02*
D03*
X4572D02*
D03*
X4318D02*
D03*
X4064D02*
D03*
X3810D02*
D03*
X3556D02*
D03*
X9652Y762D02*
D03*
X9398Y2794D02*
D03*
X9652D02*
D03*
X9398Y2540D02*
D03*
X9652D02*
D03*
X9398Y2286D02*
D03*
X9652D02*
D03*
X9398Y2032D02*
D03*
X9652D02*
D03*
X9398Y1778D02*
D03*
X9652D02*
D03*
X9398Y1524D02*
D03*
X9652D02*
D03*
X9398Y1270D02*
D03*
X9652D02*
D03*
X9398Y1016D02*
D03*
Y4826D02*
D03*
X9652D02*
D03*
X9398Y4572D02*
D03*
X9652D02*
D03*
X9398Y4318D02*
D03*
X9652D02*
D03*
X9398Y4064D02*
D03*
X9652D02*
D03*
X9398Y3810D02*
D03*
X9652D02*
D03*
X9398Y3556D02*
D03*
X9652D02*
D03*
X9398Y3302D02*
D03*
X9652D02*
D03*
X9398Y3048D02*
D03*
X9652Y5080D02*
D03*
X4191D02*
D03*
X3937D02*
D03*
X3683D02*
D03*
X3429D02*
D03*
X3175D02*
D03*
X2921D02*
D03*
X2667D02*
D03*
X6350D02*
D03*
X6096D02*
D03*
X5842D02*
D03*
X5588D02*
D03*
X5334D02*
D03*
X5080D02*
D03*
X4826D02*
D03*
X8636D02*
D03*
X8382D02*
D03*
X8128D02*
D03*
X7874D02*
D03*
X7620D02*
D03*
X7366D02*
D03*
X7112D02*
D03*
D22*
X2392Y3577D02*
D03*
X2892D02*
D03*
Y3077D02*
D03*
X2392D02*
D03*
X2642Y3327D02*
D03*
X2667Y1854D02*
D03*
X2417Y1604D02*
D03*
X2917D02*
D03*
Y2104D02*
D03*
X2417D02*
D03*
D23*
X9652Y1016D02*
D03*
Y3048D02*
D03*
D24*
X8179Y3637D02*
D03*
X7722Y3025D02*
D03*
X7526Y3452D02*
D03*
X7830Y2413D02*
D03*
X3886Y3005D02*
D03*
X4300Y3216D02*
D03*
Y2644D02*
D03*
X6401Y932D02*
D03*
X5032Y1864D02*
D03*
X8151Y612D02*
D03*
X8378Y3705D02*
D03*
X8306Y3536D02*
D03*
X8026Y3922D02*
D03*
X6553Y1057D02*
D03*
X4929Y3059D02*
D03*
X8077Y3012D02*
D03*
X7884Y2809D02*
D03*
M02*
