M48
;Layer_Color=9474304
;FILE_FORMAT=2:4
INCH
;TYPE=PLATED
T1F00S00C0.0280
T2F00S00C0.0354
T3F00S00C0.0591
%
T01
X035300Y013670
X035900Y014160
X042190Y012410
X040926Y019500
X041140Y021060
X040500Y021910
X041900Y021860
X042300Y024320
X042800Y023920
X043085Y024585
X041700Y025440
X039730Y023590
X029504Y022045
X027030Y022660
Y020410
X025400Y021830
X029910Y017340
T02
X023100Y011000
X024100
X025100
X026100
X027100
X028100
X030100
X031100
X032100
X033100
X034100
X035100
X036100
X037100
X039100
X040100
X041100
X042100
X043100
X044100
X045100
X046100
X047100Y013000
Y014000
X048100
Y015000
X047100
X048100Y013000
Y016000
X047100
Y017000
X048100
Y018000
X047100
Y019000
X048100
Y020000
X047100
Y021000
Y022000
X048100
Y023000
X047100
Y024000
X048100
Y025000
X047100
Y026000
X048100
Y027000
X047100
Y028000
X048100
Y029000
Y030000
X047100
Y029000
X048100Y021000
X044100Y030000
X043100
X042100
X041100
X040100
X039100
X038100
X037100
X035100
X034100
X033100
X032100
X032050Y026250
X033050
X034050
X031050
X031100Y030000
X030100
X029100
X028100
X026600
X025600
X024600
X023600
X022600
X021600
X020600
X019600
X019700Y020350
X020700
X021700
T03
X019616Y016316
Y018284
X021584
Y016316
X020600Y017300
X021484Y022116
X020500Y023100
X019516Y022116
Y024084
X021484
M30
