%FSLAX42Y42*%
%MOMM*%
G71*
G01*
G75*
%ADD10R,1.20X1.40*%
%ADD11O,0.60X2.20*%
%ADD12R,1.40X1.20*%
%ADD13R,1.10X0.65*%
%ADD14R,1.40X1.10*%
%ADD15O,0.60X2.30*%
%ADD16R,2.00X1.30*%
%ADD17R,2.00X2.00*%
%ADD18R,0.65X1.10*%
%ADD19C,0.25*%
%ADD20R,1.50X1.50*%
%ADD21C,1.50*%
%ADD22C,2.50*%
%ADD23R,1.50X1.50*%
%ADD24C,1.27*%
%ADD25C,0.25*%
%ADD26C,0.60*%
%ADD27C,0.20*%
%ADD28C,0.20*%
%ADD29R,1.40X1.60*%
%ADD30O,0.80X2.40*%
%ADD31R,1.60X1.40*%
%ADD32R,1.30X0.85*%
%ADD33R,1.60X1.30*%
%ADD34O,0.80X2.50*%
%ADD35R,2.20X1.50*%
%ADD36R,2.20X2.20*%
%ADD37R,0.85X1.30*%
%ADD38R,1.70X1.70*%
%ADD39C,1.70*%
%ADD40C,2.70*%
%ADD41R,1.70X1.70*%
%ADD42C,1.47*%
%ADD43C,0.03*%
%ADD44C,0.10*%
%ADD45C,0.03*%
%ADD46C,0.03*%
%ADD47C,0.00*%
D45*
X2393Y2629D02*
X2483D01*
X2438Y2584D02*
Y2674D01*
X2647Y2629D02*
X2737D01*
X2692Y2584D02*
Y2674D01*
X2901Y2629D02*
X2991D01*
X2946Y2584D02*
Y2674D01*
X2317Y3577D02*
X2467D01*
X2392Y3502D02*
Y3652D01*
X2817Y3577D02*
X2967D01*
X2892Y3502D02*
Y3652D01*
X2817Y3077D02*
X2967D01*
X2892Y3002D02*
Y3152D01*
X2317Y3077D02*
X2467D01*
X2392Y3002D02*
Y3152D01*
X2567Y3327D02*
X2717D01*
X2642Y3252D02*
Y3402D01*
X5276Y4128D02*
X5366D01*
X5321Y4083D02*
Y4172D01*
X5530Y4128D02*
X5620D01*
X5575Y4083D02*
Y4172D01*
X5784Y4128D02*
X5874D01*
X5829Y4083D02*
Y4172D01*
X6038Y4128D02*
X6128D01*
X6083Y4083D02*
Y4172D01*
X9099Y254D02*
X9189D01*
X9144Y209D02*
Y299D01*
X8845Y254D02*
X8935D01*
X8890Y209D02*
Y299D01*
X8591Y254D02*
X8681D01*
X8636Y209D02*
Y299D01*
X8337Y254D02*
X8427D01*
X8382Y209D02*
Y299D01*
X8083Y254D02*
X8173D01*
X8128Y209D02*
Y299D01*
X7829Y254D02*
X7919D01*
X7874Y209D02*
Y299D01*
X7575Y254D02*
X7665D01*
X7620Y209D02*
Y299D01*
X7321Y254D02*
X7411D01*
X7366Y209D02*
Y299D01*
X6813Y254D02*
X6903D01*
X6858Y209D02*
Y299D01*
X6559Y254D02*
X6649D01*
X6604Y209D02*
Y299D01*
X6305Y254D02*
X6395D01*
X6350Y209D02*
Y299D01*
X6051Y254D02*
X6141D01*
X6096Y209D02*
Y299D01*
X5797Y254D02*
X5887D01*
X5842Y209D02*
Y299D01*
X5543Y254D02*
X5633D01*
X5588Y209D02*
Y299D01*
X5289Y254D02*
X5379D01*
X5334Y209D02*
Y299D01*
X5035Y254D02*
X5125D01*
X5080Y209D02*
Y299D01*
X4527Y254D02*
X4617D01*
X4572Y209D02*
Y299D01*
X4273Y254D02*
X4363D01*
X4318Y209D02*
Y299D01*
X4019Y254D02*
X4109D01*
X4064Y209D02*
Y299D01*
X3765Y254D02*
X3855D01*
X3810Y209D02*
Y299D01*
X3511Y254D02*
X3601D01*
X3556Y209D02*
Y299D01*
X3257Y254D02*
X3347D01*
X3302Y209D02*
Y299D01*
X9607Y762D02*
X9697D01*
X9652Y717D02*
Y807D01*
X9353Y762D02*
X9443D01*
X9398Y717D02*
Y807D01*
X9353Y2794D02*
X9443D01*
X9398Y2749D02*
Y2839D01*
X9607Y2794D02*
X9697D01*
X9652Y2749D02*
Y2839D01*
X9353Y2540D02*
X9443D01*
X9398Y2495D02*
Y2585D01*
X9607Y2540D02*
X9697D01*
X9652Y2495D02*
Y2585D01*
X9353Y2286D02*
X9443D01*
X9398Y2241D02*
Y2331D01*
X9607Y2286D02*
X9697D01*
X9652Y2241D02*
Y2331D01*
X9353Y2032D02*
X9443D01*
X9398Y1987D02*
Y2077D01*
X9607Y2032D02*
X9697D01*
X9652Y1987D02*
Y2077D01*
X9353Y1778D02*
X9443D01*
X9398Y1733D02*
Y1823D01*
X9607Y1778D02*
X9697D01*
X9652Y1733D02*
Y1823D01*
X9353Y1524D02*
X9443D01*
X9398Y1479D02*
Y1569D01*
X9607Y1524D02*
X9697D01*
X9652Y1479D02*
Y1569D01*
X9353Y1270D02*
X9443D01*
X9398Y1225D02*
Y1315D01*
X9607Y1270D02*
X9697D01*
X9652Y1225D02*
Y1315D01*
X9353Y1016D02*
X9443D01*
X9398Y971D02*
Y1061D01*
X9607Y1016D02*
X9697D01*
X9652Y971D02*
Y1061D01*
X9353Y4826D02*
X9443D01*
X9398Y4781D02*
Y4871D01*
X9607Y4826D02*
X9697D01*
X9652Y4781D02*
Y4871D01*
X9353Y4572D02*
X9443D01*
X9398Y4527D02*
Y4617D01*
X9607Y4572D02*
X9697D01*
X9652Y4527D02*
Y4617D01*
X9353Y4318D02*
X9443D01*
X9398Y4273D02*
Y4363D01*
X9607Y4318D02*
X9697D01*
X9652Y4273D02*
Y4363D01*
X9353Y4064D02*
X9443D01*
X9398Y4019D02*
Y4109D01*
X9607Y4064D02*
X9697D01*
X9652Y4019D02*
Y4109D01*
X9353Y3810D02*
X9443D01*
X9398Y3765D02*
Y3855D01*
X9607Y3810D02*
X9697D01*
X9652Y3765D02*
Y3855D01*
X9353Y3556D02*
X9443D01*
X9398Y3511D02*
Y3601D01*
X9607Y3556D02*
X9697D01*
X9652Y3511D02*
Y3601D01*
X9353Y3302D02*
X9443D01*
X9398Y3257D02*
Y3347D01*
X9607Y3302D02*
X9697D01*
X9652Y3257D02*
Y3347D01*
X9353Y3048D02*
X9443D01*
X9398Y3003D02*
Y3093D01*
X9607Y3048D02*
X9697D01*
X9652Y3003D02*
Y3093D01*
X9607Y5080D02*
X9697D01*
X9652Y5035D02*
Y5125D01*
X9353Y5080D02*
X9443D01*
X9398Y5035D02*
Y5125D01*
X4146Y5080D02*
X4236D01*
X4191Y5035D02*
Y5125D01*
X3892Y5080D02*
X3982D01*
X3937Y5035D02*
Y5125D01*
X3638Y5080D02*
X3728D01*
X3683Y5035D02*
Y5125D01*
X3384Y5080D02*
X3474D01*
X3429Y5035D02*
Y5125D01*
X3130Y5080D02*
X3220D01*
X3175Y5035D02*
Y5125D01*
X2876Y5080D02*
X2966D01*
X2921Y5035D02*
Y5125D01*
X2622Y5080D02*
X2712D01*
X2667Y5035D02*
Y5125D01*
X2368Y5080D02*
X2458D01*
X2413Y5035D02*
Y5125D01*
X6305Y5080D02*
X6395D01*
X6350Y5035D02*
Y5125D01*
X6051Y5080D02*
X6141D01*
X6096Y5035D02*
Y5125D01*
X5797Y5080D02*
X5887D01*
X5842Y5035D02*
Y5125D01*
X5543Y5080D02*
X5633D01*
X5588Y5035D02*
Y5125D01*
X5289Y5080D02*
X5379D01*
X5334Y5035D02*
Y5125D01*
X5035Y5080D02*
X5125D01*
X5080Y5035D02*
Y5125D01*
X4781Y5080D02*
X4871D01*
X4826Y5035D02*
Y5125D01*
X4527Y5080D02*
X4617D01*
X4572Y5035D02*
Y5125D01*
X8591Y5080D02*
X8681D01*
X8636Y5035D02*
Y5125D01*
X8337Y5080D02*
X8427D01*
X8382Y5035D02*
Y5125D01*
X8083Y5080D02*
X8173D01*
X8128Y5035D02*
Y5125D01*
X7829Y5080D02*
X7919D01*
X7874Y5035D02*
Y5125D01*
X7575Y5080D02*
X7665D01*
X7620Y5035D02*
Y5125D01*
X7321Y5080D02*
X7411D01*
X7366Y5035D02*
Y5125D01*
X7067Y5080D02*
X7157D01*
X7112Y5035D02*
Y5125D01*
X6813Y5080D02*
X6903D01*
X6858Y5035D02*
Y5125D01*
X2592Y1854D02*
X2742D01*
X2667Y1779D02*
Y1929D01*
X2342Y1604D02*
X2492D01*
X2417Y1529D02*
Y1679D01*
X2842Y1604D02*
X2992D01*
X2917Y1529D02*
Y1679D01*
X2842Y2104D02*
X2992D01*
X2917Y2029D02*
Y2179D01*
X2342Y2104D02*
X2492D01*
X2417Y2029D02*
Y2179D01*
X8143Y3637D02*
X8214D01*
X8179Y3602D02*
Y3673D01*
X7686Y3025D02*
X7757D01*
X7722Y2990D02*
Y3061D01*
X7490Y3452D02*
X7562D01*
X7526Y3416D02*
Y3487D01*
X7794Y2413D02*
X7865D01*
X7830Y2377D02*
Y2449D01*
X3851Y3005D02*
X3922D01*
X3886Y2969D02*
Y3040D01*
X4265Y3216D02*
X4336D01*
X4300Y3180D02*
Y3251D01*
X4265Y2644D02*
X4336D01*
X4300Y2609D02*
Y2680D01*
X6365Y932D02*
X6436D01*
X6401Y897D02*
Y968D01*
X4996Y1864D02*
X5067D01*
X5032Y1829D02*
Y1900D01*
X8115Y612D02*
X8186D01*
X8151Y577D02*
Y648D01*
X8343Y3705D02*
X8414D01*
X8378Y3669D02*
Y3740D01*
X8270Y3536D02*
X8341D01*
X8306Y3500D02*
Y3571D01*
X7991Y3922D02*
X8062D01*
X8026Y3886D02*
Y3957D01*
X6518Y1057D02*
X6589D01*
X6553Y1021D02*
Y1092D01*
X4893Y3059D02*
X4964D01*
X4929Y3024D02*
Y3095D01*
X8042Y3012D02*
X8113D01*
X8077Y2977D02*
Y3048D01*
X7849Y2809D02*
X7920D01*
X7884Y2774D02*
Y2845D01*
M02*
