%FSLAX42Y42*%
%MOMM*%
G71*
G01*
G75*
G04 Layer_Color=16711935*
%ADD10R,1.20X1.40*%
%ADD11O,0.60X2.20*%
%ADD12R,1.40X1.20*%
%ADD13R,1.10X0.65*%
%ADD14R,1.40X1.10*%
%ADD15O,0.60X2.30*%
%ADD16R,2.00X1.30*%
%ADD17R,2.00X2.00*%
%ADD18R,0.65X1.10*%
%ADD19C,0.25*%
%ADD20R,1.50X1.50*%
%ADD21C,1.50*%
%ADD22C,2.50*%
%ADD23R,1.50X1.50*%
%ADD24C,1.27*%
%ADD25C,0.25*%
%ADD26C,0.60*%
%ADD27C,0.20*%
%ADD28C,0.20*%
%ADD29R,1.40X1.60*%
%ADD30O,0.80X2.40*%
%ADD31R,1.60X1.40*%
%ADD32R,1.30X0.85*%
%ADD33R,1.60X1.30*%
%ADD34O,0.80X2.50*%
%ADD35R,2.20X1.50*%
%ADD36R,2.20X2.20*%
%ADD37R,0.85X1.30*%
%ADD38R,1.70X1.70*%
%ADD39C,1.70*%
%ADD40C,2.70*%
%ADD41R,1.70X1.70*%
%ADD42C,1.47*%
D29*
X4141Y3162D02*
D03*
X3961D02*
D03*
X4560Y3518D02*
D03*
X4380D02*
D03*
X5015Y2413D02*
D03*
X5195D02*
D03*
X4586Y3988D02*
D03*
X4406D02*
D03*
X3568Y2311D02*
D03*
X3748D02*
D03*
X4510Y2248D02*
D03*
X4330D02*
D03*
X4472Y1588D02*
D03*
X4292D02*
D03*
D30*
X4801Y2579D02*
D03*
X4674D02*
D03*
X4547D02*
D03*
X4420D02*
D03*
X4801Y3059D02*
D03*
X4674D02*
D03*
X4547D02*
D03*
X4420D02*
D03*
D31*
X3365Y2907D02*
D03*
Y3087D02*
D03*
D38*
X2438Y2629D02*
D03*
X5321Y4128D02*
D03*
X7366Y254D02*
D03*
X5080D02*
D03*
X3302D02*
D03*
X9398Y762D02*
D03*
Y5080D02*
D03*
X2413D02*
D03*
X4572D02*
D03*
X6858D02*
D03*
D39*
X2692Y2629D02*
D03*
X2946D02*
D03*
X5575Y4128D02*
D03*
X5829D02*
D03*
X6083D02*
D03*
X9144Y254D02*
D03*
X8890D02*
D03*
X8636D02*
D03*
X8382D02*
D03*
X8128D02*
D03*
X7874D02*
D03*
X7620D02*
D03*
X6858D02*
D03*
X6604D02*
D03*
X6350D02*
D03*
X6096D02*
D03*
X5842D02*
D03*
X5588D02*
D03*
X5334D02*
D03*
X4572D02*
D03*
X4318D02*
D03*
X4064D02*
D03*
X3810D02*
D03*
X3556D02*
D03*
X9652Y762D02*
D03*
X9398Y2794D02*
D03*
X9652D02*
D03*
X9398Y2540D02*
D03*
X9652D02*
D03*
X9398Y2286D02*
D03*
X9652D02*
D03*
X9398Y2032D02*
D03*
X9652D02*
D03*
X9398Y1778D02*
D03*
X9652D02*
D03*
X9398Y1524D02*
D03*
X9652D02*
D03*
X9398Y1270D02*
D03*
X9652D02*
D03*
X9398Y1016D02*
D03*
Y4826D02*
D03*
X9652D02*
D03*
X9398Y4572D02*
D03*
X9652D02*
D03*
X9398Y4318D02*
D03*
X9652D02*
D03*
X9398Y4064D02*
D03*
X9652D02*
D03*
X9398Y3810D02*
D03*
X9652D02*
D03*
X9398Y3556D02*
D03*
X9652D02*
D03*
X9398Y3302D02*
D03*
X9652D02*
D03*
X9398Y3048D02*
D03*
X9652Y5080D02*
D03*
X4191D02*
D03*
X3937D02*
D03*
X3683D02*
D03*
X3429D02*
D03*
X3175D02*
D03*
X2921D02*
D03*
X2667D02*
D03*
X6350D02*
D03*
X6096D02*
D03*
X5842D02*
D03*
X5588D02*
D03*
X5334D02*
D03*
X5080D02*
D03*
X4826D02*
D03*
X8636D02*
D03*
X8382D02*
D03*
X8128D02*
D03*
X7874D02*
D03*
X7620D02*
D03*
X7366D02*
D03*
X7112D02*
D03*
D40*
X2392Y3577D02*
D03*
X2892D02*
D03*
Y3077D02*
D03*
X2392D02*
D03*
X2642Y3327D02*
D03*
X2667Y1854D02*
D03*
X2417Y1604D02*
D03*
X2917D02*
D03*
Y2104D02*
D03*
X2417D02*
D03*
D41*
X9652Y1016D02*
D03*
Y3048D02*
D03*
D42*
X8179Y3637D02*
D03*
X7722Y3025D02*
D03*
X7526Y3452D02*
D03*
X7830Y2413D02*
D03*
X3886Y3005D02*
D03*
X4300Y3216D02*
D03*
Y2644D02*
D03*
X6401Y932D02*
D03*
X5032Y1864D02*
D03*
X8151Y612D02*
D03*
X8378Y3705D02*
D03*
X8306Y3536D02*
D03*
X8026Y3922D02*
D03*
X6553Y1057D02*
D03*
X4929Y3059D02*
D03*
X8077Y3012D02*
D03*
X7884Y2809D02*
D03*
M02*
