%FSLAX42Y42*%
%MOMM*%
G71*
G01*
G75*
G04 Layer_Color=32768*
%ADD10R,1.20X1.40*%
%ADD11O,0.60X2.30*%
%ADD12R,1.40X1.20*%
%ADD13R,1.10X0.65*%
%ADD14R,1.40X1.10*%
%ADD15R,2.00X1.30*%
%ADD16R,2.00X2.00*%
%ADD17O,0.60X2.20*%
%ADD18R,0.65X1.10*%
%ADD19C,0.25*%
%ADD20R,1.50X1.50*%
%ADD21C,1.50*%
%ADD22R,1.50X1.50*%
%ADD23C,2.50*%
%ADD24R,1.50X1.50*%
%ADD25C,1.50*%
%ADD26C,1.27*%
%ADD27R,1.15X0.60*%
%ADD28R,0.60X1.15*%
%ADD29C,0.20*%
%ADD30C,0.25*%
%ADD31C,0.60*%
%ADD32R,1.40X1.60*%
%ADD33O,0.80X2.50*%
%ADD34R,1.60X1.40*%
%ADD35R,1.30X0.85*%
%ADD36R,1.60X1.30*%
%ADD37R,2.20X1.50*%
%ADD38R,2.20X2.20*%
%ADD39O,0.80X2.40*%
%ADD40R,0.85X1.30*%
%ADD41R,1.70X1.70*%
%ADD42C,1.70*%
%ADD43R,1.70X1.70*%
%ADD44C,2.70*%
%ADD45R,1.70X1.70*%
%ADD46C,1.70*%
%ADD47C,1.47*%
%ADD48R,1.35X0.80*%
%ADD49R,0.80X1.35*%
%ADD50C,0.03*%
%ADD51C,0.10*%
D51*
X2654Y4103D02*
Y4203D01*
X2604Y4153D02*
X2704D01*
X2479Y4058D02*
X2829D01*
X2479Y4248D02*
X2829D01*
Y4058D02*
Y4248D01*
X2479Y4058D02*
Y4248D01*
X2743Y1461D02*
Y1561D01*
X2693Y1511D02*
X2793D01*
X2568Y1416D02*
X2918D01*
X2568Y1606D02*
X2918D01*
Y1416D02*
Y1606D01*
X2568Y1416D02*
Y1606D01*
X5801Y2335D02*
Y2695D01*
X5401Y2335D02*
Y2695D01*
X5801D01*
X5401Y2335D02*
X5801D01*
X5551Y2515D02*
X5651D01*
X5601Y2465D02*
Y2565D01*
X3354Y3886D02*
X3454D01*
X3404Y3836D02*
Y3936D01*
X3499Y3711D02*
Y4061D01*
X3309Y3711D02*
Y4061D01*
Y3711D02*
X3499D01*
X3309Y4061D02*
X3499D01*
X3962Y3963D02*
Y4063D01*
X3912Y4013D02*
X4012D01*
X3787Y4108D02*
X4137D01*
X3787Y3918D02*
X4137D01*
Y4108D01*
X3787Y3918D02*
Y4108D01*
X4116Y2946D02*
X4216D01*
X4166Y2896D02*
Y2996D01*
X4441Y2571D02*
Y3321D01*
X3891Y2571D02*
Y3321D01*
Y2571D02*
X4441D01*
X3891Y3321D02*
X4441D01*
X3404Y3125D02*
Y3225D01*
X3354Y3175D02*
X3454D01*
X3229Y3080D02*
X3579D01*
X3229Y3270D02*
X3579D01*
X3229Y3080D02*
Y3270D01*
X3579Y3080D02*
Y3270D01*
X3416Y2414D02*
Y2514D01*
X3366Y2464D02*
X3466D01*
X3241Y2559D02*
X3591D01*
X3241Y2369D02*
X3591D01*
Y2559D01*
X3241Y2369D02*
Y2559D01*
X3416Y2122D02*
Y2222D01*
X3366Y2172D02*
X3466D01*
X3241Y2267D02*
X3591D01*
X3241Y2077D02*
X3591D01*
Y2267D01*
X3241Y2077D02*
Y2267D01*
X3962Y2287D02*
Y2387D01*
X3912Y2337D02*
X4012D01*
X3787Y2242D02*
X4137D01*
X3787Y2432D02*
X4137D01*
X3787Y2242D02*
Y2432D01*
X4137Y2242D02*
Y2432D01*
X3950Y1576D02*
Y1676D01*
X3900Y1626D02*
X4000D01*
X3775Y1531D02*
X4125D01*
X3775Y1721D02*
X4125D01*
X3775Y1531D02*
Y1721D01*
X4125Y1531D02*
Y1721D01*
X4661Y2427D02*
Y2527D01*
X4611Y2476D02*
X4711D01*
X4486Y2381D02*
X4836D01*
X4486Y2572D02*
X4836D01*
X4486Y2381D02*
Y2572D01*
X4836Y2381D02*
Y2572D01*
X4597Y1919D02*
Y2019D01*
X4547Y1968D02*
X4647D01*
X4422Y1873D02*
X4772D01*
X4422Y2064D02*
X4772D01*
X4422Y1873D02*
Y2064D01*
X4772Y1873D02*
Y2064D01*
X5258Y1779D02*
Y1879D01*
X5208Y1829D02*
X5308D01*
X5083Y1734D02*
X5433D01*
X5083Y1924D02*
X5433D01*
X5083Y1734D02*
Y1924D01*
X5433Y1734D02*
Y1924D01*
X3962Y3620D02*
Y3720D01*
X3912Y3670D02*
X4012D01*
X3787Y3575D02*
X4137D01*
X3787Y3765D02*
X4137D01*
X3787Y3575D02*
Y3765D01*
X4137Y3575D02*
Y3765D01*
X4928Y3823D02*
Y3923D01*
X4878Y3874D02*
X4978D01*
X4753Y3969D02*
X5103D01*
X4753Y3778D02*
X5103D01*
Y3969D01*
X4753Y3778D02*
Y3969D01*
X5258Y3354D02*
Y3454D01*
X5208Y3404D02*
X5308D01*
X5083Y3309D02*
X5433D01*
X5083Y3499D02*
X5433D01*
X5083Y3309D02*
Y3499D01*
X5433Y3309D02*
Y3499D01*
X5601Y3887D02*
Y3987D01*
X5551Y3937D02*
X5651D01*
X5426Y3842D02*
X5776D01*
X5426Y4032D02*
X5776D01*
X5426Y3842D02*
Y4032D01*
X5776Y3842D02*
Y4032D01*
X6198Y2579D02*
Y2679D01*
X6148Y2629D02*
X6248D01*
X6023Y2534D02*
X6373D01*
X6023Y2724D02*
X6373D01*
X6023Y2534D02*
Y2724D01*
X6373Y2534D02*
Y2724D01*
X6833Y2541D02*
Y2641D01*
X6783Y2591D02*
X6883D01*
X6658Y2496D02*
X7008D01*
X6658Y2686D02*
X7008D01*
X6658Y2496D02*
Y2686D01*
X7008Y2496D02*
Y2686D01*
X6807Y3239D02*
Y3339D01*
X6757Y3289D02*
X6857D01*
X6612Y3114D02*
X7002D01*
X6612Y3464D02*
X7002D01*
X6612Y3114D02*
Y3464D01*
X7002Y3114D02*
Y3464D01*
X6109Y3315D02*
X6210D01*
X6160Y3265D02*
Y3365D01*
X6335Y3120D02*
Y3510D01*
X5984Y3120D02*
Y3510D01*
Y3120D02*
X6335D01*
X5984Y3510D02*
X6335D01*
X7557Y3417D02*
Y3517D01*
X7506Y3467D02*
X7607D01*
X7381Y3372D02*
X7732D01*
X7381Y3562D02*
X7732D01*
X7381Y3372D02*
Y3562D01*
X7732Y3372D02*
Y3562D01*
X7964Y2781D02*
X8064D01*
X8014Y2731D02*
Y2831D01*
X8289Y2406D02*
Y3156D01*
X7739Y2406D02*
Y3156D01*
Y2406D02*
X8289D01*
X7739Y3156D02*
X8289D01*
X8763Y2477D02*
Y2577D01*
X8713Y2527D02*
X8813D01*
X8588Y2432D02*
X8938D01*
X8588Y2622D02*
X8938D01*
X8588Y2432D02*
Y2622D01*
X8938Y2432D02*
Y2622D01*
X8217Y1715D02*
Y1815D01*
X8167Y1765D02*
X8267D01*
X8042Y1670D02*
X8392D01*
X8042Y1860D02*
X8392D01*
X8042Y1670D02*
Y1860D01*
X8392Y1670D02*
Y1860D01*
X7150Y1842D02*
Y1942D01*
X7100Y1892D02*
X7200D01*
X6975Y1797D02*
X7325D01*
X6975Y1987D02*
X7325D01*
X6975Y1797D02*
Y1987D01*
X7325Y1797D02*
Y1987D01*
X6312Y2007D02*
Y2107D01*
X6262Y2057D02*
X6362D01*
X6137Y2152D02*
X6487D01*
X6137Y1962D02*
X6487D01*
Y2152D01*
X6137Y1962D02*
Y2152D01*
X6817Y2440D02*
X8677D01*
X6817Y3630D02*
X8677D01*
X6817Y2440D02*
Y3630D01*
X8677Y2440D02*
Y3630D01*
X7747Y2985D02*
Y3085D01*
X7697Y3035D02*
X7797D01*
X3810Y1804D02*
Y1904D01*
X3760Y1854D02*
X3860D01*
X3635Y1759D02*
X3985D01*
X3635Y1949D02*
X3985D01*
Y1759D02*
Y1949D01*
X3635Y1759D02*
Y1949D01*
X7938Y3874D02*
Y3974D01*
X7888Y3924D02*
X7988D01*
X7762Y3829D02*
X8113D01*
X7762Y4019D02*
X8113D01*
Y3829D02*
Y4019D01*
X7762Y3829D02*
Y4019D01*
X4940Y2960D02*
Y3060D01*
X4890Y3010D02*
X4990D01*
X4765Y3105D02*
X5115D01*
X4765Y2915D02*
X5115D01*
X4765D02*
Y3105D01*
X5115Y2915D02*
Y3105D01*
X5309Y2731D02*
X5409D01*
X5359Y2681D02*
Y2781D01*
X5454Y2555D02*
Y2906D01*
X5264Y2555D02*
Y2906D01*
X5454D01*
X5264Y2555D02*
X5454D01*
X5753Y1919D02*
Y2019D01*
X5703Y1968D02*
X5803D01*
X5578Y1873D02*
X5928D01*
X5578Y2064D02*
X5928D01*
Y1873D02*
Y2064D01*
X5578Y1873D02*
Y2064D01*
X5509Y3719D02*
Y4079D01*
X5109Y3719D02*
Y4079D01*
Y3719D02*
X5509D01*
X5109Y4079D02*
X5509D01*
X5259Y3899D02*
X5359D01*
X5309Y3849D02*
Y3949D01*
X7222Y1917D02*
X7382D01*
X7222Y2197D02*
X7382D01*
X7222Y1917D02*
Y2197D01*
X7382Y1917D02*
Y2197D01*
X7303Y2007D02*
Y2107D01*
X7252Y2057D02*
X7352D01*
X4598Y2489D02*
X4698D01*
X4648Y2439D02*
Y2539D01*
X4923Y2114D02*
Y2864D01*
X4373Y2114D02*
Y2864D01*
X4923D01*
X4373Y2114D02*
X4923D01*
X5233Y2045D02*
X5333D01*
X5283Y1995D02*
Y2095D01*
X5188Y1870D02*
Y2220D01*
X5378Y1870D02*
Y2220D01*
X5188Y1870D02*
X5378D01*
X5188Y2220D02*
X5378D01*
X4267Y4331D02*
Y4431D01*
X4217Y4381D02*
X4317D01*
X4092Y4477D02*
X4442D01*
X4092Y4286D02*
X4442D01*
X4092D02*
Y4477D01*
X4442Y4286D02*
Y4477D01*
X3544Y4191D02*
X3644D01*
X3594Y4141D02*
Y4241D01*
X3689Y4016D02*
Y4366D01*
X3499Y4016D02*
Y4366D01*
X3689D01*
X3499Y4016D02*
X3689D01*
X4052Y2921D02*
X4152D01*
X4102Y2871D02*
Y2971D01*
X4197Y2746D02*
Y3096D01*
X4007Y2746D02*
Y3096D01*
X4197D01*
X4007Y2746D02*
X4197D01*
X4445Y1842D02*
Y1942D01*
X4395Y1892D02*
X4495D01*
X4270Y1987D02*
X4620D01*
X4270Y1797D02*
X4620D01*
X4270D02*
Y1987D01*
X4620Y1797D02*
Y1987D01*
X5448Y3417D02*
Y3517D01*
X5398Y3467D02*
X5498D01*
X5273Y3372D02*
X5623D01*
X5273Y3562D02*
X5623D01*
Y3372D02*
Y3562D01*
X5273Y3372D02*
Y3562D01*
X5929Y2480D02*
X6289D01*
X5929Y2880D02*
X6289D01*
X5929Y2480D02*
Y2880D01*
X6289Y2480D02*
Y2880D01*
X6109Y2630D02*
Y2730D01*
X6059Y2680D02*
X6159D01*
M02*
