%FSLAX42Y42*%
%MOMM*%
G71*
G01*
G75*
G04 Layer_Color=8421504*
%ADD10R,1.20X1.40*%
%ADD11O,0.60X2.30*%
%ADD12R,1.40X1.20*%
%ADD13R,1.10X0.65*%
%ADD14R,1.40X1.10*%
%ADD15R,2.00X1.30*%
%ADD16R,2.00X2.00*%
%ADD17O,0.60X2.20*%
%ADD18R,0.65X1.10*%
%ADD19C,0.25*%
%ADD20R,1.50X1.50*%
%ADD21C,1.50*%
%ADD22R,1.50X1.50*%
%ADD23C,2.50*%
%ADD24R,1.50X1.50*%
%ADD25C,1.50*%
%ADD26C,1.27*%
%ADD27C,0.20*%
%ADD28C,0.25*%
%ADD29C,0.60*%
D10*
X2744Y4153D02*
D03*
X2564D02*
D03*
X2833Y1511D02*
D03*
X2653D02*
D03*
X3900Y1854D02*
D03*
X3720D02*
D03*
X8028Y3924D02*
D03*
X7848D02*
D03*
X4850Y3010D02*
D03*
X5030D02*
D03*
X5843Y1968D02*
D03*
X5663D02*
D03*
X4177Y4381D02*
D03*
X4357D02*
D03*
X4355Y1892D02*
D03*
X4535D02*
D03*
X5538Y3467D02*
D03*
X5358D02*
D03*
D11*
X6921Y2580D02*
D03*
X7049D02*
D03*
X7175D02*
D03*
X7303D02*
D03*
X7429D02*
D03*
X7557D02*
D03*
X7683D02*
D03*
X7811D02*
D03*
X7938D02*
D03*
X8064D02*
D03*
X8192D02*
D03*
X8318D02*
D03*
X8446D02*
D03*
X8572D02*
D03*
X6921Y3490D02*
D03*
X7049D02*
D03*
X7175D02*
D03*
X7303D02*
D03*
X7429D02*
D03*
X7557D02*
D03*
X7683D02*
D03*
X7811D02*
D03*
X7938D02*
D03*
X8064D02*
D03*
X8192D02*
D03*
X8318D02*
D03*
X8446D02*
D03*
X8572D02*
D03*
D12*
X5359Y2821D02*
D03*
Y2641D02*
D03*
X5283Y1955D02*
D03*
Y2135D02*
D03*
X3594Y4281D02*
D03*
Y4101D02*
D03*
X4102Y3011D02*
D03*
Y2831D02*
D03*
D13*
X5429Y3804D02*
D03*
Y3899D02*
D03*
Y3994D02*
D03*
X5189D02*
D03*
Y3804D02*
D03*
D14*
X7303Y1982D02*
D03*
Y2132D02*
D03*
D15*
X4321Y3874D02*
D03*
Y3644D02*
D03*
D16*
X4721Y3759D02*
D03*
D17*
X4839Y2729D02*
D03*
X4712D02*
D03*
X4585D02*
D03*
X4458D02*
D03*
X4839Y2249D02*
D03*
X4712D02*
D03*
X4585D02*
D03*
X4458D02*
D03*
D18*
X6014Y2560D02*
D03*
X6109D02*
D03*
X6204D02*
D03*
Y2800D02*
D03*
X6014D02*
D03*
M02*
