%FSLAX42Y42*%
%MOMM*%
G71*
G01*
G75*
G04 Layer_Physical_Order=2*
G04 Layer_Color=16711680*
%ADD10R,1.10X0.65*%
%ADD11R,1.40X1.20*%
%ADD12R,1.20X1.40*%
%ADD13O,0.60X2.20*%
%ADD14R,1.15X0.60*%
%ADD15R,0.60X1.15*%
%ADD16C,0.25*%
%ADD17R,1.50X1.50*%
%ADD18C,1.50*%
%ADD19R,1.50X1.50*%
%ADD20C,2.50*%
%ADD21R,1.50X1.50*%
%ADD22C,1.50*%
%ADD23C,1.27*%
D10*
X6471Y2610D02*
D03*
Y2515D02*
D03*
Y2420D02*
D03*
X6711D02*
D03*
Y2610D02*
D03*
D11*
X8788Y3796D02*
D03*
Y3976D02*
D03*
D12*
X8140Y4013D02*
D03*
X8320D02*
D03*
X8878Y3175D02*
D03*
X8698D02*
D03*
X8686Y2464D02*
D03*
X8866D02*
D03*
X8686Y2172D02*
D03*
X8866D02*
D03*
X8320Y2337D02*
D03*
X8140D02*
D03*
X8332Y1626D02*
D03*
X8152D02*
D03*
X7621Y2476D02*
D03*
X7441D02*
D03*
X7685Y1968D02*
D03*
X7505D02*
D03*
X7024Y1829D02*
D03*
X6844D02*
D03*
X8320Y3670D02*
D03*
X8140D02*
D03*
X7174Y3874D02*
D03*
X7354D02*
D03*
X7024Y3404D02*
D03*
X6844D02*
D03*
X6681Y3937D02*
D03*
X6501D02*
D03*
X6084Y2629D02*
D03*
X5904D02*
D03*
X5449Y2591D02*
D03*
X5269D02*
D03*
X4726Y3467D02*
D03*
X4545D02*
D03*
X3519Y2527D02*
D03*
X3339D02*
D03*
X4065Y1765D02*
D03*
X3885D02*
D03*
X5132Y1892D02*
D03*
X4952D02*
D03*
X5790Y2057D02*
D03*
X5970D02*
D03*
D13*
X7836Y2706D02*
D03*
X7963D02*
D03*
X8090D02*
D03*
X8217D02*
D03*
X7836Y3186D02*
D03*
X7963D02*
D03*
X8090D02*
D03*
X8217D02*
D03*
X3988Y2541D02*
D03*
X4115D02*
D03*
X4242D02*
D03*
X4369D02*
D03*
X3988Y3021D02*
D03*
X4115D02*
D03*
X4242D02*
D03*
X4369D02*
D03*
D14*
X5497Y3289D02*
D03*
X5272Y3194D02*
D03*
Y3384D02*
D03*
D15*
X6033Y3202D02*
D03*
X5937Y3427D02*
D03*
X6128D02*
D03*
D16*
X4369Y3021D02*
X4242D01*
X5449Y2591D02*
Y2916D01*
X5497Y2964D02*
X5449Y2916D01*
X5497Y2964D02*
Y3289D01*
X8140Y3670D02*
Y3840D01*
X8140Y3840D02*
X8140Y3840D01*
X8140Y3840D02*
Y4013D01*
X8320Y3670D02*
Y4013D01*
X8788Y3976D02*
X8572D01*
X8536Y4013D01*
X8320D01*
X8686Y2172D02*
Y2464D01*
X8866Y2172D02*
Y2464D01*
X9750Y3793D02*
X9250D01*
X9750Y3293D02*
X9250D01*
X9737Y2036D02*
X9237D01*
X9737Y2536D02*
X9237D01*
X5778Y4128D02*
X5524D01*
X7024Y3251D02*
Y3404D01*
Y3251D02*
X6943Y3170D01*
X6665D01*
X6439Y3396D01*
X6128D02*
Y3427D01*
X9500Y3543D02*
X8903D01*
X8788Y3658D01*
Y3796D01*
X8332Y1153D02*
Y1626D01*
Y1153D02*
X8221Y1041D01*
X6160D01*
X5778Y660D01*
X8152Y1829D02*
X8013Y1968D01*
X7685D01*
X7441Y2476D02*
X7089D01*
X7051Y2515D01*
X6287Y4128D02*
X5992Y3833D01*
X5159D01*
X4793Y3467D02*
X4726D01*
X3633D02*
X3519Y3353D01*
Y2527D02*
Y3353D01*
X7024Y1829D02*
Y2328D01*
X5449Y1984D02*
Y2591D01*
Y1984D02*
X5122Y1656D01*
X3912D01*
X3885Y1683D01*
Y1765D01*
X2667Y4191D02*
X2540Y4318D01*
X2667Y2469D02*
Y4191D01*
X2718Y2418D02*
X2667Y2469D01*
X3342Y2418D02*
X2718D01*
X3392Y2368D02*
X3342Y2418D01*
X3698Y2368D02*
X3392D01*
X3767Y2438D02*
X3698Y2368D01*
X3767Y2438D02*
Y2789D01*
X5524Y4128D02*
X4699Y4953D01*
X2667D01*
X2540Y5080D01*
X6604D02*
X5903Y4379D01*
Y4064D02*
Y4379D01*
Y4064D02*
X5794Y3955D01*
X5085D01*
X4890Y3759D01*
X5132Y2039D02*
X4897Y2273D01*
X5132Y1892D02*
Y2039D01*
X4796Y2172D02*
Y2484D01*
X4952Y2015D02*
X4796Y2172D01*
X4952Y1892D02*
Y2015D01*
X7239Y3513D02*
X6877D01*
X7371Y2946D02*
Y3381D01*
X7531Y2786D02*
X7371Y2946D01*
X7836Y2706D02*
Y2786D01*
X8320Y2337D02*
Y2413D01*
X8288Y2445D01*
X8041D01*
Y2134D02*
Y2445D01*
X8143Y2032D02*
X8041Y2134D01*
X8815Y2032D02*
X8143D01*
X8866Y2083D02*
X8815Y2032D01*
X8866Y2083D02*
Y2172D01*
X4545Y3467D02*
Y3556D01*
X4699Y3710D02*
X4545Y3556D01*
X4699Y3710D02*
Y3817D01*
X5009Y4128D02*
X4699Y3817D01*
X5524Y4128D02*
X5009D01*
X7731Y2610D02*
X6711D01*
X7833Y2507D02*
X7731Y2610D01*
X6711Y2420D02*
X6628D01*
X6139Y1930D01*
X5841D01*
X5790Y1981D01*
Y2057D01*
X6681Y3753D02*
Y3937D01*
Y3753D02*
X6655Y3726D01*
X6048D01*
X6020Y3754D01*
X5664D01*
X5636Y3726D01*
Y3607D02*
Y3726D01*
Y3607D02*
X5580Y3551D01*
X4978D01*
X4933Y3505D01*
Y3099D02*
Y3505D01*
Y3099D02*
X4854Y3020D01*
X4369D02*
Y3021D01*
X3419Y2527D02*
X3339D01*
X3419Y2419D02*
Y2527D01*
X3617Y2419D02*
X3419D01*
X3617D02*
Y2825D01*
X3683Y2891D02*
X3617Y2825D01*
X3835Y2891D02*
X3683D01*
X3868Y2858D02*
X3835Y2891D01*
X3868Y2461D02*
Y2858D01*
X3937Y2393D02*
X3868Y2461D01*
X4437Y2393D02*
Y2687D01*
X4371Y2754D02*
X4097D01*
X3988Y2863D01*
Y3021D01*
X4437Y2687D02*
X4371Y2754D01*
X4437Y1910D02*
X4293Y1765D01*
X4065D01*
X4608Y2591D02*
X4332Y2866D01*
X4144D01*
X4115Y2896D01*
Y3021D01*
X6128Y3427D02*
Y3546D01*
X5988Y3686D01*
X5766D01*
X5687Y3607D01*
Y3556D02*
Y3607D01*
Y3556D02*
X5631Y3500D01*
X5222D01*
X5177Y3454D01*
Y3315D02*
Y3454D01*
X5347Y3315D02*
X5177D01*
X5390Y3357D02*
X5347Y3315D01*
X5664Y3357D02*
X5390D01*
X5697Y3324D02*
X5664Y3357D01*
X5697Y2230D02*
Y3324D01*
X5790Y2137D02*
X5697Y2230D01*
X5790Y2057D02*
Y2137D01*
X4801Y3653D02*
X4726Y3577D01*
Y3467D02*
Y3577D01*
X6845Y4046D02*
X6528D01*
X6929Y3962D02*
X6845Y4046D01*
X6929Y3871D02*
Y3962D01*
X7036Y3764D02*
X6929Y3871D01*
X7315Y3764D02*
X7036D01*
X7354Y3803D02*
X7315Y3764D01*
X7354Y3803D02*
Y3874D01*
X6471Y2515D02*
X6378D01*
X6320Y2456D01*
X5870D01*
X5806Y2520D01*
Y2768D01*
X5982Y2944D02*
X5806Y2768D01*
X6472Y2610D02*
X6471D01*
X6472Y2888D02*
X6185Y3175D01*
X6033D02*
Y3202D01*
X6147Y3039D02*
X6084Y2977D01*
Y2629D02*
Y2977D01*
X5970Y2057D02*
Y2253D01*
X5755Y2468D01*
Y2916D01*
X5937Y3098D02*
X5755Y2916D01*
X5937Y3098D02*
Y3427D01*
X9737Y2036D02*
X8361Y660D01*
X7303D01*
X8090Y2706D02*
Y2809D01*
X7973Y2926D01*
X7823D01*
X7717Y3033D01*
Y3556D01*
X7831Y3670D02*
X7717Y3556D01*
X8140Y3670D02*
X7831D01*
X6805Y2343D02*
Y2489D01*
Y2343D02*
X6199Y1737D01*
X5385D01*
X5159Y1511D01*
X3886D01*
X3785Y1613D01*
Y1971D01*
X3835Y2022D02*
X3785Y1971D01*
X3886Y2022D02*
X3835D01*
X4065Y1843D02*
X3886Y2022D01*
X4065Y1765D02*
Y1843D01*
X4726Y3384D02*
Y3467D01*
Y3384D02*
X4699Y3358D01*
X4026D01*
X3919Y3251D01*
Y2802D02*
Y3251D01*
X4032Y2689D02*
X3919Y2802D01*
X4310Y2689D02*
X4032D01*
X4369Y2631D02*
X4310Y2689D01*
X4369Y2541D02*
Y2631D01*
X6761Y4285D02*
X6501Y4025D01*
X9693Y4285D02*
X6761D01*
X9914Y4064D02*
X9693Y4285D01*
X9914Y3591D02*
Y4064D01*
Y3591D02*
X9779Y3456D01*
X9682D01*
X9606Y3380D01*
X9393D01*
X9317Y3456D01*
X8856D01*
X8762Y3363D01*
X7991D01*
X7963Y3335D01*
Y3186D02*
Y3335D01*
X9250Y3293D02*
X8738D01*
X8698Y3254D01*
Y3175D02*
Y3254D01*
X8140Y2261D02*
Y2337D01*
X8173Y2228D02*
X8140Y2261D01*
X8440Y2228D02*
X8173D01*
X8572Y2360D02*
X8440Y2228D01*
X8572Y2360D02*
Y2715D01*
X8607Y2750D02*
X8572Y2715D01*
X9341Y2750D02*
X8607D01*
X9500Y2908D02*
X9341Y2750D01*
X8387Y2337D02*
X8320D01*
X8522Y2472D02*
X8387Y2337D01*
X8522Y2472D02*
Y2927D01*
X8484Y2965D01*
X8347D01*
X8296Y3017D01*
X8147D01*
X8090Y3075D01*
Y3186D01*
X7836Y3106D02*
Y3186D01*
X7904Y3038D02*
X7836Y3106D01*
X8052Y3038D02*
X7904D01*
X8124Y2966D02*
X8052Y3038D01*
X8253Y2966D02*
X8124D01*
X8316Y2903D02*
X8253Y2966D01*
X8412Y2903D02*
X8316D01*
X8471Y2845D02*
X8412Y2903D01*
X8471Y2534D02*
Y2845D01*
Y2534D02*
X8433Y2496D01*
X8015D01*
X7958Y2438D01*
Y2311D02*
Y2438D01*
Y2311D02*
X7899Y2253D01*
X7549D01*
X7441Y2361D01*
Y2476D01*
X7856Y2355D02*
X7831Y2380D01*
X7621D01*
X6471Y2420D02*
X6449D01*
X6359Y2329D01*
Y2318D02*
Y2329D01*
X6749Y2116D02*
X6746Y2113D01*
Y1724D02*
Y2113D01*
X6934Y1536D02*
X6746Y1724D01*
X7111Y1536D02*
X6934D01*
X7175Y1471D02*
X7111Y1536D01*
X7175Y1372D02*
Y1471D01*
X7239Y1308D02*
X7175Y1372D01*
X7390Y1308D02*
X7239D01*
X7505Y1422D02*
X7390Y1308D01*
X7505Y1422D02*
Y1968D01*
X7303Y1422D02*
X7005Y1720D01*
X6877D01*
X6844Y1753D01*
Y1829D01*
X5338Y3384D02*
X5272D01*
X5397Y3443D02*
X5338Y3384D01*
X5682Y3443D02*
X5397D01*
X5785Y3546D02*
X5682Y3443D01*
X5969Y3546D02*
X5785D01*
X6033Y3483D02*
X5969Y3546D01*
X6033Y3202D02*
Y3483D01*
X8172Y4121D02*
X8140Y4013D01*
X8420Y4121D02*
X8172D01*
X8465Y4077D02*
X8420Y4121D01*
X8898Y4077D02*
X8465D01*
X9086Y3889D02*
X8898Y4077D01*
X9086Y3708D02*
Y3889D01*
X9164Y3630D02*
X9086Y3708D01*
X9317Y3630D02*
X9164D01*
X9393Y3706D02*
X9317Y3630D01*
X9567Y3706D02*
X9393D01*
X9699Y3575D02*
X9567Y3706D01*
X9750Y3575D02*
X9699D01*
X8320Y3556D02*
Y3670D01*
Y3556D02*
X8205Y3442D01*
X7849D01*
X7767Y3360D01*
Y3068D02*
Y3360D01*
X7856Y2979D02*
X7767Y3068D01*
X8039Y2979D02*
X7856D01*
X8113Y2905D02*
X8039Y2979D01*
X8238Y2905D02*
X8113D01*
X8291Y2852D02*
X8238Y2905D01*
X8362Y2852D02*
X8291D01*
X8420Y2794D02*
X8362Y2852D01*
X8420Y2591D02*
Y2794D01*
Y2591D02*
X8376Y2547D01*
X8032D01*
X7963Y2616D01*
Y2706D01*
X2794Y5080D02*
X2680Y5194D01*
X2489D01*
X2426Y5131D01*
Y4775D02*
Y5131D01*
X2515Y4686D02*
X2426Y4775D01*
X3675Y4686D02*
X2515D01*
X4597Y3764D02*
X3675Y4686D01*
X8152Y1626D02*
Y1744D01*
X8966Y1971D02*
X8842Y1847D01*
X8966Y1971D02*
Y2565D01*
X8941Y2591D01*
X8737D01*
X8686Y2464D02*
Y2540D01*
X8217Y3068D02*
Y3186D01*
X8383Y3046D02*
X8361Y3068D01*
X9565Y3046D02*
X8383D01*
X9614Y2997D02*
X9565Y3046D01*
X9614Y2830D02*
Y2997D01*
Y2830D02*
X9483Y2699D01*
X8833D01*
X8686Y2552D01*
X8692Y2546D02*
X8686Y2540D01*
X7836Y2821D02*
X7625Y3032D01*
Y3792D01*
X8005Y4172D02*
X7625Y3792D01*
X9040Y4172D02*
X8005D01*
X9250Y3962D02*
X9040Y4172D01*
X9250Y3793D02*
Y3962D01*
X7621Y2380D02*
Y2476D01*
X7174Y3874D02*
Y3944D01*
X7214Y3983D02*
X7174Y3944D01*
X7455Y3983D02*
X7214D01*
X7455Y3627D02*
Y3983D01*
Y3627D02*
X7341Y3513D01*
X6877D02*
X6844Y3480D01*
Y3404D02*
Y3480D01*
X6304Y2652D02*
Y2766D01*
Y2652D02*
X6172Y2520D01*
X5944D01*
X5904Y2559D01*
Y2629D01*
X8318Y2713D02*
X8217Y2706D01*
X8318Y2713D02*
Y2731D01*
X6505Y4346D02*
X6287Y4128D01*
X9756Y4346D02*
X6505D01*
X9964Y4138D02*
X9756Y4346D01*
X9964Y3251D02*
Y4138D01*
Y3251D02*
X9840Y3127D01*
X9012D01*
X8964Y3175D01*
X8878D01*
X3818Y3167D02*
X3683Y3302D01*
X3818Y2992D02*
Y3167D01*
X3899Y2291D02*
X3780Y2172D01*
X2489D01*
X2426Y2235D01*
Y4369D01*
X2502Y4445D02*
X2426Y4369D01*
X2616Y4445D02*
X2502D01*
X2680Y4381D02*
X2616Y4445D01*
X2680Y4267D02*
Y4381D01*
X2794Y4153D02*
X2680Y4267D01*
X2794Y4064D02*
Y4153D01*
X3139Y3360D02*
Y3973D01*
X2794Y4318D01*
X4445Y3764D02*
X4413Y3796D01*
X3769D01*
X3211Y3238D01*
X2858D01*
X2794Y3302D01*
X4854Y3020D02*
X4369D01*
X6439Y3396D02*
X6128D01*
X6472Y2610D02*
Y2888D01*
X6185Y3175D02*
X6033D01*
X6501Y3937D02*
Y4020D01*
Y4025D01*
X6528Y4046D02*
X6501Y4020D01*
X5269Y2591D02*
X4902D01*
X4608D01*
X4902D02*
X4796Y2484D01*
X8842Y1847D02*
X8255D01*
X8692Y2546D02*
X8686Y2552D01*
X8737Y2591D02*
X8692Y2546D01*
X8197Y1788D02*
X8152Y1744D01*
X8255Y1847D02*
X8197Y1788D01*
X8152Y1744D02*
Y1829D01*
X8361Y3068D02*
X8217D01*
X8621Y1770D02*
X8197Y1788D01*
X7836Y2786D02*
Y2821D01*
Y2786D02*
X7531D01*
X7341Y3513D02*
X7239D01*
X7371Y3381D02*
X7239Y3513D01*
X4545Y3467D02*
X4354D01*
X3633D01*
X4354D02*
X4128Y3693D01*
X6909Y2479D02*
X6873Y2515D01*
X6805Y2489D02*
X6779Y2515D01*
X6873D02*
X6779D01*
X7051D02*
X6873D01*
X6779D02*
X6471D01*
X4437Y2393D02*
X3937D01*
X4437Y1910D02*
Y2393D01*
X4978Y3653D02*
X4793Y3467D01*
X5159Y3833D02*
X4978Y3653D01*
X5484D02*
X4978D01*
X4801D01*
X10033Y5258D02*
X9995Y5296D01*
X10033Y25D02*
Y5258D01*
Y25D02*
X2311D01*
X9995Y5296D02*
X2311D01*
Y25D02*
Y5296D01*
D17*
X4826Y254D02*
D03*
X2794Y762D02*
D03*
X8890Y254D02*
D03*
X2794Y5080D02*
D03*
X6287Y4128D02*
D03*
X7620Y5080D02*
D03*
X9754Y2908D02*
D03*
X7112Y254D02*
D03*
X5334Y5080D02*
D03*
X9779D02*
D03*
D18*
X4572Y254D02*
D03*
X4318D02*
D03*
X4064D02*
D03*
X3810D02*
D03*
X3556D02*
D03*
X3302D02*
D03*
X3048D02*
D03*
X2540Y762D02*
D03*
X7620Y254D02*
D03*
X7874D02*
D03*
X8128D02*
D03*
X8382D02*
D03*
X8636D02*
D03*
X2540Y5080D02*
D03*
X2794Y2794D02*
D03*
X2540D02*
D03*
X2794Y2540D02*
D03*
X2540D02*
D03*
X2794Y2286D02*
D03*
X2540D02*
D03*
X2794Y2032D02*
D03*
X2540D02*
D03*
X2794Y1778D02*
D03*
X2540D02*
D03*
X2794Y1524D02*
D03*
X2540D02*
D03*
X2794Y1270D02*
D03*
X2540D02*
D03*
X2794Y1016D02*
D03*
X6033Y4128D02*
D03*
X5778D02*
D03*
X5524D02*
D03*
X5842Y5080D02*
D03*
X6096D02*
D03*
X6350D02*
D03*
X6604D02*
D03*
X6858D02*
D03*
X7112D02*
D03*
X7366D02*
D03*
X9246Y2908D02*
D03*
X9500D02*
D03*
X5334Y254D02*
D03*
X5588D02*
D03*
X5842D02*
D03*
X6096D02*
D03*
X6350D02*
D03*
X6604D02*
D03*
X6858D02*
D03*
X2794Y4826D02*
D03*
X2540D02*
D03*
X2794Y4572D02*
D03*
X2540D02*
D03*
X2794Y4318D02*
D03*
X2540D02*
D03*
X2794Y4064D02*
D03*
X2540D02*
D03*
X2794Y3810D02*
D03*
X2540D02*
D03*
X2794Y3556D02*
D03*
X2540D02*
D03*
X2794Y3302D02*
D03*
X2540D02*
D03*
X2794Y3048D02*
D03*
X3556Y5080D02*
D03*
X3810D02*
D03*
X4064D02*
D03*
X4318D02*
D03*
X4572D02*
D03*
X4826D02*
D03*
X5080D02*
D03*
X8001D02*
D03*
X8255D02*
D03*
X8509D02*
D03*
X8763D02*
D03*
X9017D02*
D03*
X9271D02*
D03*
X9525D02*
D03*
D19*
X2540Y1016D02*
D03*
Y3048D02*
D03*
D20*
X9500Y3543D02*
D03*
X9750Y3293D02*
D03*
X9250D02*
D03*
Y3793D02*
D03*
X9750D02*
D03*
X9487Y2286D02*
D03*
X9737Y2036D02*
D03*
X9237D02*
D03*
Y2536D02*
D03*
X9737D02*
D03*
D21*
X5778Y1422D02*
D03*
D22*
X6033D02*
D03*
X6287D02*
D03*
X6540D02*
D03*
X6794D02*
D03*
X7049D02*
D03*
X7303D02*
D03*
X5778Y660D02*
D03*
X6033D02*
D03*
X6287D02*
D03*
X6540D02*
D03*
X6794D02*
D03*
X7049D02*
D03*
X7303D02*
D03*
D23*
X7024Y2328D02*
D03*
X6909Y2479D02*
D03*
X3767Y2789D02*
D03*
X4890Y3759D02*
D03*
X4897Y2273D02*
D03*
X7833Y2507D02*
D03*
X5484Y3653D02*
D03*
X5982Y2944D02*
D03*
X6147Y3039D02*
D03*
X7856Y2355D02*
D03*
X6359Y2318D02*
D03*
X6749Y2116D02*
D03*
X9750Y3575D02*
D03*
X4597Y3764D02*
D03*
X8621Y1770D02*
D03*
X4128Y3693D02*
D03*
X6304Y2766D02*
D03*
X8318Y2731D02*
D03*
X3683Y3302D02*
D03*
X3818Y2992D02*
D03*
X3899Y2291D02*
D03*
X3139Y3360D02*
D03*
X4445Y3764D02*
D03*
M02*
