%FSLAX42Y42*%
%MOMM*%
G71*
G01*
G75*
G04 Layer_Color=128*
%ADD10R,1.10X0.65*%
%ADD11R,1.40X1.20*%
%ADD12R,1.20X1.40*%
%ADD13O,0.60X2.20*%
%ADD14R,1.15X0.60*%
%ADD15R,0.60X1.15*%
%ADD16C,0.25*%
%ADD17R,1.50X1.50*%
%ADD18C,1.50*%
%ADD19R,1.50X1.50*%
%ADD20C,2.50*%
%ADD21R,1.50X1.50*%
%ADD22C,1.50*%
%ADD23C,1.27*%
%ADD24R,1.30X0.85*%
%ADD25R,1.60X1.40*%
%ADD26R,1.40X1.60*%
%ADD27O,0.80X2.40*%
%ADD28R,1.35X0.80*%
%ADD29R,0.80X1.35*%
%ADD30R,1.70X1.70*%
%ADD31C,1.70*%
%ADD32R,1.70X1.70*%
%ADD33C,2.70*%
%ADD34R,1.70X1.70*%
%ADD35C,1.70*%
%ADD36C,1.47*%
D10*
X6471Y2610D02*
D03*
Y2515D02*
D03*
Y2420D02*
D03*
X6711D02*
D03*
Y2610D02*
D03*
D11*
X8788Y3796D02*
D03*
Y3976D02*
D03*
D12*
X8140Y4013D02*
D03*
X8320D02*
D03*
X8878Y3175D02*
D03*
X8698D02*
D03*
X8686Y2464D02*
D03*
X8866D02*
D03*
X8686Y2172D02*
D03*
X8866D02*
D03*
X8320Y2337D02*
D03*
X8140D02*
D03*
X8332Y1626D02*
D03*
X8152D02*
D03*
X7621Y2476D02*
D03*
X7441D02*
D03*
X7685Y1968D02*
D03*
X7505D02*
D03*
X7024Y1829D02*
D03*
X6844D02*
D03*
X8320Y3670D02*
D03*
X8140D02*
D03*
X7174Y3874D02*
D03*
X7354D02*
D03*
X7024Y3404D02*
D03*
X6844D02*
D03*
X6681Y3937D02*
D03*
X6501D02*
D03*
X6084Y2629D02*
D03*
X5904D02*
D03*
X5449Y2591D02*
D03*
X5269D02*
D03*
X4726Y3467D02*
D03*
X4545D02*
D03*
X3519Y2527D02*
D03*
X3339D02*
D03*
X4065Y1765D02*
D03*
X3885D02*
D03*
X5132Y1892D02*
D03*
X4952D02*
D03*
X5790Y2057D02*
D03*
X5970D02*
D03*
D13*
X7836Y2706D02*
D03*
X7963D02*
D03*
X8090D02*
D03*
X8217D02*
D03*
X7836Y3186D02*
D03*
X7963D02*
D03*
X8090D02*
D03*
X8217D02*
D03*
X3988Y2541D02*
D03*
X4115D02*
D03*
X4242D02*
D03*
X4369D02*
D03*
X3988Y3021D02*
D03*
X4115D02*
D03*
X4242D02*
D03*
X4369D02*
D03*
D14*
X5497Y3289D02*
D03*
X5272Y3194D02*
D03*
Y3384D02*
D03*
D15*
X6033Y3202D02*
D03*
X5937Y3427D02*
D03*
X6128D02*
D03*
M02*
