M48
;Layer_Color=9474304
;FILE_FORMAT=4:2
METRIC,LZ
;TYPE=PLATED
T1F00S00C0.71
T2F00S00C0.90
T3F00S00C1.50
%
T01
X005443Y002116
X005833Y002318
X005888Y002766
X006045Y003039
X00621Y002944
X006708Y003653
X007303Y003759
X007595Y003764
X007747
X008064Y003693
X008509Y003302
X008374Y002992
X008425Y002789
X008293Y002291
X007295Y002273
X009053Y00336
X005283Y002479
X005168Y002328
X004336Y002355
X004359Y002507
X003874Y002731
X003571Y00177
X002442Y003575
T02
X003302Y000254
X003556
X00381
X004064
X004318
X004572
X00508
X005334
X005144Y00066
X00489
Y001422
X005144
X005397
X005651
X005906
X00616
X006414
Y00066
X00616
X005906
X005651
X005397
X005588Y000254
X005842
X006096
X00635
X006604
X006858
X007366
X00762
X007874
X008128
X008382
X008636
X00889
X009144
X009398Y000762
X009652
Y001016
Y00127
X009398
Y001016
Y001524
Y001778
Y002032
Y002286
Y00254
Y002794
X009652
Y00254
Y002286
Y002032
Y001778
Y001524
Y003048
Y003302
Y003556
Y00381
Y004064
Y004318
Y004572
Y004826
Y00508
X009398
Y004826
Y004572
Y004318
Y004064
Y00381
Y003556
Y003302
Y003048
X008636Y00508
X008382
X008128
X007874
X00762
X007366
X007112
X006858
X00635
X006096
X005842
X005588
X005906Y004128
X00616
X006414
X006668
X005334Y00508
X00508
X004826
X004572
X004191
X003937
X003683
X003429
X003175
X002921
X002667
X002413
X002438Y002908
X002692
X002946
T03
X002455Y002036
X002705Y002286
X002955Y002036
Y002536
X002455
X002442Y003293
X002692Y003543
X002942Y003293
Y003793
X002442
M30
