M48
;Layer_Color=9474304
;FILE_FORMAT=2:4
INCH
;TYPE=PLATED
T1F00S00C0.0280
T2F00S00C0.0354
T3F00S00C0.0591
%
T01
X031530Y018330
X033066Y019126
X033280Y020890
X033900Y021964
X034550Y021590
X036510Y024380
X038850Y024800
X040000Y024820
X040600
X041850Y024540
X043600Y023000
X043070Y021780
X043270Y020980
X042750Y019020
X038820Y018950
X045740Y023230
X030900Y019760
X030446Y019166
X027170Y019270
X027260Y019870
X025350Y020750
X024160Y016970
X019716Y024074
T02
X023100Y011000
X024100
X025100
X026100
X027100
X028100
X030100
X031100
X030350Y012600
X029350
Y015600
X030350
X031350
X032350
X033350
X034350
X035350
Y012600
X034350
X033350
X032350
X031350
X032100Y011000
X033100
X034100
X035100
X036100
X037100
X039100
X040100
X041100
X042100
X043100
X044100
X045100
X046100
X047100Y013000
X048100
Y014000
Y015000
X047100
Y014000
Y016000
Y017000
Y018000
Y019000
Y020000
Y021000
X048100
Y020000
Y019000
Y018000
Y017000
Y016000
Y022000
Y023000
Y024000
Y025000
Y026000
Y027000
Y028000
Y029000
Y030000
X047100
Y029000
Y028000
Y027000
Y026000
Y025000
Y024000
Y023000
Y022000
X044100Y030000
X043100
X042100
X041100
X040100
X039100
X038100
X037100
X035100
X034100
X033100
X032100
X033350Y026250
X034350
X035350
X036350
X031100Y030000
X030100
X029100
X028100
X026600
X025600
X024600
X023600
X022600
X021600
X020600
X019600
X019700Y021450
X020700
X021700
T03
X019766Y018016
X020750Y019000
X021734Y018016
Y019984
X019766
X019716Y022966
X020700Y023950
X021684Y022966
Y024934
X019716
M30
