%FSLAX42Y42*%
%MOMM*%
G71*
G01*
G75*
G04 Layer_Color=255*
%ADD10R,1.10X0.65*%
%ADD11R,1.40X1.20*%
%ADD12R,1.20X1.40*%
%ADD13O,0.60X2.20*%
%ADD14R,1.15X0.60*%
%ADD15R,0.60X1.15*%
%ADD16C,0.25*%
%ADD17R,1.50X1.50*%
%ADD18C,1.50*%
%ADD19R,1.50X1.50*%
%ADD20C,2.50*%
%ADD21R,1.50X1.50*%
%ADD22C,1.50*%
%ADD23C,1.27*%
D10*
X6471Y2610D02*
D03*
Y2515D02*
D03*
Y2420D02*
D03*
X6711D02*
D03*
Y2610D02*
D03*
D11*
X8788Y3796D02*
D03*
Y3976D02*
D03*
D12*
X8140Y4013D02*
D03*
X8320D02*
D03*
X8878Y3175D02*
D03*
X8698D02*
D03*
X8686Y2464D02*
D03*
X8866D02*
D03*
X8686Y2172D02*
D03*
X8866D02*
D03*
X8320Y2337D02*
D03*
X8140D02*
D03*
X8332Y1626D02*
D03*
X8152D02*
D03*
X7621Y2476D02*
D03*
X7441D02*
D03*
X7685Y1968D02*
D03*
X7505D02*
D03*
X7024Y1829D02*
D03*
X6844D02*
D03*
X8320Y3670D02*
D03*
X8140D02*
D03*
X7174Y3874D02*
D03*
X7354D02*
D03*
X7024Y3404D02*
D03*
X6844D02*
D03*
X6681Y3937D02*
D03*
X6501D02*
D03*
X6084Y2629D02*
D03*
X5904D02*
D03*
X5449Y2591D02*
D03*
X5269D02*
D03*
X4726Y3467D02*
D03*
X4545D02*
D03*
X3519Y2527D02*
D03*
X3339D02*
D03*
X4065Y1765D02*
D03*
X3885D02*
D03*
X5132Y1892D02*
D03*
X4952D02*
D03*
X5790Y2057D02*
D03*
X5970D02*
D03*
D13*
X7836Y2706D02*
D03*
X7963D02*
D03*
X8090D02*
D03*
X8217D02*
D03*
X7836Y3186D02*
D03*
X7963D02*
D03*
X8090D02*
D03*
X8217D02*
D03*
X3988Y2541D02*
D03*
X4115D02*
D03*
X4242D02*
D03*
X4369D02*
D03*
X3988Y3021D02*
D03*
X4115D02*
D03*
X4242D02*
D03*
X4369D02*
D03*
D14*
X5497Y3289D02*
D03*
X5272Y3194D02*
D03*
Y3384D02*
D03*
D15*
X6033Y3202D02*
D03*
X5937Y3427D02*
D03*
X6128D02*
D03*
D17*
X4826Y254D02*
D03*
X2794Y762D02*
D03*
X8890Y254D02*
D03*
X2794Y5080D02*
D03*
X6287Y4128D02*
D03*
X7620Y5080D02*
D03*
X9754Y2908D02*
D03*
X7112Y254D02*
D03*
X5334Y5080D02*
D03*
X9779D02*
D03*
D18*
X4572Y254D02*
D03*
X4318D02*
D03*
X4064D02*
D03*
X3810D02*
D03*
X3556D02*
D03*
X3302D02*
D03*
X3048D02*
D03*
X2540Y762D02*
D03*
X7620Y254D02*
D03*
X7874D02*
D03*
X8128D02*
D03*
X8382D02*
D03*
X8636D02*
D03*
X2540Y5080D02*
D03*
X2794Y2794D02*
D03*
X2540D02*
D03*
X2794Y2540D02*
D03*
X2540D02*
D03*
X2794Y2286D02*
D03*
X2540D02*
D03*
X2794Y2032D02*
D03*
X2540D02*
D03*
X2794Y1778D02*
D03*
X2540D02*
D03*
X2794Y1524D02*
D03*
X2540D02*
D03*
X2794Y1270D02*
D03*
X2540D02*
D03*
X2794Y1016D02*
D03*
X6033Y4128D02*
D03*
X5778D02*
D03*
X5524D02*
D03*
X5842Y5080D02*
D03*
X6096D02*
D03*
X6350D02*
D03*
X6604D02*
D03*
X6858D02*
D03*
X7112D02*
D03*
X7366D02*
D03*
X9246Y2908D02*
D03*
X9500D02*
D03*
X5334Y254D02*
D03*
X5588D02*
D03*
X5842D02*
D03*
X6096D02*
D03*
X6350D02*
D03*
X6604D02*
D03*
X6858D02*
D03*
X2794Y4826D02*
D03*
X2540D02*
D03*
X2794Y4572D02*
D03*
X2540D02*
D03*
X2794Y4318D02*
D03*
X2540D02*
D03*
X2794Y4064D02*
D03*
X2540D02*
D03*
X2794Y3810D02*
D03*
X2540D02*
D03*
X2794Y3556D02*
D03*
X2540D02*
D03*
X2794Y3302D02*
D03*
X2540D02*
D03*
X2794Y3048D02*
D03*
X3556Y5080D02*
D03*
X3810D02*
D03*
X4064D02*
D03*
X4318D02*
D03*
X4572D02*
D03*
X4826D02*
D03*
X5080D02*
D03*
X8001D02*
D03*
X8255D02*
D03*
X8509D02*
D03*
X8763D02*
D03*
X9017D02*
D03*
X9271D02*
D03*
X9525D02*
D03*
D19*
X2540Y1016D02*
D03*
Y3048D02*
D03*
D20*
X9500Y3543D02*
D03*
X9750Y3293D02*
D03*
X9250D02*
D03*
Y3793D02*
D03*
X9750D02*
D03*
X9487Y2286D02*
D03*
X9737Y2036D02*
D03*
X9237D02*
D03*
Y2536D02*
D03*
X9737D02*
D03*
D21*
X5778Y1422D02*
D03*
D22*
X6033D02*
D03*
X6287D02*
D03*
X6540D02*
D03*
X6794D02*
D03*
X7049D02*
D03*
X7303D02*
D03*
X5778Y660D02*
D03*
X6033D02*
D03*
X6287D02*
D03*
X6540D02*
D03*
X6794D02*
D03*
X7049D02*
D03*
X7303D02*
D03*
M02*
