%FSLAX42Y42*%
%MOMM*%
G71*
G01*
G75*
G04 Layer_Color=16711935*
%ADD10R,1.20X1.40*%
%ADD11O,0.60X2.30*%
%ADD12R,1.40X1.20*%
%ADD13R,1.10X0.65*%
%ADD14R,1.40X1.10*%
%ADD15R,2.00X1.30*%
%ADD16R,2.00X2.00*%
%ADD17O,0.60X2.20*%
%ADD18R,0.65X1.10*%
%ADD19C,0.25*%
%ADD20R,1.50X1.50*%
%ADD21C,1.50*%
%ADD22R,1.50X1.50*%
%ADD23C,2.50*%
%ADD24R,1.50X1.50*%
%ADD25C,1.50*%
%ADD26C,1.27*%
%ADD27R,1.15X0.60*%
%ADD28R,0.60X1.15*%
%ADD29C,0.20*%
%ADD30C,0.25*%
%ADD31C,0.60*%
%ADD32R,1.40X1.60*%
%ADD33O,0.80X2.50*%
%ADD34R,1.60X1.40*%
%ADD35R,1.30X0.85*%
%ADD36R,1.60X1.30*%
%ADD37R,2.20X1.50*%
%ADD38R,2.20X2.20*%
%ADD39O,0.80X2.40*%
%ADD40R,0.85X1.30*%
%ADD41R,1.70X1.70*%
%ADD42C,1.70*%
%ADD43R,1.70X1.70*%
%ADD44C,2.70*%
%ADD45R,1.70X1.70*%
%ADD46C,1.70*%
%ADD47C,1.47*%
%ADD48R,1.35X0.80*%
%ADD49R,0.80X1.35*%
%ADD50C,0.03*%
%ADD51C,0.10*%
D51*
X4056Y3056D02*
G03*
X4056Y3056I-50J0D01*
G01*
X7904Y2891D02*
G03*
X7904Y2891I-50J0D01*
G01*
X6982Y2745D02*
G03*
X6982Y2745I-50J0D01*
G01*
X4538Y2379D02*
G03*
X4538Y2379I-50J0D01*
G01*
X2547Y4083D02*
X2762D01*
X2547Y4223D02*
X2762D01*
Y4083D02*
Y4223D01*
X2547Y4083D02*
Y4223D01*
X2636Y1441D02*
X2851D01*
X2636Y1581D02*
X2851D01*
Y1441D02*
Y1581D01*
X2636Y1441D02*
Y1581D01*
X5691Y2360D02*
Y2670D01*
X5511Y2360D02*
Y2670D01*
X5691D01*
X5511Y2360D02*
X5691D01*
X3474Y3779D02*
Y3994D01*
X3334Y3779D02*
Y3994D01*
Y3779D02*
X3474D01*
X3334Y3994D02*
X3474D01*
X3855Y4083D02*
X4070D01*
X3855Y3943D02*
X4070D01*
Y4083D01*
X3855Y3943D02*
Y4083D01*
X4416Y2746D02*
Y3146D01*
X3916Y2746D02*
Y3146D01*
Y2746D02*
X4416D01*
X3916Y3146D02*
X4416D01*
X3296Y3105D02*
X3511D01*
X3296Y3245D02*
X3511D01*
X3296Y3105D02*
Y3245D01*
X3511Y3105D02*
Y3245D01*
X3309Y2534D02*
X3524D01*
X3309Y2394D02*
X3524D01*
Y2534D01*
X3309Y2394D02*
Y2534D01*
Y2242D02*
X3524D01*
X3309Y2102D02*
X3524D01*
Y2242D01*
X3309Y2102D02*
Y2242D01*
X3855Y2267D02*
X4070D01*
X3855Y2407D02*
X4070D01*
X3855Y2267D02*
Y2407D01*
X4070Y2267D02*
Y2407D01*
X3842Y1556D02*
X4057D01*
X3842Y1696D02*
X4057D01*
X3842Y1556D02*
Y1696D01*
X4057Y1556D02*
Y1696D01*
X4553Y2407D02*
X4768D01*
X4553Y2547D02*
X4768D01*
X4553Y2407D02*
Y2547D01*
X4768Y2407D02*
Y2547D01*
X4490Y1899D02*
X4705D01*
X4490Y2039D02*
X4705D01*
X4490Y1899D02*
Y2039D01*
X4705Y1899D02*
Y2039D01*
X5150Y1759D02*
X5365D01*
X5150Y1899D02*
X5365D01*
X5150Y1759D02*
Y1899D01*
X5365Y1759D02*
Y1899D01*
X3855Y3600D02*
X4070D01*
X3855Y3740D02*
X4070D01*
X3855Y3600D02*
Y3740D01*
X4070Y3600D02*
Y3740D01*
X4820Y3943D02*
X5035D01*
X4820Y3803D02*
X5035D01*
Y3943D01*
X4820Y3803D02*
Y3943D01*
X5150Y3334D02*
X5365D01*
X5150Y3474D02*
X5365D01*
X5150Y3334D02*
Y3474D01*
X5365Y3334D02*
Y3474D01*
X5493Y3867D02*
X5708D01*
X5493Y4007D02*
X5708D01*
X5493Y3867D02*
Y4007D01*
X5708Y3867D02*
Y4007D01*
X6090Y2559D02*
X6305D01*
X6090Y2699D02*
X6305D01*
X6090Y2559D02*
Y2699D01*
X6305Y2559D02*
Y2699D01*
X6725Y2521D02*
X6940D01*
X6725Y2661D02*
X6940D01*
X6725Y2521D02*
Y2661D01*
X6940Y2521D02*
Y2661D01*
X6737Y3139D02*
X6877D01*
X6737Y3439D02*
X6877D01*
X6737Y3139D02*
Y3439D01*
X6877Y3139D02*
Y3439D01*
X6310Y3245D02*
Y3385D01*
X6009Y3245D02*
Y3385D01*
Y3245D02*
X6310D01*
X6009Y3385D02*
X6310D01*
X7449Y3397D02*
X7664D01*
X7449Y3537D02*
X7664D01*
X7449Y3397D02*
Y3537D01*
X7664Y3397D02*
Y3537D01*
X8264Y2581D02*
Y2981D01*
X7764Y2581D02*
Y2981D01*
Y2581D02*
X8264D01*
X7764Y2981D02*
X8264D01*
X8656Y2457D02*
X8870D01*
X8656Y2597D02*
X8870D01*
X8656Y2457D02*
Y2597D01*
X8870Y2457D02*
Y2597D01*
X8109Y1695D02*
X8324D01*
X8109Y1835D02*
X8324D01*
X8109Y1695D02*
Y1835D01*
X8324Y1695D02*
Y1835D01*
X7043Y1822D02*
X7258D01*
X7043Y1962D02*
X7258D01*
X7043Y1822D02*
Y1962D01*
X7258Y1822D02*
Y1962D01*
X6204Y2127D02*
X6419D01*
X6204Y1987D02*
X6419D01*
Y2127D01*
X6204Y1987D02*
Y2127D01*
X6842Y2655D02*
X8653D01*
X6842Y3415D02*
X8653D01*
X6842Y2655D02*
Y3415D01*
X8653Y2655D02*
Y3415D01*
X3703Y1784D02*
X3917D01*
X3703Y1924D02*
X3917D01*
Y1784D02*
Y1924D01*
X3703Y1784D02*
Y1924D01*
X7830Y3854D02*
X8045D01*
X7830Y3994D02*
X8045D01*
Y3854D02*
Y3994D01*
X7830Y3854D02*
Y3994D01*
X4833Y3080D02*
X5048D01*
X4833Y2940D02*
X5048D01*
X4833D02*
Y3080D01*
X5048Y2940D02*
Y3080D01*
X5429Y2623D02*
Y2838D01*
X5289Y2623D02*
Y2838D01*
X5429D01*
X5289Y2623D02*
X5429D01*
X5646Y1899D02*
X5861D01*
X5646Y2039D02*
X5861D01*
Y1899D02*
Y2039D01*
X5646Y1899D02*
Y2039D01*
X5399Y3744D02*
Y4054D01*
X5219Y3744D02*
Y4054D01*
Y3744D02*
X5399D01*
X5219Y4054D02*
X5399D01*
X7230Y1947D02*
X7375D01*
X7230Y2167D02*
X7375D01*
X7230Y1947D02*
Y2167D01*
X7375Y1947D02*
Y2167D01*
X4898Y2289D02*
Y2689D01*
X4398Y2289D02*
Y2689D01*
X4898D01*
X4398Y2289D02*
X4898D01*
X5213Y1937D02*
Y2152D01*
X5353Y1937D02*
Y2152D01*
X5213Y1937D02*
X5353D01*
X5213Y2152D02*
X5353D01*
X4160Y4451D02*
X4375D01*
X4160Y4311D02*
X4375D01*
X4160D02*
Y4451D01*
X4375Y4311D02*
Y4451D01*
X3664Y4084D02*
Y4298D01*
X3524Y4084D02*
Y4298D01*
X3664D01*
X3524Y4084D02*
X3664D01*
X4172Y2814D02*
Y3028D01*
X4032Y2814D02*
Y3028D01*
X4172D01*
X4032Y2814D02*
X4172D01*
X4338Y1962D02*
X4552D01*
X4338Y1822D02*
X4552D01*
X4338D02*
Y1962D01*
X4552Y1822D02*
Y1962D01*
X5341Y3397D02*
X5556D01*
X5341Y3537D02*
X5556D01*
Y3397D02*
Y3537D01*
X5341Y3397D02*
Y3537D01*
X5954Y2590D02*
X6264D01*
X5954Y2770D02*
X6264D01*
X5954Y2590D02*
Y2770D01*
X6264Y2590D02*
Y2770D01*
M02*
