%FSAX43Y43*%
%MOMM*%
G71*
G01*
G75*
%ADD10R,0.700X0.900*%
%ADD11R,0.900X0.700*%
%ADD12C,0.254*%
%ADD13C,0.500*%
%ADD14C,1.500*%
%ADD15R,1.500X1.500*%
%ADD16R,0.765X0.765*%
%ADD17C,0.765*%
%ADD18C,1.650*%
%ADD19R,1.650X1.650*%
%ADD20C,1.000*%
%ADD21R,1.400X1.100*%
%ADD22R,1.100X1.400*%
%ADD23R,0.700X2.500*%
%ADD24R,3.200X2.500*%
%ADD25O,2.000X0.350*%
%ADD26C,0.200*%
%ADD27C,0.203*%
%ADD28C,0.100*%
%ADD29C,0.178*%
%ADD30R,0.903X1.103*%
%ADD31R,1.103X0.903*%
%ADD32C,1.703*%
%ADD33R,1.703X1.703*%
%ADD34R,0.968X0.968*%
%ADD35C,0.968*%
%ADD36C,1.853*%
%ADD37R,1.853X1.853*%
%ADD38C,1.204*%
%ADD39C,1.203*%
%ADD40R,1.603X1.303*%
%ADD41R,1.303X1.603*%
%ADD42R,0.903X2.703*%
%ADD43R,3.403X2.703*%
%ADD44O,2.203X0.553*%
%ADD45C,0.250*%
%ADD46C,0.600*%
%ADD47C,0.127*%
%ADD48C,0.169*%
D47*
X0093408Y0086655D02*
X0094308D01*
X0093858Y0086205D02*
Y0087105D01*
X0090868Y0086655D02*
X0091768D01*
X0091318Y0086205D02*
Y0087105D01*
X0088328Y0086655D02*
X0089228D01*
X0088778Y0086205D02*
Y0087105D01*
X0085788Y0086655D02*
X0086688D01*
X0086238Y0086205D02*
Y0087105D01*
X0074608Y0086655D02*
X0075508D01*
X0075058Y0086205D02*
Y0087105D01*
X0072068Y0086655D02*
X0072968D01*
X0072518Y0086205D02*
Y0087105D01*
X0069528Y0086655D02*
X0070428D01*
X0069978Y0086205D02*
Y0087105D01*
X0066988Y0086655D02*
X0067888D01*
X0067438Y0086205D02*
Y0087105D01*
X0065590Y0039624D02*
X0066490D01*
X0066040Y0039174D02*
Y0040074D01*
X0068130Y0039624D02*
X0069030D01*
X0068580Y0039174D02*
Y0040074D01*
X0070670Y0039624D02*
X0071570D01*
X0071120Y0039174D02*
Y0040074D01*
X0073210Y0039624D02*
X0074110D01*
X0073660Y0039174D02*
Y0040074D01*
X0083403Y0043455D02*
X0083953D01*
X0083678Y0043180D02*
Y0043730D01*
X0084673Y0043455D02*
X0085223D01*
X0084948Y0043180D02*
Y0043730D01*
X0085943Y0043455D02*
X0086493D01*
X0086218Y0043180D02*
Y0043730D01*
X0087213Y0043455D02*
X0087763D01*
X0087488Y0043180D02*
Y0043730D01*
X0088483Y0043455D02*
X0089033D01*
X0088758Y0043180D02*
Y0043730D01*
X0089753Y0043455D02*
X0090303D01*
X0090028Y0043180D02*
Y0043730D01*
X0091023Y0043455D02*
X0091573D01*
X0091298Y0043180D02*
Y0043730D01*
X0092293Y0043455D02*
X0092843D01*
X0092568Y0043180D02*
Y0043730D01*
X0093563Y0043455D02*
X0094113D01*
X0093838Y0043180D02*
Y0043730D01*
X0094833Y0043455D02*
X0095383D01*
X0095108Y0043180D02*
Y0043730D01*
X0088483Y0059965D02*
X0089033D01*
X0088758Y0059690D02*
Y0060240D01*
X0089753Y0059965D02*
X0090303D01*
X0090028Y0059690D02*
Y0060240D01*
X0091023Y0059965D02*
X0091573D01*
X0091298Y0059690D02*
Y0060240D01*
X0092293Y0059965D02*
X0092843D01*
X0092568Y0059690D02*
Y0060240D01*
X0093563Y0059965D02*
X0094113D01*
X0093838Y0059690D02*
Y0060240D01*
X0094833Y0059965D02*
X0095383D01*
X0095108Y0059690D02*
Y0060240D01*
X0076073Y0082905D02*
X0076623D01*
X0076348Y0082630D02*
Y0083180D01*
X0074803Y0082905D02*
X0075353D01*
X0075078Y0082630D02*
Y0083180D01*
X0073533Y0082905D02*
X0074083D01*
X0073808Y0082630D02*
Y0083180D01*
X0072263Y0082905D02*
X0072813D01*
X0072538Y0082630D02*
Y0083180D01*
X0070993Y0082905D02*
X0071543D01*
X0071268Y0082630D02*
Y0083180D01*
X0069723Y0082905D02*
X0070273D01*
X0069998Y0082630D02*
Y0083180D01*
X0068453Y0082905D02*
X0069003D01*
X0068728Y0082630D02*
Y0083180D01*
X0067183Y0082905D02*
X0067733D01*
X0067458Y0082630D02*
Y0083180D01*
X0065913Y0082905D02*
X0066463D01*
X0066188Y0082630D02*
Y0083180D01*
X0064643Y0082905D02*
X0065193D01*
X0064918Y0082630D02*
Y0083180D01*
X0070993Y0066395D02*
X0071543D01*
X0071268Y0066120D02*
Y0066670D01*
X0069723Y0066395D02*
X0070273D01*
X0069998Y0066120D02*
Y0066670D01*
X0068453Y0066395D02*
X0069003D01*
X0068728Y0066120D02*
Y0066670D01*
X0067183Y0066395D02*
X0067733D01*
X0067458Y0066120D02*
Y0066670D01*
X0065913Y0066395D02*
X0066463D01*
X0066188Y0066120D02*
Y0066670D01*
X0064643Y0066395D02*
X0065193D01*
X0064918Y0066120D02*
Y0066670D01*
X0084493Y0039830D02*
X0085393D01*
X0084943Y0039380D02*
Y0040280D01*
X0087033Y0039830D02*
X0087933D01*
X0087483Y0039380D02*
Y0040280D01*
X0089573Y0039830D02*
X0090473D01*
X0090023Y0039380D02*
Y0040280D01*
X0092113Y0039830D02*
X0093013D01*
X0092563Y0039380D02*
Y0040280D01*
X0094863Y0082905D02*
X0095413D01*
X0095138Y0082630D02*
Y0083180D01*
X0093593Y0082905D02*
X0094143D01*
X0093868Y0082630D02*
Y0083180D01*
X0092323Y0082905D02*
X0092873D01*
X0092598Y0082630D02*
Y0083180D01*
X0091053Y0082905D02*
X0091603D01*
X0091328Y0082630D02*
Y0083180D01*
X0089783Y0082905D02*
X0090333D01*
X0090058Y0082630D02*
Y0083180D01*
X0088513Y0082905D02*
X0089063D01*
X0088788Y0082630D02*
Y0083180D01*
X0087243Y0082905D02*
X0087793D01*
X0087518Y0082630D02*
Y0083180D01*
X0085973Y0082905D02*
X0086523D01*
X0086248Y0082630D02*
Y0083180D01*
X0084703Y0082905D02*
X0085253D01*
X0084978Y0082630D02*
Y0083180D01*
X0083433Y0082905D02*
X0083983D01*
X0083708Y0082630D02*
Y0083180D01*
X0089783Y0066395D02*
X0090333D01*
X0090058Y0066120D02*
Y0066670D01*
X0088513Y0066395D02*
X0089063D01*
X0088788Y0066120D02*
Y0066670D01*
X0087243Y0066395D02*
X0087793D01*
X0087518Y0066120D02*
Y0066670D01*
X0085973Y0066395D02*
X0086523D01*
X0086248Y0066120D02*
Y0066670D01*
X0084703Y0066395D02*
X0085253D01*
X0084978Y0066120D02*
Y0066670D01*
X0083433Y0066395D02*
X0083983D01*
X0083708Y0066120D02*
Y0066670D01*
X0056603Y0051033D02*
X0057753D01*
X0057178Y0050458D02*
Y0051608D01*
X0056603Y0053573D02*
X0057753D01*
X0057178Y0052998D02*
Y0054148D01*
X0056603Y0056113D02*
X0057753D01*
X0057178Y0055538D02*
Y0056688D01*
X0056603Y0063733D02*
X0057753D01*
X0057178Y0063158D02*
Y0064308D01*
X0056603Y0061193D02*
X0057753D01*
X0057178Y0060618D02*
Y0061768D01*
X0056603Y0058653D02*
X0057753D01*
X0057178Y0058078D02*
Y0059228D01*
X0056603Y0071353D02*
X0057753D01*
X0057178Y0070778D02*
Y0071928D01*
X0056603Y0068813D02*
X0057753D01*
X0057178Y0068238D02*
Y0069388D01*
X0056603Y0066273D02*
X0057753D01*
X0057178Y0065698D02*
Y0066848D01*
X0056603Y0073893D02*
X0057753D01*
X0057178Y0073318D02*
Y0074468D01*
X0059143Y0073893D02*
X0060293D01*
X0059718Y0073318D02*
Y0074468D01*
X0059143Y0066273D02*
X0060293D01*
X0059718Y0065698D02*
Y0066848D01*
X0059143Y0068813D02*
X0060293D01*
X0059718Y0068238D02*
Y0069388D01*
X0059143Y0071353D02*
X0060293D01*
X0059718Y0070778D02*
Y0071928D01*
X0059143Y0058653D02*
X0060293D01*
X0059718Y0058078D02*
Y0059228D01*
X0059143Y0061193D02*
X0060293D01*
X0059718Y0060618D02*
Y0061768D01*
X0059143Y0063733D02*
X0060293D01*
X0059718Y0063158D02*
Y0064308D01*
X0059143Y0056113D02*
X0060293D01*
X0059718Y0055538D02*
Y0056688D01*
X0059143Y0053573D02*
X0060293D01*
X0059718Y0052998D02*
Y0054148D01*
X0059143Y0051033D02*
X0060293D01*
X0059718Y0050458D02*
Y0051608D01*
X0099783Y0051033D02*
X0100933D01*
X0100358Y0050458D02*
Y0051608D01*
X0099783Y0053573D02*
X0100933D01*
X0100358Y0052998D02*
Y0054148D01*
X0099783Y0056113D02*
X0100933D01*
X0100358Y0055538D02*
Y0056688D01*
X0099783Y0063733D02*
X0100933D01*
X0100358Y0063158D02*
Y0064308D01*
X0099783Y0061193D02*
X0100933D01*
X0100358Y0060618D02*
Y0061768D01*
X0099783Y0058653D02*
X0100933D01*
X0100358Y0058078D02*
Y0059228D01*
X0099783Y0071353D02*
X0100933D01*
X0100358Y0070778D02*
Y0071928D01*
X0099783Y0068813D02*
X0100933D01*
X0100358Y0068238D02*
Y0069388D01*
X0099783Y0066273D02*
X0100933D01*
X0100358Y0065698D02*
Y0066848D01*
X0099783Y0073893D02*
X0100933D01*
X0100358Y0073318D02*
Y0074468D01*
X0102323Y0073893D02*
X0103473D01*
X0102898Y0073318D02*
Y0074468D01*
X0102323Y0066273D02*
X0103473D01*
X0102898Y0065698D02*
Y0066848D01*
X0102323Y0068813D02*
X0103473D01*
X0102898Y0068238D02*
Y0069388D01*
X0102323Y0071353D02*
X0103473D01*
X0102898Y0070778D02*
Y0071928D01*
X0102323Y0058653D02*
X0103473D01*
X0102898Y0058078D02*
Y0059228D01*
X0102323Y0061193D02*
X0103473D01*
X0102898Y0060618D02*
Y0061768D01*
X0102323Y0063733D02*
X0103473D01*
X0102898Y0063158D02*
Y0064308D01*
X0102323Y0056113D02*
X0103473D01*
X0102898Y0055538D02*
Y0056688D01*
X0102323Y0053573D02*
X0103473D01*
X0102898Y0052998D02*
Y0054148D01*
X0102323Y0051033D02*
X0103473D01*
X0102898Y0050458D02*
Y0051608D01*
X0076043Y0059965D02*
X0076593D01*
X0076318Y0059690D02*
Y0060240D01*
X0074773Y0059965D02*
X0075323D01*
X0075048Y0059690D02*
Y0060240D01*
X0073503Y0059965D02*
X0074053D01*
X0073778Y0059690D02*
Y0060240D01*
X0072233Y0059965D02*
X0072783D01*
X0072508Y0059690D02*
Y0060240D01*
X0070963Y0059965D02*
X0071513D01*
X0071238Y0059690D02*
Y0060240D01*
X0069693Y0059965D02*
X0070243D01*
X0069968Y0059690D02*
Y0060240D01*
X0076043Y0043455D02*
X0076593D01*
X0076318Y0043180D02*
Y0043730D01*
X0074773Y0043455D02*
X0075323D01*
X0075048Y0043180D02*
Y0043730D01*
X0073503Y0043455D02*
X0074053D01*
X0073778Y0043180D02*
Y0043730D01*
X0072233Y0043455D02*
X0072783D01*
X0072508Y0043180D02*
Y0043730D01*
X0070963Y0043455D02*
X0071513D01*
X0071238Y0043180D02*
Y0043730D01*
X0069693Y0043455D02*
X0070243D01*
X0069968Y0043180D02*
Y0043730D01*
X0068423Y0043455D02*
X0068973D01*
X0068698Y0043180D02*
Y0043730D01*
X0067153Y0043455D02*
X0067703D01*
X0067428Y0043180D02*
Y0043730D01*
X0065883Y0043455D02*
X0066433D01*
X0066158Y0043180D02*
Y0043730D01*
X0064613Y0043455D02*
X0065163D01*
X0064888Y0043180D02*
Y0043730D01*
X0073868Y0066167D02*
X0074468D01*
X0074168Y0065867D02*
Y0066467D01*
X0079583Y0066167D02*
X0080183D01*
X0079883Y0065867D02*
Y0066467D01*
X0075646Y0068707D02*
X0076246D01*
X0075946Y0068407D02*
Y0069007D01*
X0065740Y0059309D02*
X0066340D01*
X0066040Y0059009D02*
Y0059609D01*
X0092029Y0049784D02*
X0092629D01*
X0092329Y0049484D02*
Y0050084D01*
X0090886Y0050800D02*
X0091486D01*
X0091186Y0050500D02*
Y0051100D01*
X0081742Y0049149D02*
X0082342D01*
X0082042Y0048849D02*
Y0049449D01*
X0080345Y0041910D02*
X0080945D01*
X0080645Y0041610D02*
Y0042210D01*
X0070185Y0052578D02*
X0070785D01*
X0070485Y0052278D02*
Y0052878D01*
X0071201Y0053721D02*
X0071801D01*
X0071501Y0053421D02*
Y0054021D01*
X0087711Y0080645D02*
X0088311D01*
X0088011Y0080345D02*
Y0080945D01*
X0077297Y0080645D02*
X0077897D01*
X0077597Y0080345D02*
Y0080945D01*
X0065359Y0079375D02*
X0065959D01*
X0065659Y0079075D02*
Y0079675D01*
X0073741Y0075819D02*
X0074341D01*
X0074041Y0075519D02*
Y0076119D01*
X0072725Y0080772D02*
X0073325D01*
X0073025Y0080472D02*
Y0081072D01*
X0081869Y0066294D02*
X0082469D01*
X0082169Y0065994D02*
Y0066594D01*
X0080853Y0067691D02*
X0081453D01*
X0081153Y0067391D02*
Y0067991D01*
X0074630Y0054991D02*
X0075230D01*
X0074930Y0054691D02*
Y0055291D01*
X0074630Y0052832D02*
X0075230D01*
X0074930Y0052532D02*
Y0053132D01*
X0076408Y0052324D02*
X0077008D01*
X0076708Y0052024D02*
Y0052624D01*
X0076789Y0050927D02*
X0077389D01*
X0077089Y0050627D02*
Y0051227D01*
X0075253Y0072529D02*
X0075853D01*
X0075553Y0072229D02*
Y0072829D01*
X0078174Y0072529D02*
X0078774D01*
X0078474Y0072229D02*
Y0072829D01*
X0077678Y0044704D02*
X0078278D01*
X0077978Y0044404D02*
Y0045004D01*
X0064089Y0072517D02*
X0064689D01*
X0064389Y0072217D02*
Y0072817D01*
M02*
