%FSAX43Y43*%
%MOMM*%
G71*
G01*
G75*
G04 Layer_Color=16711935*
%ADD10R,0.700X0.900*%
%ADD11R,0.900X0.700*%
%ADD12C,0.254*%
%ADD13C,0.500*%
%ADD14C,1.500*%
%ADD15R,1.500X1.500*%
%ADD16R,0.765X0.765*%
%ADD17C,0.765*%
%ADD18C,1.650*%
%ADD19R,1.650X1.650*%
%ADD20C,1.000*%
%ADD21R,1.400X1.100*%
%ADD22R,1.100X1.400*%
%ADD23R,0.700X2.500*%
%ADD24R,3.200X2.500*%
%ADD25O,2.000X0.350*%
%ADD26C,0.200*%
%ADD27C,0.203*%
%ADD28C,0.100*%
%ADD29C,0.178*%
%ADD30R,0.903X1.103*%
%ADD31R,1.103X0.903*%
%ADD32C,1.703*%
%ADD33R,1.703X1.703*%
%ADD34R,0.968X0.968*%
%ADD35C,0.968*%
%ADD36C,1.853*%
%ADD37R,1.853X1.853*%
%ADD38C,1.204*%
%ADD39C,1.203*%
%ADD40R,1.603X1.303*%
%ADD41R,1.303X1.603*%
%ADD42R,0.903X2.703*%
%ADD43R,3.403X2.703*%
%ADD44O,2.203X0.553*%
%ADD45C,0.250*%
%ADD46C,0.600*%
D12*
X0054864Y0036449D02*
Y0090678D01*
X0105156D01*
Y0036449D02*
Y0090678D01*
X0054864Y0036449D02*
X0105156D01*
D28*
X0085289Y0056756D02*
G03*
X0085289Y0056756I-0000500J0000000D01*
G01*
X0087415Y0046957D02*
X0089115D01*
X0087415Y0046007D02*
X0089115D01*
Y0046957D01*
X0087415Y0046007D02*
Y0046957D01*
X0084621Y0046007D02*
X0086321D01*
X0084621Y0046957D02*
X0086321D01*
X0084621Y0046007D02*
Y0046957D01*
X0086321Y0046007D02*
Y0046957D01*
X0068583Y0046957D02*
X0070283D01*
X0068583Y0046007D02*
X0070283D01*
Y0046957D01*
X0068583Y0046007D02*
Y0046957D01*
X0065825Y0046007D02*
X0067525D01*
X0065825Y0046957D02*
X0067525D01*
X0065825Y0046007D02*
Y0046957D01*
X0067525Y0046007D02*
Y0046957D01*
X0089701Y0079596D02*
X0091401D01*
X0089701Y0078646D02*
X0091401D01*
Y0079596D01*
X0089701Y0078646D02*
Y0079596D01*
X0092495Y0078646D02*
X0094195D01*
X0092495Y0079596D02*
X0094195D01*
X0092495Y0078646D02*
Y0079596D01*
X0094195Y0078646D02*
Y0079596D01*
X0073953Y0079596D02*
X0075653D01*
X0073953Y0078646D02*
X0075653D01*
Y0079596D01*
X0073953Y0078646D02*
Y0079596D01*
X0080303Y0060038D02*
X0082003D01*
X0080303Y0059088D02*
X0082003D01*
Y0060038D01*
X0080303Y0059088D02*
Y0060038D01*
X0078072Y0077382D02*
Y0079082D01*
X0077122Y0077382D02*
Y0079082D01*
Y0077382D02*
X0078072D01*
X0077122Y0079082D02*
X0078072D01*
X0070141Y0081237D02*
X0071591D01*
X0070141Y0079037D02*
X0071591D01*
X0070141D02*
Y0081237D01*
X0071591Y0079037D02*
Y0081237D01*
X0067474Y0079037D02*
X0068924D01*
X0067474Y0081237D02*
X0068924D01*
Y0079037D02*
Y0081237D01*
X0067474Y0079037D02*
Y0081237D01*
X0062394Y0077554D02*
X0063844D01*
X0062394Y0075354D02*
X0063844D01*
X0062394D02*
Y0077554D01*
X0063844Y0075354D02*
Y0077554D01*
X0085555Y0058965D02*
Y0060415D01*
X0083355Y0058965D02*
Y0060415D01*
X0085555D01*
X0083355Y0058965D02*
X0085555D01*
X0062994Y0087105D02*
X0064694D01*
X0062994Y0086155D02*
X0064694D01*
X0062994D02*
Y0087105D01*
X0064694Y0086155D02*
Y0087105D01*
X0062994Y0087555D02*
Y0088505D01*
X0064694Y0087555D02*
Y0088505D01*
X0062994D02*
X0064694D01*
X0062994Y0087555D02*
X0064694D01*
X0064719Y0084780D02*
Y0085730D01*
X0063019Y0084780D02*
Y0085730D01*
Y0084780D02*
X0064719D01*
X0063019Y0085730D02*
X0064719D01*
X0073009Y0063405D02*
Y0064355D01*
X0074709Y0063405D02*
Y0064355D01*
X0073009D02*
X0074709D01*
X0073009Y0063405D02*
X0074709D01*
X0091838Y0063405D02*
Y0064355D01*
X0093538Y0063405D02*
Y0064355D01*
X0091838D02*
X0093538D01*
X0091838Y0063405D02*
X0093538D01*
X0094936Y0039143D02*
Y0040092D01*
X0096636Y0039143D02*
Y0040092D01*
X0094936D02*
X0096636D01*
X0094936Y0039143D02*
X0096636D01*
X0076938Y0086830D02*
X0077888D01*
X0076938Y0085130D02*
X0077888D01*
Y0086830D01*
X0076938Y0085130D02*
Y0086830D01*
X0081948Y0039409D02*
X0082898D01*
X0081948Y0041109D02*
X0082898D01*
X0081948Y0039409D02*
Y0041109D01*
X0082898Y0039409D02*
Y0041109D01*
X0063163Y0039405D02*
X0064113D01*
X0063163Y0041105D02*
X0064113D01*
X0063163Y0039405D02*
Y0041105D01*
X0064113Y0039405D02*
Y0041105D01*
X0094911Y0040530D02*
Y0041480D01*
X0096611Y0040530D02*
Y0041480D01*
X0094911D02*
X0096611D01*
X0094911Y0040530D02*
X0096611D01*
X0073009Y0062005D02*
Y0062955D01*
X0074709Y0062005D02*
Y0062955D01*
X0073009D02*
X0074709D01*
X0073009Y0062005D02*
X0074709D01*
X0096636Y0037755D02*
Y0038705D01*
X0094936Y0037755D02*
Y0038705D01*
Y0037755D02*
X0096636D01*
X0094936Y0038705D02*
X0096636D01*
X0076188Y0039143D02*
Y0040092D01*
X0077888Y0039143D02*
Y0040092D01*
X0076188D02*
X0077888D01*
X0076188Y0039143D02*
X0077888D01*
X0083457Y0084780D02*
Y0085730D01*
X0081757Y0084780D02*
Y0085730D01*
Y0084780D02*
X0083457D01*
X0081757Y0085730D02*
X0083457D01*
X0081757Y0087555D02*
Y0088505D01*
X0083457Y0087555D02*
Y0088505D01*
X0081757D02*
X0083457D01*
X0081757Y0087555D02*
X0083457D01*
X0077684Y0063405D02*
Y0064355D01*
X0075984Y0063405D02*
Y0064355D01*
Y0063405D02*
X0077684D01*
X0075984Y0064355D02*
X0077684D01*
X0095763Y0086830D02*
X0096713D01*
X0095763Y0085130D02*
X0096713D01*
Y0086830D01*
X0095763Y0085130D02*
Y0086830D01*
X0091838Y0062005D02*
Y0062955D01*
X0093538Y0062005D02*
Y0062955D01*
X0091838D02*
X0093538D01*
X0091838Y0062005D02*
X0093538D01*
X0076188Y0040530D02*
Y0041480D01*
X0077888Y0040530D02*
Y0041480D01*
X0076188D02*
X0077888D01*
X0076188Y0040530D02*
X0077888D01*
X0077888Y0037755D02*
Y0038705D01*
X0076188Y0037755D02*
Y0038705D01*
Y0037755D02*
X0077888D01*
X0076188Y0038705D02*
X0077888D01*
X0087263Y0063380D02*
Y0064330D01*
X0085563Y0063380D02*
Y0064330D01*
Y0063380D02*
X0087263D01*
X0085563Y0064330D02*
X0087263D01*
X0068463Y0063405D02*
Y0064355D01*
X0066763Y0063405D02*
Y0064355D01*
Y0063405D02*
X0068463D01*
X0066763Y0064355D02*
X0068463D01*
X0083457Y0086155D02*
Y0087105D01*
X0081757Y0086155D02*
Y0087105D01*
Y0086155D02*
X0083457D01*
X0081757Y0087105D02*
X0083457D01*
X0087213Y0061980D02*
Y0062930D01*
X0085513Y0061980D02*
Y0062930D01*
Y0061980D02*
X0087213D01*
X0085513Y0062930D02*
X0087213D01*
X0082563Y0061980D02*
Y0062930D01*
X0084263Y0061980D02*
Y0062930D01*
X0082563D02*
X0084263D01*
X0082563Y0061980D02*
X0084263D01*
X0068463Y0062005D02*
Y0062955D01*
X0066763Y0062005D02*
Y0062955D01*
Y0062005D02*
X0068463D01*
X0066763Y0062955D02*
X0068463D01*
X0063788Y0062005D02*
Y0062955D01*
X0065488Y0062005D02*
Y0062955D01*
X0063788D02*
X0065488D01*
X0063788Y0062005D02*
X0065488D01*
X0072744Y0071885D02*
Y0075435D01*
X0066194D02*
X0072744D01*
X0066194Y0071885D02*
X0072744D01*
X0066194D02*
Y0075435D01*
X0085689Y0051056D02*
Y0057656D01*
X0081189Y0051056D02*
Y0057656D01*
X0085689D01*
X0081189Y0051056D02*
X0085689D01*
X0096713Y0063405D02*
Y0064355D01*
X0095013Y0063405D02*
Y0064355D01*
Y0063405D02*
X0096713D01*
X0095013Y0064355D02*
X0096713D01*
M02*
