%FSAX43Y43*%
%MOMM*%
G71*
G01*
G75*
G04 Layer_Physical_Order=1*
G04 Layer_Color=255*
%ADD10R,0.700X0.900*%
%ADD11R,0.900X0.700*%
%ADD12C,0.254*%
%ADD13C,0.500*%
%ADD14C,1.500*%
%ADD15R,1.500X1.500*%
%ADD16R,0.765X0.765*%
%ADD17C,0.765*%
%ADD18C,1.650*%
%ADD19R,1.650X1.650*%
%ADD20C,1.000*%
G36*
X0104775Y0036830D02*
X0055245D01*
Y0090170D01*
X0104775D01*
Y0036830D01*
D02*
G37*
%LPC*%
G36*
X0100358Y0075230D02*
X0100012Y0075184D01*
X0099690Y0075051D01*
X0099413Y0074838D01*
X0099201Y0074562D01*
X0099067Y0074239D01*
X0099022Y0073893D01*
X0099067Y0073548D01*
X0099201Y0073225D01*
X0099413Y0072948D01*
X0099690Y0072736D01*
X0099781Y0072698D01*
Y0072548D01*
X0099690Y0072511D01*
X0099413Y0072298D01*
X0099201Y0072022D01*
X0099067Y0071699D01*
X0099022Y0071353D01*
X0099067Y0071008D01*
X0099201Y0070685D01*
X0099413Y0070408D01*
X0099690Y0070196D01*
X0099781Y0070158D01*
Y0070008D01*
X0099690Y0069971D01*
X0099413Y0069758D01*
X0099201Y0069482D01*
X0099067Y0069159D01*
X0099022Y0068813D01*
X0099067Y0068468D01*
X0099201Y0068145D01*
X0099413Y0067868D01*
X0099690Y0067656D01*
X0099781Y0067618D01*
Y0067468D01*
X0099690Y0067431D01*
X0099413Y0067218D01*
X0099201Y0066942D01*
X0099067Y0066619D01*
X0099022Y0066273D01*
X0099067Y0065928D01*
X0099201Y0065605D01*
X0099413Y0065328D01*
X0099690Y0065116D01*
X0099781Y0065078D01*
Y0064928D01*
X0099690Y0064891D01*
X0099413Y0064678D01*
X0099201Y0064402D01*
X0099067Y0064079D01*
X0099022Y0063733D01*
X0099067Y0063388D01*
X0099201Y0063065D01*
X0099413Y0062788D01*
X0099690Y0062576D01*
X0099781Y0062538D01*
Y0062388D01*
X0099690Y0062351D01*
X0099413Y0062138D01*
X0099201Y0061862D01*
X0099067Y0061539D01*
X0099022Y0061193D01*
X0099067Y0060848D01*
X0099201Y0060525D01*
X0099413Y0060248D01*
X0099690Y0060036D01*
X0099781Y0059998D01*
Y0059848D01*
X0099690Y0059811D01*
X0099413Y0059598D01*
X0099201Y0059322D01*
X0099067Y0058999D01*
X0099022Y0058653D01*
X0099067Y0058308D01*
X0099201Y0057985D01*
X0099413Y0057708D01*
X0099690Y0057496D01*
X0099781Y0057458D01*
Y0057308D01*
X0099690Y0057271D01*
X0099413Y0057058D01*
X0099201Y0056782D01*
X0099067Y0056459D01*
X0099022Y0056113D01*
X0099067Y0055768D01*
X0099201Y0055445D01*
X0099413Y0055168D01*
X0099690Y0054956D01*
X0099781Y0054918D01*
Y0054768D01*
X0099690Y0054731D01*
X0099413Y0054518D01*
X0099201Y0054242D01*
X0099067Y0053919D01*
X0099022Y0053573D01*
X0099067Y0053228D01*
X0099201Y0052905D01*
X0099413Y0052628D01*
X0099690Y0052416D01*
X0099781Y0052378D01*
Y0052228D01*
X0099690Y0052191D01*
X0099413Y0051978D01*
X0099201Y0051702D01*
X0099067Y0051379D01*
X0099022Y0051033D01*
X0099067Y0050688D01*
X0099201Y0050365D01*
X0099413Y0050088D01*
X0099690Y0049876D01*
X0100012Y0049743D01*
X0100358Y0049697D01*
X0100704Y0049743D01*
X0101026Y0049876D01*
X0101303Y0050088D01*
X0101515Y0050365D01*
X0101553Y0050456D01*
X0101703D01*
X0101741Y0050365D01*
X0101953Y0050088D01*
X0102230Y0049876D01*
X0102552Y0049743D01*
X0102898Y0049697D01*
X0103244Y0049743D01*
X0103566Y0049876D01*
X0103843Y0050088D01*
X0104055Y0050365D01*
X0104189Y0050688D01*
X0104234Y0051033D01*
X0104189Y0051379D01*
X0104055Y0051702D01*
X0103843Y0051978D01*
X0103566Y0052191D01*
X0103475Y0052228D01*
Y0052378D01*
X0103566Y0052416D01*
X0103843Y0052628D01*
X0104055Y0052905D01*
X0104189Y0053228D01*
X0104234Y0053573D01*
X0104189Y0053919D01*
X0104055Y0054242D01*
X0103843Y0054518D01*
X0103566Y0054731D01*
X0103475Y0054768D01*
Y0054918D01*
X0103566Y0054956D01*
X0103843Y0055168D01*
X0104055Y0055445D01*
X0104189Y0055768D01*
X0104234Y0056113D01*
X0104189Y0056459D01*
X0104055Y0056782D01*
X0103843Y0057058D01*
X0103566Y0057271D01*
X0103475Y0057308D01*
Y0057458D01*
X0103566Y0057496D01*
X0103843Y0057708D01*
X0104055Y0057985D01*
X0104189Y0058308D01*
X0104234Y0058653D01*
X0104189Y0058999D01*
X0104055Y0059322D01*
X0103843Y0059598D01*
X0103566Y0059811D01*
X0103475Y0059848D01*
Y0059998D01*
X0103566Y0060036D01*
X0103843Y0060248D01*
X0104055Y0060525D01*
X0104189Y0060848D01*
X0104234Y0061193D01*
X0104189Y0061539D01*
X0104055Y0061862D01*
X0103843Y0062138D01*
X0103566Y0062351D01*
X0103475Y0062388D01*
Y0062538D01*
X0103566Y0062576D01*
X0103843Y0062788D01*
X0104055Y0063065D01*
X0104189Y0063388D01*
X0104234Y0063733D01*
X0104189Y0064079D01*
X0104055Y0064402D01*
X0103843Y0064678D01*
X0103566Y0064891D01*
X0103475Y0064928D01*
Y0065078D01*
X0103566Y0065116D01*
X0103843Y0065328D01*
X0104055Y0065605D01*
X0104189Y0065928D01*
X0104234Y0066273D01*
X0104189Y0066619D01*
X0104055Y0066942D01*
X0103843Y0067218D01*
X0103566Y0067431D01*
X0103475Y0067468D01*
Y0067618D01*
X0103566Y0067656D01*
X0103843Y0067868D01*
X0104055Y0068145D01*
X0104189Y0068468D01*
X0104234Y0068813D01*
X0104189Y0069159D01*
X0104055Y0069482D01*
X0103843Y0069758D01*
X0103566Y0069971D01*
X0103475Y0070008D01*
Y0070158D01*
X0103566Y0070196D01*
X0103843Y0070408D01*
X0104055Y0070685D01*
X0104189Y0071008D01*
X0104234Y0071353D01*
X0104189Y0071699D01*
X0104055Y0072022D01*
X0103843Y0072298D01*
X0103566Y0072511D01*
X0103578Y0072568D01*
X0104223D01*
Y0073766D01*
X0102898D01*
Y0073893D01*
X0102771D01*
Y0075218D01*
X0101573D01*
Y0074720D01*
X0101431Y0074672D01*
X0101303Y0074838D01*
X0101026Y0075051D01*
X0100704Y0075184D01*
X0100358Y0075230D01*
D02*
G37*
G36*
X0095108Y0044345D02*
X0094878Y0044315D01*
X0094663Y0044226D01*
X0094479Y0044084D01*
X0094467D01*
X0094283Y0044226D01*
X0094068Y0044315D01*
X0093838Y0044345D01*
X0093608Y0044315D01*
X0093393Y0044226D01*
X0093209Y0044084D01*
X0093197D01*
X0093013Y0044226D01*
X0092798Y0044315D01*
X0092695Y0044328D01*
Y0043455D01*
Y0042582D01*
X0092798Y0042595D01*
X0093013Y0042684D01*
X0093197Y0042826D01*
X0093209D01*
X0093393Y0042684D01*
X0093608Y0042595D01*
X0093838Y0042565D01*
X0094068Y0042595D01*
X0094283Y0042684D01*
X0094467Y0042826D01*
X0094479D01*
X0094663Y0042684D01*
X0094878Y0042595D01*
X0094901Y0042592D01*
X0095400Y0042094D01*
X0095342Y0041955D01*
X0095138D01*
Y0041005D01*
X0095011D01*
Y0040878D01*
X0094161D01*
Y0040380D01*
X0093813D01*
Y0041080D01*
X0091313D01*
Y0040367D01*
X0091166Y0040337D01*
X0091115Y0040460D01*
X0090915Y0040722D01*
X0090653Y0040922D01*
X0090349Y0041048D01*
X0090150Y0041074D01*
Y0039830D01*
Y0038586D01*
X0090349Y0038612D01*
X0090653Y0038738D01*
X0090915Y0038938D01*
X0091115Y0039200D01*
X0091166Y0039323D01*
X0091313Y0039293D01*
Y0038580D01*
X0093813D01*
Y0038868D01*
X0094186D01*
Y0038667D01*
X0094186D01*
Y0037280D01*
X0096409D01*
Y0038230D01*
X0096536D01*
Y0038357D01*
X0097386D01*
Y0039180D01*
X0097386D01*
Y0040568D01*
X0097361D01*
Y0041955D01*
X0097361D01*
X0097334Y0041982D01*
Y0041985D01*
X0097334Y0041985D01*
X0097334D01*
X0097322Y0042083D01*
X0097309Y0042181D01*
X0097255Y0042310D01*
X0097233Y0042363D01*
X0097113Y0042520D01*
X0095971Y0043662D01*
X0095968Y0043685D01*
X0095879Y0043900D01*
X0095737Y0044084D01*
X0095553Y0044226D01*
X0095338Y0044315D01*
X0095108Y0044345D01*
D02*
G37*
G36*
X0091298D02*
X0091068Y0044315D01*
X0090853Y0044226D01*
X0090669Y0044084D01*
X0090657D01*
X0090473Y0044226D01*
X0090258Y0044315D01*
X0090028Y0044345D01*
X0089798Y0044315D01*
X0089583Y0044226D01*
X0089399Y0044084D01*
X0089387D01*
X0089203Y0044226D01*
X0088988Y0044315D01*
X0088885Y0044328D01*
Y0043455D01*
Y0042582D01*
X0088988Y0042595D01*
X0089203Y0042684D01*
X0089387Y0042826D01*
X0089399D01*
X0089583Y0042684D01*
X0089798Y0042595D01*
X0090028Y0042565D01*
X0090258Y0042595D01*
X0090473Y0042684D01*
X0090657Y0042826D01*
X0090669D01*
X0090853Y0042684D01*
X0091068Y0042595D01*
X0091298Y0042565D01*
X0091528Y0042595D01*
X0091743Y0042684D01*
X0091927Y0042826D01*
X0091939D01*
X0092123Y0042684D01*
X0092338Y0042595D01*
X0092441Y0042582D01*
Y0043455D01*
Y0044328D01*
X0092338Y0044315D01*
X0092123Y0044226D01*
X0091939Y0044084D01*
X0091927D01*
X0091743Y0044226D01*
X0091528Y0044315D01*
X0091298Y0044345D01*
D02*
G37*
G36*
X0072982Y0062353D02*
X0072259D01*
Y0061530D01*
X0072982D01*
Y0062353D01*
D02*
G37*
G36*
X0069213Y0064830D02*
X0068490D01*
Y0064007D01*
X0069213D01*
Y0064830D01*
D02*
G37*
G36*
X0088013Y0064805D02*
X0087290D01*
Y0063982D01*
X0088013D01*
Y0064805D01*
D02*
G37*
G36*
X0091811Y0062353D02*
X0091088D01*
Y0061530D01*
X0091811D01*
Y0062353D01*
D02*
G37*
G36*
X0087488Y0044345D02*
X0087258Y0044315D01*
X0087043Y0044226D01*
X0086859Y0044084D01*
X0086847D01*
X0086663Y0044226D01*
X0086448Y0044315D01*
X0086218Y0044345D01*
X0085988Y0044315D01*
X0085773Y0044226D01*
X0085589Y0044084D01*
X0085577D01*
X0085393Y0044226D01*
X0085178Y0044315D01*
X0085075Y0044328D01*
Y0043455D01*
Y0042582D01*
X0085178Y0042595D01*
X0085393Y0042684D01*
X0085577Y0042826D01*
X0085589D01*
X0085773Y0042684D01*
X0085988Y0042595D01*
X0086218Y0042565D01*
X0086448Y0042595D01*
X0086663Y0042684D01*
X0086847Y0042826D01*
X0086859D01*
X0087043Y0042684D01*
X0087258Y0042595D01*
X0087488Y0042565D01*
X0087718Y0042595D01*
X0087933Y0042684D01*
X0088117Y0042826D01*
X0088129D01*
X0088313Y0042684D01*
X0088528Y0042595D01*
X0088631Y0042582D01*
Y0043455D01*
Y0044328D01*
X0088528Y0044315D01*
X0088313Y0044226D01*
X0088129Y0044084D01*
X0088117D01*
X0087933Y0044226D01*
X0087718Y0044315D01*
X0087488Y0044345D01*
D02*
G37*
G36*
X0065913Y0040868D02*
X0065714Y0040842D01*
X0065410Y0040716D01*
X0065148Y0040516D01*
X0064948Y0040254D01*
X0064822Y0039950D01*
X0064796Y0039751D01*
X0065913D01*
Y0040868D01*
D02*
G37*
G36*
X0078638Y0038103D02*
X0077915D01*
Y0037280D01*
X0078638D01*
Y0038103D01*
D02*
G37*
G36*
X0097386Y0038103D02*
X0096663D01*
Y0037280D01*
X0097386D01*
Y0038103D01*
D02*
G37*
G36*
X0084816Y0041074D02*
X0084617Y0041048D01*
X0084313Y0040922D01*
X0084051Y0040722D01*
X0083851Y0040460D01*
X0083725Y0040156D01*
X0083699Y0039957D01*
X0084816D01*
Y0041074D01*
D02*
G37*
G36*
X0066040Y0060318D02*
X0065779Y0060283D01*
X0065536Y0060182D01*
X0065327Y0060022D01*
X0065166Y0059813D01*
X0065066Y0059570D01*
X0065031Y0059309D01*
X0065066Y0059048D01*
X0065166Y0058805D01*
X0065284Y0058652D01*
Y0045144D01*
X0064477Y0044338D01*
X0064006D01*
Y0043642D01*
X0063103Y0042740D01*
X0062983Y0042583D01*
X0062907Y0042401D01*
X0062882Y0042205D01*
Y0041855D01*
X0062688D01*
Y0040155D01*
Y0039632D01*
X0064588D01*
Y0040155D01*
Y0041855D01*
X0064554D01*
X0064496Y0041994D01*
X0065075Y0042572D01*
X0065771D01*
Y0042572D01*
X0065852Y0042627D01*
X0065928Y0042595D01*
X0066031Y0042582D01*
Y0043455D01*
X0066285D01*
Y0042582D01*
X0066388Y0042595D01*
X0066603Y0042684D01*
X0066787Y0042826D01*
X0066799D01*
X0066983Y0042684D01*
X0067198Y0042595D01*
X0067428Y0042565D01*
X0067658Y0042595D01*
X0067873Y0042684D01*
X0068057Y0042826D01*
X0068069D01*
X0068253Y0042684D01*
X0068468Y0042595D01*
X0068698Y0042565D01*
X0068928Y0042595D01*
X0069143Y0042684D01*
X0069327Y0042826D01*
X0069339D01*
X0069523Y0042684D01*
X0069738Y0042595D01*
X0069841Y0042582D01*
Y0043455D01*
X0070095D01*
Y0042582D01*
X0070198Y0042595D01*
X0070413Y0042684D01*
X0070597Y0042826D01*
X0070609D01*
X0070793Y0042684D01*
X0071008Y0042595D01*
X0071238Y0042565D01*
X0071468Y0042595D01*
X0071683Y0042684D01*
X0071867Y0042826D01*
X0071879D01*
X0072063Y0042684D01*
X0072278Y0042595D01*
X0072508Y0042565D01*
X0072738Y0042595D01*
X0072953Y0042684D01*
X0073137Y0042826D01*
X0073149D01*
X0073333Y0042684D01*
X0073548Y0042595D01*
X0073651Y0042582D01*
Y0043455D01*
X0073905D01*
Y0042582D01*
X0074008Y0042595D01*
X0074223Y0042684D01*
X0074407Y0042826D01*
X0074419D01*
X0074603Y0042684D01*
X0074818Y0042595D01*
X0075048Y0042565D01*
X0075278Y0042595D01*
X0075493Y0042684D01*
X0075677Y0042826D01*
X0075689D01*
X0075873Y0042684D01*
X0076088Y0042595D01*
X0076111Y0042592D01*
X0076610Y0042094D01*
X0076552Y0041955D01*
X0076415D01*
Y0041005D01*
X0076288D01*
Y0040878D01*
X0075438D01*
Y0040380D01*
X0074910D01*
Y0040874D01*
X0072410D01*
Y0040160D01*
X0072263Y0040131D01*
X0072212Y0040254D01*
X0072012Y0040516D01*
X0071750Y0040716D01*
X0071446Y0040842D01*
X0071247Y0040868D01*
Y0039624D01*
Y0038380D01*
X0071446Y0038406D01*
X0071750Y0038532D01*
X0072012Y0038732D01*
X0072212Y0038994D01*
X0072263Y0039117D01*
X0072410Y0039088D01*
Y0038374D01*
X0074910D01*
Y0038868D01*
X0075438D01*
Y0038667D01*
X0075438D01*
Y0037280D01*
X0077661D01*
Y0038230D01*
X0077788D01*
Y0038357D01*
X0078638D01*
Y0039180D01*
X0078638D01*
Y0040055D01*
Y0041955D01*
X0078574D01*
X0078544Y0041985D01*
Y0041985D01*
X0078544D01*
D01*
X0078532Y0042083D01*
X0078519Y0042181D01*
X0078465Y0042310D01*
X0078443Y0042363D01*
X0078323Y0042520D01*
X0077181Y0043662D01*
X0077178Y0043685D01*
X0077089Y0043900D01*
X0077112Y0043948D01*
X0077321D01*
X0077474Y0043831D01*
X0077717Y0043730D01*
X0077978Y0043695D01*
X0078239Y0043730D01*
X0078482Y0043831D01*
X0078635Y0043948D01*
X0081983D01*
X0082467Y0043464D01*
Y0043313D01*
X0081893Y0042740D01*
X0081773Y0042583D01*
X0081697Y0042401D01*
X0081693Y0042371D01*
X0081545Y0042351D01*
X0081519Y0042414D01*
X0081358Y0042623D01*
X0081149Y0042784D01*
X0080906Y0042884D01*
X0080645Y0042919D01*
X0080384Y0042884D01*
X0080141Y0042784D01*
X0079932Y0042623D01*
X0079771Y0042414D01*
X0079671Y0042171D01*
X0079636Y0041910D01*
X0079671Y0041649D01*
X0079771Y0041406D01*
X0079932Y0041197D01*
X0080006Y0041140D01*
Y0039116D01*
X0080006Y0039116D01*
X0080006D01*
X0080054Y0038871D01*
X0080193Y0038664D01*
X0081082Y0037775D01*
X0081289Y0037636D01*
X0081534Y0037588D01*
X0085880D01*
X0086125Y0037636D01*
X0086332Y0037775D01*
X0086332Y0037775D01*
X0086332Y0037775D01*
X0087168Y0038611D01*
X0087483Y0038569D01*
X0087809Y0038612D01*
X0088113Y0038738D01*
X0088375Y0038938D01*
X0088575Y0039200D01*
X0088678Y0039449D01*
X0088828D01*
X0088931Y0039200D01*
X0089131Y0038938D01*
X0089393Y0038738D01*
X0089697Y0038612D01*
X0089896Y0038586D01*
Y0039830D01*
Y0041074D01*
X0089697Y0041048D01*
X0089393Y0040922D01*
X0089131Y0040722D01*
X0088931Y0040460D01*
X0088828Y0040211D01*
X0088678D01*
X0088575Y0040460D01*
X0088375Y0040722D01*
X0088113Y0040922D01*
X0087809Y0041048D01*
X0087483Y0041091D01*
X0087157Y0041048D01*
X0086853Y0040922D01*
X0086591Y0040722D01*
X0086391Y0040460D01*
X0086288Y0040211D01*
X0086138D01*
X0086035Y0040460D01*
X0085835Y0040722D01*
X0085573Y0040922D01*
X0085269Y0041048D01*
X0085070Y0041074D01*
Y0039830D01*
X0084943D01*
Y0039703D01*
X0083699D01*
X0083725Y0039504D01*
X0083851Y0039200D01*
X0084004Y0039001D01*
X0083937Y0038866D01*
X0083373D01*
Y0039382D01*
X0082423D01*
Y0039636D01*
X0083373D01*
Y0040159D01*
Y0041859D01*
X0083348D01*
X0083290Y0041998D01*
X0083865Y0042572D01*
X0084561D01*
Y0042572D01*
X0084642Y0042627D01*
X0084718Y0042595D01*
X0084821Y0042582D01*
Y0043455D01*
Y0044328D01*
X0084718Y0044315D01*
X0084642Y0044283D01*
X0084561Y0044338D01*
Y0044338D01*
X0083732D01*
X0082831Y0045239D01*
X0082674Y0045359D01*
X0082492Y0045435D01*
X0082296Y0045460D01*
X0078635D01*
X0078482Y0045577D01*
X0078239Y0045678D01*
X0077978Y0045713D01*
X0077717Y0045678D01*
X0077474Y0045577D01*
X0077321Y0045460D01*
X0066796D01*
Y0058652D01*
X0066913Y0058805D01*
X0067014Y0059048D01*
X0067049Y0059309D01*
X0067014Y0059570D01*
X0066913Y0059813D01*
X0066753Y0060022D01*
X0066544Y0060182D01*
X0066301Y0060283D01*
X0066040Y0060318D01*
D02*
G37*
G36*
X0094884Y0041955D02*
X0094161D01*
Y0041132D01*
X0094884D01*
Y0041955D01*
D02*
G37*
G36*
X0076161D02*
X0075438D01*
Y0041132D01*
X0076161D01*
Y0041955D01*
D02*
G37*
G36*
X0104223Y0075218D02*
X0103025D01*
Y0074020D01*
X0104223D01*
Y0075218D01*
D02*
G37*
G36*
X0084207Y0088980D02*
X0081984D01*
Y0088030D01*
X0081857D01*
Y0087903D01*
X0081007D01*
Y0087080D01*
X0081007D01*
Y0085680D01*
Y0084305D01*
X0081138D01*
Y0083464D01*
X0081138Y0083464D01*
X0081138D01*
X0081163Y0083268D01*
X0081239Y0083086D01*
X0081359Y0082929D01*
X0081918Y0082370D01*
X0081918Y0082370D01*
X0081996Y0082310D01*
X0082075Y0082250D01*
X0082257Y0082174D01*
X0082453Y0082149D01*
X0082453Y0082149D01*
X0083244D01*
X0083263Y0082134D01*
X0083478Y0082045D01*
X0083708Y0082015D01*
X0083938Y0082045D01*
X0084153Y0082134D01*
X0084337Y0082276D01*
X0084349D01*
X0084533Y0082134D01*
X0084748Y0082045D01*
X0084978Y0082015D01*
X0085208Y0082045D01*
X0085423Y0082134D01*
X0085607Y0082276D01*
X0085619D01*
X0085803Y0082134D01*
X0086018Y0082045D01*
X0086121Y0082032D01*
Y0082905D01*
Y0083778D01*
X0086018Y0083765D01*
X0085803Y0083676D01*
X0085619Y0083534D01*
X0085607D01*
X0085423Y0083676D01*
X0085208Y0083765D01*
X0084978Y0083795D01*
X0084748Y0083765D01*
X0084533Y0083676D01*
X0084349Y0083534D01*
X0084337D01*
X0084153Y0083676D01*
X0083938Y0083765D01*
X0083708Y0083795D01*
X0083478Y0083765D01*
X0083263Y0083676D01*
X0083244Y0083661D01*
X0082766D01*
X0082650Y0083777D01*
Y0084305D01*
X0083230D01*
Y0085255D01*
X0083357D01*
Y0085382D01*
X0084207D01*
Y0085680D01*
Y0085899D01*
X0084988D01*
Y0085405D01*
X0087488D01*
Y0086118D01*
X0087635Y0086148D01*
X0087686Y0086025D01*
X0087886Y0085763D01*
X0088148Y0085563D01*
X0088452Y0085437D01*
X0088651Y0085411D01*
Y0086655D01*
Y0087899D01*
X0088452Y0087873D01*
X0088148Y0087747D01*
X0087886Y0087547D01*
X0087686Y0087285D01*
X0087635Y0087162D01*
X0087488Y0087191D01*
Y0087905D01*
X0084988D01*
Y0087411D01*
X0084207D01*
Y0087580D01*
X0084207D01*
Y0088980D01*
D02*
G37*
G36*
X0095102Y0086528D02*
X0093985D01*
Y0085411D01*
X0094184Y0085437D01*
X0094488Y0085563D01*
X0094750Y0085763D01*
X0094950Y0086025D01*
X0095076Y0086329D01*
X0095102Y0086528D01*
D02*
G37*
G36*
X0065444Y0088980D02*
X0063221D01*
Y0088030D01*
X0063094D01*
Y0087903D01*
X0062244D01*
Y0087580D01*
X0062244D01*
Y0085680D01*
X0062269D01*
Y0084305D01*
X0062338D01*
Y0083464D01*
X0062363Y0083268D01*
X0062417Y0083139D01*
X0062439Y0083086D01*
X0062559Y0082929D01*
X0063118Y0082370D01*
X0063118Y0082370D01*
X0063275Y0082250D01*
D01*
D01*
Y0082250D01*
X0063275Y0082250D01*
D01*
D01*
X0063275D01*
Y0082250D01*
D01*
X0063275D01*
Y0082250D01*
X0063457Y0082174D01*
X0063653Y0082149D01*
X0063653Y0082149D01*
X0064454D01*
X0064473Y0082134D01*
X0064688Y0082045D01*
X0064918Y0082015D01*
X0065148Y0082045D01*
X0065363Y0082134D01*
X0065547Y0082276D01*
X0065559D01*
X0065743Y0082134D01*
X0065958Y0082045D01*
X0066188Y0082015D01*
X0066418Y0082045D01*
X0066633Y0082134D01*
X0066817Y0082276D01*
X0066829D01*
X0067013Y0082134D01*
X0067228Y0082045D01*
X0067331Y0082032D01*
Y0082905D01*
Y0083778D01*
X0067228Y0083765D01*
X0067013Y0083676D01*
X0066829Y0083534D01*
X0066817D01*
X0066633Y0083676D01*
X0066418Y0083765D01*
X0066188Y0083795D01*
X0065958Y0083765D01*
X0065743Y0083676D01*
X0065559Y0083534D01*
X0065547D01*
X0065363Y0083676D01*
X0065148Y0083765D01*
X0064918Y0083795D01*
X0064688Y0083765D01*
X0064473Y0083676D01*
X0064454Y0083661D01*
X0063966D01*
X0063850Y0083777D01*
Y0084305D01*
X0064492D01*
Y0085255D01*
X0064619D01*
Y0085382D01*
X0065469D01*
Y0085899D01*
X0066188D01*
Y0085405D01*
X0068688D01*
Y0086118D01*
X0068835Y0086148D01*
X0068886Y0086025D01*
X0069086Y0085763D01*
X0069348Y0085563D01*
X0069652Y0085437D01*
X0069851Y0085411D01*
Y0086655D01*
Y0087899D01*
X0069652Y0087873D01*
X0069348Y0087747D01*
X0069086Y0087547D01*
X0068886Y0087285D01*
X0068835Y0087162D01*
X0068688Y0087191D01*
Y0087905D01*
X0066188D01*
Y0087411D01*
X0065444D01*
Y0088980D01*
D02*
G37*
G36*
X0076302Y0086528D02*
X0075185D01*
Y0085411D01*
X0075384Y0085437D01*
X0075688Y0085563D01*
X0075950Y0085763D01*
X0076150Y0086025D01*
X0076276Y0086329D01*
X0076302Y0086528D01*
D02*
G37*
G36*
X0062967Y0088980D02*
X0062244D01*
Y0088157D01*
X0062967D01*
Y0088980D01*
D02*
G37*
G36*
X0081730D02*
X0081007D01*
Y0088157D01*
X0081730D01*
Y0088980D01*
D02*
G37*
G36*
X0096111Y0087580D02*
X0095288D01*
Y0086857D01*
X0096111D01*
Y0087580D01*
D02*
G37*
G36*
X0097028Y0089158D02*
X0093182D01*
X0092937Y0089110D01*
X0092730Y0088971D01*
X0091633Y0087874D01*
X0091318Y0087916D01*
X0090992Y0087873D01*
X0090688Y0087747D01*
X0090426Y0087547D01*
X0090226Y0087285D01*
X0090123Y0087036D01*
X0089973D01*
X0089870Y0087285D01*
X0089670Y0087547D01*
X0089408Y0087747D01*
X0089104Y0087873D01*
X0088905Y0087899D01*
Y0086655D01*
Y0085411D01*
X0089104Y0085437D01*
X0089408Y0085563D01*
X0089670Y0085763D01*
X0089870Y0086025D01*
X0089973Y0086274D01*
X0090123D01*
X0090226Y0086025D01*
X0090426Y0085763D01*
X0090688Y0085563D01*
X0090992Y0085437D01*
X0091318Y0085394D01*
X0091644Y0085437D01*
X0091948Y0085563D01*
X0092210Y0085763D01*
X0092410Y0086025D01*
X0092513Y0086274D01*
X0092663D01*
X0092766Y0086025D01*
X0092966Y0085763D01*
X0093228Y0085563D01*
X0093532Y0085437D01*
X0093731Y0085411D01*
Y0086655D01*
X0093858D01*
Y0086782D01*
X0095102D01*
X0095076Y0086981D01*
X0094950Y0087285D01*
X0094750Y0087547D01*
X0094488Y0087747D01*
X0094184Y0087873D01*
Y0087873D01*
X0094185Y0087880D01*
X0096763D01*
X0096924Y0087719D01*
X0096867Y0087580D01*
X0096365D01*
Y0086857D01*
X0097188D01*
Y0087259D01*
X0097327Y0087316D01*
X0097532Y0087111D01*
Y0065035D01*
X0097327Y0064830D01*
X0094288D01*
Y0064830D01*
X0092482D01*
X0092390Y0064967D01*
X0090946Y0066411D01*
X0090918Y0066625D01*
X0090829Y0066840D01*
X0090687Y0067024D01*
X0090503Y0067166D01*
X0090288Y0067255D01*
X0090058Y0067285D01*
X0089828Y0067255D01*
X0089613Y0067166D01*
X0089429Y0067024D01*
X0089417D01*
X0089233Y0067166D01*
X0089018Y0067255D01*
X0088788Y0067285D01*
X0088558Y0067255D01*
X0088343Y0067166D01*
X0088159Y0067024D01*
X0088147D01*
X0087963Y0067166D01*
X0087748Y0067255D01*
X0087518Y0067285D01*
X0087288Y0067255D01*
X0087073Y0067166D01*
X0086889Y0067024D01*
X0086877D01*
X0086693Y0067166D01*
X0086478Y0067255D01*
X0086248Y0067285D01*
X0086018Y0067255D01*
X0085803Y0067166D01*
X0085619Y0067024D01*
X0085607D01*
X0085423Y0067166D01*
X0085208Y0067255D01*
X0084978Y0067285D01*
X0084748Y0067255D01*
X0084533Y0067166D01*
X0084349Y0067024D01*
X0084337D01*
X0084153Y0067166D01*
X0083938Y0067255D01*
X0083708Y0067285D01*
X0083478Y0067255D01*
X0083263Y0067166D01*
X0083079Y0067024D01*
X0083049Y0066986D01*
X0082899D01*
X0082882Y0067007D01*
X0082673Y0067168D01*
X0082430Y0067268D01*
X0082169Y0067303D01*
X0082108Y0067383D01*
X0082127Y0067430D01*
X0082162Y0067691D01*
X0082127Y0067952D01*
X0082026Y0068195D01*
X0081866Y0068404D01*
X0081657Y0068564D01*
X0081414Y0068665D01*
X0081153Y0068700D01*
X0080892Y0068665D01*
X0080649Y0068564D01*
X0080440Y0068404D01*
X0080280Y0068195D01*
X0080179Y0067952D01*
X0080144Y0067691D01*
X0080179Y0067430D01*
X0080255Y0067245D01*
X0080149Y0067139D01*
X0080144Y0067141D01*
X0079883Y0067176D01*
X0079622Y0067141D01*
X0079379Y0067040D01*
X0079170Y0066880D01*
X0079113Y0066806D01*
X0076465D01*
X0075681Y0067590D01*
X0075747Y0067725D01*
X0075946Y0067698D01*
X0076207Y0067733D01*
X0076450Y0067834D01*
X0076659Y0067994D01*
X0076717Y0068070D01*
X0076953Y0068116D01*
X0077160Y0068255D01*
X0077160Y0068255D01*
X0077160Y0068255D01*
X0079954Y0071049D01*
X0080093Y0071256D01*
X0080141Y0071501D01*
Y0087245D01*
X0080093Y0087490D01*
X0079954Y0087697D01*
X0078680Y0088971D01*
X0078473Y0089110D01*
X0078228Y0089158D01*
X0074422D01*
X0074177Y0089110D01*
X0073970Y0088971D01*
X0072864Y0087865D01*
X0072844Y0087873D01*
X0072518Y0087916D01*
X0072192Y0087873D01*
X0071888Y0087747D01*
X0071626Y0087547D01*
X0071426Y0087285D01*
X0071323Y0087036D01*
X0071173D01*
X0071070Y0087285D01*
X0070870Y0087547D01*
X0070608Y0087747D01*
X0070304Y0087873D01*
X0070105Y0087899D01*
Y0086655D01*
Y0085411D01*
X0070304Y0085437D01*
X0070608Y0085563D01*
X0070870Y0085763D01*
X0071070Y0086025D01*
X0071173Y0086274D01*
X0071323D01*
X0071426Y0086025D01*
X0071626Y0085763D01*
X0071888Y0085563D01*
X0072192Y0085437D01*
X0072518Y0085394D01*
X0072844Y0085437D01*
X0073148Y0085563D01*
X0073410Y0085763D01*
X0073610Y0086025D01*
X0073713Y0086274D01*
X0073863D01*
X0073966Y0086025D01*
X0074166Y0085763D01*
X0074428Y0085563D01*
X0074732Y0085437D01*
X0074931Y0085411D01*
Y0086655D01*
X0075058D01*
Y0086782D01*
X0076302D01*
X0076319Y0086655D01*
X0076313Y0086614D01*
X0076463Y0086604D01*
Y0086857D01*
X0078363D01*
Y0087284D01*
X0078502Y0087341D01*
X0078863Y0086980D01*
Y0073585D01*
X0078738Y0073502D01*
X0078735Y0073503D01*
X0078474Y0073538D01*
X0078213Y0073503D01*
X0077970Y0073402D01*
X0077761Y0073242D01*
X0077704Y0073168D01*
X0076323D01*
X0076266Y0073242D01*
X0076057Y0073402D01*
X0075814Y0073503D01*
X0075553Y0073538D01*
X0075292Y0073503D01*
X0075049Y0073402D01*
X0074932Y0073313D01*
X0074797Y0073379D01*
Y0075162D01*
X0074914Y0075315D01*
X0075015Y0075558D01*
X0075050Y0075819D01*
X0075015Y0076080D01*
X0074914Y0076323D01*
X0074754Y0076532D01*
X0074545Y0076692D01*
X0074302Y0076793D01*
X0074041Y0076828D01*
X0073780Y0076793D01*
X0073537Y0076692D01*
X0073328Y0076532D01*
X0073168Y0076323D01*
X0073067Y0076080D01*
X0073032Y0075819D01*
X0073067Y0075558D01*
X0073168Y0075315D01*
X0073285Y0075162D01*
Y0069909D01*
X0072585Y0069209D01*
X0065083D01*
X0061043Y0073250D01*
Y0075218D01*
X0058393D01*
Y0074720D01*
X0058251Y0074672D01*
X0058123Y0074838D01*
X0057846Y0075051D01*
X0057524Y0075184D01*
X0057178Y0075230D01*
X0056832Y0075184D01*
X0056510Y0075051D01*
X0056233Y0074838D01*
X0056021Y0074562D01*
X0055887Y0074239D01*
X0055842Y0073893D01*
X0055887Y0073548D01*
X0056021Y0073225D01*
X0056233Y0072948D01*
X0056510Y0072736D01*
X0056601Y0072698D01*
Y0072548D01*
X0056510Y0072511D01*
X0056233Y0072298D01*
X0056021Y0072022D01*
X0055887Y0071699D01*
X0055842Y0071353D01*
X0055887Y0071008D01*
X0056021Y0070685D01*
X0056233Y0070408D01*
X0056510Y0070196D01*
X0056601Y0070158D01*
Y0070008D01*
X0056510Y0069971D01*
X0056233Y0069758D01*
X0056021Y0069482D01*
X0055887Y0069159D01*
X0055842Y0068813D01*
X0055887Y0068468D01*
X0056021Y0068145D01*
X0056233Y0067868D01*
X0056510Y0067656D01*
X0056601Y0067618D01*
Y0067468D01*
X0056510Y0067431D01*
X0056233Y0067218D01*
X0056021Y0066942D01*
X0055887Y0066619D01*
X0055842Y0066273D01*
X0055887Y0065928D01*
X0056021Y0065605D01*
X0056233Y0065328D01*
X0056510Y0065116D01*
X0056601Y0065078D01*
Y0064928D01*
X0056510Y0064891D01*
X0056233Y0064678D01*
X0056021Y0064402D01*
X0055887Y0064079D01*
X0055842Y0063733D01*
X0055887Y0063388D01*
X0056021Y0063065D01*
X0056233Y0062788D01*
X0056510Y0062576D01*
X0056601Y0062538D01*
Y0062388D01*
X0056510Y0062351D01*
X0056233Y0062138D01*
X0056021Y0061862D01*
X0055887Y0061539D01*
X0055842Y0061193D01*
X0055887Y0060848D01*
X0056021Y0060525D01*
X0056233Y0060248D01*
X0056510Y0060036D01*
X0056601Y0059998D01*
Y0059848D01*
X0056510Y0059811D01*
X0056233Y0059598D01*
X0056021Y0059322D01*
X0055887Y0058999D01*
X0055842Y0058653D01*
X0055887Y0058308D01*
X0056021Y0057985D01*
X0056233Y0057708D01*
X0056510Y0057496D01*
X0056601Y0057458D01*
Y0057308D01*
X0056510Y0057271D01*
X0056233Y0057058D01*
X0056021Y0056782D01*
X0055887Y0056459D01*
X0055842Y0056113D01*
X0055887Y0055768D01*
X0056021Y0055445D01*
X0056233Y0055168D01*
X0056510Y0054956D01*
X0056601Y0054918D01*
Y0054768D01*
X0056510Y0054731D01*
X0056233Y0054518D01*
X0056021Y0054242D01*
X0055887Y0053919D01*
X0055842Y0053573D01*
X0055887Y0053228D01*
X0056021Y0052905D01*
X0056233Y0052628D01*
X0056510Y0052416D01*
X0056601Y0052378D01*
Y0052228D01*
X0056510Y0052191D01*
X0056233Y0051978D01*
X0056021Y0051702D01*
X0055887Y0051379D01*
X0055842Y0051033D01*
X0055887Y0050688D01*
X0056021Y0050365D01*
X0056233Y0050088D01*
X0056510Y0049876D01*
X0056832Y0049743D01*
X0057178Y0049697D01*
X0057524Y0049743D01*
X0057846Y0049876D01*
X0058123Y0050088D01*
X0058335Y0050365D01*
X0058373Y0050456D01*
X0058523D01*
X0058561Y0050365D01*
X0058773Y0050088D01*
X0059050Y0049876D01*
X0059372Y0049743D01*
X0059718Y0049697D01*
X0060064Y0049743D01*
X0060386Y0049876D01*
X0060663Y0050088D01*
X0060875Y0050365D01*
X0061009Y0050688D01*
X0061054Y0051033D01*
X0061009Y0051379D01*
X0060875Y0051702D01*
X0060663Y0051978D01*
X0060386Y0052191D01*
X0060295Y0052228D01*
Y0052378D01*
X0060386Y0052416D01*
X0060663Y0052628D01*
X0060875Y0052905D01*
X0061009Y0053228D01*
X0061054Y0053573D01*
X0061009Y0053919D01*
X0060875Y0054242D01*
X0060663Y0054518D01*
X0060386Y0054731D01*
X0060295Y0054768D01*
Y0054918D01*
X0060386Y0054956D01*
X0060663Y0055168D01*
X0060875Y0055445D01*
X0061009Y0055768D01*
X0061054Y0056113D01*
X0061009Y0056459D01*
X0060875Y0056782D01*
X0060663Y0057058D01*
X0060386Y0057271D01*
X0060295Y0057308D01*
Y0057458D01*
X0060386Y0057496D01*
X0060663Y0057708D01*
X0060875Y0057985D01*
X0061009Y0058308D01*
X0061054Y0058653D01*
X0061009Y0058999D01*
X0060875Y0059322D01*
X0060663Y0059598D01*
X0060386Y0059811D01*
X0060295Y0059848D01*
Y0059998D01*
X0060386Y0060036D01*
X0060663Y0060248D01*
X0060875Y0060525D01*
X0061009Y0060848D01*
X0061054Y0061193D01*
X0061009Y0061539D01*
X0060875Y0061862D01*
X0060663Y0062138D01*
X0060386Y0062351D01*
X0060295Y0062388D01*
Y0062538D01*
X0060386Y0062576D01*
X0060663Y0062788D01*
X0060875Y0063065D01*
X0061009Y0063388D01*
X0061054Y0063733D01*
X0061009Y0064079D01*
X0060875Y0064402D01*
X0060663Y0064678D01*
X0060386Y0064891D01*
X0060295Y0064928D01*
Y0065078D01*
X0060386Y0065116D01*
X0060663Y0065328D01*
X0060875Y0065605D01*
X0061009Y0065928D01*
X0061054Y0066273D01*
X0061009Y0066619D01*
X0060875Y0066942D01*
X0060663Y0067218D01*
X0060386Y0067431D01*
X0060295Y0067468D01*
Y0067618D01*
X0060386Y0067656D01*
X0060663Y0067868D01*
X0060875Y0068145D01*
X0061009Y0068468D01*
X0061054Y0068813D01*
X0061009Y0069159D01*
X0060934Y0069340D01*
X0061017Y0069465D01*
X0061203D01*
X0063683Y0066985D01*
X0063890Y0066846D01*
X0064014Y0066822D01*
X0064085Y0066689D01*
X0064058Y0066625D01*
X0064028Y0066395D01*
X0064058Y0066165D01*
X0064147Y0065950D01*
X0064289Y0065766D01*
X0064473Y0065624D01*
X0064688Y0065535D01*
X0064918Y0065505D01*
X0065148Y0065535D01*
X0065363Y0065624D01*
X0065547Y0065766D01*
X0065559D01*
X0065743Y0065624D01*
X0065958Y0065535D01*
X0066188Y0065505D01*
X0066418Y0065535D01*
X0066633Y0065624D01*
X0066817Y0065766D01*
X0066829D01*
X0067013Y0065624D01*
X0067228Y0065535D01*
X0067458Y0065505D01*
X0067688Y0065535D01*
X0067903Y0065624D01*
X0068087Y0065766D01*
X0068099D01*
X0068283Y0065624D01*
X0068498Y0065535D01*
X0068728Y0065505D01*
X0068958Y0065535D01*
X0069173Y0065624D01*
X0069357Y0065766D01*
X0069369D01*
X0069553Y0065624D01*
X0069768Y0065535D01*
X0069998Y0065505D01*
X0070228Y0065535D01*
X0070443Y0065624D01*
X0070627Y0065766D01*
X0070639D01*
X0070823Y0065624D01*
X0071038Y0065535D01*
X0071240Y0065509D01*
X0072259Y0064490D01*
Y0062930D01*
Y0062607D01*
X0073109D01*
Y0062480D01*
X0073236D01*
Y0061530D01*
X0075459D01*
Y0062930D01*
X0078434D01*
Y0064830D01*
X0078052D01*
X0078036Y0064854D01*
X0077501Y0065389D01*
X0077558Y0065528D01*
X0079113D01*
X0079170Y0065454D01*
X0079379Y0065294D01*
X0079622Y0065193D01*
X0079883Y0065158D01*
X0080144Y0065193D01*
X0080387Y0065294D01*
X0080514Y0065231D01*
Y0064019D01*
X0077081Y0060586D01*
X0076947Y0060594D01*
X0076763Y0060736D01*
X0076548Y0060825D01*
X0076318Y0060855D01*
X0076088Y0060825D01*
X0075873Y0060736D01*
X0075689Y0060594D01*
X0075677D01*
X0075493Y0060736D01*
X0075278Y0060825D01*
X0075048Y0060855D01*
X0074818Y0060825D01*
X0074603Y0060736D01*
X0074419Y0060594D01*
X0074407D01*
X0074223Y0060736D01*
X0074008Y0060825D01*
X0073778Y0060855D01*
X0073548Y0060825D01*
X0073333Y0060736D01*
X0073149Y0060594D01*
X0073137D01*
X0072953Y0060736D01*
X0072738Y0060825D01*
X0072508Y0060855D01*
X0072278Y0060825D01*
X0072063Y0060736D01*
X0071879Y0060594D01*
X0071867D01*
X0071683Y0060736D01*
X0071468Y0060825D01*
X0071238Y0060855D01*
X0071008Y0060825D01*
X0070793Y0060736D01*
X0070609Y0060594D01*
X0070597D01*
X0070413Y0060736D01*
X0070198Y0060825D01*
X0069973Y0060855D01*
X0069213Y0061614D01*
Y0062930D01*
Y0063753D01*
X0068363D01*
Y0063880D01*
X0068236D01*
Y0064830D01*
X0066013D01*
Y0063430D01*
X0063038D01*
Y0062534D01*
X0061393Y0060889D01*
X0061254Y0060682D01*
X0061206Y0060437D01*
Y0039116D01*
X0061206Y0039116D01*
X0061206D01*
X0061254Y0038871D01*
X0061393Y0038664D01*
X0062282Y0037775D01*
X0062489Y0037636D01*
X0062734Y0037588D01*
X0067080D01*
X0067325Y0037636D01*
X0067532Y0037775D01*
X0067532Y0037775D01*
X0067532Y0037775D01*
X0068190Y0038433D01*
X0068254Y0038406D01*
X0068580Y0038363D01*
X0068906Y0038406D01*
X0069210Y0038532D01*
X0069472Y0038732D01*
X0069672Y0038994D01*
X0069775Y0039243D01*
X0069925D01*
X0070028Y0038994D01*
X0070228Y0038732D01*
X0070490Y0038532D01*
X0070794Y0038406D01*
X0070993Y0038380D01*
Y0039624D01*
Y0040868D01*
X0070794Y0040842D01*
X0070490Y0040716D01*
X0070228Y0040516D01*
X0070028Y0040254D01*
X0069925Y0040005D01*
X0069775D01*
X0069672Y0040254D01*
X0069472Y0040516D01*
X0069210Y0040716D01*
X0068906Y0040842D01*
X0068580Y0040885D01*
X0068254Y0040842D01*
X0067950Y0040716D01*
X0067688Y0040516D01*
X0067488Y0040254D01*
X0067385Y0040005D01*
X0067235D01*
X0067132Y0040254D01*
X0066932Y0040516D01*
X0066670Y0040716D01*
X0066366Y0040842D01*
X0066167Y0040868D01*
Y0039624D01*
X0066040D01*
Y0039497D01*
X0064796D01*
X0064822Y0039298D01*
X0064948Y0038994D01*
X0064885Y0038866D01*
X0064588D01*
Y0039378D01*
X0062688D01*
Y0039373D01*
X0062609Y0039340D01*
X0062484Y0039424D01*
Y0060172D01*
X0063842Y0061530D01*
X0066013D01*
Y0061530D01*
X0067690D01*
X0067722Y0061365D01*
X0067861Y0061158D01*
X0069082Y0059937D01*
X0069108Y0059735D01*
X0069197Y0059520D01*
X0069339Y0059336D01*
X0069523Y0059194D01*
X0069738Y0059105D01*
X0069968Y0059075D01*
X0070198Y0059105D01*
X0070413Y0059194D01*
X0070597Y0059336D01*
X0070609D01*
X0070793Y0059194D01*
X0071008Y0059105D01*
X0071238Y0059075D01*
X0071468Y0059105D01*
X0071683Y0059194D01*
X0071867Y0059336D01*
X0071879D01*
X0072063Y0059194D01*
X0072278Y0059105D01*
X0072508Y0059075D01*
X0072738Y0059105D01*
X0072953Y0059194D01*
X0073137Y0059336D01*
X0073149D01*
X0073333Y0059194D01*
X0073548Y0059105D01*
X0073778Y0059075D01*
X0074008Y0059105D01*
X0074223Y0059194D01*
X0074407Y0059336D01*
X0074419D01*
X0074603Y0059194D01*
X0074818Y0059105D01*
X0075048Y0059075D01*
X0075278Y0059105D01*
X0075493Y0059194D01*
X0075677Y0059336D01*
X0075689D01*
X0075873Y0059194D01*
X0076088Y0059105D01*
X0076318Y0059075D01*
X0076548Y0059105D01*
X0076579Y0059118D01*
X0076704Y0059035D01*
Y0053332D01*
X0076447Y0053298D01*
X0076204Y0053197D01*
X0076101Y0053119D01*
X0075946Y0053099D01*
X0075896Y0053112D01*
X0075803Y0053336D01*
X0075643Y0053545D01*
X0075569Y0053602D01*
Y0054221D01*
X0075643Y0054278D01*
X0075803Y0054487D01*
X0075904Y0054730D01*
X0075939Y0054991D01*
X0075904Y0055252D01*
X0075803Y0055495D01*
X0075643Y0055704D01*
X0075434Y0055864D01*
X0075191Y0055965D01*
X0074930Y0056000D01*
X0074669Y0055965D01*
X0074426Y0055864D01*
X0074217Y0055704D01*
X0074057Y0055495D01*
X0073956Y0055252D01*
X0073921Y0054991D01*
X0073956Y0054730D01*
X0074057Y0054487D01*
X0074217Y0054278D01*
X0074291Y0054221D01*
Y0053602D01*
X0074217Y0053545D01*
X0074057Y0053336D01*
X0073956Y0053093D01*
X0073921Y0052832D01*
X0073956Y0052571D01*
X0074057Y0052328D01*
X0074210Y0052128D01*
X0074172Y0052095D01*
X0074155Y0052080D01*
X0074050Y0052076D01*
X0072497Y0053629D01*
X0072510Y0053721D01*
X0072475Y0053982D01*
X0072374Y0054225D01*
X0072214Y0054434D01*
X0072005Y0054595D01*
X0071762Y0054695D01*
X0071501Y0054730D01*
X0071240Y0054695D01*
X0070997Y0054595D01*
X0070788Y0054434D01*
X0070628Y0054225D01*
X0070527Y0053982D01*
X0070492Y0053721D01*
X0070496Y0053695D01*
X0070404Y0053576D01*
X0070224Y0053552D01*
X0069981Y0053451D01*
X0069772Y0053291D01*
X0069612Y0053082D01*
X0069511Y0052839D01*
X0069476Y0052578D01*
X0069511Y0052317D01*
X0069612Y0052074D01*
X0069772Y0051865D01*
X0069981Y0051704D01*
X0070224Y0051604D01*
X0070485Y0051569D01*
X0070577Y0051582D01*
X0075367Y0046792D01*
X0075367Y0046792D01*
X0075367D01*
X0075367Y0046792D01*
X0075367D01*
X0075367Y0046792D01*
Y0046792D01*
Y0046792D01*
D01*
D01*
X0075367D01*
Y0046792D01*
X0075574Y0046653D01*
X0075819Y0046605D01*
X0090551D01*
X0090796Y0046653D01*
X0091003Y0046792D01*
X0092781Y0048570D01*
X0092920Y0048777D01*
X0092966Y0049013D01*
X0093042Y0049071D01*
X0093202Y0049280D01*
X0093303Y0049523D01*
X0093338Y0049784D01*
X0093303Y0050045D01*
X0093202Y0050288D01*
X0093042Y0050497D01*
X0092833Y0050658D01*
X0092590Y0050758D01*
X0092329Y0050793D01*
X0092303Y0050789D01*
X0092184Y0050881D01*
X0092160Y0051061D01*
X0092060Y0051304D01*
X0091899Y0051513D01*
X0091690Y0051674D01*
X0091447Y0051774D01*
X0091186Y0051809D01*
X0090925Y0051774D01*
X0090682Y0051674D01*
X0090473Y0051513D01*
X0090312Y0051304D01*
X0090212Y0051061D01*
X0090177Y0050800D01*
X0090212Y0050539D01*
X0090312Y0050296D01*
X0090473Y0050087D01*
X0090547Y0050030D01*
Y0049795D01*
X0089397Y0048645D01*
X0083051D01*
X0082967Y0048770D01*
X0083016Y0048888D01*
X0083051Y0049149D01*
X0083016Y0049410D01*
X0082915Y0049653D01*
X0082755Y0049862D01*
X0082681Y0049919D01*
Y0061505D01*
X0084763D01*
Y0061505D01*
X0086495D01*
X0086522Y0061365D01*
X0086661Y0061158D01*
X0087870Y0059949D01*
X0087898Y0059735D01*
X0087987Y0059520D01*
X0088129Y0059336D01*
X0088313Y0059194D01*
X0088528Y0059105D01*
X0088758Y0059075D01*
X0088988Y0059105D01*
X0089203Y0059194D01*
X0089387Y0059336D01*
X0089399D01*
X0089583Y0059194D01*
X0089798Y0059105D01*
X0090028Y0059075D01*
X0090258Y0059105D01*
X0090473Y0059194D01*
X0090657Y0059336D01*
X0090669D01*
X0090853Y0059194D01*
X0091068Y0059105D01*
X0091298Y0059075D01*
X0091528Y0059105D01*
X0091743Y0059194D01*
X0091927Y0059336D01*
X0091939D01*
X0092123Y0059194D01*
X0092338Y0059105D01*
X0092568Y0059075D01*
X0092798Y0059105D01*
X0093013Y0059194D01*
X0093197Y0059336D01*
X0093209D01*
X0093393Y0059194D01*
X0093608Y0059105D01*
X0093838Y0059075D01*
X0094068Y0059105D01*
X0094283Y0059194D01*
X0094467Y0059336D01*
X0094479D01*
X0094663Y0059194D01*
X0094878Y0059105D01*
X0095108Y0059075D01*
X0095338Y0059105D01*
X0095553Y0059194D01*
X0095737Y0059336D01*
X0095879Y0059520D01*
X0095968Y0059735D01*
X0095998Y0059965D01*
X0095968Y0060195D01*
X0095879Y0060410D01*
X0095737Y0060594D01*
X0095553Y0060736D01*
X0095338Y0060825D01*
X0095108Y0060855D01*
X0094878Y0060825D01*
X0094663Y0060736D01*
X0094479Y0060594D01*
X0094467D01*
X0094283Y0060736D01*
X0094068Y0060825D01*
X0093838Y0060855D01*
X0093608Y0060825D01*
X0093393Y0060736D01*
X0093209Y0060594D01*
X0093197D01*
X0093013Y0060736D01*
X0092798Y0060825D01*
X0092568Y0060855D01*
X0092338Y0060825D01*
X0092123Y0060736D01*
X0091939Y0060594D01*
X0091927D01*
X0091743Y0060736D01*
X0091528Y0060825D01*
X0091298Y0060855D01*
X0091068Y0060825D01*
X0090853Y0060736D01*
X0090669Y0060594D01*
X0090657D01*
X0090473Y0060736D01*
X0090258Y0060825D01*
X0090028Y0060855D01*
X0089798Y0060825D01*
X0089583Y0060736D01*
X0089399Y0060594D01*
X0089387D01*
X0089203Y0060736D01*
X0088988Y0060825D01*
X0088774Y0060853D01*
X0087963Y0061664D01*
Y0062905D01*
X0088013D01*
Y0063728D01*
X0087163D01*
Y0063855D01*
X0087036D01*
Y0064805D01*
X0084813D01*
Y0063405D01*
X0082886D01*
X0082808Y0063500D01*
Y0065524D01*
X0082882Y0065581D01*
X0082946Y0065664D01*
X0083008Y0065712D01*
X0083128Y0065727D01*
X0083263Y0065624D01*
X0083478Y0065535D01*
X0083708Y0065505D01*
X0083938Y0065535D01*
X0084153Y0065624D01*
X0084337Y0065766D01*
X0084349D01*
X0084533Y0065624D01*
X0084748Y0065535D01*
X0084978Y0065505D01*
X0085208Y0065535D01*
X0085423Y0065624D01*
X0085607Y0065766D01*
X0085619D01*
X0085803Y0065624D01*
X0086018Y0065535D01*
X0086248Y0065505D01*
X0086478Y0065535D01*
X0086693Y0065624D01*
X0086877Y0065766D01*
X0086889D01*
X0087073Y0065624D01*
X0087288Y0065535D01*
X0087518Y0065505D01*
X0087748Y0065535D01*
X0087963Y0065624D01*
X0088147Y0065766D01*
X0088159D01*
X0088343Y0065624D01*
X0088558Y0065535D01*
X0088788Y0065505D01*
X0089018Y0065535D01*
X0089233Y0065624D01*
X0089417Y0065766D01*
X0089429D01*
X0089613Y0065624D01*
X0089828Y0065535D01*
X0090042Y0065507D01*
X0091088Y0064461D01*
Y0062930D01*
Y0062607D01*
X0091938D01*
Y0062480D01*
X0092065D01*
Y0061530D01*
X0094288D01*
Y0062930D01*
X0097463D01*
Y0063277D01*
X0097526Y0063289D01*
X0097733Y0063428D01*
X0098623Y0064318D01*
X0098762Y0064525D01*
X0098810Y0064770D01*
Y0087376D01*
X0098762Y0087621D01*
X0098623Y0087828D01*
X0097480Y0088971D01*
X0097273Y0089110D01*
X0097028Y0089158D01*
D02*
G37*
G36*
X0088788Y0083795D02*
X0088558Y0083765D01*
X0088343Y0083676D01*
X0088159Y0083534D01*
X0088147D01*
X0087963Y0083676D01*
X0087748Y0083765D01*
X0087518Y0083795D01*
X0087288Y0083765D01*
X0087073Y0083676D01*
X0086889Y0083534D01*
X0086877D01*
X0086693Y0083676D01*
X0086478Y0083765D01*
X0086375Y0083778D01*
Y0082905D01*
Y0082032D01*
X0086478Y0082045D01*
X0086693Y0082134D01*
X0086877Y0082276D01*
X0086889D01*
X0087073Y0082134D01*
X0087288Y0082045D01*
X0087518Y0082015D01*
X0087748Y0082045D01*
X0087963Y0082134D01*
X0088147Y0082276D01*
X0088159D01*
X0088343Y0082134D01*
X0088558Y0082045D01*
X0088788Y0082015D01*
X0089018Y0082045D01*
X0089233Y0082134D01*
X0089417Y0082276D01*
X0089429D01*
X0089613Y0082134D01*
X0089828Y0082045D01*
X0089931Y0082032D01*
Y0082905D01*
Y0083778D01*
X0089828Y0083765D01*
X0089613Y0083676D01*
X0089429Y0083534D01*
X0089417D01*
X0089233Y0083676D01*
X0089018Y0083765D01*
X0088788Y0083795D01*
D02*
G37*
G36*
X0092598D02*
X0092368Y0083765D01*
X0092153Y0083676D01*
X0091969Y0083534D01*
X0091957D01*
X0091773Y0083676D01*
X0091558Y0083765D01*
X0091328Y0083795D01*
X0091098Y0083765D01*
X0090883Y0083676D01*
X0090699Y0083534D01*
X0090687D01*
X0090503Y0083676D01*
X0090288Y0083765D01*
X0090185Y0083778D01*
Y0082905D01*
Y0082032D01*
X0090288Y0082045D01*
X0090503Y0082134D01*
X0090687Y0082276D01*
X0090699D01*
X0090883Y0082134D01*
X0091098Y0082045D01*
X0091328Y0082015D01*
X0091558Y0082045D01*
X0091773Y0082134D01*
X0091957Y0082276D01*
X0091969D01*
X0092153Y0082134D01*
X0092368Y0082045D01*
X0092598Y0082015D01*
X0092828Y0082045D01*
X0093043Y0082134D01*
X0093227Y0082276D01*
X0093239D01*
X0093423Y0082134D01*
X0093638Y0082045D01*
X0093741Y0082032D01*
Y0082905D01*
Y0083778D01*
X0093638Y0083765D01*
X0093423Y0083676D01*
X0093239Y0083534D01*
X0093227D01*
X0093043Y0083676D01*
X0092828Y0083765D01*
X0092598Y0083795D01*
D02*
G37*
G36*
X0069998D02*
X0069768Y0083765D01*
X0069553Y0083676D01*
X0069369Y0083534D01*
X0069357D01*
X0069173Y0083676D01*
X0068958Y0083765D01*
X0068728Y0083795D01*
X0068498Y0083765D01*
X0068283Y0083676D01*
X0068099Y0083534D01*
X0068087D01*
X0067903Y0083676D01*
X0067688Y0083765D01*
X0067585Y0083778D01*
Y0082905D01*
Y0082032D01*
X0067688Y0082045D01*
X0067903Y0082134D01*
X0068087Y0082276D01*
X0068099D01*
X0068283Y0082134D01*
X0068498Y0082045D01*
X0068728Y0082015D01*
X0068958Y0082045D01*
X0069173Y0082134D01*
X0069357Y0082276D01*
X0069369D01*
X0069553Y0082134D01*
X0069768Y0082045D01*
X0069998Y0082015D01*
X0070228Y0082045D01*
X0070443Y0082134D01*
X0070627Y0082276D01*
X0070639D01*
X0070823Y0082134D01*
X0071038Y0082045D01*
X0071141Y0082032D01*
Y0082905D01*
Y0083778D01*
X0071038Y0083765D01*
X0070823Y0083676D01*
X0070639Y0083534D01*
X0070627D01*
X0070443Y0083676D01*
X0070228Y0083765D01*
X0069998Y0083795D01*
D02*
G37*
G36*
X0073808D02*
X0073578Y0083765D01*
X0073363Y0083676D01*
X0073179Y0083534D01*
X0073167D01*
X0072983Y0083676D01*
X0072768Y0083765D01*
X0072538Y0083795D01*
X0072308Y0083765D01*
X0072093Y0083676D01*
X0071909Y0083534D01*
X0071897D01*
X0071713Y0083676D01*
X0071498Y0083765D01*
X0071395Y0083778D01*
Y0082905D01*
Y0082032D01*
X0071498Y0082045D01*
X0071713Y0082134D01*
X0071897Y0082276D01*
X0071909D01*
X0072093Y0082134D01*
X0072308Y0082045D01*
X0072538Y0082015D01*
X0072768Y0082045D01*
X0072983Y0082134D01*
X0073167Y0082276D01*
X0073179D01*
X0073363Y0082134D01*
X0073578Y0082045D01*
X0073808Y0082015D01*
X0074038Y0082045D01*
X0074253Y0082134D01*
X0074437Y0082276D01*
X0074449D01*
X0074633Y0082134D01*
X0074848Y0082045D01*
X0074951Y0082032D01*
Y0082905D01*
Y0083778D01*
X0074848Y0083765D01*
X0074633Y0083676D01*
X0074449Y0083534D01*
X0074437D01*
X0074253Y0083676D01*
X0074038Y0083765D01*
X0073808Y0083795D01*
D02*
G37*
G36*
X0065469Y0085128D02*
X0064746D01*
Y0084305D01*
X0065469D01*
Y0085128D01*
D02*
G37*
G36*
X0084207D02*
X0083484D01*
Y0084305D01*
X0084207D01*
Y0085128D01*
D02*
G37*
G36*
X0078363Y0086603D02*
X0076463D01*
Y0085880D01*
Y0084380D01*
X0076557D01*
X0076615Y0084241D01*
X0076161Y0083787D01*
X0075465D01*
Y0083787D01*
X0075384Y0083733D01*
X0075308Y0083765D01*
X0075205Y0083778D01*
Y0082905D01*
Y0082032D01*
X0075308Y0082045D01*
X0075369Y0081900D01*
X0074998Y0081528D01*
X0073682D01*
X0073529Y0081646D01*
X0073286Y0081746D01*
X0073025Y0081781D01*
X0072764Y0081746D01*
X0072521Y0081646D01*
X0072368Y0081528D01*
X0067056D01*
X0066860Y0081503D01*
X0066678Y0081427D01*
X0066521Y0081307D01*
X0066521Y0081307D01*
X0065589Y0080374D01*
X0065398Y0080349D01*
X0065155Y0080248D01*
X0064946Y0080088D01*
X0064785Y0079879D01*
X0064685Y0079636D01*
X0064660Y0079445D01*
X0063854Y0078640D01*
X0063734Y0078483D01*
X0063658Y0078301D01*
X0063633Y0078105D01*
Y0073174D01*
X0063515Y0073021D01*
X0063415Y0072778D01*
X0063380Y0072517D01*
X0063415Y0072256D01*
X0063515Y0072013D01*
X0063676Y0071804D01*
X0063885Y0071644D01*
X0064128Y0071543D01*
X0064389Y0071508D01*
X0064650Y0071543D01*
X0064893Y0071644D01*
X0065102Y0071804D01*
X0065262Y0072013D01*
X0065363Y0072256D01*
X0065398Y0072517D01*
X0065363Y0072778D01*
X0065262Y0073021D01*
X0065145Y0073174D01*
Y0077792D01*
X0065729Y0078376D01*
X0065920Y0078401D01*
X0066163Y0078502D01*
X0066372Y0078662D01*
X0066533Y0078871D01*
X0066633Y0079114D01*
X0066658Y0079305D01*
X0067369Y0080016D01*
X0072368D01*
X0072521Y0079898D01*
X0072764Y0079798D01*
X0073025Y0079763D01*
X0073286Y0079798D01*
X0073529Y0079898D01*
X0073682Y0080016D01*
X0075311D01*
X0075507Y0080041D01*
X0075689Y0080117D01*
X0075846Y0080237D01*
X0076263Y0080655D01*
X0076685Y0080233D01*
X0076724Y0080141D01*
X0076884Y0079932D01*
X0077093Y0079771D01*
X0077336Y0079671D01*
X0077597Y0079636D01*
X0077858Y0079671D01*
X0078101Y0079771D01*
X0078310Y0079932D01*
X0078470Y0080141D01*
X0078571Y0080384D01*
X0078606Y0080645D01*
X0078571Y0080906D01*
X0078470Y0081149D01*
X0078310Y0081358D01*
X0078101Y0081519D01*
X0077858Y0081619D01*
X0077597Y0081654D01*
X0077427Y0081631D01*
X0077104Y0081953D01*
Y0082022D01*
X0077230D01*
Y0082718D01*
X0077948Y0083435D01*
X0077948Y0083435D01*
X0078068Y0083592D01*
X0078144Y0083774D01*
X0078169Y0083970D01*
Y0084380D01*
X0078363D01*
Y0085880D01*
Y0086603D01*
D02*
G37*
G36*
X0097188D02*
X0095288D01*
Y0085880D01*
Y0084380D01*
X0095347D01*
X0095405Y0084241D01*
X0094951Y0083787D01*
X0094256D01*
Y0083787D01*
X0094174Y0083733D01*
X0094098Y0083765D01*
X0093995Y0083778D01*
Y0082905D01*
Y0082032D01*
X0094098Y0082045D01*
X0094174Y0082077D01*
X0094256Y0082022D01*
Y0082022D01*
X0094382Y0082022D01*
Y0081735D01*
X0094048Y0081401D01*
X0088668D01*
X0088515Y0081519D01*
X0088272Y0081619D01*
X0088011Y0081654D01*
X0087750Y0081619D01*
X0087507Y0081519D01*
X0087298Y0081358D01*
X0087137Y0081149D01*
X0087037Y0080906D01*
X0087002Y0080645D01*
X0087037Y0080384D01*
X0087137Y0080141D01*
X0087298Y0079932D01*
X0087507Y0079771D01*
X0087750Y0079671D01*
X0088011Y0079636D01*
X0088272Y0079671D01*
X0088515Y0079771D01*
X0088668Y0079889D01*
X0094361D01*
X0094557Y0079914D01*
X0094739Y0079990D01*
X0094896Y0080110D01*
X0094896Y0080110D01*
X0094896Y0080110D01*
X0095673Y0080887D01*
X0095673Y0080887D01*
X0095793Y0081044D01*
X0095869Y0081226D01*
X0095894Y0081422D01*
Y0082022D01*
X0096021D01*
Y0082718D01*
X0096738Y0083435D01*
X0096738Y0083435D01*
X0096858Y0083592D01*
X0096934Y0083774D01*
X0096959Y0083970D01*
Y0084380D01*
X0097188D01*
Y0085880D01*
Y0086603D01*
D02*
G37*
%LPD*%
D10*
X0063094Y0086630D02*
D03*
X0064594D02*
D03*
X0063094Y0088030D02*
D03*
X0064594D02*
D03*
X0064619Y0085255D02*
D03*
X0063119D02*
D03*
X0073109Y0063880D02*
D03*
X0074609D02*
D03*
X0091938Y0063880D02*
D03*
X0093438D02*
D03*
X0095036Y0039618D02*
D03*
X0096536D02*
D03*
X0095011Y0041005D02*
D03*
X0096511D02*
D03*
X0073109Y0062480D02*
D03*
X0074609D02*
D03*
X0096536Y0038230D02*
D03*
X0095036D02*
D03*
X0076288Y0039618D02*
D03*
X0077788D02*
D03*
X0083357Y0085255D02*
D03*
X0081857D02*
D03*
X0081857Y0088030D02*
D03*
X0083357D02*
D03*
X0077584Y0063880D02*
D03*
X0076084D02*
D03*
X0091938Y0062480D02*
D03*
X0093438D02*
D03*
X0076288Y0041005D02*
D03*
X0077788D02*
D03*
X0077788Y0038230D02*
D03*
X0076288D02*
D03*
X0087163Y0063855D02*
D03*
X0085663D02*
D03*
X0068363Y0063880D02*
D03*
X0066863D02*
D03*
X0083357Y0086630D02*
D03*
X0081857D02*
D03*
X0087113Y0062455D02*
D03*
X0085613D02*
D03*
X0082663Y0062455D02*
D03*
X0084163D02*
D03*
X0068363Y0062480D02*
D03*
X0066863D02*
D03*
X0063888Y0062480D02*
D03*
X0065388D02*
D03*
X0096613Y0063880D02*
D03*
X0095113D02*
D03*
D11*
X0077413Y0086730D02*
D03*
Y0085230D02*
D03*
X0082423Y0039509D02*
D03*
Y0041009D02*
D03*
X0063638Y0039505D02*
D03*
Y0041005D02*
D03*
X0096238Y0086730D02*
D03*
Y0085230D02*
D03*
D12*
X0075057Y0065278D02*
X0076708D01*
X0074168Y0066167D02*
X0075057Y0065278D01*
X0077584Y0063880D02*
Y0064402D01*
X0076708Y0065278D02*
X0077584Y0064402D01*
X0072518Y0087000D02*
X0072903D01*
X0076200Y0066167D02*
X0079883D01*
X0074930Y0067437D02*
X0076200Y0066167D01*
X0078228Y0088519D02*
X0079502Y0087245D01*
Y0071501D02*
Y0087245D01*
X0076708Y0068707D02*
X0079502Y0071501D01*
X0075946Y0068707D02*
X0076708D01*
X0064135Y0067437D02*
X0074930D01*
X0061468Y0070104D02*
X0064135Y0067437D01*
X0058547Y0070104D02*
X0061468D01*
X0058384Y0070267D02*
X0058547Y0070104D01*
X0058384Y0070267D02*
Y0072337D01*
X0057178Y0073893D02*
X0058384Y0072337D01*
X0092329Y0049022D02*
Y0049784D01*
X0091186Y0049530D02*
Y0050800D01*
X0090551Y0047244D02*
X0092329Y0049022D01*
X0089662Y0048006D02*
X0091186Y0049530D01*
X0077216Y0048006D02*
X0089662D01*
X0071501Y0053721D02*
X0077216Y0048006D01*
X0075819Y0047244D02*
X0090551D01*
X0070485Y0052578D02*
X0075819Y0047244D01*
X0082042Y0048768D02*
Y0061834D01*
X0098171Y0064770D02*
Y0087376D01*
X0097281Y0063880D02*
X0098171Y0064770D01*
X0097028Y0088519D02*
X0098171Y0087376D01*
X0087113Y0061610D02*
X0088758Y0059965D01*
X0087113Y0061610D02*
Y0062455D01*
X0090058Y0066395D02*
X0091938Y0064515D01*
Y0063880D02*
Y0064515D01*
X0093438Y0062480D02*
Y0063880D01*
X0085613Y0062455D02*
Y0063805D01*
X0084163Y0062455D02*
X0085613D01*
X0081534Y0038227D02*
X0085880D01*
X0087483Y0039830D01*
X0093438Y0063880D02*
X0095113D01*
X0096613Y0063880D02*
X0097281D01*
X0091318Y0086655D02*
X0093182Y0088519D01*
X0097028D01*
X0074638Y0063880D02*
X0076313D01*
X0061845Y0039116D02*
X0062734Y0038227D01*
X0061845Y0060437D02*
X0063863Y0062455D01*
X0061845Y0039116D02*
Y0060437D01*
X0067080Y0038227D02*
X0068683Y0039830D01*
X0062734Y0038227D02*
X0067080D01*
X0065363Y0062455D02*
X0066813D01*
X0066813Y0062455D02*
Y0063805D01*
X0074638Y0062480D02*
Y0063880D01*
X0073138D02*
Y0064515D01*
X0071258Y0066395D02*
X0073138Y0064515D01*
X0068313Y0061610D02*
Y0062455D01*
Y0061610D02*
X0069958Y0059965D01*
X0072903Y0087000D02*
X0074422Y0088519D01*
X0078228D01*
X0074930Y0052832D02*
Y0054991D01*
X0081153Y0063754D02*
Y0067691D01*
X0077343Y0059944D02*
X0081153Y0063754D01*
X0077343Y0052959D02*
Y0059944D01*
X0076708Y0052324D02*
X0077343Y0052959D01*
X0078105Y0059436D02*
X0082169Y0063500D01*
Y0066294D01*
X0076835Y0051181D02*
X0077089Y0050927D01*
X0076835Y0051181D02*
X0077343D01*
X0078105Y0051943D01*
Y0059436D01*
X0075553Y0072529D02*
X0078474D01*
X0082042Y0061834D02*
X0082663Y0062455D01*
X0080645Y0039116D02*
X0081534Y0038227D01*
X0080645Y0039116D02*
Y0041910D01*
D13*
X0059718Y0073505D02*
X0064770Y0068453D01*
X0059718Y0073505D02*
Y0073893D01*
X0064770Y0068453D02*
X0072898D01*
X0064888Y0043679D02*
X0066040Y0044831D01*
Y0059309D01*
X0096203Y0083970D02*
Y0085230D01*
X0082428Y0041005D02*
Y0042205D01*
X0083545Y0043455D02*
X0083678D01*
X0082296Y0044704D02*
X0083545Y0043455D01*
X0077978Y0044704D02*
X0082296D01*
X0077343Y0080645D02*
X0077597D01*
X0076518Y0081470D02*
X0077343Y0080645D01*
X0076348Y0081809D02*
Y0082905D01*
X0075311Y0080772D02*
X0076348Y0081809D01*
X0095138Y0081422D02*
Y0082905D01*
X0094361Y0080645D02*
X0095138Y0081422D01*
X0088011Y0080645D02*
X0094361D01*
X0065659Y0079375D02*
X0067056Y0080772D01*
X0074041Y0069596D02*
Y0075819D01*
X0072898Y0068453D02*
X0074041Y0069596D01*
X0077413Y0083970D02*
Y0085230D01*
X0076348Y0082905D02*
X0077413Y0083970D01*
X0095138Y0082905D02*
X0096203Y0083970D01*
X0076318Y0043455D02*
X0077788Y0041985D01*
Y0039618D02*
Y0041005D01*
Y0041985D01*
X0076282Y0039624D02*
X0076288Y0039618D01*
Y0038230D02*
Y0039618D01*
X0073660Y0039624D02*
X0076282D01*
X0064771Y0086655D02*
X0067393D01*
X0064594Y0086630D02*
Y0088030D01*
X0064594Y0086630D02*
X0064594Y0086630D01*
X0063094Y0083464D02*
X0063653Y0082905D01*
X0064918D01*
X0063094Y0083464D02*
Y0086630D01*
X0081894Y0083464D02*
Y0086630D01*
X0082453Y0082905D02*
X0083718D01*
X0081894Y0083464D02*
X0082453Y0082905D01*
X0083394Y0086630D02*
Y0088030D01*
X0083571Y0086655D02*
X0086192D01*
X0063638Y0042205D02*
X0064888Y0043455D01*
X0063638Y0041005D02*
Y0042205D01*
X0092450Y0039624D02*
X0095072D01*
X0095078Y0038230D02*
Y0039618D01*
X0096578Y0041005D02*
Y0041985D01*
Y0039618D02*
Y0041005D01*
X0095108Y0043455D02*
X0096578Y0041985D01*
X0067056Y0080772D02*
X0073025D01*
X0075311D01*
X0064888Y0043455D02*
Y0043679D01*
X0065913Y0044704D02*
X0077978D01*
X0064389Y0078105D02*
X0065659Y0079375D01*
X0064389Y0072517D02*
Y0078105D01*
X0082428Y0042205D02*
X0083678Y0043455D01*
D14*
X0093858Y0086655D02*
D03*
X0091318D02*
D03*
X0088778D02*
D03*
X0075058D02*
D03*
X0072518D02*
D03*
X0069978D02*
D03*
X0066040Y0039624D02*
D03*
X0068580D02*
D03*
X0071120D02*
D03*
X0084943Y0039830D02*
D03*
X0087483D02*
D03*
X0090023D02*
D03*
D15*
X0086238Y0086655D02*
D03*
X0067438D02*
D03*
X0073660Y0039624D02*
D03*
X0092563Y0039830D02*
D03*
D16*
X0083678Y0043455D02*
D03*
X0076348Y0082905D02*
D03*
X0095138D02*
D03*
X0064888Y0043455D02*
D03*
D17*
X0084948D02*
D03*
X0086218D02*
D03*
X0087488D02*
D03*
X0088758D02*
D03*
X0090028D02*
D03*
X0091298D02*
D03*
X0092568D02*
D03*
X0093838D02*
D03*
X0095108D02*
D03*
X0088758Y0059965D02*
D03*
X0090028D02*
D03*
X0091298D02*
D03*
X0092568D02*
D03*
X0093838D02*
D03*
X0095108D02*
D03*
X0075078Y0082905D02*
D03*
X0073808D02*
D03*
X0072538D02*
D03*
X0071268D02*
D03*
X0069998D02*
D03*
X0068728D02*
D03*
X0067458D02*
D03*
X0066188D02*
D03*
X0064918D02*
D03*
X0071268Y0066395D02*
D03*
X0069998D02*
D03*
X0068728D02*
D03*
X0067458D02*
D03*
X0066188D02*
D03*
X0064918D02*
D03*
X0093868Y0082905D02*
D03*
X0092598D02*
D03*
X0091328D02*
D03*
X0090058D02*
D03*
X0088788D02*
D03*
X0087518D02*
D03*
X0086248D02*
D03*
X0084978D02*
D03*
X0083708D02*
D03*
X0090058Y0066395D02*
D03*
X0088788D02*
D03*
X0087518D02*
D03*
X0086248D02*
D03*
X0084978D02*
D03*
X0083708D02*
D03*
X0076318Y0059965D02*
D03*
X0075048D02*
D03*
X0073778D02*
D03*
X0072508D02*
D03*
X0071238D02*
D03*
X0069968D02*
D03*
X0076318Y0043455D02*
D03*
X0075048D02*
D03*
X0073778D02*
D03*
X0072508D02*
D03*
X0071238D02*
D03*
X0069968D02*
D03*
X0068698D02*
D03*
X0067428D02*
D03*
X0066158D02*
D03*
D18*
X0057178Y0051033D02*
D03*
Y0053573D02*
D03*
Y0056113D02*
D03*
Y0063733D02*
D03*
Y0061193D02*
D03*
Y0058653D02*
D03*
Y0071353D02*
D03*
Y0068813D02*
D03*
Y0066273D02*
D03*
Y0073893D02*
D03*
X0059718Y0066273D02*
D03*
Y0068813D02*
D03*
Y0071353D02*
D03*
Y0058653D02*
D03*
Y0061193D02*
D03*
Y0063733D02*
D03*
Y0056113D02*
D03*
Y0053573D02*
D03*
Y0051033D02*
D03*
X0100358D02*
D03*
Y0053573D02*
D03*
Y0056113D02*
D03*
Y0063733D02*
D03*
Y0061193D02*
D03*
Y0058653D02*
D03*
Y0071353D02*
D03*
Y0068813D02*
D03*
Y0066273D02*
D03*
Y0073893D02*
D03*
X0102898Y0066273D02*
D03*
Y0068813D02*
D03*
Y0071353D02*
D03*
Y0058653D02*
D03*
Y0061193D02*
D03*
Y0063733D02*
D03*
Y0056113D02*
D03*
Y0053573D02*
D03*
Y0051033D02*
D03*
D19*
X0059718Y0073893D02*
D03*
X0102898D02*
D03*
D20*
X0074168Y0066167D02*
D03*
X0079883D02*
D03*
X0075946Y0068707D02*
D03*
X0066040Y0059309D02*
D03*
X0092329Y0049784D02*
D03*
X0091186Y0050800D02*
D03*
X0082042Y0049149D02*
D03*
X0080645Y0041910D02*
D03*
X0070485Y0052578D02*
D03*
X0071501Y0053721D02*
D03*
X0088011Y0080645D02*
D03*
X0077597D02*
D03*
X0065659Y0079375D02*
D03*
X0074041Y0075819D02*
D03*
X0073025Y0080772D02*
D03*
X0082169Y0066294D02*
D03*
X0081153Y0067691D02*
D03*
X0074930Y0054991D02*
D03*
Y0052832D02*
D03*
X0076708Y0052324D02*
D03*
X0077089Y0050927D02*
D03*
X0075553Y0072529D02*
D03*
X0078474D02*
D03*
X0077978Y0044704D02*
D03*
X0064389Y0072517D02*
D03*
M02*
