%FSAX43Y43*%
%MOMM*%
G71*
G01*
G75*
G04 Layer_Color=32768*
%ADD10R,0.700X0.900*%
%ADD11R,0.900X0.700*%
%ADD12C,0.254*%
%ADD13C,0.500*%
%ADD14C,1.500*%
%ADD15R,1.500X1.500*%
%ADD16R,0.765X0.765*%
%ADD17C,0.765*%
%ADD18C,1.650*%
%ADD19R,1.650X1.650*%
%ADD20C,1.000*%
%ADD21R,1.400X1.100*%
%ADD22R,1.100X1.400*%
%ADD23R,0.700X2.500*%
%ADD24R,3.200X2.500*%
%ADD25O,2.000X0.350*%
%ADD26C,0.200*%
%ADD27C,0.203*%
%ADD28C,0.100*%
%ADD29C,0.178*%
%ADD30R,0.903X1.103*%
%ADD31R,1.103X0.903*%
%ADD32C,1.703*%
%ADD33R,1.703X1.703*%
%ADD34R,0.968X0.968*%
%ADD35C,0.968*%
%ADD36C,1.853*%
%ADD37R,1.853X1.853*%
%ADD38C,1.204*%
%ADD39C,1.203*%
%ADD40R,1.603X1.303*%
%ADD41R,1.303X1.603*%
%ADD42R,0.903X2.703*%
%ADD43R,3.403X2.703*%
%ADD44O,2.203X0.553*%
%ADD45C,0.250*%
%ADD46C,0.600*%
D28*
X0088265Y0046007D02*
Y0046957D01*
X0087790Y0046482D02*
X0088740D01*
X0087065Y0047032D02*
X0089465D01*
X0087065Y0045932D02*
X0089465D01*
Y0047032D01*
X0087065Y0045932D02*
Y0047032D01*
X0085471Y0046007D02*
Y0046957D01*
X0084996Y0046482D02*
X0085946D01*
X0084271Y0045932D02*
X0086671D01*
X0084271Y0047032D02*
X0086671D01*
X0084271Y0045932D02*
Y0047032D01*
X0086671Y0045932D02*
Y0047032D01*
X0069433Y0046007D02*
Y0046957D01*
X0068958Y0046482D02*
X0069908D01*
X0068233Y0047032D02*
X0070633D01*
X0068233Y0045932D02*
X0070633D01*
Y0047032D01*
X0068233Y0045932D02*
Y0047032D01*
X0066675Y0046007D02*
Y0046957D01*
X0066200Y0046482D02*
X0067150D01*
X0065475Y0045932D02*
X0067875D01*
X0065475Y0047032D02*
X0067875D01*
X0065475Y0045932D02*
Y0047032D01*
X0067875Y0045932D02*
Y0047032D01*
X0090551Y0078646D02*
Y0079596D01*
X0090076Y0079121D02*
X0091026D01*
X0089351Y0079671D02*
X0091751D01*
X0089351Y0078571D02*
X0091751D01*
Y0079671D01*
X0089351Y0078571D02*
Y0079671D01*
X0093345Y0078646D02*
Y0079596D01*
X0092870Y0079121D02*
X0093820D01*
X0092145Y0078571D02*
X0094545D01*
X0092145Y0079671D02*
X0094545D01*
X0092145Y0078571D02*
Y0079671D01*
X0094545Y0078571D02*
Y0079671D01*
X0074803Y0078646D02*
Y0079596D01*
X0074328Y0079121D02*
X0075278D01*
X0073603Y0079671D02*
X0076003D01*
X0073603Y0078571D02*
X0076003D01*
Y0079671D01*
X0073603Y0078571D02*
Y0079671D01*
X0081153Y0059088D02*
Y0060038D01*
X0080678Y0059563D02*
X0081628D01*
X0079953Y0060113D02*
X0082353D01*
X0079953Y0059013D02*
X0082353D01*
Y0060113D01*
X0079953Y0059013D02*
Y0060113D01*
X0077122Y0078232D02*
X0078072D01*
X0077597Y0077757D02*
Y0078707D01*
X0078147Y0077032D02*
Y0079432D01*
X0077047Y0077032D02*
Y0079432D01*
Y0077032D02*
X0078147D01*
X0077047Y0079432D02*
X0078147D01*
X0070066Y0081537D02*
X0071666D01*
X0070066Y0078737D02*
X0071666D01*
X0070066D02*
Y0081537D01*
X0071666Y0078737D02*
Y0081537D01*
X0070866Y0079637D02*
Y0080637D01*
X0070366Y0080137D02*
X0071366D01*
X0067399Y0078737D02*
X0068999D01*
X0067399Y0081537D02*
X0068999D01*
Y0078737D02*
Y0081537D01*
X0067399Y0078737D02*
Y0081537D01*
X0068199Y0079637D02*
Y0080637D01*
X0067699Y0080137D02*
X0068699D01*
X0062319Y0077854D02*
X0063919D01*
X0062319Y0075054D02*
X0063919D01*
X0062319D02*
Y0077854D01*
X0063919Y0075054D02*
Y0077854D01*
X0063119Y0075954D02*
Y0076954D01*
X0062619Y0076454D02*
X0063619D01*
X0085855Y0058890D02*
Y0060490D01*
X0083055Y0058890D02*
Y0060490D01*
X0085855D01*
X0083055Y0058890D02*
X0085855D01*
X0083955Y0059690D02*
X0084955D01*
X0084455Y0059190D02*
Y0060190D01*
X0063844Y0086155D02*
Y0087105D01*
X0063369Y0086630D02*
X0064319D01*
X0062644Y0087180D02*
X0065044D01*
X0062644Y0086080D02*
X0065044D01*
X0062644D02*
Y0087180D01*
X0065044Y0086080D02*
Y0087180D01*
X0062644Y0087480D02*
Y0088580D01*
X0065044Y0087480D02*
Y0088580D01*
X0062644D02*
X0065044D01*
X0062644Y0087480D02*
X0065044D01*
X0063369Y0088030D02*
X0064319D01*
X0063844Y0087555D02*
Y0088505D01*
X0065069Y0084705D02*
Y0085805D01*
X0062669Y0084705D02*
Y0085805D01*
Y0084705D02*
X0065069D01*
X0062669Y0085805D02*
X0065069D01*
X0063394Y0085255D02*
X0064344D01*
X0063869Y0084780D02*
Y0085730D01*
X0072659Y0063330D02*
Y0064430D01*
X0075059Y0063330D02*
Y0064430D01*
X0072659D02*
X0075059D01*
X0072659Y0063330D02*
X0075059D01*
X0073384Y0063880D02*
X0074334D01*
X0073859Y0063405D02*
Y0064355D01*
X0091488Y0063330D02*
Y0064430D01*
X0093888Y0063330D02*
Y0064430D01*
X0091488D02*
X0093888D01*
X0091488Y0063330D02*
X0093888D01*
X0092213Y0063880D02*
X0093163D01*
X0092688Y0063405D02*
Y0064355D01*
X0094586Y0039068D02*
Y0040167D01*
X0096986Y0039068D02*
Y0040167D01*
X0094586D02*
X0096986D01*
X0094586Y0039068D02*
X0096986D01*
X0095311Y0039618D02*
X0096261D01*
X0095786Y0039143D02*
Y0040092D01*
X0076863Y0087180D02*
X0077963D01*
X0076863Y0084780D02*
X0077963D01*
Y0087180D01*
X0076863Y0084780D02*
Y0087180D01*
X0077413Y0085505D02*
Y0086455D01*
X0076938Y0085980D02*
X0077888D01*
X0081873Y0039059D02*
X0082973D01*
X0081873Y0041459D02*
X0082973D01*
X0081873Y0039059D02*
Y0041459D01*
X0082973Y0039059D02*
Y0041459D01*
X0082423Y0039784D02*
Y0040734D01*
X0081948Y0040259D02*
X0082898D01*
X0063088Y0039055D02*
X0064188D01*
X0063088Y0041455D02*
X0064188D01*
X0063088Y0039055D02*
Y0041455D01*
X0064188Y0039055D02*
Y0041455D01*
X0063638Y0039780D02*
Y0040730D01*
X0063163Y0040255D02*
X0064113D01*
X0094561Y0040455D02*
Y0041555D01*
X0096961Y0040455D02*
Y0041555D01*
X0094561D02*
X0096961D01*
X0094561Y0040455D02*
X0096961D01*
X0095286Y0041005D02*
X0096236D01*
X0095761Y0040530D02*
Y0041480D01*
X0072659Y0061930D02*
Y0063030D01*
X0075059Y0061930D02*
Y0063030D01*
X0072659D02*
X0075059D01*
X0072659Y0061930D02*
X0075059D01*
X0073384Y0062480D02*
X0074334D01*
X0073859Y0062005D02*
Y0062955D01*
X0096986Y0037680D02*
Y0038780D01*
X0094586Y0037680D02*
Y0038780D01*
Y0037680D02*
X0096986D01*
X0094586Y0038780D02*
X0096986D01*
X0095311Y0038230D02*
X0096261D01*
X0095786Y0037755D02*
Y0038705D01*
X0075838Y0039068D02*
Y0040167D01*
X0078238Y0039068D02*
Y0040167D01*
X0075838D02*
X0078238D01*
X0075838Y0039068D02*
X0078238D01*
X0076563Y0039618D02*
X0077513D01*
X0077038Y0039143D02*
Y0040092D01*
X0083807Y0084705D02*
Y0085805D01*
X0081407Y0084705D02*
Y0085805D01*
Y0084705D02*
X0083807D01*
X0081407Y0085805D02*
X0083807D01*
X0082132Y0085255D02*
X0083082D01*
X0082607Y0084780D02*
Y0085730D01*
X0081407Y0087480D02*
Y0088580D01*
X0083807Y0087480D02*
Y0088580D01*
X0081407D02*
X0083807D01*
X0081407Y0087480D02*
X0083807D01*
X0082132Y0088030D02*
X0083082D01*
X0082607Y0087555D02*
Y0088505D01*
X0078034Y0063330D02*
Y0064430D01*
X0075634Y0063330D02*
Y0064430D01*
Y0063330D02*
X0078034D01*
X0075634Y0064430D02*
X0078034D01*
X0076359Y0063880D02*
X0077309D01*
X0076834Y0063405D02*
Y0064355D01*
X0095688Y0087180D02*
X0096788D01*
X0095688Y0084780D02*
X0096788D01*
Y0087180D01*
X0095688Y0084780D02*
Y0087180D01*
X0096238Y0085505D02*
Y0086455D01*
X0095763Y0085980D02*
X0096713D01*
X0091488Y0061930D02*
Y0063030D01*
X0093888Y0061930D02*
Y0063030D01*
X0091488D02*
X0093888D01*
X0091488Y0061930D02*
X0093888D01*
X0092213Y0062480D02*
X0093163D01*
X0092688Y0062005D02*
Y0062955D01*
X0075838Y0040455D02*
Y0041555D01*
X0078238Y0040455D02*
Y0041555D01*
X0075838D02*
X0078238D01*
X0075838Y0040455D02*
X0078238D01*
X0076563Y0041005D02*
X0077513D01*
X0077038Y0040530D02*
Y0041480D01*
X0078238Y0037680D02*
Y0038780D01*
X0075838Y0037680D02*
Y0038780D01*
Y0037680D02*
X0078238D01*
X0075838Y0038780D02*
X0078238D01*
X0076563Y0038230D02*
X0077513D01*
X0077038Y0037755D02*
Y0038705D01*
X0087613Y0063305D02*
Y0064405D01*
X0085213Y0063305D02*
Y0064405D01*
Y0063305D02*
X0087613D01*
X0085213Y0064405D02*
X0087613D01*
X0085938Y0063855D02*
X0086888D01*
X0086413Y0063380D02*
Y0064330D01*
X0068813Y0063330D02*
Y0064430D01*
X0066413Y0063330D02*
Y0064430D01*
Y0063330D02*
X0068813D01*
X0066413Y0064430D02*
X0068813D01*
X0067138Y0063880D02*
X0068088D01*
X0067613Y0063405D02*
Y0064355D01*
X0083807Y0086080D02*
Y0087180D01*
X0081407Y0086080D02*
Y0087180D01*
Y0086080D02*
X0083807D01*
X0081407Y0087180D02*
X0083807D01*
X0082132Y0086630D02*
X0083082D01*
X0082607Y0086155D02*
Y0087105D01*
X0087563Y0061905D02*
Y0063005D01*
X0085163Y0061905D02*
Y0063005D01*
Y0061905D02*
X0087563D01*
X0085163Y0063005D02*
X0087563D01*
X0085888Y0062455D02*
X0086838D01*
X0086363Y0061980D02*
Y0062930D01*
X0082213Y0061905D02*
Y0063005D01*
X0084613Y0061905D02*
Y0063005D01*
X0082213D02*
X0084613D01*
X0082213Y0061905D02*
X0084613D01*
X0082938Y0062455D02*
X0083888D01*
X0083413Y0061980D02*
Y0062930D01*
X0068813Y0061930D02*
Y0063030D01*
X0066413Y0061930D02*
Y0063030D01*
Y0061930D02*
X0068813D01*
X0066413Y0063030D02*
X0068813D01*
X0067138Y0062480D02*
X0068088D01*
X0067613Y0062005D02*
Y0062955D01*
X0063438Y0061930D02*
Y0063030D01*
X0065838Y0061930D02*
Y0063030D01*
X0063438D02*
X0065838D01*
X0063438Y0061930D02*
X0065838D01*
X0064163Y0062480D02*
X0065113D01*
X0064638Y0062005D02*
Y0062955D01*
X0065669Y0068860D02*
X0073269D01*
X0065669D02*
Y0078460D01*
X0068969Y0073660D02*
X0069969D01*
X0069469Y0073160D02*
Y0074160D01*
X0073269Y0068860D02*
Y0078460D01*
X0065669D02*
X0073269D01*
X0087839Y0050556D02*
Y0058156D01*
X0079039Y0050556D02*
Y0058156D01*
X0087839D01*
X0079039Y0050556D02*
X0087839D01*
X0082939Y0054356D02*
X0083939D01*
X0083439Y0053856D02*
Y0054856D01*
X0097063Y0063330D02*
Y0064430D01*
X0094663Y0063330D02*
Y0064430D01*
Y0063330D02*
X0097063D01*
X0094663Y0064430D02*
X0097063D01*
X0095388Y0063880D02*
X0096338D01*
X0095863Y0063405D02*
Y0064355D01*
M02*
