%FSAX43Y43*%
%MOMM*%
G71*
G01*
G75*
G04 Layer_Physical_Order=2*
G04 Layer_Color=16711680*
%ADD10R,0.700X0.900*%
%ADD11R,0.900X0.700*%
%ADD12C,0.254*%
%ADD13C,0.500*%
%ADD14C,1.500*%
%ADD15R,1.500X1.500*%
%ADD16R,0.765X0.765*%
%ADD17C,0.765*%
%ADD18C,1.650*%
%ADD19R,1.650X1.650*%
%ADD20C,1.000*%
%ADD21R,1.400X1.100*%
%ADD22R,1.100X1.400*%
%ADD23R,0.700X2.500*%
%ADD24R,3.200X2.500*%
%ADD25O,2.000X0.350*%
G36*
X0104775Y0036830D02*
X0055245D01*
Y0090170D01*
X0104775D01*
Y0036830D01*
D02*
G37*
%LPC*%
G36*
X0086255Y0059563D02*
X0085332D01*
Y0058490D01*
X0086255D01*
Y0059563D01*
D02*
G37*
G36*
X0087164Y0057962D02*
X0086466D01*
Y0057408D01*
X0087828D01*
X0087822Y0057457D01*
X0087754Y0057621D01*
X0087645Y0057762D01*
X0087504Y0057871D01*
X0087340Y0057939D01*
X0087164Y0057962D01*
D02*
G37*
G36*
X0086212D02*
X0085514D01*
X0085338Y0057939D01*
X0085174Y0057871D01*
X0085033Y0057762D01*
X0084924Y0057621D01*
X0084856Y0057457D01*
X0084850Y0057408D01*
X0086212D01*
Y0057962D01*
D02*
G37*
G36*
X0084816Y0041074D02*
X0084617Y0041048D01*
X0084313Y0040922D01*
X0084051Y0040722D01*
X0083851Y0040460D01*
X0083725Y0040156D01*
X0083699Y0039957D01*
X0084816D01*
Y0041074D01*
D02*
G37*
G36*
X0065913Y0039497D02*
X0064796D01*
X0064822Y0039298D01*
X0064948Y0038994D01*
X0065148Y0038732D01*
X0065410Y0038532D01*
X0065714Y0038406D01*
X0065913Y0038380D01*
Y0039497D01*
D02*
G37*
G36*
X0084816Y0039703D02*
X0083699D01*
X0083725Y0039504D01*
X0083851Y0039200D01*
X0084051Y0038938D01*
X0084313Y0038738D01*
X0084617Y0038612D01*
X0084816Y0038586D01*
Y0039703D01*
D02*
G37*
G36*
X0065913Y0040868D02*
X0065714Y0040842D01*
X0065410Y0040716D01*
X0065148Y0040516D01*
X0064948Y0040254D01*
X0064822Y0039950D01*
X0064796Y0039751D01*
X0065913D01*
Y0040868D01*
D02*
G37*
G36*
X0095108Y0044345D02*
X0094878Y0044315D01*
X0094663Y0044226D01*
X0094479Y0044084D01*
X0094467D01*
X0094283Y0044226D01*
X0094068Y0044315D01*
X0093838Y0044345D01*
X0093608Y0044315D01*
X0093393Y0044226D01*
X0093209Y0044084D01*
X0093197D01*
X0093013Y0044226D01*
X0092798Y0044315D01*
X0092695Y0044328D01*
Y0043455D01*
Y0042582D01*
X0092798Y0042595D01*
X0093013Y0042684D01*
X0093197Y0042826D01*
X0093209D01*
X0093393Y0042684D01*
X0093608Y0042595D01*
X0093838Y0042565D01*
X0094068Y0042595D01*
X0094283Y0042684D01*
X0094467Y0042826D01*
X0094479D01*
X0094663Y0042684D01*
X0094878Y0042595D01*
X0095108Y0042565D01*
X0095338Y0042595D01*
X0095553Y0042684D01*
X0095737Y0042826D01*
X0095879Y0043010D01*
X0095968Y0043225D01*
X0095998Y0043455D01*
X0095968Y0043685D01*
X0095879Y0043900D01*
X0095737Y0044084D01*
X0095553Y0044226D01*
X0095338Y0044315D01*
X0095108Y0044345D01*
D02*
G37*
G36*
X0087483Y0041091D02*
X0087157Y0041048D01*
X0086853Y0040922D01*
X0086591Y0040722D01*
X0086391Y0040460D01*
X0086288Y0040211D01*
X0086138D01*
X0086035Y0040460D01*
X0085835Y0040722D01*
X0085573Y0040922D01*
X0085269Y0041048D01*
X0085070Y0041074D01*
Y0039830D01*
Y0038586D01*
X0085269Y0038612D01*
X0085573Y0038738D01*
X0085835Y0038938D01*
X0086035Y0039200D01*
X0086138Y0039449D01*
X0086288D01*
X0086391Y0039200D01*
X0086591Y0038938D01*
X0086853Y0038738D01*
X0087157Y0038612D01*
X0087483Y0038569D01*
X0087809Y0038612D01*
X0088113Y0038738D01*
X0088375Y0038938D01*
X0088575Y0039200D01*
X0088678Y0039449D01*
X0088828D01*
X0088931Y0039200D01*
X0089131Y0038938D01*
X0089393Y0038738D01*
X0089697Y0038612D01*
X0089896Y0038586D01*
Y0039830D01*
Y0041074D01*
X0089697Y0041048D01*
X0089393Y0040922D01*
X0089131Y0040722D01*
X0088931Y0040460D01*
X0088828Y0040211D01*
X0088678D01*
X0088575Y0040460D01*
X0088375Y0040722D01*
X0088113Y0040922D01*
X0087809Y0041048D01*
X0087483Y0041091D01*
D02*
G37*
G36*
X0074910Y0040874D02*
X0072410D01*
Y0040160D01*
X0072263Y0040131D01*
X0072212Y0040254D01*
X0072012Y0040516D01*
X0071750Y0040716D01*
X0071446Y0040842D01*
X0071247Y0040868D01*
Y0039624D01*
Y0038380D01*
X0071446Y0038406D01*
X0071750Y0038532D01*
X0072012Y0038732D01*
X0072212Y0038994D01*
X0072263Y0039117D01*
X0072410Y0039088D01*
Y0038374D01*
X0074910D01*
Y0040874D01*
D02*
G37*
G36*
X0068580Y0040885D02*
X0068254Y0040842D01*
X0067950Y0040716D01*
X0067688Y0040516D01*
X0067488Y0040254D01*
X0067385Y0040005D01*
X0067235D01*
X0067132Y0040254D01*
X0066932Y0040516D01*
X0066670Y0040716D01*
X0066366Y0040842D01*
X0066167Y0040868D01*
Y0039624D01*
Y0038380D01*
X0066366Y0038406D01*
X0066670Y0038532D01*
X0066932Y0038732D01*
X0067132Y0038994D01*
X0067235Y0039243D01*
X0067385D01*
X0067488Y0038994D01*
X0067688Y0038732D01*
X0067950Y0038532D01*
X0068254Y0038406D01*
X0068580Y0038363D01*
X0068906Y0038406D01*
X0069210Y0038532D01*
X0069472Y0038732D01*
X0069672Y0038994D01*
X0069775Y0039243D01*
X0069925D01*
X0070028Y0038994D01*
X0070228Y0038732D01*
X0070490Y0038532D01*
X0070794Y0038406D01*
X0070993Y0038380D01*
Y0039624D01*
Y0040868D01*
X0070794Y0040842D01*
X0070490Y0040716D01*
X0070228Y0040516D01*
X0070028Y0040254D01*
X0069925Y0040005D01*
X0069775D01*
X0069672Y0040254D01*
X0069472Y0040516D01*
X0069210Y0040716D01*
X0068906Y0040842D01*
X0068580Y0040885D01*
D02*
G37*
G36*
X0093813Y0041080D02*
X0091313D01*
Y0040367D01*
X0091166Y0040337D01*
X0091115Y0040460D01*
X0090915Y0040722D01*
X0090653Y0040922D01*
X0090349Y0041048D01*
X0090150Y0041074D01*
Y0039830D01*
Y0038586D01*
X0090349Y0038612D01*
X0090653Y0038738D01*
X0090915Y0038938D01*
X0091115Y0039200D01*
X0091166Y0039323D01*
X0091313Y0039293D01*
Y0038580D01*
X0093813D01*
Y0041080D01*
D02*
G37*
G36*
X0091298Y0044345D02*
X0091068Y0044315D01*
X0090853Y0044226D01*
X0090669Y0044084D01*
X0090657D01*
X0090473Y0044226D01*
X0090258Y0044315D01*
X0090028Y0044345D01*
X0089798Y0044315D01*
X0089583Y0044226D01*
X0089399Y0044084D01*
X0089387D01*
X0089203Y0044226D01*
X0088988Y0044315D01*
X0088885Y0044328D01*
Y0043455D01*
Y0042582D01*
X0088988Y0042595D01*
X0089203Y0042684D01*
X0089387Y0042826D01*
X0089399D01*
X0089583Y0042684D01*
X0089798Y0042595D01*
X0090028Y0042565D01*
X0090258Y0042595D01*
X0090473Y0042684D01*
X0090657Y0042826D01*
X0090669D01*
X0090853Y0042684D01*
X0091068Y0042595D01*
X0091298Y0042565D01*
X0091528Y0042595D01*
X0091743Y0042684D01*
X0091927Y0042826D01*
X0091939D01*
X0092123Y0042684D01*
X0092338Y0042595D01*
X0092441Y0042582D01*
Y0043455D01*
Y0044328D01*
X0092338Y0044315D01*
X0092123Y0044226D01*
X0091939Y0044084D01*
X0091927D01*
X0091743Y0044226D01*
X0091528Y0044315D01*
X0091298Y0044345D01*
D02*
G37*
G36*
X0076318D02*
X0076088Y0044315D01*
X0075873Y0044226D01*
X0075689Y0044084D01*
X0075677D01*
X0075493Y0044226D01*
X0075278Y0044315D01*
X0075048Y0044345D01*
X0074818Y0044315D01*
X0074603Y0044226D01*
X0074419Y0044084D01*
X0074407D01*
X0074223Y0044226D01*
X0074008Y0044315D01*
X0073905Y0044328D01*
Y0043455D01*
Y0042582D01*
X0074008Y0042595D01*
X0074223Y0042684D01*
X0074407Y0042826D01*
X0074419D01*
X0074603Y0042684D01*
X0074818Y0042595D01*
X0075048Y0042565D01*
X0075278Y0042595D01*
X0075493Y0042684D01*
X0075677Y0042826D01*
X0075689D01*
X0075873Y0042684D01*
X0076088Y0042595D01*
X0076318Y0042565D01*
X0076548Y0042595D01*
X0076763Y0042684D01*
X0076947Y0042826D01*
X0077089Y0043010D01*
X0077178Y0043225D01*
X0077208Y0043455D01*
X0077178Y0043685D01*
X0077089Y0043900D01*
X0076947Y0044084D01*
X0076763Y0044226D01*
X0076548Y0044315D01*
X0076318Y0044345D01*
D02*
G37*
G36*
X0072508D02*
X0072278Y0044315D01*
X0072063Y0044226D01*
X0071879Y0044084D01*
X0071867D01*
X0071683Y0044226D01*
X0071468Y0044315D01*
X0071238Y0044345D01*
X0071008Y0044315D01*
X0070793Y0044226D01*
X0070609Y0044084D01*
X0070597D01*
X0070413Y0044226D01*
X0070198Y0044315D01*
X0070095Y0044328D01*
Y0043455D01*
Y0042582D01*
X0070198Y0042595D01*
X0070413Y0042684D01*
X0070597Y0042826D01*
X0070609D01*
X0070793Y0042684D01*
X0071008Y0042595D01*
X0071238Y0042565D01*
X0071468Y0042595D01*
X0071683Y0042684D01*
X0071867Y0042826D01*
X0071879D01*
X0072063Y0042684D01*
X0072278Y0042595D01*
X0072508Y0042565D01*
X0072738Y0042595D01*
X0072953Y0042684D01*
X0073137Y0042826D01*
X0073149D01*
X0073333Y0042684D01*
X0073548Y0042595D01*
X0073651Y0042582D01*
Y0043455D01*
Y0044328D01*
X0073548Y0044315D01*
X0073333Y0044226D01*
X0073149Y0044084D01*
X0073137D01*
X0072953Y0044226D01*
X0072738Y0044315D01*
X0072508Y0044345D01*
D02*
G37*
G36*
X0087488Y0087905D02*
X0084988D01*
Y0085405D01*
X0087488D01*
Y0086118D01*
X0087635Y0086148D01*
X0087686Y0086025D01*
X0087886Y0085763D01*
X0088148Y0085563D01*
X0088452Y0085437D01*
X0088651Y0085411D01*
Y0086655D01*
Y0087899D01*
X0088452Y0087873D01*
X0088148Y0087747D01*
X0087886Y0087547D01*
X0087686Y0087285D01*
X0087635Y0087162D01*
X0087488Y0087191D01*
Y0087905D01*
D02*
G37*
G36*
X0076302Y0086528D02*
X0075185D01*
Y0085411D01*
X0075384Y0085437D01*
X0075688Y0085563D01*
X0075950Y0085763D01*
X0076150Y0086025D01*
X0076276Y0086329D01*
X0076302Y0086528D01*
D02*
G37*
G36*
X0068688Y0087905D02*
X0066188D01*
Y0085405D01*
X0068688D01*
Y0086118D01*
X0068835Y0086148D01*
X0068886Y0086025D01*
X0069086Y0085763D01*
X0069348Y0085563D01*
X0069652Y0085437D01*
X0069851Y0085411D01*
Y0086655D01*
Y0087899D01*
X0069652Y0087873D01*
X0069348Y0087747D01*
X0069086Y0087547D01*
X0068886Y0087285D01*
X0068835Y0087162D01*
X0068688Y0087191D01*
Y0087905D01*
D02*
G37*
G36*
X0095102Y0086528D02*
X0093985D01*
Y0085411D01*
X0094184Y0085437D01*
X0094488Y0085563D01*
X0094750Y0085763D01*
X0094950Y0086025D01*
X0095076Y0086329D01*
X0095102Y0086528D01*
D02*
G37*
G36*
X0072518Y0087916D02*
X0072192Y0087873D01*
X0071888Y0087747D01*
X0071626Y0087547D01*
X0071426Y0087285D01*
X0071323Y0087036D01*
X0071173D01*
X0071070Y0087285D01*
X0070870Y0087547D01*
X0070608Y0087747D01*
X0070304Y0087873D01*
X0070105Y0087899D01*
Y0086655D01*
Y0085411D01*
X0070304Y0085437D01*
X0070608Y0085563D01*
X0070870Y0085763D01*
X0071070Y0086025D01*
X0071173Y0086274D01*
X0071323D01*
X0071426Y0086025D01*
X0071626Y0085763D01*
X0071888Y0085563D01*
X0072192Y0085437D01*
X0072518Y0085394D01*
X0072844Y0085437D01*
X0073148Y0085563D01*
X0073410Y0085763D01*
X0073610Y0086025D01*
X0073713Y0086274D01*
X0073863D01*
X0073966Y0086025D01*
X0074166Y0085763D01*
X0074428Y0085563D01*
X0074732Y0085437D01*
X0074931Y0085411D01*
Y0086655D01*
Y0087899D01*
X0074732Y0087873D01*
X0074428Y0087747D01*
X0074166Y0087547D01*
X0073966Y0087285D01*
X0073863Y0087036D01*
X0073713D01*
X0073610Y0087285D01*
X0073410Y0087547D01*
X0073148Y0087747D01*
X0072844Y0087873D01*
X0072518Y0087916D01*
D02*
G37*
G36*
X0093985Y0087899D02*
Y0086782D01*
X0095102D01*
X0095076Y0086981D01*
X0094950Y0087285D01*
X0094750Y0087547D01*
X0094488Y0087747D01*
X0094184Y0087873D01*
X0093985Y0087899D01*
D02*
G37*
G36*
X0075185D02*
Y0086782D01*
X0076302D01*
X0076276Y0086981D01*
X0076150Y0087285D01*
X0075950Y0087547D01*
X0075688Y0087747D01*
X0075384Y0087873D01*
X0075185Y0087899D01*
D02*
G37*
G36*
X0092598Y0083795D02*
X0092368Y0083765D01*
X0092153Y0083676D01*
X0091969Y0083534D01*
X0091957D01*
X0091773Y0083676D01*
X0091558Y0083765D01*
X0091328Y0083795D01*
X0091098Y0083765D01*
X0090883Y0083676D01*
X0090699Y0083534D01*
X0090687D01*
X0090503Y0083676D01*
X0090288Y0083765D01*
X0090185Y0083778D01*
Y0082905D01*
Y0082032D01*
X0090288Y0082045D01*
X0090503Y0082134D01*
X0090554Y0082173D01*
X0090689Y0082107D01*
Y0080071D01*
X0088991D01*
X0088907Y0080196D01*
X0088985Y0080384D01*
X0089020Y0080645D01*
X0088985Y0080906D01*
X0088884Y0081149D01*
X0088724Y0081358D01*
X0088515Y0081519D01*
X0088272Y0081619D01*
X0088011Y0081654D01*
X0087750Y0081619D01*
X0087507Y0081519D01*
X0087354Y0081401D01*
X0078254D01*
X0078101Y0081519D01*
X0077858Y0081619D01*
X0077597Y0081654D01*
X0077336Y0081619D01*
X0077093Y0081519D01*
X0076884Y0081358D01*
X0076724Y0081149D01*
X0076700Y0081093D01*
X0076553Y0081064D01*
X0075733Y0081884D01*
X0075791Y0082022D01*
X0077230D01*
Y0083787D01*
X0075465D01*
Y0083787D01*
X0075384Y0083733D01*
X0075308Y0083765D01*
X0075205Y0083778D01*
Y0082905D01*
X0074951D01*
Y0083778D01*
X0074848Y0083765D01*
X0074633Y0083676D01*
X0074449Y0083534D01*
X0074437D01*
X0074253Y0083676D01*
X0074038Y0083765D01*
X0073808Y0083795D01*
X0073578Y0083765D01*
X0073363Y0083676D01*
X0073179Y0083534D01*
X0073167D01*
X0072983Y0083676D01*
X0072768Y0083765D01*
X0072538Y0083795D01*
X0072308Y0083765D01*
X0072093Y0083676D01*
X0071909Y0083534D01*
X0071897D01*
X0071713Y0083676D01*
X0071498Y0083765D01*
X0071395Y0083778D01*
Y0082905D01*
X0071141D01*
Y0083778D01*
X0071038Y0083765D01*
X0070823Y0083676D01*
X0070639Y0083534D01*
X0070627D01*
X0070443Y0083676D01*
X0070228Y0083765D01*
X0069998Y0083795D01*
X0069768Y0083765D01*
X0069553Y0083676D01*
X0069369Y0083534D01*
X0069357D01*
X0069173Y0083676D01*
X0068958Y0083765D01*
X0068728Y0083795D01*
X0068498Y0083765D01*
X0068283Y0083676D01*
X0068099Y0083534D01*
X0068087D01*
X0067903Y0083676D01*
X0067688Y0083765D01*
X0067585Y0083778D01*
Y0082905D01*
X0067331D01*
Y0083778D01*
X0067228Y0083765D01*
X0067013Y0083676D01*
X0066829Y0083534D01*
X0066817D01*
X0066633Y0083676D01*
X0066418Y0083765D01*
X0066188Y0083795D01*
X0065958Y0083765D01*
X0065743Y0083676D01*
X0065559Y0083534D01*
X0065547D01*
X0065363Y0083676D01*
X0065148Y0083765D01*
X0064918Y0083795D01*
X0064688Y0083765D01*
X0064473Y0083676D01*
X0064289Y0083534D01*
X0064147Y0083350D01*
X0064058Y0083135D01*
X0064028Y0082905D01*
X0064058Y0082675D01*
X0064147Y0082460D01*
X0064289Y0082276D01*
X0064473Y0082134D01*
X0064688Y0082045D01*
X0064918Y0082015D01*
X0065148Y0082045D01*
X0065363Y0082134D01*
X0065547Y0082276D01*
X0065559D01*
X0065743Y0082134D01*
X0065958Y0082045D01*
X0066188Y0082015D01*
X0066418Y0082045D01*
X0066633Y0082134D01*
X0066817Y0082276D01*
X0066829D01*
X0067013Y0082134D01*
X0067134Y0082084D01*
X0067104Y0081937D01*
X0066999D01*
Y0081014D01*
X0068199D01*
Y0080760D01*
X0066999D01*
Y0080143D01*
X0066300D01*
X0066163Y0080248D01*
X0065920Y0080349D01*
X0065659Y0080384D01*
X0065398Y0080349D01*
X0065155Y0080248D01*
X0064946Y0080088D01*
X0064785Y0079879D01*
X0064685Y0079636D01*
X0064650Y0079375D01*
X0064685Y0079114D01*
X0064785Y0078871D01*
X0064946Y0078662D01*
X0065155Y0078502D01*
X0065398Y0078401D01*
X0065659Y0078366D01*
X0065920Y0078401D01*
X0065954Y0078415D01*
X0066079Y0078332D01*
Y0077466D01*
X0065419D01*
X0065223Y0077441D01*
X0065041Y0077365D01*
X0064884Y0077245D01*
X0064458Y0076818D01*
X0064319Y0076876D01*
Y0077077D01*
X0061919D01*
Y0076754D01*
Y0076436D01*
X0061505D01*
X0061505Y0076436D01*
X0061309Y0076411D01*
X0061126Y0076335D01*
X0060970Y0076215D01*
X0060970Y0076215D01*
X0059973Y0075218D01*
X0058393D01*
Y0074720D01*
X0058251Y0074672D01*
X0058123Y0074838D01*
X0057846Y0075051D01*
X0057524Y0075184D01*
X0057178Y0075230D01*
X0056832Y0075184D01*
X0056510Y0075051D01*
X0056233Y0074838D01*
X0056021Y0074562D01*
X0055887Y0074239D01*
X0055842Y0073893D01*
X0055887Y0073548D01*
X0056021Y0073225D01*
X0056233Y0072948D01*
X0056510Y0072736D01*
X0056601Y0072698D01*
Y0072548D01*
X0056510Y0072511D01*
X0056233Y0072298D01*
X0056021Y0072022D01*
X0055887Y0071699D01*
X0055842Y0071353D01*
X0055887Y0071008D01*
X0056021Y0070685D01*
X0056233Y0070408D01*
X0056510Y0070196D01*
X0056601Y0070158D01*
Y0070008D01*
X0056510Y0069971D01*
X0056233Y0069758D01*
X0056021Y0069482D01*
X0055887Y0069159D01*
X0055842Y0068813D01*
X0055887Y0068468D01*
X0056021Y0068145D01*
X0056233Y0067868D01*
X0056510Y0067656D01*
X0056601Y0067618D01*
Y0067468D01*
X0056510Y0067431D01*
X0056233Y0067218D01*
X0056021Y0066942D01*
X0055887Y0066619D01*
X0055842Y0066273D01*
X0055887Y0065928D01*
X0056021Y0065605D01*
X0056233Y0065328D01*
X0056510Y0065116D01*
X0056601Y0065078D01*
Y0064928D01*
X0056510Y0064891D01*
X0056233Y0064678D01*
X0056021Y0064402D01*
X0055887Y0064079D01*
X0055842Y0063733D01*
X0055887Y0063388D01*
X0056021Y0063065D01*
X0056233Y0062788D01*
X0056510Y0062576D01*
X0056601Y0062538D01*
Y0062388D01*
X0056510Y0062351D01*
X0056233Y0062138D01*
X0056021Y0061862D01*
X0055887Y0061539D01*
X0055842Y0061193D01*
X0055887Y0060848D01*
X0056021Y0060525D01*
X0056233Y0060248D01*
X0056510Y0060036D01*
X0056601Y0059998D01*
Y0059848D01*
X0056510Y0059811D01*
X0056233Y0059598D01*
X0056021Y0059322D01*
X0055887Y0058999D01*
X0055842Y0058653D01*
X0055887Y0058308D01*
X0056021Y0057985D01*
X0056233Y0057708D01*
X0056510Y0057496D01*
X0056601Y0057458D01*
Y0057308D01*
X0056510Y0057271D01*
X0056233Y0057058D01*
X0056021Y0056782D01*
X0055887Y0056459D01*
X0055842Y0056113D01*
X0055887Y0055768D01*
X0056021Y0055445D01*
X0056233Y0055168D01*
X0056510Y0054956D01*
X0056601Y0054918D01*
Y0054768D01*
X0056510Y0054731D01*
X0056233Y0054518D01*
X0056021Y0054242D01*
X0055887Y0053919D01*
X0055842Y0053573D01*
X0055887Y0053228D01*
X0056021Y0052905D01*
X0056233Y0052628D01*
X0056510Y0052416D01*
X0056601Y0052378D01*
Y0052228D01*
X0056510Y0052191D01*
X0056233Y0051978D01*
X0056021Y0051702D01*
X0055887Y0051379D01*
X0055842Y0051033D01*
X0055887Y0050688D01*
X0056021Y0050365D01*
X0056233Y0050088D01*
X0056510Y0049876D01*
X0056832Y0049743D01*
X0057178Y0049697D01*
X0057524Y0049743D01*
X0057846Y0049876D01*
X0058123Y0050088D01*
X0058335Y0050365D01*
X0058373Y0050456D01*
X0058523D01*
X0058561Y0050365D01*
X0058773Y0050088D01*
X0059050Y0049876D01*
X0059372Y0049743D01*
X0059718Y0049697D01*
X0060064Y0049743D01*
X0060386Y0049876D01*
X0060663Y0050088D01*
X0060875Y0050365D01*
X0061009Y0050688D01*
X0061054Y0051033D01*
X0061009Y0051379D01*
X0060875Y0051702D01*
X0060663Y0051978D01*
X0060386Y0052191D01*
X0060295Y0052228D01*
Y0052378D01*
X0060386Y0052416D01*
X0060663Y0052628D01*
X0060875Y0052905D01*
X0061009Y0053228D01*
X0061054Y0053573D01*
X0061009Y0053919D01*
X0060875Y0054242D01*
X0060663Y0054518D01*
X0060386Y0054731D01*
X0060295Y0054768D01*
Y0054918D01*
X0060386Y0054956D01*
X0060663Y0055168D01*
X0060875Y0055445D01*
X0061009Y0055768D01*
X0061054Y0056113D01*
X0061009Y0056459D01*
X0060875Y0056782D01*
X0060663Y0057058D01*
X0060386Y0057271D01*
X0060295Y0057308D01*
Y0057458D01*
X0060386Y0057496D01*
X0060663Y0057708D01*
X0060875Y0057985D01*
X0061009Y0058308D01*
X0061022Y0058407D01*
X0061164Y0058455D01*
X0067493Y0052126D01*
X0067700Y0051987D01*
X0067945Y0051939D01*
X0069715D01*
X0069772Y0051865D01*
X0069981Y0051704D01*
X0070224Y0051604D01*
X0070485Y0051569D01*
X0070746Y0051604D01*
X0070989Y0051704D01*
X0071189Y0051858D01*
D01*
X0071237Y0051803D01*
X0071241Y0051698D01*
X0066976Y0047433D01*
X0066975Y0047432D01*
X0065075D01*
Y0046702D01*
X0064353Y0045980D01*
X0064233Y0045823D01*
X0064211Y0045770D01*
X0064157Y0045641D01*
X0064132Y0045445D01*
Y0044338D01*
X0064006D01*
Y0042572D01*
X0065771D01*
Y0042572D01*
X0065852Y0042627D01*
X0065928Y0042595D01*
X0066031Y0042582D01*
Y0043455D01*
X0066285D01*
Y0042582D01*
X0066388Y0042595D01*
X0066603Y0042684D01*
X0066787Y0042826D01*
X0066799D01*
X0066983Y0042684D01*
X0067198Y0042595D01*
X0067428Y0042565D01*
X0067658Y0042595D01*
X0067873Y0042684D01*
X0068057Y0042826D01*
X0068069D01*
X0068253Y0042684D01*
X0068468Y0042595D01*
X0068698Y0042565D01*
X0068928Y0042595D01*
X0069143Y0042684D01*
X0069327Y0042826D01*
X0069339D01*
X0069523Y0042684D01*
X0069738Y0042595D01*
X0069841Y0042582D01*
Y0043455D01*
Y0044328D01*
X0069738Y0044315D01*
X0069523Y0044226D01*
X0069456Y0044175D01*
X0069322Y0044241D01*
Y0045532D01*
X0071033D01*
Y0045726D01*
X0075887D01*
X0076979Y0044634D01*
X0077004Y0044443D01*
X0077104Y0044200D01*
X0077265Y0043991D01*
X0077474Y0043831D01*
X0077717Y0043730D01*
X0077978Y0043695D01*
X0078239Y0043730D01*
X0078482Y0043831D01*
X0078691Y0043991D01*
X0078852Y0044200D01*
X0078952Y0044443D01*
X0078987Y0044704D01*
X0078952Y0044965D01*
X0078852Y0045208D01*
X0078691Y0045417D01*
X0078482Y0045577D01*
X0078239Y0045678D01*
X0078048Y0045703D01*
X0076735Y0047017D01*
X0076578Y0047137D01*
X0076396Y0047213D01*
X0076200Y0047238D01*
X0071033D01*
Y0047432D01*
X0070630D01*
X0070573Y0047571D01*
X0074838Y0051836D01*
X0074930Y0051823D01*
X0075191Y0051858D01*
X0075434Y0051958D01*
X0075537Y0052037D01*
X0075692Y0052057D01*
X0075742Y0052044D01*
X0075835Y0051820D01*
X0075995Y0051611D01*
X0076204Y0051451D01*
X0076215Y0051431D01*
X0076115Y0051188D01*
X0076080Y0050927D01*
X0076115Y0050666D01*
X0076215Y0050423D01*
X0076376Y0050214D01*
X0076585Y0050054D01*
X0076828Y0049953D01*
X0077089Y0049918D01*
X0077350Y0049953D01*
X0077593Y0050054D01*
X0077802Y0050214D01*
X0077963Y0050423D01*
X0078063Y0050666D01*
X0078098Y0050927D01*
X0078085Y0051019D01*
X0078936Y0051870D01*
X0079032Y0051851D01*
X0079102Y0051718D01*
X0079056Y0051607D01*
X0079033Y0051431D01*
X0079056Y0051255D01*
X0079124Y0051091D01*
X0079233Y0050950D01*
X0079374Y0050841D01*
X0079538Y0050773D01*
X0079714Y0050750D01*
X0081364D01*
X0081433Y0050759D01*
X0081915Y0050277D01*
X0081867Y0050135D01*
X0081781Y0050123D01*
X0081538Y0050022D01*
X0081329Y0049862D01*
X0081169Y0049653D01*
X0081068Y0049410D01*
X0081033Y0049149D01*
X0081068Y0048888D01*
X0081169Y0048645D01*
X0081329Y0048436D01*
X0081403Y0048379D01*
Y0043572D01*
X0080737Y0042906D01*
X0080645Y0042919D01*
X0080384Y0042884D01*
X0080141Y0042784D01*
X0079932Y0042623D01*
X0079771Y0042414D01*
X0079671Y0042171D01*
X0079636Y0041910D01*
X0079671Y0041649D01*
X0079771Y0041406D01*
X0079932Y0041197D01*
X0080141Y0041036D01*
X0080384Y0040936D01*
X0080645Y0040901D01*
X0080906Y0040936D01*
X0081149Y0041036D01*
X0081358Y0041197D01*
X0081519Y0041406D01*
X0081619Y0041649D01*
X0081654Y0041910D01*
X0081641Y0042002D01*
X0082494Y0042855D01*
X0082633Y0043062D01*
X0082646Y0043131D01*
X0082796Y0043116D01*
Y0042572D01*
X0084561D01*
Y0042572D01*
X0084642Y0042627D01*
X0084718Y0042595D01*
X0084821Y0042582D01*
Y0043455D01*
X0085075D01*
Y0042582D01*
X0085178Y0042595D01*
X0085393Y0042684D01*
X0085577Y0042826D01*
X0085589D01*
X0085773Y0042684D01*
X0085988Y0042595D01*
X0086218Y0042565D01*
X0086448Y0042595D01*
X0086663Y0042684D01*
X0086847Y0042826D01*
X0086859D01*
X0087043Y0042684D01*
X0087258Y0042595D01*
X0087488Y0042565D01*
X0087718Y0042595D01*
X0087933Y0042684D01*
X0088117Y0042826D01*
X0088129D01*
X0088313Y0042684D01*
X0088528Y0042595D01*
X0088631Y0042582D01*
Y0043455D01*
Y0044328D01*
X0088528Y0044315D01*
X0088313Y0044226D01*
X0088289Y0044207D01*
X0088154Y0044274D01*
Y0045532D01*
X0089865D01*
Y0047432D01*
X0088051D01*
X0087967Y0047557D01*
X0082991Y0052533D01*
X0082784Y0052672D01*
X0082539Y0052720D01*
X0082054D01*
X0082045Y0052731D01*
X0082022Y0052907D01*
X0081960Y0053056D01*
X0082022Y0053205D01*
X0082045Y0053381D01*
X0082022Y0053557D01*
X0081960Y0053706D01*
X0082022Y0053855D01*
X0082045Y0054031D01*
X0082022Y0054207D01*
X0081960Y0054356D01*
X0082022Y0054505D01*
X0082045Y0054681D01*
X0082022Y0054857D01*
X0081960Y0055006D01*
X0082022Y0055155D01*
X0082045Y0055331D01*
X0082022Y0055507D01*
X0081960Y0055656D01*
X0082022Y0055805D01*
X0082045Y0055981D01*
X0082022Y0056157D01*
X0081960Y0056306D01*
X0082022Y0056455D01*
X0082045Y0056631D01*
X0082022Y0056807D01*
X0081960Y0056956D01*
X0082022Y0057105D01*
X0082045Y0057281D01*
X0082022Y0057457D01*
X0081954Y0057621D01*
X0081944Y0057634D01*
X0082565Y0058254D01*
X0082685Y0058411D01*
X0082718Y0058490D01*
X0085078D01*
Y0059690D01*
X0085205D01*
Y0059817D01*
X0086255D01*
Y0060473D01*
X0086394Y0060530D01*
X0086864Y0060060D01*
Y0059309D01*
X0086864Y0059309D01*
X0086864D01*
X0086912Y0059064D01*
X0087051Y0058857D01*
X0088250Y0057658D01*
Y0057404D01*
X0088116Y0057270D01*
X0087854D01*
X0087845Y0057281D01*
X0087843Y0057270D01*
X0087384D01*
X0087340Y0057289D01*
X0087164Y0057312D01*
X0085514D01*
X0085338Y0057289D01*
X0085174Y0057221D01*
X0085087Y0057154D01*
X0084850D01*
X0084856Y0057105D01*
X0084918Y0056956D01*
X0084856Y0056807D01*
X0084833Y0056631D01*
X0084856Y0056455D01*
X0084918Y0056306D01*
X0084856Y0056157D01*
X0084833Y0055981D01*
X0084856Y0055805D01*
X0084918Y0055656D01*
X0084856Y0055507D01*
X0084833Y0055331D01*
X0084856Y0055155D01*
X0084918Y0055006D01*
X0084856Y0054857D01*
X0084833Y0054681D01*
X0084856Y0054505D01*
X0084918Y0054356D01*
X0084856Y0054207D01*
X0084833Y0054031D01*
X0084856Y0053855D01*
X0084918Y0053706D01*
X0084856Y0053557D01*
X0084833Y0053381D01*
X0084856Y0053205D01*
X0084918Y0053056D01*
X0084856Y0052907D01*
X0084833Y0052731D01*
X0084856Y0052555D01*
X0084918Y0052406D01*
X0084856Y0052257D01*
X0084833Y0052081D01*
X0084856Y0051905D01*
X0084918Y0051756D01*
X0084856Y0051607D01*
X0084833Y0051431D01*
X0084856Y0051255D01*
X0084924Y0051091D01*
X0085033Y0050950D01*
X0085174Y0050841D01*
X0085338Y0050773D01*
X0085514Y0050750D01*
X0087164D01*
X0087340Y0050773D01*
X0087384Y0050792D01*
X0087877D01*
X0089337Y0049332D01*
X0089544Y0049193D01*
X0089789Y0049145D01*
X0091559D01*
X0091616Y0049071D01*
X0091825Y0048910D01*
X0092068Y0048810D01*
X0092329Y0048775D01*
X0092590Y0048810D01*
X0092833Y0048910D01*
X0093042Y0049071D01*
X0093202Y0049280D01*
X0093303Y0049523D01*
X0093338Y0049784D01*
X0093303Y0050045D01*
X0093202Y0050288D01*
X0093042Y0050497D01*
X0092833Y0050658D01*
X0092590Y0050758D01*
X0092329Y0050793D01*
X0092303Y0050789D01*
X0092184Y0050881D01*
X0092160Y0051061D01*
X0092060Y0051304D01*
X0091899Y0051513D01*
X0091690Y0051674D01*
X0091447Y0051774D01*
X0091186Y0051809D01*
X0090925Y0051774D01*
X0090682Y0051674D01*
X0090473Y0051513D01*
X0090368Y0051506D01*
X0089921Y0051953D01*
X0089978Y0052092D01*
X0097054D01*
X0097299Y0052140D01*
X0097506Y0052279D01*
X0097506Y0052279D01*
X0097506Y0052279D01*
X0098161Y0052934D01*
X0099189D01*
X0099201Y0052905D01*
X0099413Y0052628D01*
X0099690Y0052416D01*
X0099781Y0052378D01*
Y0052228D01*
X0099690Y0052191D01*
X0099413Y0051978D01*
X0099201Y0051702D01*
X0099067Y0051379D01*
X0099022Y0051033D01*
X0099067Y0050688D01*
X0099201Y0050365D01*
X0099413Y0050088D01*
X0099690Y0049876D01*
X0100012Y0049743D01*
X0100358Y0049697D01*
X0100704Y0049743D01*
X0101026Y0049876D01*
X0101303Y0050088D01*
X0101515Y0050365D01*
X0101553Y0050456D01*
X0101703D01*
X0101741Y0050365D01*
X0101953Y0050088D01*
X0102230Y0049876D01*
X0102552Y0049743D01*
X0102898Y0049697D01*
X0103244Y0049743D01*
X0103566Y0049876D01*
X0103843Y0050088D01*
X0104055Y0050365D01*
X0104189Y0050688D01*
X0104234Y0051033D01*
X0104189Y0051379D01*
X0104055Y0051702D01*
X0103843Y0051978D01*
X0103566Y0052191D01*
X0103475Y0052228D01*
Y0052378D01*
X0103566Y0052416D01*
X0103843Y0052628D01*
X0104055Y0052905D01*
X0104189Y0053228D01*
X0104234Y0053573D01*
X0104189Y0053919D01*
X0104055Y0054242D01*
X0103843Y0054518D01*
X0103566Y0054731D01*
X0103475Y0054768D01*
Y0054918D01*
X0103566Y0054956D01*
X0103843Y0055168D01*
X0104055Y0055445D01*
X0104189Y0055768D01*
X0104234Y0056113D01*
X0104189Y0056459D01*
X0104055Y0056782D01*
X0103843Y0057058D01*
X0103566Y0057271D01*
X0103475Y0057308D01*
Y0057458D01*
X0103566Y0057496D01*
X0103843Y0057708D01*
X0104055Y0057985D01*
X0104189Y0058308D01*
X0104234Y0058653D01*
X0104189Y0058999D01*
X0104055Y0059322D01*
X0103843Y0059598D01*
X0103566Y0059811D01*
X0103475Y0059848D01*
Y0059998D01*
X0103566Y0060036D01*
X0103843Y0060248D01*
X0104055Y0060525D01*
X0104189Y0060848D01*
X0104234Y0061193D01*
X0104189Y0061539D01*
X0104055Y0061862D01*
X0103843Y0062138D01*
X0103566Y0062351D01*
X0103475Y0062388D01*
Y0062538D01*
X0103566Y0062576D01*
X0103843Y0062788D01*
X0104055Y0063065D01*
X0104189Y0063388D01*
X0104234Y0063733D01*
X0104189Y0064079D01*
X0104055Y0064402D01*
X0103843Y0064678D01*
X0103566Y0064891D01*
X0103475Y0064928D01*
Y0065078D01*
X0103566Y0065116D01*
X0103843Y0065328D01*
X0104055Y0065605D01*
X0104189Y0065928D01*
X0104234Y0066273D01*
X0104189Y0066619D01*
X0104055Y0066942D01*
X0103843Y0067218D01*
X0103566Y0067431D01*
X0103475Y0067468D01*
Y0067618D01*
X0103566Y0067656D01*
X0103843Y0067868D01*
X0104055Y0068145D01*
X0104189Y0068468D01*
X0104234Y0068813D01*
X0104189Y0069159D01*
X0104055Y0069482D01*
X0103843Y0069758D01*
X0103566Y0069971D01*
X0103475Y0070008D01*
Y0070158D01*
X0103566Y0070196D01*
X0103843Y0070408D01*
X0104055Y0070685D01*
X0104189Y0071008D01*
X0104234Y0071353D01*
X0104189Y0071699D01*
X0104055Y0072022D01*
X0103843Y0072298D01*
X0103566Y0072511D01*
X0103578Y0072568D01*
X0104223D01*
Y0073766D01*
X0102898D01*
Y0073893D01*
X0102771D01*
Y0075218D01*
X0101573D01*
Y0074720D01*
X0101431Y0074672D01*
X0101303Y0074838D01*
X0101026Y0075051D01*
X0100704Y0075184D01*
X0100358Y0075230D01*
X0100012Y0075184D01*
X0099690Y0075051D01*
X0099413Y0074838D01*
X0099201Y0074562D01*
X0099067Y0074239D01*
X0099022Y0073893D01*
X0099067Y0073548D01*
X0099201Y0073225D01*
X0099413Y0072948D01*
X0099690Y0072736D01*
X0099781Y0072698D01*
Y0072548D01*
X0099690Y0072511D01*
X0099413Y0072298D01*
X0099201Y0072022D01*
X0099067Y0071699D01*
X0099022Y0071353D01*
X0099067Y0071008D01*
X0099201Y0070685D01*
X0099413Y0070408D01*
X0099690Y0070196D01*
X0099781Y0070158D01*
Y0070008D01*
X0099690Y0069971D01*
X0099413Y0069758D01*
X0099201Y0069482D01*
X0099067Y0069159D01*
X0099022Y0068813D01*
X0099067Y0068468D01*
X0099201Y0068145D01*
X0099413Y0067868D01*
X0099690Y0067656D01*
X0099781Y0067618D01*
Y0067468D01*
X0099690Y0067431D01*
X0099413Y0067218D01*
X0099201Y0066942D01*
X0099067Y0066619D01*
X0099022Y0066273D01*
X0099067Y0065928D01*
X0099079Y0065899D01*
X0096703Y0063522D01*
X0096564Y0063315D01*
X0096516Y0063070D01*
Y0059955D01*
X0096008Y0059447D01*
X0095883Y0059530D01*
X0095968Y0059735D01*
X0095998Y0059965D01*
X0095968Y0060195D01*
X0095879Y0060410D01*
X0095737Y0060594D01*
X0095553Y0060736D01*
X0095338Y0060825D01*
X0095108Y0060855D01*
X0094878Y0060825D01*
X0094663Y0060736D01*
X0094479Y0060594D01*
X0094467D01*
X0094283Y0060736D01*
X0094068Y0060825D01*
X0093838Y0060855D01*
X0093608Y0060825D01*
X0093393Y0060736D01*
X0093209Y0060594D01*
X0093197D01*
X0093013Y0060736D01*
X0092798Y0060825D01*
X0092568Y0060855D01*
X0092338Y0060825D01*
X0092123Y0060736D01*
X0091939Y0060594D01*
X0091927D01*
X0091743Y0060736D01*
X0091528Y0060825D01*
X0091298Y0060855D01*
X0091068Y0060825D01*
X0090853Y0060736D01*
X0090669Y0060594D01*
X0090657D01*
X0090473Y0060736D01*
X0090258Y0060825D01*
X0090028Y0060855D01*
X0089798Y0060825D01*
X0089583Y0060736D01*
X0089399Y0060594D01*
X0089387D01*
X0089203Y0060736D01*
X0088988Y0060825D01*
X0088758Y0060855D01*
X0088528Y0060825D01*
X0088313Y0060736D01*
X0088182Y0060635D01*
X0088047Y0060657D01*
X0088023Y0060676D01*
X0087955Y0060777D01*
X0086939Y0061793D01*
X0086732Y0061932D01*
X0086487Y0061980D01*
X0084974D01*
X0081713Y0065241D01*
X0081796Y0065366D01*
X0081908Y0065320D01*
X0082169Y0065285D01*
X0082430Y0065320D01*
X0082673Y0065421D01*
X0082882Y0065581D01*
X0082946Y0065664D01*
X0083008Y0065712D01*
X0083128Y0065727D01*
X0083263Y0065624D01*
X0083478Y0065535D01*
X0083708Y0065505D01*
X0083938Y0065535D01*
X0084153Y0065624D01*
X0084337Y0065766D01*
X0084349D01*
X0084533Y0065624D01*
X0084748Y0065535D01*
X0084978Y0065505D01*
X0085208Y0065535D01*
X0085423Y0065624D01*
X0085607Y0065766D01*
X0085619D01*
X0085803Y0065624D01*
X0086018Y0065535D01*
X0086248Y0065505D01*
X0086478Y0065535D01*
X0086693Y0065624D01*
X0086877Y0065766D01*
X0086889D01*
X0087073Y0065624D01*
X0087288Y0065535D01*
X0087518Y0065505D01*
X0087748Y0065535D01*
X0087963Y0065624D01*
X0088147Y0065766D01*
X0088159D01*
X0088343Y0065624D01*
X0088558Y0065535D01*
X0088788Y0065505D01*
X0089018Y0065535D01*
X0089233Y0065624D01*
X0089417Y0065766D01*
X0089429D01*
X0089613Y0065624D01*
X0089828Y0065535D01*
X0090058Y0065505D01*
X0090288Y0065535D01*
X0090503Y0065624D01*
X0090687Y0065766D01*
X0090829Y0065950D01*
X0090918Y0066165D01*
X0090948Y0066395D01*
X0090918Y0066625D01*
X0090829Y0066840D01*
X0090687Y0067024D01*
X0090503Y0067166D01*
X0090288Y0067255D01*
X0090058Y0067285D01*
X0089828Y0067255D01*
X0089613Y0067166D01*
X0089429Y0067024D01*
X0089417D01*
X0089233Y0067166D01*
X0089018Y0067255D01*
X0088788Y0067285D01*
X0088558Y0067255D01*
X0088343Y0067166D01*
X0088159Y0067024D01*
X0088147D01*
X0087963Y0067166D01*
X0087748Y0067255D01*
X0087518Y0067285D01*
X0087288Y0067255D01*
X0087073Y0067166D01*
X0086889Y0067024D01*
X0086877D01*
X0086693Y0067166D01*
X0086478Y0067255D01*
X0086248Y0067285D01*
X0086018Y0067255D01*
X0085803Y0067166D01*
X0085619Y0067024D01*
X0085607D01*
X0085423Y0067166D01*
X0085208Y0067255D01*
X0084978Y0067285D01*
X0084748Y0067255D01*
X0084533Y0067166D01*
X0084349Y0067024D01*
X0084337D01*
X0084153Y0067166D01*
X0083938Y0067255D01*
X0083708Y0067285D01*
X0083478Y0067255D01*
X0083263Y0067166D01*
X0083079Y0067024D01*
X0083049Y0066986D01*
X0082899D01*
X0082882Y0067007D01*
X0082808Y0067064D01*
Y0068162D01*
X0092484Y0077838D01*
X0092623Y0078045D01*
X0092648Y0078171D01*
X0094945D01*
Y0078901D01*
X0095673Y0079629D01*
X0095793Y0079786D01*
X0095869Y0079968D01*
X0095882Y0080066D01*
X0095894Y0080164D01*
X0095894Y0080164D01*
Y0082022D01*
X0096021D01*
Y0083787D01*
X0094256D01*
Y0083787D01*
X0094174Y0083733D01*
X0094098Y0083765D01*
X0093995Y0083778D01*
Y0082905D01*
Y0082032D01*
X0094098Y0082045D01*
X0094174Y0082077D01*
X0094256Y0082022D01*
Y0082022D01*
X0094382Y0082022D01*
Y0080477D01*
X0093975Y0080071D01*
X0093237D01*
Y0082107D01*
X0093372Y0082173D01*
X0093423Y0082134D01*
X0093638Y0082045D01*
X0093741Y0082032D01*
Y0082905D01*
Y0083778D01*
X0093638Y0083765D01*
X0093423Y0083676D01*
X0093239Y0083534D01*
X0093227D01*
X0093043Y0083676D01*
X0092828Y0083765D01*
X0092598Y0083795D01*
D02*
G37*
G36*
X0062992Y0078254D02*
X0061919D01*
Y0077331D01*
X0062992D01*
Y0078254D01*
D02*
G37*
G36*
X0104223Y0075218D02*
X0103025D01*
Y0074020D01*
X0104223D01*
Y0075218D01*
D02*
G37*
G36*
X0091318Y0087916D02*
X0090992Y0087873D01*
X0090688Y0087747D01*
X0090426Y0087547D01*
X0090226Y0087285D01*
X0090123Y0087036D01*
X0089973D01*
X0089870Y0087285D01*
X0089670Y0087547D01*
X0089408Y0087747D01*
X0089104Y0087873D01*
X0088905Y0087899D01*
Y0086655D01*
Y0085411D01*
X0089104Y0085437D01*
X0089408Y0085563D01*
X0089670Y0085763D01*
X0089870Y0086025D01*
X0089973Y0086274D01*
X0090123D01*
X0090226Y0086025D01*
X0090426Y0085763D01*
X0090688Y0085563D01*
X0090992Y0085437D01*
X0091318Y0085394D01*
X0091644Y0085437D01*
X0091948Y0085563D01*
X0092210Y0085763D01*
X0092410Y0086025D01*
X0092513Y0086274D01*
X0092663D01*
X0092766Y0086025D01*
X0092966Y0085763D01*
X0093228Y0085563D01*
X0093532Y0085437D01*
X0093731Y0085411D01*
Y0086655D01*
Y0087899D01*
X0093532Y0087873D01*
X0093228Y0087747D01*
X0092966Y0087547D01*
X0092766Y0087285D01*
X0092663Y0087036D01*
X0092513D01*
X0092410Y0087285D01*
X0092210Y0087547D01*
X0091948Y0087747D01*
X0091644Y0087873D01*
X0091318Y0087916D01*
D02*
G37*
G36*
X0084978Y0083795D02*
X0084748Y0083765D01*
X0084533Y0083676D01*
X0084349Y0083534D01*
X0084337D01*
X0084153Y0083676D01*
X0083938Y0083765D01*
X0083708Y0083795D01*
X0083478Y0083765D01*
X0083263Y0083676D01*
X0083079Y0083534D01*
X0082937Y0083350D01*
X0082848Y0083135D01*
X0082818Y0082905D01*
X0082848Y0082675D01*
X0082937Y0082460D01*
X0083079Y0082276D01*
X0083263Y0082134D01*
X0083478Y0082045D01*
X0083708Y0082015D01*
X0083938Y0082045D01*
X0084153Y0082134D01*
X0084337Y0082276D01*
X0084349D01*
X0084533Y0082134D01*
X0084748Y0082045D01*
X0084978Y0082015D01*
X0085208Y0082045D01*
X0085423Y0082134D01*
X0085607Y0082276D01*
X0085619D01*
X0085803Y0082134D01*
X0086018Y0082045D01*
X0086121Y0082032D01*
Y0082905D01*
Y0083778D01*
X0086018Y0083765D01*
X0085803Y0083676D01*
X0085619Y0083534D01*
X0085607D01*
X0085423Y0083676D01*
X0085208Y0083765D01*
X0084978Y0083795D01*
D02*
G37*
G36*
X0088788D02*
X0088558Y0083765D01*
X0088343Y0083676D01*
X0088159Y0083534D01*
X0088147D01*
X0087963Y0083676D01*
X0087748Y0083765D01*
X0087518Y0083795D01*
X0087288Y0083765D01*
X0087073Y0083676D01*
X0086889Y0083534D01*
X0086877D01*
X0086693Y0083676D01*
X0086478Y0083765D01*
X0086375Y0083778D01*
Y0082905D01*
Y0082032D01*
X0086478Y0082045D01*
X0086693Y0082134D01*
X0086877Y0082276D01*
X0086889D01*
X0087073Y0082134D01*
X0087288Y0082045D01*
X0087518Y0082015D01*
X0087748Y0082045D01*
X0087963Y0082134D01*
X0088147Y0082276D01*
X0088159D01*
X0088343Y0082134D01*
X0088558Y0082045D01*
X0088788Y0082015D01*
X0089018Y0082045D01*
X0089233Y0082134D01*
X0089417Y0082276D01*
X0089429D01*
X0089613Y0082134D01*
X0089828Y0082045D01*
X0089931Y0082032D01*
Y0082905D01*
Y0083778D01*
X0089828Y0083765D01*
X0089613Y0083676D01*
X0089429Y0083534D01*
X0089417D01*
X0089233Y0083676D01*
X0089018Y0083765D01*
X0088788Y0083795D01*
D02*
G37*
G36*
X0064319Y0078254D02*
X0063246D01*
Y0077331D01*
X0064319D01*
Y0078254D01*
D02*
G37*
%LPD*%
G36*
X0069596Y0074960D02*
X0072859D01*
Y0075735D01*
X0072920Y0075760D01*
X0073050Y0075686D01*
X0073067Y0075558D01*
X0073168Y0075315D01*
X0073328Y0075106D01*
X0073537Y0074946D01*
X0073780Y0074845D01*
X0074041Y0074810D01*
X0074302Y0074845D01*
X0074545Y0074946D01*
X0074754Y0075106D01*
X0074772Y0075129D01*
X0074914Y0075080D01*
Y0073299D01*
X0074840Y0073242D01*
X0074680Y0073033D01*
X0074579Y0072790D01*
X0074544Y0072529D01*
X0074579Y0072268D01*
X0074680Y0072025D01*
X0074840Y0071816D01*
X0075049Y0071656D01*
X0075292Y0071555D01*
X0075553Y0071520D01*
X0075814Y0071555D01*
X0076057Y0071656D01*
X0076266Y0071816D01*
X0076308Y0071870D01*
X0076450Y0071822D01*
Y0069716D01*
X0076325Y0069632D01*
X0076207Y0069681D01*
X0075946Y0069716D01*
X0075685Y0069681D01*
X0075442Y0069580D01*
X0075233Y0069420D01*
X0075073Y0069211D01*
X0074972Y0068968D01*
X0074937Y0068707D01*
X0074972Y0068446D01*
X0075073Y0068203D01*
X0075171Y0068074D01*
X0074260Y0067163D01*
X0074168Y0067176D01*
X0073907Y0067141D01*
X0073664Y0067040D01*
X0073455Y0066880D01*
X0073295Y0066671D01*
X0073194Y0066428D01*
X0073159Y0066167D01*
X0073194Y0065906D01*
X0073295Y0065663D01*
X0073455Y0065454D01*
X0073664Y0065294D01*
X0073907Y0065193D01*
X0074168Y0065158D01*
X0074429Y0065193D01*
X0074672Y0065294D01*
X0074881Y0065454D01*
X0075041Y0065663D01*
X0075142Y0065906D01*
X0075177Y0066167D01*
X0075164Y0066259D01*
X0076311Y0067406D01*
X0076450Y0067349D01*
Y0060952D01*
X0076337Y0060853D01*
X0076318Y0060855D01*
X0076088Y0060825D01*
X0075873Y0060736D01*
X0075689Y0060594D01*
X0075677D01*
X0075493Y0060736D01*
X0075278Y0060825D01*
X0075048Y0060855D01*
X0074818Y0060825D01*
X0074603Y0060736D01*
X0074419Y0060594D01*
X0074407D01*
X0074223Y0060736D01*
X0074008Y0060825D01*
X0073778Y0060855D01*
X0073548Y0060825D01*
X0073333Y0060736D01*
X0073149Y0060594D01*
X0073137D01*
X0072953Y0060736D01*
X0072738Y0060825D01*
X0072508Y0060855D01*
X0072278Y0060825D01*
X0072063Y0060736D01*
X0071879Y0060594D01*
X0071867D01*
X0071683Y0060736D01*
X0071468Y0060825D01*
X0071238Y0060855D01*
X0071008Y0060825D01*
X0070793Y0060736D01*
X0070609Y0060594D01*
X0070597D01*
X0070413Y0060736D01*
X0070198Y0060825D01*
X0069968Y0060855D01*
X0069738Y0060825D01*
X0069523Y0060736D01*
X0069339Y0060594D01*
X0069197Y0060410D01*
X0069108Y0060195D01*
X0069078Y0059965D01*
X0069108Y0059735D01*
X0069197Y0059520D01*
X0069339Y0059336D01*
X0069523Y0059194D01*
X0069738Y0059105D01*
X0069968Y0059075D01*
X0070198Y0059105D01*
X0070413Y0059194D01*
X0070597Y0059336D01*
X0070609D01*
X0070793Y0059194D01*
X0071008Y0059105D01*
X0071238Y0059075D01*
X0071468Y0059105D01*
X0071683Y0059194D01*
X0071867Y0059336D01*
X0071879D01*
X0072063Y0059194D01*
X0072278Y0059105D01*
X0072508Y0059075D01*
X0072738Y0059105D01*
X0072953Y0059194D01*
X0073137Y0059336D01*
X0073149D01*
X0073333Y0059194D01*
X0073548Y0059105D01*
X0073778Y0059075D01*
X0074008Y0059105D01*
X0074223Y0059194D01*
X0074407Y0059336D01*
X0074419D01*
X0074603Y0059194D01*
X0074818Y0059105D01*
X0075048Y0059075D01*
X0075278Y0059105D01*
X0075493Y0059194D01*
X0075677Y0059336D01*
X0075689D01*
X0075873Y0059194D01*
X0076088Y0059105D01*
X0076318Y0059075D01*
X0076337Y0059077D01*
X0076450Y0058978D01*
Y0056515D01*
X0076450Y0056515D01*
X0076450D01*
X0076498Y0056270D01*
X0076637Y0056063D01*
X0077241Y0055459D01*
X0077184Y0055320D01*
X0076648D01*
X0076525Y0055443D01*
X0076318Y0055582D01*
X0076073Y0055630D01*
X0075700D01*
X0075643Y0055704D01*
X0075434Y0055864D01*
X0075191Y0055965D01*
X0074930Y0056000D01*
X0074669Y0055965D01*
X0074426Y0055864D01*
X0074217Y0055704D01*
X0074057Y0055495D01*
X0073956Y0055252D01*
X0073921Y0054991D01*
X0073956Y0054730D01*
X0074051Y0054500D01*
X0074026Y0054483D01*
X0071365Y0051822D01*
X0071260Y0051826D01*
X0071240Y0051844D01*
X0071205Y0051874D01*
X0071358Y0052074D01*
X0071459Y0052317D01*
X0071494Y0052578D01*
X0071479Y0052690D01*
X0071501Y0052712D01*
X0071762Y0052747D01*
X0072005Y0052847D01*
X0072214Y0053008D01*
X0072374Y0053217D01*
X0072475Y0053460D01*
X0072510Y0053721D01*
X0072475Y0053982D01*
X0072374Y0054225D01*
X0072214Y0054434D01*
X0072005Y0054595D01*
X0071762Y0054695D01*
X0071501Y0054730D01*
X0071240Y0054695D01*
X0070997Y0054595D01*
X0070788Y0054434D01*
X0070731Y0054360D01*
X0069456D01*
X0065543Y0058273D01*
X0065626Y0058398D01*
X0065779Y0058335D01*
X0066040Y0058300D01*
X0066301Y0058335D01*
X0066544Y0058436D01*
X0066753Y0058596D01*
X0066913Y0058805D01*
X0067014Y0059048D01*
X0067049Y0059309D01*
X0067014Y0059570D01*
X0066913Y0059813D01*
X0066753Y0060022D01*
X0066544Y0060182D01*
X0066301Y0060283D01*
X0066040Y0060318D01*
X0065779Y0060283D01*
X0065582Y0060202D01*
X0063621Y0062162D01*
Y0068648D01*
X0064924Y0069950D01*
X0065044Y0070107D01*
X0065120Y0070289D01*
X0065145Y0070485D01*
X0065145Y0070485D01*
X0065145Y0070485D01*
Y0070485D01*
Y0071860D01*
X0065262Y0072013D01*
X0065363Y0072256D01*
X0065398Y0072517D01*
X0065363Y0072778D01*
X0065262Y0073021D01*
X0065102Y0073230D01*
X0064893Y0073391D01*
X0064650Y0073491D01*
X0064389Y0073526D01*
X0064128Y0073491D01*
X0063885Y0073391D01*
X0063676Y0073230D01*
X0063515Y0073021D01*
X0063415Y0072778D01*
X0063380Y0072517D01*
X0063415Y0072256D01*
X0063515Y0072013D01*
X0063633Y0071860D01*
Y0070798D01*
X0062330Y0069496D01*
X0062210Y0069339D01*
X0062134Y0069157D01*
X0062109Y0068961D01*
Y0061904D01*
X0061970Y0061846D01*
X0060821Y0062995D01*
X0060875Y0063065D01*
X0061009Y0063388D01*
X0061054Y0063733D01*
X0061009Y0064079D01*
X0060875Y0064402D01*
X0060663Y0064678D01*
X0060386Y0064891D01*
X0060295Y0064928D01*
Y0065078D01*
X0060386Y0065116D01*
X0060663Y0065328D01*
X0060875Y0065605D01*
X0061009Y0065928D01*
X0061054Y0066273D01*
X0061009Y0066619D01*
X0060875Y0066942D01*
X0060663Y0067218D01*
X0060386Y0067431D01*
X0060295Y0067468D01*
Y0067618D01*
X0060386Y0067656D01*
X0060663Y0067868D01*
X0060875Y0068145D01*
X0061009Y0068468D01*
X0061054Y0068813D01*
X0061009Y0069159D01*
X0060875Y0069482D01*
X0060663Y0069758D01*
X0060386Y0069971D01*
X0060295Y0070008D01*
Y0070158D01*
X0060386Y0070196D01*
X0060663Y0070408D01*
X0060875Y0070685D01*
X0061009Y0071008D01*
X0061038Y0071226D01*
X0059718D01*
Y0071480D01*
X0061038D01*
X0061009Y0071699D01*
X0060875Y0072022D01*
X0060663Y0072298D01*
X0060386Y0072511D01*
X0060398Y0072568D01*
X0061043D01*
Y0074149D01*
X0061780Y0074886D01*
X0061919Y0074829D01*
Y0074654D01*
X0064319D01*
Y0074924D01*
X0064389D01*
X0064585Y0074949D01*
X0064714Y0075003D01*
X0064767Y0075025D01*
X0064924Y0075145D01*
X0065732Y0075954D01*
X0066079D01*
Y0074960D01*
X0069342D01*
Y0076710D01*
X0069596D01*
Y0074960D01*
D02*
G37*
%LPC*%
G36*
X0069342Y0072360D02*
X0067369D01*
Y0070737D01*
X0069342D01*
Y0072360D01*
D02*
G37*
G36*
X0071569D02*
X0069596D01*
Y0070737D01*
X0071569D01*
Y0072360D01*
D02*
G37*
G36*
Y0070483D02*
X0069596D01*
Y0068860D01*
X0071569D01*
Y0070483D01*
D02*
G37*
G36*
X0071268Y0067285D02*
X0071038Y0067255D01*
X0070823Y0067166D01*
X0070639Y0067024D01*
X0070627D01*
X0070443Y0067166D01*
X0070228Y0067255D01*
X0069998Y0067285D01*
X0069768Y0067255D01*
X0069553Y0067166D01*
X0069369Y0067024D01*
X0069357D01*
X0069173Y0067166D01*
X0068958Y0067255D01*
X0068728Y0067285D01*
X0068498Y0067255D01*
X0068283Y0067166D01*
X0068099Y0067024D01*
X0068087D01*
X0067903Y0067166D01*
X0067688Y0067255D01*
X0067458Y0067285D01*
X0067228Y0067255D01*
X0067013Y0067166D01*
X0066829Y0067024D01*
X0066817D01*
X0066633Y0067166D01*
X0066418Y0067255D01*
X0066188Y0067285D01*
X0065958Y0067255D01*
X0065743Y0067166D01*
X0065559Y0067024D01*
X0065547D01*
X0065363Y0067166D01*
X0065148Y0067255D01*
X0064918Y0067285D01*
X0064688Y0067255D01*
X0064473Y0067166D01*
X0064289Y0067024D01*
X0064147Y0066840D01*
X0064058Y0066625D01*
X0064028Y0066395D01*
X0064058Y0066165D01*
X0064147Y0065950D01*
X0064289Y0065766D01*
X0064473Y0065624D01*
X0064688Y0065535D01*
X0064918Y0065505D01*
X0065148Y0065535D01*
X0065363Y0065624D01*
X0065547Y0065766D01*
X0065559D01*
X0065743Y0065624D01*
X0065958Y0065535D01*
X0066188Y0065505D01*
X0066418Y0065535D01*
X0066633Y0065624D01*
X0066817Y0065766D01*
X0066829D01*
X0067013Y0065624D01*
X0067228Y0065535D01*
X0067458Y0065505D01*
X0067688Y0065535D01*
X0067903Y0065624D01*
X0068087Y0065766D01*
X0068099D01*
X0068283Y0065624D01*
X0068498Y0065535D01*
X0068728Y0065505D01*
X0068958Y0065535D01*
X0069173Y0065624D01*
X0069357Y0065766D01*
X0069369D01*
X0069553Y0065624D01*
X0069768Y0065535D01*
X0069998Y0065505D01*
X0070228Y0065535D01*
X0070443Y0065624D01*
X0070627Y0065766D01*
X0070639D01*
X0070823Y0065624D01*
X0071038Y0065535D01*
X0071268Y0065505D01*
X0071498Y0065535D01*
X0071713Y0065624D01*
X0071897Y0065766D01*
X0072039Y0065950D01*
X0072128Y0066165D01*
X0072158Y0066395D01*
X0072128Y0066625D01*
X0072039Y0066840D01*
X0071897Y0067024D01*
X0071713Y0067166D01*
X0071498Y0067255D01*
X0071268Y0067285D01*
D02*
G37*
G36*
X0069342Y0070483D02*
X0067369D01*
Y0068860D01*
X0069342D01*
Y0070483D01*
D02*
G37*
%LPD*%
D10*
X0089015Y0046482D02*
D03*
X0087515D02*
D03*
X0084721Y0046482D02*
D03*
X0086221D02*
D03*
X0070183Y0046482D02*
D03*
X0068683D02*
D03*
X0065925Y0046482D02*
D03*
X0067425D02*
D03*
X0091301Y0079121D02*
D03*
X0089801D02*
D03*
X0092595Y0079121D02*
D03*
X0094095D02*
D03*
X0075553Y0079121D02*
D03*
X0074053D02*
D03*
X0081903Y0059563D02*
D03*
X0080403D02*
D03*
D11*
X0077597Y0077482D02*
D03*
Y0078982D02*
D03*
D12*
X0074168Y0066167D02*
X0075946Y0067945D01*
X0074041Y0066040D02*
X0074168Y0066167D01*
X0075946Y0067945D02*
Y0068707D01*
X0087503Y0059309D02*
Y0060325D01*
X0086487Y0061341D02*
X0087503Y0060325D01*
X0084709Y0061341D02*
X0086487D01*
X0079883Y0066167D02*
X0084709Y0061341D01*
X0088889Y0057139D02*
Y0057923D01*
X0087503Y0059309D02*
X0088889Y0057923D01*
X0086339Y0056631D02*
X0088381D01*
X0088889Y0057139D01*
X0086339Y0055981D02*
X0093446D01*
X0097155Y0059690D01*
X0086339Y0055331D02*
X0094193D01*
X0098171Y0059309D01*
X0077089Y0074803D02*
X0077597Y0075311D01*
X0077089Y0056515D02*
Y0074803D01*
Y0056515D02*
X0078273Y0055331D01*
X0077851Y0071906D02*
X0078232Y0072287D01*
X0077851Y0057023D02*
Y0071906D01*
Y0057023D02*
X0078893Y0055981D01*
X0090170Y0050800D02*
X0091186D01*
X0088889Y0052081D02*
X0090170Y0050800D01*
X0086339Y0052081D02*
X0088889D01*
X0089789Y0049784D02*
X0092329D01*
X0088142Y0051431D02*
X0089789Y0049784D01*
X0086339Y0051431D02*
X0088142D01*
X0070485Y0052578D02*
X0070739D01*
X0067945D02*
X0070485D01*
X0082042Y0043307D02*
Y0049149D01*
X0080645Y0041910D02*
X0082042Y0043307D01*
X0060579Y0059944D02*
X0067945Y0052578D01*
X0058427Y0059944D02*
X0060579D01*
X0057178Y0061193D02*
X0058427Y0059944D01*
X0069191Y0053721D02*
X0071501D01*
X0060301Y0062611D02*
X0069191Y0053721D01*
X0058384Y0062527D02*
X0060218D01*
X0057178Y0063733D02*
X0058384Y0062527D01*
X0060218D02*
X0060301Y0062611D01*
X0070739Y0079260D02*
X0070866Y0079387D01*
X0070739Y0076710D02*
Y0079260D01*
X0091328Y0079148D02*
Y0082905D01*
X0092598Y0079124D02*
Y0082905D01*
X0075553Y0079121D02*
Y0079890D01*
X0072538Y0082905D02*
X0075553Y0079890D01*
X0073808Y0082905D02*
X0076454Y0080259D01*
Y0078105D02*
Y0080259D01*
Y0078105D02*
X0077077Y0077482D01*
X0077597D01*
X0086218Y0043455D02*
X0086221Y0043458D01*
X0067428Y0043455D02*
Y0045717D01*
X0068683Y0043470D02*
Y0045720D01*
Y0043470D02*
X0068698Y0043455D01*
X0067425Y0045720D02*
X0067428Y0045723D01*
X0092032Y0078558D02*
X0092595Y0079121D01*
X0092032Y0078290D02*
Y0078558D01*
X0082169Y0068427D02*
X0092032Y0078290D01*
X0081153Y0068973D02*
X0091301Y0079121D01*
X0082169Y0066040D02*
Y0066294D01*
Y0068427D01*
X0081153Y0067691D02*
Y0068973D01*
X0074478Y0054031D02*
X0080539D01*
X0067428Y0046981D02*
X0074478Y0054031D01*
X0067428Y0045723D02*
Y0046981D01*
X0076383Y0054681D02*
X0080539D01*
X0074930Y0054991D02*
X0076073D01*
X0076383Y0054681D01*
X0068683Y0046585D02*
X0074930Y0052832D01*
X0068683Y0045720D02*
Y0046585D01*
X0097896Y0053573D02*
X0100358D01*
X0097054Y0052731D02*
X0097896Y0053573D01*
X0086339Y0052731D02*
X0097054D01*
X0099166Y0056113D02*
X0100358D01*
X0096434Y0053381D02*
X0099166Y0056113D01*
X0086339Y0053381D02*
X0096434D01*
X0095736Y0054031D02*
X0100358Y0058653D01*
X0086339Y0054031D02*
X0095736D01*
X0099060Y0059895D02*
X0100358Y0061193D01*
X0099060Y0058801D02*
Y0059895D01*
X0094940Y0054681D02*
X0099060Y0058801D01*
X0086339Y0054681D02*
X0094940D01*
X0098171Y0061546D02*
X0100358Y0063733D01*
X0098171Y0059309D02*
Y0061546D01*
X0097155Y0063070D02*
X0100358Y0066273D01*
X0097155Y0059690D02*
Y0063070D01*
X0077765Y0053381D02*
X0080539D01*
X0076708Y0052324D02*
X0077765Y0053381D01*
X0078893Y0052731D02*
X0080539D01*
X0077089Y0050927D02*
X0078893Y0052731D01*
X0075553Y0072529D02*
Y0079121D01*
X0077597Y0075311D02*
Y0077482D01*
X0078273Y0055331D02*
X0080539D01*
X0078893Y0055981D02*
X0080539D01*
Y0052081D02*
X0082539D01*
X0087515Y0047105D01*
Y0043482D02*
Y0047105D01*
X0080539Y0051431D02*
X0081665D01*
X0086221Y0046875D01*
Y0043458D02*
Y0046875D01*
D13*
X0069469Y0079953D02*
X0070403Y0080887D01*
X0069469Y0076710D02*
Y0079953D01*
X0070403Y0080887D02*
X0070866D01*
X0068199Y0080887D02*
X0070866D01*
X0071268Y0081289D01*
Y0082905D01*
X0080391Y0078867D02*
X0082169Y0080645D01*
X0080391Y0071628D02*
Y0078867D01*
X0078740Y0069977D02*
X0080391Y0071628D01*
X0078740Y0061226D02*
Y0069977D01*
Y0061226D02*
X0080403Y0059563D01*
X0065405Y0059309D02*
X0066040D01*
X0082169Y0080645D02*
X0088011D01*
X0077597D02*
X0082169D01*
X0062865Y0061849D02*
X0065405Y0059309D01*
X0062865Y0061849D02*
Y0068961D01*
X0082030Y0058789D02*
Y0059690D01*
X0080539Y0057281D02*
Y0057298D01*
Y0056769D02*
Y0057281D01*
Y0057298D02*
X0082030Y0058789D01*
Y0059690D02*
X0083820D01*
X0062865Y0068961D02*
X0064389Y0070485D01*
X0065659Y0079375D02*
X0065671Y0079387D01*
X0068199D01*
X0072009Y0076710D02*
X0073150D01*
X0074041Y0075819D01*
X0059718Y0073893D02*
X0061505Y0075680D01*
X0064389D01*
X0068199Y0079387D02*
X0068199Y0079387D01*
X0068199Y0076710D02*
Y0079387D01*
X0065419Y0076710D02*
X0066929D01*
X0064389Y0075680D02*
X0065419Y0076710D01*
X0077597Y0078982D02*
Y0080645D01*
X0077597Y0078982D02*
X0077597Y0078982D01*
X0073025Y0080149D02*
Y0080772D01*
Y0080149D02*
X0074053Y0079121D01*
X0088011Y0079629D02*
Y0080645D01*
Y0079629D02*
X0088519Y0079121D01*
X0089801D01*
X0095138Y0080164D02*
Y0082905D01*
X0094095Y0079121D02*
X0095138Y0080164D01*
X0083678Y0043455D02*
Y0045439D01*
X0084721Y0046482D01*
X0076200Y0046482D02*
X0077978Y0044704D01*
X0070183Y0046482D02*
X0076200D01*
X0064389Y0070485D02*
Y0072517D01*
X0064888Y0043455D02*
Y0043561D01*
Y0045445D01*
X0065925Y0046482D01*
D14*
X0093858Y0086655D02*
D03*
X0091318D02*
D03*
X0088778D02*
D03*
X0075058D02*
D03*
X0072518D02*
D03*
X0069978D02*
D03*
X0066040Y0039624D02*
D03*
X0068580D02*
D03*
X0071120D02*
D03*
X0084943Y0039830D02*
D03*
X0087483D02*
D03*
X0090023D02*
D03*
D15*
X0086238Y0086655D02*
D03*
X0067438D02*
D03*
X0073660Y0039624D02*
D03*
X0092563Y0039830D02*
D03*
D16*
X0083678Y0043455D02*
D03*
X0076348Y0082905D02*
D03*
X0095138D02*
D03*
X0064888Y0043455D02*
D03*
D17*
X0084948D02*
D03*
X0086218D02*
D03*
X0087488D02*
D03*
X0088758D02*
D03*
X0090028D02*
D03*
X0091298D02*
D03*
X0092568D02*
D03*
X0093838D02*
D03*
X0095108D02*
D03*
X0088758Y0059965D02*
D03*
X0090028D02*
D03*
X0091298D02*
D03*
X0092568D02*
D03*
X0093838D02*
D03*
X0095108D02*
D03*
X0075078Y0082905D02*
D03*
X0073808D02*
D03*
X0072538D02*
D03*
X0071268D02*
D03*
X0069998D02*
D03*
X0068728D02*
D03*
X0067458D02*
D03*
X0066188D02*
D03*
X0064918D02*
D03*
X0071268Y0066395D02*
D03*
X0069998D02*
D03*
X0068728D02*
D03*
X0067458D02*
D03*
X0066188D02*
D03*
X0064918D02*
D03*
X0093868Y0082905D02*
D03*
X0092598D02*
D03*
X0091328D02*
D03*
X0090058D02*
D03*
X0088788D02*
D03*
X0087518D02*
D03*
X0086248D02*
D03*
X0084978D02*
D03*
X0083708D02*
D03*
X0090058Y0066395D02*
D03*
X0088788D02*
D03*
X0087518D02*
D03*
X0086248D02*
D03*
X0084978D02*
D03*
X0083708D02*
D03*
X0076318Y0059965D02*
D03*
X0075048D02*
D03*
X0073778D02*
D03*
X0072508D02*
D03*
X0071238D02*
D03*
X0069968D02*
D03*
X0076318Y0043455D02*
D03*
X0075048D02*
D03*
X0073778D02*
D03*
X0072508D02*
D03*
X0071238D02*
D03*
X0069968D02*
D03*
X0068698D02*
D03*
X0067428D02*
D03*
X0066158D02*
D03*
D18*
X0057178Y0051033D02*
D03*
Y0053573D02*
D03*
Y0056113D02*
D03*
Y0063733D02*
D03*
Y0061193D02*
D03*
Y0058653D02*
D03*
Y0071353D02*
D03*
Y0068813D02*
D03*
Y0066273D02*
D03*
Y0073893D02*
D03*
X0059718Y0066273D02*
D03*
Y0068813D02*
D03*
Y0071353D02*
D03*
Y0058653D02*
D03*
Y0061193D02*
D03*
Y0063733D02*
D03*
Y0056113D02*
D03*
Y0053573D02*
D03*
Y0051033D02*
D03*
X0100358D02*
D03*
Y0053573D02*
D03*
Y0056113D02*
D03*
Y0063733D02*
D03*
Y0061193D02*
D03*
Y0058653D02*
D03*
Y0071353D02*
D03*
Y0068813D02*
D03*
Y0066273D02*
D03*
Y0073893D02*
D03*
X0102898Y0066273D02*
D03*
Y0068813D02*
D03*
Y0071353D02*
D03*
Y0058653D02*
D03*
Y0061193D02*
D03*
Y0063733D02*
D03*
Y0056113D02*
D03*
Y0053573D02*
D03*
Y0051033D02*
D03*
D19*
X0059718Y0073893D02*
D03*
X0102898D02*
D03*
D20*
X0074168Y0066167D02*
D03*
X0079883D02*
D03*
X0075946Y0068707D02*
D03*
X0066040Y0059309D02*
D03*
X0092329Y0049784D02*
D03*
X0091186Y0050800D02*
D03*
X0082042Y0049149D02*
D03*
X0080645Y0041910D02*
D03*
X0070485Y0052578D02*
D03*
X0071501Y0053721D02*
D03*
X0088011Y0080645D02*
D03*
X0077597D02*
D03*
X0065659Y0079375D02*
D03*
X0074041Y0075819D02*
D03*
X0073025Y0080772D02*
D03*
X0082169Y0066294D02*
D03*
X0081153Y0067691D02*
D03*
X0074930Y0054991D02*
D03*
Y0052832D02*
D03*
X0076708Y0052324D02*
D03*
X0077089Y0050927D02*
D03*
X0075553Y0072529D02*
D03*
X0078474D02*
D03*
X0077978Y0044704D02*
D03*
X0064389Y0072517D02*
D03*
D21*
X0070866Y0080887D02*
D03*
Y0079387D02*
D03*
X0068199Y0079387D02*
D03*
Y0080887D02*
D03*
X0063119Y0077204D02*
D03*
Y0075704D02*
D03*
D22*
X0085205Y0059690D02*
D03*
X0083705D02*
D03*
D23*
X0072009Y0076710D02*
D03*
X0070739D02*
D03*
X0069469D02*
D03*
X0068199D02*
D03*
X0066929D02*
D03*
D24*
X0069469Y0070610D02*
D03*
D25*
X0086339Y0057281D02*
D03*
Y0056631D02*
D03*
Y0055981D02*
D03*
Y0055331D02*
D03*
Y0054681D02*
D03*
Y0054031D02*
D03*
Y0053381D02*
D03*
Y0052731D02*
D03*
Y0052081D02*
D03*
Y0051431D02*
D03*
X0080539Y0057281D02*
D03*
Y0056631D02*
D03*
Y0055981D02*
D03*
Y0055331D02*
D03*
Y0054681D02*
D03*
Y0054031D02*
D03*
Y0053381D02*
D03*
Y0052731D02*
D03*
Y0052081D02*
D03*
Y0051431D02*
D03*
M02*
