%FSAX43Y43*%
%MOMM*%
G71*
G01*
G75*
G04 Layer_Color=2752767*
%ADD10R,0.700X0.900*%
%ADD11R,0.900X0.700*%
%ADD12C,0.254*%
%ADD13C,0.500*%
%ADD14C,1.500*%
%ADD15R,1.500X1.500*%
%ADD16R,0.765X0.765*%
%ADD17C,0.765*%
%ADD18C,1.650*%
%ADD19R,1.650X1.650*%
%ADD20C,1.000*%
%ADD21R,1.400X1.100*%
%ADD22R,1.100X1.400*%
%ADD23R,0.700X2.500*%
%ADD24R,3.200X2.500*%
%ADD25O,2.000X0.350*%
%ADD26C,0.200*%
%ADD27C,0.203*%
%ADD28C,0.100*%
%ADD29C,0.178*%
%ADD30R,0.903X1.103*%
%ADD31R,1.103X0.903*%
%ADD32C,1.703*%
%ADD33R,1.703X1.703*%
%ADD34R,0.968X0.968*%
%ADD35C,0.968*%
%ADD36C,1.853*%
%ADD37R,1.853X1.853*%
%ADD38C,1.204*%
%ADD39C,1.203*%
%ADD40R,1.603X1.303*%
%ADD41R,1.303X1.603*%
%ADD42R,0.903X2.703*%
%ADD43R,3.403X2.703*%
%ADD44O,2.203X0.553*%
%ADD45C,0.250*%
%ADD46C,0.600*%
%ADD47C,0.127*%
%ADD48C,0.169*%
D47*
X0093350Y0086147D02*
Y0087163D01*
X0094366D01*
Y0086147D01*
X0093350D01*
X0090810D02*
Y0087163D01*
X0091826D01*
Y0086147D01*
X0090810D01*
X0088270D02*
Y0087163D01*
X0089286D01*
Y0086147D01*
X0088270D01*
X0085730D02*
Y0087163D01*
X0086746D01*
Y0086147D01*
X0085730D01*
X0074550D02*
Y0087163D01*
X0075566D01*
Y0086147D01*
X0074550D01*
X0072010D02*
Y0087163D01*
X0073026D01*
Y0086147D01*
X0072010D01*
X0069470D02*
Y0087163D01*
X0070486D01*
Y0086147D01*
X0069470D01*
X0066930D02*
Y0087163D01*
X0067946D01*
Y0086147D01*
X0066930D01*
X0065532Y0039116D02*
Y0040132D01*
X0066548D01*
Y0039116D01*
X0065532D01*
X0068072D02*
Y0040132D01*
X0069088D01*
Y0039116D01*
X0068072D01*
X0070612D02*
Y0040132D01*
X0071628D01*
Y0039116D01*
X0070612D01*
X0073152D02*
Y0040132D01*
X0074168D01*
Y0039116D01*
X0073152D01*
X0084435Y0039322D02*
Y0040338D01*
X0085451D01*
Y0039322D01*
X0084435D01*
X0086975D02*
Y0040338D01*
X0087991D01*
Y0039322D01*
X0086975D01*
X0089515D02*
Y0040338D01*
X0090531D01*
Y0039322D01*
X0089515D01*
X0092055D02*
Y0040338D01*
X0093071D01*
Y0039322D01*
X0092055D01*
X0057178Y0050525D02*
X0056670Y0051541D01*
X0057686D01*
X0057178Y0050525D01*
Y0053065D02*
X0056670Y0054081D01*
X0057686D01*
X0057178Y0053065D01*
Y0055605D02*
X0056670Y0056621D01*
X0057686D01*
X0057178Y0055605D01*
Y0063225D02*
X0056670Y0064241D01*
X0057686D01*
X0057178Y0063225D01*
Y0060685D02*
X0056670Y0061701D01*
X0057686D01*
X0057178Y0060685D01*
Y0058145D02*
X0056670Y0059161D01*
X0057686D01*
X0057178Y0058145D01*
Y0070845D02*
X0056670Y0071861D01*
X0057686D01*
X0057178Y0070845D01*
Y0068305D02*
X0056670Y0069321D01*
X0057686D01*
X0057178Y0068305D01*
Y0065765D02*
X0056670Y0066781D01*
X0057686D01*
X0057178Y0065765D01*
Y0073385D02*
X0056670Y0074401D01*
X0057686D01*
X0057178Y0073385D01*
X0059718D02*
X0059210Y0074401D01*
X0060226D01*
X0059718Y0073385D01*
Y0065765D02*
X0059210Y0066781D01*
X0060226D01*
X0059718Y0065765D01*
Y0068305D02*
X0059210Y0069321D01*
X0060226D01*
X0059718Y0068305D01*
Y0070845D02*
X0059210Y0071861D01*
X0060226D01*
X0059718Y0070845D01*
Y0058145D02*
X0059210Y0059161D01*
X0060226D01*
X0059718Y0058145D01*
Y0060685D02*
X0059210Y0061701D01*
X0060226D01*
X0059718Y0060685D01*
Y0063225D02*
X0059210Y0064241D01*
X0060226D01*
X0059718Y0063225D01*
Y0055605D02*
X0059210Y0056621D01*
X0060226D01*
X0059718Y0055605D01*
Y0053065D02*
X0059210Y0054081D01*
X0060226D01*
X0059718Y0053065D01*
Y0050525D02*
X0059210Y0051541D01*
X0060226D01*
X0059718Y0050525D01*
X0100358D02*
X0099850Y0051541D01*
X0100866D01*
X0100358Y0050525D01*
Y0053065D02*
X0099850Y0054081D01*
X0100866D01*
X0100358Y0053065D01*
Y0055605D02*
X0099850Y0056621D01*
X0100866D01*
X0100358Y0055605D01*
Y0063225D02*
X0099850Y0064241D01*
X0100866D01*
X0100358Y0063225D01*
Y0060685D02*
X0099850Y0061701D01*
X0100866D01*
X0100358Y0060685D01*
Y0058145D02*
X0099850Y0059161D01*
X0100866D01*
X0100358Y0058145D01*
Y0070845D02*
X0099850Y0071861D01*
X0100866D01*
X0100358Y0070845D01*
Y0068305D02*
X0099850Y0069321D01*
X0100866D01*
X0100358Y0068305D01*
Y0065765D02*
X0099850Y0066781D01*
X0100866D01*
X0100358Y0065765D01*
Y0073385D02*
X0099850Y0074401D01*
X0100866D01*
X0100358Y0073385D01*
X0102898D02*
X0102390Y0074401D01*
X0103406D01*
X0102898Y0073385D01*
Y0065765D02*
X0102390Y0066781D01*
X0103406D01*
X0102898Y0065765D01*
Y0068305D02*
X0102390Y0069321D01*
X0103406D01*
X0102898Y0068305D01*
Y0070845D02*
X0102390Y0071861D01*
X0103406D01*
X0102898Y0070845D01*
Y0058145D02*
X0102390Y0059161D01*
X0103406D01*
X0102898Y0058145D01*
Y0060685D02*
X0102390Y0061701D01*
X0103406D01*
X0102898Y0060685D01*
Y0063225D02*
X0102390Y0064241D01*
X0103406D01*
X0102898Y0063225D01*
Y0055605D02*
X0102390Y0056621D01*
X0103406D01*
X0102898Y0055605D01*
Y0053065D02*
X0102390Y0054081D01*
X0103406D01*
X0102898Y0053065D01*
Y0050525D02*
X0102390Y0051541D01*
X0103406D01*
X0102898Y0050525D01*
X0074168Y0065659D02*
X0074422Y0065913D01*
X0074676D01*
X0074422Y0066167D01*
X0074676Y0066421D01*
X0074422D01*
X0074168Y0066675D01*
X0073914Y0066421D01*
X0073660D01*
X0073914Y0066167D01*
X0073660Y0065913D01*
X0073914D01*
X0074168Y0065659D01*
X0079883D02*
X0080137Y0065913D01*
X0080391D01*
X0080137Y0066167D01*
X0080391Y0066421D01*
X0080137D01*
X0079883Y0066675D01*
X0079629Y0066421D01*
X0079375D01*
X0079629Y0066167D01*
X0079375Y0065913D01*
X0079629D01*
X0079883Y0065659D01*
X0075946Y0068199D02*
X0076200Y0068453D01*
X0076454D01*
X0076200Y0068707D01*
X0076454Y0068961D01*
X0076200D01*
X0075946Y0069215D01*
X0075692Y0068961D01*
X0075438D01*
X0075692Y0068707D01*
X0075438Y0068453D01*
X0075692D01*
X0075946Y0068199D01*
X0066040Y0058801D02*
X0066294Y0059055D01*
X0066548D01*
X0066294Y0059309D01*
X0066548Y0059563D01*
X0066294D01*
X0066040Y0059817D01*
X0065786Y0059563D01*
X0065532D01*
X0065786Y0059309D01*
X0065532Y0059055D01*
X0065786D01*
X0066040Y0058801D01*
X0092329Y0049276D02*
X0092583Y0049530D01*
X0092837D01*
X0092583Y0049784D01*
X0092837Y0050038D01*
X0092583D01*
X0092329Y0050292D01*
X0092075Y0050038D01*
X0091821D01*
X0092075Y0049784D01*
X0091821Y0049530D01*
X0092075D01*
X0092329Y0049276D01*
X0091186Y0050292D02*
X0091440Y0050546D01*
X0091694D01*
X0091440Y0050800D01*
X0091694Y0051054D01*
X0091440D01*
X0091186Y0051308D01*
X0090932Y0051054D01*
X0090678D01*
X0090932Y0050800D01*
X0090678Y0050546D01*
X0090932D01*
X0091186Y0050292D01*
X0082042Y0048641D02*
X0082296Y0048895D01*
X0082550D01*
X0082296Y0049149D01*
X0082550Y0049403D01*
X0082296D01*
X0082042Y0049657D01*
X0081788Y0049403D01*
X0081534D01*
X0081788Y0049149D01*
X0081534Y0048895D01*
X0081788D01*
X0082042Y0048641D01*
X0080645Y0041402D02*
X0080899Y0041656D01*
X0081153D01*
X0080899Y0041910D01*
X0081153Y0042164D01*
X0080899D01*
X0080645Y0042418D01*
X0080391Y0042164D01*
X0080137D01*
X0080391Y0041910D01*
X0080137Y0041656D01*
X0080391D01*
X0080645Y0041402D01*
X0070485Y0052070D02*
X0070739Y0052324D01*
X0070993D01*
X0070739Y0052578D01*
X0070993Y0052832D01*
X0070739D01*
X0070485Y0053086D01*
X0070231Y0052832D01*
X0069977D01*
X0070231Y0052578D01*
X0069977Y0052324D01*
X0070231D01*
X0070485Y0052070D01*
X0071501Y0053213D02*
X0071755Y0053467D01*
X0072009D01*
X0071755Y0053721D01*
X0072009Y0053975D01*
X0071755D01*
X0071501Y0054229D01*
X0071247Y0053975D01*
X0070993D01*
X0071247Y0053721D01*
X0070993Y0053467D01*
X0071247D01*
X0071501Y0053213D01*
X0088011Y0080137D02*
X0088265Y0080391D01*
X0088519D01*
X0088265Y0080645D01*
X0088519Y0080899D01*
X0088265D01*
X0088011Y0081153D01*
X0087757Y0080899D01*
X0087503D01*
X0087757Y0080645D01*
X0087503Y0080391D01*
X0087757D01*
X0088011Y0080137D01*
X0077597D02*
X0077851Y0080391D01*
X0078105D01*
X0077851Y0080645D01*
X0078105Y0080899D01*
X0077851D01*
X0077597Y0081153D01*
X0077343Y0080899D01*
X0077089D01*
X0077343Y0080645D01*
X0077089Y0080391D01*
X0077343D01*
X0077597Y0080137D01*
X0065659Y0078867D02*
X0065913Y0079121D01*
X0066167D01*
X0065913Y0079375D01*
X0066167Y0079629D01*
X0065913D01*
X0065659Y0079883D01*
X0065405Y0079629D01*
X0065151D01*
X0065405Y0079375D01*
X0065151Y0079121D01*
X0065405D01*
X0065659Y0078867D01*
X0074041Y0075311D02*
X0074295Y0075565D01*
X0074549D01*
X0074295Y0075819D01*
X0074549Y0076073D01*
X0074295D01*
X0074041Y0076327D01*
X0073787Y0076073D01*
X0073533D01*
X0073787Y0075819D01*
X0073533Y0075565D01*
X0073787D01*
X0074041Y0075311D01*
X0073025Y0080264D02*
X0073279Y0080518D01*
X0073533D01*
X0073279Y0080772D01*
X0073533Y0081026D01*
X0073279D01*
X0073025Y0081280D01*
X0072771Y0081026D01*
X0072517D01*
X0072771Y0080772D01*
X0072517Y0080518D01*
X0072771D01*
X0073025Y0080264D01*
X0082169Y0065786D02*
X0082423Y0066040D01*
X0082677D01*
X0082423Y0066294D01*
X0082677Y0066548D01*
X0082423D01*
X0082169Y0066802D01*
X0081915Y0066548D01*
X0081661D01*
X0081915Y0066294D01*
X0081661Y0066040D01*
X0081915D01*
X0082169Y0065786D01*
X0081153Y0067183D02*
X0081407Y0067437D01*
X0081661D01*
X0081407Y0067691D01*
X0081661Y0067945D01*
X0081407D01*
X0081153Y0068199D01*
X0080899Y0067945D01*
X0080645D01*
X0080899Y0067691D01*
X0080645Y0067437D01*
X0080899D01*
X0081153Y0067183D01*
X0074930Y0054483D02*
X0075184Y0054737D01*
X0075438D01*
X0075184Y0054991D01*
X0075438Y0055245D01*
X0075184D01*
X0074930Y0055499D01*
X0074676Y0055245D01*
X0074422D01*
X0074676Y0054991D01*
X0074422Y0054737D01*
X0074676D01*
X0074930Y0054483D01*
Y0052324D02*
X0075184Y0052578D01*
X0075438D01*
X0075184Y0052832D01*
X0075438Y0053086D01*
X0075184D01*
X0074930Y0053340D01*
X0074676Y0053086D01*
X0074422D01*
X0074676Y0052832D01*
X0074422Y0052578D01*
X0074676D01*
X0074930Y0052324D01*
X0076708Y0051816D02*
X0076962Y0052070D01*
X0077216D01*
X0076962Y0052324D01*
X0077216Y0052578D01*
X0076962D01*
X0076708Y0052832D01*
X0076454Y0052578D01*
X0076200D01*
X0076454Y0052324D01*
X0076200Y0052070D01*
X0076454D01*
X0076708Y0051816D01*
X0077089Y0050419D02*
X0077343Y0050673D01*
X0077597D01*
X0077343Y0050927D01*
X0077597Y0051181D01*
X0077343D01*
X0077089Y0051435D01*
X0076835Y0051181D01*
X0076581D01*
X0076835Y0050927D01*
X0076581Y0050673D01*
X0076835D01*
X0077089Y0050419D01*
X0075553Y0072021D02*
X0075807Y0072275D01*
X0076061D01*
X0075807Y0072529D01*
X0076061Y0072783D01*
X0075807D01*
X0075553Y0073037D01*
X0075299Y0072783D01*
X0075045D01*
X0075299Y0072529D01*
X0075045Y0072275D01*
X0075299D01*
X0075553Y0072021D01*
X0078474D02*
X0078728Y0072275D01*
X0078982D01*
X0078728Y0072529D01*
X0078982Y0072783D01*
X0078728D01*
X0078474Y0073037D01*
X0078220Y0072783D01*
X0077966D01*
X0078220Y0072529D01*
X0077966Y0072275D01*
X0078220D01*
X0078474Y0072021D01*
X0077978Y0044196D02*
X0078232Y0044450D01*
X0078486D01*
X0078232Y0044704D01*
X0078486Y0044958D01*
X0078232D01*
X0077978Y0045212D01*
X0077724Y0044958D01*
X0077470D01*
X0077724Y0044704D01*
X0077470Y0044450D01*
X0077724D01*
X0077978Y0044196D01*
X0064389Y0072009D02*
X0064643Y0072263D01*
X0064897D01*
X0064643Y0072517D01*
X0064897Y0072771D01*
X0064643D01*
X0064389Y0073025D01*
X0064135Y0072771D01*
X0063881D01*
X0064135Y0072517D01*
X0063881Y0072263D01*
X0064135D01*
X0064389Y0072009D01*
D48*
X0084186Y0043455D02*
G03*
X0084186Y0043455I-0000508J0000000D01*
G01*
X0085456D02*
G03*
X0085456Y0043455I-0000508J0000000D01*
G01*
X0086726D02*
G03*
X0086726Y0043455I-0000508J0000000D01*
G01*
X0087996D02*
G03*
X0087996Y0043455I-0000508J0000000D01*
G01*
X0089266D02*
G03*
X0089266Y0043455I-0000508J0000000D01*
G01*
X0090536D02*
G03*
X0090536Y0043455I-0000508J0000000D01*
G01*
X0091806D02*
G03*
X0091806Y0043455I-0000508J0000000D01*
G01*
X0093076D02*
G03*
X0093076Y0043455I-0000508J0000000D01*
G01*
X0094346D02*
G03*
X0094346Y0043455I-0000508J0000000D01*
G01*
X0095616D02*
G03*
X0095616Y0043455I-0000508J0000000D01*
G01*
X0089266Y0059965D02*
G03*
X0089266Y0059965I-0000508J0000000D01*
G01*
X0090536D02*
G03*
X0090536Y0059965I-0000508J0000000D01*
G01*
X0091806D02*
G03*
X0091806Y0059965I-0000508J0000000D01*
G01*
X0093076D02*
G03*
X0093076Y0059965I-0000508J0000000D01*
G01*
X0094346D02*
G03*
X0094346Y0059965I-0000508J0000000D01*
G01*
X0095616D02*
G03*
X0095616Y0059965I-0000508J0000000D01*
G01*
X0076856Y0082905D02*
G03*
X0076856Y0082905I-0000508J0000000D01*
G01*
X0075586D02*
G03*
X0075586Y0082905I-0000508J0000000D01*
G01*
X0074316D02*
G03*
X0074316Y0082905I-0000508J0000000D01*
G01*
X0073046D02*
G03*
X0073046Y0082905I-0000508J0000000D01*
G01*
X0071776D02*
G03*
X0071776Y0082905I-0000508J0000000D01*
G01*
X0070506D02*
G03*
X0070506Y0082905I-0000508J0000000D01*
G01*
X0069236D02*
G03*
X0069236Y0082905I-0000508J0000000D01*
G01*
X0067966D02*
G03*
X0067966Y0082905I-0000508J0000000D01*
G01*
X0066696D02*
G03*
X0066696Y0082905I-0000508J0000000D01*
G01*
X0065426D02*
G03*
X0065426Y0082905I-0000508J0000000D01*
G01*
X0071776Y0066395D02*
G03*
X0071776Y0066395I-0000508J0000000D01*
G01*
X0070506D02*
G03*
X0070506Y0066395I-0000508J0000000D01*
G01*
X0069236D02*
G03*
X0069236Y0066395I-0000508J0000000D01*
G01*
X0067966D02*
G03*
X0067966Y0066395I-0000508J0000000D01*
G01*
X0066696D02*
G03*
X0066696Y0066395I-0000508J0000000D01*
G01*
X0065426D02*
G03*
X0065426Y0066395I-0000508J0000000D01*
G01*
X0095646Y0082905D02*
G03*
X0095646Y0082905I-0000508J0000000D01*
G01*
X0094376D02*
G03*
X0094376Y0082905I-0000508J0000000D01*
G01*
X0093106D02*
G03*
X0093106Y0082905I-0000508J0000000D01*
G01*
X0091836D02*
G03*
X0091836Y0082905I-0000508J0000000D01*
G01*
X0090566D02*
G03*
X0090566Y0082905I-0000508J0000000D01*
G01*
X0089296D02*
G03*
X0089296Y0082905I-0000508J0000000D01*
G01*
X0088026D02*
G03*
X0088026Y0082905I-0000508J0000000D01*
G01*
X0086756D02*
G03*
X0086756Y0082905I-0000508J0000000D01*
G01*
X0085486D02*
G03*
X0085486Y0082905I-0000508J0000000D01*
G01*
X0084216D02*
G03*
X0084216Y0082905I-0000508J0000000D01*
G01*
X0090566Y0066395D02*
G03*
X0090566Y0066395I-0000508J0000000D01*
G01*
X0089296D02*
G03*
X0089296Y0066395I-0000508J0000000D01*
G01*
X0088026D02*
G03*
X0088026Y0066395I-0000508J0000000D01*
G01*
X0086756D02*
G03*
X0086756Y0066395I-0000508J0000000D01*
G01*
X0085486D02*
G03*
X0085486Y0066395I-0000508J0000000D01*
G01*
X0084216D02*
G03*
X0084216Y0066395I-0000508J0000000D01*
G01*
X0076826Y0059965D02*
G03*
X0076826Y0059965I-0000508J0000000D01*
G01*
X0075556D02*
G03*
X0075556Y0059965I-0000508J0000000D01*
G01*
X0074286D02*
G03*
X0074286Y0059965I-0000508J0000000D01*
G01*
X0073016D02*
G03*
X0073016Y0059965I-0000508J0000000D01*
G01*
X0071746D02*
G03*
X0071746Y0059965I-0000508J0000000D01*
G01*
X0070476D02*
G03*
X0070476Y0059965I-0000508J0000000D01*
G01*
X0076826Y0043455D02*
G03*
X0076826Y0043455I-0000508J0000000D01*
G01*
X0075556D02*
G03*
X0075556Y0043455I-0000508J0000000D01*
G01*
X0074286D02*
G03*
X0074286Y0043455I-0000508J0000000D01*
G01*
X0073016D02*
G03*
X0073016Y0043455I-0000508J0000000D01*
G01*
X0071746D02*
G03*
X0071746Y0043455I-0000508J0000000D01*
G01*
X0070476D02*
G03*
X0070476Y0043455I-0000508J0000000D01*
G01*
X0069206D02*
G03*
X0069206Y0043455I-0000508J0000000D01*
G01*
X0067936D02*
G03*
X0067936Y0043455I-0000508J0000000D01*
G01*
X0066666D02*
G03*
X0066666Y0043455I-0000508J0000000D01*
G01*
X0065396D02*
G03*
X0065396Y0043455I-0000508J0000000D01*
G01*
M02*
