M48
;Layer_Color=9474304
;FILE_FORMAT=4:3
METRIC
;TYPE=PLATED
T1F00S00C0.550
T2F00S00C0.600
T3F00S00C0.900
T4F00S00C1.150
;TYPE=NON_PLATED
%
T01
X0083678Y0043455
X0084948
X0086218
X0087488
X0088758
X0090028
X0091298
X0092568
X0093838
X0095108
Y0059965
X0093838
X0092568
X0091298
X0090028
X0088758
X0088788Y0066395
X0090058
X0087518
X0086248
X0084978
X0083708
X0071268
X0069998
X0068728
X0067458
X0066188
X0064918
X0069968Y0059965
X0071238
X0072508
X0073778
X0075048
X0076318
Y0043455
X0075048
X0073778
X0072508
X0071238
X0069968
X0068698
X0067428
X0066158
X0064888
X0064918Y0082905
X0066188
X0067458
X0068728
X0069998
X0071268
X0072538
X0073808
X0075078
X0076348
X0083708
X0084978
X0086248
X0087518
X0088788
X0090058
X0091328
X0092598
X0093868
X0095138
T02
X0080645Y0041910
X0082042Y0049149
X0091186Y0050800
X0092329Y0049784
X0082169Y0066294
X0079883Y0066167
X0081153Y0067691
X0075946Y0068707
X0075553Y0072529
X0078474
X0074041Y0075819
X0074168Y0066167
X0074930Y0054991
Y0052832
X0076708Y0052324
X0077089Y0050927
X0077978Y0044704
X0070485Y0052578
X0071501Y0053721
X0066040Y0059309
X0064389Y0072517
X0065659Y0079375
X0073025Y0080772
X0077597Y0080645
X0088011
T03
X0066040Y0039624
X0068580
X0071120
X0073660
X0084943Y0039830
X0087483
X0090023
X0092563
X0075058Y0086655
X0072518
X0069978
X0067438
X0086238
X0088778
X0091318
X0093858
T04
X0100358Y0051033
Y0053573
Y0056113
Y0058653
Y0061193
Y0063733
Y0066273
Y0068813
Y0071353
Y0073893
X0102898
Y0071353
Y0068813
Y0066273
Y0063733
Y0061193
Y0058653
Y0056113
Y0053573
Y0051033
X0059718
X0057178
Y0053573
Y0056113
Y0058653
Y0061193
Y0063733
Y0066273
Y0068813
Y0071353
Y0073893
X0059718
Y0071353
Y0068813
Y0066273
Y0063733
Y0061193
Y0058653
Y0056113
Y0053573
M30
