%FSAX43Y43*%
%MOMM*%
G71*
G01*
G75*
G04 Layer_Color=32896*
%ADD10R,0.700X0.900*%
%ADD11R,0.900X0.700*%
%ADD12C,0.254*%
%ADD13C,0.500*%
%ADD14C,1.500*%
%ADD15R,1.500X1.500*%
%ADD16R,0.765X0.765*%
%ADD17C,0.765*%
%ADD18C,1.650*%
%ADD19R,1.650X1.650*%
%ADD20C,1.000*%
%ADD21R,1.400X1.100*%
%ADD22R,1.100X1.400*%
%ADD23R,0.700X2.500*%
%ADD24R,3.200X2.500*%
%ADD25O,2.000X0.350*%
%ADD26C,0.200*%
%ADD27C,0.203*%
%ADD28C,0.100*%
%ADD29C,0.178*%
%ADD30R,0.903X1.103*%
%ADD31R,1.103X0.903*%
%ADD32C,1.703*%
%ADD33R,1.703X1.703*%
%ADD34R,0.968X0.968*%
%ADD35C,0.968*%
%ADD36C,1.853*%
%ADD37R,1.853X1.853*%
%ADD38C,1.204*%
%ADD39C,1.203*%
%ADD40R,1.603X1.303*%
%ADD41R,1.303X1.603*%
%ADD42R,0.903X2.703*%
%ADD43R,3.403X2.703*%
%ADD44O,2.203X0.553*%
%ADD45C,0.250*%
%ADD46C,0.600*%
D12*
X0076581Y0074930D02*
Y0073660D01*
X0076327Y0073406D01*
X0075819D01*
X0075565Y0073660D01*
Y0074930D01*
X0074042D02*
X0075057D01*
Y0074168D01*
X0074550Y0074422D01*
X0074296D01*
X0074042Y0074168D01*
Y0073660D01*
X0074296Y0073406D01*
X0074804D01*
X0075057Y0073660D01*
X0091059Y0058801D02*
Y0057531D01*
X0090805Y0057277D01*
X0090297D01*
X0090043Y0057531D01*
Y0058801D01*
X0088520D02*
X0089028Y0058547D01*
X0089535Y0058039D01*
Y0057531D01*
X0089282Y0057277D01*
X0088774D01*
X0088520Y0057531D01*
Y0057785D01*
X0088774Y0058039D01*
X0089535D01*
D26*
X0088065Y0046832D02*
X0088465D01*
X0088065Y0046132D02*
X0088465D01*
X0085271D02*
X0085671D01*
X0085271Y0046832D02*
X0085671D01*
X0069233D02*
X0069633D01*
X0069233Y0046132D02*
X0069633D01*
X0066475D02*
X0066875D01*
X0066475Y0046832D02*
X0066875D01*
X0090351Y0079471D02*
X0090751D01*
X0090351Y0078771D02*
X0090751D01*
X0093145Y0078771D02*
X0093545D01*
X0093145Y0079471D02*
X0093545D01*
X0074603Y0079471D02*
X0075003D01*
X0074603Y0078771D02*
X0075003D01*
X0080953Y0059913D02*
X0081353D01*
X0080953Y0059213D02*
X0081353D01*
X0077947Y0078032D02*
Y0078432D01*
X0077247Y0078032D02*
Y0078432D01*
X0066169Y0072160D02*
X0072769D01*
X0066169D02*
Y0075160D01*
X0072769Y0072160D02*
Y0075160D01*
X0066169D02*
X0072769D01*
X0084939Y0051056D02*
Y0057656D01*
X0081939Y0051056D02*
Y0057656D01*
X0084939D01*
X0081939Y0051056D02*
X0084939D01*
D28*
X0091186Y0046101D02*
Y0046701D01*
X0090886D01*
X0090786Y0046601D01*
Y0046401D01*
X0090886Y0046301D01*
X0091186D01*
X0090986D02*
X0090786Y0046101D01*
X0090186D02*
X0090586D01*
X0090186Y0046501D01*
Y0046601D01*
X0090286Y0046701D01*
X0090486D01*
X0090586Y0046601D01*
X0089986Y0046101D02*
X0089786D01*
X0089886D01*
Y0046701D01*
X0089986Y0046601D01*
X0083820Y0046228D02*
Y0046828D01*
X0083520D01*
X0083420Y0046728D01*
Y0046528D01*
X0083520Y0046428D01*
X0083820D01*
X0083620D02*
X0083420Y0046228D01*
X0082820D02*
X0083220D01*
X0082820Y0046628D01*
Y0046728D01*
X0082920Y0046828D01*
X0083120D01*
X0083220Y0046728D01*
X0082620D02*
X0082520Y0046828D01*
X0082320D01*
X0082221Y0046728D01*
Y0046328D01*
X0082320Y0046228D01*
X0082520D01*
X0082620Y0046328D01*
Y0046728D01*
X0072390Y0046228D02*
Y0046828D01*
X0072090D01*
X0071990Y0046728D01*
Y0046528D01*
X0072090Y0046428D01*
X0072390D01*
X0072190D02*
X0071990Y0046228D01*
X0071790D02*
X0071590D01*
X0071690D01*
Y0046828D01*
X0071790Y0046728D01*
X0071290Y0046328D02*
X0071190Y0046228D01*
X0070990D01*
X0070890Y0046328D01*
Y0046728D01*
X0070990Y0046828D01*
X0071190D01*
X0071290Y0046728D01*
Y0046628D01*
X0071190Y0046528D01*
X0070890D01*
X0065151Y0046228D02*
Y0046828D01*
X0064851D01*
X0064751Y0046728D01*
Y0046528D01*
X0064851Y0046428D01*
X0065151D01*
X0064951D02*
X0064751Y0046228D01*
X0064551D02*
X0064351D01*
X0064451D01*
Y0046828D01*
X0064551Y0046728D01*
X0064051D02*
X0063951Y0046828D01*
X0063751D01*
X0063651Y0046728D01*
Y0046628D01*
X0063751Y0046528D01*
X0063651Y0046428D01*
Y0046328D01*
X0063751Y0046228D01*
X0063951D01*
X0064051Y0046328D01*
Y0046428D01*
X0063951Y0046528D01*
X0064051Y0046628D01*
Y0046728D01*
X0063951Y0046528D02*
X0063751D01*
X0092570Y0078778D02*
X0093170D01*
Y0079078D01*
X0093070Y0079178D01*
X0092870D01*
X0092770Y0079078D01*
Y0078778D01*
Y0078978D02*
X0092570Y0079178D01*
Y0079378D02*
Y0079578D01*
Y0079478D01*
X0093170D01*
X0093070Y0079378D01*
X0093170Y0079878D02*
Y0080278D01*
X0093070D01*
X0092670Y0079878D01*
X0092570D01*
X0091326Y0079464D02*
X0090726D01*
Y0079164D01*
X0090826Y0079064D01*
X0091026D01*
X0091126Y0079164D01*
Y0079464D01*
Y0079264D02*
X0091326Y0079064D01*
Y0078864D02*
Y0078664D01*
Y0078764D01*
X0090726D01*
X0090826Y0078864D01*
X0090726Y0077964D02*
X0090826Y0078164D01*
X0091026Y0078364D01*
X0091226D01*
X0091326Y0078264D01*
Y0078064D01*
X0091226Y0077964D01*
X0091126D01*
X0091026Y0078064D01*
Y0078364D01*
X0075565Y0077597D02*
Y0078197D01*
X0075265D01*
X0075165Y0078097D01*
Y0077897D01*
X0075265Y0077797D01*
X0075565D01*
X0075365D02*
X0075165Y0077597D01*
X0074965D02*
X0074765D01*
X0074865D01*
Y0078197D01*
X0074965Y0078097D01*
X0074065Y0078197D02*
X0074465D01*
Y0077897D01*
X0074265Y0077997D01*
X0074165D01*
X0074065Y0077897D01*
Y0077697D01*
X0074165Y0077597D01*
X0074365D01*
X0074465Y0077697D01*
X0082550Y0060452D02*
Y0061052D01*
X0082250D01*
X0082150Y0060952D01*
Y0060752D01*
X0082250Y0060652D01*
X0082550D01*
X0082350D02*
X0082150Y0060452D01*
X0081950D02*
X0081750D01*
X0081850D01*
Y0061052D01*
X0081950Y0060952D01*
X0081150Y0060452D02*
Y0061052D01*
X0081450Y0060752D01*
X0081050D01*
X0078232Y0075946D02*
Y0076546D01*
X0077932D01*
X0077832Y0076446D01*
Y0076246D01*
X0077932Y0076146D01*
X0078232D01*
X0078032D02*
X0077832Y0075946D01*
X0077632D02*
X0077432D01*
X0077532D01*
Y0076546D01*
X0077632Y0076446D01*
X0077132D02*
X0077032Y0076546D01*
X0076832D01*
X0076732Y0076446D01*
Y0076346D01*
X0076832Y0076246D01*
X0076932D01*
X0076832D01*
X0076732Y0076146D01*
Y0076046D01*
X0076832Y0075946D01*
X0077032D01*
X0077132Y0076046D01*
X0073006Y0079621D02*
X0073106Y0079721D01*
X0073306D01*
X0073406Y0079621D01*
Y0079221D01*
X0073306Y0079121D01*
X0073106D01*
X0073006Y0079221D01*
X0072406Y0079121D02*
X0072806D01*
X0072406Y0079521D01*
Y0079621D01*
X0072506Y0079721D01*
X0072706D01*
X0072806Y0079621D01*
X0072206D02*
X0072106Y0079721D01*
X0071906D01*
X0071807Y0079621D01*
Y0079221D01*
X0071906Y0079121D01*
X0072106D01*
X0072206Y0079221D01*
Y0079621D01*
X0066656Y0080637D02*
X0066756Y0080737D01*
X0066956D01*
X0067056Y0080637D01*
Y0080237D01*
X0066956Y0080137D01*
X0066756D01*
X0066656Y0080237D01*
X0066456Y0080137D02*
X0066256D01*
X0066356D01*
Y0080737D01*
X0066456Y0080637D01*
X0065956Y0080237D02*
X0065856Y0080137D01*
X0065656D01*
X0065556Y0080237D01*
Y0080637D01*
X0065656Y0080737D01*
X0065856D01*
X0065956Y0080637D01*
Y0080537D01*
X0065856Y0080437D01*
X0065556D01*
X0062922Y0073732D02*
X0062822Y0073632D01*
X0062622D01*
X0062522Y0073732D01*
Y0074132D01*
X0062622Y0074231D01*
X0062822D01*
X0062922Y0074132D01*
X0063122Y0074231D02*
X0063322D01*
X0063222D01*
Y0073632D01*
X0063122Y0073732D01*
X0063622D02*
X0063722Y0073632D01*
X0063922D01*
X0064022Y0073732D01*
Y0073832D01*
X0063922Y0073932D01*
X0064022Y0074032D01*
Y0074132D01*
X0063922Y0074231D01*
X0063722D01*
X0063622Y0074132D01*
Y0074032D01*
X0063722Y0073932D01*
X0063622Y0073832D01*
Y0073732D01*
X0063722Y0073932D02*
X0063922D01*
X0085071Y0061333D02*
X0085171Y0061433D01*
X0085371D01*
X0085471Y0061333D01*
Y0060933D01*
X0085371Y0060833D01*
X0085171D01*
X0085071Y0060933D01*
X0084871Y0060833D02*
X0084671D01*
X0084771D01*
Y0061433D01*
X0084871Y0061333D01*
X0084371Y0061433D02*
X0083971D01*
Y0061333D01*
X0084371Y0060933D01*
Y0060833D01*
D45*
X0066254Y0076660D02*
G03*
X0066254Y0076660I-0000125J0000000D01*
G01*
X0086464Y0058006D02*
G03*
X0086464Y0058006I-0000125J0000000D01*
G01*
D46*
X0084239Y0056656D02*
G03*
X0084239Y0056656I-0000300J0000000D01*
G01*
M02*
