%FSAX43Y43*%
%MOMM*%
G71*
G01*
G75*
G04 Layer_Color=8388736*
%ADD10R,0.700X0.900*%
%ADD11R,0.900X0.700*%
%ADD12C,0.254*%
%ADD13C,0.500*%
%ADD14C,1.500*%
%ADD15R,1.500X1.500*%
%ADD16R,0.765X0.765*%
%ADD17C,0.765*%
%ADD18C,1.650*%
%ADD19R,1.650X1.650*%
%ADD20C,1.000*%
%ADD21R,1.400X1.100*%
%ADD22R,1.100X1.400*%
%ADD23R,0.700X2.500*%
%ADD24R,3.200X2.500*%
%ADD25O,2.000X0.350*%
%ADD26C,0.200*%
%ADD27C,0.203*%
%ADD28C,0.100*%
%ADD29C,0.178*%
%ADD30R,0.903X1.103*%
%ADD31R,1.103X0.903*%
%ADD32C,1.703*%
%ADD33R,1.703X1.703*%
%ADD34R,0.968X0.968*%
%ADD35C,0.968*%
%ADD36C,1.853*%
%ADD37R,1.853X1.853*%
%ADD38C,1.204*%
%ADD39C,1.203*%
D30*
X0063094Y0086630D02*
D03*
X0064594D02*
D03*
X0063094Y0088030D02*
D03*
X0064594D02*
D03*
X0064619Y0085255D02*
D03*
X0063119D02*
D03*
X0073109Y0063880D02*
D03*
X0074609D02*
D03*
X0091938Y0063880D02*
D03*
X0093438D02*
D03*
X0095036Y0039618D02*
D03*
X0096536D02*
D03*
X0095011Y0041005D02*
D03*
X0096511D02*
D03*
X0073109Y0062480D02*
D03*
X0074609D02*
D03*
X0096536Y0038230D02*
D03*
X0095036D02*
D03*
X0076288Y0039618D02*
D03*
X0077788D02*
D03*
X0083357Y0085255D02*
D03*
X0081857D02*
D03*
X0081857Y0088030D02*
D03*
X0083357D02*
D03*
X0077584Y0063880D02*
D03*
X0076084D02*
D03*
X0091938Y0062480D02*
D03*
X0093438D02*
D03*
X0076288Y0041005D02*
D03*
X0077788D02*
D03*
X0077788Y0038230D02*
D03*
X0076288D02*
D03*
X0087163Y0063855D02*
D03*
X0085663D02*
D03*
X0068363Y0063880D02*
D03*
X0066863D02*
D03*
X0083357Y0086630D02*
D03*
X0081857D02*
D03*
X0087113Y0062455D02*
D03*
X0085613D02*
D03*
X0082663Y0062455D02*
D03*
X0084163D02*
D03*
X0068363Y0062480D02*
D03*
X0066863D02*
D03*
X0063888Y0062480D02*
D03*
X0065388D02*
D03*
X0096613Y0063880D02*
D03*
X0095113D02*
D03*
D31*
X0077413Y0086730D02*
D03*
Y0085230D02*
D03*
X0082423Y0039509D02*
D03*
Y0041009D02*
D03*
X0063638Y0039505D02*
D03*
Y0041005D02*
D03*
X0096238Y0086730D02*
D03*
Y0085230D02*
D03*
D32*
X0093858Y0086655D02*
D03*
X0091318D02*
D03*
X0088778D02*
D03*
X0075058D02*
D03*
X0072518D02*
D03*
X0069978D02*
D03*
X0066040Y0039624D02*
D03*
X0068580D02*
D03*
X0071120D02*
D03*
X0084943Y0039830D02*
D03*
X0087483D02*
D03*
X0090023D02*
D03*
D33*
X0086238Y0086655D02*
D03*
X0067438D02*
D03*
X0073660Y0039624D02*
D03*
X0092563Y0039830D02*
D03*
D34*
X0083678Y0043455D02*
D03*
X0076348Y0082905D02*
D03*
X0095138D02*
D03*
X0064888Y0043455D02*
D03*
D35*
X0084948D02*
D03*
X0086218D02*
D03*
X0087488D02*
D03*
X0088758D02*
D03*
X0090028D02*
D03*
X0091298D02*
D03*
X0092568D02*
D03*
X0093838D02*
D03*
X0095108D02*
D03*
X0088758Y0059965D02*
D03*
X0090028D02*
D03*
X0091298D02*
D03*
X0092568D02*
D03*
X0093838D02*
D03*
X0095108D02*
D03*
X0075078Y0082905D02*
D03*
X0073808D02*
D03*
X0072538D02*
D03*
X0071268D02*
D03*
X0069998D02*
D03*
X0068728D02*
D03*
X0067458D02*
D03*
X0066188D02*
D03*
X0064918D02*
D03*
X0071268Y0066395D02*
D03*
X0069998D02*
D03*
X0068728D02*
D03*
X0067458D02*
D03*
X0066188D02*
D03*
X0064918D02*
D03*
X0093868Y0082905D02*
D03*
X0092598D02*
D03*
X0091328D02*
D03*
X0090058D02*
D03*
X0088788D02*
D03*
X0087518D02*
D03*
X0086248D02*
D03*
X0084978D02*
D03*
X0083708D02*
D03*
X0090058Y0066395D02*
D03*
X0088788D02*
D03*
X0087518D02*
D03*
X0086248D02*
D03*
X0084978D02*
D03*
X0083708D02*
D03*
X0076318Y0059965D02*
D03*
X0075048D02*
D03*
X0073778D02*
D03*
X0072508D02*
D03*
X0071238D02*
D03*
X0069968D02*
D03*
X0076318Y0043455D02*
D03*
X0075048D02*
D03*
X0073778D02*
D03*
X0072508D02*
D03*
X0071238D02*
D03*
X0069968D02*
D03*
X0068698D02*
D03*
X0067428D02*
D03*
X0066158D02*
D03*
D36*
X0057178Y0051033D02*
D03*
Y0053573D02*
D03*
Y0056113D02*
D03*
Y0063733D02*
D03*
Y0061193D02*
D03*
Y0058653D02*
D03*
Y0071353D02*
D03*
Y0068813D02*
D03*
Y0066273D02*
D03*
Y0073893D02*
D03*
X0059718Y0066273D02*
D03*
Y0068813D02*
D03*
Y0071353D02*
D03*
Y0058653D02*
D03*
Y0061193D02*
D03*
Y0063733D02*
D03*
Y0056113D02*
D03*
Y0053573D02*
D03*
Y0051033D02*
D03*
X0100358D02*
D03*
Y0053573D02*
D03*
Y0056113D02*
D03*
Y0063733D02*
D03*
Y0061193D02*
D03*
Y0058653D02*
D03*
Y0071353D02*
D03*
Y0068813D02*
D03*
Y0066273D02*
D03*
Y0073893D02*
D03*
X0102898Y0066273D02*
D03*
Y0068813D02*
D03*
Y0071353D02*
D03*
Y0058653D02*
D03*
Y0061193D02*
D03*
Y0063733D02*
D03*
Y0056113D02*
D03*
Y0053573D02*
D03*
Y0051033D02*
D03*
D37*
X0059718Y0073893D02*
D03*
X0102898D02*
D03*
D38*
X0074168Y0066167D02*
D03*
X0079883D02*
D03*
X0075946Y0068707D02*
D03*
X0066040Y0059309D02*
D03*
X0092329Y0049784D02*
D03*
X0091186Y0050800D02*
D03*
X0082042Y0049149D02*
D03*
X0080645Y0041910D02*
D03*
X0070485Y0052578D02*
D03*
X0071501Y0053721D02*
D03*
D39*
X0088011Y0080645D02*
D03*
X0077597D02*
D03*
X0065659Y0079375D02*
D03*
X0074041Y0075819D02*
D03*
X0073025Y0080772D02*
D03*
X0082169Y0066294D02*
D03*
X0081153Y0067691D02*
D03*
X0074930Y0054991D02*
D03*
Y0052832D02*
D03*
X0076708Y0052324D02*
D03*
X0077089Y0050927D02*
D03*
X0075553Y0072529D02*
D03*
X0078474D02*
D03*
X0077978Y0044704D02*
D03*
X0064389Y0072517D02*
D03*
M02*
